<svg width="20" height="20" fill="#377CFD" xmlns="http://www.w3.org/2000/svg"><path fill-rule="evenodd" clip-rule="evenodd" d="M18.333 20S20 20 20 18.333c0-1.666-1.667-6.666-10-6.666s-10 5-10 6.666C0 20 1.667 20 1.667 20h16.666zM1.675 18.427v-.004.004zm.028-.094h16.594a.45.45 0 00.023-.003l.013-.003c-.001-.41-.256-1.644-1.386-2.774-1.087-1.086-3.132-2.22-6.947-2.22-3.817 0-5.86 1.134-6.947 2.22-1.13 1.13-1.383 2.364-1.386 2.774l.036.006zm16.624.094v-.004.004zM10 8.333a3.333 3.333 0 100-6.666 3.333 3.333 0 000 6.666zM15 5A5 5 0 115 5a5 5 0 0110 0z"/></svg>