<svg width="33" height="40" viewBox="0 0 33 40" fill="none" xmlns="http://www.w3.org/2000/svg">
<path d="M22.7541 0H6.47398C4.09552 0 2.15979 1.91156 2.15979 4.25728V20H1.73834C0.778414 20 0 20.7675 0 21.7156V32.1195C0 33.0676 0.778414 33.835 1.73834 33.835H2.15979V35.7427C2.15979 38.091 4.09552 40 6.47389 40H28.6872C31.0643 40 33 38.0909 33 35.7427V10.0758L22.7541 0ZM2.8759 23.1446C3.48349 23.0492 4.27501 22.9955 5.1106 22.9955C6.49911 22.9955 7.39952 23.2414 8.10504 23.7657C8.86429 24.3227 9.34122 25.2119 9.34122 26.4855C9.34122 27.8662 8.83175 28.8193 8.12623 29.4078C7.35639 30.0391 6.18452 30.3387 4.75287 30.3387C3.89569 30.3387 3.2881 30.2851 2.87599 30.2315V23.1446H2.8759ZM28.6873 37.3928H6.47398C5.55298 37.3928 4.80306 36.6527 4.80306 35.7427V33.835H25.5106C26.4705 33.835 27.2491 33.0676 27.2491 32.1195V21.7156C27.2491 20.7675 26.4706 20 25.5106 20H4.80306V4.25728C4.80306 3.34982 5.55298 2.60979 6.47398 2.60979L21.7657 2.59402V8.17192C21.7657 9.80116 23.1053 11.1243 24.7573 11.1243L30.2945 11.1087L30.3568 35.7426C30.3569 36.6527 29.6082 37.3928 28.6873 37.3928ZM10.0937 26.7102C10.0937 24.5477 11.493 22.9315 13.652 22.9315C15.8979 22.9315 17.1235 24.5907 17.1235 26.582C17.1235 28.9474 15.67 30.3818 13.5328 30.3818C11.3632 30.3818 10.0937 28.7658 10.0937 26.7102ZM21.9551 29.022C22.454 29.022 23.0071 28.9147 23.333 28.7866L23.5821 30.0602C23.2787 30.2106 22.595 30.3714 21.706 30.3714C19.1779 30.3714 17.8761 28.8193 17.8761 26.764C17.8761 24.3018 19.6556 22.9316 21.8681 22.9316C22.7255 22.9316 23.376 23.1028 23.6689 23.2519L23.3329 24.5477C22.9964 24.4076 22.53 24.2796 21.9444 24.2796C20.6313 24.2796 19.6118 25.0616 19.6118 26.6672C19.6119 28.112 20.4796 29.022 21.9551 29.022Z" fill="#377CFD"/>
<path d="M7.584 26.539C7.59459 25.0393 6.70495 24.2483 5.28381 24.2483C4.91474 24.2483 4.67623 24.2797 4.53516 24.3123V29.0325C4.67623 29.0652 4.90423 29.0652 5.11029 29.0652C6.60751 29.0756 7.584 28.2623 7.584 26.539Z" fill="#377CFD"/>
<path d="M15.377 26.6348C15.377 25.3403 14.7476 24.2263 13.6087 24.2263C12.4911 24.2263 11.8398 25.2761 11.8398 26.6779C11.8398 28.0913 12.5129 29.0863 13.6194 29.0863C14.737 29.0863 15.377 28.0376 15.377 26.6348Z" fill="#377CFD"/>
</svg>
