<svg width="40" height="40" fill="none" xmlns="http://www.w3.org/2000/svg"><mask id="a" fill="#fff"><path d="M28.152 0h6.77A5.098 5.098 0 0140 5.12v6.83a5.098 5.098 0 01-5.078 5.12h-6.77a5.096 5.096 0 01-5.078-5.12V5.12A5.097 5.097 0 0128.152 0z"/></mask><path d="M34.922 0l.016-4h-.016v4zM40 5.12l-4-.017v.017h4zm0 6.83h-4v.017l4-.017zm-5.078 5.12v4h.016l-.016-4zm-6.77 0l-.015 4h.015v-4zm-5.078-5.12l4 .017v-.017h-4zm0-6.83h4v-.017l-4 .017zM28.152 4h6.77v-8h-6.77v8zm6.755 0c.144 0 .287.03.42.085l3.09-7.378A9.098 9.098 0 0034.938-4l-.03 8zm.42.085c.133.056.253.137.355.24l5.68-5.634a9.097 9.097 0 00-2.944-1.984l-3.091 7.378zm.355.24c.101.102.182.224.236.357l7.404-3.03a9.098 9.098 0 00-1.96-2.96l-5.68 5.633zm.236.357c.055.134.083.276.082.42l8 .035a9.097 9.097 0 00-.678-3.485l-7.404 3.03zM36 5.12v6.83h8V5.12h-8zm0 6.847c0 .144-.027.287-.081.42l7.403 3.031A9.097 9.097 0 0044 11.933l-8 .034zm-.081.42a1.097 1.097 0 01-.237.358l5.68 5.634a9.098 9.098 0 001.96-2.96l-7.404-3.031zm-.237.358a1.1 1.1 0 01-.355.24l3.09 7.378a9.095 9.095 0 002.945-1.984l-5.68-5.634zm-.355.24a1.097 1.097 0 01-.42.085l.03 8a9.098 9.098 0 003.48-.707l-3.09-7.378zm-.405.085h-6.77v8h6.77v-8zm-6.754 0c-.144 0-.287-.03-.42-.085l-3.091 7.378a9.098 9.098 0 003.48.707l.03-8zm-.42-.085a1.1 1.1 0 01-.355-.24l-5.68 5.634a9.097 9.097 0 002.944 1.984l3.091-7.378zm-.355-.24a1.1 1.1 0 01-.237-.357l-7.404 3.03a9.1 9.1 0 001.96 2.96l5.68-5.633zm-.237-.357a1.099 1.099 0 01-.082-.42l-8-.035a9.099 9.099 0 00.678 3.485l7.404-3.03zm-.082-.438V5.12h-8v6.83h8zm0-6.847c0-.145.027-.287.082-.42l-7.404-3.031a9.099 9.099 0 00-.678 3.485l8-.034zm.082-.42a1.1 1.1 0 01.237-.358l-5.68-5.634a9.1 9.1 0 00-1.96 2.96l7.403 3.031zm.237-.358c.101-.103.222-.184.355-.24l-3.091-7.378a9.099 9.099 0 00-2.945 1.984l5.68 5.634zm.355-.24c.133-.055.276-.084.42-.085l-.031-8a9.098 9.098 0 00-3.48.707l3.091 7.378z" fill="#00BB98" mask="url(#a)"/><path d="M11.333 24.93l.507.002a3.097 3.097 0 013.086 3.111h0V34.888A3.1 3.1 0 0111.843 38H5.084A3.1 3.1 0 012 34.888V28.04a3.098 3.098 0 013.082-3.111h6.251zm23.074 0l.507.002A3.097 3.097 0 0138 28.043V34.888A3.1 3.1 0 0134.917 38h-6.76a3.1 3.1 0 01-3.083-3.112V28.04a3.098 3.098 0 013.082-3.111h6.251zM14.927 5.111h0v6.839h-.001v.009a3.1 3.1 0 01-3.082 3.111h-6.76A3.098 3.098 0 012 11.957h0V5.12h0v-.009A3.098 3.098 0 015.082 2h6.762a3.098 3.098 0 013.082 3.111z" stroke="#00BB98" stroke-width="4"/></svg>