<svg width="20" height="20" fill="none" xmlns="http://www.w3.org/2000/svg"><path opacity=".4" d="M14.076 0h3.385a2.55 2.55 0 012.54 2.56v3.415a2.549 2.549 0 01-2.54 2.56h-3.385a2.549 2.549 0 01-2.539-2.56V2.56A2.55 2.55 0 0114.077 0z" fill="#377CFD"/><path d="M5.924 11.466a2.55 2.55 0 012.539 2.56v3.414A2.55 2.55 0 015.924 20H2.54A2.551 2.551 0 010 17.44v-3.415a2.549 2.549 0 012.539-2.56h3.385v.001zm11.537 0A2.55 2.55 0 0120 14.026v3.414A2.55 2.55 0 0117.461 20h-3.385a2.55 2.55 0 01-2.539-2.56v-3.415a2.55 2.55 0 012.539-2.56h3.385v.001zM5.924 0a2.549 2.549 0 012.539 2.56v3.415a2.55 2.55 0 01-2.539 2.56H2.54A2.549 2.549 0 010 5.974V2.56A2.549 2.549 0 012.539 0h3.385z" fill="#377CFD"/></svg>