<svg width="33" height="40" viewBox="0 0 33 40" fill="none" xmlns="http://www.w3.org/2000/svg">
<path d="M8.17412 25.735C8.17412 25.0707 7.70702 24.6746 6.88288 24.6746C6.54635 24.6746 6.31843 24.7073 6.19922 24.7387V26.87C6.34037 26.9014 6.51389 26.9118 6.75308 26.9118C7.63153 26.9118 8.17412 26.4739 8.17412 25.735Z" fill="#377CFD"/>
<path d="M13.276 24.6965C12.9069 24.6965 12.6684 24.728 12.5273 24.7606V29.4809C12.6685 29.5136 12.8964 29.5136 13.1025 29.5136C14.5997 29.524 15.5762 28.7107 15.5762 26.9874C15.5868 25.4888 14.6969 24.6965 13.276 24.6965Z" fill="#377CFD"/>
<path d="M22.7538 0H6.47384C4.09549 0 2.15977 1.91156 2.15977 4.25728V20H1.73841C0.778492 20 0 20.7675 0 21.7156V32.1195C0 33.0676 0.778408 33.835 1.73841 33.835H2.15977V35.7427C2.15977 38.091 4.09549 40 6.47384 40H28.6872C31.064 40 33 38.0909 33 35.7427V10.0758L22.7538 0ZM4.56057 23.5931C5.07004 23.5082 5.78615 23.4441 6.79508 23.4441C7.81468 23.4441 8.54139 23.6362 9.02967 24.022C9.49609 24.3855 9.81085 24.9856 9.81085 25.6918C9.81085 26.3978 9.57234 26.998 9.13837 27.4046C8.57392 27.929 7.73919 28.1643 6.76271 28.1643C6.54539 28.1643 6.3506 28.1537 6.19826 28.1329V30.7127H4.56057V23.5931ZM28.6872 37.3928H6.47384C5.55294 37.3928 4.80303 36.6527 4.80303 35.7427V33.835H25.5104C26.4705 33.835 27.2489 33.0676 27.2489 32.1195V21.7156C27.2489 20.7675 26.4705 20 25.5104 20H4.80303V4.25728C4.80303 3.34982 5.55302 2.60979 6.47384 2.60979L21.7654 2.59402V8.17192C21.7654 9.80116 23.105 11.1243 24.7572 11.1243L30.2943 11.1087L30.3566 35.7426C30.3566 36.6527 29.608 37.3928 28.6872 37.3928ZM10.8669 30.68V23.5931C11.4743 23.4977 12.266 23.4441 13.1015 23.4441C14.49 23.4441 15.3904 23.6899 16.0959 24.2142C16.8551 24.7712 17.332 25.6591 17.332 26.9338C17.332 28.3146 16.8226 29.2678 16.117 29.8561C15.3471 30.4876 14.1753 30.7871 12.7436 30.7871C11.8863 30.7871 11.2789 30.7335 10.8669 30.68ZM22.7062 26.4841V27.8112H20.0807V30.7127H18.4212V23.4977H22.8904V24.8352H20.0807V26.4841H22.7062Z" fill="#377CFD"/>
</svg>
