<svg width="41" height="30" fill="none" xmlns="http://www.w3.org/2000/svg"><path d="M9.105 11.922c-.445 0-.873.068-1.298.13.138-.463.28-.934.507-1.358.228-.615.583-1.148.937-1.685.295-.581.817-.975 1.2-1.472.401-.483.949-.805 1.382-1.206.425-.42.983-.63 1.426-.925.463-.266.867-.56 1.298-.699l1.076-.443.947-.394L15.611 0 14.42.288c-.381.095-.847.207-1.376.341-.541.1-1.118.374-1.761.623-.635.284-1.37.475-2.053.93-.687.436-1.48.8-2.179 1.383-.677.6-1.494 1.122-2.097 1.887-.659.715-1.31 1.466-1.815 2.32-.585.815-.983 1.71-1.402 2.595-.38.884-.685 1.79-.935 2.668a24.107 24.107 0 00-.767 4.867c-.067 1.433-.028 2.626.056 3.488.03.408.086.803.126 1.077l.05.335.052-.012a8.987 8.987 0 108.787-10.868zm21.968 0c-.446 0-.873.068-1.298.13.137-.463.28-.934.507-1.358.227-.615.583-1.148.936-1.685.296-.581.817-.975 1.2-1.472.402-.483.95-.805 1.383-1.206.425-.42.982-.63 1.425-.925.464-.266.867-.56 1.299-.699l1.076-.443.947-.394L37.579 0l-1.192.288c-.382.095-.847.207-1.376.341-.541.1-1.119.374-1.762.623-.633.286-1.37.475-2.053.933-.687.435-1.48.799-2.178 1.382-.677.6-1.494 1.122-2.097 1.885-.66.715-1.31 1.466-1.816 2.32-.585.815-.982 1.71-1.402 2.595-.379.884-.684 1.79-.934 2.668a24.108 24.108 0 00-.767 4.867c-.068 1.433-.028 2.626.056 3.488.03.408.086.803.126 1.077l.05.335.052-.012a8.987 8.987 0 108.787-10.868z" fill="#FD4C5C"/></svg>