<svg fill="none" height="343" viewBox="0 0 328 343" width="328" xmlns="http://www.w3.org/2000/svg"><path d="m39.9927 284.916c-5.1689-1.386-10.1319-3.84-14.5894-7.28-17.25068-13.524-20.79291-38.042-8.3266-55.782.5604-.891 1.9513-3.084 3.2072-5.071 80.4441-128.0894 116.6881-154.8432 149.0701-156.4193 17.34-.8808 33.338 6.5361 44.094 20.323 5.488 7.0832 9.327 14.9265 11.421 23.5843 9.747-15.9833 16.068-27.2745 16.183-27.404 10.995-19.7373 35.944-26.8341 55.72-15.8387 19.776 10.9953 26.904 35.9138 15.91 55.6507-.911 1.6-22.685 40.571-49.874 79.373-16.649 23.752-32.108 42.773-45.805 56.415-9.735 9.654-18.734 16.86-27.606 22.096-14.686 8.647-29.471 11.976-43.73 9.755-17.432-2.671-31.639-12.573-39.162-27.337-2.643-5.118-4.136-10.328-4.86-15.412-3.8227 5.869-7.8403 12.166-11.9381 18.763-4.0778 6.522-5.0635 8.101-6.7741 10.288-10.4738 13.303-27.5832 18.414-42.9401 14.296zm-21.7203-64.825s-.02.075 0 0c-.02.075 0 0 0 0z" fill="#c0b3f9"/></svg>