<svg width="159" height="160" viewBox="0 0 159 160" fill="none" xmlns="http://www.w3.org/2000/svg">
<path d="M95.5164 159.128C60.8172 159.128 32.688 130.969 32.688 96.2316C32.688 61.4948 60.8172 33.335 95.5164 33.335C130.216 33.335 158.345 61.4948 158.345 96.2316C158.345 130.969 130.216 159.128 95.5164 159.128Z" stroke="#00AEFF" stroke-width="1.27002" stroke-miterlimit="10"/>
<path d="M50.4248 40.1904L61.3812 51.1587L50.4248 62.127L39.4684 51.1587L50.4248 40.1904Z" fill="#00AEFF"/>
<path d="M7.74707 93.8941L93.075 8.47363" stroke="#00AEFF" stroke-width="1.27002" stroke-miterlimit="10"/>
<path d="M87.6625 13.9986C90.7402 17.0797 95.6222 17.0797 98.5938 13.9986C101.672 10.9176 101.672 6.0303 98.5938 3.05545C95.516 -0.0256442 90.6341 -0.0256442 87.6625 3.05545C84.5847 6.0303 84.5847 10.9176 87.6625 13.9986Z" fill="#00AEFF"/>
<path d="M2.33361 99.4191C5.41137 102.5 10.2933 102.5 13.2649 99.4191C16.3427 96.338 16.3427 91.4507 13.2649 88.4759C10.1872 85.3948 5.30524 85.3948 2.33361 88.4759C-0.74414 91.4507 -0.74414 96.338 2.33361 99.4191Z" fill="#00AEFF"/>
</svg>
