<svg width="1490" height="1100" fill="none" xmlns="http://www.w3.org/2000/svg"><g clip-path="url(#clip0)"><path d="M798.636 424.143C510.775 317.484 433.603-20.394 431-176h1058v1446h-221.2c5.3-301.541-109.34-712.532-469.164-845.857z" fill="#077C76" fill-opacity=".1"/><path d="M950.305 531.73C621.386 349.161 581.504-12.16 602.679-170H1490v1437h-117.54c-3.67-169.02-93.24-552.702-422.155-735.27z" fill="#077C76" fill-opacity=".1"/><path d="M1159.55 472.822C833.097 351.232 771.846-6.388 782.027-170H1490v1435h-81.11c52.9-213.4 77.1-670.588-249.34-792.178z" fill="#077C76"/><path d="M917.252 644C409.459 514.8 342.917 45.5 373.121-173H1487v1486h-161.77c75.59-169.17 99.81-539.8-407.978-669z" stroke="#077C76" stroke-opacity=".1" stroke-width="3"/><path d="M836.5 694c-608-60-606.667-565-530-810h1185v1392.5H1303C1330.2 817.7 1003.33 697 836.5 694z" stroke="#077C76" stroke-opacity=".1" stroke-width="3"/></g><defs><clipPath id="clip0"><path fill="#fff" d="M0 0h1490v1100H0z"/></clipPath></defs></svg>