<svg xmlns="http://www.w3.org/2000/svg" width="65" height="35" viewBox="0 0 65 35"><g transform="translate(5928 1440)"><rect width="65" height="35" rx="4" transform="translate(-5928 -1440)" fill="#fff"/><g transform="translate(-5922.062 -1438.4)"><g transform="translate(0 0)"><path d="M194,33.1a15.9,15.9,0,1,1-15.9-15.9A15.926,15.926,0,0,1,194,33.1Z" transform="translate(-162.2 -17.2)" fill="#d60d18"/><g transform="translate(21.741)"><path d="M224.629,17.2a15.835,15.835,0,0,0-10.662,4.126,13.426,13.426,0,0,0-1.576,1.669h3.2c.417.51.834,1.113,1.205,1.669H211.14c-.324.556-.649,1.113-.927,1.669h7.463c.278.556.464,1.113.7,1.669h-8.808c-.185.556-.324,1.113-.464,1.669h9.735a16.1,16.1,0,0,1,.371,3.384,15.2,15.2,0,0,1-.834,5.053h-8.808a10.555,10.555,0,0,0,.7,1.669h7.463a11.752,11.752,0,0,1-.927,1.669H211.14a15.388,15.388,0,0,0,1.205,1.669h3.2a13.8,13.8,0,0,1-1.622,1.669A15.865,15.865,0,1,0,224.629,17.2Z" transform="translate(-209.1 -17.2)" fill="#f6aa00"/></g><g transform="translate(1.02 11.821)"><g transform="translate(0 0.139)"><path d="M184.423,50.748c-.185,0-.278-.046-.371-.046-.973,0-1.483.324-1.483,1.02a.574.574,0,0,0,.6.649C183.913,52.37,184.423,51.721,184.423,50.748Zm1.252,2.92h-1.437l.046-.7a2.09,2.09,0,0,1-1.808.788,1.629,1.629,0,0,1-1.576-1.808c0-1.576,1.113-2.55,3.013-2.55a3.747,3.747,0,0,1,.7.046,1.793,1.793,0,0,0,.046-.417c0-.417-.324-.6-1.113-.6a6.06,6.06,0,0,0-1.808.278c0-.093.232-1.483.232-1.483a7.65,7.65,0,0,1,2.086-.324c1.483,0,2.271.649,2.271,1.9a8.269,8.269,0,0,1-.139,1.3C186.045,51.165,185.721,53.2,185.675,53.668Z" transform="translate(-173.251 -45.092)" fill="#183265"/><path d="M171.353,52.166h-1.762l1.02-6.212-2.225,6.212h-1.159L167.089,46l-1.066,6.165H164.4l1.344-8.066h2.5l.139,4.543,1.53-4.543h2.735Z" transform="translate(-164.4 -43.59)" fill="#183265"/><path d="M243.123,50.748c-.185,0-.278-.046-.371-.046-.973,0-1.483.324-1.483,1.02a.574.574,0,0,0,.6.649C242.567,52.37,243.077,51.721,243.123,50.748Zm1.252,2.92h-1.437l.046-.7a2.09,2.09,0,0,1-1.808.788,1.629,1.629,0,0,1-1.576-1.808c0-1.576,1.113-2.55,3.013-2.55a3.747,3.747,0,0,1,.7.046,3.776,3.776,0,0,0,.093-.417c0-.417-.324-.6-1.113-.6a6.06,6.06,0,0,0-1.808.278c0-.093.232-1.483.232-1.483A7.4,7.4,0,0,1,242.8,46.9c1.483,0,2.271.649,2.271,1.9a8.271,8.271,0,0,1-.139,1.3C244.745,51.165,244.421,53.2,244.375,53.668Z" transform="translate(-204.741 -45.092)" fill="#183265"/><path d="M204.8,52.717a4.226,4.226,0,0,1-1.252.232c-.881,0-1.344-.51-1.344-1.437,0-.278.139-1.066.232-1.762.093-.6.742-4.45.742-4.45h1.715l-.185.973h1.02l-.232,1.576h-1.066c-.185,1.252-.464,2.781-.51,3.013,0,.324.185.464.6.464a1.292,1.292,0,0,0,.464-.046Z" transform="translate(-184.678 -44.234)" fill="#183265"/><path d="M213.682,53.636a5.822,5.822,0,0,1-1.762.278,2.619,2.619,0,0,1-2.92-2.92c0-2.225,1.252-3.894,3.013-3.894a2.2,2.2,0,0,1,2.318,2.364,5.668,5.668,0,0,1-.232,1.622h-3.43c-.093.927.51,1.344,1.483,1.344a4.084,4.084,0,0,0,1.762-.417Zm-.973-3.894c0-.139.185-1.159-.788-1.159-.556,0-.927.417-1.113,1.159Z" transform="translate(-188.325 -45.199)" fill="#183265"/><path d="M192.749,49.225a1.9,1.9,0,0,0,1.3,1.808c.7.324.788.417.788.742,0,.417-.324.6-.973.6a4.653,4.653,0,0,1-1.53-.278s-.232,1.437-.232,1.53a6.248,6.248,0,0,0,1.808.185c1.808,0,2.642-.7,2.642-2.179a1.794,1.794,0,0,0-1.205-1.808c-.742-.324-.788-.417-.788-.7q0-.556.834-.556c.324,0,.788.046,1.252.093l.232-1.53a8.934,8.934,0,0,0-1.53-.139C193.4,47.046,192.749,48.02,192.749,49.225Z" transform="translate(-179.259 -45.146)" fill="#183265"/><path d="M228.188,45.04a3.626,3.626,0,0,1,1.53.417L230,43.7a5.115,5.115,0,0,0-1.9-.7,3.4,3.4,0,0,0-2.828,1.53c-1.02-.324-1.437.324-1.9,1.02l-.464.093a3.06,3.06,0,0,0,.046-.649h-1.576c-.232,2.04-.6,4.079-.881,6.119l-.093.417h1.715c.278-1.854.464-3.059.556-3.894l.649-.371c.093-.371.417-.464,1.02-.464a6.293,6.293,0,0,0-.139,1.344c0,2.132,1.159,3.477,3.013,3.477a5.106,5.106,0,0,0,1.53-.232l.324-1.854a3.287,3.287,0,0,1-1.483.417c-1.02,0-1.622-.742-1.622-1.947C226.009,46.291,226.89,45.04,228.188,45.04Z" transform="translate(-194.441 -43)" fill="#183265"/><path d="M259.259,44.046l-.371,2.318a2.181,2.181,0,0,0-1.669-1.066,2.629,2.629,0,0,0-2.179,1.622,10.259,10.259,0,0,1-1.483-.417h0c.046-.556.093-.881.093-.973h-1.576c-.232,2.04-.6,4.079-.881,6.119l-.093.417h1.715q.348-2.295.556-3.755c.6-.51.881-1.02,1.483-.973a5.466,5.466,0,0,0-.417,2.132c0,1.622.834,2.735,2.086,2.735a1.972,1.972,0,0,0,1.576-.742l-.093.6h1.622l1.3-8.066h-1.669Zm-2.132,6.536c-.6,0-.881-.417-.881-1.3,0-1.3.556-2.179,1.344-2.179.6,0,.927.464.927,1.3C258.471,49.7,257.914,50.583,257.126,50.583Z" transform="translate(-210.91 -43.536)" fill="#183265"/></g><g transform="translate(0.51)"><path d="M172.407,51.166h-1.715l.973-6.212-2.179,6.212h-1.205L168.142,45l-1.02,6.165H165.5l1.344-8.066h2.5l.046,5.006,1.669-5.006h2.689Z" transform="translate(-165.5 -42.915)" fill="#fff"/><path d="M185.523,49.748c-.185,0-.278-.046-.371-.046-.973,0-1.483.324-1.483.973a.612.612,0,0,0,.6.7C184.967,51.37,185.477,50.721,185.523,49.748Zm1.252,2.92h-1.437l.046-.7a2.09,2.09,0,0,1-1.808.788A1.629,1.629,0,0,1,182,50.953c0-1.576,1.113-2.5,3.013-2.5a3.747,3.747,0,0,1,.7.046,1.793,1.793,0,0,0,.046-.417c0-.417-.324-.6-1.113-.6a6.06,6.06,0,0,0-1.808.278c0-.093.232-1.483.232-1.483a7.938,7.938,0,0,1,2.086-.371c1.483,0,2.271.649,2.271,1.9a8.269,8.269,0,0,1-.139,1.3C187.145,50.118,186.821,52.158,186.775,52.668Z" transform="translate(-174.351 -44.417)" fill="#fff"/><path d="M235.548,43.117l-.278,1.762a3.052,3.052,0,0,0-1.53-.417c-1.3,0-2.179,1.252-2.179,3.013,0,1.205.6,1.947,1.622,1.947A3.625,3.625,0,0,0,234.667,49l-.324,1.854a5.106,5.106,0,0,1-1.53.232c-1.854,0-3.013-1.344-3.013-3.477,0-2.874,1.576-4.914,3.894-4.914A4.747,4.747,0,0,1,235.548,43.117Z" transform="translate(-199.993 -42.7)" fill="#fff"/><path d="M244.123,49.748c-.185,0-.278-.046-.371-.046-.973,0-1.483.324-1.483.973a.612.612,0,0,0,.6.7C243.613,51.37,244.123,50.721,244.123,49.748Zm1.252,2.92h-1.437l.046-.7a2.09,2.09,0,0,1-1.808.788,1.629,1.629,0,0,1-1.576-1.808c0-1.576,1.113-2.5,3.013-2.5a3.747,3.747,0,0,1,.7.046,1.793,1.793,0,0,0,.046-.417c0-.417-.278-.6-1.113-.6a6.06,6.06,0,0,0-1.808.278c0-.093.232-1.483.232-1.483a7.965,7.965,0,0,1,2.04-.371c1.483,0,2.271.649,2.271,1.9a8.269,8.269,0,0,1-.139,1.3C245.745,50.118,245.421,52.158,245.375,52.668Z" transform="translate(-205.787 -44.417)" fill="#fff"/><path d="M205.8,51.717a4.226,4.226,0,0,1-1.252.232c-.881,0-1.344-.51-1.344-1.437,0-.278.139-1.066.232-1.762.093-.6.742-4.45.742-4.45h1.715l-.185.973h.881l-.232,1.576h-.881c-.185,1.252-.464,2.781-.464,3.013,0,.324.185.464.6.464a1.292,1.292,0,0,0,.464-.046Z" transform="translate(-185.724 -43.558)" fill="#fff"/><path d="M214.782,52.636a5.822,5.822,0,0,1-1.762.278,2.619,2.619,0,0,1-2.92-2.92c0-2.225,1.252-3.894,3.013-3.894a2.179,2.179,0,0,1,2.318,2.364,5.669,5.669,0,0,1-.232,1.622h-3.43c-.139.927.51,1.344,1.483,1.344a4.444,4.444,0,0,0,1.808-.417Zm-.973-3.894c0-.139.185-1.159-.788-1.159-.556,0-.927.417-1.113,1.159Z" transform="translate(-189.425 -44.524)" fill="#fff"/><path d="M193.749,48.277a2,2,0,0,0,1.3,1.854c.7.324.788.417.788.742,0,.417-.324.6-.973.6a4.654,4.654,0,0,1-1.53-.278s-.232,1.437-.232,1.53a6.248,6.248,0,0,0,1.808.185c1.808,0,2.642-.7,2.642-2.179a1.794,1.794,0,0,0-1.205-1.808c-.742-.324-.788-.417-.788-.7q0-.556.834-.556c.324,0,.788.046,1.252.093l.232-1.53c-.464-.046-1.113-.139-1.53-.139C194.444,46.052,193.749,47.072,193.749,48.277Z" transform="translate(-180.306 -44.522)" fill="#fff"/><path d="M264.592,51.166h-1.622l.093-.6a2.038,2.038,0,0,1-1.576.742c-1.252,0-2.086-1.066-2.086-2.735,0-2.179,1.3-4.033,2.828-4.033a2.09,2.09,0,0,1,1.669.881l.371-2.318h1.715Zm-2.5-1.53c.788,0,1.344-.927,1.344-2.225,0-.834-.324-1.3-.927-1.3-.788,0-1.344.927-1.344,2.225C261.162,49.219,261.486,49.636,262.089,49.636Z" transform="translate(-215.872 -42.915)" fill="#fff"/><path d="M253.173,46.269c-.232,2.04-.6,4.079-.881,6.119l-.093.464h1.715c.6-3.987.788-4.775,1.715-4.682a5.575,5.575,0,0,1,.649-1.9c-.742-.139-1.113.278-1.669,1.02a3.472,3.472,0,0,0,.093-.973h-1.53Z" transform="translate(-212.01 -44.6)" fill="#fff"/><path d="M222.573,46.269c-.232,2.04-.6,4.079-.881,6.119l-.093.464h1.715c.6-3.987.788-4.775,1.715-4.682a6.807,6.807,0,0,1,.649-1.9c-.742-.139-1.113.278-1.669,1.02a3.47,3.47,0,0,0,.093-.973h-1.53Z" transform="translate(-195.594 -44.6)" fill="#fff"/><g transform="translate(49.508 7.232)"><path d="M272.3,58.81a.51.51,0,1,1,.51.51A.514.514,0,0,1,272.3,58.81Zm.51.371a.371.371,0,1,0-.371-.371C272.393,59,272.578,59.181,272.81,59.181Zm-.093-.139h-.093v-.464h.185c.046,0,.093,0,.093.046a.144.144,0,0,1,.046.093c0,.046-.046.093-.093.139l.093.185h-.139l-.046-.185h-.093v.185Zm0-.278h.093l.046-.046a.045.045,0,0,0-.046-.046h-.093Z" transform="translate(-272.3 -58.3)" fill="#fff"/></g></g></g></g></g></g></svg>