<svg width="58" height="62" fill="none" xmlns="http://www.w3.org/2000/svg"><path fill-rule="evenodd" clip-rule="evenodd" d="M4.756 44.824a4.24 4.24 0 108.389 1.234 4.24 4.24 0 00-8.39-1.234z" fill="#BDC5D1"/><path d="M15.809 34.677a100.965 100.965 0 014.901-5.582 1.283 1.283 0 012.119 1.367c-.06.154-.149.296-.262.417a95.08 95.08 0 00-4.773 5.436 1.284 1.284 0 11-1.992-1.62l.007-.018zM29.91 22.627a69.664 69.664 0 016.58-3.522 1.282 1.282 0 111.08 2.327 67.484 67.484 0 00-6.36 3.38 1.284 1.284 0 01-1.322-2.198l.022.013zM46.643 15.597a43.959 43.959 0 017.324-1.721 1.283 1.283 0 011.465 1.066 1.287 1.287 0 01-1.087 1.456 41.563 41.563 0 00-6.91 1.634 1.283 1.283 0 01-.794-2.44l.002.005z" fill="#BDC5D1"/></svg>