<svg fill="none" height="338" width="400" xmlns="http://www.w3.org/2000/svg"><clipPath id="a"><path d="M0 0h400v338H0z"/></clipPath><g clip-path="url(#a)"><path d="M599.8.3H-.2v337.3h600z" fill="#f39568" opacity=".1"/><path d="M355.2 131.5c24.908 0 45.1-8.148 45.1-18.2s-20.192-18.2-45.1-18.2-45.1 8.148-45.1 18.2 20.192 18.2 45.1 18.2z" fill="#000" opacity=".1"/><path d="M393.9 121.5c22.312 0 40.4-18.088 40.4-40.4 0-22.312-18.088-40.4-40.4-40.4s-40.4 18.087-40.4 40.4c0 22.312 18.088 40.4 40.4 40.4z" fill="#f39568" opacity=".85"/><path d="M38.8 420.5c66.44 0 120.3-53.86 120.3-120.3S105.24 179.9 38.8 179.9-81.5 233.76-81.5 300.2s53.86 120.3 120.3 120.3z" fill="#077c76" opacity=".7"/></g></svg>