<svg width="306" height="295" fill="none" xmlns="http://www.w3.org/2000/svg"><path d="M305.67 42.519c-13.301 0-26.057 5.34-35.462 14.848-9.405 9.507-14.688 22.402-14.688 35.847s5.283 26.339 14.688 35.847c9.405 9.507 22.161 14.848 35.462 14.848v-23.535a26.726 26.726 0 01-18.999-7.955c-5.039-5.094-7.87-12.002-7.87-19.205 0-7.204 2.831-14.112 7.87-19.206a26.724 26.724 0 0118.999-7.954V42.519z" fill="#247F72"/><path d="M305.669 0c-24.577 0-48.147 9.82-65.526 27.302-17.379 17.48-27.142 41.19-27.142 65.912 0 24.721 9.763 48.431 27.142 65.912 17.379 17.48 40.949 27.301 65.526 27.301v-43.274a49.5 49.5 0 01-35.106-14.627c-9.31-9.365-14.541-22.068-14.541-35.312 0-13.245 5.231-25.948 14.541-35.313a49.502 49.502 0 0135.106-14.627V0z" fill="#0A7261"/><path d="M125.519 55.601C102.036 55.601 83 74.637 83 98.12c0 23.482 19.036 42.518 42.519 42.518 23.482 0 42.518-19.036 42.518-42.518 0-23.483-19.036-42.519-42.518-42.519z" fill="#247F72"/><path d="M125.518 80.677c-9.633 0-17.443 7.81-17.443 17.443 0 9.634 7.81 17.443 17.443 17.443 9.634 0 17.444-7.809 17.444-17.443s-7.81-17.444-17.444-17.444z" fill="#0A7261"/></svg>