<svg width="400" height="338" fill="none" xmlns="http://www.w3.org/2000/svg"><g clip-path="url(#clip0)"><path opacity=".1" d="M500 0h-600v337.5h600V0z" fill="#08BC80"/><path opacity=".1" d="M103 289.8c7.953 0 14.4-6.447 14.4-14.4S110.953 261 103 261s-14.4 6.447-14.4 14.4 6.447 14.4 14.4 14.4zM190.8 290.2c7.953 0 14.4-6.447 14.4-14.4s-6.447-14.4-14.4-14.4-14.4 6.447-14.4 14.4 6.447 14.4 14.4 14.4zM190.8 182.2c7.953 0 14.4-6.447 14.4-14.4s-6.447-14.4-14.4-14.4-14.4 6.447-14.4 14.4 6.447 14.4 14.4 14.4zM278.6 290.2c7.953 0 14.4-6.447 14.4-14.4s-6.447-14.4-14.4-14.4-14.4 6.447-14.4 14.4 6.447 14.4 14.4 14.4zM278.6 182.2c7.953 0 14.4-6.447 14.4-14.4s-6.447-14.4-14.4-14.4-14.4 6.447-14.4 14.4 6.447 14.4 14.4 14.4zM278.6 94.1c7.953 0 14.4-6.447 14.4-14.4s-6.447-14.4-14.4-14.4-14.4 6.447-14.4 14.4 6.447 14.4 14.4 14.4z" fill="#013D32"/><path d="M103 272.8c7.953 0 14.4-6.447 14.4-14.4S110.953 244 103 244s-14.4 6.447-14.4 14.4 6.447 14.4 14.4 14.4zM190.8 273.2c7.953 0 14.4-6.447 14.4-14.4s-6.447-14.4-14.4-14.4-14.4 6.447-14.4 14.4 6.447 14.4 14.4 14.4zM190.8 165.2c7.953 0 14.4-6.447 14.4-14.4s-6.447-14.4-14.4-14.4-14.4 6.447-14.4 14.4 6.447 14.4 14.4 14.4zM278.6 273.2c7.953 0 14.4-6.447 14.4-14.4s-6.447-14.4-14.4-14.4-14.4 6.447-14.4 14.4 6.447 14.4 14.4 14.4zM278.6 165.2c7.953 0 14.4-6.447 14.4-14.4s-6.447-14.4-14.4-14.4-14.4 6.447-14.4 14.4 6.447 14.4 14.4 14.4zM278.6 77.1c7.953 0 14.4-6.447 14.4-14.4s-6.447-14.4-14.4-14.4-14.4 6.447-14.4 14.4 6.447 14.4 14.4 14.4z" fill="#00C9A7"/><path d="M293 61.5h-28.8v89.8H293V61.5z" fill="url(#paint0_linear)"/><path d="M293 170.3h-28.8v89.8H293v-89.8z" fill="url(#paint1_linear)"/><path d="M205.3 170.3h-28.8v89.8h28.8v-89.8z" fill="url(#paint2_linear)"/></g><defs><linearGradient id="paint0_linear" x1="278.63" y1="151.298" x2="278.63" y2="61.544" gradientUnits="userSpaceOnUse"><stop stop-color="#00C9A7"/><stop offset="1" stop-color="#fff" stop-opacity="0"/></linearGradient><linearGradient id="paint1_linear" x1="278.63" y1="260.065" x2="278.63" y2="170.312" gradientUnits="userSpaceOnUse"><stop stop-color="#00C9A7"/><stop offset="1" stop-color="#fff" stop-opacity="0"/></linearGradient><linearGradient id="paint2_linear" x1="190.849" y1="260.065" x2="190.849" y2="170.312" gradientUnits="userSpaceOnUse"><stop stop-color="#00C9A7"/><stop offset="1" stop-color="#fff" stop-opacity="0"/></linearGradient><clipPath id="clip0"><path fill="#fff" d="M0 0h400v338H0z"/></clipPath></defs></svg>