<svg width="306" height="295" fill="none" xmlns="http://www.w3.org/2000/svg"><path d="M0 0a90 90 0 0190 90H41.539A41.539 41.539 0 000 48.461V0z" fill="#038972"/><path d="M100.5 236c53.295 0 96.5-43.205 96.5-96.5 0-53.296-43.205-96.5-96.5-96.5S4 86.204 4 139.5c0 53.295 43.205 96.5 96.5 96.5z" fill="#1AA086"/><path d="M80 97H0v95h80V97z" fill="#038972"/><path d="M80 97h9c33.137 0 60 26.863 60 60v138H80V97z" fill="#2FB59C"/><path d="M79.5 168a21.49 21.49 0 0015.203-6.297A21.51 21.51 0 00101 146.5 21.503 21.503 0 0079.5 125v43z" fill="#1AA086"/><path d="M79.5 125a21.5 21.5 0 100 43v-43z" fill="#2FB59C"/></svg>