<svg width="305" height="423" fill="none" xmlns="http://www.w3.org/2000/svg"><path d="M305 251.5a58.5 58.5 0 11-58.5-58.5v6.362a52.137 52.137 0 1052.138 52.138H305z" fill="#247F72"/><path d="M289 251.5a42.5 42.5 0 11-42.5-42.5v6.156a36.35 36.35 0 00-20.192 6.125 36.352 36.352 0 00-15.453 37.309 36.34 36.34 0 0049.553 26.487 36.352 36.352 0 0016.311-13.385 36.35 36.35 0 006.125-20.192H289z" fill="#247F72"/><path d="M273 251.5a26.5 26.5 0 11-26.5-26.5v4.991a21.505 21.505 0 00-19.872 13.278 21.507 21.507 0 0015.676 29.327 21.507 21.507 0 0025.705-21.096H273z" fill="#247F72"/><path d="M259 251.5a12.5 12.5 0 11-12.5-12.5v4.474a8.027 8.027 0 108.026 8.026H259zM253 193c28.719 0 52 23.281 52 52h-52v-52z" fill="#247F72"/><path d="M123.5 225h9c33.137 0 60 26.863 60 60v138h-69V225z" fill="#0A7261"/><rect y="107" width="109" height="189" rx="54.5" fill="#2FB59C"/><circle cx="248.5" cy="366.5" transform="rotate(90 248.5 366.5)" fill="#0FA88C" r="56.5"/><circle cx="54.5" cy="241.5" transform="rotate(90 54.5 241.5)" fill="#038972" r="54.5"/><circle cx="142.5" cy="106.5" transform="rotate(90 142.5 106.5)" fill="#038972" r="49.5"/><rect x="192" y="57" width="113" height="136" rx="12" fill="#F39568" fill-opacity=".2"/><circle cx="236.5" cy="114.5" r="6.5" fill="#F39568"/><circle cx="236.5" cy="135.5" r="6.5" fill="#F39568"/><circle cx="257.5" cy="114.5" r="6.5" fill="#F39568"/><circle cx="257.5" cy="135.5" r="6.5" fill="#F39568"/><circle cx="248.5" cy="366.5" transform="rotate(90 248.5 366.5)" fill="#038972" r="22.5"/><path d="M123.5 296a21.496 21.496 0 0019.863-13.272 21.496 21.496 0 00-4.66-23.431A21.509 21.509 0 00123.5 253v43z" fill="#2FB59C"/><path d="M123.5 253a21.5 21.5 0 100 43v-43z" fill="#0A7261"/><rect y="296" width="124" height="127" rx="62" fill="#F39568" fill-opacity=".2"/><circle cx="50.086" cy="348.086" r="7.086" fill="#F39568"/><circle cx="50.086" cy="370.981" r="7.086" fill="#F39568"/><circle cx="72.981" cy="348.086" r="7.086" fill="#F39568"/><circle cx="72.981" cy="370.981" r="7.086" fill="#F39568"/><path d="M109 239v-83h83l-83 83zM107 53.5a53.502 53.502 0 01-63.937 52.472 53.498 53.498 0 01-38.99-72.946A53.5 53.5 0 0153.5 0v5.818A47.682 47.682 0 10101.182 53.5H107z" fill="#247F72"/><path d="M92 53.5A38.5 38.5 0 1153.5 15v5.577A32.923 32.923 0 1086.423 53.5H92z" fill="#247F72"/><path d="M78 53.5A24.5 24.5 0 1153.5 29v4.614A19.886 19.886 0 1073.386 53.5H78z" fill="#247F72"/><path d="M65 53.5A11.5 11.5 0 1153.5 42v4.116a7.384 7.384 0 107.384 7.384H65zM59 0h1c25.957 0 47 21.043 47 47H59V0z" fill="#247F72"/><rect x="105" width="200" height="57" rx="28.5" fill="#2FB59C"/><circle cx="276.5" cy="28.5" transform="rotate(90 276.5 28.5)" fill="#038972" r="23.5"/><circle cx="133.5" cy="28.5" transform="rotate(90 133.5 28.5)" fill="#038972" r="23.5"/></svg>