<svg width="717" height="653" fill="none" xmlns="http://www.w3.org/2000/svg"><path d="M170.176 228.357c7 2.567 14.756-1.028 17.322-8.028 2.566-7-1.028-14.755-8.028-17.322l-9.294 25.35zM98.682 71.416l-12.71-4.552-.125.35-.106.356 12.94 3.846zm237.487 6.558L328.106 88.8l.182.135.187.13 7.694-11.092zm280.023 50.711c4.466-5.97 3.247-14.431-2.723-18.897l-97.286-72.784c-5.97-4.467-14.43-3.248-18.897 2.722-4.466 5.97-3.247 14.43 2.723 18.897l86.476 64.697-64.697 86.477c-4.466 5.97-3.247 14.43 2.723 18.897 5.97 4.466 14.43 3.247 18.896-2.723l72.785-97.286zm-441.369 86.997c4.647-12.675 4.652-12.673 4.657-12.671l.009.003.009.004-.01-.004-.131-.05a49.394 49.394 0 01-.684-.27 88.124 88.124 0 01-2.905-1.238 136.206 136.206 0 01-10.662-5.357c-8.836-4.917-20.164-12.406-30.497-22.747-20.212-20.228-36.878-51.348-22.986-98.09L85.741 67.57c-17.29 58.178 4.115 99.192 29.769 124.866 12.6 12.611 26.153 21.517 36.466 27.256a163.347 163.347 0 0012.801 6.426c1.594.71 2.882 1.247 3.801 1.618.46.185.828.329 1.097.432l.327.125.107.04.038.014.016.006c.007.002.013.004 4.66-12.671zM111.391 75.967c7.205-20.116 25.981-42.046 59.126-47.284 33.618-5.313 85.014 6.07 157.589 60.118l16.127-21.655c-75.357-56.12-134.093-72.06-177.93-65.132-44.31 7.003-70.313 36.878-80.33 64.85l25.418 9.103zm217.084 13.099c69.889 48.483 145.543 64.097 278.832 44.894l-3.85-26.724c-129.117 18.601-197.141 2.968-259.593-40.355l-15.389 22.185z" fill="#2D374B"/><path d="M17.863 238.22c-7.384-1.029-14.205 4.124-15.234 11.508-1.029 7.385 4.123 14.205 11.508 15.234l3.726-26.742zm99.685 27.52l1.873-13.369-.01-.001-1.863 13.37zm2.463 200.913l12.594 4.863.142-.369.121-.376-12.857-4.118zm165.98 87.114c5.822-4.658 6.765-13.154 2.107-18.975l-75.905-94.872c-4.657-5.822-13.153-6.766-18.975-2.108-5.822 4.658-6.765 13.153-2.107 18.975l67.471 84.331-84.331 67.471c-5.822 4.658-6.765 13.153-2.108 18.975 4.658 5.822 13.154 6.765 18.976 2.108l94.872-75.905zM14.137 264.962l101.548 14.149 3.726-26.741-101.548-14.15-3.726 26.742zm101.538 14.148c9.163 1.283 21.58 5.472 29.792 12.86 3.919 3.525 6.626 7.535 7.923 12.151 1.283 4.57 1.474 10.752-1.273 19.15l25.662 8.394c4.145-12.672 4.549-24.364 1.604-34.847-2.932-10.437-8.898-18.659-15.859-24.921-13.547-12.187-31.723-17.792-44.103-19.526l-3.746 26.739zm36.442 44.161c-13.799 42.183-35.727 110.426-44.963 139.264l25.714 8.236c9.235-28.835 31.141-97.009 44.911-139.106l-25.662-8.394zm-44.7 138.519c-4.369 11.315-7.31 29.409-.188 46.407 7.649 18.257 25.356 31.738 55.175 35.291l3.195-26.81c-22.556-2.688-30.424-11.651-33.467-18.914-3.57-8.52-2.318-19.021.473-26.248l-25.188-9.726zm54.987 81.698c52.412 6.246 97.599 11.371 113.663 13.155l2.98-26.835c-15.993-1.776-61.108-6.893-113.448-13.13l-3.195 26.81z" fill="#F39568"/><path d="M229.298 165.61c-4.081-6.239-12.448-7.989-18.688-3.908-6.239 4.081-7.989 12.448-3.908 18.688l22.596-14.78zm474.623 245.261c7.443-.438 13.121-6.826 12.684-14.269l-7.135-121.291c-.438-7.443-6.827-13.122-14.27-12.684-7.443.438-13.121 6.827-12.684 14.27l6.342 107.813-107.813 6.342c-7.443.438-13.122 6.827-12.684 14.27.438 7.443 6.826 13.122 14.269 12.684l121.291-7.135zM206.702 180.39c33.196 50.75 136.865 149.187 289.893 142.368l-1.201-26.973c-140.592 6.264-236.304-84.627-266.096-130.175l-22.596 14.78zm289.893 142.368c70.928-3.16 113.677 12.852 141.364 31.199 13.985 9.268 24.534 19.398 33.211 28.738 4.414 4.752 8.181 9.115 11.945 13.352 3.604 4.056 7.317 8.125 11.044 11.437l17.938-20.18c-2.406-2.138-5.177-5.115-8.799-9.191-3.461-3.896-7.662-8.751-12.347-13.794-9.521-10.249-21.696-22.013-38.077-32.868-33.045-21.898-81.598-39.047-157.48-35.666l1.201 26.973z" fill="#077C76"/></svg>