<svg width="1115" height="636" fill="none" xmlns="http://www.w3.org/2000/svg"><path d="M.99 279.321c-2.1 8.013 2.693 16.213 10.707 18.313l130.588 34.231c8.013 2.1 16.212-2.693 18.313-10.707 2.101-8.013-2.693-16.212-10.706-18.313L33.813 272.418 64.24 156.339c2.1-8.013-2.692-16.212-10.706-18.313-8.014-2.1-16.213 2.693-18.313 10.707L.99 279.321zm423.32-27.032c7.271 3.971 16.384 1.296 20.354-5.975 3.971-7.27 1.297-16.383-5.974-20.354l-14.38 26.329zM23.07 296.074c49.688-29.049 99.986-66.015 163.973-83.21 62.54-16.807 138.587-14.471 237.267 39.425l14.38-26.329c-104.92-57.304-188.873-61.031-259.433-42.068-69.113 18.573-125.015 59.207-171.328 86.283l15.142 25.899z" fill="#F39568"/><path d="M451.609 382.417c-5.39 6.291-4.659 15.761 1.632 21.15l102.522 87.831c6.291 5.39 15.761 4.659 21.15-1.632 5.39-6.292 4.659-15.761-1.632-21.151l-91.131-78.071 78.072-91.131c5.39-6.291 4.659-15.761-1.632-21.15-6.291-5.39-15.761-4.659-21.15 1.632l-87.831 102.522zm385.593 177.238c4.504 6.953 13.792 8.938 20.745 4.435 6.953-4.504 8.938-13.792 4.434-20.745l-25.179 16.31zM464.154 407.131c44.233-3.413 106.648-11.881 173.982 3.797 66.455 15.473 138.182 54.732 199.066 148.727l25.179-16.31C797.144 442.631 718.724 398.89 644.939 381.709c-72.906-16.975-140.825-7.751-183.093-4.489l2.308 29.911z" fill="#077C76"/><path d="M447.448.194c-8.245-.8-15.578 5.236-16.378 13.482l-13.035 134.369c-.8 8.246 5.236 15.578 13.481 16.378 8.246.8 15.579-5.236 16.379-13.481l11.587-119.44L578.921 43.09c8.245.8 15.578-5.237 16.378-13.482.8-8.246-5.236-15.578-13.481-16.378L447.448.194zm638.582 431.533c3.65 7.439 12.63 10.512 20.07 6.866 7.44-3.647 10.52-12.633 6.87-20.072l-26.94 13.206zM434.419 24.657c15.044 18.277 40.167 56.39 86.956 92.251 47.181 36.162 116.171 70.155 220.643 84.085l3.964-29.737c-99.528-13.271-163.538-45.339-206.357-78.159-43.211-33.119-65.088-66.907-82.044-87.506l-23.162 19.066zm307.599 176.336c197.844 26.379 312.132 165.71 344.012 230.734l26.94-13.206c-35.12-71.642-156.832-219.244-366.988-247.265l-3.964 29.737z" fill="#00112C"/></svg>