<svg width="306" height="420" fill="none" xmlns="http://www.w3.org/2000/svg"><g clip-path="url(#clip0)"><path d="M305.261-36H0v457.891h305.261V-36z" fill="#015B4A"/><path d="M112 222a55.994 55.994 0 01-34.57 51.737 55.994 55.994 0 01-61.028-12.139A56.001 56.001 0 0156 166v6.09a49.911 49.911 0 00-35.292 85.202A49.911 49.911 0 00105.91 222H112z" fill="#247F72"/><path d="M96 222a40.002 40.002 0 01-47.804 39.231 39.997 39.997 0 01-29.151-54.538A40 40 0 0156 182v5.794a34.203 34.203 0 00-31.602 21.116 34.204 34.204 0 0044.692 44.692A34.206 34.206 0 0090.206 222H96z" fill="#247F72"/><path d="M82 222a26.002 26.002 0 01-16.05 24.021A25.999 25.999 0 1156 196v4.896A21.103 21.103 0 1077.104 222H82z" fill="#247F72"/><path d="M68 222a12.003 12.003 0 01-7.408 11.087 12.002 12.002 0 01-15.679-15.679A12.003 12.003 0 0156 210v4.295a7.703 7.703 0 00-7.118 4.756A7.706 7.706 0 1063.705 222H68zM62 166h2c26.51 0 48 21.49 48 48H62v-48z" fill="#247F72"/><path d="M118 224h9c33.137 0 60 26.863 60 60v138h-69V224z" fill="#0A7261"/><circle cx="254" cy="396" transform="rotate(90 254 396)" fill="#0FA88C" r="96"/><circle cx="254" cy="396" r="39" transform="rotate(90 254 396)" fill="#038972"/><path d="M118 295a21.496 21.496 0 0019.863-13.272 21.496 21.496 0 00-4.66-23.431A21.509 21.509 0 00118 252v43z" fill="#2FB59C"/><path d="M118 252a21.5 21.5 0 100 43v-43z" fill="#0A7261"/><path d="M191.475 308.66L264 191.077l72.525 117.583h-145.05z" stroke="#0A7261" stroke-width="2.18"/><path d="M208.5 166l74.911 120H133.589L208.5 166z" fill="#0FA88C"/><path fill="#197868" d="M0 300h118v122H0z"/><circle cx="49.086" cy="349.086" r="7.086" fill="#0FA88C"/><circle cx="49.086" cy="371.981" r="7.086" fill="#0FA88C"/><circle cx="71.981" cy="349.086" r="7.086" fill="#0FA88C"/><circle cx="71.981" cy="371.981" r="7.086" fill="#0FA88C"/></g><defs><clipPath id="clip0"><path fill="#fff" d="M0 0h305.261v420H0z"/></clipPath></defs></svg>