<svg xmlns="http://www.w3.org/2000/svg" viewBox="0 0 400 400"><path class="st0" clip-path="url(#a)" fill="url(&quot;#b&quot;)" d="M0 0h400v400H0z"/><defs><linearGradient id="b"><stop offset="0%" stop-color="#F6F6F6"><animate attributeName="offset" values="-1; 0; 2" keyTimes="0; 0.25; 1" dur="2s" repeatCount="indefinite"/></stop><stop offset="15%" stop-color="#e5e4e9"><animate attributeName="offset" values="0; 0; 3" keyTimes="0; 0.25; 1" dur="2s" repeatCount="indefinite"/></stop><stop offset="10%" stop-color="#E8E8E8"><animate attributeName="offset" values="0; 0; 3" keyTimes="0; 0.25; 1" dur="2s" repeatCount="indefinite"/></stop></linearGradient><clipPath id="a"><rect rx="10" ry="10" width="400" height="400"/></clipPath></defs><path d="M348.269 288.1l-78-97.5a10.137 10.137 0 00-8.2-4.2h-4.4a10.611 10.611 0 00-8.3 4.2l-25 31.4-51.8-72.4a10.019 10.019 0 00-8.7-4.2h-4.2a10.324 10.324 0 00-8.3 4.2l-99.7 138.5a10.159 10.159 0 000 11.1l2.9 4.9a10.215 10.215 0 008.9 5.2h273.2a10.215 10.215 0 008.9-5.2l2.9-4.9a10.362 10.362 0 00-.2-11.1zm-258.5-6.1l72.1-100.1 31.1 100.1zm192.2-136.6a27.3 27.3 0 10-27.3-27.3 27.271 27.271 0 0027.3 27.3z" fill="#D1D1D2" opacity=".88"/></svg>