<svg version="1.1" id="Layer_1" xmlns="http://www.w3.org/2000/svg" x="0" y="0" viewBox="0 0 160 210" xml:space="preserve"><style>.st2{fill:#bdc5d1}</style><path d="M145 210H15c-8.3 0-15-6.7-15-15V15C0 6.7 6.7 0 15 0h95l50 50v145c0 8.3-6.7 15-15 15z" fill="#e7eaf3"/><path d="M160 50h-50V0l50 50z" fill="#f8fafd"/><path class="st2" d="M110 50l50 50V50h-50z"/><path d="M125.8 162.2l-24.1-30.1c-.6-.8-1.5-1.3-2.5-1.3h-1.4c-1 0-2 .5-2.6 1.3l-7.7 9.7-16-22.4c-.6-.9-1.6-1.4-2.7-1.3h-1.3c-1 0-2 .5-2.6 1.3l-30.8 42.8c-.7 1-.7 2.4 0 3.4l.9 1.5c.6 1 1.6 1.6 2.7 1.6H122c1.1 0 2.2-.6 2.7-1.6l.9-1.5c.9-1 .9-2.4.2-3.4zM46 160.3l22.3-30.9 9.6 30.9H46z" fill="#0abf53"/><circle transform="rotate(-13.286 105.28 109.682)" class="st2" cx="105.3" cy="109.7" r="8.4"/></svg>