<svg version="1.1" id="Layer_1" xmlns="http://www.w3.org/2000/svg" x="0" y="0" viewBox="0 0 890 500" xml:space="preserve"><style>.st2{fill:none;stroke:#bdc5d1;stroke-width:4}.st3{fill:#bdc5d1}.st4{fill:#fff;stroke:#bdc5d1;stroke-width:4}</style><path fill="#f8fafd" d="M0 0h890v500H0z"/><path d="M494.7 387.1c0 27.7-22.4 50-50 50s-50-22.3-50-50c0-27.6 22.4-50 50-50 27.7 0 50 22.4 50 50zm-48.6-33.5c-11 0-18 4.6-23.5 12.8-.7 1-.4 2.5.5 3.2l7 5.3c1 .8 2.6.6 3.4-.4 3.6-4.6 6-7.2 11.6-7.2 4.1 0 9.2 2.7 9.2 6.6 0 3-2.5 4.6-6.6 6.9-4.7 2.7-11 6-11 14.2v.8c0 1.3 1.1 2.4 2.4 2.4h11.3c1.3 0 2.4-1.1 2.4-2.4v-.3c0-5.8 16.7-6 16.7-21.5.1-11.5-12.1-20.4-23.4-20.4zm-1.4 50c-5.1 0-9.3 4.1-9.3 9.3 0 5.1 4.1 9.3 9.3 9.3 5.2 0 9.3-4.1 9.3-9.3 0-5.1-4.2-9.3-9.3-9.3z" fill="#0abf53"/><path class="st2" d="M234.2 270.1H657"/><path class="st3" d="M269.2 227.1h355c5 0 9 4 9 9s-4 9-9 9h-355c-5 0-9-4-9-9s4-9 9-9z"/><path class="st4" d="M240.7 45.1h405c5 0 9 4 9 9v208c0 5-4 9-9 9h-405c-5 0-9-4-9-9v-208c0-5 4-9 9-9z"/><path class="st2" d="M232.7 113.1h422.8"/><path class="st3" d="M267.7 70.1h355c5 0 9 4 9 9s-4 9-9 9h-355c-5 0-9-4-9-9s4-9 9-9zM261.7 140.1h311c5 0 9 4 9 9s-4 9-9 9h-311c-5 0-9-4-9-9s4-9 9-9zM261.7 184.1h239c5 0 9 4 9 9s-4 9-9 9h-239c-5 0-9-4-9-9s4-9 9-9zM261.7 228.1h334c5 0 9 4 9 9s-4 9-9 9h-334c-5 0-9-4-9-9s4-9 9-9z"/><path class="st4" d="M440.5 297.6l-25.9-26.5h56.1c.9 0 1.3 1.1.7 1.7l-24.3 24.8c-1.8 1.9-4.8 1.9-6.6 0z"/></svg>