<svg version="1.1" id="Layer_1" xmlns="http://www.w3.org/2000/svg" x="0" y="0" viewBox="0 0 890 500" xml:space="preserve"><style>.st2{fill:#fff;stroke:#bdc5d1;stroke-width:4}.st4{fill:#bdc5d1}</style><path fill="#f8fafd" d="M0 0h890v500H0z"/><path d="M744.5 259.3c0 27.7-22.4 50-50 50s-50-22.3-50-50c0-27.6 22.4-50 50-50 27.7 0 50 22.4 50 50zm-48.7-33.5c-11 0-18 4.6-23.5 12.8-.7 1-.4 2.5.5 3.2l7 5.3c1 .8 2.6.6 3.4-.4 3.6-4.6 6-7.2 11.6-7.2 4.1 0 9.2 2.7 9.2 6.6 0 3-2.5 4.6-6.6 6.9-4.7 2.7-11 6-11 14.2v.8c0 1.3 1.1 2.4 2.4 2.4h11.3c1.3 0 2.4-1.1 2.4-2.4v-.3c0-5.8 16.7-6 16.7-21.5.2-11.5-12-20.4-23.4-20.4zm-1.3 50c-5.1 0-9.3 4.1-9.3 9.3 0 5.1 4.1 9.3 9.3 9.3s9.3-4.1 9.3-9.3c0-5.1-4.2-9.3-9.3-9.3z" fill="#0abf53"/><path class="st2" d="M573.3 157.5v208c0 5-4 9-9 9h-405c-5 0-9-4-9-9v-208c0-5 4-9 9-9h405c5 0 9 4 9 9z"/><path fill="none" stroke="#bdc5d1" stroke-width="4" d="M149.5 216.5h422.8"/><path class="st4" d="M546.3 182.5c0 5-4 9-9 9h-355c-5 0-9-4-9-9s4-9 9-9h355c5 0 9 4 9 9zM502.3 252.5c0 5-4 9-9 9h-311c-5 0-9-4-9-9s4-9 9-9h311c5 0 9 4 9 9zM430.3 296.5c0 5-4 9-9 9h-239c-5 0-9-4-9-9s4-9 9-9h239c5 0 9 4 9 9zM525.3 340.5c0 5-4 9-9 9h-334c-5 0-9-4-9-9s4-9 9-9h334c5 0 9 4 9 9z"/><path class="st2" d="M599.8 265.3L575 289.6c-.6.6-1.7.2-1.7-.7v-56.1l26.5 25.9c1.9 1.8 1.9 4.8 0 6.6z"/></svg>