<svg xmlns="http://www.w3.org/2000/svg" xmlns:xlink="http://www.w3.org/1999/xlink" width="65" height="35" viewBox="0 0 65 35"><defs><clipPath id="a"><path d="M357.5,52.746v2.735h2.967a1.02,1.02,0,0,0,.371-.046,1.4,1.4,0,0,0,1.066-1.344,1.353,1.353,0,0,0-1.066-1.344c-.093,0-.278-.046-.371-.046H357.5Z" transform="translate(-357.5 -52.7)"/></clipPath><linearGradient id="b" x1="-50.035" y1="17.803" x2="-49.924" y2="17.803" gradientUnits="objectBoundingBox"><stop offset="0" stop-color="#0c763f"/><stop offset="0.115" stop-color="#167d3e"/><stop offset="0.706" stop-color="#469d37"/><stop offset="1" stop-color="#59aa35"/></linearGradient><clipPath id="c"><path d="M357.192,18.1a5.164,5.164,0,0,0-5.145,5.145v5.331h7.788c1.669.093,2.874.927,2.874,2.41a2.456,2.456,0,0,1-2.364,2.364V33.4c1.669.139,2.967,1.02,2.967,2.5,0,1.576-1.391,2.6-3.291,2.6H352V49.019h7.556a5.164,5.164,0,0,0,5.145-5.145V18.1Z" transform="translate(-352 -18.1)"/></clipPath><linearGradient id="d" x1="-17.151" y1="2.095" x2="-17.112" y2="2.095" gradientUnits="objectBoundingBox"><stop offset="0" stop-color="#00723c"/><stop offset="0.188" stop-color="#12803a"/><stop offset="0.73" stop-color="#42a434"/><stop offset="1" stop-color="#55b232"/></linearGradient><clipPath id="e"><path d="M357.5,44.046v2.5h2.689c.093,0,.232,0,.278-.046a1.22,1.22,0,0,0,1.02-1.252A1.256,1.256,0,0,0,360.467,44H357.5Z" transform="translate(-357.5 -44)"/></clipPath><linearGradient id="f" x1="-54.636" y1="21.066" x2="-54.515" y2="21.066" xlink:href="#b"/><clipPath id="g"><path d="M295.745,18.1a5.134,5.134,0,0,0-5.145,5.145V35.993a10.253,10.253,0,0,0,4.45,1.159,2.525,2.525,0,0,0,2.781-2.55v-5.98h4.45V34.6c0,2.318-1.437,4.218-6.351,4.218a21.73,21.73,0,0,1-5.285-.649V49.019H298.2a5.164,5.164,0,0,0,5.146-5.145V18.1Z" transform="translate(-290.6 -18.1)"/></clipPath><linearGradient id="h" x1="-14.906" y1="2.096" x2="-14.867" y2="2.096" gradientUnits="objectBoundingBox"><stop offset="0" stop-color="#1f2a66"/><stop offset="0.144" stop-color="#1a3573"/><stop offset="0.716" stop-color="#0a5ea4"/><stop offset="1" stop-color="#036eb7"/></linearGradient><clipPath id="i"><path d="M326.445,18.1a5.164,5.164,0,0,0-5.145,5.145v6.768c1.3-1.113,3.569-1.808,7.232-1.669a24.724,24.724,0,0,1,4.033.6v2.179a11.024,11.024,0,0,0-3.894-1.159c-2.781-.232-4.45,1.159-4.45,3.569s1.669,3.755,4.45,3.569a10.487,10.487,0,0,0,3.894-1.113v2.179a24.724,24.724,0,0,1-4.033.6c-3.662.185-5.934-.556-7.232-1.669V49.019h7.556A5.164,5.164,0,0,0,334,43.874V18.1Z" transform="translate(-321.3 -18.1)"/></clipPath><linearGradient id="j" x1="-16.028" y1="2.096" x2="-15.989" y2="2.096" gradientUnits="objectBoundingBox"><stop offset="0" stop-color="#6e172c"/><stop offset="0.285" stop-color="#90122f"/><stop offset="0.765" stop-color="#c30b33"/><stop offset="1" stop-color="#d70835"/></linearGradient></defs><g transform="translate(5793 1440)"><rect width="65" height="35" rx="4" transform="translate(-5793 -1440)" fill="#fff"/><g transform="translate(-5781.082 -1437.96)"><g transform="translate(0 0)"><g transform="translate(31.012 16.039)"><g clip-path="url(#a)"><rect width="4.404" height="2.735" transform="translate(0 0.046)" fill="url(#b)"/></g></g><g transform="translate(28.462)"><g clip-path="url(#c)"><rect width="12.701" height="30.919" transform="translate(0.046)" fill="url(#d)"/></g></g><g transform="translate(31.012 12.006)"><g clip-path="url(#e)"><rect width="4.033" height="2.503" transform="translate(0 0.046)" fill="url(#f)"/></g></g><g clip-path="url(#g)"><rect width="12.701" height="30.919" transform="translate(-0.046)" fill="url(#h)"/></g><g transform="translate(14.231)"><g clip-path="url(#i)"><rect width="12.701" height="30.919" fill="url(#j)"/></g></g></g></g></g></svg>