<svg xmlns="http://www.w3.org/2000/svg" width="65" height="35" viewBox="0 0 65 35"><g transform="translate(5623 1438)"><rect width="65" height="35" rx="4" transform="translate(-5623 -1438)" fill="#fff"/><g transform="translate(-5611.65 -1433.735)"><g transform="translate(0 0)"><path d="M402.11,22.9h10.569a2.044,2.044,0,0,1,2.04,2.689l-4.914,21.092a3.552,3.552,0,0,1-3.291,2.689H395.945a2.044,2.044,0,0,1-2.04-2.689l4.914-21.092A3.552,3.552,0,0,1,402.11,22.9Z" transform="translate(-393.824 -22.9)" fill="#d70c18"/><path d="M422.927,22.9H433.5a2.044,2.044,0,0,1,2.04,2.689l-4.914,21.092a3.552,3.552,0,0,1-3.291,2.689H416.762a2.062,2.062,0,0,1-2.04-2.689l4.914-21.092a3.6,3.6,0,0,1,3.291-2.689Z" transform="translate(-404.999 -22.9)" fill="#00469b"/><path d="M448.11,22.9h10.569a2.044,2.044,0,0,1,2.04,2.689l-4.914,21.092a3.552,3.552,0,0,1-3.291,2.689H441.945a2.044,2.044,0,0,1-2.04-2.689l4.914-21.092A3.552,3.552,0,0,1,448.11,22.9Z" transform="translate(-418.5 -22.9)" fill="#2e7e7f"/><path d="M452.215,59.745h.973l.232-.973h-.973Zm.6-2.642-.278,1.113a4.013,4.013,0,0,1,.556-.232c.185-.046.51-.093.51-.093l.185-.788Zm.371-1.622-.232,1.066a4.015,4.015,0,0,1,.556-.232c.185-.046.51-.093.51-.093l.185-.788h-1.02Zm2.225,0-.973,4.265h.324l-.185.881h-.371l-.046.278h-1.205l.046-.278h-2.5l.185-.834h.232l1.02-4.311.185-.881h1.252l-.093.464a2.5,2.5,0,0,1,.649-.324,19.1,19.1,0,0,1,2.132-.093l-.232.881h-.417Z" transform="translate(-424.227 -39.905)" fill="#fff" fill-rule="evenodd"/><path d="M462.6,54.7h1.344v.51c0,.093.046.139.232.139h.232l-.185.834h-.7c-.649.046-.881-.232-.834-.51Z" transform="translate(-430.718 -39.959)" fill="#fff" fill-rule="evenodd"/><path d="M461.062,60.525H459.81l.185-.742h1.437l.185-.649h-1.437l.185-.834h3.987l-.185.834h-1.344l-.139.649h1.344l-.185.742h-1.437l-.232.324h.6l.232.927c0,.093.046.139.046.185.046.046.232.046.324.046h.185l-.232.881h-.788a.692.692,0,0,1-.324-.139.5.5,0,0,1-.278-.324l-.185-.927-.6.927a1.054,1.054,0,0,1-.927.51H459.3l.185-.788h.371a.659.659,0,0,0,.278-.093c.046-.046.139-.046.185-.139Z" transform="translate(-428.948 -41.89)" fill="#fff" fill-rule="evenodd"/><path d="M432.156,58.7h3.384l-.185.788H434.01l-.185.7h1.391l-.185.834H433.64l-.278,1.113c-.046.139.324.139.464.139l.7-.093-.232.927h-1.576a1.021,1.021,0,0,1-.371-.046.591.591,0,0,1-.278-.185.4.4,0,0,1-.093-.371l.371-1.483H431.6l.185-.834h.788l.185-.7h-.742Z" transform="translate(-414.088 -42.105)" fill="#fff" fill-rule="evenodd"/><path d="M434.818,55.064h1.391l-.185.834h-1.9l-.185.185c-.093.093-.093.046-.232.093a1.31,1.31,0,0,1-.6.185h-.6l.185-.788h.185c.139,0,.278,0,.324-.046a.713.713,0,0,0,.185-.278l.324-.649H435.1Z" transform="translate(-414.571 -39.905)" fill="#fff" fill-rule="evenodd"/><path d="M440.718,56.508a2.425,2.425,0,0,1,.973-.464,8.1,8.1,0,0,1,1.066,0l.093-.464H440.9Zm1.854.371h-1.947l-.093.371h1.9ZM439.93,54.7h1.159l-.139.6s.371-.278.6-.417a5.78,5.78,0,0,1,.834-.185h1.9l-.51,2.179a1.711,1.711,0,0,1-.278.7.668.668,0,0,1-.325.278.748.748,0,0,1-.417.139H440.3l-.417,1.715a.992.992,0,0,0-.046.278.241.241,0,0,0,.185.093l.788-.093-.232.927H439a.5.5,0,0,1-.371-.093c-.093-.093-.232-.185-.232-.278a3.883,3.883,0,0,1,.093-.464Z" transform="translate(-417.736 -39.959)" fill="#fff" fill-rule="evenodd"/><path d="M446.442,62.2l-.093.51a.932.932,0,0,1-.185.371.914.914,0,0,1-.6.232l-.649.046.046.6c0,.185.046.139.093.185s.046.046.093.046h.185l.6-.046-.185.881h-.7a2.609,2.609,0,0,1-1.02-.093c-.139-.093-.139-.185-.139-.324l-.093-2.271h1.159V62.8h.278c.093,0,.139,0,.185-.046s.046-.046.046-.139l.093-.371h.881Z" transform="translate(-420.633 -43.982)" fill="#fff" fill-rule="evenodd"/><path d="M408.775,37.5c-.046.185-.788,3.569-.788,3.569a2.459,2.459,0,0,1-.649,1.483,1.17,1.17,0,0,1-.788.278.774.774,0,0,1-.834-.7V42l.139-.927s.788-3.059.927-3.477v-.046H405.02a2.008,2.008,0,0,1-.046.232l-.788,3.477-.046.278-.139.973a1.117,1.117,0,0,0,.185.7c.371.649,1.391.742,1.947.742a3.836,3.836,0,0,0,1.9-.464,2.72,2.72,0,0,0,1.205-1.9l.093-.324s.788-3.2.927-3.616v-.046C409.238,37.5,408.914,37.5,408.775,37.5Z" transform="translate(-399.283 -30.732)" fill="#fff"/><path d="M419.723,46.8h-1.344l-.046-.046a3.862,3.862,0,0,1,.185-.7l.093-.324a6.687,6.687,0,0,0,.232-1.252c0-.093.046-.371-.278-.371a.748.748,0,0,0-.417.139,11.472,11.472,0,0,0-.278,1.344c-.139.742-.185.788-.232,1.159l-.046.046h-1.344l-.046-.046c.093-.417.232-.881.324-1.3.278-1.159.325-1.622.417-2.179l.046-.046c.6-.093.742-.093,1.437-.232l.046.046-.093.371c.093-.046.232-.139.324-.185a2.278,2.278,0,0,1,.834-.185.753.753,0,0,1,.742.417c.139.278.046.649-.139,1.391l-.093.371c-.185.834-.185.973-.278,1.53Z" transform="translate(-405.827 -33.682)" fill="#fff"/><path d="M426.837,47.874H426.1a4.28,4.28,0,0,0-.7.046v-.046h0a2.477,2.477,0,0,1,.185-.51,1.8,1.8,0,0,0,.139-.51c.093-.417.139-.7.185-.927s.046-.464.093-.7h.093a5.352,5.352,0,0,1,.742-.093c.185-.046.417-.046.742-.139v.093c-.046.232-.139.51-.185.742s-.139.51-.185.742a4.682,4.682,0,0,0-.185.881,4,4,0,0,0-.093.464l-.093-.046Z" transform="translate(-410.763 -34.755)" fill="#fff"/><path d="M432.987,44.954a2.966,2.966,0,0,1-.324.881.487.487,0,0,1-.417.232c-.046,0-.324,0-.324-.371a3.188,3.188,0,0,1,.093-.6c.139-.6.324-1.113.742-1.113C433.126,43.934,433.126,44.305,432.987,44.954Zm1.391.046c.185-.834.046-1.205-.139-1.437a1.464,1.464,0,0,0-1.252-.464,2.317,2.317,0,0,0-1.576.556,2.352,2.352,0,0,0-.7,1.391c-.093.51-.232,1.391.556,1.715a2.911,2.911,0,0,0,.881.139,2.489,2.489,0,0,0,1.715-.649A2.958,2.958,0,0,0,434.378,45Z" transform="translate(-413.575 -33.736)" fill="#fff"/><path d="M463.534,43.2c-.649.139-.834.139-1.483.232l-.046.046v.139a.637.637,0,0,0-.464-.371,1.927,1.927,0,0,0-1.53.556,2.368,2.368,0,0,0-.7,1.344c-.093.51-.232,1.391.556,1.715a2.305,2.305,0,0,0,.742.139,1.193,1.193,0,0,0,.7-.324c0,.093-.046.139-.046.232l.046.046a7.438,7.438,0,0,1,1.437,0l.046-.046c.093-.556.185-1.066.417-2.132.139-.51.232-1.02.371-1.483Zm-2.086,2.735a.744.744,0,0,1-.51.232c-.046,0-.324,0-.324-.371a3.19,3.19,0,0,1,.093-.6c.139-.6.324-1.113.742-1.113.278,0,.417.278.371.7,0,.093-.046.185-.046.324l-.139.556A2.839,2.839,0,0,0,461.448,45.935Z" transform="translate(-428.917 -33.79)" fill="#fff"/><path d="M442.469,46.8h-1.344l-.046-.046a3.859,3.859,0,0,1,.185-.7l.046-.324a6.685,6.685,0,0,0,.232-1.252c0-.093.046-.371-.278-.371a.748.748,0,0,0-.417.139,11.478,11.478,0,0,0-.278,1.344c-.139.742-.185.788-.232,1.159l-.046.046h-1.344l-.046-.046a13.275,13.275,0,0,1,.324-1.3c.278-1.159.324-1.622.417-2.179l.046-.046c.6-.093.742-.093,1.437-.232l.046.046-.093.371c.093-.046.232-.139.324-.185a2.278,2.278,0,0,1,.834-.185.753.753,0,0,1,.742.417c.139.278.046.649-.139,1.391l-.093.371c-.185.834-.185.973-.278,1.53Z" transform="translate(-418.005 -33.682)" fill="#fff"/><path d="M452.155,37.4h-2.271a.944.944,0,0,1-.046.232l-.417,1.9s-.973,4.033-1.02,4.265h1.576c.046-.185.278-1.3.278-1.344a5.6,5.6,0,0,1,.232-.834.346.346,0,0,1,.139-.139h.093a4.207,4.207,0,0,0,2.6-.556,2.736,2.736,0,0,0,1.02-1.622,2.349,2.349,0,0,0,.093-.6,1.361,1.361,0,0,0-.185-.742C453.824,37.446,453.036,37.446,452.155,37.4Zm.556,1.993a1.448,1.448,0,0,1-.742.973,2.371,2.371,0,0,1-1.02.139h-.232v-.093l.417-1.9v-.185h.185s.881.093.927.093A.777.777,0,0,1,452.711,39.393Z" transform="translate(-423.101 -30.678)" fill="#fff"/><path d="M428.108,43.113c.371-.232.371-.6.093-.742a1.08,1.08,0,0,0-1.159.139c-.371.232-.417.6-.093.742A1.087,1.087,0,0,0,428.108,43.113Z" transform="translate(-411.477 -33.286)" fill="#fff"/><path d="M471.885,43.146l-.046-.046c-.649.139-.788.139-1.391.232l-.046.046v.046h0c-.464,1.02-.417.834-.788,1.622v-.093l-.093-1.762-.046-.046c-.7.139-.7.139-1.344.232l-.046.046v.093h0a9.539,9.539,0,0,1,.139.973c.046.324.093.649.139.927.046.51.093.788.185,1.576-.417.7-.51.973-.927,1.576h0l-.278.464c-.046.046-.046.093-.093.093s-.093.046-.185.046h-.278l-.185.834h.834a.954.954,0,0,0,.927-.556l.51-.881Z" transform="translate(-432.864 -33.736)" fill="#fff" fill-rule="evenodd"/></g></g></g></svg>