<svg xmlns="http://www.w3.org/2000/svg" width="872.575" height="353.95" viewBox="0 0 872.575 353.95"><path d="M-77.589,1159.95a150.976,150.976,0,0,1,12.634-111.57,150.963,150.963,0,0,1,86.838-71.188c23.186-7.2,48.213-8.778,70.054-19.385,36.632-17.791,56.985-56.814,84.736-86.621,59.473-63.877,161.353-83.635,240.394-46.627,56.779,26.582,98.831,77.329,153.57,107.893a247.5,247.5,0,0,0,77.061,27.5c18,3.206,36.545,4.464,53.608,11.015,25.862,9.927,45.919,31.2,60.768,54.59,23.34,36.77,35.772,83.32,21.322,124.4-1.616,4.6-9.023,8.83-9.808,4.02Z" transform="translate(83 -806)" fill="#7bd5e1" fill-rule="evenodd"/></svg>