<svg xmlns="http://www.w3.org/2000/svg" viewBox="0 0 450 150">
  <defs>
    <filter id="img-placeholder-c" width="308" height="60" x="70" y="95" filterUnits="userSpaceOnUse">
      <feOffset dy="2" />
      <feGaussianBlur result="placeholder-ca" stdDeviation="6" />
      <feFlood flood-opacity=".1" />
      <feComposite in2="placeholder-ca" operator="in" />
      <feComposite in="SourceGraphic" />
    </filter>
  </defs>
  <g id="img-inner" fill="#D10310">
    <path fill="#fff" d="M0 0h450v150H0z" />
    <path d="M14.5 150a123.4 123.4 0 0 1 44.2-94.4c13.5-11.3 24.1 9.8 36 31.1 9.5 17.2 19.7 34.4 32.9 34.8 14.5.5 31.6-13.9 48.3-28.3 22.2-19.1 43.6-38.3 57-22.3l2.7 3.3A123.6 123.6 0 0 1 326.7 49a125 125 0 0 1 17.1 3.3 123.7 123.7 0 0 1 89.8 97.8Z" opacity=".1" />
    <path d="M252.5 49.5v16.7l-4.5-3.9a6.1 6.1 0 0 0-7.8 0l-11.4 9.9a6.1 6.1 0 0 1-7.7 0l-1-.8a6.1 6.1 0 0 0-7.2-.4l-13.5 9-.3.3a18.5 18.5 0 0 1-1.6-7.8v-23c0-10 6-16 16-16h23c10 0 16 6 16 16Z" opacity=".2" />
    <path d="M223 50a6.5 6.5 0 1 1-6.5-6.6 6.5 6.5 0 0 1 6.5 6.6ZM252.5 66.2v6.3c0 10-6 16-16 16h-23c-7 0-12-3-14.4-8.2l.3-.2 13.5-9.1a6.1 6.1 0 0 1 7.2.4l1 .7a6.1 6.1 0 0 0 7.7 0l11.4-9.8a6.1 6.1 0 0 1 7.8 0Z" opacity=".4" />
    <path d="M224 115.1a53.8 53.8 0 0 1-30.2-9.2 54.3 54.3 0 0 1-14.6-14.6 54 54 0 0 1 0-60.5 54.3 54.3 0 0 1 14.6-14.6 54 54 0 1 1 30.3 99Zm0-99a45 45 0 0 0-17.5 86.4 45 45 0 0 0 35-82.9 44.7 44.7 0 0 0-17.4-3.5ZM290 108.7c-2-3.7-6.2-5.7-11.9-5.7a12.1 12.1 0 0 0-10 4.7 12.2 12.2 0 0 0-1.4 11c2.6 7.9 7.1 9.6 9.6 10a6.9 6.9 0 0 0 1.1 0c2.6 0 6.7-1.2 10.7-7.1 3.2-4.6 3.8-9.2 1.8-12.9Z" opacity=".2" />
    <path d="M95.5 115.2v18.6H92v-18.6Zm27.1 0v18.6h-3.5V121l.1-1.4v-1.4l-.5 1.3-.4 1.3-.9 2.6-4 10.5H110l-4.1-10.4-1-2.6-.3-1.3-.5-1.3v2.7l.1 2.8v10.1h-3.5v-18.6h5.8l3.3 8.6.9 2.6.4 1.3.4 1.3h.2l.4-1.3.4-1.3.8-2.6 3.3-8.6Zm16.5 15h-8l-1.2 3.6h-3.7l6.2-18.6h5.3l6.3 18.6h-3.7Zm-.8-2.6-3.2-9.7-3.2 9.7Zm16.6-3.7h8.2v3.7q0 4-1.5 5.2t-6.8 1.2q-4.8 0-6.4-1.6t-1.6-6.3q0-6.1.7-7.8a4.5 4.5 0 0 1 2.3-2.6 15 15 0 0 1 5.4-.7q5 0 6.4 1t1.5 4.8h-3.6q0-1.9-.8-2.3a8.3 8.3 0 0 0-3.5-.5q-3.1 0-4 .8t-.8 3.6v4.3q0 2.8.9 3.5t3.8.8q2.9 0 3.7-.7t.7-3v-.8H155Zm15.9-5.7v4.8h8.7v2.6h-8.7v5.3h9.3v3h-12.9v-18.7H180v3Zm40.1-3v18.6h-6l-5.3-10.2-1.3-2.7-.6-1.3-.5-1.4h-.2v1.3l.1 1.2v13.1h-3.5v-18.6h6l4.9 9.4 1.4 3 .8 1.6.7 1.5v-15.5Zm13-.2q5 0 6.5 1.7t1.5 7.6q0 6.4-1.5 8t-7 1.7q-5.2 0-6.7-1.6t-1.4-7.3q0-6.7 1.4-8.4t7.2-1.7Zm-.3 3q-3.5 0-4.1 1t-.6 6.3q0 4 .7 4.8t4.1.9q3.3 0 4-1t.6-5.6q0-4.6-.6-5.5t-4-.9Zm20 .3v15.5h-3.5v-15.5h-5.3v-3.1h14.4v3.1Zm21.9-.1v5h8.3v3h-8.3v7.6h-3.6v-18.6h12.4v3Zm20.7-3.2q5 0 6.5 1.7t1.5 7.6q0 6.4-1.5 8t-7.1 1.7q-5.1 0-6.6-1.6t-1.5-7.3q0-6.7 1.5-8.4t7.2-1.7Zm-.3 3q-3.6 0-4.2 1t-.6 6.3q0 4 .7 4.8t4.2.9q3.3 0 4-1t.6-5.6q0-4.6-.7-5.5t-4-.9Zm24.6-2.8h3.5v12.4q0 3.9-1.5 5.1t-6 1.3q-5 0-6.5-1.2t-1.5-5v-12.6h3.6v12.6q0 2 .7 2.6t3.5.6q2.8 0 3.5-.6t.7-2.7Zm26 0v18.6h-6l-5.3-10.2-1.2-2.7-.6-1.3-.6-1.4h-.1v2.5l.1 2.4v10.7h-3.5v-18.6h6l4.8 9.4 1.5 3 .7 1.6.7 1.5h.1v-15.5Zm5.3 18.6v-18.6h9.2q3.9 0 5.4 1.7t1.6 6q0 7-1.3 9t-5.6 2Zm3.5-3h5q2.6 0 3.4-1.1t.7-5.2q0-4.1-.7-5.2t-3.1-1.1h-5.3Z" opacity=".7" />
    <g filter="url(#img-placeholder-c)">
      <path fill="#fff" d="M155.2,115a15,15,0,0,0-5.4.7,4.5,4.5,0,0,0-2.3,2.7q-.6,1.6-.6,7.7,0,4.8,1.5,6.3t6.4,1.6q5.3,0,6.8-1.2t1.6-5.2l-.1-3.7h-8.2v2.6h4.7v.8q0,2.4-.8,3t-3.7.7q-3,0-3.8-.8t-.8-3.5v-4.3q0-2.8.8-3.6t3.9-.8a8.3,8.3,0,0,1,3.5.5q.7.4.8,2.3h3.6q0-3.7-1.5-4.7t-6.4-1.1m68.7,0q-5.7,0-7.2,1.7t-1.4,8.4q0,5.6,1.4,7.3t6.6,1.6q5.7,0,7.1-1.7t1.5-8q0-5.9-1.5-7.6T224,115m-.2,16q-3.4,0-4.1-.9t-.7-4.8q0-5.4.6-6.3t4.1-1q3.5,0,4,.9t.7,5.5q0,4.7-.7,5.6t-3.9,1m62.5-16q-5.8,0-7.2,1.7t-1.5,8.4q0,5.6,1.5,7.3t6.6,1.6q5.6,0,7-1.7t1.6-8q0-6-1.5-7.6t-6.5-1.7m-.2,16q-3.5,0-4.2-.9t-.7-4.8q0-5.4.6-6.3t4.2-1q3.4,0,4,.9t.7,5.5q0,4.7-.7,5.6t-4,1M92,115.2v18.6h3.5V115.2H92m8.8,0v18.6h3.5V121l-.2-2.7h.1l.4,1.3.5,1.3.9,2.6,4.1,10.4h3.2l4.1-10.5,1-2.6.3-1.3.5-1.3V121l-.1,2.8v10.1h3.5V115.3h-5.9l-3.3,8.6-.8,2.6-.4,1.3-.4,1.3h-.2l-.4-1.3-.4-1.3-.9-2.6-3.3-8.6h-5.8m31.6,0-6.2,18.6h3.7l1.2-3.5h8l1.2,3.5H144l-6.3-18.6h-5.3m5.9,12.4h-6.4l3.2-9.7,3.2,9.7m29-12.4v18.6H180v-3h-9.3v-5.2h8.7V123h-8.7v-4.8h9.2v-3H167.1m26.4,0v18.6H197V118.2l.6,1.4.6,1.3,1.3,2.7,5.3,10.2h6V115.2h-3.5v15.5l-.8-1.5-.7-1.5-1.5-3-4.8-9.5h-6m41.1,0v3.2H240v15.4h3.6V118.3h5.5v-3.1H234.7m27.1,0v18.6h3.6v-7.6h8.3v-3h-8.3v-5h8.8v-3H261.8m36.6,0v12.6q0,3.8,1.5,5t6.4,1.2q4.6,0,6.1-1.3t1.5-5.1V115.2h-3.5v12.5q0,2.1-.7,2.7t-3.5.6q-2.8,0-3.5-.6a3.464,3.464,0,0,1-.7-2.6V115.2h-3.6m20.8,0v18.6h3.5V119.5l-.1-1.3h.1l.6,1.4.6,1.3,1.2,2.7,5.4,10.2h6V115.2H333v13.1l.1,2.4-.8-1.5-.7-1.5-1.5-3-4.8-9.5h-6m22.5,0v18.6h9.3q4.4,0,5.6-2t1.3-9q0-4.2-1.6-6t-5.4-1.6h-9.2m8.6,15.7h-5V118.2h5.2q2.5,0,3.1,1t.7,5.3q0,4-.7,5.2t-3.3,1.2M155.2,112c4.1,0,6.7.5,8.2,1.7a5.4,5.4,0,0,1,1,.8,3,3,0,0,1,2.8-2.3H180a3,3,0,0,1,3,3v3a3,3,0,0,1-1.5,2.5,3,3,0,0,1,1,2.3v2.6a3,3,0,0,1-1.3,2.5,3,3,0,0,1,1.9,2.8v3a3,3,0,0,1-3,3H167.2a3,3,0,0,1-3-2.5,5.5,5.5,0,0,1-.7.8c-1.7,1.3-4.3,1.8-8.7,1.8-3.8,0-6.4-.6-8-2a3.354,3.354,0,0,1-2.8,1.8h-3.7a3,3,0,0,1-2.8-2l-.5-1.5h-3.7l-.5,1.5a3,3,0,0,1-2.9,2h-3.7a3,3,0,0,1-1.8-.5,3,3,0,0,1-1.8.5h-3.5a3,3,0,0,1-2.9-2v.1a3,3,0,0,1-2.9,2h-3.2a3,3,0,0,1-2.8-2v-.2a3,3,0,0,1-3,2.1h-3.5a3,3,0,0,1-2.6-1.5,3,3,0,0,1-2.7,1.5H92a3,3,0,0,1-3-3V115.2a3,3,0,0,1,3-3h3.5a3,3,0,0,1,2.7,1.5,3,3,0,0,1,2.6-1.5h5.8a3,3,0,0,1,2.8,1.9l2.3,6,2.2-6a3,3,0,0,1,2.8-2h5.9a3,3,0,0,1,3,3v11l4-11.9a3,3,0,0,1,2.8-2h5.3a3,3,0,0,1,2.8,2l3.4,10c0-4.4.4-6,.8-7a7.4,7.4,0,0,1,4-4.3,17.1,17.1,0,0,1,6.5-.9Zm68.7,0c3.8,0,6.4.7,8,2a3,3,0,0,1,2.9-1.8h14.4a3,3,0,0,1,3,3v3.1a3,3,0,0,1-3,3h-2.5v12.5a3,3,0,0,1-3,3H240a3,3,0,0,1-3-3V121.3h-2.3l.1,3c0,5.2-.7,8.3-2.2,10a7.5,7.5,0,0,1-4.1,2.2,23.4,23.4,0,0,1-5.3.5c-4.4,0-7.2-.8-8.8-2.6a6.1,6.1,0,0,1-.6-.8v.2a3,3,0,0,1-3,3h-6a3,3,0,0,1-2.7-1.6l-2-4v2.6a3,3,0,0,1-3,3h-3.6a3,3,0,0,1-3-3V115.2a3,3,0,0,1,3-3h6a3,3,0,0,1,2.7,1.6l2,4.1v-2.7a3,3,0,0,1,3-3h3.6a3,3,0,0,1,3,3v.3a5.8,5.8,0,0,1,.5-.7,7.4,7.4,0,0,1,4.1-2.3,23.3,23.3,0,0,1,5.4-.5Zm1.3,9.1a335551.682,335551.682,0,0,1-3.2,0l-.1,4.2a22.4,22.4,0,0,0,0,2.6,15.4,15.4,0,0,0,1.8,0,12.7,12.7,0,0,0,1.5,0,29.8,29.8,0,0,0,.1-3.5,33,33,0,0,0-.1-3.3Zm61-9c4.4,0,7.2.8,8.8,2.6a6,6,0,0,1,.5.8v-.3a3,3,0,0,1,3-3h3.6a3,3,0,0,1,3,3v12.7h2.4V115.2a3,3,0,0,1,3-3H314a3,3,0,0,1,2.6,1.5,3,3,0,0,1,2.7-1.5h6a3,3,0,0,1,2.6,1.6l2.1,4.1v-2.7a3,3,0,0,1,3-3h3.6a3,3,0,0,1,2.6,1.5,3,3,0,0,1,2.6-1.5H351a14,14,0,0,1,4.2.5,7.7,7.7,0,0,1,3.5,2.2c1.5,1.7,2.3,4.3,2.3,8,0,7-1,9.3-1.7,10.6a6.7,6.7,0,0,1-3.6,2.7,13.9,13.9,0,0,1-4.6.6h-9.3a3,3,0,0,1-2.6-1.5,3,3,0,0,1-2.6,1.5h-6a3,3,0,0,1-2.7-1.6l-2.1-4v2.6a3,3,0,0,1-3,3h-3.5a3,3,0,0,1-3-3v-1.3a6.3,6.3,0,0,1-1.8,2.5c-1.6,1.4-4.2,2-8,2-4.2,0-6.7-.6-8.3-1.8a6.3,6.3,0,0,1-2-3,6.7,6.7,0,0,1-1.3,2.1,7.5,7.5,0,0,1-4,2.2,23.4,23.4,0,0,1-5.3.5c-4.4,0-7.2-.8-8.8-2.6a9.5,9.5,0,0,1-2-5.4,3,3,0,0,1-1,.2h-5.3v4.6a3,3,0,0,1-3,3h-3.6a3,3,0,0,1-3-3V115.2a3,3,0,0,1,3-3h12.4a3,3,0,0,1,2.9,2.1,8,8,0,0,1,3.6-1.8,23.3,23.3,0,0,1,5.4-.5Zm1.2,9q-.75-.037-1.5,0a15.3,15.3,0,0,0-1.6,0,32.017,32.017,0,0,0-.2,4.2,22.4,22.4,0,0,0,.1,2.6,15.4,15.4,0,0,0,1.8,0,12.7,12.7,0,0,0,1.4,0,29.8,29.8,0,0,0,.2-3.5,32.994,32.994,0,0,0-.2-3.3Zm63.8,0a5.6,5.6,0,0,0-.6,0h-2.3v6.8h2a5.2,5.2,0,0,0,.9-.1,17,17,0,0,0,.2-3.3,21.1,21.1,0,0,0-.2-3.3Z" />
    </g>
  </g>
</svg>