<svg xmlns="http://www.w3.org/2000/svg" xmlns:xlink="http://www.w3.org/1999/xlink" viewBox="0 0 118 138">
  <defs>
    <path id="a" d="m888.2 10317.1-.2-1.9a1.4 1.4 0 0 0-1.5-1.2h-.2l-2-16.2a9.2 9.2 0 0 0-6.2-7.6l-11.3-3.8a4.6 4.6 0 0 0-4.5.9l-3.3-1.1a4.6 4.6 0 0 1-3.1-4.4v-7.5l10-4.1a13.9 13.9 0 0 0 8.4-12.8v-2.3a7 7 0 0 0 5.5-11.2 59 59 0 0 0 1.5-37.4s-.9-.6-2.4-1.5c-.4-5.3-2.2-7.7-2.2-7.7l-8.5 2.8a90.5 90.5 0 0 0-30.8-5.1 9.8 9.8 0 0 1-4.6 2.3 126.4 126.4 0 0 0-16.2-2.3l-4.6 11.6s-11.6-.1-11.6 13.8c0 5.1 2.9 17.9 4 23.1a7 7 0 0 0 5.3 11.6v2.3a13.9 13.9 0 0 0 8.5 12.8l10 4.1v7.5a4.6 4.6 0 0 1-3.2 4.4l-3.3 1a4.6 4.6 0 0 0-4.5-.8l-11.3 3.8a9.2 9.2 0 0 0-6.2 7.6l-2 16.2h-.2a1.4 1.4 0 0 0-1.5 1.2l-.2 2a1.4 1.4 0 0 0 1.2 1.4l3.4.4v5.4a4.6 4.6 0 0 0 4.6 4.6h74a4.6 4.6 0 0 0 4.6-4.6v-5.4l3.4-.4a1.4 1.4 0 0 0 1.2-1.5Z"/>
    <path id="b" d="M855.9 10274.1H828v7.7a4.6 4.6 0 0 1-2.3 4 31.4 31.4 0 0 0 30-11.7Z"/>
    <path id="c" d="M874.3 10241.2v-4.6a11.6 11.6 0 0 0-11.5-11.6h-41.6a11.6 11.6 0 0 0-11.5 11.6v4.6a7 7 0 1 0 0 13.9v2.3a13.9 13.9 0 0 0 8.5 12.8l15 6.2a23.1 23.1 0 0 0 17.7 0l15-6.2a13.9 13.9 0 0 0 8.4-12.8v-2.3a7 7 0 1 0 0-13.9Zm-6.9 87.8v-11.6h19.4l-2.5-19.6a9.2 9.2 0 0 0-6.2-7.6l-11.3-3.8a4.5 4.5 0 0 0-5.3 1.8 23 23 0 0 1-39 0 4.5 4.5 0 0 0-5.3-1.8l-11.3 3.8a9.2 9.2 0 0 0-6.2 7.6l-2.2 17.6h19v13.6Z"/>
    <path id="d" d="M825.8 10250.4a2.3 2.3 0 0 1-2.3-2.3v-2.3a2.3 2.3 0 1 1 4.6 0v2.3a2.3 2.3 0 0 1-2.3 2.3Zm32.4 0a2.3 2.3 0 0 1-2.3-2.3v-2.3a2.3 2.3 0 1 1 4.6 0v2.3a2.3 2.3 0 0 1-2.3 2.3Zm-16.2 16.3a19.2 19.2 0 0 1-10.5-2.8 2.3 2.3 0 0 1 2.6-3.8 14.8 14.8 0 0 0 7.9 2 14.8 14.8 0 0 0 8-2 2.3 2.3 0 0 1 2.5 3.8 19.2 19.2 0 0 1-10.5 2.8Z"/>
    <path id="e" d="M821.8 10265.4a10.8 10.8 0 0 1-2.9-7.4v-20.4a100 100 0 0 1 43.9-12.6h-41.6a10.9 10.9 0 0 0-2.3.3 11.6 11.6 0 0 0-9.2 11.3v4.6a7 7 0 1 0 0 13.9v2.3a13.9 13.9 0 0 0 8.5 12.8l15 6.2a23.1 23.1 0 0 0 2.1.8 96.4 96.4 0 0 1-13.5-11.8Zm-5.2 53.8v-5.2a9.2 9.2 0 0 0-2.3-6l-12.7-14.8a9.2 9.2 0 0 0-2 4.6l-2.3 19.3c3.7.2 13.4 1.4 19.3 2Z"/>
    <path id="f" d="m816.6 10316.1-19-2a1.4 1.4 0 0 0-1.6 1.1l-.2 2a1.4 1.4 0 0 0 1.2 1.4l19.6 2.2v-4.6Zm50.8 3.1v-5.2a9.2 9.2 0 0 1 2.3-6l12.7-14.8a9.2 9.2 0 0 1 2 4.6l2.3 19.3c-3.7.2-13.4 1.4-19.3 2Z"/>
    <path id="g" d="m867.4 10316.1 19-2a1.4 1.4 0 0 1 1.6 1.1l.2 2a1.4 1.4 0 0 1-1.2 1.4l-19.6 2.2Zm13.9-109.5-2.4-1.6c-.4-5.3-2.2-7.7-2.2-7.7l-8.5 2.8a90.5 90.5 0 0 0-30.8-5.1 9.8 9.8 0 0 1-4.6 2.3 126.4 126.4 0 0 0-16.2-2.3l-4.6 11.6s-11.6-.1-11.6 13.8c0 5.1 2.9 18 4.1 23.2a6.9 6.9 0 0 1 5.2-2.4v-4.6a11.5 11.5 0 0 1 11.3-11.5 25.7 25.7 0 0 0-2.1 6.9 40.6 40.6 0 0 1 23.1-7h20.8a11.6 11.6 0 0 1 11.5 11.6v4.6a6.9 6.9 0 0 1 5.5 2.7 59 59 0 0 0 1.5-37.3Z"/>
    <path id="h" d="m876.7 10197.3-8.5 2.8a90.5 90.5 0 0 0-30.8-5.1 9.8 9.8 0 0 1-4.6 2.3 126.4 126.4 0 0 0-16.2-2.3l-4.6 11.6s-11.6-.1-11.6 13.8c0 5.1 2.9 18 4.1 23.2a6.9 6.9 0 0 1 5.2-2.4v-4.6a11.5 11.5 0 0 1 10.5-11.5 20.6 20.6 0 0 0-1.3 6.9 57.5 57.5 0 0 1 32.3-18.5c10.3-2.8 11.6-7 11.6-7s10.1-.5 13.9-9.2Z"/>
  </defs>
  <g transform="translate(-783 -10193)">
    <g fill="#e9e9ed">
      <use xlink:href="#a"/>
      <use xlink:href="#b"/>
      <use xlink:href="#c"/>
      <use xlink:href="#d"/>
      <use xlink:href="#e"/>
      <use xlink:href="#f"/>
      <use xlink:href="#g"/>
      <use xlink:href="#h"/>
    </g>
    <g fill="#e9e9ed">
      <use xlink:href="#a"/>
      <use xlink:href="#b"/>
      <use xlink:href="#c"/>
      <use xlink:href="#d"/>
      <use xlink:href="#e"/>
      <use xlink:href="#f"/>
      <use xlink:href="#g"/>
      <use xlink:href="#h"/>
    </g>
    <rect width="114" height="134" fill="#e9e9ed" rx="4" transform="translate(785 10195)"/>
    <path fill="#f0f0f0" d="M789 10193h106a6 6 0 0 1 6 6v126a6 6 0 0 1-6 6H789a6 6 0 0 1-6-6v-126a6 6 0 0 1 6-6Zm106 134a2 2 0 0 0 2-2v-126a2 2 0 0 0-2-2H789a2 2 0 0 0-2 2v126a2 2 0 0 0 2 2Z"/>
  </g>
  <g opacity=".6" style="mix-blend-mode:luminosity;isolation:isolate">
    <path fill="#fdc88e" d="m99.4 124.4-.2-1.7a1.2 1.2 0 0 0-1.4-1.1l-2-14.6a8.3 8.3 0 0 0-5.6-6.8l-10-3.4a4.1 4.1 0 0 0-4 .8l-3-1a4.1 4.1 0 0 1-2.9-4V86l9-3.7A12.4 12.4 0 0 0 87 70.8v-2a6.2 6.2 0 0 0 4.9-10.1 53 53 0 0 0 1.3-33.5s-.7-.5-2.1-1.3c-.4-4.8-2-7-2-7l-7.6 2.6A81.1 81.1 0 0 0 54 14.9a8.8 8.8 0 0 1-4.2 2 113.3 113.3 0 0 0-14.5-2l-4.1 10.3s-10.4 0-10.4 12.5c0 4.6 2.6 16 3.7 20.7A6.2 6.2 0 0 0 29 68.7v2.1a12.4 12.4 0 0 0 7.7 11.5l8.9 3.7v6.7a4.1 4.1 0 0 1-2.9 3.9l-3 1a4.1 4.1 0 0 0-4-.8l-10 3.4A8.3 8.3 0 0 0 20 107l-1.8 14.6h-.1a1.2 1.2 0 0 0-1.4 1l-.2 1.8a1.2 1.2 0 0 0 1 1.3l3.1.3v4.9A4.1 4.1 0 0 0 25 135h66a4.1 4.1 0 0 0 4.2-4.1V126l3-.3a1.2 1.2 0 0 0 1-1.3Z"/>
    <path fill="#f5b97a" d="M70.4 85.8H45.6v6.9a4.1 4.1 0 0 1-2.1 3.5c17.4 3 27-10.4 27-10.4Z"/>
    <path fill="#ffd7a3" d="M87 56.3v-4.1a10.4 10.4 0 0 0-10.4-10.4H39.4A10.4 10.4 0 0 0 29 52.2v4.1a6.2 6.2 0 1 0 0 12.4v2.1a12.4 12.4 0 0 0 7.7 11.5L50 87.8a20.7 20.7 0 0 0 16 0l13.3-5.5A12.4 12.4 0 0 0 87 70.8v-2a6.2 6.2 0 0 0 0-12.5Z"/>
    <path fill="#ff6473" d="M80.8 135v-10.4H98L96 107a8.3 8.3 0 0 0-5.6-6.8l-10-3.4a4 4 0 0 0-4.8 1.7 20.7 20.7 0 0 1-35 0 4 4 0 0 0-4.7-1.7l-10.1 3.4A8.3 8.3 0 0 0 20 107l-2 15.8h17.1V135h45.6Z"/>
    <path fill="#fdc88e" d="M39.9 78a9.7 9.7 0 0 1-2.6-6.7V53.1a90 90 0 0 1 39.3-11.3H39.4a9.7 9.7 0 0 0-2.1.2A10.4 10.4 0 0 0 29 52.2v4.1a6.2 6.2 0 1 0 0 12.4v2.1a12.4 12.4 0 0 0 7.7 11.5L50 87.8a20.7 20.7 0 0 0 2 .8A86.4 86.4 0 0 1 40 78Z"/>
    <path fill="#f05467" d="M35.2 126.2v-4.7a8.3 8.3 0 0 0-2-5.4l-11.4-13.2a8.3 8.3 0 0 0-1.7 4.1l-2.2 17.3c3.3.2 12 1.3 17.3 2Z"/>
    <path fill="#bd445a" d="m35.2 123.5-17-2a1.2 1.2 0 0 0-1.4 1.2l-.2 1.7a1.2 1.2 0 0 0 1 1.3l17.6 2Z"/>
    <path fill="#f05467" d="M80.8 126.2v-4.7a8.3 8.3 0 0 1 2-5.4l11.4-13.2a8.3 8.3 0 0 1 1.7 4.1l2.2 17.3c-3.3.2-12 1.3-17.3 2Z"/>
    <path fill="#bd445a" d="m80.8 123.5 17-2a1.2 1.2 0 0 1 1.4 1.2l.2 1.7a1.2 1.2 0 0 1-1 1.3l-17.6 2Z"/>
    <path fill="#9d6e48" d="M93.2 25.2 91.1 24c-.4-4.8-2-7-2-7l-7.6 2.6A81.1 81.1 0 0 0 53.9 15a8.8 8.8 0 0 1-4.2 2 113.3 113.3 0 0 0-14.5-2l-4.1 10.3s-10.4 0-10.4 12.5c0 4.6 2.6 16 3.7 20.7a6.2 6.2 0 0 1 4.6-2.1v-4.1a10.3 10.3 0 0 1 10.2-10.4 23 23 0 0 0-2 6.2A36.4 36.4 0 0 1 58 41.8h18.6A10.4 10.4 0 0 1 87 52.2v4.1a6.2 6.2 0 0 1 4.9 2.4 53 53 0 0 0 1.3-33.5Z"/>
    <path fill="#8d5f3d" d="m89 17-7.5 2.5a81.1 81.1 0 0 0-27.6-4.6 8.8 8.8 0 0 1-4.2 2 113.3 113.3 0 0 0-14.5-2l-4.1 10.3s-10.4 0-10.4 12.5c0 4.6 2.6 16 3.7 20.7a6.2 6.2 0 0 1 4.6-2.1v-4.1a10.3 10.3 0 0 1 9.4-10.3 18.5 18.5 0 0 0-1.1 6.1 51.5 51.5 0 0 1 29-16.6c9.2-2.4 10.3-6.2 10.3-6.2s9.1-.5 12.5-8.2Z"/>
  </g>
</svg>