<svg xmlns="http://www.w3.org/2000/svg" xmlns:xlink="http://www.w3.org/1999/xlink" viewBox="0 0 48 48">
  <defs>
    <path id="b" d="M48 57v-.8a.6.6 0 0 0-.7-.6l-1-7.6a4.3 4.3 0 0 0-3-3.5l-5.2-1.8a2.2 2.2 0 0 0-2 .4l-1.6-.5a2.2 2.2 0 0 1-1.5-2V37l4.7-2a6.5 6.5 0 0 0 4-6v-1a3.2 3.2 0 0 0 2.5-5.2 27.5 27.5 0 0 0 .7-17.4s-.4-.3-1.1-.7a7.2 7.2 0 0 0-1-3.6l-4 1.3A42.2 42.2 0 0 0 24.4.1a4.5 4.5 0 0 1-2.1 1 58.9 58.9 0 0 0-7.6-1l-2.1 5.4s-5.4 0-5.4 6.5c0 2.3 1.3 8.3 1.9 10.7a3.2 3.2 0 0 0 2.4 5.4v1a6.5 6.5 0 0 0 4 6l4.6 2v3.5a2.2 2.2 0 0 1-1.5 2l-1.5.5a2.2 2.2 0 0 0-2-.4l-5.3 1.8a4.3 4.3 0 0 0-3 3.5L6 55.6a.6.6 0 0 0-.8.6v.8a.6.6 0 0 0 .5.7l1.6.2v2.5a2.2 2.2 0 0 0 2.1 2.2h34.5a2.2 2.2 0 0 0 2.1-2.2V58l1.6-.2a.6.6 0 0 0 .6-.7Z"/>
    <path id="c" d="M33 37H20.1v3.6a2.1 2.1 0 0 1-1 1.8A14.6 14.6 0 0 0 33 37Z"/>
    <path id="d" d="M41.6 21.7v-2.2a5.4 5.4 0 0 0-5.3-5.4H16.9a5.4 5.4 0 0 0-5.4 5.4v2.2a3.2 3.2 0 1 0 0 6.4v1a6.5 6.5 0 0 0 4 6l7 3a10.8 10.8 0 0 0 8.2 0l7-3a6.5 6.5 0 0 0 4-6v-1a3.2 3.2 0 0 0 0-6.4Zm-3.2 40.9v-5.4h9L46.3 48a4.3 4.3 0 0 0-3-3.5l-5.2-1.8a2.1 2.1 0 0 0-2.4.9 10.8 10.8 0 0 1-18.2 0 2.1 2.1 0 0 0-2.5-.9l-5.2 1.8a4.3 4.3 0 0 0-3 3.5l-1 8.2h9v6.4Z"/>
    <path id="e" d="M19 26a1 1 0 0 1-1-1.1v-1a1 1 0 1 1 2.1 0v1a1 1 0 0 1-1 1Zm15.1 0a1 1 0 0 1-1-1.1v-1a1 1 0 1 1 2 0v1a1 1 0 0 1-1 1Zm-7.5 7.5a9 9 0 0 1-5-1.3 1 1 0 1 1 1.3-1.7 8 8 0 0 0 7.4 0 1 1 0 0 1 1.2 1.7 9 9 0 0 1-5 1.3Z"/>
    <path id="f" d="M17.1 33a5 5 0 0 1-1.3-3.5V20a47 47 0 0 1 20.5-6H16.9a5 5 0 0 0-1.1.1 5.4 5.4 0 0 0-4.3 5.3v2.2a3.2 3.2 0 1 0 0 6.4v1a6.5 6.5 0 0 0 4 6l7 3a10.8 10.8 0 0 0 1 .3A45 45 0 0 1 17 33Zm-2.4 25v-2.4a4.3 4.3 0 0 0-1-2.9l-6-6.8a4.3 4.3 0 0 0-.9 2.1l-1 9 9 1Z"/>
    <path id="g" d="m14.7 56.6-8.9-1a.6.6 0 0 0-.7.6v.8a.6.6 0 0 0 .5.7l9.1 1v-2.1ZM38.4 58v-2.4a4.3 4.3 0 0 1 1-2.9l6-6.8a4.3 4.3 0 0 1 .9 2.1l1.1 9-9 1Z"/>
    <path id="h" d="m38.4 56.6 8.9-1a.6.6 0 0 1 .7.6v.8a.6.6 0 0 1-.5.7l-9 1Zm6.5-51.1-1.1-.7a7.2 7.2 0 0 0-1-3.6l-4 1.3A42.2 42.2 0 0 0 24.4.1a4.5 4.5 0 0 1-2.1 1 58.9 58.9 0 0 0-7.6-1l-2.1 5.4s-5.4 0-5.4 6.5c0 2.4 1.3 8.3 1.9 10.7a3.2 3.2 0 0 1 2.4-1v-2.2a5.4 5.4 0 0 1 5.3-5.4 12 12 0 0 0-1 3.2 19 19 0 0 1 10.8-3.2h9.7a5.4 5.4 0 0 1 5.3 5.4v2.2a3.2 3.2 0 0 1 2.6 1.2 27.5 27.5 0 0 0 .7-17.4Z"/>
    <path id="i" d="m42.7 1.2-4 1.3A42.2 42.2 0 0 0 24.5.1a4.5 4.5 0 0 1-2.1 1 58.9 58.9 0 0 0-7.6-1l-2.1 5.4s-5.4 0-5.4 6.5c0 2.4 1.3 8.3 1.9 10.7a3.2 3.2 0 0 1 2.4-1v-2.2a5.4 5.4 0 0 1 4.9-5.3 9.6 9.6 0 0 0-.6 3.1 26.8 26.8 0 0 1 15-8.6c4.8-1.2 5.5-3.2 5.5-3.2s4.7-.3 6.4-4.3Z"/>
  </defs>
  <defs>
    <clipPath id="a">
      <circle cx="24" cy="24" r="24" fill="#fff" transform="translate(352 720)"/>
    </clipPath>
  </defs>
  <g clip-path="url(#a)" transform="translate(-352 -720)">
    <g transform="translate(350 721.4)">
      <g fill="#e9e9ed">
        <use xlink:href="#b"/>
        <use xlink:href="#c"/>
        <use xlink:href="#d"/>
        <use xlink:href="#e"/>
        <use xlink:href="#f"/>
        <use xlink:href="#g"/>
        <use xlink:href="#h"/>
        <use xlink:href="#i"/>
      </g>
      <g fill="#e9e9ed">
        <use xlink:href="#b"/>
        <use xlink:href="#c"/>
        <use xlink:href="#d"/>
        <use xlink:href="#e"/>
        <use xlink:href="#f"/>
        <use xlink:href="#g"/>
        <use xlink:href="#h"/>
        <use xlink:href="#i"/>
      </g>
      <rect width="53" height="63" fill="#e9e9ed" rx="4" transform="translate(0 -.4)"/>
      <path fill="#f0f0f0" d="M4-2.4h45a6 6 0 0 1 6 6v55a6 6 0 0 1-6 6H4a6 6 0 0 1-6-6v-55a6 6 0 0 1 6-6Zm45 63a2 2 0 0 0 2-2v-55a2 2 0 0 0-2-2H4a2 2 0 0 0-2 2v55a2 2 0 0 0 2 2Z"/>
    </g>
    <g opacity=".6" style="mix-blend-mode:luminosity;isolation:isolate">
      <path fill="#fdc88e" d="m395.4 778.6-.1-.8a.6.6 0 0 0-.6-.5l-1-6.8a3.9 3.9 0 0 0-2.5-3.2l-4.7-1.5a2 2 0 0 0-1.9.3l-1.4-.5a2 2 0 0 1-1.3-1.8v-3.1l4.1-1.7a5.8 5.8 0 0 0 3.6-5.4v-1a2.9 2.9 0 0 0 2.3-4.6 24.7 24.7 0 0 0 .6-15.6s-.3-.3-1-.7a6.4 6.4 0 0 0-1-3.2l-3.4 1.2a37.8 37.8 0 0 0-13-2.1 4 4 0 0 1-1.9 1 52.8 52.8 0 0 0-6.7-1l-2 4.8s-4.8 0-4.8 5.8a65 65 0 0 0 1.7 9.6 2.9 2.9 0 0 0 2.2 4.8v1a5.8 5.8 0 0 0 3.5 5.4l4.2 1.7v3.1a2 2 0 0 1-1.3 1.8l-1.4.5a2 2 0 0 0-1.9-.3l-4.7 1.5a3.9 3.9 0 0 0-2.6 3.2l-.8 6.8a.6.6 0 0 0-.7.5v.8a.6.6 0 0 0 .4.6l1.4.2v2.2a2 2 0 0 0 2 2h30.8a2 2 0 0 0 2-2v-2.2l1.4-.2a.6.6 0 0 0 .5-.6Z"/>
      <path fill="#f5b97a" d="M381.9 760.6h-11.6v3.2a2 2 0 0 1-1 1.7 13.1 13.1 0 0 0 12.6-4.9Z"/>
      <path fill="#ffd7a3" d="M389.6 746.9v-2a4.8 4.8 0 0 0-4.8-4.8h-17.4a4.8 4.8 0 0 0-4.8 4.8v2a2.9 2.9 0 1 0 0 5.7v1a5.8 5.8 0 0 0 3.6 5.4l6.2 2.6a9.7 9.7 0 0 0 7.4 0l6.2-2.6a5.8 5.8 0 0 0 3.6-5.4v-1a2.9 2.9 0 1 0 0-5.7Z"/>
      <path fill="#ff6473" d="M386.7 783.5v-4.8h8.1l-1-8.2a3.9 3.9 0 0 0-2.6-3.2l-4.7-1.5a1.9 1.9 0 0 0-2.3.7 9.6 9.6 0 0 1-16.2 0 1.9 1.9 0 0 0-2.3-.7l-4.7 1.5a3.9 3.9 0 0 0-2.6 3.2l-.9 7.4h8v5.6h21.2Z"/>
      <path fill="#fdc88e" d="M367.7 757a4.5 4.5 0 0 1-1.3-3.1v-8.6a42.1 42.1 0 0 1 18.4-5.2h-17.4a4.5 4.5 0 0 0-1 .1 4.8 4.8 0 0 0-3.8 4.7v2a2.9 2.9 0 1 0 0 5.8v1a5.8 5.8 0 0 0 3.6 5.3l6.2 2.6a9.7 9.7 0 0 0 1 .3 40.3 40.3 0 0 1-5.7-5Z"/>
      <path fill="#f05467" d="M365.5 779.4v-2.1a3.9 3.9 0 0 0-1-2.6l-5.3-6.1a3.9 3.9 0 0 0-.8 1.9l-1 8 8 1Z"/>
      <path fill="#bd445a" d="m365.5 778.2-8-1a.6.6 0 0 0-.6.6v.8a.6.6 0 0 0 .4.6l8.2 1Z"/>
      <path fill="#f05467" d="M386.7 779.4v-2.1a3.9 3.9 0 0 1 1-2.6l5.3-6.1a3.9 3.9 0 0 1 .8 1.9l1 8-8 1Z"/>
      <path fill="#bd445a" d="m386.7 778.2 8-1a.6.6 0 0 1 .6.6v.8a.6.6 0 0 1-.4.6l-8.2 1Z"/>
      <path fill="#9d6e48" d="m392.5 732.4-1-.7a6.4 6.4 0 0 0-1-3.2l-3.4 1.2a37.8 37.8 0 0 0-13-2.1 4 4 0 0 1-1.9 1 52.8 52.8 0 0 0-6.7-1l-2 4.8s-4.8 0-4.8 5.8a66 66 0 0 0 1.7 9.6 2.9 2.9 0 0 1 2.2-1V745a4.8 4.8 0 0 1 4.7-4.8 10.7 10.7 0 0 0-.9 2.9 17 17 0 0 1 9.7-2.9h8.7a4.8 4.8 0 0 1 4.8 4.8v2a2.9 2.9 0 0 1 2.3 1 24.7 24.7 0 0 0 .6-15.5Z"/>
      <path fill="#8d5f3d" d="m390.6 728.5-3.5 1.2a37.8 37.8 0 0 0-13-2.1 4 4 0 0 1-1.9 1 52.8 52.8 0 0 0-6.7-1l-2 4.8s-4.8 0-4.8 5.8a66 66 0 0 0 1.7 9.6 2.9 2.9 0 0 1 2.2-1V745a4.8 4.8 0 0 1 4.4-4.8 8.6 8.6 0 0 0-.6 2.9 24 24 0 0 1 13.6-7.7c4.2-1.2 4.8-3 4.8-3s4.2-.2 5.8-3.8Z"/>
    </g>
  </g>
</svg>