<svg xmlns="http://www.w3.org/2000/svg" xmlns:xlink="http://www.w3.org/1999/xlink" viewBox="0 0 48 48">
  <defs>
    <path id="b" d="M48 57v-.8a.6.6 0 0 0-.7-.6l-1-7.6a4.3 4.3 0 0 0-3-3.5l-5.2-1.8a2.2 2.2 0 0 0-2 .4l-1.6-.5a2.2 2.2 0 0 1-1.5-2V37l4.7-2a6.5 6.5 0 0 0 4-6v-1a3.2 3.2 0 0 0 2.5-5.2 27.5 27.5 0 0 0 .7-17.4s-.4-.3-1.1-.7a7.2 7.2 0 0 0-1-3.6l-4 1.3A42.2 42.2 0 0 0 24.4.1a4.5 4.5 0 0 1-2.1 1 58.9 58.9 0 0 0-7.6-1l-2.1 5.4s-5.4 0-5.4 6.5c0 2.3 1.3 8.3 1.9 10.7a3.2 3.2 0 0 0 2.4 5.4v1a6.5 6.5 0 0 0 4 6l4.6 2v3.5a2.2 2.2 0 0 1-1.5 2l-1.5.5a2.2 2.2 0 0 0-2-.4l-5.3 1.8a4.3 4.3 0 0 0-3 3.5L6 55.6a.6.6 0 0 0-.8.6v.8a.6.6 0 0 0 .5.7l1.6.2v2.5a2.2 2.2 0 0 0 2.1 2.2h34.5a2.2 2.2 0 0 0 2.1-2.2V58l1.6-.2a.6.6 0 0 0 .6-.7Z"/>
    <path id="c" d="M33 37H20.1v3.6a2.1 2.1 0 0 1-1 1.8A14.6 14.6 0 0 0 33 37Z"/>
    <path id="d" d="M41.6 21.7v-2.2a5.4 5.4 0 0 0-5.3-5.4H16.9a5.4 5.4 0 0 0-5.4 5.4v2.2a3.2 3.2 0 1 0 0 6.4v1a6.5 6.5 0 0 0 4 6l7 3a10.8 10.8 0 0 0 8.2 0l7-3a6.5 6.5 0 0 0 4-6v-1a3.2 3.2 0 0 0 0-6.4Zm-3.2 40.9v-5.4h9L46.3 48a4.3 4.3 0 0 0-3-3.5l-5.2-1.8a2.1 2.1 0 0 0-2.4.9 10.8 10.8 0 0 1-18.2 0 2.1 2.1 0 0 0-2.5-.9l-5.2 1.8a4.3 4.3 0 0 0-3 3.5l-1 8.2h9v6.4Z"/>
    <path id="e" d="M19 26a1 1 0 0 1-1-1.1v-1a1 1 0 1 1 2.1 0v1a1 1 0 0 1-1 1Zm15.1 0a1 1 0 0 1-1-1.1v-1a1 1 0 1 1 2 0v1a1 1 0 0 1-1 1Zm-7.5 7.5a9 9 0 0 1-5-1.3 1 1 0 1 1 1.3-1.7 8 8 0 0 0 7.4 0 1 1 0 0 1 1.2 1.7 9 9 0 0 1-5 1.3Z"/>
    <path id="f" d="M17.1 33a5 5 0 0 1-1.3-3.5V20a47 47 0 0 1 20.5-6H16.9a5 5 0 0 0-1.1.1 5.4 5.4 0 0 0-4.3 5.3v2.2a3.2 3.2 0 1 0 0 6.4v1a6.5 6.5 0 0 0 4 6l7 3a10.8 10.8 0 0 0 1 .3A45 45 0 0 1 17 33Zm-2.4 25v-2.4a4.3 4.3 0 0 0-1-2.9l-6-6.8a4.3 4.3 0 0 0-.9 2.1l-1 9 9 1Z"/>
    <path id="g" d="m14.7 56.6-8.9-1a.6.6 0 0 0-.7.6v.8a.6.6 0 0 0 .5.7l9.1 1v-2.1ZM38.4 58v-2.4a4.3 4.3 0 0 1 1-2.9l6-6.8a4.3 4.3 0 0 1 .9 2.1l1.1 9-9 1Z"/>
    <path id="h" d="m38.4 56.6 8.9-1a.6.6 0 0 1 .7.6v.8a.6.6 0 0 1-.5.7l-9 1Zm6.5-51.1-1.1-.7a7.2 7.2 0 0 0-1-3.6l-4 1.3A42.2 42.2 0 0 0 24.4.1a4.5 4.5 0 0 1-2.1 1 58.9 58.9 0 0 0-7.6-1l-2.1 5.4s-5.4 0-5.4 6.5c0 2.4 1.3 8.3 1.9 10.7a3.2 3.2 0 0 1 2.4-1v-2.2a5.4 5.4 0 0 1 5.3-5.4 12 12 0 0 0-1 3.2 19 19 0 0 1 10.8-3.2h9.7a5.4 5.4 0 0 1 5.3 5.4v2.2a3.2 3.2 0 0 1 2.6 1.2 27.5 27.5 0 0 0 .7-17.4Z"/>
    <path id="i" d="m42.7 1.2-4 1.3A42.2 42.2 0 0 0 24.5.1a4.5 4.5 0 0 1-2.1 1 58.9 58.9 0 0 0-7.6-1l-2.1 5.4s-5.4 0-5.4 6.5c0 2.4 1.3 8.3 1.9 10.7a3.2 3.2 0 0 1 2.4-1v-2.2a5.4 5.4 0 0 1 4.9-5.3 9.6 9.6 0 0 0-.6 3.1 26.8 26.8 0 0 1 15-8.6c4.8-1.2 5.5-3.2 5.5-3.2s4.7-.3 6.4-4.3Z"/>
  </defs>
  <defs>
    <clipPath id="a">
      <circle cx="24" cy="24" r="24" fill="#fff" transform="translate(352 720)"/>
    </clipPath>
  </defs>
  <g clip-path="url(#a)" transform="translate(-352 -720)">
    <g transform="translate(350 721.4)">
      <g fill="#e9e9ed">
        <use xlink:href="#b"/>
        <use xlink:href="#c"/>
        <use xlink:href="#d"/>
        <use xlink:href="#e"/>
        <use xlink:href="#f"/>
        <use xlink:href="#g"/>
        <use xlink:href="#h"/>
        <use xlink:href="#i"/>
      </g>
      <g fill="#e9e9ed">
        <use xlink:href="#b"/>
        <use xlink:href="#c"/>
        <use xlink:href="#d"/>
        <use xlink:href="#e"/>
        <use xlink:href="#f"/>
        <use xlink:href="#g"/>
        <use xlink:href="#h"/>
        <use xlink:href="#i"/>
      </g>
      <rect width="53" height="63" fill="#e9e9ed" rx="4" transform="translate(0 -.4)"/>
      <path fill="#f0f0f0" d="M4-2.4h45a6 6 0 0 1 6 6v55a6 6 0 0 1-6 6H4a6 6 0 0 1-6-6v-55a6 6 0 0 1 6-6Zm45 63a2 2 0 0 0 2-2v-55a2 2 0 0 0-2-2H4a2 2 0 0 0-2 2v55a2 2 0 0 0 2 2Z"/>
    </g>
    <g opacity=".6" style="mix-blend-mode:luminosity;isolation:isolate" transform="translate(300.7 726.4)">
      <path fill="#ffd7a3" d="M91.4 41a4.5 4.5 0 0 0-2.4-3.4l-2-1a.6.6 0 0 0-.7.3l-1-.3a27 27 0 0 0 10.3-5.1c-3.5-7-2.6-17.4-5.4-23.4S82.1 0 75.8 0 64.2 2.1 61.4 8.1 59.5 24.6 56 31.5a27 27 0 0 0 10.3 5l-1 .4a.6.6 0 0 0-.7-.2l-1.8.8a4.6 4.6 0 0 0-2.6 3.6v.3l-1 7.7a2.7 2.7 0 0 0 2.6 3.1h28a2.7 2.7 0 0 0 2.7-3Z"/>
      <path fill="#9d6e48" d="M90.2 8.1C87.4 2.1 82.1 0 75.8 0S64.2 2.1 61.4 8.1 59.5 24.6 56 31.5c0 0 7 6.3 19.8 6.3s19.8-6.3 19.8-6.3c-3.5-7-2.6-17.4-5.4-23.4Z"/>
      <path fill="#8d5f3d" d="M70.4 16c0-6.2 2.4-12 7.1-16h-1.7c-6.3 0-11.6 2.1-14.4 8.1S59.5 24.6 56 31.5c0 0 5.1 4.5 14.4 5.9Z"/>
      <path fill="#ffd7a3" d="M91.5 41.4a4.5 4.5 0 0 0-3-3.6l-6-2.3a1.8 1.8 0 0 1-1.3-1.7v-5.9H70.4v5.9a1.8 1.8 0 0 1-1.2 1.7L63 37.8a4.5 4.5 0 0 0-2.9 3.6l-1 7.7a2.7 2.7 0 0 0 2.7 3.1h28a2.7 2.7 0 0 0 2.7-3Z"/>
      <path fill="#fdc88e" d="M70.4 33.8v.2c0 .1 0 0 0 0v.2a1.8 1.8 0 0 1-.9 1.1A12.3 12.3 0 0 0 81.2 31H70.4Z"/>
      <path fill="#ffe1b2" d="M88.4 18v-1.8a4.5 4.5 0 0 0-4.5-4.5H67.7a4.5 4.5 0 0 0-4.5 4.5V18a2.7 2.7 0 0 0 0 5.4v.9a5.4 5.4 0 0 0 3.3 5l5.8 2.4a9 9 0 0 0 7 0l5.8-2.4a5.4 5.4 0 0 0 3.3-5v-.9a2.7 2.7 0 0 0 0-5.4Z"/>
      <path fill="#ffd7a3" d="M83.7 14.4V12H66a4.5 4.5 0 0 0-2.8 4.2V18a2.7 2.7 0 1 0 0 5.4v.9a5.4 5.4 0 0 0 3.3 5l5.8 2.4a9 9 0 0 0 1 .3 37.6 37.6 0 0 1-5.4-4.6 4.2 4.2 0 0 1-1.1-2.9V18c2.9 0 12.1-.6 16.9-3.6Z"/>
      <path fill="#9d6e48" d="M65 16.2s5.7.6 9-.9c.5-.2 1.8-3.1 1.8-3.1v4a29.3 29.3 0 0 0 8.4-2V11H64.4a50.3 50.3 0 0 1 .6 5.2Z"/>
      <path fill="#ff6473" d="m89 37.6-2-1a.6.6 0 0 0-.8.4 10.8 10.8 0 0 1-20.8 0 .6.6 0 0 0-.8-.3l-1.8.9a4.6 4.6 0 0 0-2.6 3.5l-1 8a2.7 2.7 0 0 0 2.6 3.1h28a2.7 2.7 0 0 0 2.7-3l-1-8.1a4.5 4.5 0 0 0-2.5-3.5Z"/>
      <path fill="#f05467" d="M60.6 39.7a4.4 4.4 0 0 0-.4 1.4l-1 8a2.7 2.7 0 0 0 2.6 3.1h4.1v-3.6a5.4 5.4 0 0 0-1-3.2l-4.3-5.7Zm30.4 0a4.4 4.4 0 0 1 .4 1.4l1 8a2.7 2.7 0 0 1-2.6 3.1h-4.1v-3.6a5.4 5.4 0 0 1 1-3.2l4.3-5.7Z"/>
      <path fill="#bd445a" d="M87 11.7c0 1.2-2.4 2.2-3.6 2.2a2.2 2.2 0 0 1 0-4.4c1.2 0 3.7 1 3.7 2.2Zm0 0c0-1.3 2.5-2.2 3.7-2.2a2.2 2.2 0 0 1 0 4.4c-1.2 0-3.6-1-3.6-2.2Z"/>
      <path fill="#ff6473" d="M87 11.7c1.1.6.7 3.2.1 4.2a2.2 2.2 0 0 1-3.8-2.2c.6-1 2.7-2.6 3.8-2Z"/>
      <path fill="#ff6473" d="M87 11.7c-1-.6-.6-3.3 0-4.3a2.2 2.2 0 1 1 3.8 2.2c-.6 1-2.7 2.7-3.7 2Z"/>
      <path fill="#f05467" d="M87 11.7c-1 .6-.6 3.2 0 4.2a2.2 2.2 0 1 0 3.8-2.2c-.6-1-2.7-2.6-3.7-2Z"/>
      <path fill="#f05467" d="M87 11.7c1.1-.6.7-3.3.1-4.3a2.2 2.2 0 0 0-3.8 2.2c.6 1 2.7 2.7 3.8 2Z"/>
      <circle cx="1.5" cy="1.5" r="1.5" fill="#fff" transform="translate(85.6 10.2)"/>
      <path fill="#8d5f3d" d="M64.4 11a50.3 50.3 0 0 1 .6 5.2 30 30 0 0 0 5.3 0V16a23 23 0 0 1 .5-5Z"/>
    </g>
  </g>
</svg>