<svg xmlns="http://www.w3.org/2000/svg" xmlns:xlink="http://www.w3.org/1999/xlink" width="989.675" height="196.151" viewBox="0 0 989.675 196.151"><defs><linearGradient id="a" x1="1" x2="0.5" y2="1" gradientUnits="objectBoundingBox"><stop offset="0" stop-color="#fff"/><stop offset="1" stop-color="#fff" stop-opacity="0"/></linearGradient></defs><g transform="translate(-6.311 -161.996)"><g transform="translate(553.255 206.102)"><path d="M3384.712,1382.77l16.37-26.341-9.259-5.754,2.736-.639,14.279-3.329,4.086-.953,5.383-1.255.31,1.328,5.878,25.153-9.258-5.754h0l-16.37,26.342Z" transform="translate(-3384.712 -1344.497)" fill="url(#a)"/><path d="M3399.026,1392.254l-15-9.324,16.37-26.341-9.859-6.128,3.911-.913,24.235-5.651,6.576,28.143-9.86-6.128Zm-13.626-9.645,13.3,8.268L3415.1,1364.5l.42.313,8.214,5.105-5.8-24.818-24.821,5.789,8.658,5.381Z" transform="translate(-3384.712 -1344.497)" fill="rgba(0,0,0,0)"/></g><g transform="translate(695.255 237.664)"><path d="M3384.712,1382.77l16.37-26.341-9.259-5.754,2.736-.639,14.279-3.329,4.086-.953,5.383-1.255.31,1.328,5.878,25.153-9.258-5.754h0l-16.37,26.342Z" transform="translate(-3384.712 -1344.497)" fill="url(#a)"/><path d="M3399.026,1392.254l-15-9.324,16.37-26.341-9.859-6.128,3.911-.913,24.235-5.651,6.576,28.143-9.86-6.128Zm-13.626-9.645,13.3,8.268L3415.1,1364.5l.42.313,8.214,5.105-5.8-24.818-24.821,5.789,8.658,5.381Z" transform="translate(-3384.712 -1344.497)" fill="rgba(0,0,0,0)"/></g><g transform="translate(862.253 198.915)"><path d="M3384.712,1382.77l16.37-26.341-9.259-5.754,2.736-.639,14.279-3.329,4.086-.953,5.383-1.255.31,1.328,5.878,25.153-9.258-5.754h0l-16.37,26.342Z" transform="translate(-3384.712 -1344.497)" fill="url(#a)"/><path d="M3399.026,1392.254l-15-9.324,16.37-26.341-9.859-6.128,3.911-.913,24.235-5.651,6.576,28.143-9.86-6.128Zm-13.626-9.645,13.3,8.268L3415.1,1364.5l.42.313,8.214,5.105-5.8-24.818-24.821,5.789,8.658,5.381Z" transform="translate(-3384.712 -1344.497)" fill="rgba(0,0,0,0)"/></g><g transform="translate(267.763 270.786)"><path d="M3842.947,1350.334l9.563-15.386h0l-5.409-3.362,1.6-.373,8.34-1.944,2.388-.558,3.144-.733.182.775,3.433,14.692-5.407-3.36h0l-9.563,15.386Z" transform="translate(-3842.947 -1327.979)" fill="url(#a)"/><path d="M3851.374,1356.161l-9.116-5.666,9.562-15.386-6.01-3.736,17.133-3.995.3,1.262,3.708,15.868-6.008-3.734Zm-7.739-5.987,7.417,4.61,9.446-15.2h.42l.122.075,4.382,2.723-3.226-13.805-13.808,3.22,4.263,2.649h.757l-.475.764Z" transform="translate(-3842.947 -1327.979)" fill="rgba(0,0,0,0)"/></g><g transform="translate(450.433 218.991)"><path d="M3539.531,1347.456l12.99-20.9h0l-7.347-4.565,2.171-.508,11.329-2.641,3.243-.757,4.271-1,.246,1.053,4.664,19.958-7.346-4.565h0l-12.989,20.9Z" transform="translate(-3539.531 -1317.088)" fill="url(#a)"/><path d="M3550.923,1355.124l-12.08-7.507,12.99-20.9-7.947-4.938,3.346-.782,19.33-4.507.359,1.54,4.939,21.134-7.947-4.939Zm-10.7-7.829,10.382,6.452,12.964-20.861.45.225,6.32,3.927-4.521-19.349-19.352,4.513,6.3,3.917.466.238-.287.462Z" transform="translate(-3539.531 -1317.088)" fill="rgba(0,0,0,0)"/></g><g transform="translate(7 162.597)"><path d="M4266,1424.258l30.264-48.694h0l-17.116-10.637,5.058-1.182,26.4-6.153,7.555-1.764,9.95-2.32.573,2.455,10.866,46.5-17.113-10.635h0l-30.264,48.7Z" transform="translate(-4266.001 -1353.507)" fill="url(#a)"/><path d="M4292.325,1441.208l-.425-.264-26.588-16.525.264-.425,30-48.269-17.718-11.011,6.233-1.456,26.4-6.153,7.554-1.764,10.438-2.433.686,2.942,11.141,47.674-1.026-.637-16.69-10.372Zm-25.636-17.11L4292,1439.83l30.276-48.715.424.291,16.077,9.991-11.05-47.291-9.463,2.206-7.554,1.764-30.277,7.06,16.085,10,.436.257-.269.436Z" transform="translate(-4266.001 -1353.507)" fill="rgba(0,0,0,0)"/></g><g transform="translate(307.982 172.106)"><path d="M3737.019,1382.724l29.3-47.139h0l-16.57-10.3,4.9-1.143,25.553-5.957,7.313-1.708,9.633-2.246.554,2.376,10.519,45.014-16.568-10.3h0l-29.3,47.139Z" transform="translate(-3737.019 -1314.232)" fill="url(#a)"/><path d="M3762.509,1399.153l-.425-.264-25.754-16,.264-.425,29.032-46.714-17.171-10.672,6.071-1.418,25.554-5.957,7.313-1.708,10.12-2.359.668,2.863,10.794,46.19-17.169-10.67Zm-24.8-16.59,24.48,15.213,29.276-47.105.446.23,15.542,9.659-10.685-45.728-9.146,2.132-7.313,1.708-29.273,6.826,15.969,9.925-.263.425Z" transform="translate(-3737.019 -1314.232)" fill="rgba(0,0,0,0)"/></g><g transform="translate(190.209 235.795)"><path d="M3949.793,1414.02l19.141-30.8h0l-10.827-6.729,3.2-.746,16.7-3.893,4.779-1.115,6.293-1.467.362,1.552,6.873,29.411-10.825-6.727h0l-19.142,30.8Z" transform="translate(-3949.792 -1369.269)" fill="url(#a)"/><path d="M3966.5,1424.994l-17.4-10.813,19.141-30.8-11.427-7.1,32.629-7.61.476,2.039,7.148,30.587-11.427-7.1Zm-16.021-11.135,15.7,9.757,19.142-30.8.425.264,9.8,6.09-6.847-29.3-29.3,6.834,9.778,6.077.478.229-.294.474Z" transform="translate(-3949.792 -1369.269)" fill="rgba(0,0,0,0)"/></g><g transform="translate(913.034 245.983)"><path d="M0,79.071,33.821,24.65h0L14.691,12.761l5.651-1.318,29.5-6.879,8.444-1.97L69.406,0l.64,2.743L82.19,54.71,63.064,42.825h0L29.24,97.244Z" transform="translate(0 0)" fill="url(#a)"/><path d="M29.4,97.933-.689,79.232,33.133,24.811,13.4,12.548l6.827-1.593L69.78-.6l.753,3.23L82.952,55.772,63.223,43.512ZM.689,78.911l28.39,17.645,33.8-54.384.449.228,18.1,11.248L69.033.6,15.98,12.974,34.063,24.212l.475.231-.292.471Z" transform="translate(0 0)" fill="rgba(0,0,0,0)"/></g><g transform="translate(481.998 264.988)"><path d="M3476,1353.926l23.157-37.262h0l-13.1-8.14,3.87-.9,20.2-4.709,5.781-1.35,7.614-1.775.438,1.878,8.314,35.581-13.095-8.138h0l-23.157,37.262Z" transform="translate(-3475.996 -1299.786)" fill="url(#a)"/><path d="M3496.177,1367.057l-20.87-12.97,23.157-37.262-13.7-8.513,5.045-1.178,34.08-7.947.552,2.365,8.589,36.756-13.7-8.512Zm-19.493-13.292,19.171,11.915,23.161-37.269.425.274,12.066,7.5-8.364-35.8-7.127,1.661-5.781,1.35-22.893,5.338,12.5,7.766-.263.425Z" transform="translate(-3475.996 -1299.786)" fill="rgba(0,0,0,0)"/></g><g transform="translate(348.377 257.54)"><path d="M3630.816,1437.809l23.157-37.261h0l-13.1-8.14,3.87-.9,20.2-4.709,5.781-1.349,7.614-1.776.439,1.878,8.314,35.581-13.1-8.138h0l-23.158,37.261Z" transform="translate(-3630.816 -1383.67)" fill="url(#a)"/><path d="M3651,1450.941l-20.871-12.971,23.157-37.261-13.7-8.513,5.045-1.179,34.081-7.947.552,2.365,8.589,36.757-13.7-8.512Zm-19.493-13.292,19.172,11.915,23.179-37.3.42.309,12.053,7.491-8.365-35.8-35.8,8.35,12.5,7.767-.264.425Z" transform="translate(-3630.816 -1383.67)" fill="rgba(0,0,0,0)"/></g><g transform="translate(789.802 257.54)"><path d="M3630.816,1437.809l23.157-37.261h0l-13.1-8.14,3.87-.9,20.2-4.709,5.781-1.349,7.614-1.776.439,1.878,8.314,35.581-13.1-8.138h0l-23.158,37.261Z" transform="translate(-3630.816 -1383.67)" fill="url(#a)"/><path d="M3651,1450.941l-20.871-12.971,23.157-37.261-13.7-8.513,5.045-1.179,34.081-7.947.552,2.365,8.589,36.757-13.7-8.512Zm-19.493-13.292,19.172,11.915,23.179-37.3.42.309,12.053,7.491-8.365-35.8-35.8,8.35,12.5,7.767-.264.425Z" transform="translate(-3630.816 -1383.67)" fill="rgba(0,0,0,0)"/></g><g transform="translate(775.076 218.991)"><path d="M0,21.948,9.388,6.842h0l-5.31-3.3,1.569-.366,8.188-1.909L16.179.72,19.266,0l.178.761,3.371,14.424-5.309-3.3h0L8.117,26.992Z" transform="translate(0 0)" fill="url(#a)"/><path d="M8.277,27.681-.689,22.108,8.7,7,2.789,3.33l2.744-.641L19.639-.6l3.937,16.848-5.91-3.673ZM.689,21.787,7.956,26.3l9.471-15.239.4.433,4.226,2.626L18.892.6,5.367,3.755l4.71,2.927Z" transform="translate(0 0)" fill="rgba(0,0,0,0)"/></g><g transform="translate(593.037 270.786)"><path d="M0,70.475l30.145-48.5h0l-17.05-10.6L18.132,10.2l26.293-6.13,7.526-1.756L61.862,0l.571,2.445L73.256,48.763,56.209,38.169h0l-30.146,48.5Z" transform="translate(0 0)" fill="url(#a)"/><path d="M26.224,87.361-.689,70.636l30.145-48.5L11.806,11.162l6.212-1.451L62.235-.6,74.018,49.825,56.37,38.857ZM.689,70.314,25.9,85.984,56.121,37.363l.4.414L72.495,47.7,61.489.6,44.539,4.555,14.384,11.587,30.834,21.81Z" transform="translate(0 0)" fill="rgba(0,0,0,0)"/></g><g transform="translate(666.294 185.837)"><path d="M0,16.478,7.048,5.137h0L3.062,2.66,4.24,2.384,10.387.951l1.76-.411L14.464,0,14.6.572,17.128,11.4,13.143,8.924h0L6.094,20.265Z" transform="translate(0 0)" fill="url(#a)"/><path d="M6.255,20.954-.689,16.639,6.36,5.3,1.773,2.447,4.126,1.9,14.838-.6,17.89,12.464,13.3,9.613ZM.689,16.317l5.245,3.259L13.05,8.125l.4.4,2.911,1.809L14.091.6,4.351,2.872l3.386,2.1Z" transform="translate(0 0)" fill="rgba(0,0,0,0)"/></g><g transform="translate(80.542 256.339)"><path d="M4058.727,1378.67l21.517-34.624h0l-12.17-7.564,3.6-.84,18.768-4.375,5.372-1.254,7.074-1.65.408,1.745,7.726,33.063-12.168-7.563h0l-21.518,34.624Z" transform="translate(-4058.727 -1328.363)" fill="url(#a)"/><path d="M4077.491,1390.921l-.425-.264-19.029-11.825,21.517-34.624-12.771-7.937,4.772-1.114,31.7-7.392.521,2.231,8,34.239-1.026-.637-11.744-7.3Zm-18.076-12.411,17.755,11.034,21.471-34.548.43.162.043.026,11.142,6.925-7.745-33.145-33.149,7.731,11.173,6.944.363.3-.23.372Z" transform="translate(-4058.727 -1328.363)" fill="rgba(0,0,0,0)"/></g></g></svg>