<svg xmlns="http://www.w3.org/2000/svg" viewBox="0 0 174.4 196.1">
  <g transform="translate(-.1 -.1)">
    <path fill="#fde6d6" d="M173.8 127.5a59 59 0 0 1-19 33.9 72 72 0 0 1-11.2 8 171 171 0 0 1-49.2 17.8l-3 .7a31 31 0 0 1-8.2.7C54.6 187.4 35.1 145 29 100.4c-5.3-39.8 3.6-84.8 43.2-86.8 14.9-.7 32.3 6.7 48.4 18.6L124 35l.7.5c30 24 54.6 62.9 49 92.1Z"/>
    <path fill="#f5f9fd" d="M33.3 165c2.3 4.5 3 10.2-1.4 12-5 2.1-13-1.2-15.4-8.7-1.5-4.9-1-11.6 3.2-14.2 3.5-2.2 11 5.3 13.6 10.9Z"/>
    <path fill="#ffad69" d="M156.4 63.4c-2-1.8-3.6-4.4-2-6.2s6.4-1.9 9 1.4c1.8 2 3 5.4 1.7 7.4-1.2 1.7-6.2-.5-8.7-2.6Z"/>
    <path fill="#d8d5db" d="M75.5 196.3a27.2 27.2 0 0 1-3.2-.4.2.2 0 0 1 0-.4 27 27 0 0 0 3.3.4.2.2 0 0 1 .1 0 .2.2 0 0 1 0 .2.2.2 0 0 1-.2.2Zm3.2 0a.2.2 0 0 1-.2-.2.2.2 0 0 1 .2-.2 26.3 26.3 0 0 0 3.2-.4.2.2 0 0 1 .3.1.2.2 0 0 1-.2.2 27.1 27.1 0 0 1-3.2.5ZM66.1 194a.2.2 0 0 1 0-.2.2.2 0 0 1 .2-.1 29.4 29.4 0 0 0 3 1 .2.2 0 0 1 .1.3.2.2 0 0 1-.2.1 30.3 30.3 0 0 1-3-1Zm18.8 1a.2.2 0 0 1 0-.3l1.5-.5 1.6-.6a.2.2 0 0 1 .3 0 .2.2 0 0 1-.1.3l-1.6.6-1.5.5a.2.2 0 0 1-.2 0Zm6-2.3a.2.2 0 0 1 .1-.3l3-1.2a.2.2 0 1 1 .2.4l-3 1.2H91a.2.2 0 0 1-.2-.1Zm-27.7 0-2.8-1.7a.2.2 0 0 1 0-.2.2.2 0 0 1 .2 0 28.5 28.5 0 0 0 2.8 1.6.1.1 0 1 1-.2.2Zm33.7-2.4a.2.2 0 0 1 .1-.3l3-1.3a.2.2 0 0 1 .3.1.2.2 0 0 1-.1.3l-3 1.3H97a.2.2 0 0 1-.2-.1ZM57.7 189l-2.5-2a.2.2 0 0 1 .3-.3l2.5 2a.2.2 0 0 1-.2.3Zm45.1-1.4a.2.2 0 0 1 .1-.3l3-1.3a.2.2 0 1 1 .1.4l-3 1.3a.2.2 0 0 1-.2-.1Zm5.9-2.7a.2.2 0 0 1 0-.3l3-1.5a.2.2 0 1 1 .1.4l-2.9 1.5a.2.2 0 0 1-.2-.1Zm-55.9 0-2.3-2.4a.2.2 0 0 1 0-.3.2.2 0 0 1 .3 0l2.3 2.3a.2.2 0 0 1 0 .3.2.2 0 0 1-.2 0Zm61.6-3a.2.2 0 0 1 .1-.3l2.8-1.6a.2.2 0 0 1 .3 0 .2.2 0 0 1 0 .3l-2.9 1.6-.1.1a.2.2 0 0 1-.2-.1Zm-66-1.8-2.1-2.5a.2.2 0 1 1 .3-.2l2 2.5a.2.2 0 0 1 0 .2Zm71.6-1.4a.2.2 0 0 1 0-.3l2.7-1.7a.2.2 0 1 1 .3.2l-2.8 1.8a.2.2 0 0 1-.2 0Zm5.4-3.5a.2.2 0 0 1 0-.3l2.6-1.9a.2.2 0 1 1 .2.3l-2.6 2a.2.2 0 0 1 0-.1.2.2 0 0 1-.2 0Zm-81-.2-2-2.7a.2.2 0 0 1 0-.3.2.2 0 0 1 .3 0l1.9 2.7a.2.2 0 0 1 0 .2.2.2 0 0 1 0 .1h-.1a.2.2 0 0 1-.2 0Zm86-3.8a.2.2 0 0 1 0-.3l2.5-2a.2.2 0 0 1 .3 0 .2.2 0 0 1 0 .2l-2.5 2.1a.2.2 0 0 1-.2 0Zm-89.7-1.6-1.7-2.8a.2.2 0 0 1 0-.2.2.2 0 0 1 .2 0l1.7 2.7a.2.2 0 0 1 0 .3.2.2 0 0 1-.2 0Zm94.7-2.7a.1.1 0 0 1-.1 0 .2.2 0 0 1 0-.2l2.2-2.4a.2.2 0 0 1 .3 0 .2.2 0 0 1 0 .3l-2.2 2.4a.2.2 0 0 1-.2 0Zm-98-2.8-1.7-2.9a.2.2 0 0 1 .4-.2l1.6 2.9a.2.2 0 0 1 0 .2h-.2a.2.2 0 0 1-.2 0Zm102.4-2h-.1a.2.2 0 0 1 0-.2l2-2.6a.2.2 0 1 1 .2.3 58 58 0 0 1-2 2.6Zm-105.5-3.7-1.5-3a.2.2 0 0 1 .4-.2l1.4 3a.2.2 0 0 1 0 .2h-.1a.2.2 0 0 1-.2 0Zm109.3-1.4h-.1a.2.2 0 0 1 0-.3l1.6-2.8a.2.2 0 1 1 .3.2l-1.6 2.8a.2.2 0 0 1-.2 0Zm-112.1-4.5-1.4-3a.2.2 0 1 1 .4 0l1.3 2.9a.2.2 0 0 1 0 .2h-.2a.2.2 0 0 1-.1 0Zm115.2-1.2a.2.2 0 0 1 0-.2l1.2-3a.2.2 0 0 1 .3 0 .2.2 0 0 1 .1.2l-1.3 3a.2.2 0 0 1-.3 0ZM29 146.7l-1.2-3a.2.2 0 0 1 0-.3.2.2 0 0 1 .3.2l1.2 3a.2.2 0 0 1 0 .2H29a.2.2 0 0 1-.1 0Zm120.3-1.2a.2.2 0 0 1-.2-.3l1-3a.2.2 0 1 1 .4 0l-1 3.2a.2.2 0 0 1-.2 0Zm-122.6-4.7a.2.2 0 0 1-.1-.1l-1.1-3a.2.2 0 0 1 .3-.2l1.1 3a.2.2 0 0 1 0 .3Zm124.3-1.6a.2.2 0 0 1-.2-.2l.6-3.3a.2.2 0 0 1 .2-.1.2.2 0 0 1 .2.2 65 65 0 0 1-.6 3.2.2.2 0 0 1-.1.3Zm-126.5-4.6-1-3a.2.2 0 0 1 .4-.2l1 3a.2.2 0 0 1-.1.3h-.1a.2.2 0 0 1-.2-.1Zm127.4-1.7a.2.2 0 0 1 0-.2l.2-3.2a.2.2 0 0 1 .2-.2.2.2 0 0 1 .2.2 30 30 0 0 1-.2 3.2.2.2 0 0 1-.2.2.2.2 0 0 1-.2 0Zm-129.2-4.3a.2.2 0 0 1-.2-.1l-.9-3.2a.2.2 0 0 1 .4 0l.9 3a.2.2 0 0 1-.1.3Zm129.5-2.3-.1-3.3a.2.2 0 0 1 .2-.2.2.2 0 0 1 .2.2l.1 3.2a.2.2 0 0 1-.1.2.2.2 0 0 1-.3-.1Zm-131.4-4v-.2l-.8-3.3a.2.2 0 0 1 .4 0l.8 3v.2a.2.2 0 0 1-.2.3.2.2 0 0 1-.2 0Zm130.9-2.5-.6-3.2a.2.2 0 1 1 .4 0l.6 3.2a.2.2 0 0 1-.2.2.2.2 0 0 1-.2-.2Zm-132.4-4-.7-3.2a.2.2 0 1 1 .4-.1l.7 3.2a.2.2 0 0 1-.2.2.2.2 0 0 1-.2-.1Zm131-2.2-.9-3a.2.2 0 1 1 .4-.2l1 3.1a.2.2 0 0 1-.2.2.2.2 0 0 1-.2-.1Zm-132.2-4a.2.2 0 0 1-.1-.2l-.6-3.2a.2.2 0 1 1 .4 0l.5 3.2a.2.2 0 0 1-.1.2Zm130.1-2.1-1.2-3a.2.2 0 0 1 .1-.2.2.2 0 0 1 .3 0l1.2 3a.2.2 0 0 1-.1.3.2.2 0 0 1-.3-.1ZM17 103l-.4-3.2a.2.2 0 0 1 .2-.2.2.2 0 0 1 .2.2l.4 3.2a.2.2 0 0 1-.2.2.2.2 0 0 1-.2-.2Zm128.7-1.4-1.5-2.9a.2.2 0 1 1 .3-.2l1.5 3a.2.2 0 0 1-.1.2.2.2 0 0 1-.2-.1ZM16.4 96.8a.2.2 0 0 1-.2-.2l-.2-3.2a.2.2 0 0 1 .2-.2.2.2 0 0 1 .2.2l.2 3.2a.2.2 0 0 1-.2.2Zm126.2-.9-1.7-2.7a.2.2 0 0 1 0-.3.2.2 0 0 1 .3 0c.6.9 1.2 1.8 1.6 2.7a.2.2 0 0 1 0 .3v.1a.2.2 0 0 1-.2 0Zm-3.5-5.4-1.8-2.6a.2.2 0 0 1 0-.3.2.2 0 0 1 .3 0 79 79 0 0 1 1.8 2.7.2.2 0 0 1 0 .2.2.2 0 0 1-.1 0 .3.3 0 0 1-.2 0Zm-123-.2a.2.2 0 0 1-.2-.2V87a.2.2 0 0 1 .2-.2.2.2 0 0 1 .2.2v3.2a.2.2 0 0 1-.1.2Zm119.3-5-2-2.6a.2.2 0 1 1 .4-.2l2 2.5a.2.2 0 0 1 0 .3h-.2a.2.2 0 0 1-.2 0ZM16.1 83.9a.2.2 0 0 1-.2-.2l.2-3.3a.2.2 0 0 1 .2-.1.2.2 0 0 1 .2.2l-.2 3.2a.2.2 0 0 1-.2.2Zm115.3-3.7-2.2-2.4a.2.2 0 1 1 .3-.3l2.1 2.4a.2.2 0 0 1 0 .3.2.2 0 0 1-.2 0ZM16.7 77.4a.2.2 0 0 1-.2-.2l.4-3.2a.2.2 0 0 1 .3-.2.2.2 0 0 1 .1.3l-.4 3.2a.2.2 0 0 1-.2.1Zm110.5-2a.2.2 0 0 1-.1 0l-2.2-2.3a.2.2 0 0 1 0-.3.2.2 0 0 1 .2 0l2.3 2.3a.2.2 0 0 1 0 .3.3.3 0 0 1-.2 0ZM17.8 71.1a.2.2 0 0 1-.2-.3l.7-3.2a.2.2 0 0 1 .3-.1.2.2 0 0 1 .1.2L18 71a.2.2 0 0 1-.2.2Zm105-.3a.2.2 0 0 1-.1 0l-2.4-2.3a.2.2 0 0 1 0-.2.2.2 0 0 1 .3 0l2.4 2.2a.2.2 0 0 1 0 .3.2.2 0 0 1-.2 0Zm-4.8-4.4-2.5-2.2a.2.2 0 0 1 0-.3.2.2 0 0 1 .3 0l2.4 2.1a.2.2 0 0 1 0 .3.2.2 0 0 1-.2 0Zm-98.6-1.6a.2.2 0 0 1-.2-.2l1.1-3.1a.2.2 0 0 1 .3-.1.2.2 0 0 1 0 .2l-1 3a.2.2 0 0 1-.2.2Zm93.6-2.7-2.6-2a.2.2 0 0 1 .3-.3l2.5 2a.2.2 0 0 1 0 .3.2.2 0 0 1-.1 0 .2.2 0 0 1-.1 0Zm-91.4-3.4a.2.2 0 0 1 0-.2l1.4-3a.2.2 0 1 1 .4.3c-.6.9-1 1.9-1.5 2.9a.2.2 0 0 1-.3 0Zm86.4-.6-2.7-1.9a.2.2 0 0 1 .2-.3c1 .6 1.8 1.3 2.7 2a.2.2 0 0 1-.2.2Zm-5.4-3.7-2.6-1.8a.2.2 0 0 1 .2-.3l2.7 1.7a.2.2 0 0 1 0 .3.2.2 0 0 1-.1.1.1.1 0 0 1-.2 0Zm-77.8-1.2h-.1a.2.2 0 0 1 0-.3c.6-1 1.2-1.8 1.9-2.6a.2.2 0 1 1 .3.3 27.3 27.3 0 0 0-2 2.6.2.2 0 0 1-.1 0Zm72.5-2.3Zm0 0a47 47 0 0 0-2.8-1.6.2.2 0 1 1 .2-.4l2.7 1.7a.2.2 0 0 1 0 .2.2.2 0 0 1 0 .1Zm-68.5-2.7a.2.2 0 0 1-.1-.3l2.4-2.3a.2.2 0 0 1 .2.3 30 30 0 0 0-2.3 2.2.2.2 0 0 1-.1 0Zm62.9-.5h-.1l-2.9-1.5a.2.2 0 0 1 0-.3.2.2 0 0 1 .3-.1l2.8 1.5a.2.2 0 0 1 0 .2.2.2 0 0 1 0 .2Zm-5.8-3-3-1.3a.2.2 0 0 1 0-.2.2.2 0 0 1 .2-.1l3 1.3a.2.2 0 0 1-.1.4ZM33.5 44a.2.2 0 0 1 0-.3l2.7-1.8a.2.2 0 0 1 .2.4c-.9.5-1.8 1-2.7 1.7a.2.2 0 0 1-.2 0ZM80 42.2l-3-1.1a.2.2 0 0 1-.1-.3.2.2 0 0 1 .2-.1l3 1.1a.2.2 0 1 1 0 .4Zm-41-1.6a.2.2 0 0 1 .2-.3l3-1.2a.2.2 0 0 1 .2.1.2.2 0 0 1 0 .3c-1.1.3-2.1.8-3 1.2h-.2a.2.2 0 0 1-.1-.1Zm35-.6-3.2-.8a.2.2 0 0 1-.1-.3.2.2 0 0 1 .2-.1l3.2.9a.2.2 0 1 1 0 .3Zm-29-1.6a.2.2 0 0 1 .2-.3l3.2-.7a.2.2 0 0 1 .2.1.2.2 0 0 1-.1.3l-3.2.7a.2.2 0 0 1-.3-.1Zm22.6 0-3.2-.6a.2.2 0 0 1-.2-.3.2.2 0 0 1 .3-.1l3.2.6a.2.2 0 0 1 .1.2.2.2 0 0 1-.2.2Zm-16.2-1a.2.2 0 0 1 0-.2.2.2 0 0 1 0-.2l3.3-.3a.2.2 0 0 1 .2.2.2.2 0 0 1-.2.2 30.6 30.6 0 0 0-3.2.3.2.2 0 0 1-.1 0ZM58 37a.2.2 0 1 1 0-.4 31 31 0 0 1 3.2.3.2.2 0 0 1 .2.2.2.2 0 0 1-.2.2c-1-.2-2.2-.2-3.2-.3Z"/>
    <path fill="#d1cdd3" d="M151.6 127.7v.5c-.4 4.5-4.3 14.1-8.1 22.6l.2 8v1.2h-.4l.3 9.5a171 171 0 0 1-49.2 17.7l-3 .7a31 31 0 0 1-8.2.8 6.8 6.8 0 0 1-.2-2.1 218.8 218.8 0 0 1 2.8-27.1l-1-.2a227 227 0 0 0 6.5-45.6l.3-5.3-4 3.8-5-8.1c-6 4.4-11.8 8.3-14.6 10.1-2.4 2.2-6.3 2.5-9.5-1.6-5-6.6-12.2-34.4-13-39.2a1.2 1.2 0 0 1-.3-.1C44 71.6 39.9 62.9 40.3 61s2.3-5.4 4.5-5.9l-1-2.7c-.9-2.6-2-5.1-.3-4.8s5.5 9.6 6.2 11.2l.1-1.3c.6-1.5 3.3-2.4 2.9 0-.5 3.2.6 4.8.6 7.5v.5a2.2 2.2 0 0 1 0 .3.9.9 0 0 1 0 .2v.1a19.6 19.6 0 0 1-2 5.7 227 227 0 0 0 14.4 29 332 332 0 0 1 10.2-8l-.3-.6s19-17.9 29-19.2a27.6 27.6 0 0 0 .5-5.5c-7.3 0-8-5.4-7.2-12.2l-1.2-.3 1.7-4.4v-.3a1.3 1.3 0 0 1-.3-.8c0-.5.2-1 .5-1a9.6 9.6 0 0 1 .3-1.2l.4-2.4a3.4 3.4 0 0 0-1.3 0l-.1-.8a4.6 4.6 0 0 1 1.6 0 21.7 21.7 0 0 1 2.6-6c-2.4-.3-3.5-1-1.8-2.9 2.5-2.9 14.3-4.3 20.3-3.1 2 .4 3.4 1.2 3.4 2.3v.3a3.5 3.5 0 0 0 1.6-1.2l.6.5a4.5 4.5 0 0 1-1.5 1.3l-.2.1C131 39.7 122 62 121.8 62a215 215 0 0 0-.2 10.2c5.7.7 9.3 2.4 11.7 5 6.5 5.2 16.4 26.4 16.4 26.4l-4 1a433 433 0 0 1 6 21.7 5.5 5.5 0 0 1-.1 1.4Z"/>
    <rect width="107.9" height="84.2" fill="#4d8dff" opacity=".3" rx="33.6" transform="rotate(180 60.8 46)"/>
    <path fill="#4d8dff" d="M13 99.6a12.9 12.9 0 0 1-12.8-13V13.2A12.9 12.9 0 0 1 13 0h101.5a12.9 12.9 0 0 1 12.9 13v73.5a12.9 12.9 0 0 1-13 13Z" opacity=".3"/>
    <g fill="#4d8dff" opacity=".3" transform="translate(22.7 18.6)">
      <rect width="18" height="14.1" rx="5.6" transform="rotate(180 9 7)"/>
      <rect width="18" height="14.1" rx="5.6" transform="rotate(180 21 7)"/>
      <rect width="18" height="14.1" rx="5.6" transform="rotate(180 33 7)"/>
      <rect width="18" height="14.1" rx="5.6" transform="rotate(180 45 7)"/>
    </g>
    <g fill="#4d8dff" opacity=".3" transform="translate(22.7 42.8)">
      <rect width="18" height="14.1" rx="5.6" transform="rotate(180 9 7)"/>
      <rect width="18" height="14.1" rx="5.6" transform="rotate(180 21 7)"/>
      <rect width="18" height="14.1" rx="5.6" transform="rotate(180 33 7)"/>
      <rect width="18" height="14.1" rx="5.6" transform="rotate(180 45 7)"/>
    </g>
    <g fill="#4d8dff" opacity=".3" transform="translate(22.7 67)">
      <rect width="18" height="14.1" rx="5.6" transform="rotate(180 9 7)"/>
      <rect width="18" height="14.1" rx="5.6" transform="rotate(180 21 7)"/>
      <rect width="18" height="14.1" rx="5.6" transform="rotate(180 33 7)"/>
      <rect width="18" height="14.1" rx="5.6" transform="rotate(180 45 7)"/>
    </g>
    <rect width="18" height="14.1" fill="#4d8dff" rx="5.6" transform="rotate(180 45.5 15.2)"/>
    <rect width="18" height="14.1" fill="#ff4e4a" rx="5.6" transform="rotate(180 45.5 39.4)"/>
    <rect width="18" height="14.1" fill="#ffc84d" rx="5.6" transform="rotate(180 21.5 27.3)"/>
    <path fill="#ffad69" d="M134.3 48c-.6 3.6-1.7 22.6-1.2 27s-21 5.7-18.1.8.8-21 .8-21Z"/>
    <path fill="#d88344" d="m132.8 48.6-17 6.2a88.2 88.2 0 0 1 .4 16c7-2.9 5.5-8.7 5.5-11.9 0-2.9 11-9.7 11-10.3Zm-22.4.7-2.6 5.7 3.2 1.3-.6-7Z"/>
    <path fill="#ffad69" d="M110.3 47.5c-1.6 10.8-4.2 21.6 9 19.8s15.1-18.6 15.1-21.8c-.2-17-21-19.3-24 2Z"/>
    <path fill="#232323" d="M136 35.6a5 5 0 0 0 1.7-1.5l-.7-.4a3.7 3.7 0 0 1-1.6 1.2 2.2 2.2 0 0 0 0-.3c0-4.4-20.4-3.2-23.7.8-2 2.3 0 2.9 3.5 2.8a1.6 1.6 0 0 0-.5.8c-2.3 11 8.4 22 9.7 23h8.7s9.2-22.3 2.9-26.4Z"/>
    <path fill="#ffad69" d="M163 126.3c-1-5.2-7.1-27.5-12-38.3l-12.2 2.6s8 26.5 12.1 36.4c-1 5.3-6 30-9 37-1.3 3.2 3.8 4.4 5 2.9s15.4-29.9 16.1-38.7v-.5a4.3 4.3 0 0 0 0-1.4Z"/>
    <path fill="#e5aa33" d="M144.7 77.1c6.4 5 16.4 26.5 16.4 26.5l-21.1 5.5s-12.3-45.3 4.7-32Z"/>
    <path fill="#232323" d="M154.8 161.4a72 72 0 0 1-11.1 8 171 171 0 0 1-49.3 17.8 4.1 4.1 0 0 1 0-.6c.6-10 1.6-21.4 3.3-28.6l46 .9 11 .2v2.3Z"/>
    <path fill="#ffc84d" d="M129.2 72c12.7.4 17 4.7 19.1 12 2.5 8.4 6.9 59.1 6.9 76 0 0-38 2.8-59-.7 6.7-22.2 7.4-62.2 7.5-74.1.1-9 9.5-13.8 25.5-13.2Z"/>
    <path fill="#fff" d="m130.8 80.7-3.4-4.6a1.2 1.2 0 0 1 1-2h5.2a1.2 1.2 0 0 1 1.1 1.7l-1.8 4.5a1.2 1.2 0 0 1-1 .8h-.2a1.2 1.2 0 0 1-1-.4Z"/>
    <path fill="none" d="M110.6 49.5c0 .5-.1 1-.4 1s-.6-.4-.6-1 .2-.9.4-1 .6.5.6 1Zm2-3.2a3 3 0 0 0-3.1-1.3l-.2-.8a3.8 3.8 0 0 1 4 1.7Z"/>
    <path fill="#e5aa33" d="M103.7 88.1c-.1 5.9-.3 15.2-1 25.6 5.4-6.4 10.7-14 11-19.8.4-7.8-4-8.3-10-5.8Z"/>
    <path fill="#ffad69" d="m110.8 90.8-6.4-10.7S86.6 93 77 100.8a233.6 233.6 0 0 1-14.5-29 19.3 19.3 0 0 0 2-5.7v-.3a2 2 0 0 0 0-.3V65c0-2.6-1-4.2-.6-7.5.4-2.3-2.3-1.5-2.8 0L61 59c-.7-1.7-4.6-11.1-6.2-11.3s-.5 2.3.4 4.8l1 2.8c-2.2.5-4.2 4.3-4.5 5.9s3.7 10.5 4.8 12a1.2 1.2 0 0 0 .3.4c.9 4.7 8 32.5 13 39.1 3.2 4.1 7.2 3.8 9.5 1.6a266 266 0 0 0 31.5-23.4Z"/>
    <path fill="#ffc84d" d="M121.7 80.1c-.6 11.8-22.6 32.1-22.6 32.1L87 92.2s36-33.6 34.8-12Z"/>
    <path fill="#ffad69" d="M115 50.8c-.6 2.9-1.3 5.7 1.4 5.5s3.3-4.7 3.4-5.5c.2-4.5-4-5.6-4.9 0Z"/>
  </g>
</svg>