<svg xmlns="http://www.w3.org/2000/svg" xmlns:xlink="http://www.w3.org/1999/xlink" viewBox="0 0 234.3 221.6">
  <defs>
    <linearGradient id="d" x2="1" y1=".5" y2=".5" gradientUnits="objectBoundingBox">
      <stop offset="0" stop-color="#d2d1cd"/>
      <stop offset="1" stop-color="#abafb8"/>
    </linearGradient>
    <linearGradient id="a" x1=".8" x2="-.2" y1="1.1" y2="-.8" gradientUnits="objectBoundingBox">
      <stop offset="0" stop-color="#0e218a"/>
      <stop offset="1" stop-color="#1f72d2"/>
    </linearGradient>
    <linearGradient xlink:href="#a" id="e" x1=".8" x2=".3" y1="2.3" y2="-1"/>
    <linearGradient xlink:href="#a" id="f" x1=".6" x2=".5" y1="2.6" y2="-.2"/>
    <linearGradient id="b" x2="1" y1=".5" y2=".5" gradientUnits="objectBoundingBox">
      <stop offset="0" stop-color="#fea235"/>
      <stop offset="1" stop-color="#ffb44f"/>
    </linearGradient>
    <linearGradient xlink:href="#b" id="g" x1=".5" x2=".6" y1="-.5" y2="-.5"/>
    <linearGradient id="c" x1="2.1" x2="3.1" y1=".7" y2=".7" gradientUnits="objectBoundingBox">
      <stop offset="0" stop-color="#f6462e"/>
      <stop offset="1" stop-color="#fb7d42"/>
    </linearGradient>
    <linearGradient xlink:href="#a" id="h" x1=".8" x2=".2" y1="1.4" y2="-.4"/>
    <linearGradient xlink:href="#a" id="i" x1=".7" x2="-.1" y1=".9" y2="-1.2"/>
    <linearGradient id="j" x1=".7" x2=".1" y1=".8" y2=".1" gradientUnits="objectBoundingBox">
      <stop offset="0" stop-color="#caf0db"/>
      <stop offset="1" stop-color="#f8f7db"/>
    </linearGradient>
    <linearGradient xlink:href="#a" id="k" x1=".5" x2=".4" y1=".9" y2="0"/>
    <linearGradient id="l" x2="1" y1=".5" y2=".5" gradientUnits="objectBoundingBox">
      <stop offset="0" stop-color="#237c8f"/>
      <stop offset="1" stop-color="#2abdd1"/>
    </linearGradient>
    <linearGradient xlink:href="#c" id="m" x1="0" x2="1" y1=".5" y2=".5"/>
    <linearGradient xlink:href="#a" id="n" x1=".6" x2=".5" y1="2" y2="-.2"/>
  </defs>
  <path fill="#fff" d="M193.1 79.1a18.6 18.6 0 0 0-17.6-3.5c.6-1.8 1.5-3.5.7-5.5s-3-3.2-5-3.8a11.6 11.6 0 0 0-10.4 1.7c-1-4.8-5.1-9-10.5-8.7-5.6.2-9.5 5.3-9.7 10.6a15.8 15.8 0 0 0-9.1-.1c-2.5.8-3.2 3.4-5.1 4.2-2.5 1.1-5.4-.9-7.7 1.5a3.4 3.4 0 0 0-.9 3.5 7.4 7.4 0 0 0 2 2.3h72.5a1.1 1.1 0 0 0 1.4-.1 1.1 1.1 0 0 0-.6-2ZM60.8 110.7h-.1a15 15 0 0 0-14.1-2.8c.5-1.5 1.2-3 .5-4.5-.6-1.7-2.4-2.6-4-3a9.3 9.3 0 0 0-8.3 1.3c-.9-3.9-4.2-7.2-8.5-7-4.5.2-7.7 4.3-7.8 8.5a12.8 12.8 0 0 0-7.4 0c-2 .6-2.6 2.7-4 3.3-2.1 1-4.5-.7-6.3 1.3a2.8 2.8 0 0 0-.7 2.7 6 6 0 0 0 1.7 2H60a1 1 0 0 0 1.1-.2.9.9 0 0 0-.4-1.6Z"/>
  <path fill="#faaf9a" d="m137.8 163.2-6 9.1-7.7-3.2 4.2-9.9Z"/>
  <path fill="#1e1916" d="M125.9 169c.5.5 3.2.9 6 1.6 1.4.4 1.9-.4 1.9-.4l-1.3 7.2c-.3 2.8 5.7 10.7 6.7 12.9s-1 3.8-1 3.8l-20.5-14.9c3.7-6.3 6-11 6-11a3 3 0 0 1 2.2.9Z"/>
  <path fill="#e8e5e6" d="m122.7 180.7-.4-.3a6.6 6.6 0 0 0 .2-7.5l.4-.3a7.2 7.2 0 0 1-.2 8Z"/>
  <path fill="url(#d)" d="m890.3 554.7-20.5-15 1.2-2 20.6 15a3.8 3.8 0 0 1-1.3 2Z" transform="translate(-752.1 -360.5)"/>
  <path fill="#e8e5e6" d="M130.5 171a38.2 38.2 0 0 1-1.5 5c-.8 1.9 2.5 5.6 3 6l2.8 1-.2.5-3-1v-.1c-.2-.2-4-4.3-3-6.7a46.6 46.6 0 0 0 1.6-5Z"/>
  <path fill="#e8e5e6" d="m130.4 179.6.2-.4 2.6.8-.1.5zm-.8-2.6.1-.4 2.7.8-.1.5z"/>
  <path fill="url(#a)" d="M911.7 396a220 220 0 0 1-4.6 23.1l-4.4 18s-16.3 0-25.2-11c0 0 8-22.2 10-28.8s25.5-11.6 24.2-1.3Z" transform="translate(-757 -265.2)"/>
  <path fill="url(#e)" d="M857.3 377a13.6 13.6 0 0 1-.8 3.8 9 9 0 0 1-2.7 4c-9.5 7.4-49-.8-54.2-4-15-9.2-.4-20.2 5.6-20.8a315.3 315.3 0 0 1 39.6 2.8 26.3 26.3 0 0 1 5.2 1.4c5.6 2.4 7.7 8 7.3 12.9Z" transform="translate(-702.6 -245.7)"/>
  <path fill="#1e1916" d="m130.4 132.3-25.6-7.8.2-.5 25.5 7.9a2.8 2.8 0 0 1 1.8 1.4c1.7 3.4-1.4 11.3-5.2 21.3l-3.5 9.2-.4-.2 3.4-9.2c3.7-9.5 6.8-17.7 5.3-20.8a2.3 2.3 0 0 0-1.5-1.3Zm13.9 21.7a97.3 97.3 0 0 0 1.2 16.5h-.5a97.8 97.8 0 0 1-1.2-16.4Z"/>
  <path fill="#faaf9a" d="M170.7 57.6c-.1-1.2.6-2.4 0-3.5a6 6 0 0 1-1-2.4 17.5 17.5 0 0 0 5.6-1.7c1.2-.8.7-1.4 0-1.3-1.7.2-5.6.3-7.5 1a22 22 0 0 0-6.4 3.5c-1 1.1-.2.6-3.4 2.3-5.2 3.5-23 6.8-25 8-6.4 4.3-.5 15 6.5 12.8a74 74 0 0 0 20.7-16c2-2.4 5.8.4 7.4 0s3.2-1.5 3.1-2.7Z"/>
  <path fill="url(#f)" d="M824.7 224.3c6 1.8 18.3 6 28.7 4.6 0 0 6.3-16-2-25.2 0 0-27-.3-32.8.8s0 18 6 19.8Z" transform="translate(-717.5 -144.8)"/>
  <path fill="url(#b)" d="m850.7 357.6-40.5 30.9-42.3 32.1-5 3.8-6.2 4.8h-.1l-.8.7-6-7.8-1.9-2.6-.1-.1.9-.7 9.7-7.5 4.1-3 39.4-30 40.8-31.1Z" transform="translate(-673.3 -237.4)"/>
  <path fill="#e5974c" d="m162.4 100.5 7 9.2L74.5 182l-7-9.3z"/>
  <path fill="url(#g)" d="M0 0h119.3v12.4H0z" transform="rotate(-37.3 272.5 -7.8)"/>
  <path fill="url(#c)" d="m661.4 557.3-18-23.8a3.1 3.1 0 0 1 .5-4.3l12.2-9.3a3.1 3.1 0 0 1 4.4.6l18 23.7a3.1 3.1 0 0 1-.5 4.4l-12.2 9.3a3.1 3.1 0 0 1-4.4-.6Z" transform="translate(-605.5 -348.6)"/>
  <path fill="url(#d)" d="m709.6 527.4-9.2 7a1.9 1.9 0 0 1-2.6-.4l-.4-.5-21.8-28.7-.4-.5a1.9 1.9 0 0 1 .3-2.7l9.2-7a1.9 1.9 0 0 1 2.6.4l.2.2 7 9.3.5.6 6.6 8.6 8 10.5.3.5a2 2 0 0 1 .2.4 1.9 1.9 0 0 1-.5 2.3Z" transform="translate(-626.2 -332.5)"/>
  <path fill="#faaf9a" d="m177.4 120.2-22-29 17.7-2.3 15-1.9a2 2 0 0 1 2 2.8l-5.8 13.8Z"/>
  <path fill="#1e1916" d="M184.3 103.6 173.1 89l15-1.9a2 2 0 0 1 2 2.8Z"/>
  <path fill="#200c0e" d="M94.6 183.2 93 181a1.7 1.7 0 0 1 0 .3 3.6 3.6 0 0 0-3.8 2.2 5.1 5.1 0 0 0 .1 2.6l.2.1-.1.2.2.7-6.2 4.8.3.5a2 2 0 0 1 .2.3l-.7-.7-6.6-7.2-2.2-2.3.2-.2.1-.2.7-.7.6-.6a57.7 57.7 0 0 1 9.1-6.9l2.7-1.5 1.5-.9a34.2 34.2 0 0 1-.3-2.2l16.2-11.8c-3.1-2-6-4-8.6-6l-.6-.4c-3.3-2.4-5.9-4.5-7-5.4a15.4 15.4 0 0 1-2.3-2.2c-7.9-9.5-4.2-27.7 7.1-25.8a44 44 0 0 1 17 7.5 86.5 86.5 0 0 1 9.5 7.5l.5.4c3 2.7 5.5 5.4 7.7 7.8 2.8 3 4.9 5.5 6 6.8a12.6 12.6 0 0 1 2.3 3.5Z" opacity=".2"/>
  <path fill="url(#h)" d="M764.7 364.6c18.8 3.1 36.3 25 40.7 29.9 6.8 7.4 1.7 17.2-4.6 18.7-11.8 2.7-36.4-17-41-20.7-10.7-8.5-7.4-30 5-28Z" transform="translate(-677 -248.6)"/>
  <path fill="#faaf9a" d="M94.2 175 84 179.1l-4.5-7 9-5.8Z"/>
  <path fill="#1e1916" d="M82.6 172.9c0 .6-1.3 2.2 1.5 3.3a4 4 0 0 1 2.9 3.3 3.6 3.6 0 0 0-3.8 2.2c-1 2.7 3.6 11.6 4.2 14s-1.8 3.5-1.8 3.5l-17.3-18.5c4.9-5.5 13.4-10.1 13.4-10.1a3 3 0 0 1 .9 2.3Z"/>
  <path fill="#e8e5e6" d="m73 183-.4-.3a6.6 6.6 0 0 0 1.7-7.3l.4-.2a7.2 7.2 0 0 1-1.7 7.9Z"/>
  <path fill="url(#d)" d="m747.8 563-17.4-18.5 1.6-1.7 17.4 18.6a3.8 3.8 0 0 1-1.6 1.6Z" transform="translate(-662.1 -363.8)"/>
  <path fill="#e8e5e6" d="M84.3 177.6s-3 .2-4.2 2c-1.2 1.8 1.4 6 1.7 6.5l2.6 1.6-.3.5-2.7-1.7c-.1-.2-3.2-5-1.7-7.1 1.4-2.1 4.4-2.3 4.6-2.3Z"/>
  <path fill="#e8e5e6" d="m80.7 183.5.3-.4 2.4 1.3-.2.5zm-.3-2.6.2-.5 2.5 1.3-.2.5z"/>
  <path fill="url(#i)" d="M817 469.3a220 220 0 0 1-16.8 16.5l-13.8 12.5S773 489 771.7 475c0 0 19.2-13.8 24.6-18.2s27.5 4.7 20.7 12.5Z" transform="translate(-688.8 -307.5)"/>
  <path fill="#1e1916" d="M111.7 144.2a2.5 2.5 0 0 1 .5 2c-.7 5.4-15.3 16-27 24.6l-1.1.8-.3-.4 1.1-.8c11.7-8.5 26.2-19 26.8-24.3a2 2 0 0 0-.4-1.6c-3.6-4.4-21.3-7.3-21.5-7.3v-.5c.8 0 18.2 3 22 7.5Zm-3.3 22.9v.5a55 55 0 0 0-11.9 3.2l-.2-.5a55.6 55.6 0 0 1 12-3.2Zm21.7-8.1c1-1.6 2.8-4.6-.4-9l.4-.2c3.3 4.5 1.4 7.9.5 9.5l-.3.5a154 154 0 0 1-9.5 10.4l-.4-.4a163.2 163.2 0 0 0 9.7-10.8ZM83 134.7a21.9 21.9 0 0 0 9-7.7l-.3-.2a21.5 21.5 0 0 1-8.8 7.5Z"/>
  <path fill="url(#j)" d="M777.4 216c2.2 10.1 1 36.2 4 40.4 0 0-.6 1.7-4.2 1.7-13.1 0-30 30-38 19.6-7.5-9.8-7.8-64.2 2.4-71 10.5-6.9 31.7-9 35.8 9.3Z" transform="translate(-664.3 -143.5)"/>
  <path fill="url(#k)" d="M777.9 256.4c-3-4.3-3.8-30-6-40.1-2-9.3-8.5-13.5-15.7-14.4a94.5 94.5 0 0 1 2 28.7s-9-19.7-14.1-27.4a47.6 47.6 0 0 0-10 4.3c-10.3 6.8-10 64.5-7.5 76.5 10.4 5.3 27-11.4 39.6-17.7l-1.9-16.7s8.6 9.8 8.9 9.8a4.9 4.9 0 0 0 4.7-3Z" transform="translate(-658.7 -143.7)"/>
  <path fill="#1e1916" d="M115.6 107.5a67.7 67.7 0 0 1-1-11.4 278 278 0 0 0-1.7-21.6h.5c0 .1 1.8 16.4 1.7 21.6a67.2 67.2 0 0 0 1 11.3Z"/>
  <path fill="#faaf9a" d="m97.1 51.7-1 8.5c-.4.8-2.6 5-10.6-.6l2-12.3a88.6 88.6 0 0 0 9.6 4.4Z"/>
  <path fill="#ed7662" d="M96.1 60s-7-.8-9-6l.1-3.5c4.9 3.3 8 3.9 9.2 6.4.3.6-.2 2.4-.3 3Z"/>
  <path fill="#faaf9a" d="M97.4 57.1c-2.7.9-8.7-1.2-10.6-3.3a9 9 0 0 1-1.3-4.4c0-3.8 0-7.3 2.3-9.1 1-.8 4-1.4 5.2-1.5 3.7-.4 5.3 2.2 6.4 5.8 1.3 4 2.7 11-2 12.5Z"/>
  <path fill="#1e1916" d="m97.3 50.6-.3-.4c.5-.3 1.2-.9 1.2-1.2a5 5 0 0 1-2-3.4 2.4 2.4 0 0 1 2.3-1.5v.5a2 2 0 0 0-1.8 1 4.6 4.6 0 0 0 1.7 3 .6.6 0 0 1 .3.5c0 .7-1.2 1.5-1.4 1.6Z"/>
  <path fill="#faaf9a" d="M87.6 49.1a2.6 2.6 0 1 1-3.3-1.7 2.6 2.6 0 0 1 3.3 1.7Z"/>
  <path fill="#1e1916" d="M85.4 51.8a1.5 1.5 0 0 1-1-.1l.2-.4s.6.2.8 0l-.2-.4c-.2-.2-.6-.6-.3-1a2.3 2.3 0 0 1 .2-.3l.2-.4c0-.1 0-.2-.2-.2a1 1 0 0 0-1 0l-.3-.3a1.5 1.5 0 0 1 1.6-.1.7.7 0 0 1 .4.5 1 1 0 0 1-.3.8 2 2 0 0 0-.2.2c-.1.1 0 .2.2.5.2.2.5.6.2 1a.7.7 0 0 1-.3.2ZM98 52a6 6 0 0 1-2.7.4v-.5a6.7 6.7 0 0 0 3.8-1l.2.4a7.5 7.5 0 0 1-1.3.7Zm-6.6-5-.4-.3c2-2 3.2-1 3.2-1l-.3.3.2-.2-.2.2s-.8-.7-2.5 1Zm7.1 20.2v-.4c3-.3 4.2-3.3 4.3-3.4l.4.2a6.1 6.1 0 0 1-4.7 3.6Zm4.7 47.6s-12.3-4.6-15.1-13l.4-.1c2.8 8.2 14.8 12.6 14.9 12.7Z"/>
  <path fill="#1e1916" d="m87.5 46 .3 3.2a3.4 3.4 0 0 1-1 .2c-1-3-3.3-1.6-3.3-1.6-3.3-2.8-2-9.5.7-10 0 0 1-4.3 7-4.4s6.5 3.4 6.5 3.4 1.7.1 2.4 2.8a14.7 14.7 0 0 1-.3 6l-.8-2.2s-5.5 1-9.4-1.5a4.1 4.1 0 0 1-2 4.2Z"/>
  <path fill="#1e1916" d="M93.9 47.5a.8.8 0 1 1-1-.4.8.8 0 0 1 1 .4ZM99 46a.8.8 0 1 1-1-.4.8.8 0 0 1 1 .5Z"/>
  <path fill="url(#b)" d="M838.1 249.4a10.4 10.4 0 0 0-5.1.2 35.5 35.5 0 0 1 .1 4.2l2.1 1.7 2.3-1.6a16 16 0 0 0 .6-4.5Z" transform="translate(-728.3 -174.2)"/>
  <path fill="url(#l)" d="M663 389.3a9.6 9.6 0 0 1 1.7 2.6s3 36.5-3 52.9l-3.1-5.3s6.5-23.8 4.4-50.2Z" transform="translate(-615.7 -264.6)"/>
  <path fill="#1e1916" d="M46.2 124.9s.5.3 1.5 2.3c0 0 2.3 34.9-2 51.1l-4-3.1s6.5-23.8 4.5-50.3Zm-14.4 19.5s5.2-21.8 10-20.5.2 4 .2 4-7.1 8.7-6.2 18.6-4-2-4-2Z"/>
  <path fill="url(#l)" d="M625.6 404.4s5.7-22 10.5-20.7.1 4 .1 4-7.5 8.8-6.6 18.7-4-2-4-2Z" transform="translate(-594.4 -261)"/>
  <path fill="url(#l)" fill-rule="evenodd" d="M580.8 440.5A18.9 18.9 0 0 0 567 461l3.3 22.2a4.2 4.2 0 0 0 5.2 3.5l23.3-5.8a5.3 5.3 0 0 0 3.8-5.8l-3.2-22.1a14.9 14.9 0 0 0-18.6-12.6Z" transform="translate(-556.5 -297.4)"/>
  <path fill="url(#m)" fill-rule="evenodd" d="M571 462.3a14.4 14.4 0 0 0-10.5 15.8l2.4 17a3.2 3.2 0 0 0 4 2.6l17.8-4.4a4 4 0 0 0 3-4.4l-2.5-17a11.4 11.4 0 0 0-14.2-9.6Z" transform="translate(-552.3 -311.6)"/>
  <path fill="#fff" fill-rule="evenodd" d="M17.9 154.7a6.5 6.5 0 0 0-4.7 7l.3 2.1a1.4 1.4 0 0 0 1.8 1.2l8-2a1.8 1.8 0 0 0 1.3-2l-.3-2a5.1 5.1 0 0 0-6.4-4.3Z"/>
  <path fill="#1e1916" fill-rule="evenodd" d="M34.2 147a15 15 0 0 0-10.5-2.4l-1.6.3a17.2 17.2 0 0 0-4.5 1.9c-1.5.8-4.5 4.7-4.5 4.7a20.6 20.6 0 0 1 4.8-4 16.5 16.5 0 0 1 4.4-1.8l1.5-.3A14 14 0 0 1 39.7 156l.3 1.5h.7l-.3-1.7a15 15 0 0 0-6.2-9Z"/>
  <path fill="#1e1916" d="m29.7 179.8-14.6 3.6a2.2 2.2 0 0 1-2.6-1.8 192 192 0 0 1-.8-10 2.1 2.1 0 0 1 1.6-2.1l15.1-4a1.6 1.6 0 0 1 1.3.2 1.6 1.6 0 0 1 .7 1l1.3 10.3a2.6 2.6 0 0 1-2 2.8Zm-1.2-14L13.4 170a1.6 1.6 0 0 0-1.2 1.7c.1 2.8.3 6.4.7 9.9A1.7 1.7 0 0 0 15 183l14.6-3.6a2.1 2.1 0 0 0 1.6-2.3L30 166.8a1.1 1.1 0 0 0-.5-.8 1.1 1.1 0 0 0-.9-.1Z"/>
  <path fill="#faaf9a" d="m48.2 124.5-5.4-3c0-.3 2.7-29.6 4.2-31.8 3-4.3 8-6.3 10.9-4.8.2 0 .2.1.3.2l.5.3a5.7 5.7 0 0 1 .8.7l.3.3.2.4.2.2.1.2a10.9 10.9 0 0 1-.2 10.9l-1.2 3a382.8 382.8 0 0 1-8 17.6l-2.6 5.6-.1.2Z"/>
  <path fill="#faaf9a" d="m47.9 132.3 1.3-1.7c.5-.7.7-1.3.2-2.7s-.2-4.3-1.4-5.1-5-3.7-7.7-.8-3 9.3-.7 8c0 0-.3 2.5 2 1.8 0 0 .9 2.7 2.7 1.1 0 0 1.4 3.5 3.6-.6Z"/>
  <path fill="#1e1916" d="M44.3 133a6.6 6.6 0 0 0 .9-1.4 6.5 6.5 0 0 0 .5-1.5 6.4 6.4 0 0 0-.9 1.3 6.5 6.5 0 0 0-.5 1.5Zm-2.7-1.2a15.4 15.4 0 0 0 1-1.8l1-2a5.4 5.4 0 0 0-.7.9 10.2 10.2 0 0 0-.5 1 9.4 9.4 0 0 0-.8 2Zm-2-1.8.4-1.3.3-.7.2-.7a3 3 0 0 0-.8 1.2 3.6 3.6 0 0 0-.2.8 2.4 2.4 0 0 0 0 .7Z"/>
  <path fill="url(#n)" d="M708.3 216.4c-1.8-2.7-6.1-6-12.3-3s-19.3 11.4-27 20c0 0 8.8 14.8 21.8 11.7 0 0 12-10.3 16-15.4s3.4-10.3 1.5-13.3Z" transform="translate(-622.5 -150.3)"/>
  <path fill="#1e1916" d="M59 81.9a11 11 0 0 1 5.3-11.5l.2.4a10.5 10.5 0 0 0-5 11Z"/>
  <path fill="#1e1916" d="M46.2 83.1c.2-.2 19-20.4 32-21v.5c-12.9.5-31.4 20.7-31.6 20.9Zm22 11.6L80.8 83l.3.3L68.5 95z"/>
</svg>