<svg xmlns="http://www.w3.org/2000/svg" viewBox="0 0 244 257.7">
  <g opacity=".6" style="mix-blend-mode:multiply;isolation:isolate">
    <path fill="#2dcbd0" d="M225.3 80.4a13.6 13.6 0 0 0 8.3-16.3 62.2 62.2 0 0 0-7-17.5 106 106 0 0 0-23-23.6A115 115 0 0 0 142.2.3c-44.1-3-94 18.4-112.7 60.4A145 145 0 0 0 18.2 100c-1.3 9.6-2 25.2-.6 33a1.6 1.6 0 0 0 0 .1c1.7 9 7.3 14.5 15.9 11.3 12.3-4.6 31-11.4 49.9-16.7 29.1-8.3 61.5-18.6 69.4-21.4a8210 8210 0 0 0 72.5-25.9Z"/>
    <path fill="#063f58" d="M128.1 66a19.8 19.8 0 0 1-5.7-1 14.1 14.1 0 0 1-4.9-2.4 8 8 0 0 1-3-5.1 1.6 1.6 0 1 1 3.2-.5 4.9 4.9 0 0 0 1.8 3 11 11 0 0 0 3.8 2c2.3.6 6.6 1.5 10.1-.6a1.6 1.6 0 0 1 1.7 2.7 13.3 13.3 0 0 1-7 1.8Zm-19.5-11a1.6 1.6 0 0 1-1.6-1.9l.4-2a1.6 1.6 0 0 1 3.2.7l-.4 2a1.6 1.6 0 0 1-1.6 1.3Zm36.1 8.9a1.6 1.6 0 0 1-1.5-2.1l.6-2.2a1.6 1.6 0 1 1 3.1 1l-.7 2.2a1.6 1.6 0 0 1-1.5 1Z"/>
    <path fill="#f4f844" d="M244 112.2a85.5 85.5 0 0 0-.4-11.3 13 13 0 0 0-2.9-7.4c-5-5.4-12.1-2.3-17.6-.4l-24.2 8-48.4 16.1c-3.3 1.1-7.4 1.9-10.1 4.1a13 13 0 0 0-4.2 8c-1.7 8.4-3.7 19.2-5.9 27.5-4.2 16.4-7.7 30.6-12.7 46.8l-3.4 10.8c-1.8 3.3-1 7.7 1.4 10.8 4 5.2 11.4 5.9 17.4 6.1a89.6 89.6 0 0 0 36.5-6.6A117.8 117.8 0 0 0 226 175a136.5 136.5 0 0 0 16.2-42.1 103 103 0 0 0 1.8-20.7Z"/>
    <path fill="#063f58" d="M194 163a8.5 8.5 0 0 1-2.9-.4 1.6 1.6 0 0 1 1.1-3 6.8 6.8 0 0 0 6.4-1.5c1.3-1 3.6-3.3 3.8-6a1.6 1.6 0 1 1 3.2.2c-.2 3-2 5.9-5 8.3a10.6 10.6 0 0 1-6.6 2.5Zm-6.8-9.2a1.6 1.6 0 0 1-1.6-1.5l-.3-3.6a1.6 1.6 0 1 1 3.3-.2l.2 3.6a1.6 1.6 0 0 1-1.5 1.7h-.1Zm8.9-1.7a1.6 1.6 0 0 1-1.6-1.5l-.2-3.5a1.6 1.6 0 0 1 3.2-.2l.2 3.5a1.6 1.6 0 0 1-1.5 1.7h-.1Z"/>
    <path fill="#eb73b3" d="M157.2 189.3a72 72 0 0 0-8-7c2-3 4-7.3.7-9a2 2 0 0 0-2.3.4l-5.6 5q-12.4.2-24.8.9l.5-2a280.9 280.9 0 0 0 5.5-32.6 20 20 0 0 0-2-12.5 10 10 0 0 0-9.4-5.4 73 73 0 0 0-15.9 3.5c-3.3 1-11 3.3-20 6.2q.8-13.5 1-27l5-5.6a2 2 0 0 0 .3-2.3c-1.6-3.4-6-1.3-9 .6a72 72 0 0 0-6.9-7.9c-2.6-2.4-6.2-.7-9 .5-2.6 1-6.6 2.4-5.5 5.9.6 1.9 2 3.8 3 5.5l3.5 5.9c-.1 1.5 0 3-.2 4.1l-2.7 27.8c-11.2 4.5-20.7 8.9-22.2 9.5A17 17 0 0 0 27 158c-2.7 3.1-1.9 7.1.2 10.2l3 4.3-.8.3-10.7 4.8-11.5 5.1a13.6 13.6 0 0 0-5.4-3.1 1.3 1.3 0 0 0-1.8 1.3A48.7 48.7 0 0 0 2.6 192a47.7 47.7 0 0 0 2.2 5.2l1.5 2.6a13.4 13.4 0 0 0 1.4 2.2c1.6 1.9 4 .5 5.9-.2l6.1-2.3 19-7.1 5.6-2.1v.1c7.9 6.8 14 13.6 22 20l1 .8q-5 8.6-9.6 17.6-2.3 4.7-4.4 9.5c-.7 1.6-1.5 3.2-2 4.8a4.5 4.5 0 0 0 .4 4.5 13.2 13.2 0 0 0 3.9 3q2.5 1.6 5.1 2.9a68.9 68.9 0 0 0 10.8 4.3c.9.2 1.5-.6 1.6-1.4 0-1.8-1-3.3-1.5-5a3.4 3.4 0 0 1 .3-2.6c.4-1 1-2 1.6-3l6.8-13 3.8-7.2a1.2 1.2 0 0 0 .1-.8l.8-1.4a58.7 58.7 0 0 0 7 2.9 8.6 8.6 0 0 0 10.7-3.8c2.6-4.2 4.1-9.3 5.7-14l3-8.6 23.9-2.3c1.2-.1 2.7 0 4.1-.2l5.9 3.4c1.7 1 3.6 2.5 5.5 3.1 3.5 1.1 4.8-3 5.9-5.5 1.1-2.8 2.9-6.4.5-9Z"/>
    <path fill="#063f58" d="M88.6 177.8a1.6 1.6 0 0 1-.2 0c-6.4-1-15.8-6.4-19.5-12.7a1.6 1.6 0 0 1 2.8-1.6c2.9 4.8 11 10 17.2 11a1.6 1.6 0 0 1-.3 3.3ZM80.3 163a1.6 1.6 0 0 1-1.1-2.8l1.6-1.6a1.6 1.6 0 0 1 2.3 2.3l-1.7 1.7a1.6 1.6 0 0 1-1.1.4Zm8.9 6.3a1.6 1.6 0 0 1-1.1-2.8l1.7-1.6a1.6 1.6 0 0 1 2.2 2.3l-1.7 1.6a1.6 1.6 0 0 1-1.1.5Z"/>
    <path fill="#063f58" d="M73.7 186.3a6.2 6.2 0 0 1-4.3-1.6 6.9 6.9 0 0 1-1.5-7 17 17 0 0 1 3.2-5.3l2.3-3a1.6 1.6 0 1 1 2.5 2l-2.3 3a14.4 14.4 0 0 0-2.6 4.3 3.7 3.7 0 0 0 .6 3.7 3.6 3.6 0 0 0 3.4.5 10.7 10.7 0 0 0 3.8-2.5 43 43 0 0 0 5-5.2 1.6 1.6 0 1 1 2.5 2 46 46 0 0 1-5.2 5.6 14 14 0 0 1-5 3.2H76a7.7 7.7 0 0 1-2.3.3Z"/>
    <path fill="#063f58" d="M76.3 179.2a1.6 1.6 0 0 1-1-3 9.3 9.3 0 0 0 2.8-3 1.6 1.6 0 0 1 2.8 1.5 12.6 12.6 0 0 1-3.6 4.2 1.6 1.6 0 0 1-1 .3ZM64 101.8a1.6 1.6 0 0 1-1.2-.6l-3.4-4.4 2.6-2 3.3 4.4a1.6 1.6 0 0 1-1.2 2.6Zm-4.6 1.5a1.6 1.6 0 0 1-1.3-.6l-2.9-4a1.6 1.6 0 0 1 2.6-1.9l3 4a1.6 1.6 0 0 1-1.4 2.5Zm95.6 92.9-4.4-3.4a1.6 1.6 0 0 1 2-2.6l4.3 3.4Zm-1 4.5a1.6 1.6 0 0 1-1-.3l-3.9-3a1.6 1.6 0 1 1 2-2.5l3.9 2.9a1.6 1.6 0 0 1-1 3Z"/>
  </g>
</svg>