<svg xmlns="http://www.w3.org/2000/svg" viewBox="0 0 124 124">
  <path fill="#d1d1d0" d="M61.96 124a62 62 0 1 1 .08 0"/>
  <path fill="#fff" d="M4 62a58 58 0 1 1 58 58A58 58 0 0 1 4 62Z"/>
  <path fill="#474746" d="m22.45 32.32-.68.17a1.7 1.7 0 0 0-.25-1.1 3.5 3.5 0 0 1 .5-.25h.26a.25.25 0 0 0 0 .17 2.68 2.68 0 0 1 .08.34 1.63 1.63 0 0 1 .09.68m6.7.76a1.72 1.72 0 0 0-.85-.34l.68-.85a.6.6 0 0 0 .17-.34 2.86 2.86 0 0 0-.68-1.1L27.2 31.9a2.47 2.47 0 0 1 .42 1.7 6.3 6.3 0 0 1-1.02 2.38 1.96 1.96 0 0 0-.5-.09 2.53 2.53 0 0 0-.51 0 6.54 6.54 0 0 0 .93-1.86 1.7 1.7 0 0 0 0-1.27l-1.36 1.52-.6-.5-.42.5-1.18-1.02.08-.08a2.04 2.04 0 0 0-.6 0 3.07 3.07 0 0 0 .35-1.19 1.36 1.36 0 0 0-.17-.85 4.92 4.92 0 0 0-.77-.76l.6-.68a5.12 5.12 0 0 1 .93 1.02l1.36-.42v.84a10.5 10.5 0 0 0-1.1.34 2.38 2.38 0 0 1-.17 1.27l1.02-1.27 1.1-1.18a1.89 1.89 0 0 0-.77 0 2.96 2.96 0 0 0 .43-1.1 1.36 1.36 0 0 0-.26-.85 4.68 4.68 0 0 0-.68-.77l.6-.67a4.99 4.99 0 0 1 .85 1.01l1.86-.67v.67l.26-.25 1.18 1.02-.5.5.25.18a14.62 14.62 0 0 1 1.1 1.27 1.45 1.45 0 0 1 .34.68 1.27 1.27 0 0 1-.34.85l-.85.84m-5.09-2.8-.5.34a5.55 5.55 0 0 0-.35-1.02 6.35 6.35 0 0 1 .6-.25l.25-.08a.17.17 0 0 0 0 .17v.76a.4.4 0 0 0 0 .08m.85-.67-.6.25a1.62 1.62 0 0 0-.33-1.19l.5-.25h.26a.17.17 0 0 0 0 .17 2.76 2.76 0 0 1 .17.34 1.46 1.46 0 0 1 0 .68m0 3.98 1.1-1.44-.42-.42-.68.67-.6.68Zm1.7-6.1-.6.25a4.26 4.26 0 0 0-.25-1.01 4.77 4.77 0 0 1 .6-.34h.25a.25.25 0 0 0 0 .17v.85m-.68 2.62.76-.84.77-.85-1.27.42a2.72 2.72 0 0 1-.26 1.27m.85 1.28.85-.85.85-1.02-.6-.42-1.6 1.86.5.43M35.85 27a2.53 2.53 0 0 0-.85-.09l-2.63 2.29-.6-.5 1.36-1.2-.25-.33-.6.42-.59.5a1.2 1.2 0 0 1-.25-.25 1.09 1.09 0 0 1-.17-.33l.6-.43.59-.42-.17-.26-1.2.85-.67-.85-.76-1.01 1.18-.85-.17-.26-.67.51-.68.51-.26-.25a1.18 1.18 0 0 1-.17-.34l.68-.51.77-.5-.26-.26-1.1.93a2.47 2.47 0 0 0-.6-.34 28.35 28.35 0 0 0 2.8-2.54l.86.25-1.2 1.1.18.34 1.36-1.02.25.34.68-.5-.94-1.28.77-.6.93 1.28 1.44-1.02.26.34 1.78 2.71a2.96 2.96 0 0 1 .6 1.19.85.85 0 0 1-.1.42 1.72 1.72 0 0 1-.25.34 7.28 7.28 0 0 1-.85.68 1.87 1.87 0 0 0-.84-.5l.84-.52a.34.34 0 0 0 .09-.25 2.22 2.22 0 0 0-.43-.93l-1.52-2.2-.6.42a9.58 9.58 0 0 1 1.28 2.54 4.17 4.17 0 0 1 0 2.46m-4.92-1.44.5-.42-.16-.26-.34.17-.26.26Zm.5.77.52-.43-.17-.34-.26.26-.34.17Zm2.47.5 1.18-.93a3.84 3.84 0 0 0-.25-1.52 9.15 9.15 0 0 0-.93-1.7l-.68.5-.34-.5-1.36 1.01.17.26 1.27-.94.68.94.77.93-1.28.93.17.26.68-.43.6-.5.25.25a1.02 1.02 0 0 1 .17.34l-.68.42-.6.43Zm-1.7-2.2.5-.42-.16-.25-.26.17-.34.17Zm.5.68.26-.17.34-.25-.26-.26-.5.43Zm5.18-6.61a1.56 1.56 0 0 1-.26-.34 1.34 1.34 0 0 1-.08-.42l.68-.34.76-.34-.17-.26-.17-.34a6.13 6.13 0 0 1 .68-.33h.42a.42.42 0 0 0 0 .25l.17.25.68-.34.76-.33a1.5 1.5 0 0 1 .17.42 1.68 1.68 0 0 1 .17.34l-.93.42-1.02.43-.85.5-1.01.43m.76 2.12a1.83 1.83 0 0 1-.26-.42 1.4 1.4 0 0 1-.17-.43 3.99 3.99 0 0 0 .51-.17l.43-.25a4.1 4.1 0 0 0-.77-.85l.77-.51a3.32 3.32 0 0 1 .76.85l-.68.5 2.12-1.01-.76.17a5.59 5.59 0 0 0-.17-1.19 4.16 4.16 0 0 1 .76-.08h.34a.27.27 0 0 1 0 .17.5.5 0 0 0-.08.34v.6l.42-.18.42-.25a1.76 1.76 0 0 1 .26.34 1.95 1.95 0 0 1 .17.42 9.87 9.87 0 0 0-1.02.5l-1.02.43-1.02.51-1.01.51m2.29 2.71a1.91 1.91 0 0 1-.51.26 14.23 14.23 0 0 0-.51-1.44l-.34-.68-.34-.68a8.73 8.73 0 0 0 .85-.34l.85-.42.84-.34.77-.42.34.67.25.68a11.75 11.75 0 0 0 .68 1.36 2.05 2.05 0 0 1-.51.25l-.43.17a1.17 1.17 0 0 0-.08-.17l-.09-.17-1.44.68v.17a.7.7 0 0 0 .09.17.63.63 0 0 1-.43.25m0-1.27.68-.34.85-.34-.5-.93-1.45.68Zm3.9-.5a2.22 2.22 0 0 1-.5.16 14.14 14.14 0 0 0-.68-1.52l-.68-1.53-.68-1.52a14.56 14.56 0 0 0-.85-1.53l.09-.09 1.1-.5 1.18-.51h.94v2.54a2.46 2.46 0 0 1 1.6 1.27 1.27 1.27 0 0 1 0 1.19 1.47 1.47 0 0 1-.42.42 4.53 4.53 0 0 1-.59.34 1.92 1.92 0 0 0-.25-.42 1.73 1.73 0 0 0-.43-.34 4.81 4.81 0 0 0 .51-.17 1.14 1.14 0 0 0 .26-.17v-.6a2.12 2.12 0 0 0-1.53-1.01l-.09-1.78v-.26l-1.01.43 1.52 3.22a19.53 19.53 0 0 0 1.1 2.12 2.51 2.51 0 0 1-.6.25m3.15-7.12-.68-.17a1.7 1.7 0 0 0 .42-1.1 3.47 3.47 0 0 1 .6 0l.25.17h-.09a.25.25 0 0 0 0 .17 2.06 2.06 0 0 1-.17.34 1.54 1.54 0 0 1-.33.6m4.91 4.57a1.61 1.61 0 0 0-.5-.85l1.1-.17a.68.68 0 0 0 .33-.17 2.54 2.54 0 0 0 0-1.27l-1.78.34a2.38 2.38 0 0 1-.68 1.61 6.32 6.32 0 0 1-2.2 1.36 1.96 1.96 0 0 0-.33-.42 2.85 2.85 0 0 0-.43-.26 6.46 6.46 0 0 0 1.87-.93 1.7 1.7 0 0 0 .6-1.1l-1.96.5-.17-.76-.6.17-.33-1.52h.17a1.97 1.97 0 0 0-.51-.43 3 3 0 0 0 .93-.67 1.36 1.36 0 0 0 .34-.85 5.03 5.03 0 0 0-.08-1.02l.84-.17a5.13 5.13 0 0 1 .17 1.36l1.28.42-.51.68a9.63 9.63 0 0 0-1.02-.34 2.4 2.4 0 0 1-.85.85L50 15.3l1.6-.34a1.79 1.79 0 0 0-.59-.42 2.98 2.98 0 0 0 .94-.77 1.37 1.37 0 0 0 .34-.76A4.4 4.4 0 0 0 52.2 12l.85-.17a5.13 5.13 0 0 1 .17 1.36l1.78.6-.34.5.34-.08.34 1.44-.68.17v.34a15 15 0 0 1 .17 1.6 1.45 1.45 0 0 1-.08.77 1.27 1.27 0 0 1-.77.43l-1.18.33m-3.73-2.28 1.7-.34v-.68l-.94.17-.93.17Zm1.27-3.06h-.6a5.51 5.51 0 0 0 .26-1.02 5.87 5.87 0 0 1 .68 0c.17.09.33.09.25.17a.17.17 0 0 0-.17.09v.17l-.17.17-.17.34a.4.4 0 0 0 0 .08m1.02 0-.68-.25a1.7 1.7 0 0 0 .51-1.1l.5.08.26.09a.1.1 0 0 1 0 .08.17.17 0 0 0-.17.17 2.73 2.73 0 0 1 0 .34 1.45 1.45 0 0 1-.42.51m.42 2.55 1.27-.34 1.2-.26-.18-.67-2.37.59.08.68m.09-1.53 1.18-.25 1.1-.26-1.27-.42a2.73 2.73 0 0 1-1.02.85m2.12-1.7h-.67a4.28 4.28 0 0 0 .42-1.02 5.92 5.92 0 0 1 .68 0l.25.17a.17.17 0 0 0-.17.17l-.17.17a.4.4 0 0 0 0 .08l-.25.43v.08m7.71 5.18a2.64 2.64 0 0 0-.67-.6l-3.4.34-.17-.85h1.79v-.6h-1.52a.88.88 0 0 1 0-.33 1.07 1.07 0 0 1 0-.34h1.52v-.34H57.9v-2.4h1.52V13h-1.7a1.07 1.07 0 0 1 0-.34.96.96 0 0 1 0-.34h1.7v-.34l-1.44.09a2.43 2.43 0 0 0-.25-.68 28.47 28.47 0 0 0 3.73-.34l.51.68-1.61.17v.42h1.7v.43h.85v-1.7h.93v1.7h1.7v3.9a2.9 2.9 0 0 1-.34 1.18.85.85 0 0 1-.34.34 1.47 1.47 0 0 1-.34.09 6.95 6.95 0 0 1-1.1 0 1.89 1.89 0 0 0-.34-.85h.85a.34.34 0 0 0 .34-.09 2.13 2.13 0 0 0 .25-.93l.09-2.71h-.85a9.7 9.7 0 0 1-.43 2.71 4.08 4.08 0 0 1-1.44 1.95m-3.13-4.08h.68v-.33h-.68Zm0 .85h.68v-.17h-.68Zm1.7 1.95h1.44a3.83 3.83 0 0 0 .68-1.52 9.1 9.1 0 0 0 .25-1.87h-.85v-.6h-1.52v.26h1.52v2.46h-1.52v.34h1.6a1.13 1.13 0 0 1 0 .34 1.2 1.2 0 0 1 0 .34h-1.6Zm-.09-2.8h.68v-.34h-.6Zm0 .85h.68v-.17h-.6Zm7.46 3.48a2.28 2.28 0 0 0-.25-.43 3.53 3.53 0 0 0-.42-.42 5.16 5.16 0 0 0 2.54-1.44 4.86 4.86 0 0 0 1.1-1.87l-1.27-.25-1.27-.26a2.4 2.4 0 0 1 0-.5 2.16 2.16 0 0 1 .17-.51l1.27.34 1.36.25.17-.85a7.2 7.2 0 0 0 .08-.76l.85.17.5.17a1.44 1.44 0 0 0-.42.76l-.08.68 1.7.42 1.7.34-.09.43-.93 3.22a2.55 2.55 0 0 1-.76 1.19 1.13 1.13 0 0 1-.43.17 1.74 1.74 0 0 1-.5 0 9.32 9.32 0 0 1-1.36-.26 2.31 2.31 0 0 0 0-.42 2.1 2.1 0 0 0-.17-.51l1.27.25a.6.6 0 0 0 .42 0q.43-.25 1.28-3.39l-2.38-.5a5.97 5.97 0 0 1-1.19 2.28 5.7 5.7 0 0 1-2.88 1.7m9.33 2.29a1.55 1.55 0 0 0 0-.85l.93.43a.6.6 0 0 0 .34 0c.17 0 .34-.26.6-.77L78 19.27l-.09.17-.76-.42a14.96 14.96 0 0 0 1.19-1.62l1.52.68.17-.5-1.27-.6-.68-.09a3.62 3.62 0 0 0-.25-.84 5.95 5.95 0 0 0 1.6 0l-.59-.68.85-.26a6.68 6.68 0 0 1 .6.85 3.67 3.67 0 0 0 .67-.25l-.84-.34-.85-.34a1.25 1.25 0 0 1 .17-.34 1.1 1.1 0 0 1 .25-.34 5.24 5.24 0 0 0 .51.26l.51.25 1.02.42h.17l.5.51a4.67 4.67 0 0 1-2.28 1.02l1.01.51-.59 1.36a1.27 1.27 0 0 0 .68-.26 1.18 1.18 0 0 0 .34-.42l.17-.51 1.6.68a5.43 5.43 0 0 1-.84-2.55l.85.09a3.9 3.9 0 0 0 .17.85 6.46 6.46 0 0 0 1.02-.26 2.77 2.77 0 0 1 .34.6v.25a.26.26 0 0 1-.17 0 .5.5 0 0 0-.26 0l-.5.09h-.18l.34.5a6.77 6.77 0 0 0 1.19-.33 2.86 2.86 0 0 1 .25.59c.09.17.09.34 0 .34a.41.41 0 0 1-.08 0 .5.5 0 0 0-.34 0h-.6a6.31 6.31 0 0 0 .94.85 3.64 3.64 0 0 0-.85.5 7.63 7.63 0 0 1-.76-.76l-.26.68a.6.6 0 0 0 0 .17l.17.09a.62.62 0 0 0 .09 0 .18.18 0 0 0 .08 0l.17-.26a2.1 2.1 0 0 0 .6.6 1.27 1.27 0 0 1-.34.34.5.5 0 0 1-.43.08 1.29 1.29 0 0 1-.34-.08l-.42-.17a.85.85 0 0 1-.5-.43.52.52 0 0 1 0-.25 1.93 1.93 0 0 1 .16-.43l.17-.42-.76-.34a1.7 1.7 0 0 1-1.44 1.02 2.9 2.9 0 0 0-.34-.68v.17l-.09.17a1.45 1.45 0 0 1-.42-.17l-.42-.25-.85-.43q-.12.22-.26.43l1.7.76v.25a10.45 10.45 0 0 1-.67 1.1 1.05 1.05 0 0 1-1.28.43l-1.01-.51m2.28 1.1a2.52 2.52 0 0 0-.08-.85 6.64 6.64 0 0 0 1.53.25 3.57 3.57 0 0 1-.34-1.01h.6l-.35-.09-.42-.17a.86.86 0 0 1 .08-.34l.17-.25.6.34.67.25 1.28.6h.17l.42.42a3.3 3.3 0 0 1-1.44.85 6.53 6.53 0 0 0 1.19.93 2.85 2.85 0 0 0-.85.5 5.95 5.95 0 0 1-1.27-1.26 7 7 0 0 1-1.95-.17m2.29-.6a2.55 2.55 0 0 0 .84-.34l-.67-.25-.54-.26a2.5 2.5 0 0 0 .34.84m3.47 3.48a3.37 3.37 0 0 0-.17-.51 3.85 3.85 0 0 0-.34-.42 4.83 4.83 0 0 0 1.87-1.2 12.85 12.85 0 0 0 1.36-1.7l.67-.84a9.94 9.94 0 0 0 .6-.93h.08l1.36.93 1.36 1.02 1.35 1.02q.66.54 1.36 1.01a7.63 7.63 0 0 0-.6.85l-.67.85-.85-.76-.34.42.51.43.51.33a1.3 1.3 0 0 1-.25.34 1.5 1.5 0 0 1-.26.26 7.47 7.47 0 0 0-.5-.34l-.52-.43-.25.43.68.5.68.43a1.74 1.74 0 0 1-.51.68 3.22 3.22 0 0 0-.34-.25l-.43-.26.34.68a9.88 9.88 0 0 1-1.27-.17 5.33 5.33 0 0 0 .85 1.27 2.73 2.73 0 0 0-.85.26 4.55 4.55 0 0 1-1.19-2.3l-.33.52-1.87-1.02-1.02-.51.34-.85.85.51.68-.93-.43-.34-.34-.17a1.31 1.31 0 0 1 .17-.43l.26-.25.6.42.5.34.34-.42-.5-.34-.43-.25a1.23 1.23 0 0 1 .25-.34l.26-.34a3.85 3.85 0 0 0 .42.34l.42.34.34-.43-1.1-.76-.08.17a8.33 8.33 0 0 1-3.56 3.14m2.96.76.34.17.26.08.68.34a4.13 4.13 0 0 1 0-1.01l-.6-.51Zm1.2-4.66 3.72 2.7.26-.5-1.87-1.27-1.87-1.35Zm.25 3.39 1.01.76.34-.42-.5-.43-.52-.34Zm.67 2.12a9.57 9.57 0 0 0 1.02 0l-.5-.34-.6-.43a3.06 3.06 0 0 0 .08.77m.09-3.14 1.02.76.34-.42-.51-.42-.51-.34Zm3.22 8.4a1.64 1.64 0 0 1-.34-.42 8.69 8.69 0 0 0 .68-.6l.67-.59-1.18-.84a3.15 3.15 0 0 0 .17-.34 2.91 2.91 0 0 0 .08-.51 19.85 19.85 0 0 0 3.06 1.95l-1.1-1.19-1.1-1.19a2.73 2.73 0 0 1 .59-.5l.85 1.1.93 1.01.34-.25-.68-.76-.76-.77.25-.25a1.22 1.22 0 0 1 .26-.17l.67.85.68.67.26-.17-1.53-1.7.68-.59a7.36 7.36 0 0 0 .6-.68h.08l1.1 1.27 1.1 1.28 2.2 2.54-.6.5a7.48 7.48 0 0 0-.67.69l-1.2-1.27-1.1-1.36-.25.17 1.28 1.44-.26.25a6.87 6.87 0 0 0 1.02.17 3.34 3.34 0 0 1 0 .68v.34a.24.24 0 0 1-.17-.08.52.52 0 0 0-.25-.17l-.68-.09.5.5.52.52-.26.25a1.17 1.17 0 0 1-.34.26l-.68-.85-.67-.76a5.07 5.07 0 0 1 .42 1.01h-.34l.34.34-.93.85a11.38 11.38 0 0 0-.94 1.1 2.15 2.15 0 0 1-.42-.42l-.34-.43.09-.08-2.12-2.38v.09H94l-.42-.34m1.02-.17 2.12 2.37.25-.17-1.1-1.18-1.1-1.2Zm.59-.51 1.1 1.1 1.02 1.19.25-.17-2.12-2.38Zm1.53.17.59.68.6.68c-.1-.26-.22-.52-.35-.77h.51l-1.35-.59m.84-3.9.26.34.25.34.43-.34-.6-.68Zm0 3.05.68.68a7 7 0 0 0 .68.26l-.5-.6-.52-.6Zm1.2-1.7.59.77.42-.34-.34-.34-.34-.43Zm1.26 1.44.6.68.42-.34-.34-.34-.34-.33Zm-79.1 12.47-4.25-2.97.6-1.02 5.93 1.7-.34.85-4.58-1.44 3.9 2.8-.59 1.1-4.58-1.36 3.9 2.8-.42.85-5-3.64.5-1.1ZM19.9 48c-.33 1.1-1.6 1.78-3.64 1.1s-2.63-1.95-2.29-3.06 1.53-1.7 3.65-1.02 2.54 1.95 2.28 3.06m-5.08-1.7c-.26.59.17 1.18 1.7 1.7s2.37.34 2.54-.26-.17-1.27-1.7-1.78-2.37-.25-2.54.34m4.07 4.4-.34 1.7a1.44 1.44 0 0 1-1.62 1.25 1.4 1.4 0 0 1-.25-.05 1.36 1.36 0 0 1-1.18-1.44c-.09.17-.26.33-.85.42l-2.38.17.17-1.02 2.12-.08a.74.74 0 0 0 .77-.6v-.25l-2.55-.6.26-.93Zm-2.8.77a.84.84 0 0 0 .53 1.07.93.93 0 0 0 .14.03c.68.09.94-.17 1.02-.68l.09-.42-1.7-.42Zm1.95 3.56-.09.94-2.54-.34 2.29 1.86-.09 1.19-2.63-2.2-3.39 1.53.09-1.2 3.05-1.18-2.89-.42.17-.94Zm-.43 4.33-.08 2.8h-.85v-1.78l-1.7-.09v1.7h-.93v-1.7l-2.55-.17v-.93Zm.09 5.43c0 1.1-.85 2.2-3.06 2.28s-3.22-.84-3.22-1.95.85-2.2 2.97-2.29 3.22.85 3.3 1.96m-5.42.33c0 .6.68 1.1 2.29.94s2.29-.6 2.29-1.27-.68-1.02-2.38-.94-2.28.6-2.2 1.27m5.52 2.55.25 1.7a1.44 1.44 0 0 1-.95 1.8 1.49 1.49 0 0 1-.32.06 1.36 1.36 0 0 1-1.7-.85c0 .17 0 .43-.6.68l-2.2 1.1-.08-1.1 1.86-.85a.68.68 0 0 0 .52-.8v-.22l-2.64.43-.17-1.02Zm-2.3 1.78a.85.85 0 0 0 .92.78.97.97 0 0 0 .1-.02.78.78 0 0 0 .8-.76.8.8 0 0 0-.04-.25v-.43l-1.86.26Zm-1.86 7.3a2.7 2.7 0 0 1-.5-1.03c-.43-1.7.67-2.8 2.37-3.22s3.22 0 3.64 1.61a3.08 3.08 0 0 1 0 1.19l-.85.17a1.97 1.97 0 0 0 0-1.02c-.17-.84-1.01-1.35-2.54-.93s-1.95 1.27-1.7 2.04a1.52 1.52 0 0 0 .51.84Zm6.1-.6.93 2.63-.84.33-.6-1.7-1.52.51.6 1.61-.86.26-.6-1.61-1.7.6.6 1.86-.85.25-.93-2.71Zm2.12 5.34.68 1.27c.85 1.44.25 2.71-1.53 3.73-1.78.94-3.22.43-3.9-.85l-.67-1.27Zm-4.24 3.4.26.25c.5 1.01 1.44 1.01 2.62.42s1.7-1.53 1.2-2.54l-.1-.26Zm6.53.84 1.61 2.29-.76.5-1.02-1.52-1.36.93 1.02 1.45-.85.5-.84-1.44-1.53 1.02 1.1 1.53-.85.5-1.52-2.37Zm1.95 2.88.68.77-3.05 3.81 4.4-2.12.68.85-5.85 2.54-.6-.84Zm3.05 3.65 1.95 2.03-.6.6-1.26-1.36-1.19 1.19 1.19 1.27-.68.6-1.19-1.28-1.27 1.27 1.27 1.36-.68.6-2.03-2.04Zm2.63 2.63.76.68-3.39 3.9 1.27 1.18-.59.68-2.03-1.86Zm4.33 3.4c.93.67 1.18 2.03 0 3.81s-2.72 1.95-3.65 1.27-1.19-2.03 0-3.81 2.71-1.95 3.65-1.28m-3.14 4.41c.51.34 1.27.17 2.2-1.18s.93-2.12.42-2.55-1.27-.17-2.2 1.19-.93 2.2-.42 2.54m5.42-2.7 1.45.85a1.87 1.87 0 0 1-1.87 3.14l-.5-.26-1.2 2.12-.84-.5Zm-.17 3.23a.91.91 0 0 0 1.24-.37l.04-.06a.9.9 0 0 0-.13-1.26 1 1 0 0 0-.13-.1l-.34-.16-1.01 1.7Zm7.13 1.44-3.3 4.07-.69-.26.85-5.17-2.03 4.66-.85-.42 2.54-5.51 1.36.6-.85 4.57 2.88-3.73 1.36.6-2.54 5.6-.85-.34Zm2.29-.26 2.71.85-.25.85-1.79-.6-.5 1.62 1.7.5-.26.85-1.7-.5-.5 1.7 1.86.59-.34.85-2.71-.85Zm3.64 1.1 1.1.17.85 5.09.93-4.75.85.17-1.1 6.02-1.19-.25-.84-5-.85 4.66-.93-.17Zm5.43 1.78h-1.19l.09-.93 3.39.34-.09.85-1.18-.09-.6 5.09h-.93Zm7.46 4.07H62.3l-.34 1.53h-.94l1.62-6.2h1.1l1.86 6.1h-.93Zm-.17-.84-.85-2.89-.59 2.89Zm4.41-1.53 1.7-.25.42 3.22a2.87 2.87 0 0 1-1.44.5c-1.7.18-2.7-1.01-2.96-2.8s.5-3.22 2.2-3.39a3.17 3.17 0 0 1 1.35 0v1.02a2.21 2.21 0 0 0-1.18-.17c-1.1.09-1.53 1.1-1.36 2.38.17 1.36.85 2.2 1.86 2.03a1.42 1.42 0 0 0 .51-.17l-.17-1.7-.84.17Zm2.37-3.05 2.8-.68.17.85-1.78.42.34 1.61 1.7-.42.17.85-1.7.42.43 1.7 1.86-.34.26.85-2.89.68Zm3.74-.85 1.1-.43 3.22 3.99-1.53-4.58.85-.25 1.95 5.76-1.1.34-3.22-3.9 1.44 4.5-.85.33Zm10.26 2.2a2.63 2.63 0 0 1-1.02.76c-1.44.68-2.8-.25-3.56-1.86s-.51-3.14.93-3.82a3.14 3.14 0 0 1 1.19-.25l.42.84a1.88 1.88 0 0 0-1.1.17c-.76.34-1.1 1.2-.42 2.63s1.52 1.7 2.29 1.36a1.53 1.53 0 0 0 .76-.68Zm.93-3.14-3.22-2.37.93-.51 2.12 1.6-.34-2.53.93-.6.43 3.99 1.27 2.12-.85.42Zm3.56-.6.6 2.2-.6.35-.85-2.04Zm3.65-7.88 2.28 4.84-.59.42-4.24-3.05 3.3 3.9-.67.59-4.07-4.66 1.19-.94 3.81 2.72-2.12-4.24 1.1-.85 3.99 4.58-.68.6Zm.67-2.03.68-.77 4.41 4.24-.68.68Zm1.61-1.61.68-.85 4.84 1.6-3.65-3.04.5-.68 4.76 3.81-.85.94-4.75-1.7v.08l3.65 3.06-.51.67Zm2.97-3.9.6-.85 5.08 3.56-.67.85Zm5.51.84a2.04 2.04 0 0 0 .85-.84.85.85 0 0 0-.34-1.1c-.34-.26-.67-.17-1.1.08l-.59.25a1.73 1.73 0 0 1-2.37-2.37 3.12 3.12 0 0 1 .84-.85l.77.51a2.35 2.35 0 0 0-.85.77.68.68 0 0 0 .14.94.6.6 0 0 0 .11.07.85.85 0 0 0 1.02-.08l.6-.34a1.87 1.87 0 0 1 2.54 2.63 2.2 2.2 0 0 1-.85.84Zm-1.1-6.27-.5 1.1-.85-.43 1.52-2.96.85.33-.6 1.1 4.67 2.3-.42.84Zm.34-2.88.68-1.53a1.44 1.44 0 0 1 1.76-1.04 1.46 1.46 0 0 1 .28.1 1.36 1.36 0 0 1 .93 1.45c.17-.18.34-.34.93-.26l2.46.17-.42.93-2.04-.17a.68.68 0 0 0-.85.43l-.08.25 2.46.85-.34 1.02Zm3.06-.34a.85.85 0 0 0-.42-1.13.81.81 0 0 0-.18-.06c-.68-.25-.85 0-1.1.5l-.17.43 1.7.6Zm2.2-3.31-3.99.5.26-1.01 2.7-.34-2.11-1.7.34-.93 3.05 2.54 2.37.68-.33.93Zm-2.12-8.06c.17-1.1 1.18-1.95 3.39-1.7s2.97 1.45 2.8 2.55-1.19 2.03-3.4 1.7-2.96-1.44-2.8-2.55m5.35.77c.08-.6-.43-1.19-2.12-1.44s-2.29.17-2.38.84.43 1.2 2.12 1.45 2.3-.26 2.38-.85m-4.92-3.73V62.5h.93v1.7l1.7.17v-1.7h.85v1.7l2.63.09v1.01Zm0-5.6V58.6l5.09-.43-.17-1.78.85-.08.34 2.71Zm3.73-6.96.34 1.78 1.53.17.17.94-6.28-.68-.25-1.1 5.68-2.71.25.93Zm-.85.34-2.54 1.19 2.88.25Zm-4.07-1.44-.42-1.53a1.33 1.33 0 0 1 1.02-1.95 1.54 1.54 0 0 0 2.71-.84 1.61 1.61 0 0 1 2.07.95 1.53 1.53 0 0 1 .05.15l.42 1.61Zm2.2-1.61-.17-.5a.85.85 0 0 0-1.1-.43.76.76 0 0 0-.6.9l.01.03.17.51Zm2.55-.68-.17-.6a.93.93 0 0 0-1.7.6l.08.51Zm-6.7-3.47c-.43-1.02 0-2.38 2.03-3.14s3.4-.26 3.73.85 0 2.29-2.12 3.05-3.3.25-3.64-.85m5-1.95c-.26-.6-1.02-.85-2.55-.17s-1.95 1.27-1.7 1.87.94.84 2.55.17 1.86-1.28 1.7-1.87m-6.2-.76-.75-1.43a1.44 1.44 0 0 1 .32-2.02 1.49 1.49 0 0 1 .36-.19 1.36 1.36 0 0 1 1.7.26h.09a1.2 1.2 0 0 1 .34-.85l1.7-1.7.5.85-1.44 1.44a.68.68 0 0 0-.26.92h.01l.08.26 2.38-1.27.42.85Zm1.7-2.46a.85.85 0 0 0-1.14-.36l-.04.02a.76.76 0 0 0-.46.98.71.71 0 0 0 .12.2l.17.35 1.61-.85Z"/>
  <path fill="#ffb900" d="M101.95 62.32a40 40 0 1 0 0 .09"/>
  <path fill="#86c9cf" d="M101.95 62.45a39.93 39.93 0 0 0-17.2-32.84 65.24 65.24 0 0 1-1.98 8.5L78.3 25.98a39.69 39.69 0 0 0-45.08 8.88L58 102.2c1.34.13 2.67.18 4 .17h.37l.73-.02a39.86 39.86 0 0 0 38.86-39.9Z"/>
  <path fill="#59b5ad" d="M62.13 102.36a39.82 39.82 0 0 0 35.95-22.75l-15.3-41.46a75.95 75.95 0 0 1-5.52 12.93c-14.2 26.2-17.03 42.49-17.2 51.11l2.06.09"/>
  <path fill="#dddddc" d="M73.91 24.27a39.9 39.9 0 0 0-27.53 74.82Z"/>
  <path fill="#e85620" d="M26 50.99a16.42 16.42 0 0 1-1.2-2.5 39.86 39.86 0 0 0 18.06 48.87c-1.12-9.3-5.08-24.3-16.87-46.37"/>
  <path fill="#fff" d="m34.87 84.75.1-.08h-.1ZM68.7 64.06C74.29 55.3 80 44.7 83.1 34.21a131.14 131.14 0 0 1-33.48 22.8 93.19 93.19 0 0 0 14.66-.75 74.58 74.58 0 0 1-3.25 4.03l.03-.04c-7.06-2.68-13.78-3.56-18.4-2.55a7.81 7.81 0 0 0-5.02 2.79l-.09.13c-.09.13-.17.27-.24.4s-.18.27-.25.41l.09-.08c-.03.06-.06.1-.08.17a5.55 5.55 0 0 1 1.63-1.37l.2-.1.4-.2a15.13 15.13 0 0 1 6.74-.75 39.72 39.72 0 0 1 12.76 3.7c-6.7 7.3-15.55 15.07-23.83 21.86h18.72a193.26 193.26 0 0 0 12.7-17.05l.02.01c11.2 9.16 2.97 18.4-9.58 13.23l-1.45 1.78a37.7 37.7 0 0 0 8.31 3.48 28.98 28.98 0 0 0 6.7 1.1c4.75.25 11.62-1.2 12.04-6.79-.33-7.37-8.04-12.79-13.72-16.36Z"/>
</svg>