<svg width="600" height="338" fill="none" xmlns="http://www.w3.org/2000/svg"><g clip-path="url(#clip0)"><path opacity=".1" d="M600 0H0v337.5h600V0z" fill="#08BC80"/><path opacity=".1" d="M203 289.8c7.953 0 14.4-6.447 14.4-14.4S210.953 261 203 261s-14.4 6.447-14.4 14.4 6.447 14.4 14.4 14.4zM290.8 290.2c7.953 0 14.4-6.447 14.4-14.4s-6.447-14.4-14.4-14.4-14.4 6.447-14.4 14.4 6.447 14.4 14.4 14.4zM290.8 182.2c7.953 0 14.4-6.447 14.4-14.4s-6.447-14.4-14.4-14.4-14.4 6.447-14.4 14.4 6.447 14.4 14.4 14.4zM378.6 290.2c7.953 0 14.4-6.447 14.4-14.4s-6.447-14.4-14.4-14.4-14.4 6.447-14.4 14.4 6.447 14.4 14.4 14.4zM378.6 182.2c7.953 0 14.4-6.447 14.4-14.4s-6.447-14.4-14.4-14.4-14.4 6.447-14.4 14.4 6.447 14.4 14.4 14.4zM378.6 94.1c7.953 0 14.4-6.447 14.4-14.4s-6.447-14.4-14.4-14.4-14.4 6.447-14.4 14.4 6.447 14.4 14.4 14.4z" fill="#013D32"/><path d="M203 272.8c7.953 0 14.4-6.447 14.4-14.4S210.953 244 203 244s-14.4 6.447-14.4 14.4 6.447 14.4 14.4 14.4zM290.8 273.2c7.953 0 14.4-6.447 14.4-14.4s-6.447-14.4-14.4-14.4-14.4 6.447-14.4 14.4 6.447 14.4 14.4 14.4zM290.8 165.2c7.953 0 14.4-6.447 14.4-14.4s-6.447-14.4-14.4-14.4-14.4 6.447-14.4 14.4 6.447 14.4 14.4 14.4zM378.6 273.2c7.953 0 14.4-6.447 14.4-14.4s-6.447-14.4-14.4-14.4-14.4 6.447-14.4 14.4 6.447 14.4 14.4 14.4zM378.6 165.2c7.953 0 14.4-6.447 14.4-14.4s-6.447-14.4-14.4-14.4-14.4 6.447-14.4 14.4 6.447 14.4 14.4 14.4zM378.6 77.1c7.953 0 14.4-6.447 14.4-14.4s-6.447-14.4-14.4-14.4-14.4 6.447-14.4 14.4 6.447 14.4 14.4 14.4z" fill="#00C9A7"/><path d="M393 61.5h-28.8v89.8H393V61.5z" fill="url(#paint0_linear)"/><path d="M393 170.3h-28.8v89.8H393v-89.8z" fill="url(#paint1_linear)"/><path d="M305.3 170.3h-28.8v89.8h28.8v-89.8z" fill="url(#paint2_linear)"/></g><defs><linearGradient id="paint0_linear" x1="378.63" y1="151.298" x2="378.63" y2="61.544" gradientUnits="userSpaceOnUse"><stop stop-color="#00C9A7"/><stop offset="1" stop-color="#fff" stop-opacity="0"/></linearGradient><linearGradient id="paint1_linear" x1="378.63" y1="260.065" x2="378.63" y2="170.312" gradientUnits="userSpaceOnUse"><stop stop-color="#00C9A7"/><stop offset="1" stop-color="#fff" stop-opacity="0"/></linearGradient><linearGradient id="paint2_linear" x1="290.849" y1="260.065" x2="290.849" y2="170.312" gradientUnits="userSpaceOnUse"><stop stop-color="#00C9A7"/><stop offset="1" stop-color="#fff" stop-opacity="0"/></linearGradient><clipPath id="clip0"><path fill="#fff" d="M0 0h600v337.5H0z"/></clipPath></defs></svg>