<svg width="308" height="295" fill="none" xmlns="http://www.w3.org/2000/svg"><path d="M129 89a88.994 88.994 0 0126.068-62.933A88.993 88.993 0 01218 0v89h-89z" fill="#247F72"/><path d="M218.5 177c48.325 0 87.5-39.175 87.5-87.5S266.825 2 218.5 2 131 41.175 131 89.5s39.175 87.5 87.5 87.5z" stroke="#247F72" stroke-width="3.271"/><path d="M218 161c39.765 0 72-32.235 72-72 0-39.764-32.235-72-72-72-39.764 0-72 32.236-72 72 0 39.765 32.236 72 72 72z" stroke="#247F72" stroke-width="3.271"/><path d="M218 147c32.033 0 58-25.967 58-58 0-32.032-25.967-58-58-58s-58 25.968-58 58c0 32.033 25.967 58 58 58z" stroke="#247F72" stroke-width="3.271"/><path d="M218 131c23.196 0 42-18.804 42-42s-18.804-42-42-42-42 18.804-42 42 18.804 42 42 42z" stroke="#247F72" stroke-width="3.271"/><path d="M218.5 116c14.636 0 26.5-11.864 26.5-26.5 0-14.635-11.864-26.5-26.5-26.5S192 74.865 192 89.5c0 14.636 11.864 26.5 26.5 26.5z" stroke="#247F72" stroke-width="3.271"/><path d="M219 102c6.627 0 12-5.373 12-12s-5.373-12-12-12-12 5.373-12 12 5.373 12 12 12z" stroke="#247F72" stroke-width="3.271"/><path d="M218 88h-89v90h89V88z" fill="#247F72"/><path d="M41 232l51.5-83 51.5 83H41z" stroke="#0A7261" stroke-width="2.18"/><path d="M53 131l53 85H0l53-85z" fill="#0A7261"/></svg>