<svg width="600" height="338" fill="none" xmlns="http://www.w3.org/2000/svg"><g clip-path="url(#clip0)"><path opacity=".1" d="M599.8.3H-.2v337.3h600V.3z" fill="#F39568"/><path opacity=".1" d="M355.2 131.5c24.908 0 45.1-8.148 45.1-18.2s-20.192-18.2-45.1-18.2-45.1 8.148-45.1 18.2 20.192 18.2 45.1 18.2z" fill="#000"/><path opacity=".85" d="M393.9 121.5c22.312 0 40.4-18.088 40.4-40.4 0-22.312-18.088-40.4-40.4-40.4-22.312 0-40.4 18.088-40.4 40.4 0 22.312 18.088 40.4 40.4 40.4z" fill="#F1A079"/><path opacity=".7" d="M38.8 420.5c66.44 0 120.3-53.86 120.3-120.3S105.24 179.9 38.8 179.9-81.5 233.76-81.5 300.2s53.86 120.3 120.3 120.3z" fill="#4A9994"/></g><defs><clipPath id="clip0"><path fill="#fff" d="M0 0h600v338H0z"/></clipPath></defs></svg>