<svg width="306" height="295" fill="none" xmlns="http://www.w3.org/2000/svg"><g clip-path="url(#clip0_349_220)"><path d="M196.5 142C256.423 142 305 93.423 305 33.5S256.423-75 196.5-75 88-26.423 88 33.5 136.577 142 196.5 142z" fill="#038972"/><path d="M110 161.365c-47.136 0-85.364-38.434-85.364-85.865 0-47.43 38.228-85.865 85.364-85.865 47.137 0 85.365 38.434 85.365 85.865S157.137 161.365 110 161.365z" stroke="#23B499" stroke-width="3.271"/><path d="M39.635 76c0 38.861 31.503 70.365 70.365 70.365 38.861 0 70.364-31.504 70.364-70.365 0-38.861-31.503-70.365-70.364-70.365C71.138 5.635 39.635 37.14 39.635 76z" stroke="#23B499" stroke-width="3.271"/><path d="M110 132.365c-31.129 0-56.364-25.236-56.364-56.365 0-31.13 25.235-56.365 56.364-56.365 31.129 0 56.365 25.236 56.365 56.365S141.129 132.365 110 132.365z" stroke="#23B499" stroke-width="3.271"/><path d="M69.635 75.5c0 22.569 18.296 40.865 40.865 40.865 22.569 0 40.864-18.296 40.864-40.865 0-22.569-18.295-40.865-40.864-40.865-22.57 0-40.865 18.296-40.865 40.865z" stroke="#23B499" stroke-width="3.271"/><path d="M83 76c0 14.912 12.088 27 27 27s27-12.088 27-27-12.088-27-27-27-27 12.088-27 27z" fill="#53C2AD"/></g><defs><clipPath id="clip0_349_220"><path fill="#fff" d="M0 0h306v295H0z"/></clipPath></defs></svg>