<svg width="400" height="338" fill="none" xmlns="http://www.w3.org/2000/svg"><g clip-path="url(#clip0)"><path opacity=".1" d="M600 0H0v337.5h600V0z" fill="#065ABF"/><path opacity=".2" d="M21.1 348.5L299.9 0 600 292.2l-5.2 32.2L518 429.2 20 349.6l1.1-1.1z" fill="#4A9994"/><path opacity=".1" d="M412.3 361.1c39.323 0 71.2-25.162 71.2-56.2 0-31.038-31.877-56.2-71.2-56.2-39.323 0-71.2 25.162-71.2 56.2 0 31.038 31.877 56.2 71.2 56.2zM83.1 76c16.57 0 30-5.686 30-12.7 0-7.014-13.43-12.7-30-12.7-16.569 0-30 5.686-30 12.7 0 7.014 13.431 12.7 30 12.7z" fill="#000"/><path opacity=".8" d="M351.5 283c36.782 0 66.6-29.818 66.6-66.6s-29.818-66.6-66.6-66.6-66.6 29.818-66.6 66.6 29.818 66.6 66.6 66.6z" fill="#00C9A7"/><path opacity=".8" d="M65.8 68.7C79.718 68.7 91 57.418 91 43.5S79.718 18.3 65.8 18.3 40.6 29.582 40.6 43.5s11.282 25.2 25.2 25.2z" fill="#2D374B"/></g><defs><clipPath id="clip0"><path fill="#fff" d="M0 0h400v338H0z"/></clipPath></defs></svg>