<svg width="600" height="338" fill="none" xmlns="http://www.w3.org/2000/svg"><g clip-path="url(#clip0)"><path opacity=".1" d="M600 0H0v337.5h600V0z" fill="#065ABF"/><path opacity=".2" d="M239.1 336.8L517.9-11.7 818 280.5l-5.2 32.2L736 417.5l-498-79.6 1.1-1.1z" fill="#4A9994"/><path opacity=".1" d="M630.3 349.4c39.323 0 71.2-25.162 71.2-56.2 0-31.038-31.877-56.2-71.2-56.2-39.323 0-71.2 25.162-71.2 56.2 0 31.038 31.877 56.2 71.2 56.2zM301.1 64.3c16.569 0 30-5.686 30-12.7 0-7.014-13.431-12.7-30-12.7-16.569 0-30 5.686-30 12.7 0 7.014 13.431 12.7 30 12.7z" fill="#000"/><path opacity=".8" d="M569.5 271.3c36.782 0 66.6-29.818 66.6-66.6s-29.818-66.6-66.6-66.6-66.6 29.818-66.6 66.6 29.818 66.6 66.6 66.6z" fill="#24C9B0"/><path opacity=".8" d="M283.8 57c13.918 0 25.2-11.282 25.2-25.2S297.718 6.6 283.8 6.6s-25.2 11.283-25.2 25.2c0 13.918 11.282 25.2 25.2 25.2z" fill="#4D5769"/></g><defs><clipPath id="clip0"><path fill="#fff" d="M0 0h600v338H0z"/></clipPath></defs></svg>