<svg xmlns="http://www.w3.org/2000/svg" viewBox="0 0 900 400"><rect class="st0" width="100%" height="100%" clip-path="url(#a)" fill="url(&quot;#b&quot;)"/><defs><linearGradient id="b"><stop offset="1.6" stop-color="#F6F6F6"><animate attributeName="offset" values="-1; -1; 2" keyTimes="0; 0.25; 1" dur="2s" repeatCount="indefinite"/></stop><stop offset="2.6" stop-color="#F0F0F3"><animate attributeName="offset" values="0; 0; 3" keyTimes="0; 0.25; 1" dur="2s" repeatCount="indefinite"/></stop><stop offset="3.6" stop-color="#E9E9F1"><animate attributeName="offset" values="1; 1; 4" keyTimes="0; 0.25; 1" dur="2s" repeatCount="indefinite"/></stop></linearGradient><clipPath id="a"><rect rx="10" ry="10" width="900" height="400"/></clipPath></defs><path fill="#D1D1D2" opacity=".66" d="M598.5 288.1l-78-97.5c-1.9-2.6-4.9-4.2-8.2-4.2h-4.4c-3.3.1-6.4 1.6-8.3 4.2l-25 31.4-51.8-72.4c-2-2.8-5.3-4.4-8.7-4.2h-4.2c-3.3 0-6.4 1.6-8.3 4.2l-99.7 138.5c-2.2 3.4-2.2 7.7 0 11.1l2.9 4.9c1.8 3.2 5.2 5.2 8.9 5.2h273.2c3.7 0 7.1-2 8.9-5.2l2.9-4.9c2-3.4 2.1-7.7-.2-11.1zM340 282l72.1-100.1L443.2 282H340zm192.2-136.6c15.1 0 27.3-12.2 27.3-27.3s-12.2-27.3-27.3-27.3c-15.1 0-27.3 12.2-27.3 27.3s12.2 27.3 27.3 27.3z"/></svg>