<svg xmlns="http://www.w3.org/2000/svg" viewBox="0 0 182.4 210"><path d="M156.2 210h-130c-8.3 0-15-6.7-15-15V15c0-8.3 6.7-15 15-15h95l50 50v145c0 8.3-6.7 15-15 15z" fill="#e7eaf3"/><path d="M171.2 50h-50V0l50 50z" fill="#f8fafd"/><path d="M121.2 50l50 50V50h-50z" fill="#bdc5d1"/><path d="M176.7 177.4H5.7c-3.1 0-5.7-2.5-5.7-5.7v-47.3c0-3.1 2.5-5.7 5.7-5.7h171c3.1 0 5.7 2.5 5.7 5.7v47.3c0 3.2-2.6 5.7-5.7 5.7z" fill="#0abf53"/><text transform="translate(40.877 160.232)" letter-spacing="5" font-size="36.958" font-family="OpenSans-Bold" fill="#fff">.CSV</text></svg>