<svg xmlns="http://www.w3.org/2000/svg" width="329.066" height="329.068" viewBox="0 0 329.066 329.068"><path d="M1695.07,708.273l-229.8,229.791a171.046,171.046,0,0,0,10.97,13.552l232.38-232.382A173.139,173.139,0,0,0,1695.07,708.273ZM1502,974.795,1731.79,745a171.444,171.444,0,0,0-10.95-13.551L1488.45,963.838A172.845,172.845,0,0,0,1502,974.795Zm31.22,17.811L1749.6,776.218a170.1,170.1,0,0,0-8.18-16.329L1516.89,984.423A172.111,172.111,0,0,0,1533.22,992.606Zm37.8,11.144,189.73-189.725a165.233,165.233,0,0,0-4.63-19.887L1551.14,999.121A167.131,167.131,0,0,0,1571.02,1003.75Zm47.99,1.04,142.78-142.78a176.9,176.9,0,0,0,1.22-25.732L1593.28,1006.01A175.506,175.506,0,0,0,1619.01,1004.79Zm95.86-46.913a163.679,163.679,0,0,0,39.77-64.282L1650.6,997.644A163.652,163.652,0,0,0,1714.87,957.877Zm-51.02-267.415L1447.46,906.85a172.051,172.051,0,0,0,8.19,16.329l224.53-224.534A172.36,172.36,0,0,0,1663.85,690.462Zm-37.8-11.143L1436.32,869.047a167.1,167.1,0,0,0,4.63,19.883l204.98-204.986A168.6,168.6,0,0,0,1626.05,679.319Zm-47.99-1.037L1435.28,821.058a175.551,175.551,0,0,0-1.22,25.736l169.73-169.735A175.161,175.161,0,0,0,1578.06,678.282Zm-31.59,7.146L1442.43,789.474a164.777,164.777,0,0,1,104.04-104.046Z" transform="translate(-1434.002 -677)" fill="#ffc561" fill-rule="evenodd"/></svg>