<svg xmlns="http://www.w3.org/2000/svg" width="363.484" height="565.817" viewBox="0 0 363.484 565.817"><path d="M12312.5,192.928V565.817a204.884,204.884,0,0,1-60.5-18.235c-78-37.118-133.6-112.811-158.3-195.583-8.5-28.353-13.8-57.929-26.9-84.5-15.9-32.3-42.3-58.025-66-85.115-23.8-27.091-46.2-57.835-51-93.549-4.9-35.714,13.4-76.865,48.2-86.615,38.7-10.874,76.9,20.015,98.9,53.711,21.9,33.7,37.1,73.585,69.1,97.955C12206.7,184.868,12262.1,182.054,12312.5,192.928Z" transform="translate(-11949.016)" fill="#ff6b48" fill-rule="evenodd"/></svg>