<svg xmlns="http://www.w3.org/2000/svg" xmlns:xlink="http://www.w3.org/1999/xlink" width="194.048" height="123.175" viewBox="0 0 194.048 123.175"><defs><linearGradient id="a" y1="0.5" x2="1" y2="0.5" gradientUnits="objectBoundingBox"><stop offset="0" stop-color="#fea235"/><stop offset="1" stop-color="#ffb44f"/></linearGradient><linearGradient id="b" x1="0.526" y1="-0.471" x2="0.63" y2="-0.471" xlink:href="#a"/><linearGradient id="c" x1="2.132" y1="0.748" x2="3.12" y2="0.748" gradientUnits="objectBoundingBox"><stop offset="0" stop-color="#f6462e"/><stop offset="1" stop-color="#fb7d42"/></linearGradient><linearGradient id="d" y1="0.5" x2="1" y2="0.5" gradientUnits="objectBoundingBox"><stop offset="0" stop-color="#d2d1cd"/><stop offset="1" stop-color="#abafb8"/></linearGradient></defs><g transform="translate(132.563 161.442) rotate(-150)"><path d="M850.729,357.577l-40.575,30.886-42.261,32.172-4.984,3.794-6.227,4.74-.124.092-.783.6-5.9-7.747-1.955-2.568-.145-.191.907-.691.05-.039,9.71-7.389,4.067-3.1L801.85,378.19l40.88-31.117,0,0Z" transform="translate(-710.545 -324.378)" fill="url(#a)"/><rect width="11.572" height="119.337" transform="translate(125.177 13.486) rotate(52.721)" fill="#e5974c"/><rect width="119.337" height="12.388" transform="translate(23.147 76.474) rotate(-37.278)" fill="url(#b)"/><path d="M661.4,557.3l-18.083-23.756a3.118,3.118,0,0,1,.592-4.37l12.208-9.293a3.119,3.119,0,0,1,4.37.593l18.083,23.755a3.119,3.119,0,0,1-.593,4.37l-12.208,9.293A3.118,3.118,0,0,1,661.4,557.3Z" transform="translate(-642.679 -435.562)" fill="url(#c)"/><path d="M709.565,527.364l-9.139,6.957a1.886,1.886,0,0,1-2.643-.358l-.372-.485L675.554,504.76l-.372-.485a1.89,1.89,0,0,1,.358-2.646l9.14-6.954a1.882,1.882,0,0,1,2.643.358l.149.2,7.078,9.292.429.563,6.578,8.643.007.011,7.992,10.5.368.485a1.917,1.917,0,0,1,.22.365A1.889,1.889,0,0,1,709.565,527.364Z" transform="translate(-663.419 -419.444)" fill="url(#d)"/><path d="M998.153,316.212,976.071,287.2l17.823-2.277,14.862-1.9a2.028,2.028,0,0,1,2.124,2.79l-5.788,13.82Z" transform="translate(-857.969 -283.011)" fill="#faaf9a"/><path d="M1037.584,299.638l-11.2-14.712,14.863-1.9a2.028,2.028,0,0,1,2.124,2.79Z" transform="translate(-890.46 -283.011)" fill="#1e1916"/></g></svg>