<svg width="24" height="20" fill="#377CFD" xmlns="http://www.w3.org/2000/svg"><path d="M11.667 1.667c-1.771 0-3.427.301-4.968.905-1.54.603-2.765 1.417-3.672 2.441-.907 1.024-1.36 2.131-1.36 3.32 0 .973.31 1.9.93 2.78.621.881 1.496 1.643 2.624 2.285l1.133.652-.351 1.25a9.339 9.339 0 01-.912 2.24 12.842 12.842 0 003.58-2.227l.56-.495.743.078c.599.07 1.163.104 1.693.104 1.77 0 3.426-.302 4.967-.905 1.54-.603 2.765-1.417 3.672-2.441.907-1.025 1.36-2.131 1.36-3.32 0-1.19-.453-2.297-1.36-3.321s-2.131-1.838-3.672-2.441c-1.54-.604-3.197-.905-4.967-.905zm11.666 6.666c0 1.51-.52 2.906-1.562 4.187-1.042 1.28-2.457 2.291-4.245 3.033-1.788.743-3.741 1.114-5.86 1.114a17.82 17.82 0 01-1.887-.105c-1.72 1.52-3.716 2.57-5.99 3.151-.425.122-.92.218-1.484.287H2.24a.52.52 0 01-.352-.137.663.663 0 01-.208-.358v-.013c-.026-.035-.029-.087-.007-.156a.348.348 0 00.026-.13c-.004-.018.015-.059.059-.124l.078-.117.091-.11.104-.118a175.024 175.024 0 01.853-.944c.091-.1.226-.271.404-.514.178-.243.319-.465.423-.664.104-.2.221-.456.352-.769.13-.312.243-.642.338-.99-1.363-.772-2.437-1.727-3.223-2.864C.393 10.855 0 9.635 0 8.333c0-1.51.52-2.905 1.563-4.186 1.041-1.28 2.456-2.292 4.244-3.034C7.595.371 9.55 0 11.667 0c2.118 0 4.07.371 5.859 1.113 1.788.742 3.203 1.754 4.245 3.034 1.041 1.28 1.562 2.676 1.562 4.186z"/></svg>