<svg width="40" height="40" fill="none" xmlns="http://www.w3.org/2000/svg"><path d="M14.228 7.33a.686.686 0 01.67.32l.058.118a.706.706 0 01.058.171l.55 8.21h0l.274 4.119c.008.565.1 1.125.27 1.66l.02.064.027.062a3.582 3.582 0 003.454 2.18l.018-.001.018-.001 13.268-.867a.688.688 0 01.462.186l.005.006c.09.084.152.195.18.316l.006.09c-.546 6.9-5.637 12.67-12.579 14.167h0c-6.98 1.506-14.122-1.68-17.556-7.792a14.927 14.927 0 01-1.811-5.716l-.003-.03-.005-.031a10.536 10.536 0 01-.11-1.727V22.805C1.492 15.37 6.776 8.909 14.228 7.329z" stroke="#FFC83E" stroke-width="3"/><path d="M21.671 1.5h.015l.015.001c8.282.213 15.231 6.07 16.747 13.972l-.01.023.007.324.004.157a.1.1 0 01-.02.034l-.001.002a.153.153 0 01-.064.044l-.091.013-15.307.992-.026.002-.025.003a.334.334 0 01-.255-.083l-.002-.002a.268.268 0 01-.081-.132L21.554 1.613v-.03a.069.069 0 01.024-.049h0a.13.13 0 01.093-.034z" stroke="#FFC83E" stroke-width="3"/></svg>