<svg width="30" height="40" fill="none" xmlns="http://www.w3.org/2000/svg"><path d="M23.799 3.311A14.544 14.544 0 0011.654.293a14.545 14.545 0 00-11.4 11.49 14.672 14.672 0 003.128 12.09 8.254 8.254 0 012.072 5.218v5.455A5.454 5.454 0 0010.908 40h7.273a5.454 5.454 0 005.454-5.454v-5.109a9.4 9.4 0 012.218-5.8 14.545 14.545 0 00-2.055-20.362v.036zm-3.8 31.235a1.818 1.818 0 01-1.818 1.818h-7.273a1.818 1.818 0 01-1.818-1.818v-1.818H20v1.818zm3.036-13.163a12.963 12.963 0 00-3.036 7.709h-3.636v-5.455a1.818 1.818 0 00-3.637 0v5.454H9.09a11.817 11.817 0 00-2.909-7.563 10.909 10.909 0 016.164-17.671 10.909 10.909 0 0113.108 10.69 10.708 10.708 0 01-2.418 6.836z" fill="#377CFD"/></svg>