<svg xmlns="http://www.w3.org/2000/svg" width="24" height="24" fill="none"><path opacity=".3" d="M14 2H6a2 2 0 00-2 2v16a2 2 0 002 2h12a2 2 0 002-2V8l-6-6z" fill="#000"/><path d="M20 8l-6-6v4a2 2 0 002 2h4z" fill="#000"/><rect x="13.699" y="13.666" width="4.428" height="1.731" rx=".865" transform="rotate(45 13.7 13.666)" fill="#000"/><path d="M15 12c0 2.2-1.8 4-4 4s-4-1.8-4-4 1.8-4 4-4 4 1.8 4 4zm-4-2.4c-1.32 0-2.4 1.08-2.4 2.4 0 1.32 1.08 2.4 2.4 2.4 1.32 0 2.4-1.08 2.4-2.4 0-1.32-1.08-2.4-2.4-2.4z" fill="#000"/></svg>