<svg width="400" height="400" fill="none" xmlns="http://www.w3.org/2000/svg"><g clip-path="url(#clip0)"><path d="M200 0c-4.4 0-8.75.15-13.075.425l1.6 24.95a177.921 177.921 0 0122.95 0l1.6-24.95A202.829 202.829 0 00200 0zm-39 3.8c-8.65 1.725-17.1 4-25.3 6.75l8.025 23.7a172.164 172.164 0 0122.1-5.925L161 3.825V3.8zm103.3 6.775a198.68 198.68 0 00-25.275-6.75l-4.85 24.5c7.55 1.5 14.925 3.5 22.1 5.925l8.025-23.675zM311.125 33.7a199.991 199.991 0 00-22.65-13.1L277.4 43c6.875 3.4 13.5 7.25 19.825 11.475l13.9-20.775zM111.5 20.6c-7.85 3.875-15.4 8.25-22.625 13.1l13.9 20.75A176.733 176.733 0 01122.6 43l-11.1-22.4zM68.125 49.625a201.885 201.885 0 00-18.5 18.5l18.8 16.5c5.05-5.75 10.45-11.15 16.2-16.2l-16.5-18.8zm282.25 18.5a201.42 201.42 0 00-18.5-18.5l-16.5 18.8c5.75 5.05 11.175 10.45 16.2 16.2l18.8-16.5zM379.4 111.5a199.402 199.402 0 00-13.1-22.625l-20.75 13.9A176.753 176.753 0 01357 122.6l22.4-11.075v-.025zM33.7 88.875c-4.85 7.225-9.25 14.775-13.1 22.65L43 122.6c3.4-6.875 7.25-13.5 11.475-19.825L33.7 88.875zM10.575 135.7a198.658 198.658 0 00-6.75 25.275l24.5 4.85c1.5-7.55 3.5-14.925 5.925-22.1L10.575 135.7zM396.2 161a198.62 198.62 0 00-6.75-25.3l-23.7 8.025a172.164 172.164 0 015.925 22.1l24.5-4.85.025.025zM.425 186.925a202.825 202.825 0 000 26.15l24.95-1.6a177.921 177.921 0 010-22.95l-24.95-1.6zM400 200a202.957 202.957 0 00-.425-13.075l-24.95 1.6c.494 7.642.494 15.308 0 22.95l24.95 1.6c.282-4.353.424-8.713.425-13.075zM3.8 239c1.725 8.65 4 17.1 6.75 25.3l23.7-8.025a173.595 173.595 0 01-5.925-22.1l-24.5 4.85L3.8 239zm385.625 25.3c2.8-8.2 5.05-16.65 6.75-25.275l-24.5-4.85c-1.5 7.55-3.5 14.925-5.925 22.1l23.675 8.025zM20.6 288.5a200.051 200.051 0 0013.1 22.625l20.75-13.9A174.978 174.978 0 0143 277.4l-22.4 11.075v.025zm345.7 22.625c4.85-7.225 9.25-14.775 13.1-22.65L357 277.4c-3.4 6.875-7.25 13.5-11.475 19.825l20.775 13.9zm-316.675 20.75c5.75 6.55 11.95 12.75 18.5 18.5l16.5-18.8a176.181 176.181 0 01-16.2-16.2l-18.8 16.5zm282.25 18.5c6.55-5.75 12.75-11.95 18.5-18.5l-18.8-16.5a170.834 170.834 0 01-16.2 16.2l16.5 18.8zM288.5 379.4c7.85-3.875 15.4-8.25 22.625-13.1l-13.9-20.75A176.718 176.718 0 01277.4 357l11.075 22.4h.025zM88.875 366.3c7.225 4.85 14.775 9.25 22.65 13.1L122.6 357a174.919 174.919 0 01-19.825-11.475l-13.9 20.775zm46.825 23.125c8.2 2.8 16.65 5.05 25.275 6.75l4.85-24.5a173.912 173.912 0 01-22.1-5.925l-8.025 23.675zM239 396.2a198.62 198.62 0 0025.3-6.75l-8.025-23.7a173.957 173.957 0 01-22.1 5.925l4.85 24.5-.025.025zm-52.075 3.375c8.707.563 17.442.563 26.15 0l-1.6-24.95c-7.642.494-15.308.494-22.95 0l-1.6 24.95zM212.5 112.5a12.501 12.501 0 00-25 0v75h-75a12.501 12.501 0 000 25h75v75a12.501 12.501 0 0025 0v-75h75a12.501 12.501 0 000-25h-75v-75z" fill="#BDC5D1"/></g><defs><clipPath id="clip0"><path fill="#fff" d="M0 0h400v400H0z"/></clipPath></defs></svg>