<svg xmlns="http://www.w3.org/2000/svg" xmlns:xlink="http://www.w3.org/1999/xlink" style="margin:auto;display:block;z-index:1;position:relative;shape-rendering:auto" width="500" height="350" preserveAspectRatio="xMidYMid">
  <defs>
    <path id="a" d="M-6-6H6V6H-6Z" fill="none" stroke="inherit" stroke-width="1.8" />
    <path id="c" d="M0-6.3A6.3 6.3 0 0 1 0 6.3 6.3 6.3 0 0 1 0-6.3" fill="none" stroke="inherit" stroke-width="1.8" />
    <path id="h" d="M0-5.9 6.8 6H-6.8Z" fill="none" stroke="inherit" stroke-width="1.8" />
    <linearGradient id="gradC_linear" gradientUnits="userSpaceOnUse">
      <stop stop-color="#D36A54" />
      <stop offset="0.46875" stop-color="#FFC087" />
      <stop offset="1" stop-color="#FFEAB5" />
    </linearGradient>
  </defs>
  <g>
    <circle id="gradC" fill="none" cx="440" cy="192" r="102" transform="rotate(60 500 200)" transform-origin="center" stroke="url(#gradC_linear)" stroke-width="12" />
    <animateTransform xlink:href="#gradC" stroke-width="0" attributeName="transform" type="scale" dur="12s" repeatCount="indefinite" calcMode="ease" from="0.5" to="1" />
    <animate xlink:href="#gradC" attributeName="opacity" values="1;0;1" dur="1s" repeatCount="indefinite" begin="0s" keyTimes="0;0.75;1" />
    <animateTransform xlink:href="#gradC" attributeName="transform" type="rotate" from="5 432 432" to="-5 432 432" dur="4s" repeatCount="indefinite" />
  </g>
  <g>
    <circle id="gradC1" fill="none" cx="40" cy="200" r="50" transform="rotate(60 520 200)" transform-origin="left" stroke="url(#gradC_linear)" stroke-width="8" />
    <animateTransform fill="freeze" xlink:href="#gradC1" stroke-width="0" attributeName="transform" type="scale" dur="12s" repeatCount="indefinite" calcMode="ease" from="0.5" to="1" />
    <animate fill="freeze" xlink:href="#gradC1" attributeName="opacity" values="1;0;1" dur="1s" repeatCount="indefinite" begin="0s" keyTimes="0;0.75;1" />
    <animateTransform fill="freeze" xlink:href="#gradC1" attributeName="transform" type="rotate" from="-5 432 432" to="5 432 432" dur="6s" repeatCount="indefinite" />
  </g>

  <path id="d" d="M56.5 204.1c0 26.7-6.6 7.7-14.2 7.7S28 230.8 28 204s6.6-7.7 14.3-7.7 14.2-19 14.2 7.7z" fill="none" stroke="none" />
  <use xlink:href="#c" stroke="#EB3669">
    <animateMotion begin="-2.381799418026138s" dur="18.546200027780493s" keyPoints="0;1" keyTimes="0;1" repeatCount="indefinite" calcMode="linear">
      <mpath xlink:href="#d" />
    </animateMotion>
  </use>
  <path id="e" d="M94.2 119c0 46.3-11.3 13.3-24.6 13.3s-24.5 33-24.5-13.2 11.3-13.3 24.5-13.3 24.6-33 24.6 13.3z" fill="none" stroke="none" />
  <use xlink:href="#c" stroke="#3B85DB">
    <animateMotion begin="-2.5831392168795198s" dur="19.205622913576367s" keyPoints="1;0" keyTimes="0;1" repeatCount="indefinite" calcMode="linear">
      <mpath xlink:href="#e" />
    </animateMotion>
  </use>
  <path id="f" d="M114.2 79.8c0 32.3-7.9 9.3-17.2 9.3s-17 23-17-9.3 7.9-9.2 17.1-9.2 17.2-23 17.2 9.2z" fill="none" stroke="none" />
  <use xlink:href="#c" stroke="#4b22d6">
    <animateMotion begin="-3s" dur="17s" keyPoints="1;0" keyTimes="0;1" repeatCount="indefinite" calcMode="linear">
      <mpath xlink:href="#f" />
    </animateMotion>
  </use>
  <path id="g" d="M163.4 38c0 52.9-13 15.1-28.2 15.1S107.1 91 107.1 38s13-15.2 28.1-15.2S163.4-15 163.4 38z" fill="none" stroke="none" />
  <use xlink:href="#c" stroke="#F9A619">
    <animateMotion begin="-1s" dur="11s" keyPoints="1;0" keyTimes="0;1" repeatCount="indefinite" calcMode="linear">
      <mpath xlink:href="#g" />
    </animateMotion>
  </use>
  <path id="i" d="M176.3 104.2c0 57.5-14 16.5-30.6 16.5s-30.6 41-30.6-16.5 14-16.5 30.6-16.5 30.6-41 30.6 16.5z" fill="none" stroke="none" />
  <use xlink:href="#h" stroke="#149B5F">
    <animateMotion begin="-3s" dur="16s" keyPoints="1;0" keyTimes="0;1" repeatCount="indefinite" calcMode="linear">
      <mpath xlink:href="#i" />
    </animateMotion>
  </use>
  <path id="j" d="M186.2 269.7c0 29.8-7.3 8.6-15.8 8.6s-15.9 21.2-15.9-8.6 7.3-8.6 15.9-8.6 15.8-21.2 15.8 8.6z" fill="none" stroke="none" />
  <use xlink:href="#a" stroke="#EB3669">
    <animateMotion begin="-0s" dur="13s" keyPoints="1;0" keyTimes="0;1" repeatCount="indefinite" calcMode="linear">
      <mpath xlink:href="#j" />
    </animateMotion>
  </use>
  <path id="k" d="M253.2 170.2c0 64.8-15.8 18.6-34.4 18.6s-34.5 46.2-34.5-18.6 15.9-18.6 34.5-18.6 34.4-46.1 34.4 18.6z" fill="none" stroke="none" />
  <use xlink:href="#a" stroke="#F9A619">
    <animateMotion begin="-4s" dur="18s" keyPoints="0;1" keyTimes="0;1" repeatCount="indefinite" calcMode="linear">
      <mpath xlink:href="#k" />
    </animateMotion>
  </use>
  <path id="l" d="M259 165.5c0 53.3-13 15.3-28.3 15.3s-28.3 38-28.3-15.3 13-15.3 28.3-15.3 28.4-38 28.4 15.3z" fill="none" stroke="none" />
  <use xlink:href="#c" stroke="#3B85DB">
    <animateMotion begin="-1s" dur="17s" keyPoints="0;1" keyTimes="0;1" repeatCount="indefinite" calcMode="linear">
      <mpath xlink:href="#l" />
    </animateMotion>
  </use>
  <path id="m" d="M270.2 132.9c0 19.1-4.7 5.5-10.2 5.5s-10.2 13.6-10.2-5.5 4.7-5.5 10.2-5.5 10.2-13.7 10.2 5.5z" fill="none" stroke="none" />
  <use xlink:href="#h" stroke="#149B5F">
    <animateMotion begin="-0s" dur="19s" keyPoints="0;1" keyTimes="0;1" repeatCount="indefinite" calcMode="linear">
      <mpath xlink:href="#m" />
    </animateMotion>
  </use>
  <path id="n" d="M313 107.5c0 36.1-8.8 10.4-19.2 10.4s-19.2 25.7-19.2-10.4 8.9-10.4 19.2-10.4 19.3-25.7 19.3 10.4z" fill="none" stroke="none" />
  <use xlink:href="#a" stroke="#EB3669">
    <animateMotion begin="-0s" dur="15s" keyPoints="0;1" keyTimes="0;1" repeatCount="indefinite" calcMode="linear">
      <mpath xlink:href="#n" />
    </animateMotion>
  </use>
  <path id="o" d="M333 156.7c0 36.6-8.9 10.5-19.4 10.5s-19.5 26.1-19.5-10.5 9-10.5 19.5-10.5 19.5-26 19.5 10.5z" fill="none" stroke="none" />
  <use xlink:href="#c" stroke="#3B85DB">
    <animateMotion begin="-3s" dur="10s" keyPoints="1;0" keyTimes="0;1" repeatCount="indefinite" calcMode="linear">
      <mpath xlink:href="#o" />
    </animateMotion>
  </use>
  <path id="p" d="M355.2 44.8c0 26.4-6.5 7.6-14 7.6s-14 18.8-14-7.6 6.4-7.5 14-7.5 14-18.8 14 7.5z" fill="none" stroke="none" />
  <use xlink:href="#a" stroke="#4b22d6">
    <animateMotion begin="-1s" dur="19s" keyPoints="0;1" keyTimes="0;1" repeatCount="indefinite" calcMode="linear">
      <mpath xlink:href="#p" />
    </animateMotion>
  </use>
  <path id="q" d="M391.7 71c0 23.8-5.9 6.8-12.7 6.8s-12.6 17-12.6-6.8 5.8-6.8 12.6-6.8 12.7-17 12.7 6.8z" fill="none" stroke="none" />
  <use xlink:href="#a" stroke="#F9A619">
    <animateMotion begin="-0s" dur="15s" keyPoints="1;0" keyTimes="0;1" repeatCount="indefinite" calcMode="linear">
      <mpath xlink:href="#q" />
    </animateMotion>
  </use>
  <path id="r" d="M430.2 208.8c0 57.6-14 16.6-30.6 16.6s-30.7 41-30.7-16.6 14.1-16.5 30.7-16.5 30.6-41 30.6 16.5z" fill="none" stroke="none" />
  <use xlink:href="#c" stroke="#149B5F">
    <animateMotion begin="-1s" dur="10s" keyPoints="1;0" keyTimes="0;1" repeatCount="indefinite" calcMode="linear">
      <mpath xlink:href="#r" />
    </animateMotion>
  </use>
  <path id="s" d="M444 188.3c0 26.3-6.4 7.5-14 7.5s-14 18.8-14-7.5 6.5-7.6 14-7.6 14-18.7 14 7.6z" fill="none" stroke="none" />
  <use xlink:href="#h" stroke="#4b22d6">
    <animateMotion begin="-4s" dur="12s" keyPoints="1;0" keyTimes="0;1" repeatCount="indefinite" calcMode="linear">
      <mpath xlink:href="#s" />
    </animateMotion>
  </use>
  <path id="t" d="M475.7 325c0 42.8-10.5 12.3-22.8 12.3s-22.8 30.5-22.8-12.4 10.5-12.3 22.8-12.3 22.8-30.6 22.8 12.3z" fill="none" stroke="none" />
  <use xlink:href="#c" stroke="#F9A619">
    <animateMotion begin="-3s" dur="12s" keyPoints="1;0" keyTimes="0;1" repeatCount="indefinite" calcMode="linear">
      <mpath xlink:href="#t" />
    </animateMotion>
  </use>
  <path id="u" d="M502.3 250.3c0 40-9.8 11.5-21.3 11.5s-21.2 28.5-21.2-11.5 9.8-11.5 21.2-11.5 21.3-28.5 21.3 11.5z" fill="none" stroke="none" />
  <use xlink:href="#a" stroke="#149B5F">
    <animateMotion begin="-3s" dur="15s" keyPoints="0;1" keyTimes="0;1" repeatCount="indefinite" calcMode="linear">
      <mpath xlink:href="#u" />
    </animateMotion>
  </use>
</svg>