<svg xmlns="http://www.w3.org/2000/svg" xmlns:xlink="http://www.w3.org/1999/xlink" style="margin:auto;display:block;z-index:1;position:relative;shape-rendering:auto" width="500" height="350" preserveAspectRatio="xMidYMid" viewBox="0 0 500 350">
  <path id="a" d="M158.4 61.9c0 20.6-5 5.9-10.9 5.9s-11 14.7-11-5.9 5-6 11-6 11-14.6 11 6z" fill="none" stroke="none"/>
  <circle r="2.4" fill="#9df871">
    <animateMotion begin="-7.499947365785422s" dur="30s" repeatCount="indefinite">
      <mpath xlink:href="#a"/>
    </animateMotion>
  </circle>
  <path id="b" d="M180.6 104.5c0 21-5 6-11.1 6s-11.2 15-11.2-6 5.1-6 11.2-6 11.1-15 11.1 6z" fill="none" stroke="none"/>
  <circle r="1.3" fill="#FCBC14">
    <animateMotion begin="-7.749023273797366s" dur="30s" repeatCount="indefinite">
      <mpath xlink:href="#b"/>
    </animateMotion>
  </circle>
  <path id="c" d="M273 181.6c0 30.8-7.6 8.9-16.4 8.9s-16.4 21.9-16.4-8.9 7.5-8.8 16.4-8.8 16.3-21.9 16.3 8.8z" fill="none" stroke="none"/>
  <circle r="1.9" fill="#51cacc">
    <animateMotion begin="-1.38820426538804s" dur="30s" repeatCount="indefinite">
      <mpath xlink:href="#c"/>
    </animateMotion>
  </circle>
  <path id="d" d="M350.3 189.6c0 28.3-6.9 8.1-15 8.1s-15 20.2-15-8 6.9-8.2 15-8.2 15-20.1 15 8.1z" fill="none" stroke="none"/>
  <circle r="1.8" fill="#FCBC14">
    <animateMotion begin="-6.587943479277667s" dur="30s" repeatCount="indefinite">
      <mpath xlink:href="#d"/>
    </animateMotion>
  </circle>
  <path id="e" d="M239.7 185.7c0 32.7-8 9.4-17.4 9.4s-17.4 23.3-17.4-9.4 8-9.3 17.4-9.3 17.4-23.3 17.4 9.3z" fill="none" stroke="none"/>
  <circle r="2.5" fill="#917FE5">
    <animateMotion begin="-9.90726238105886s" dur="30s" repeatCount="indefinite">
      <mpath xlink:href="#e"/>
    </animateMotion>
  </circle>
  <path id="f" d="M425 105.1c0 27-6.6 7.8-14.3 7.8s-14.3 19.1-14.3-7.8 6.6-7.7 14.3-7.7 14.3-19.2 14.3 7.7z" fill="none" stroke="none"/>
  <circle r="2.1" fill="#ff708e">
    <animateMotion begin="-2.8890870105916377s" dur="30s" repeatCount="indefinite">
      <mpath xlink:href="#f"/>
    </animateMotion>
  </circle>
  <path id="g" d="M169.3 253.8c0 31.6-7.7 9-16.7 9s-16.8 22.6-16.8-9 7.7-9 16.8-9 16.7-22.5 16.7 9z" fill="none" stroke="none"/>
  <circle r="2.1" fill="#9df871">
    <animateMotion begin="-8.12692541585365s" dur="30s" repeatCount="indefinite">
      <mpath xlink:href="#g"/>
    </animateMotion>
  </circle>
  <path id="h" d="M231.8 16.6c0 27-6.6 7.8-14.4 7.8s-14.3 19.2-14.3-7.8S209.7 9 217.4 9s14.4-19.3 14.4 7.7z" fill="none" stroke="none"/>
  <circle r="2.2" fill="#FCBC14">
    <animateMotion begin="-0.9997969680737717s" dur="30s" repeatCount="indefinite">
      <mpath xlink:href="#h"/>
    </animateMotion>
  </circle>
  <path id="i" d="M133.4 10c0 24.7-6 7-13.1 7S107 34.7 107 30s6-7.2 13.2-7.2 13.1-17.7 13.1 7.1z" fill="none" stroke="none"/>
  <circle r="2.4" fill="#9df871">
    <animateMotion begin="-6.471440330095344s" dur="30s" repeatCount="indefinite">
      <mpath xlink:href="#i"/>
    </animateMotion>
  </circle>
  <path id="j" d="M463.9 121.7c0 35.3-8.7 10.1-18.8 10.1s-18.8 25.2-18.8-10.1 8.7-10.2 18.8-10.2 18.8-25.1 18.8 10.2z" fill="none" stroke="none"/>
  <circle r="2.2" fill="#FCBC14">
    <animateMotion begin="-8.94354384518116s" dur="30s" repeatCount="indefinite">
      <mpath xlink:href="#j"/>
    </animateMotion>
  </circle>
  <path id="k" d="M149.5 6.7c0 28-6.8 8-14.8 8s-14.8 20-14.8-8 6.8-8 14.8-8 14.8-19.9 14.8 8z" fill="none" stroke="none"/>
  <circle r="2.2" fill="#917FE5">
    <animateMotion begin="-9.57789265580368s" dur="30s" repeatCount="indefinite">
      <mpath xlink:href="#k"/>
    </animateMotion>
  </circle>
  <path id="l" d="M105 122.7c0 37-9 10.6-19.6 10.6s-19.7 26.4-19.7-10.6 9-10.7 19.7-10.7S105 85.7 105 122.7z" fill="none" stroke="none"/>
  <circle r="1.4" fill="#ff708e">
    <animateMotion begin="-9.941613137893084s" dur="30s" repeatCount="indefinite">
      <mpath xlink:href="#l"/>
    </animateMotion>
  </circle>
  <path id="m" d="M493.2 290.3c0 33.2-8.2 9.6-17.7 9.6s-17.7 23.6-17.7-9.6 8.2-9.5 17.7-9.5 17.7-23.7 17.7 9.5z" fill="none" stroke="none"/>
  <circle r="1.3" fill="#917FE5">
    <animateMotion begin="-5.361679384130131s" dur="30s" repeatCount="indefinite">
      <mpath xlink:href="#m"/>
    </animateMotion>
  </circle>
  <path id="n" d="M316.3 263c0 25.4-6.2 7.3-13.5 7.3s-13.6 18.1-13.6-7.4 6.2-7.3 13.6-7.3 13.5-18.1 13.5 7.3z" fill="none" stroke="none"/>
  <circle r="1.6" fill="#917FE5">
    <animateMotion begin="-0.17235681240829415s" dur="30s" repeatCount="indefinite">
      <mpath xlink:href="#n"/>
    </animateMotion>
  </circle>
  <path id="o" d="M116.2 43.2c0 37.6-9.2 10.8-20 10.8s-20 26.8-20-10.8 9.2-10.8 20-10.8 20-26.8 20 10.8z" fill="none" stroke="none"/>
  <circle r="2.5" fill="#51cacc">
    <animateMotion begin="-0.4571320393428291s" dur="30s" repeatCount="indefinite">
      <mpath xlink:href="#o"/>
    </animateMotion>
  </circle>
  <path id="p" d="M23.3 208.1c0 31.6-7.7 9-16.8 9s-16.7 22.6-16.7-9 7.7-9 16.7-9 16.8-22.5 16.8 9z" fill="none" stroke="none"/>
  <circle r="1.7" fill="#51cacc">
    <animateMotion begin="-4.8875509532644035s" dur="30s" repeatCount="indefinite">
      <mpath xlink:href="#p"/>
    </animateMotion>
  </circle>
  <path id="q" d="M41 7.3c0 36.4-9 10.5-19.4 10.5S2.2 43.8 2.2 7.3s9-10.5 19.4-10.5S41-29.2 41 7.3z" fill="none" stroke="none"/>
  <circle r="1.9" fill="#9df871">
    <animateMotion begin="-2.850853508208444s" dur="30s" repeatCount="indefinite">
      <mpath xlink:href="#q"/>
    </animateMotion>
  </circle>
  <path id="r" d="M108.2 14.7c0 23.3-5.7 6.7-12.4 6.7S83.3 38 83.3 14.7 89 7.9 95.8 7.9s12.4-16.6 12.4 6.8z" fill="none" stroke="none"/>
  <circle r="2.5" fill="#9df871">
    <animateMotion begin="-4.148101001228919s" dur="30s" repeatCount="indefinite">
      <mpath xlink:href="#r"/>
    </animateMotion>
  </circle>
  <path id="s" d="M365.5 206.6c0 32.8-8 9.4-17.5 9.4s-17.4 23.4-17.4-9.4 8-9.4 17.4-9.4 17.5-23.4 17.5 9.4z" fill="none" stroke="none"/>
  <circle r="1.6" fill="#917FE5">
    <animateMotion begin="-0.23429273132084205s" dur="30s" repeatCount="indefinite">
      <mpath xlink:href="#s"/>
    </animateMotion>
  </circle>
  <path id="t" d="M219 159.2c0 24.2-6 7-13 7s-12.8 17.2-12.8-7 6-7 12.9-7 12.8-17.2 12.8 7z" fill="none" stroke="none"/>
  <circle r="2" fill="#917FE5">
    <animateMotion begin="-2.3923815793194514s" dur="30s" repeatCount="indefinite">
      <mpath xlink:href="#t"/>
    </animateMotion>
  </circle>
  <path id="u" d="M343.5 173.5c0 33.5-8.3 9.6-17.9 9.6s-17.8 24-17.8-9.6 8.2-9.7 17.8-9.7 17.9-23.9 17.9 9.7z" fill="none" stroke="none"/>
  <circle r="1.6" fill="#FCBC14">
    <animateMotion begin="-1.004980511849416s" dur="30s" repeatCount="indefinite">
      <mpath xlink:href="#u"/>
    </animateMotion>
  </circle>
  <path id="v" d="M303.1 22.4c0 19.3-4.7 5.5-10.2 5.5s-10.2 13.8-10.2-5.5 4.7-5.5 10.2-5.5S303 3.2 303 22.4z" fill="none" stroke="none"/>
  <circle r="1.5" fill="#917FE5">
    <animateMotion begin="-6.570953360428813s" dur="30s" repeatCount="indefinite">
      <mpath xlink:href="#v"/>
    </animateMotion>
  </circle>
  <path id="w" d="M311.6 37.5c0 33.1-8.1 9.5-17.6 9.5s-17.6 23.6-17.6-9.5 8-9.5 17.6-9.5 17.6-23.6 17.6 9.5z" fill="none" stroke="none"/>
  <circle r="2.1" fill="#51cacc">
    <animateMotion begin="-9.378223999269615s" dur="30s" repeatCount="indefinite">
      <mpath xlink:href="#w"/>
    </animateMotion>
  </circle>
  <path id="x" d="M462.5 313.1c0 32.4-8 9.3-17.2 9.3s-17.3 23.1-17.3-9.3 8-9.3 17.3-9.3 17.2-23.1 17.2 9.3z" fill="none" stroke="none"/>
  <circle r="2.4" fill="#51cacc">
    <animateMotion begin="-8.815892800592518s" dur="30s" repeatCount="indefinite">
      <mpath xlink:href="#x"/>
    </animateMotion>
  </circle>
  <path id="y" d="M227.7 94.3c0 30.1-7.3 8.6-16 8.6s-16 21.5-16-8.6 7.3-8.7 16-8.7 16-21.5 16 8.7z" fill="none" stroke="none"/>
  <circle r="2.1" fill="#51cacc">
    <animateMotion begin="-3.1452554116307208s" dur="30s" repeatCount="indefinite">
      <mpath xlink:href="#y"/>
    </animateMotion>
  </circle>
  <path id="z" d="M459.6 209.9c0 21.2-5.2 6-11.3 6s-11.2 15.2-11.2-6 5.2-6 11.2-6 11.3-15.2 11.3 6z" fill="none" stroke="none"/>
  <circle r="1.8" fill="#FCBC14">
    <animateMotion begin="-0.10336099729749249s" dur="30s" repeatCount="indefinite">
      <mpath xlink:href="#z"/>
    </animateMotion>
  </circle>
  <path id="A" d="M312 45.4c0 27.7-6.7 8-14.7 8s-14.7 19.7-14.7-8 6.8-8 14.7-8 14.7-19.7 14.7 8z" fill="none" stroke="none"/>
  <circle r="1.3" fill="#ff708e">
    <animateMotion begin="-4.856569490153639s" dur="30s" repeatCount="indefinite">
      <mpath xlink:href="#A"/>
    </animateMotion>
  </circle>
  <path id="B" d="M331.7 235.7c0 27-6.5 7.7-14.3 7.7s-14.3 19.2-14.3-7.7 6.6-7.7 14.3-7.7 14.3-19.2 14.3 7.7z" fill="none" stroke="none"/>
  <circle r="2" fill="#ff708e">
    <animateMotion begin="-1.313898784688432s" dur="30s" repeatCount="indefinite">
      <mpath xlink:href="#B"/>
    </animateMotion>
  </circle>
  <path id="C" d="M76.6 102c0 24.1-6 6.9-12.9 6.9s-12.9 17.2-12.9-7 6-7 13-7 12.8-17.2 12.8 7z" fill="none" stroke="none"/>
  <circle r="1.7" fill="#9df871">
    <animateMotion begin="-6.096114860834603s" dur="30s" repeatCount="indefinite">
      <mpath xlink:href="#C"/>
    </animateMotion>
  </circle>
  <path id="D" d="M69.8 194.2c0 22.9-5.6 6.6-12.1 6.6s-12.2 16.3-12.2-6.6 5.6-6.5 12.2-6.5 12.1-16.3 12.1 6.5z" fill="none" stroke="none"/>
  <circle r="2.3" fill="#917FE5">
    <animateMotion begin="-3.6882028575495984s" dur="30s" repeatCount="indefinite">
      <mpath xlink:href="#D"/>
    </animateMotion>
  </circle>
</svg>