<svg width="158" height="158" viewBox="0 0 158 158" fill="none" xmlns="http://www.w3.org/2000/svg">
<path d="M83.9007 156.3C63.1007 161.9 45.7007 151.8 22.4007 120.9C-11.9993 75.1998 -3.99927 52.4998 36.3007 22.1998C77.1007 -8.5002 101.101 -9.90019 135.601 35.7998C168.801 79.8998 162.401 104.7 121.601 135.4C107.201 146.3 95.0007 153.8 83.9007 156.3Z" fill="#FF4A4A"/>
<path d="M115.101 56.6999C115.001 56.5999 115.001 56.6999 114.901 56.5999C109.901 55.8999 104.801 57.1999 100.801 60.2999C96.8008 63.3999 94.1008 67.7999 93.4008 72.8999L82.8008 148.6C82.4008 151.7 84.4008 154.7 87.4008 155.4C90.7008 154.4 94.1009 152.9 97.7009 151.1C100.301 149.7 103.101 148.2 105.901 146.5C110.901 143.4 116.101 139.7 121.801 135.5C148.201 115.7 160.201 98.2999 156.401 76.5999C156.001 74.4999 155.601 72.2999 154.901 70.0999C154.301 67.8999 153.401 65.6999 152.401 63.3999L115.101 56.6999Z" fill="#FF9992"/>
<path d="M58.3001 87.0999C65.5001 79.0999 64.8001 66.7999 56.8001 59.5999C48.8001 52.3999 36.5001 53.0999 29.3001 61.0999C22.1001 69.0999 22.8001 81.3999 30.8001 88.5999C38.8001 95.7999 51.1001 95.0999 58.3001 87.0999Z" fill="#FF9992"/>
</svg>
