<svg width="205" height="289" viewBox="0 0 205 289" fill="none" xmlns="http://www.w3.org/2000/svg">
<path d="M182.699 30.9001C159.999 16.3001 147.199 16.5001 130.699 42.2001L12.4992 226.2C-4.00078 251.9 1.19923 263.7 24.0992 278.4C46.7992 293 59.5992 292.8 76.0992 267.1L194.299 83.1001C210.899 57.4001 205.699 45.6001 182.699 30.9001ZM29.3992 269.9C25.5992 267.4 24.4992 262.4 26.8992 258.5C29.3992 254.7 34.3992 253.6 38.2992 256C42.0992 258.5 43.1992 263.6 40.7992 267.4C38.3992 271.2 33.2992 272.3 29.3992 269.9Z" fill="#FF8AE1"/>
<path d="M146.6 6.29977C122.1 -4.80023 109.4 -2.80023 96.7997 24.9998L6.29972 224.1C-6.30028 251.9 0.49972 262.8 25.2997 274.1C49.7997 285.2 62.4997 283.2 75.1997 255.4L165.7 56.2998C178.3 28.4998 171.5 17.5998 146.6 6.29977ZM29.2997 264.9C25.1997 263 23.2997 258.1 25.1997 254C27.0997 249.9 31.9997 248 36.0997 249.9C40.1997 251.8 42.0997 256.7 40.1997 260.8C38.3997 265 33.4997 266.8 29.2997 264.9Z" fill="#FFBCFF"/>
<path opacity="0.23" d="M115.899 74.1002C98.0992 66.0002 88.8992 67.5002 79.7992 87.7002L78.7992 90.0002C69.5992 110.2 74.5992 118.1 92.5992 126.2C110.399 134.3 119.599 132.8 128.699 112.6L129.699 110.3C138.799 90.2002 133.899 82.3002 115.899 74.1002Z" fill="white"/>
<path opacity="0.41" d="M89.7 131.8C71.9 123.7 62.7 125.2 53.6 145.4L52.6 147.7C43.4 167.9 48.4 175.8 66.4 183.9C84.2 192 93.4 190.5 102.5 170.3L103.5 168C112.7 147.8 107.7 139.9 89.7 131.8Z" fill="#FF8AE1"/>
<path d="M63.5008 189.4C45.7008 181.3 36.5007 182.8 27.4007 203L26.4007 205.3C17.2007 225.5 22.2008 233.4 40.2008 241.5C58.0007 249.6 67.2008 248.1 76.3008 227.9L77.3008 225.6C86.5008 205.5 81.5008 197.6 63.5008 189.4Z" fill="#FF8AE1"/>
<path opacity="0.68" d="M142.1 16.5001C124.3 8.40013 115.1 9.90014 106 30.1001L105 32.4001C95.8004 52.6001 100.8 60.5001 118.8 68.6001C136.6 76.7001 145.8 75.2001 154.9 55.0001L155.9 52.7001C165 32.6001 160.1 24.7001 142.1 16.5001Z" fill="white"/>
</svg>
