<svg width="18" height="19" viewBox="0 0 18 19" fill="none" xmlns="http://www.w3.org/2000/svg">
<g clip-path="url(#clip0)">
<path fill-rule="evenodd" clip-rule="evenodd" d="M9 0.640381C4.03146 0.640381 0 4.67184 0 9.64038C0 14.6089 4.03146 18.6404 9 18.6404C13.9588 18.6404 18 14.6089 18 9.64038C18 4.67184 13.9588 0.640381 9 0.640381ZM14.9447 4.78897C16.0184 6.09699 16.6627 7.7662 16.6822 9.57205C16.4284 9.52324 13.8905 9.0059 11.333 9.32801C11.2744 9.20113 11.2256 9.06445 11.167 8.9278C11.0109 8.55687 10.8351 8.17617 10.6594 7.815C13.4902 6.66316 14.7787 5.00373 14.9447 4.78897ZM9 1.96793C10.9523 1.96793 12.7386 2.70003 14.0954 3.90069C13.9588 4.09591 12.7972 5.64798 10.064 6.67292C8.80477 4.35947 7.40889 2.46576 7.19415 2.17292C7.77006 2.03626 8.37527 1.96793 9 1.96793ZM5.72994 2.69027C5.93492 2.96359 7.30152 4.86707 8.58026 7.1317C4.98807 8.08831 1.81562 8.0688 1.47397 8.0688C1.97179 5.68702 3.58243 3.70546 5.72994 2.69027ZM1.30803 9.65014C1.30803 9.57205 1.30803 9.49397 1.30803 9.41587C1.63991 9.42562 5.36877 9.47444 9.20498 8.3226C9.4295 8.7521 9.63448 9.19135 9.82971 9.63063C9.7321 9.65991 9.62473 9.6892 9.52711 9.71846C5.564 10.9972 3.45553 14.4918 3.27983 14.7846C2.05965 13.4278 1.30803 11.6219 1.30803 9.65014ZM9 17.3324C7.22344 17.3324 5.58351 16.7271 4.28524 15.712C4.42192 15.4289 5.98374 12.4224 10.3178 10.9094C10.3373 10.8996 10.3471 10.8996 10.3666 10.8898C11.4501 13.6914 11.8894 16.0438 12.0065 16.7174C11.0792 17.1176 10.064 17.3324 9 17.3324ZM13.2853 16.0146C13.2072 15.546 12.7972 13.3009 11.7918 10.5384C14.2028 10.1577 16.3113 10.7825 16.5748 10.8703C16.2429 13.0081 15.013 14.853 13.2853 16.0146Z" fill="#8E7F93"/>
</g>
<defs>
<clipPath id="clip0">
<rect width="18" height="18" fill="white" transform="translate(0 0.640381)"/>
</clipPath>
</defs>
</svg>
