<svg width="826" height="410" viewBox="0 0 826 410" fill="none" xmlns="http://www.w3.org/2000/svg"><path d="M38.2433 408.017c2.2185 2.075 5.699 1.958 7.7738-.26l33.8105-36.154c2.0748-2.219 1.9582-5.699-.2604-7.774-2.2185-2.075-5.699-1.958-7.7738.26l-30.0538 32.137-32.13671-30.054c-2.21857-2.074-5.69903-1.958-7.77381.261-2.074783 2.218-1.958213 5.699.26037 7.774l36.15385 33.81Zm9.2536-4.201c-.8111-24.219 8.9388-43.063 27.2547-58.515 18.5564-15.654 45.8824-27.774 79.8234-37.808 67.966-20.093 159.707-31.12 254.463-47.069 94.33-15.878 191.307-36.607 268.156-76.255C754.268 144.404 811.603 85.3124 825.44-7.18634l-10.879-1.62732C801.397 79.1876 747.107 135.721 672.15 174.393c-75.183 38.79-170.643 59.311-264.938 75.183-93.869 15.801-186.94 27.024-255.756 47.368-34.45 10.185-63.5062 22.831-83.7974 39.95-20.5318 17.321-32.0944 39.259-31.1555 67.29l10.9938-.368Z" fill="hsla(340,45%,50%,75%)"/></svg>