<svg xmlns="http://www.w3.org/2000/svg" width="118" height="138" viewBox="0 0 118 138"><g transform="translate(-20 -26)"><g transform="translate(-763 -10167)"><g transform="translate(775 10195)"><path d="M113.167,122.124l-.21-1.888a1.36,1.36,0,0,0-1.5-1.2l-.118.013-2.029-16.234a9.242,9.242,0,0,0-6.248-7.621L91.784,91.433a4.62,4.62,0,0,0-4.441.83l-3.322-1.107a4.621,4.621,0,0,1-3.159-4.384V79.321l9.952-4.147a13.86,13.86,0,0,0,8.531-12.8v-2.31a6.929,6.929,0,0,0,5.464-11.192,59.057,59.057,0,0,0,1.467-37.325s-.827-.607-2.371-1.519c-.418-5.329-2.25-7.722-2.25-7.722L93.222,5.121A90.483,90.483,0,0,0,62.379,0a9.762,9.762,0,0,1-4.621,2.31A126.379,126.379,0,0,0,41.586,0L36.966,11.552s-11.552-.1-11.552,13.862c0,5.119,2.854,17.885,4.073,23.107a6.93,6.93,0,0,0,5.168,11.548v2.31a13.863,13.863,0,0,0,8.53,12.8l9.953,4.147v7.451a4.621,4.621,0,0,1-3.159,4.384l-3.322,1.107a4.62,4.62,0,0,0-4.441-.83L30.939,95.193a9.242,9.242,0,0,0-6.248,7.621l-2.029,16.234-.118-.013a1.361,1.361,0,0,0-1.5,1.2l-.21,1.888a1.36,1.36,0,0,0,1.2,1.5l3.38.375v5.377A4.621,4.621,0,0,0,30.034,134h73.931a4.621,4.621,0,0,0,4.621-4.621V124l3.379-.375a1.36,1.36,0,0,0,1.2-1.5Z" fill="#e9e9ed"/><path d="M80.862,79.129H53.138v7.644a4.58,4.58,0,0,1-2.315,3.945C70.2,94.109,80.862,79.129,80.862,79.129Z" fill="#e9e9ed"/><path d="M99.345,46.207V41.586A11.552,11.552,0,0,0,87.793,30.034H46.207A11.552,11.552,0,0,0,34.655,41.586v4.621a6.931,6.931,0,1,0,0,13.862v2.31a13.863,13.863,0,0,0,8.53,12.8l14.928,6.22a23.105,23.105,0,0,0,17.772,0l14.929-6.22a13.861,13.861,0,0,0,8.53-12.8v-2.31a6.931,6.931,0,1,0,0-13.862Z" fill="#e9e9ed"/><path d="M92.414,134V122.448h19.349l-2.454-19.635a9.242,9.242,0,0,0-6.248-7.621L91.784,91.434A4.546,4.546,0,0,0,86.5,93.226a23.077,23.077,0,0,1-39,0,4.546,4.546,0,0,0-5.282-1.792L30.939,95.192a9.242,9.242,0,0,0-6.248,7.621l-2.2,17.579,19.092.034V134Z" fill="#e9e9ed"/><path d="M50.828,55.448a2.317,2.317,0,0,1-2.31-2.31v-2.31a2.31,2.31,0,1,1,4.621,0v2.31A2.317,2.317,0,0,1,50.828,55.448Zm32.344,0a2.317,2.317,0,0,1-2.31-2.31v-2.31a2.31,2.31,0,1,1,4.621,0v2.31A2.317,2.317,0,0,1,83.172,55.448Z" fill="#e9e9ed"/><path d="M67,71.684A19.243,19.243,0,0,1,56.459,68.91a2.31,2.31,0,0,1,2.6-3.82A14.833,14.833,0,0,0,67,67.063a14.833,14.833,0,0,0,7.942-1.973,2.31,2.31,0,0,1,2.6,3.82A19.243,19.243,0,0,1,67,71.684Z" fill="#e9e9ed"/><path d="M46.784,70.385a10.831,10.831,0,0,1-2.886-7.4V42.595c6.376-3.449,25.009-12.56,43.9-12.56H46.207a10.86,10.86,0,0,0-2.31.254v-.022a11.554,11.554,0,0,0-9.241,11.319v4.621a6.931,6.931,0,1,0,0,13.862v2.31a13.862,13.862,0,0,0,8.53,12.8l14.928,6.22a23.133,23.133,0,0,0,2.232.794,96.432,96.432,0,0,1-13.561-11.8Z" fill="#e9e9ed"/><path d="M41.586,124.192v-5.229a9.242,9.242,0,0,0-2.256-6.051L26.618,98.238a9.222,9.222,0,0,0-1.926,4.575l-2.413,19.3c3.674.221,13.448,1.366,19.308,2.074Z" fill="#e9e9ed"/><path d="M41.586,121.15l-19.042-2.116a1.36,1.36,0,0,0-1.5,1.2l-.21,1.888a1.36,1.36,0,0,0,1.2,1.5L41.586,125.8V121.15Z" fill="#e9e9ed"/><path d="M92.414,124.192v-5.229a9.242,9.242,0,0,1,2.256-6.051l12.712-14.675a9.222,9.222,0,0,1,1.926,4.575l2.413,19.3c-3.674.221-13.448,1.366-19.308,2.074Z" fill="#e9e9ed"/><path d="M92.414,121.15l19.042-2.116a1.36,1.36,0,0,1,1.5,1.2l.21,1.888a1.36,1.36,0,0,1-1.2,1.5L92.414,125.8Z" fill="#e9e9ed"/><path d="M106.276,11.552s-.827-.607-2.371-1.519c-.418-5.329-2.25-7.722-2.25-7.722L93.222,5.121A90.483,90.483,0,0,0,62.379,0a9.762,9.762,0,0,1-4.621,2.31A126.379,126.379,0,0,0,41.586,0L36.966,11.552s-11.552-.1-11.552,13.862c0,5.129,2.865,17.935,4.081,23.138a6.885,6.885,0,0,1,5.161-2.345V41.586A11.542,11.542,0,0,1,46.04,30.051,25.662,25.662,0,0,0,43.9,36.965,40.612,40.612,0,0,1,67,30.034H87.793A11.552,11.552,0,0,1,99.345,41.586v4.621a6.892,6.892,0,0,1,5.453,2.7A59.057,59.057,0,0,0,106.276,11.552Z" fill="#e9e9ed"/><path d="M101.655,2.31,93.222,5.121A90.483,90.483,0,0,0,62.379,0a9.762,9.762,0,0,1-4.621,2.31A126.379,126.379,0,0,0,41.586,0L36.966,11.552s-11.552-.1-11.552,13.862c0,5.129,2.865,17.935,4.081,23.138a6.885,6.885,0,0,1,5.161-2.345V41.586A11.513,11.513,0,0,1,45.187,30.137a20.61,20.61,0,0,0-1.29,6.828c9.1-11.552,22.018-15.719,32.345-18.483,10.252-2.744,11.552-6.931,11.552-6.931S97.9,10.974,101.655,2.31Z" fill="#e9e9ed"/></g><g transform="translate(775 10195)"><path d="M113.167,122.124l-.21-1.888a1.36,1.36,0,0,0-1.5-1.2l-.118.013-2.029-16.234a9.242,9.242,0,0,0-6.248-7.621L91.784,91.433a4.62,4.62,0,0,0-4.441.83l-3.322-1.107a4.621,4.621,0,0,1-3.159-4.384V79.321l9.952-4.147a13.86,13.86,0,0,0,8.531-12.8v-2.31a6.929,6.929,0,0,0,5.464-11.192,59.057,59.057,0,0,0,1.467-37.325s-.827-.607-2.371-1.519c-.418-5.329-2.25-7.722-2.25-7.722L93.222,5.121A90.483,90.483,0,0,0,62.379,0a9.762,9.762,0,0,1-4.621,2.31A126.379,126.379,0,0,0,41.586,0L36.966,11.552s-11.552-.1-11.552,13.862c0,5.119,2.854,17.885,4.073,23.107a6.93,6.93,0,0,0,5.168,11.548v2.31a13.863,13.863,0,0,0,8.53,12.8l9.953,4.147v7.451a4.621,4.621,0,0,1-3.159,4.384l-3.322,1.107a4.62,4.62,0,0,0-4.441-.83L30.939,95.193a9.242,9.242,0,0,0-6.248,7.621l-2.029,16.234-.118-.013a1.361,1.361,0,0,0-1.5,1.2l-.21,1.888a1.36,1.36,0,0,0,1.2,1.5l3.38.375v5.377A4.621,4.621,0,0,0,30.034,134h73.931a4.621,4.621,0,0,0,4.621-4.621V124l3.379-.375a1.36,1.36,0,0,0,1.2-1.5Z" fill="#e9e9ed"/><path d="M80.862,79.129H53.138v7.644a4.58,4.58,0,0,1-2.315,3.945C70.2,94.109,80.862,79.129,80.862,79.129Z" fill="#e9e9ed"/><path d="M99.345,46.207V41.586A11.552,11.552,0,0,0,87.793,30.034H46.207A11.552,11.552,0,0,0,34.655,41.586v4.621a6.931,6.931,0,1,0,0,13.862v2.31a13.863,13.863,0,0,0,8.53,12.8l14.928,6.22a23.105,23.105,0,0,0,17.772,0l14.929-6.22a13.861,13.861,0,0,0,8.53-12.8v-2.31a6.931,6.931,0,1,0,0-13.862Z" fill="#e9e9ed"/><path d="M92.414,134V122.448h19.349l-2.454-19.635a9.242,9.242,0,0,0-6.248-7.621L91.784,91.434A4.546,4.546,0,0,0,86.5,93.226a23.077,23.077,0,0,1-39,0,4.546,4.546,0,0,0-5.282-1.792L30.939,95.192a9.242,9.242,0,0,0-6.248,7.621l-2.2,17.579,19.092.034V134Z" fill="#e9e9ed"/><path d="M50.828,55.448a2.317,2.317,0,0,1-2.31-2.31v-2.31a2.31,2.31,0,1,1,4.621,0v2.31A2.317,2.317,0,0,1,50.828,55.448Zm32.344,0a2.317,2.317,0,0,1-2.31-2.31v-2.31a2.31,2.31,0,1,1,4.621,0v2.31A2.317,2.317,0,0,1,83.172,55.448Z" fill="#e9e9ed"/><path d="M67,71.684A19.243,19.243,0,0,1,56.459,68.91a2.31,2.31,0,0,1,2.6-3.82A14.833,14.833,0,0,0,67,67.063a14.833,14.833,0,0,0,7.942-1.973,2.31,2.31,0,0,1,2.6,3.82A19.243,19.243,0,0,1,67,71.684Z" fill="#e9e9ed"/><path d="M46.784,70.385a10.831,10.831,0,0,1-2.886-7.4V42.595c6.376-3.449,25.009-12.56,43.9-12.56H46.207a10.86,10.86,0,0,0-2.31.254v-.022a11.554,11.554,0,0,0-9.241,11.319v4.621a6.931,6.931,0,1,0,0,13.862v2.31a13.862,13.862,0,0,0,8.53,12.8l14.928,6.22a23.133,23.133,0,0,0,2.232.794,96.432,96.432,0,0,1-13.561-11.8Z" fill="#e9e9ed"/><path d="M41.586,124.192v-5.229a9.242,9.242,0,0,0-2.256-6.051L26.618,98.238a9.222,9.222,0,0,0-1.926,4.575l-2.413,19.3c3.674.221,13.448,1.366,19.308,2.074Z" fill="#e9e9ed"/><path d="M41.586,121.15l-19.042-2.116a1.36,1.36,0,0,0-1.5,1.2l-.21,1.888a1.36,1.36,0,0,0,1.2,1.5L41.586,125.8V121.15Z" fill="#e9e9ed"/><path d="M92.414,124.192v-5.229a9.242,9.242,0,0,1,2.256-6.051l12.712-14.675a9.222,9.222,0,0,1,1.926,4.575l2.413,19.3c-3.674.221-13.448,1.366-19.308,2.074Z" fill="#e9e9ed"/><path d="M92.414,121.15l19.042-2.116a1.36,1.36,0,0,1,1.5,1.2l.21,1.888a1.36,1.36,0,0,1-1.2,1.5L92.414,125.8Z" fill="#e9e9ed"/><path d="M106.276,11.552s-.827-.607-2.371-1.519c-.418-5.329-2.25-7.722-2.25-7.722L93.222,5.121A90.483,90.483,0,0,0,62.379,0a9.762,9.762,0,0,1-4.621,2.31A126.379,126.379,0,0,0,41.586,0L36.966,11.552s-11.552-.1-11.552,13.862c0,5.129,2.865,17.935,4.081,23.138a6.885,6.885,0,0,1,5.161-2.345V41.586A11.542,11.542,0,0,1,46.04,30.051,25.662,25.662,0,0,0,43.9,36.965,40.612,40.612,0,0,1,67,30.034H87.793A11.552,11.552,0,0,1,99.345,41.586v4.621a6.892,6.892,0,0,1,5.453,2.7A59.057,59.057,0,0,0,106.276,11.552Z" fill="#e9e9ed"/><path d="M101.655,2.31,93.222,5.121A90.483,90.483,0,0,0,62.379,0a9.762,9.762,0,0,1-4.621,2.31A126.379,126.379,0,0,0,41.586,0L36.966,11.552s-11.552-.1-11.552,13.862c0,5.129,2.865,17.935,4.081,23.138a6.885,6.885,0,0,1,5.161-2.345V41.586A11.513,11.513,0,0,1,45.187,30.137a20.61,20.61,0,0,0-1.29,6.828c9.1-11.552,22.018-15.719,32.345-18.483,10.252-2.744,11.552-6.931,11.552-6.931S97.9,10.974,101.655,2.31Z" fill="#e9e9ed"/></g><rect width="114" height="134" rx="4" transform="translate(785 10195)" fill="#e9e9ed"/><path d="M4-2H110a6.007,6.007,0,0,1,6,6V130a6.007,6.007,0,0,1-6,6H4a6.007,6.007,0,0,1-6-6V4A6.007,6.007,0,0,1,4-2ZM110,132a2,2,0,0,0,2-2V4a2,2,0,0,0-2-2H4A2,2,0,0,0,2,4V130a2,2,0,0,0,2,2Z" transform="translate(785 10195)" fill="#f0f0f0"/></g><g transform="translate(-35.5 40.881)" opacity="0.6" style="mix-blend-mode:luminosity;isolation:isolate"><path d="M154.884,109.473l-.188-1.692a1.219,1.219,0,0,0-1.346-1.077l-.105.012-1.819-14.553a8.284,8.284,0,0,0-5.6-6.832l-10.108-3.37a4.142,4.142,0,0,0-3.981.744l-2.978-.993a4.142,4.142,0,0,1-2.832-3.929V71.1l8.921-3.717a12.424,12.424,0,0,0,7.647-11.47V53.846a6.211,6.211,0,0,0,4.9-10.033,52.939,52.939,0,0,0,1.315-33.459s-.741-.544-2.125-1.362c-.375-4.777-2.017-6.922-2.017-6.922l-7.559,2.52A81.11,81.11,0,0,0,109.358,0a8.751,8.751,0,0,1-4.142,2.071A113.288,113.288,0,0,0,90.719,0L86.577,10.355s-10.355-.086-10.355,12.426c0,4.589,2.558,16.033,3.651,20.714a6.212,6.212,0,0,0,4.632,10.352v2.071a12.427,12.427,0,0,0,7.647,11.47l8.922,3.717v6.679a4.142,4.142,0,0,1-2.832,3.93l-2.978.993a4.142,4.142,0,0,0-3.981-.744l-10.108,3.37a8.284,8.284,0,0,0-5.6,6.832l-1.819,14.553-.105-.012a1.22,1.22,0,0,0-1.347,1.077l-.188,1.692a1.219,1.219,0,0,0,1.077,1.346l3.03.337v4.82a4.142,4.142,0,0,0,4.142,4.142h66.273a4.142,4.142,0,0,0,4.142-4.142v-4.821l3.029-.337a1.219,1.219,0,0,0,1.077-1.346Z" fill="#fdc88e"/><path d="M202.911,274H178.058v6.852a4.105,4.105,0,0,1-2.075,3.536C193.352,287.428,202.911,274,202.911,274Z" transform="translate(-76.985 -203.068)" fill="#f5b97a"/><path d="M160.2,118.5v-4.142A10.355,10.355,0,0,0,149.846,104H112.568a10.355,10.355,0,0,0-10.355,10.355V118.5a6.213,6.213,0,1,0,0,12.426v2.071a12.427,12.427,0,0,0,7.646,11.47l13.382,5.576a20.712,20.712,0,0,0,15.931,0l13.382-5.576a12.426,12.426,0,0,0,7.646-11.47v-2.071a6.213,6.213,0,0,0,0-12.426Z" transform="translate(-17.708 -77.077)" fill="#ffd7a3"/><path d="M140.567,354.142V343.787h17.345l-2.2-17.6a8.284,8.284,0,0,0-5.6-6.832L140,315.985a4.075,4.075,0,0,0-4.735,1.607,20.686,20.686,0,0,1-34.963,0,4.075,4.075,0,0,0-4.735-1.607l-10.108,3.37a8.284,8.284,0,0,0-5.6,6.832l-1.97,15.758,17.115.03v12.168h45.562Z" transform="translate(-4.286 -234.023)" fill="#ff6473"/><path d="M113.085,140.171a9.709,9.709,0,0,1-2.587-6.634V115.259C116.213,112.167,132.916,104,149.846,104H112.568a9.736,9.736,0,0,0-2.071.228v-.019a10.358,10.358,0,0,0-8.284,10.146V118.5a6.213,6.213,0,1,0,0,12.426v2.071a12.426,12.426,0,0,0,7.647,11.47l13.381,5.576a20.726,20.726,0,0,0,2,.712,86.442,86.442,0,0,1-12.156-10.581Z" transform="translate(-17.708 -77.077)" fill="#fdc88e"/><path d="M94.452,363.434v-4.687a8.285,8.285,0,0,0-2.023-5.424l-11.4-13.154a8.267,8.267,0,0,0-1.726,4.1l-2.163,17.305C80.438,361.772,89.2,362.8,94.452,363.434Z" transform="translate(-3.733 -252.106)" fill="#f05467"/><path d="M90.719,414.056l-17.069-1.9a1.22,1.22,0,0,0-1.347,1.077l-.188,1.692a1.219,1.219,0,0,0,1.077,1.346l17.527,1.948Z" transform="translate(-0.001 -305.455)" fill="#bd445a"/><path d="M320,363.434v-4.687a8.285,8.285,0,0,1,2.023-5.424l11.4-13.154a8.267,8.267,0,0,1,1.727,4.1l2.163,17.305C334.014,361.772,325.252,362.8,320,363.434Z" transform="translate(-183.719 -252.106)" fill="#f05467"/><path d="M320,414.056l17.069-1.9a1.219,1.219,0,0,1,1.347,1.077l.188,1.692a1.219,1.219,0,0,1-1.077,1.346L320,418.223Z" transform="translate(-183.719 -305.455)" fill="#bd445a"/><path d="M160.486,10.355s-.741-.544-2.125-1.362c-.375-4.777-2.017-6.922-2.017-6.922l-7.559,2.52A81.11,81.11,0,0,0,121.137,0,8.751,8.751,0,0,1,117,2.071,113.288,113.288,0,0,0,102.5,0L98.356,10.355S88,10.269,88,22.781c0,4.6,2.568,16.077,3.658,20.741a6.172,6.172,0,0,1,4.626-2.1V37.278a10.346,10.346,0,0,1,10.205-10.34,23,23,0,0,0-1.921,6.2,36.405,36.405,0,0,1,20.71-6.213h18.639a10.355,10.355,0,0,1,10.355,10.355V41.42a6.178,6.178,0,0,1,4.888,2.419A52.939,52.939,0,0,0,160.486,10.355Z" transform="translate(-11.78)" fill="#9d6e48"/><path d="M156.344,2.071l-7.559,2.52A81.11,81.11,0,0,0,121.137,0,8.751,8.751,0,0,1,117,2.071,113.288,113.288,0,0,0,102.5,0L98.356,10.355S88,10.269,88,22.781c0,4.6,2.568,16.077,3.658,20.741a6.172,6.172,0,0,1,4.626-2.1V37.278a10.321,10.321,0,0,1,9.441-10.263,18.475,18.475,0,0,0-1.157,6.121c8.155-10.355,19.737-14.091,28.994-16.568,9.19-2.459,10.355-6.213,10.355-6.213S152.979,9.837,156.344,2.071Z" transform="translate(-11.78)" fill="#8d5f3d"/></g></g></svg>