<svg xmlns="http://www.w3.org/2000/svg" xmlns:xlink="http://www.w3.org/1999/xlink" width="48" height="48" viewBox="0 0 48 48"><defs><clipPath id="a"><circle cx="24" cy="24" r="24" transform="translate(352 720)" fill="#fff"/></clipPath></defs><g transform="translate(-352 -720)" clip-path="url(#a)"><g transform="translate(328 693.558)"><g transform="translate(22 27.873)"><g transform="translate(5.045 0.118)"><path d="M63.86,56.915l-.1-.88a.634.634,0,0,0-.7-.56l-.055.006-.946-7.566a4.307,4.307,0,0,0-2.912-3.552l-5.255-1.752a2.153,2.153,0,0,0-2.07.387l-1.548-.516A2.153,2.153,0,0,1,48.8,40.44V36.967l4.638-1.933a6.46,6.46,0,0,0,3.976-5.963V27.995a3.229,3.229,0,0,0,2.547-5.216,27.523,27.523,0,0,0,.684-17.4s-.385-.283-1.1-.708a7.188,7.188,0,0,0-1.048-3.6l-3.93,1.31A42.169,42.169,0,0,0,40.191,0a4.55,4.55,0,0,1-2.153,1.077A58.9,58.9,0,0,0,30.5,0L28.347,5.384s-5.384-.045-5.384,6.46c0,2.386,1.33,8.335,1.9,10.769a3.23,3.23,0,0,0,2.408,5.382v1.077a6.461,6.461,0,0,0,3.975,5.963l4.638,1.933V40.44a2.153,2.153,0,0,1-1.472,2.043L32.863,43a2.153,2.153,0,0,0-2.07-.387l-5.255,1.752a4.307,4.307,0,0,0-2.912,3.552l-.946,7.566-.055-.006a.634.634,0,0,0-.7.56l-.1.88a.634.634,0,0,0,.56.7l1.575.175V60.3a2.153,2.153,0,0,0,2.153,2.153H59.572A2.153,2.153,0,0,0,61.725,60.3V57.79l1.575-.175a.634.634,0,0,0,.56-.7Z" transform="translate(-20.824 0)" fill="#e9e9ed"/><path d="M64.822,79.129H51.9v3.562a2.134,2.134,0,0,1-1.079,1.838A14.621,14.621,0,0,0,64.822,79.129Z" transform="translate(-36.842 -42.251)" fill="#e9e9ed"/><path d="M61.1,37.571V35.418a5.384,5.384,0,0,0-5.384-5.384H36.338a5.384,5.384,0,0,0-5.384,5.384v2.153a3.23,3.23,0,1,0,0,6.46v1.077a6.461,6.461,0,0,0,3.975,5.963l6.957,2.9a10.768,10.768,0,0,0,8.283,0l6.958-2.9A6.46,6.46,0,0,0,61.1,45.109V44.032a3.23,3.23,0,0,0,0-6.46Z" transform="translate(-24.508 -16.037)" fill="#e9e9ed"/><path d="M55.08,111.142v-5.384H64.1l-1.144-9.151a4.307,4.307,0,0,0-2.912-3.552L54.786,91.3a2.119,2.119,0,0,0-2.462.835,10.755,10.755,0,0,1-18.178,0,2.119,2.119,0,0,0-2.462-.835L26.43,93.056a4.307,4.307,0,0,0-2.912,3.552L22.494,104.8l8.9.016v6.326Z" transform="translate(-21.716 -48.692)" fill="#e9e9ed"/><path d="M49.594,51.747a1.08,1.08,0,0,1-1.077-1.077V49.594a1.077,1.077,0,1,1,2.153,0v1.077A1.08,1.08,0,0,1,49.594,51.747Zm15.074,0a1.08,1.08,0,0,1-1.077-1.077V49.594a1.077,1.077,0,1,1,2.153,0v1.077A1.08,1.08,0,0,1,64.668,51.747Z" transform="translate(-35.611 -25.906)" fill="#e9e9ed"/><path d="M60.832,67.949a8.968,8.968,0,0,1-4.913-1.293,1.077,1.077,0,1,1,1.211-1.78,7.909,7.909,0,0,0,7.4,0,1.077,1.077,0,0,1,1.211,1.78A8.968,8.968,0,0,1,60.832,67.949Z" transform="translate(-39.312 -34.541)" fill="#e9e9ed"/><path d="M36.607,48.84a5.047,5.047,0,0,1-1.345-3.449v-9.5c2.972-1.607,11.655-5.854,20.458-5.854H36.338a5.061,5.061,0,0,0-1.077.119v-.01a5.385,5.385,0,0,0-4.307,5.275v2.153a3.23,3.23,0,1,0,0,6.46v1.077a6.46,6.46,0,0,0,3.976,5.963l6.957,2.9a10.779,10.779,0,0,0,1.04.37,44.941,44.941,0,0,1-6.32-5.5Z" transform="translate(-24.508 -16.037)" fill="#e9e9ed"/><path d="M31.277,110.334V107.9a4.307,4.307,0,0,0-1.052-2.82L24.3,98.238a4.3,4.3,0,0,0-.9,2.132l-1.125,9C23.991,109.47,28.546,110,31.277,110.334Z" transform="translate(-21.601 -52.454)" fill="#e9e9ed"/><path d="M30.5,120.016l-8.874-.986a.634.634,0,0,0-.7.56l-.1.88a.634.634,0,0,0,.56.7l9.112,1.013v-2.166Z" transform="translate(-20.824 -63.554)" fill="#e9e9ed"/><path d="M92.414,110.334V107.9a4.307,4.307,0,0,1,1.051-2.82l5.925-6.839a4.3,4.3,0,0,1,.9,2.132l1.125,9C99.7,109.47,95.144,110,92.414,110.334Z" transform="translate(-59.049 -52.454)" fill="#e9e9ed"/><path d="M92.414,120.016l8.874-.986a.634.634,0,0,1,.7.56l.1.88a.634.634,0,0,1-.56.7l-9.112,1.013Z" transform="translate(-59.049 -63.554)" fill="#e9e9ed"/><path d="M63.1,5.384s-.385-.283-1.1-.708a7.188,7.188,0,0,0-1.048-3.6l-3.93,1.31A42.169,42.169,0,0,0,42.642,0a4.55,4.55,0,0,1-2.153,1.077A58.9,58.9,0,0,0,32.951,0L30.8,5.384s-5.384-.045-5.384,6.46c0,2.39,1.335,8.359,1.9,10.783a3.209,3.209,0,0,1,2.405-1.093V19.381a5.379,5.379,0,0,1,5.306-5.376,11.96,11.96,0,0,0-1,3.222A18.927,18.927,0,0,1,44.8,14h9.691a5.384,5.384,0,0,1,5.384,5.384v2.153a3.212,3.212,0,0,1,2.541,1.258A27.523,27.523,0,0,0,63.1,5.384Z" transform="translate(-23.275 0)" fill="#e9e9ed"/><path d="M60.946,1.077l-3.93,1.31A42.169,42.169,0,0,0,42.642,0a4.55,4.55,0,0,1-2.153,1.077A58.9,58.9,0,0,0,32.951,0L30.8,5.384s-5.384-.045-5.384,6.46c0,2.39,1.335,8.359,1.9,10.783a3.209,3.209,0,0,1,2.405-1.093V19.381a5.366,5.366,0,0,1,4.908-5.336,9.605,9.605,0,0,0-.6,3.182C38.267,11.844,44.289,9.9,49.1,8.614c4.778-1.279,5.384-3.23,5.384-3.23S59.2,5.114,60.946,1.077Z" transform="translate(-23.275 0)" fill="#e9e9ed"/></g><g transform="translate(5.045 0.118)"><path d="M63.86,56.915l-.1-.88a.634.634,0,0,0-.7-.56l-.055.006-.946-7.566a4.307,4.307,0,0,0-2.912-3.552l-5.255-1.752a2.153,2.153,0,0,0-2.07.387l-1.548-.516A2.153,2.153,0,0,1,48.8,40.44V36.967l4.638-1.933a6.46,6.46,0,0,0,3.976-5.963V27.995a3.229,3.229,0,0,0,2.547-5.216,27.523,27.523,0,0,0,.684-17.4s-.385-.283-1.1-.708a7.188,7.188,0,0,0-1.048-3.6l-3.93,1.31A42.169,42.169,0,0,0,40.191,0a4.55,4.55,0,0,1-2.153,1.077A58.9,58.9,0,0,0,30.5,0L28.347,5.384s-5.384-.045-5.384,6.46c0,2.386,1.33,8.335,1.9,10.769a3.23,3.23,0,0,0,2.408,5.382v1.077a6.461,6.461,0,0,0,3.975,5.963l4.638,1.933V40.44a2.153,2.153,0,0,1-1.472,2.043L32.863,43a2.153,2.153,0,0,0-2.07-.387l-5.255,1.752a4.307,4.307,0,0,0-2.912,3.552l-.946,7.566-.055-.006a.634.634,0,0,0-.7.56l-.1.88a.634.634,0,0,0,.56.7l1.575.175V60.3a2.153,2.153,0,0,0,2.153,2.153H59.572A2.153,2.153,0,0,0,61.725,60.3V57.79l1.575-.175a.634.634,0,0,0,.56-.7Z" transform="translate(-20.824 0)" fill="#e9e9ed"/><path d="M64.822,79.129H51.9v3.562a2.134,2.134,0,0,1-1.079,1.838A14.621,14.621,0,0,0,64.822,79.129Z" transform="translate(-36.842 -42.251)" fill="#e9e9ed"/><path d="M61.1,37.571V35.418a5.384,5.384,0,0,0-5.384-5.384H36.338a5.384,5.384,0,0,0-5.384,5.384v2.153a3.23,3.23,0,1,0,0,6.46v1.077a6.461,6.461,0,0,0,3.975,5.963l6.957,2.9a10.768,10.768,0,0,0,8.283,0l6.958-2.9A6.46,6.46,0,0,0,61.1,45.109V44.032a3.23,3.23,0,0,0,0-6.46Z" transform="translate(-24.508 -16.037)" fill="#e9e9ed"/><path d="M55.08,111.142v-5.384H64.1l-1.144-9.151a4.307,4.307,0,0,0-2.912-3.552L54.786,91.3a2.119,2.119,0,0,0-2.462.835,10.755,10.755,0,0,1-18.178,0,2.119,2.119,0,0,0-2.462-.835L26.43,93.056a4.307,4.307,0,0,0-2.912,3.552L22.494,104.8l8.9.016v6.326Z" transform="translate(-21.716 -48.692)" fill="#e9e9ed"/><path d="M49.594,51.747a1.08,1.08,0,0,1-1.077-1.077V49.594a1.077,1.077,0,1,1,2.153,0v1.077A1.08,1.08,0,0,1,49.594,51.747Zm15.074,0a1.08,1.08,0,0,1-1.077-1.077V49.594a1.077,1.077,0,1,1,2.153,0v1.077A1.08,1.08,0,0,1,64.668,51.747Z" transform="translate(-35.611 -25.906)" fill="#e9e9ed"/><path d="M60.832,67.949a8.968,8.968,0,0,1-4.913-1.293,1.077,1.077,0,1,1,1.211-1.78,7.909,7.909,0,0,0,7.4,0,1.077,1.077,0,0,1,1.211,1.78A8.968,8.968,0,0,1,60.832,67.949Z" transform="translate(-39.312 -34.541)" fill="#e9e9ed"/><path d="M36.607,48.84a5.047,5.047,0,0,1-1.345-3.449v-9.5c2.972-1.607,11.655-5.854,20.458-5.854H36.338a5.061,5.061,0,0,0-1.077.119v-.01a5.385,5.385,0,0,0-4.307,5.275v2.153a3.23,3.23,0,1,0,0,6.46v1.077a6.46,6.46,0,0,0,3.976,5.963l6.957,2.9a10.779,10.779,0,0,0,1.04.37,44.941,44.941,0,0,1-6.32-5.5Z" transform="translate(-24.508 -16.037)" fill="#e9e9ed"/><path d="M31.277,110.334V107.9a4.307,4.307,0,0,0-1.052-2.82L24.3,98.238a4.3,4.3,0,0,0-.9,2.132l-1.125,9C23.991,109.47,28.546,110,31.277,110.334Z" transform="translate(-21.601 -52.454)" fill="#e9e9ed"/><path d="M30.5,120.016l-8.874-.986a.634.634,0,0,0-.7.56l-.1.88a.634.634,0,0,0,.56.7l9.112,1.013v-2.166Z" transform="translate(-20.824 -63.554)" fill="#e9e9ed"/><path d="M92.414,110.334V107.9a4.307,4.307,0,0,1,1.051-2.82l5.925-6.839a4.3,4.3,0,0,1,.9,2.132l1.125,9C99.7,109.47,95.144,110,92.414,110.334Z" transform="translate(-59.049 -52.454)" fill="#e9e9ed"/><path d="M92.414,120.016l8.874-.986a.634.634,0,0,1,.7.56l.1.88a.634.634,0,0,1-.56.7l-9.112,1.013Z" transform="translate(-59.049 -63.554)" fill="#e9e9ed"/><path d="M63.1,5.384s-.385-.283-1.1-.708a7.188,7.188,0,0,0-1.048-3.6l-3.93,1.31A42.169,42.169,0,0,0,42.642,0a4.55,4.55,0,0,1-2.153,1.077A58.9,58.9,0,0,0,32.951,0L30.8,5.384s-5.384-.045-5.384,6.46c0,2.39,1.335,8.359,1.9,10.783a3.209,3.209,0,0,1,2.405-1.093V19.381a5.379,5.379,0,0,1,5.306-5.376,11.96,11.96,0,0,0-1,3.222A18.927,18.927,0,0,1,44.8,14h9.691a5.384,5.384,0,0,1,5.384,5.384v2.153a3.212,3.212,0,0,1,2.541,1.258A27.523,27.523,0,0,0,63.1,5.384Z" transform="translate(-23.275 0)" fill="#e9e9ed"/><path d="M60.946,1.077l-3.93,1.31A42.169,42.169,0,0,0,42.642,0a4.55,4.55,0,0,1-2.153,1.077A58.9,58.9,0,0,0,32.951,0L30.8,5.384s-5.384-.045-5.384,6.46c0,2.39,1.335,8.359,1.9,10.783a3.209,3.209,0,0,1,2.405-1.093V19.381a5.366,5.366,0,0,1,4.908-5.336,9.605,9.605,0,0,0-.6,3.182C38.267,11.844,44.289,9.9,49.1,8.614c4.778-1.279,5.384-3.23,5.384-3.23S59.2,5.114,60.946,1.077Z" transform="translate(-23.275 0)" fill="#e9e9ed"/></g><rect width="53" height="63" rx="4" transform="translate(0 -0.431)" fill="#e9e9ed"/><path d="M4-2H49a6.007,6.007,0,0,1,6,6V59a6.007,6.007,0,0,1-6,6H4a6.007,6.007,0,0,1-6-6V4A6.007,6.007,0,0,1,4-2ZM49,61a2,2,0,0,0,2-2V4a2,2,0,0,0-2-2H4A2,2,0,0,0,2,4V59a2,2,0,0,0,2,2Z" transform="translate(0 -0.431)" fill="#f0f0f0"/></g><g transform="translate(28.808 33.995)" opacity="0.6" style="mix-blend-mode:luminosity;isolation:isolate"><path d="M110.685,51.02l-.088-.789a.568.568,0,0,0-.627-.5l-.049.005-.848-6.782a3.861,3.861,0,0,0-2.61-3.184l-4.711-1.57a1.93,1.93,0,0,0-1.855.347l-1.388-.463a1.93,1.93,0,0,1-1.32-1.831V33.138l4.158-1.732a5.79,5.79,0,0,0,3.564-5.345v-.965a2.895,2.895,0,0,0,2.283-4.676,24.672,24.672,0,0,0,.613-15.593s-.345-.254-.991-.635a6.443,6.443,0,0,0-.94-3.226l-3.523,1.174A37.8,37.8,0,0,0,89.467,0a4.078,4.078,0,0,1-1.93.965A52.8,52.8,0,0,0,80.781,0L78.85,4.826s-4.826-.04-4.826,5.791c0,2.139,1.192,7.472,1.7,9.653a2.895,2.895,0,0,0,2.159,4.824v.965a5.791,5.791,0,0,0,3.564,5.346l4.158,1.732v3.113a1.93,1.93,0,0,1-1.32,1.831l-1.388.463a1.93,1.93,0,0,0-1.855-.347l-4.711,1.57a3.861,3.861,0,0,0-2.61,3.184l-.848,6.782-.049-.005a.568.568,0,0,0-.628.5l-.088.789a.568.568,0,0,0,.5.627l1.412.157v2.246a1.93,1.93,0,0,0,1.93,1.93h30.886a1.93,1.93,0,0,0,1.93-1.93V51.8l1.412-.157a.568.568,0,0,0,.5-.627Z" transform="translate(-72.107)" fill="#fdc88e"/><path d="M188.533,274H176.95v3.193a1.913,1.913,0,0,1-.967,1.648A13.107,13.107,0,0,0,188.533,274Z" transform="translate(-163.45 -240.942)" fill="#f5b97a"/><path d="M125.921,110.756v-1.93A4.826,4.826,0,0,0,121.095,104H103.722a4.826,4.826,0,0,0-4.826,4.826v1.93a2.9,2.9,0,1,0,0,5.791v.965a5.791,5.791,0,0,0,3.564,5.346l6.237,2.6a9.653,9.653,0,0,0,7.425,0l6.237-2.6a5.791,5.791,0,0,0,3.564-5.346v-.965a2.9,2.9,0,1,0,0-5.791Z" transform="translate(-93.117 -91.453)" fill="#ffd7a3"/><path d="M107.1,333.652v-4.826h8.083l-1.025-8.2a3.861,3.861,0,0,0-2.61-3.184l-4.711-1.57a1.9,1.9,0,0,0-2.207.749,9.641,9.641,0,0,1-16.295,0,1.9,1.9,0,0,0-2.207-.749l-4.711,1.57a3.861,3.861,0,0,0-2.61,3.184l-.918,7.344,7.976.014v5.671H107.1Z" transform="translate(-77.192 -277.671)" fill="#ff6473"/><path d="M103.962,120.857a4.525,4.525,0,0,1-1.206-3.092v-8.519C105.42,107.806,113.2,104,121.095,104H103.722a4.537,4.537,0,0,0-.965.106V104.1a4.827,4.827,0,0,0-3.861,4.729v1.93a2.9,2.9,0,1,0,0,5.791v.965a5.791,5.791,0,0,0,3.564,5.346l6.236,2.6a9.663,9.663,0,0,0,.932.332A40.285,40.285,0,0,1,103.962,120.857Z" transform="translate(-93.117 -91.453)" fill="#fdc88e"/><path d="M85.21,351.011v-2.185a3.861,3.861,0,0,0-.943-2.528l-5.311-6.131a3.853,3.853,0,0,0-.8,1.911l-1.008,8.065C78.679,350.237,82.762,350.715,85.21,351.011Z" transform="translate(-76.536 -299.127)" fill="#f05467"/><path d="M80.782,413.039l-7.955-.884a.568.568,0,0,0-.628.5l-.088.789a.568.568,0,0,0,.5.627l8.168.908Z" transform="translate(-72.108 -362.426)" fill="#bd445a"/><path d="M320,351.011v-2.185a3.861,3.861,0,0,1,.943-2.528l5.311-6.131a3.854,3.854,0,0,1,.8,1.911l1.008,8.065C326.531,350.237,322.448,350.715,320,351.011Z" transform="translate(-290.092 -299.127)" fill="#f05467"/><path d="M320,413.039l7.955-.884a.568.568,0,0,1,.628.5l.088.789a.568.568,0,0,1-.5.627l-8.168.908Z" transform="translate(-290.092 -362.426)" fill="#bd445a"/><path d="M121.783,4.826s-.345-.254-.991-.635a6.443,6.443,0,0,0-.94-3.226l-3.523,1.174A37.8,37.8,0,0,0,103.444,0a4.078,4.078,0,0,1-1.93.965A52.8,52.8,0,0,0,94.757,0l-1.93,4.826S88,4.786,88,10.617c0,2.143,1.2,7.493,1.7,9.666a2.877,2.877,0,0,1,2.156-.98v-1.93a4.822,4.822,0,0,1,4.756-4.819,10.72,10.72,0,0,0-.9,2.889,16.967,16.967,0,0,1,9.652-2.9h8.687a4.826,4.826,0,0,1,4.826,4.826V19.3a2.879,2.879,0,0,1,2.278,1.128A24.672,24.672,0,0,0,121.783,4.826Z" transform="translate(-86.083)" fill="#9d6e48"/><path d="M119.852.965l-3.523,1.174A37.8,37.8,0,0,0,103.444,0a4.078,4.078,0,0,1-1.93.965A52.8,52.8,0,0,0,94.757,0l-1.93,4.826S88,4.786,88,10.617c0,2.143,1.2,7.493,1.7,9.666a2.877,2.877,0,0,1,2.156-.98v-1.93a4.81,4.81,0,0,1,4.4-4.783,8.61,8.61,0,0,0-.539,2.853c3.8-4.826,9.2-6.567,13.513-7.722,4.283-1.146,4.826-2.9,4.826-2.9S118.284,4.585,119.852.965Z" transform="translate(-86.083)" fill="#8d5f3d"/></g></g></g></svg>