<svg xmlns="http://www.w3.org/2000/svg" style="background-color:#064685" width="3000" height="363">
  <g fill="none">
    <path d="M1424 364h749l-1.936-3.95c-80.38-147.576-136.643-188.236-173.049-185.96-69.192 4.33-83.383 150.45-177.28 155.8-53.855 3.075-81.618-43.146-170.453-46.74C1603.225 281.249 1496.285 302 1424 364Z" stroke="#699acc" />
    <g stroke="#6a9bcd">
      <path d="M2001 306.55c0 16.435 26.151 54.086 27.66 56.285l.055.11c.06 0 .06.055.06.055S2057 323.766 2057 306.375c0-33.034-28.224-33.375-28.224-33.375s-27.776.34-27.776 33.55Z" />
      <path d="M2017.8 301.087c0-6.189 4.982-11.256 11.2-11.256 6.158 0 11.2 5.067 11.2 11.256 0 6.244-5.042 11.257-11.2 11.257-6.218 0-11.2-5.013-11.2-11.257ZM1949 324.858c0 11.687 18.68 38.461 19.758 40.025l.039.078a.04.04 0 0 1 .043.039s20.16-27.9 20.16-40.267c0-23.49-20.16-23.733-20.16-23.733s-19.84.242-19.84 23.858Z" />
      <path d="M1961 320.973c0-4.401 3.558-8.005 8-8.005 4.398 0 8 3.604 8 8.005a8.003 8.003 0 0 1-8 8.005c-4.442 0-8-3.565-8-8.005Z" />
    </g>
    <g stroke="#699acc">
      <path d="M1148.5 60.5 1311 223M753 313c0-6.075 4.925-11 11-11s11 4.925 11 11-4.925 11-11 11-11-4.925-11-11ZM878 187c0-6.075 4.925-11 11-11s11 4.925 11 11-4.925 11-11 11-11-4.925-11-11ZM937 246c0-6.075 4.925-11 11-11s11 4.925 11 11-4.925 11-11 11-11-4.925-11-11ZM1130 53c0-6.075 4.925-11 11-11s11 4.925 11 11-4.925 11-11 11-11-4.925-11-11ZM772 304l108.5-108.5M896.5 194.5l44 44M699 248l57.924 57.924M955.5 237.5 1133 60M1308 230c0-6.075 4.925-11 11-11s11 4.925 11 11-4.925 11-11 11-11-4.925-11-11ZM1636 68c0-6.075 4.925-11 11-11s11 4.925 11 11-4.925 11-11 11-11-4.925-11-11ZM1326.5 221.5 1556-8M1572.5-6.5 1639 60M1654 60l144-144M1830.5-81.5 2315 403" />
    </g>
    <g stroke="#6a9bcd">
      <rect x="1094.5" y="254" width="36" height="161" rx="3" ry="3" />
      <rect x="1139.5" y="304" width="36" height="161" rx="3" ry="3" />
      <rect x="1049.5" y="271" width="36" height="161" rx="3" ry="3" />
      <rect x="1004.5" y="344" width="36" height="161" rx="3" ry="3" />
    </g>
    <path d="m509 421 174.5-173.5M680 240c0-6.075 4.925-11 11-11s11 4.925 11 11-4.925 11-11 11-11-4.925-11-11Z" stroke="#699acc" />
  </g>
</svg>