<svg xmlns="http://www.w3.org/2000/svg" width="1384.002" height="224.038" viewBox="0 0 1384.002 224.038"><g transform="translate(-74 -6)" opacity="0.4"><path d="M108.35,180.1a7.87,7.87,0,0,1,4.795,1.616l49.2,37.341a7.941,7.941,0,0,1,1.526,11.112l-11.661,15.362a7.918,7.918,0,0,1-6.319,3.134,7.87,7.87,0,0,1-4.795-1.616l-49.2-37.34A7.932,7.932,0,0,1,90.37,198.6l11.66-15.362a7.918,7.918,0,0,1,6.32-3.135Zm37.537,64.565a3.9,3.9,0,0,0,3.133-1.552l11.661-15.362a3.937,3.937,0,0,0-.758-5.508l-49.2-37.341a3.931,3.931,0,0,0-5.51.751l-11.66,15.362a3.931,3.931,0,0,0,.759,5.508l49.2,37.34A3.9,3.9,0,0,0,145.887,244.669Z" transform="translate(-1.579 -18.631)" fill="#3b85db"/><path d="M247.83,86.842a13.132,13.132,0,0,1,13.06,11.9l3.027,32.15a13.131,13.131,0,0,1-11.842,14.3l-32.149,3.027c-.413.039-.832.059-1.245.059a13.131,13.131,0,0,1-13.059-11.9L202.6,104.232a13.13,13.13,0,0,1,11.841-14.3L246.586,86.9C247,86.862,247.418,86.842,247.83,86.842Zm-29.148,57.439c.288,0,.581-.014.87-.041l32.149-3.027a9.131,9.131,0,0,0,8.234-9.946l-3.027-32.15a9.132,9.132,0,0,0-9.077-8.275c-.288,0-.58.014-.869.041L214.812,93.91a9.13,9.13,0,0,0-8.234,9.946l3.027,32.149a9.131,9.131,0,0,0,9.076,8.275Z" transform="translate(-13.755 -8.651)" fill="#f9a619"/><path d="M371.381,167.6a33.057,33.057,0,1,1-12.906,2.606A32.947,32.947,0,0,1,371.381,167.6Zm0,62.306a29.057,29.057,0,1,0-11.348-2.29A28.968,28.968,0,0,0,371.381,229.91Z" transform="translate(-28.275 -17.293)" fill="#eb3669"/><path d="M86.65,72a12.65,12.65,0,1,1-8.945,3.705A12.567,12.567,0,0,1,86.65,72Zm0,21.3A8.65,8.65,0,1,0,78,84.65,8.66,8.66,0,0,0,86.65,93.3Z" transform="translate(0 -7.063)" fill="#28192d"/><path d="M1547.073,94.654a9.324,9.324,0,0,1-7.243-3.431l-14.467-17.69a9.372,9.372,0,0,1,1.317-13.167l56.652-46.334a9.363,9.363,0,0,1,13.173,1.314l14.467,17.69a9.354,9.354,0,0,1-1.328,13.169l-56.65,46.332A9.368,9.368,0,0,1,1547.073,94.654Zm42.187-78.738a5.312,5.312,0,0,0-3.4,1.214l-56.65,46.332a5.367,5.367,0,0,0-.754,7.54l14.467,17.69a5.351,5.351,0,0,0,7.534.751l56.653-46.333a5.354,5.354,0,0,0,.763-7.54l-14.467-17.69A5.34,5.34,0,0,0,1589.26,15.916Z" transform="translate(-155.083 -0.633)" fill="#f9a619"/><path d="M1398.007,83.225a11.033,11.033,0,0,1,5.508,1.48l23.432,13.528a11.042,11.042,0,0,1,4.046,15.076l-13.529,23.432a11.04,11.04,0,0,1-15.081,4.041l-23.425-13.529a11.042,11.042,0,0,1-4.046-15.075l13.529-23.432a11.038,11.038,0,0,1,9.565-5.52Zm9.888,55.035a7.039,7.039,0,0,0,6.1-3.521l13.528-23.43a7.05,7.05,0,0,0-2.581-9.613l-23.432-13.528a7.033,7.033,0,0,0-9.61,2.577l-13.528,23.43a7.05,7.05,0,0,0,2.581,9.613l23.423,13.528A7.054,7.054,0,0,0,1407.9,138.26Z" transform="translate(-139.052 -8.264)" fill="#eb3669"/><path d="M1595.125,139.4a4.337,4.337,0,0,1,2.169.582l8.92,5.153a4.347,4.347,0,0,1,1.591,5.921l-5.154,8.929a4.341,4.341,0,0,1-5.924,1.59l0,0-8.921-5.153a4.347,4.347,0,0,1-1.59-5.921l5.154-8.929A4.348,4.348,0,0,1,1595.125,139.4Zm3.768,18.755a.335.335,0,0,0,.292-.166l5.154-8.929a.34.34,0,0,0-.126-.461l-8.92-5.153a.324.324,0,0,0-.167-.045.341.341,0,0,0-.3.166l-5.154,8.929a.34.34,0,0,0,.126.461l8.916,5.151A.345.345,0,0,0,1598.892,158.16Z" transform="translate(-161.759 -14.276)" fill="#28192d"/><path d="M1467.983,6a20.417,20.417,0,0,1,7.942,39.218A20.416,20.416,0,1,1,1467.983,6Zm0,36.823a16.411,16.411,0,1,0-11.607-4.807A16.294,16.294,0,0,0,1467.983,42.823Z" transform="translate(-146.985)" fill="#3b85db"/></g></svg>