<svg xmlns="http://www.w3.org/2000/svg" opacity=".4" viewBox="0 0 1422 800" style="overflow:hidden;display:block" width="1422" height="800"><defs><linearGradient id="dddraw-gradient" x1="711" y1="-400" x2="711" y2="800" spreadMethod="pad" gradientUnits="userSpaceOnUse"><stop offset="0%" stop-color="hsl(1.4, 100%, 67%)"/><stop offset="100%" stop-color="hsl(167, 52%, 78%)"/></linearGradient></defs><path d="m765 113.13-5.37-1.02q-5.37-1-16.05-2.53-10.68-1.52-20.88-2.35-10.2-.83-21.71-1.54-11.52-.72-26.24-1.13-14.73-.42-30.08-.65-15.35-.24-33.02-.4-17.66-.15-27.03-.2-9.36-.06-18.75-.1l-19.1-.08-19.48-.07-19.35-.04-19.1-.04-18.91-.02q-9.38 0-27.34.92-17.95.92-35.98 2.55-18.04 1.62-33.85 3.9-15.82 2.3-28.3 5.18-12.47 2.89-23.76 6.84-11.28 3.95-23.06 9.37-11.77 5.43-23.69 12.13-11.91 6.7-23.48 14.38-11.57 7.68-22.54 15.73-10.96 8.06-20.52 15.7-9.57 7.63-18.61 16.18-9.05 8.54-17.56 18.03-8.52 9.48-16.09 19-7.57 9.51-14.41 20.22-6.84 10.7-11.96 22.28-5.12 11.58-8.59 22.92-3.46 11.34-5.37 23.23-1.9 11.88-2.16 23.8-.25 11.9 1.25 23.7 1.5 11.8 5.92 25.15 4.43 13.35 10.14 25.45 5.71 12.1 12.41 22.7 6.7 10.58 15.06 20.63 8.35 10.05 17.66 19.06 9.3 9.01 18.9 17.04 9.57 8.03 21 16.06 11.41 8.03 23.33 15.5 11.91 7.48 23.83 14.3 11.92 6.82 24.45 12.71 12.53 5.9 25.55 11.48 13.03 5.57 27.45 10.7 14.42 5.12 30.28 10.27 15.86 5.14 32.47 10.03 16.6 4.89 34.86 9.07 18.27 4.18 28.5 6.13 10.21 1.94 20.55 3.83 10.35 1.88 20.3 3.56 9.95 1.67 19.63 3.2 9.68 1.52 19.16 2.94t19.05 2.6q9.56 1.19 19.07 2.06 9.5.88 19.99 1.53 10.5.66 20.6 1.15 10.1.48 19.75.83 9.65.36 19.3.77 9.64.4 19.28 1t18.87 1.02l27 1.28q17.78.84 33.83 1.5 16.05.65 31.38 1 15.34.36 32.45.56 17.1.2 33.93.31 16.83.11 33.17.17l32.39.08 31.34.04h57.85q13.97-.01 27.58-.56 13.6-.54 28.24-2.22 14.63-1.68 29-4.22 14.37-2.53 27.85-4.94 13.48-2.41 26.4-5.12 12.91-2.7 25.68-6.07t24.7-7.45q11.95-4.08 21.99-8.85t17.6-10.76q7.56-6 14.27-13.96 6.7-7.96 14.06-19.28t11.18-24.44q3.82-13.12 5.3-22.25t2.16-18.84q.67-9.71-.22-21.33-.9-11.63-2.86-23.98-1.97-12.35-4.8-25.99-2.83-13.63-6.76-26.8-3.93-13.15-8.71-26.47-4.79-13.33-10.66-27.2-5.88-13.88-11.96-26.66-6.08-12.78-11.93-24.22-5.84-11.43-12.63-22.93-6.8-11.5-14.26-22.29-7.47-10.79-15.02-20.35-7.55-9.56-15.03-17.73-7.48-8.18-15.27-15.45-7.8-7.28-15.47-13.81-7.68-6.53-16.87-13.07-9.19-6.53-18.7-12.6-9.52-6.06-19.73-12.1-10.21-6.06-20.2-11.87-9.97-5.82-18.69-10.41-8.7-4.6-21.5-10.52t-21.94-9.56q-9.14-3.63-17.77-6.81-8.63-3.18-20.83-7.16-12.2-4-24.42-7.05-12.21-3.07-22.35-4.81-10.14-1.75-20.65-3.33-10.51-1.58-21.06-2.94-10.55-1.37-21.73-2.21-11.17-.85-22.6-1.32-11.42-.47-23.76-.74-12.34-.26-26.23-.42-13.9-.16-26.8-.25-12.9-.08-24.86-.12-11.96-.04-22.75-.05-10.8-.02-23.44-.01-12.65 0-27.25-3.16l-14.6-3.17v-.01l14.6-3.16q14.62-3.15 27.27-3.11l23.45.07 22.77.07q11.97.04 24.9.11 12.91.07 26.87.2 13.95.11 26.4.36t24.06.71q11.6.47 23.15 1.34 11.55.86 22.23 2.24 10.69 1.38 21.32 2.96 10.63 1.59 21.11 3.39 10.48 1.8 23.24 5.03 12.77 3.23 25.19 7.31 12.42 4.09 21.08 7.3 8.67 3.2 18.22 7.01 9.55 3.81 22.66 9.9 13.1 6.1 22.04 10.84t18.97 10.6q10.03 5.84 20.47 12.02 10.44 6.19 20.08 12.34 9.63 6.15 19.38 13.11 9.74 6.96 17.54 13.63 7.8 6.68 15.93 14.3 8.12 7.64 15.89 16.17 7.77 8.54 15.57 18.46 7.8 9.91 15.47 21.02 7.67 11.12 14.71 23.05 7.04 11.93 12.9 23.42 5.84 11.48 12.05 24.52 6.21 13.04 12.27 27.27 6.05 14.22 10.93 27.75 4.88 13.52 9 27.3 4.12 13.77 7.03 27.62 2.91 13.84 4.97 26.67 2.07 12.83 3 25.36.95 12.53.21 22.85-.73 10.32-2.36 20.13-1.62 9.81-4.19 19.63-2.56 9.82-6.84 19-4.29 9.17-9.9 17.02-5.6 7.85-12.95 16.46-7.36 8.62-16.28 15.53-8.91 6.9-19.77 12-10.86 5.09-23.17 9.27-12.31 4.19-25.42 7.63-13.1 3.44-26.27 6.18-13.16 2.74-26.66 5.14-13.5 2.4-28.14 4.97t-29.72 4.3q-15.08 1.72-29.04 2.26-13.95.53-27.93.52l-28.26-.04-29.6-.06-31.35-.06-32.41-.1q-16.36-.08-33.21-.19-16.86-.11-34.03-.32-17.17-.2-32.6-.6-15.43-.39-31.62-1.1-16.2-.7-33.9-1.57l-27-1.31q-9.3-.45-18.84-1.04-9.53-.6-19.14-1-9.6-.41-19.32-.78-9.71-.36-19.9-.84-10.19-.48-20.86-1.13-10.67-.65-20.35-1.54-9.7-.9-19.4-2.1-9.72-1.2-19.25-2.63-9.52-1.42-19.26-2.95-9.74-1.53-19.77-3.2-10.02-1.67-20.42-3.53-10.4-1.86-20.75-3.8-10.36-1.92-20.06-3.96-9.69-2.04-18.63-4.22-8.95-2.17-25.79-7.1-16.83-4.91-32.84-10.06-16.01-5.15-30.83-10.4-14.81-5.25-27.94-10.87-13.13-5.61-26.13-11.73-13-6.12-25.2-13.1-12.2-6.99-24.34-14.6-12.14-7.6-24.01-15.95-11.88-8.34-21.78-16.67-9.9-8.32-19.61-17.74-9.7-9.42-18.58-20.14-8.87-10.72-15.98-22.02-7.1-11.31-13.05-23.93-5.95-12.63-10.72-27.1-4.77-14.49-6.36-27.32-1.58-12.82-1.27-25.62.32-12.8 2.37-25.38 2.05-12.6 5.8-24.77 3.76-12.18 9.23-24.47 5.47-12.28 12.71-23.6 7.25-11.33 15.14-21.24 7.9-9.9 16.73-19.7 8.82-9.8 18.3-18.72 9.48-8.92 19.27-16.7 9.8-7.8 20.9-15.94 11.12-8.15 23.17-16.13 12.06-7.99 24.35-14.87 12.3-6.89 24.46-12.46 12.18-5.57 24.23-9.72t25.1-7.1q13.04-2.94 29.26-5.25 16.22-2.3 34.37-3.94 18.16-1.63 27.34-2.28 9.18-.65 18.38-.94 9.2-.29 18.59-.29l18.91.01h38.46l19.5.01q9.7 0 19.1.02l18.77.03q9.38.02 27.08.1 17.7.08 33.12.27 15.42.2 30.32.57 14.9.37 26.54 1.1 11.65.72 22.16 1.6 10.5.87 21.6 2.47 11.09 1.6 16.46 2.62 5.37 1.02 6.08 1.25.72.22 1.37.62.64.4 1.17.93.53.53.91 1.18.4.65.61 1.37.22.72.26 1.47.04.76-.1 1.5t-.45 1.42q-.31.69-.78 1.28-.47.59-1.07 1.05-.6.46-1.28.77-.7.3-1.43.43-.75.14-1.5.09l-.75-.05Z" fill="url(#dddraw-gradient)"/></svg>