<svg xmlns="http://www.w3.org/2000/svg" xmlns:xlink="http://www.w3.org/1999/xlink" width="128" height="47" viewBox="0 0 128 47"><defs><clipPath id="a"><rect width="128" height="47" transform="translate(965 3)" fill="#fff"/></clipPath></defs><g transform="translate(-965 -3)" clip-path="url(#a)"><g transform="translate(1001.444 3)"><path d="M3808.274,732c-.3-1.978-2-4.174-4.136-4.126a37.033,37.033,0,0,0-3.9.475l-4.256.552-9.073,1.176c-.2-.411-.4-.824-.6-1.235a148.279,148.279,0,0,0-6.949-13.1,8.7,8.7,0,0,0-4.33-3.861,4.82,4.82,0,0,0-4.981.961c-1.742,1.59-2.7,4.129-3.727,6.193q-1.925,3.873-3.67,7.837c-2.27,5.174-5.423,14.551-7.248,19.652a30.213,30.213,0,0,0-1.81,5.625,15.918,15.918,0,0,0,.061,7.228,5.278,5.278,0,0,0,3.839,3.823c2.035.429,3.548-.712,4.471-2.452.052,6.09.1,12.541.151,16.818-.009.011-.02.018-.03.029-.771.89-1.484,1.091-2.135,2.053-.329.48-.071.923.731.923h10.119c1.031,0,1.178-1.187,1.194-2.313s-.009-9.831-.009-14.752c0-2.959.014-5.675.05-8.287,1.179.014,2.359.023,3.539.016.477,8.225.863,22.457.863,23.6,0,1.453.477,1.735,1.182,1.735s6.782.123,10.852,0c.7-.018.683-.833.3-1.26a16.2,16.2,0,0,0-1.992-1.637c-.127-7.547-.513-15.387-.819-23.057a26.052,26.052,0,0,0,6.143-1.286,4.083,4.083,0,0,0,2.766-4.506c-.293-2.247-1.48-4.426-2.361-6.488l-.133-.31a2.958,2.958,0,0,0,.637.372,2.109,2.109,0,0,1,.772.564,1.764,1.764,0,0,0,.607.416c1.8.747,3.893-.8,4.56-2.512q3-1.966,5.928-4.031C3806.525,735.675,3808.626,734.33,3808.274,732Z" transform="translate(-3753.201 -711.576)" fill="#abe5eb"/><path d="M3838.773,804.6a.534.534,0,0,1-.534-.534v-.89a.534.534,0,0,1,1.068,0v.89A.534.534,0,0,1,3838.773,804.6Z" transform="translate(-3823.11 -786.443)" fill="#063f58"/><path d="M3829.883,858.427a17.124,17.124,0,0,0-2.313-.441c.269-.29.544-.573.838-.84.585-.534,1.365-.922,1.478-1.768a.432.432,0,0,0-.222-.386,8.909,8.909,0,0,0-2.633-.712l.278-.509a.453.453,0,0,0-.385-.672c-6.653-.861-13.436-1.569-20.072-.2l-.037.012a.456.456,0,0,0-.505.656l.456.8h-1.128a.452.452,0,0,0-.317.761,7.153,7.153,0,0,1,1.591,2.2c-.342.053-.68.121-1.018.2a.45.45,0,0,0-.309.557.43.43,0,0,0,.042.1,24.739,24.739,0,0,1,1.747,3.2l3.245-.551a6.53,6.53,0,0,1,2.872-.178c.712.229.688.929.178,1.361a22.817,22.817,0,0,1-2.777,1.245,22.286,22.286,0,0,1,2.569-.425.608.608,0,0,1,.582.925c-.346.608-1.893,1.03-2.47,1.363.263-.018,1.491-.47,1.756-.468.375,0,.6.672.314.939a10.288,10.288,0,0,1-4.322,2.38q.122.824.19,1.66a11.361,11.361,0,0,0,0,1.21,1.042,1.042,0,0,0,.81,1.116,12.152,12.152,0,0,0,2.471-.1q5.354-.244,10.708,0a.4.4,0,0,0,.431-.371.391.391,0,0,0,0-.083.439.439,0,0,0,.032-.192,15.244,15.244,0,0,1,1.639-6.673,12.071,12.071,0,0,1,1.51-2.889,10.814,10.814,0,0,1,2.562-2.113.983.983,0,0,0,.212-1.114Z" transform="translate(-3795.948 -827.125)" fill="#e3d6bd"/><path d="M3835.294,878.959a.529.529,0,0,1-.109-.011,60.921,60.921,0,0,0-13.543-1.279,48.094,48.094,0,0,0-5.692.733.534.534,0,0,1-.2-1.05,48,48,0,0,1,5.869-.751,62.194,62.194,0,0,1,13.779,1.3.534.534,0,0,1-.108,1.056Z" transform="translate(-3804.268 -847.235)" fill="#063f58"/><path d="M3812.193,861.136a.534.534,0,0,1-.05-1.065,106.838,106.838,0,0,1,19.847-.036.534.534,0,0,1-.1,1.063,105.794,105.794,0,0,0-19.649.035Z" transform="translate(-3801.259 -833.258)" fill="#063f58"/><path d="M3791.482,898.813a.534.534,0,0,1-.513-.387,17.166,17.166,0,0,1-.5-2.345.534.534,0,1,1,1.057-.147,16.162,16.162,0,0,0,.465,2.2.534.534,0,0,1-.366.66A.543.543,0,0,1,3791.482,898.813Z" transform="translate(-3783.838 -862.757)" fill="#063f58"/><path d="M3779.182,902.216a.534.534,0,0,1-.483-.758,58.559,58.559,0,0,1,3.4-6.3,21.234,21.234,0,0,1,1.9-2.639.534.534,0,1,1,.783.725,20.021,20.021,0,0,0-1.774,2.477,57.367,57.367,0,0,0-3.339,6.187A.534.534,0,0,1,3779.182,902.216Z" transform="translate(-3774.122 -860.185)" fill="#063f58"/><path d="M3815.1,942.61a2.9,2.9,0,0,1-1.039-.193.534.534,0,1,1,.383-1,1.835,1.835,0,0,0,1.489-.079.534.534,0,0,1,.486.95A2.9,2.9,0,0,1,3815.1,942.61Z" transform="translate(-3802.952 -900.417)" fill="#063f58"/><path d="M3802.712,953.994a.534.534,0,0,1-.5-.729c1.1-2.809,2.745-6.763,2.762-6.8a.534.534,0,0,1,.986.41c-.017.039-1.656,3.984-2.753,6.782A.534.534,0,0,1,3802.712,953.994Z" transform="translate(-3793.465 -904.404)" fill="#063f58"/><path d="M3961.817,858.452a3.565,3.565,0,0,1-.7-.071,2.7,2.7,0,0,1-1.852-1.381,4.238,4.238,0,0,1-.135-3.514.534.534,0,0,1,1,.381,3.207,3.207,0,0,0,.072,2.617,1.639,1.639,0,0,0,1.125.85,1.957,1.957,0,0,0,1.538-.267,2.085,2.085,0,0,0,.823-1.4.534.534,0,0,1,1.055.165,3.154,3.154,0,0,1-1.266,2.109A2.859,2.859,0,0,1,3961.817,858.452Z" transform="translate(-3922.239 -827.957)" fill="#063f58"/><path d="M3981.421,874.437a.534.534,0,0,1-.089-1.06,2.476,2.476,0,0,0,1.932-1.651.534.534,0,1,1,1.011.341,3.541,3.541,0,0,1-2.765,2.362A.55.55,0,0,1,3981.421,874.437Z" transform="translate(-3940.382 -842.935)" fill="#063f58"/><path d="M3953.656,828.74a.551.551,0,0,1-.081-.006c-1.75-.268-1.987-2.026-2.064-2.6a3.656,3.656,0,0,1,1.206-3.152,3.11,3.11,0,0,1,3.284-1.114.476.476,0,0,1,.05.021.493.493,0,0,0,.144.044.311.311,0,0,0,.1-.049l.039-.026a48.437,48.437,0,0,1,6.3-3.256.534.534,0,1,1,.419.982,47.384,47.384,0,0,0-6.139,3.173,1.381,1.381,0,0,1-.613.243.585.585,0,0,1-.094,0,1.549,1.549,0,0,1-.588-.141c-.933-.321-1.856.565-2.118.846a2.559,2.559,0,0,0-.929,2.282c.182,1.357.668,1.614,1.167,1.69a.534.534,0,0,1-.081,1.061Z" transform="translate(-3916.203 -799.522)" fill="#063f58"/><path d="M4005.042,819.364a.534.534,0,0,1-.493-.738.861.861,0,0,0,.05-.483.533.533,0,1,1,1.049-.195,1.916,1.916,0,0,1-.112,1.086A.535.535,0,0,1,4005.042,819.364Z" transform="translate(-3959.799 -798.665)" fill="#063f58"/><path d="M3970.607,858.476a.533.533,0,0,1-.532-.51,3.616,3.616,0,0,1,.651-2.235.534.534,0,1,1,.873.614,2.541,2.541,0,0,0-.458,1.573.534.534,0,0,1-.509.557Z" transform="translate(-3931.489 -829.899)" fill="#063f58"/><path d="M3860.2,776.278a6.7,6.7,0,0,1-5.159-3.722,7.281,7.281,0,0,1-.546-2.569,7.564,7.564,0,0,1,.913-4.193,8.081,8.081,0,0,1,2.557-2.544,9.215,9.215,0,0,1,3.444-1.464,7.263,7.263,0,0,1,7.838,4.526,7.39,7.39,0,0,1-1.726,7.428A7.824,7.824,0,0,1,3860.2,776.278Z" transform="translate(-3836.466 -752.773)" fill="#86cdd7"/><path d="M3885.4,787.942a2.981,2.981,0,0,0-2.637-2.01,3.08,3.08,0,0,0-2.77,1.923,3.225,3.225,0,0,0,.267,3.491,2.773,2.773,0,0,0,2.074.918h.178a3.249,3.249,0,0,0,2.163-1.068A3.342,3.342,0,0,0,3885.4,787.942Z" transform="translate(-3857.123 -772.702)" fill="#063f58"/><path d="M3934.182,832.487a.533.533,0,0,1-.327-.112c-2.2-1.707-4.681-3.732-6.872-5.518l-1.1-.894a.534.534,0,1,1,.674-.828l1.1.894c2.186,1.783,4.665,3.8,6.853,5.5a.534.534,0,0,1-.328.955Z" transform="translate(-3895.002 -804.833)" fill="#063f58"/><circle cx="1.658" cy="1.658" r="1.658" transform="translate(21.354 13.183)" fill="#fff"/><path d="M3858.183,774.478a10,10,0,0,1-1.53-.121,7.181,7.181,0,0,1-5.568-4.037,7.819,7.819,0,0,1-.59-2.766,8.059,8.059,0,0,1,.986-4.479,8.484,8.484,0,0,1,2.721-2.718,9.668,9.668,0,0,1,3.635-1.543,7.846,7.846,0,0,1,8.445,4.867,7.937,7.937,0,0,1-1.831,7.967A8.208,8.208,0,0,1,3858.183,774.478Zm.871-14.7a5.82,5.82,0,0,0-1.017.089,8.608,8.608,0,0,0-3.233,1.377,7.467,7.467,0,0,0-2.4,2.376,7.017,7.017,0,0,0-.839,3.9,6.769,6.769,0,0,0,.507,2.392,6.19,6.19,0,0,0,4.747,3.4h0a7.307,7.307,0,0,0,6.843-2.369,6.876,6.876,0,0,0,1.621-6.888A6.784,6.784,0,0,0,3859.054,759.774Z" transform="translate(-3833.177 -750.325)" fill="#063f58"/></g></g></svg>