<svg xmlns="http://www.w3.org/2000/svg" xmlns:xlink="http://www.w3.org/1999/xlink" width="173.915" height="51" viewBox="0 0 173.915 51"><defs><linearGradient id="a" y1="0.5" x2="1" y2="0.5" gradientUnits="objectBoundingBox"><stop offset="0" stop-color="#237c8f"/><stop offset="1" stop-color="#2abdd1"/></linearGradient><linearGradient id="b" y1="0.5" x2="1" y2="0.5" gradientUnits="objectBoundingBox"><stop offset="0" stop-color="#d2d1cd"/><stop offset="1" stop-color="#abafb8"/></linearGradient><linearGradient id="d" y1="0.5" x2="1" y2="0.5" gradientUnits="objectBoundingBox"><stop offset="0" stop-color="#0e218a"/><stop offset="1" stop-color="#1f72d2"/></linearGradient><linearGradient id="f" y1="0.5" x2="1" y2="0.5" gradientUnits="objectBoundingBox"><stop offset="0" stop-color="#f6462e"/><stop offset="1" stop-color="#fb7d42"/></linearGradient><linearGradient id="i" y1="0.5" x2="1" y2="0.5" gradientUnits="objectBoundingBox"><stop offset="0" stop-color="#fea235"/><stop offset="1" stop-color="#ffb44f"/></linearGradient></defs><g transform="translate(-1282.452 -299.666)"><g transform="translate(1301.334 333.034)"><path d="M1406.924,326.574l0-3.753-102.7-.075a8.782,8.782,0,1,0,.372,17.558l102.3.074,0-3.752h-2.9l.017-10.053Z" transform="translate(-1295.512 -322.745)" fill="url(#a)"/><g transform="translate(46.164 1.877)"><path d="M1327.441,330.928a7.075,7.075,0,0,0,7.213,6.92l98.729.071.023-13.8-99.132-.071A7.051,7.051,0,0,0,1327.441,330.928Z" transform="translate(-1327.441 -324.043)" fill-rule="evenodd" fill="url(#b)"/></g><g transform="translate(43.616)"><path d="M1325.679,331.5a8.957,8.957,0,0,0,9.083,8.8l102.305.074.006-3.752-102.3-.075a5.206,5.206,0,0,1-5.339-5.04,4.928,4.928,0,0,1,5.053-5.016l102.607.08.006-3.753-102.706-.075A8.942,8.942,0,0,0,1325.679,331.5Z" transform="translate(-1325.679 -322.745)" fill="#1e1916"/></g><g transform="translate(98.581 13.702)"><rect width="22.184" height="0.308" fill="#1e1916"/></g><g transform="translate(67.548 11.029)"><rect width="40.285" height="0.307" fill="#1e1916"/></g><g transform="translate(113.195 7.818)"><rect width="12.939" height="0.307" fill="#1e1916"/></g><g transform="translate(125.608 11.029)"><rect width="6.306" height="0.307" fill="#1e1916"/></g><g transform="translate(144.97 7.065)"><rect width="5.975" height="0.307" fill="#1e1916"/></g></g><g transform="translate(1338.3 338.75)"><path d="M1327.707,338.373c-8.921-3.172-6.265-11.591-6.236-11.675l.291.1c-.11.332-2.588,8.218,6.048,11.288Z" transform="translate(-1321.079 -326.698)" fill="#1e1916"/></g><g transform="translate(1282.452 313.732)"><g transform="translate(3.338 1.874)"><path d="M1369.963,310.691l-85.2.082.026,15.874,84.741-.08a7.942,7.942,0,1,0,.435-15.877Z" transform="translate(-1284.761 -310.691)" fill-rule="evenodd" fill="url(#b)"/></g><path d="M1370.99,309.395l-88.538.085.006,3.752,88.44-.09a6.231,6.231,0,0,1,6.078,6.048,5.872,5.872,0,0,1-1.848,4.264,6.581,6.581,0,0,1-4.573,1.815l-88.077.087,0,3.751,88.078-.085a10.307,10.307,0,0,0,7.166-2.86,9.572,9.572,0,0,0,3-6.978A10,10,0,0,0,1370.99,309.395Z" transform="translate(-1282.452 -309.395)" fill="url(#d)"/><g transform="translate(61.734 1.874)"><path d="M1410.354,310.691l-85.2.082.027,15.874,84.74-.08a7.942,7.942,0,1,0,.437-15.877Z" transform="translate(-1325.15 -310.691)" fill-rule="evenodd" fill="url(#b)"/></g><g transform="translate(58.397)"><path d="M1411.38,309.395l-88.538.085,0,3.752,88.441-.09a6.229,6.229,0,0,1,6.077,6.048,5.865,5.865,0,0,1-1.846,4.264,6.581,6.581,0,0,1-4.573,1.815l-88.078.087.006,3.751,88.077-.085a10.308,10.308,0,0,0,7.167-2.86,9.577,9.577,0,0,0,3-6.978A10,10,0,0,0,1411.38,309.395Z" transform="translate(-1322.842 -309.395)" fill="#1e1916"/></g><g transform="translate(91.492 7.165)"><path d="M1345.732,332.93l3.488-2.945,3.444,2.978.087-18.58-6.933-.032Z" transform="translate(-1345.732 -314.351)" fill-rule="evenodd" fill="url(#f)"/></g><g transform="translate(61.595 3.642)"><path d="M1325.361,318.127h-.307v-6.174h.153l21.61-.038v.306l-21.457.038Z" transform="translate(-1325.054 -311.914)" fill="#1e1916"/></g><g transform="translate(147.967 3.758)"><path d="M1389.648,319.739l-.3-.065a6.09,6.09,0,0,0-.648-4.768,6.781,6.781,0,0,0-3.908-2.611l.061-.3a6.97,6.97,0,0,1,4.1,2.741A6.382,6.382,0,0,1,1389.648,319.739Z" transform="translate(-1384.793 -311.994)" fill="#1e1916"/></g><g transform="translate(79.78 15.779)"><rect width="34.974" height="0.308" fill="#1e1916"/></g><g transform="translate(67.103 6.558)"><rect width="18.913" height="0.306" fill="#1e1916"/></g><g transform="translate(107.49 11.316)"><rect width="8.23" height="0.308" fill="#1e1916"/></g><g transform="translate(134.865 7.802)"><rect width="11.785" height="0.306" fill="#1e1916"/></g></g><g transform="translate(1293.203 299.666)"><path d="M1385.171,302.829l0-3.1-88.088-.062a7.256,7.256,0,1,0,.308,14.507l87.757.062,0-3.1h-2.4l.013-8.308Z" transform="translate(-1289.888 -299.666)" fill="url(#f)"/><g transform="translate(59.857 1.551)"><path d="M1331.288,306.428a5.843,5.843,0,0,0,5.96,5.717l84.8.059.019-11.408-85.136-.058A5.824,5.824,0,0,0,1331.288,306.428Z" transform="translate(-1331.288 -300.739)" fill-rule="evenodd" fill="url(#b)"/></g><g transform="translate(57.752 0.067)"><path d="M1329.832,306.948a7.4,7.4,0,0,0,7.505,7.271l87.757.062,0-3.1-87.756-.062a4.3,4.3,0,0,1-4.411-4.165,4.07,4.07,0,0,1,4.174-4.144l88.009.064,0-3.1-88.09-.062A7.388,7.388,0,0,0,1329.832,306.948Z" transform="translate(-1329.832 -299.712)" fill="#1e1916"/></g><g transform="translate(135.551 5.351)"><path d="M1383.641,303.391l.062,13.35,2.475-2.139,2.506,2.117-.062-13.351Z" transform="translate(-1383.641 -303.367)" fill-rule="evenodd" fill="url(#i)"/></g><g transform="translate(106.393 11.322)"><rect width="18.33" height="0.254" fill="#1e1916"/></g><g transform="translate(96.087 9.113)"><rect width="17.951" height="0.254" fill="#1e1916"/></g><g transform="translate(118.468 6.461)"><rect width="10.691" height="0.253" fill="#1e1916"/></g><g transform="translate(128.725 9.113)"><rect width="5.211" height="0.254" fill="#1e1916"/></g><g transform="translate(144.724 5.838)"><rect width="4.937" height="0.254" fill="#1e1916"/></g></g></g></svg>