<svg xmlns="http://www.w3.org/2000/svg" width="244" height="257.728" viewBox="0 0 244 257.728"><g transform="translate(0 0)" opacity="0.593" style="mix-blend-mode:multiply;isolation:isolate"><path d="M1678.752,791.991a13.612,13.612,0,0,0,8.329-16.351c-1.7-6.192-4.124-13.282-7.085-17.492a106,106,0,0,0-22.9-23.576,114.991,114.991,0,0,0-61.4-22.732c-44.164-2.917-93.979,18.467-112.765,60.407a144.922,144.922,0,0,0-11.3,39.283c-1.294,9.682-1.981,25.21-.617,32.961a1.59,1.59,0,0,0,.043.233c1.661,9.011,7.317,14.483,15.891,11.252,12.28-4.638,30.98-11.366,49.885-16.746,29.128-8.3,61.51-18.543,69.428-21.351C1619.325,813.267,1668.041,796.018,1678.752,791.991Z" transform="translate(-1453.455 -711.577)" fill="#2dcbd0"/><path d="M1664.354,824.639a19.806,19.806,0,0,1-5.771-.911,14.123,14.123,0,0,1-4.846-2.432,8.092,8.092,0,0,1-3.048-5.116,1.624,1.624,0,1,1,3.2-.523,4.857,4.857,0,0,0,1.827,3.069,10.966,10.966,0,0,0,3.771,1.884c2.308.705,6.637,1.553,10.131-.552a1.624,1.624,0,0,1,1.676,2.782A13.346,13.346,0,0,1,1664.354,824.639Z" transform="translate(-1536.216 -758.701)" fill="#063f58"/><path d="M1638.445,808.872a1.629,1.629,0,0,1-1.592-1.951l.406-1.981a1.624,1.624,0,0,1,3.181.652l-.406,1.981A1.624,1.624,0,0,1,1638.445,808.872Z" transform="translate(-1529.862 -753.814)" fill="#063f58"/><path d="M1705.173,825.041a1.624,1.624,0,0,1-1.548-2.119l.688-2.149a1.624,1.624,0,1,1,3.093.99l-.687,2.148A1.625,1.625,0,0,1,1705.173,825.041Z" transform="translate(-1560.475 -761.155)" fill="#063f58"/><path d="M1779.161,900.474a85.517,85.517,0,0,0-.395-11.3c-.314-2.63-1.007-5.374-2.842-7.377-4.952-5.412-12.134-2.268-17.622-.444l-24.2,8.048-48.386,16.1c-3.323,1.083-7.366,1.873-10.138,4.13-2.462,2-3.534,4.99-4.151,7.983-1.727,8.378-3.762,19.2-5.9,27.478-4.249,16.432-7.713,30.6-12.74,46.806l-3.356,10.825c-1.8,3.291-.979,7.707,1.407,10.787,4.005,5.163,11.333,5.867,17.363,6.094a89.618,89.618,0,0,0,36.452-6.6c23.814-9.536,43.553-27.733,56.553-49.679a136.487,136.487,0,0,0,16.2-42.151C1778.88,913.934,1779.08,907.845,1779.161,900.474Z" transform="translate(-1535.202 -788.284)" fill="#f4f844"/><path d="M1794.307,1002.25a8.543,8.543,0,0,1-2.895-.49,1.624,1.624,0,0,1,1.1-3.055,6.77,6.77,0,0,0,6.389-1.414c1.319-1.087,3.565-3.319,3.8-6.052a1.624,1.624,0,1,1,3.236.277c-.249,2.9-2.013,5.843-4.968,8.28A10.621,10.621,0,0,1,1794.307,1002.25Z" transform="translate(-1600.292 -839.197)" fill="#063f58"/><path d="M1783.468,989.987a1.624,1.624,0,0,1-1.619-1.519l-.227-3.545a1.624,1.624,0,1,1,3.241-.208l.227,3.545a1.624,1.624,0,0,1-1.517,1.724C1783.539,989.986,1783.5,989.987,1783.468,989.987Z" transform="translate(-1596.292 -836.188)" fill="#063f58"/><path d="M1799.958,986.927a1.624,1.624,0,0,1-1.619-1.52l-.227-3.545a1.624,1.624,0,0,1,3.241-.208l.227,3.545a1.623,1.623,0,0,1-1.516,1.725C1800.029,986.925,1799.994,986.927,1799.958,986.927Z" transform="translate(-1603.857 -834.783)" fill="#063f58"/><path d="M1596.373,980.021a72.064,72.064,0,0,0-7.913-6.955c1.943-2.971,3.984-7.285.617-8.936a1.976,1.976,0,0,0-2.295.3l-5.563,5.071q-12.405.13-24.783.8c.162-.65.33-1.3.487-1.954a280.871,280.871,0,0,0,5.445-32.631c.508-4.33.173-8.66-2.008-12.5a10.048,10.048,0,0,0-9.4-5.331c-5,.254-11.1,1.965-15.815,3.431-3.393,1.055-11.117,3.3-20.025,6.251q.785-13.5.926-27.061l5.071-5.569a1.975,1.975,0,0,0,.3-2.295c-1.624-3.366-5.954-1.326-8.936.617a71.967,71.967,0,0,0-6.955-7.913c-2.647-2.446-6.2-.66-9.06.541-2.522,1.039-6.6,2.344-5.5,5.84.606,1.916,2.094,3.832,3.1,5.558l3.4,5.846c-.081,1.472-.054,2.95-.173,4.146q-1.332,13.9-2.674,27.787c-11.242,4.508-20.713,8.827-22.25,9.482a17.016,17.016,0,0,0-6.121,4.113c-2.755,3.091-1.905,7.1.173,10.191.611.915,1.689,2.452,3.02,4.3l-.8.287-10.787,4.812-11.458,5.114a13.629,13.629,0,0,0-5.358-3.128,1.323,1.323,0,0,0-1.83,1.342,48.679,48.679,0,0,0,2.592,11.079,47.733,47.733,0,0,0,2.241,5.18q.677,1.331,1.423,2.625a13.426,13.426,0,0,0,1.423,2.2c1.624,1.873,3.984.487,5.867-.227l6.192-2.343c4.173-1.575,14.754-5.488,18.943-7.069l5.564-2.105.141.13c7.761,6.771,13.985,13.558,22,20.026l.991.8q-5.163,8.595-9.639,17.584-2.349,4.709-4.492,9.5c-.7,1.57-1.461,3.134-2.046,4.752a4.506,4.506,0,0,0,.482,4.5,13.218,13.218,0,0,0,3.87,3.053q2.512,1.542,5.141,2.863a68.889,68.889,0,0,0,10.792,4.276c.887.27,1.537-.6,1.564-1.364.07-1.835-1-3.329-1.5-5.023a3.438,3.438,0,0,1,.3-2.538c.487-1.045,1.082-2.057,1.624-3.079l6.8-12.914,3.821-7.269a1.209,1.209,0,0,0,.135-.812l.736-1.391a58.736,58.736,0,0,0,7.036,2.885,8.621,8.621,0,0,0,10.662-3.745c2.6-4.194,4.13-9.336,5.759-13.969q1.526-4.33,2.939-8.633l23.917-2.3c1.2-.119,2.673-.092,4.146-.173l5.845,3.4c1.727,1.007,3.643,2.495,5.559,3.1,3.5,1.082,4.8-2.977,5.839-5.5C1597.017,986.218,1598.8,982.667,1596.373,980.021Z" transform="translate(-1439.2 -790.738)" fill="#eb73b3"/><path d="M1586.052,1027.251a1.569,1.569,0,0,1-.256-.02c-6.383-1.009-15.709-6.312-19.422-12.6a1.624,1.624,0,0,1,2.8-1.651c2.841,4.811,11.007,10.074,17.133,11.043a1.623,1.623,0,0,1-.252,3.227Z" transform="translate(-1497.441 -849.487)" fill="#063f58"/><path d="M1586.173,1008.629a1.624,1.624,0,0,1-1.125-2.794l1.683-1.618a1.624,1.624,0,0,1,2.25,2.341l-1.683,1.618A1.62,1.62,0,0,1,1586.173,1008.629Z" transform="translate(-1505.882 -845.623)" fill="#063f58"/><path d="M1602.633,1020.219a1.624,1.624,0,0,1-1.127-2.792l1.678-1.619a1.624,1.624,0,0,1,2.255,2.337l-1.678,1.618A1.621,1.621,0,0,1,1602.633,1020.219Z" transform="translate(-1513.433 -850.941)" fill="#063f58"/><path d="M1570.134,1040.972a6.188,6.188,0,0,1-4.288-1.606,6.858,6.858,0,0,1-1.522-6.974,17.046,17.046,0,0,1,3.184-5.4l2.311-2.981a1.624,1.624,0,1,1,2.566,1.99l-2.312,2.982a14.392,14.392,0,0,0-2.64,4.346,3.722,3.722,0,0,0,.639,3.673,3.569,3.569,0,0,0,3.361.523,10.711,10.711,0,0,0,3.822-2.459l.06-.057a42.96,42.96,0,0,0,4.87-5.178,1.624,1.624,0,1,1,2.542,2.021,46.085,46.085,0,0,1-5.21,5.543,13.943,13.943,0,0,1-4.995,3.19l-.08.028A7.74,7.74,0,0,1,1570.134,1040.972Z" transform="translate(-1496.445 -854.625)" fill="#063f58"/><path d="M1578.814,1036.866a1.624,1.624,0,0,1-.955-2.938,9.337,9.337,0,0,0,2.732-3.128,1.624,1.624,0,0,1,2.862,1.535,12.607,12.607,0,0,1-3.687,4.222A1.618,1.618,0,0,1,1578.814,1036.866Z" transform="translate(-1502.506 -857.634)" fill="#063f58"/><path d="M1553.634,893.785a1.62,1.62,0,0,1-1.278-.622c-1.383-1.762-3.378-4.338-3.378-4.338l2.568-1.988s1.988,2.566,3.364,4.322a1.623,1.623,0,0,1-1.276,2.626Z" transform="translate(-1489.563 -791.981)" fill="#063f58"/><path d="M1545.157,896.389a1.618,1.618,0,0,1-1.3-.651l-2.934-3.919a1.624,1.624,0,0,1,2.6-1.946l2.933,3.919a1.624,1.624,0,0,1-1.3,2.6Z" transform="translate(-1485.719 -793.076)" fill="#063f58"/><path d="M1721.288,1068.724s-2.576-2-4.337-3.378a1.624,1.624,0,0,1,2-2.555c1.756,1.377,4.321,3.365,4.322,3.366Z" transform="translate(-1566.339 -872.545)" fill="#063f58"/><path d="M1719.07,1077.21a1.62,1.62,0,0,1-.971-.322l-3.919-2.928a1.624,1.624,0,1,1,1.944-2.6l3.918,2.928a1.623,1.623,0,0,1-.973,2.924Z" transform="translate(-1565.054 -876.486)" fill="#063f58"/></g></svg>