<svg xmlns="http://www.w3.org/2000/svg" viewBox="0 0 362 70.3">
  <defs>
    <clipPath id="a">
      <path fill="none" d="M0 0h118.8v34.6H0z" data-name="Rectangle 173330"/>
    </clipPath>
  </defs>
  <g data-name="Group 220171">
    <g data-name="Group 220159" opacity=".5">
      <path fill="#86c9cf" d="M86.4 5.6 99 40.2h18.2L104.6 5.6Z" data-name="Path 256519"/>
      <g data-name="Group 220142">
        <g clip-path="url(#a)" data-name="Group 220141" transform="translate(64.5 5.6)">
          <path fill="#86c9cf" d="M96.2 34.6s-1.2-5.8 4.3-17A48.6 48.6 0 0 0 105.1 0H87s1.4 4.8-6 20.2c-4.2 8.8-3 14.4-3 14.4Z" data-name="Path 256520"/>
          <path fill="#dddddc" d="M100.4 34.6s1.2-5.8-4.3-17A48.6 48.6 0 0 1 91.5 0h18.2s-1.4 4.8 6 20.2c4.2 8.8 3 14.4 3 14.4Z" data-name="Path 256521"/>
          <path fill="#ffb900" d="m98.3 22.7 2.2-5A48.6 48.6 0 0 0 105.1 0H91.5A48.6 48.6 0 0 0 96 17.6l2.2 5.1" data-name="Path 256522"/>
          <path fill="#86c9cf" d="M43.5 0s1.3 4.4-2.8 12.1c-8.7 16.3-6.2 22.5-6.2 22.5h18.2s-1-8 6-20.3c4.8-8.5 3-14.3 3-14.3Z" data-name="Path 256523"/>
          <path fill="#dddddc" d="M40.1 0 27.5 34.6H9.3L21.9 0Z" data-name="Path 256524"/>
          <path fill="#ffb900" d="M18.6 0s-1.3 4.4 2.8 12.1c8.6 16.3 6.1 22.5 6.1 22.5H9.3s1-8-6-20.3C-1.5 5.8.3 0 .3 0Z" data-name="Path 256525"/>
          <path fill="#e85620" d="M21.4 12.1a29.1 29.1 0 0 1-2.1-4.9l-10 27.4h18.2c.2-.6 2.1-6.9-6.1-22.5" data-name="Path 256526"/>
          <path fill="#dddddc" d="M75.3 0H57.5v34.6h17.8a17.2 17.2 0 0 0 17.1-17.3A17.2 17.2 0 0 0 75.4 0" data-name="Path 256527"/>
        </g>
      </g>
    </g>
    <g data-name="Group 220167" transform="translate(-118 -29)">
      <g data-name="Group 220170" transform="translate(198.2 20)">
        <g data-name="Group 220168">
          <path fill="#86c9cf" d="M258.4 79.4a14.1 14.1 0 0 0 1.4 0 14 14 0 0 0 12.6-7.9l-7-18.7a14 14 0 0 0-15.7 3Z" data-name="Path 256666"/>
          <path fill="#86c9cf" d="M259.8 79.5a14 14 0 0 0 8-25.5 22.7 22.7 0 0 1-2.7 7.5c-5 9.2-6 15-6 18h.7" data-name="Path 256667"/>
          <path fill="#59b5ad" d="M259.8 79.5a14 14 0 0 0 12.6-8L267 57a26.5 26.5 0 0 1-1.9 4.5c-5 9.2-6 14.9-6 18h.7" data-name="Path 256668"/>
          <path fill="#dddddc" d="M264 52.2a14 14 0 0 0-9.7 26.1Z" data-name="Path 256669"/>
          <path fill="#e85620" d="M247.1 61.5a5.8 5.8 0 0 1-.4-.9 14 14 0 0 0 6.4 17.1c-.4-3.2-1.8-8.5-6-16.2" data-name="Path 256670"/>
        </g>
        <rect width="20.9" height="20.9" fill="#fff" data-name="Rectangle 173339" rx="10.5" transform="translate(249.1 55)"/>
      </g>
      <circle cx="18.5" cy="18.5" r="18.5" fill="#fff" data-name="Ellipse 6758" transform="translate(432 58)"/>
      <path fill="#a52a69" d="M316.3 42h1.1a14.9 14.9 0 0 1 0 1.9 7 7 0 0 0 1.5-1l.7.8a11 11 0 0 1-2.1 1.2 14.3 14.3 0 0 1 2 1.6l-.7 1a15.3 15.3 0 0 0-2.1-1.8 5.5 5.5 0 0 1-2.2 1.8l-.8-.8a4.7 4.7 0 0 0 2-1.5 5.6 5.6 0 0 0 .6-3.2Zm6.2 0h1.1a14.6 14.6 0 0 1 0 1.8 6.5 6.5 0 0 0 1.7-1.1l.6.9a11.1 11.1 0 0 1-2.3 1.3 14.3 14.3 0 0 1 2.2 1.7l-.7.9a15.2 15.2 0 0 0-2.2-1.8 5.5 5.5 0 0 1-2.2 1.7l-.8-.8a4.6 4.6 0 0 0 2-1.4 5.4 5.4 0 0 0 .6-3.2Zm3.8 5.6v2.8H325v-1.7h-10.4v1.5h-1.2v-2.6Zm-11.5 2.6h3.8a10 10 0 0 0 .2-1.3l1.2.2q0 .6-.2 1.1h5q-.1 3.6-.8 4.4a1.7 1.7 0 0 1-1.4.6 18.3 18.3 0 0 1-2.2-.1l-.3-1.3a21.6 21.6 0 0 0 2.5.2.5.5 0 0 0 .5-.3 9.6 9.6 0 0 0 .3-2.4h-3.8a6.4 6.4 0 0 1-1.2 2.1 7.5 7.5 0 0 1-3.9 2l-.5-1a6.7 6.7 0 0 0 3.5-1.8 4 4 0 0 0 .8-1.3h-3.5Zm-.4-7.4a8.6 8.6 0 0 1 1.1 1.8l-.9.6a8.4 8.4 0 0 0-1-1.8Zm6.2 0a9.1 9.1 0 0 1 1 1.8l-.8.5a8.4 8.4 0 0 0-1-1.8Zm16-.5.7 1-3 .2v1h3.2v1h-3.2v.8h2.9v4.5h-2.9v1h2.8v.8h-2.8v1l3-.2v.6a9.3 9.3 0 0 0 1.2-2.6 22.1 22.1 0 0 0 .6-5.4h-1.4v-1h1.4v-3h1.2v3h2.7a74.1 74.1 0 0 1-.4 8.9 1.8 1.8 0 0 1-.5 1 1.6 1.6 0 0 1-1.1.5 7.6 7.6 0 0 1-1.5-.2l-.1-1.3a7.3 7.3 0 0 0 1.6.3.4.4 0 0 0 .3-.3 3 3 0 0 0 .3-1.1q.2-3.1.2-6.8h-1.6a23 23 0 0 1-.7 6.1 8.4 8.4 0 0 1-1.8 3.3l-.8-.8a2.8 2.8 0 0 0 .3-.4q-3.2.4-7 .6l-.2-1.1 3.2-.1v-1h-2.8v-.9h2.8v-.9h-2.8v-4.5h2.8v-.8H330v-1h3.3v-1l-2.5.2-.5-.9 6.4-.5Zm-5 7.5h1.6V49h-1.7Zm2.7-.8v.8h1.7V49Zm-2.8-.9h1.7v-.9h-1.7Zm2.8-.9v1h1.7v-1Zm16.1-5.1a6.8 6.8 0 0 1 .6 1.5h3v1h-1.7l1 .4a14.3 14.3 0 0 1-.5 1.6l-.3.8h1.6v1.1h-7.4v-1.1h1.9a14.7 14.7 0 0 0-.9-2.4l.8-.4h-1.6v-1h2.8a5.5 5.5 0 0 0-.4-1.2Zm-.6 5.3h1.4a10.3 10.3 0 0 0 .4-1.1 11.7 11.7 0 0 0 .5-1.7h-3.3a18.8 18.8 0 0 1 1 2.8Zm3.5 2.3V55H352v-.8h-3.5v.9h-1.1v-5.5Zm-4.7 3.5h3.5v-2.5h-3.5ZM360 42.7l-1.8 5a7 7 0 0 1 1.3 1.7 4.1 4.1 0 0 1 .5 1.9q0 2.3-2.1 2.3a8.6 8.6 0 0 1-1.2-.1l-.3-1.4a5 5 0 0 0 1.5.3q.8 0 .9-1.1a3.2 3.2 0 0 0-.4-1.5 5.4 5.4 0 0 0-1.5-1.8l1.4-4.2H356v11.5h-1.2V42.7Zm6.7-.7h1a14.9 14.9 0 0 1 0 1.9 7 7 0 0 0 1.6-1l.7.8a11 11 0 0 1-2.2 1.2 14.3 14.3 0 0 1 2.1 1.6l-.7 1a15.3 15.3 0 0 0-2.1-1.8 5.5 5.5 0 0 1-2.3 1.8l-.7-.8a4.7 4.7 0 0 0 2-1.5 5.6 5.6 0 0 0 .6-3.2Zm6.2 0h1.1a14.6 14.6 0 0 1-.1 1.8 6.5 6.5 0 0 0 1.7-1.1l.7.9a11.1 11.1 0 0 1-2.3 1.3 14.3 14.3 0 0 1 2.2 1.7l-.7.9a15.2 15.2 0 0 0-2.3-1.8 5.5 5.5 0 0 1-2.1 1.7l-.8-.8a4.6 4.6 0 0 0 2-1.4 5.4 5.4 0 0 0 .6-3.2Zm3.8 5.6v2.8h-1.2v-1.7H365v1.5h-1.2v-2.6Zm-11.5 2.6h3.8a10 10 0 0 0 .2-1.3l1.2.2-.2 1.1h4.9q0 3.6-.7 4.4a1.7 1.7 0 0 1-1.4.6 18.3 18.3 0 0 1-2.3-.1l-.3-1.3a21.6 21.6 0 0 0 2.6.2.5.5 0 0 0 .5-.3 9.6 9.6 0 0 0 .2-2.4H370a6.4 6.4 0 0 1-1.2 2.1 7.5 7.5 0 0 1-3.8 2l-.5-1a6.7 6.7 0 0 0 3.4-1.8 4 4 0 0 0 .8-1.3h-3.4Zm-.4-7.4a8.6 8.6 0 0 1 1 1.8l-.8.6a8.4 8.4 0 0 0-1-1.8Zm6.1 0a9.1 9.1 0 0 1 1.2 1.8l-1 .5a8.4 8.4 0 0 0-1-1.8Zm16.1-.5.7 1-3 .2v1h3.2v1h-3.2v.8h2.8v4.5h-2.8v1h2.8v.8h-2.8v1l3-.2v.6a9.3 9.3 0 0 0 1.1-2.6 22.1 22.1 0 0 0 .7-5.4H388v-1h1.5v-3h1.1v3h2.8a74.1 74.1 0 0 1-.4 8.9 1.8 1.8 0 0 1-.6 1 1.6 1.6 0 0 1-1 .5 7.6 7.6 0 0 1-1.5-.2l-.1-1.3a7.3 7.3 0 0 0 1.6.3.4.4 0 0 0 .3-.3 3 3 0 0 0 .2-1.1q.3-3.1.3-6.8h-1.6a23 23 0 0 1-.7 6.1 8.4 8.4 0 0 1-1.9 3.3l-.8-.8a2.8 2.8 0 0 0 .3-.4q-3.1.4-7 .6l-.1-1.1 3.2-.1v-1h-2.8v-.9h2.8v-.9h-2.8v-4.5h2.8v-.8h-3.3v-1h3.3v-1l-2.5.2-.5-.9 6.4-.5Zm-5.1 7.5h1.7V49H382Zm2.8-.8v.8h1.7V49Zm-2.8-.9h1.7v-.9H382Zm2.8-.9v1h1.7v-1ZM398 45h4.7v-2.6h1.3V45h5.4a54 54 0 0 1-.4 8.1 2.5 2.5 0 0 1-.7 1.6 2.8 2.8 0 0 1-1.6.4 19.5 19.5 0 0 1-2.4-.2l-.3-1.4a18.7 18.7 0 0 0 2.7.2 1 1 0 0 0 .8-.2 3.3 3.3 0 0 0 .3-1.3q.2-2 .2-5.9h-4.1q-.4 3.8-1.4 5.4a11.5 11.5 0 0 1-4.1 3.7l-.7-1.1a10.5 10.5 0 0 0 3.7-3.4 10.6 10.6 0 0 0 1.2-4.6H398Zm25.4 2.4h-1.5a3.2 3.2 0 0 1-.6 1.8 2.5 2.5 0 0 1-1.3 1l-.5-1.1a2.2 2.2 0 0 0 1-.7 4.4 4.4 0 0 0 .3-2h3a8 8 0 0 1-1-.9 7.4 7.4 0 0 1-2.2-3.2l1-.3a4.8 4.8 0 0 0 .8 1.5 7.9 7.9 0 0 0 1.9-1.5l.7.9a10.4 10.4 0 0 1-1.8 1.4l.5.5a1.6 1.6 0 0 1 .2.1 7.9 7.9 0 0 0 2-1.7l.7.9a11 11 0 0 1-1.7 1.4 12.7 12.7 0 0 0 2.4 1l-.9 1a10.7 10.7 0 0 1-1.9-.8v1.4q0 .4.4.4h1.5v1h-1.7q-1.3 0-1.3-1Zm-7.7 1.3h2.4v-1.2H416a9.5 9.5 0 0 1-1.7.5l-.6-1.1a8.8 8.8 0 0 0 2.5-.9 11.4 11.4 0 0 0-1.5-1.4l.8-.8a10.3 10.3 0 0 1 1.7 1.5 6 6 0 0 0 1.5-1.8h-3.8v-1h5.2v.7a7.5 7.5 0 0 1-2.2 3l-.4.3h1.8v3.3h-3l-.2 1h3.3q-.4 3.2-1 3.9a1.8 1.8 0 0 1-1.3.5h-1.5V54a14 14 0 0 0 1.5.2.6.6 0 0 0 .5-.4 4.7 4.7 0 0 0 .6-2h-3.6l.9-3Zm4.9 2.7h-.7v-1.1h5.7v.7a5.5 5.5 0 0 1-1 1.8 2.8 2.8 0 0 1-.2.3l2 1.3-.8 1q-1-.8-2.1-1.4l-.8.4a8.6 8.6 0 0 1-3 1l-.2-1.2a7 7 0 0 0 2.5-.7 2.5 2.5 0 0 0 .3-.2l-2.4-1.2Zm2.7 1.2.3-.3a4.3 4.3 0 0 0 .6-1h-3.4l2.5 1.3Zm18.3-9h-8.5v1h8.5Zm-8.5 2.1v1.5h2.5V46h1.2v1.2h2.6V46h1.1v1.2h2.5v1h-2.5v1.6h3.1V51h-8.2v3.2l2.7-.8.2 1a22.9 22.9 0 0 1-3.8 1.1l-.5-1a.4.4 0 0 0 .3-.4v-3H433l-.2 1.2a15.8 15.8 0 0 1-1 3.1l-1.1-.6a20.4 20.4 0 0 0 1-3.3 24.2 24.2 0 0 0 .2-3.4v-5.5h10.9v3.2Zm0 4.1h2.5v-1.5h-2.5v1.5Zm3.7 0h2.6v-1.5h-2.6Zm4.8 1.4.7.9a10.4 10.4 0 0 1-1.7 1 5.6 5.6 0 0 0 1 .5 9.7 9.7 0 0 0 2.3.6l-.5 1.1a12.8 12.8 0 0 1-2.5-.8 5.8 5.8 0 0 1-1.8-1 5.5 5.5 0 0 1-1.3-2l1-.3a4.9 4.9 0 0 0 .9 1.3 8.1 8.1 0 0 0 1.9-1.3Zm6.6-8.7H460v3.1h-11.8Zm1.2 2.2h2.4v-1.3h-2.4Zm3.5-1.3v1.3h2.4v-1.3Zm3.5 0v1.3h2.4v-1.3Zm-8 3.2h4.5V46h1.2v.7h3.1v.8q1.3-.5 2.4-1.2l.7.8a26 26 0 0 1-2.6 1.3h3v1h-5.3l-.7.2-2.1.6h6.7v5.2H458v-.6h-7.2v.6h-1.2V51l-2 .4-.4-1 4.9-1h-4.7v-1h5.4v-.8h-4.5Zm2.5 7.2h7.1v-.9h-7Zm0-1.8h7.1v-1h-7Zm4.1-3.7 2-.8h-3v.8Z" data-name="Path 247273"/>
      <path fill="#1a202c" d="m274.2 88 .1-.1a13.1 13.1 0 0 0 1.2-1.4 70.7 70.7 0 0 1-8.7 2.9h-.2l-1-2.6h.3l3.9-1v-8.1h-3.6V75h3.6v-2.5h-2.5v-1.2l-.2.1-1.8-2 .2-.1A16.3 16.3 0 0 0 268 66a16.9 16.9 0 0 0 1.8-3.7v-.2l2.8.6v.3l-.4.7a28.2 28.2 0 0 1 3.2 2.6V64h7l-.2.3a47.7 47.7 0 0 1-3.2 7.5h3.2v.2a36.1 36.1 0 0 1-2 11.6 10.7 10.7 0 0 0 .8 1.1c.8 1 2.4 1.6 4.7 1.8v-3h-4.4V81h4.4v-1.8h-3.5v-2.5h3.5V75h-3v-2.5h3V71h-4.4v-2.6h4.4v-1.7h-3v-2.5h3v-2h2.7v2h4v4.2h1.1V71h-1.1v4h-4v1.7h4v2.5h-4V81h4.5v2.5h-4.5v3.2c1.7 0 3.6 0 5.6-.2h.3l-.8 2.9H288c-4.2 0-7-.9-8.6-2.5a8.4 8.4 0 0 1-.6-.6 18.1 18.1 0 0 1-3 4l-.2.1Zm.3 0 1.3 2a18 18 0 0 0 3.1-4 8.5 8.5 0 0 0 .8.8q2.2 2.3 8.4 2.3h5.3l.7-2.4-.7 2.4h-5.3q-6.2 0-8.4-2.3a8.5 8.5 0 0 1-.8-.9 18 18 0 0 1-3.1 4.2l-1.3-2Zm-7.8 1.1a69.9 69.9 0 0 0 8.8-2.8 69.7 69.7 0 0 1-8.8 2.8ZM266 87Zm20-.5h2.3v-3.2h4.5-4.5v3.2Zm-10.3-.3a17.8 17.8 0 0 0 1.6-2.7A25.2 25.2 0 0 1 276 79v.1l-1.2 5.2h.3l.2-.1Zm-3.4-.8v-8h3.5-3.5Zm.2-.3 2-.7-1.9-.5v-.2c.5-1.7.8-3.4 1-5.1v-.2l2.4.5-.2-1.2h-3.3Zm.4-1.3 1.7.4 1.2-5.1-1.2 5.1-1.7-.4Zm7-.1a35.6 35.6 0 0 0 2.2-11.6 35.6 35.6 0 0 1-2.1 11.6Zm-4-6a27.2 27.2 0 0 0 1.7 5.8 27.2 27.2 0 0 1-1.6-5.8Zm5.7 5.6Zm6.7-2V79h4-4Zm-10.2-4.5.6 2.8a45.2 45.2 0 0 0 1-5.3h-3.4l-.4-2.2a31.2 31.2 0 0 0 2.7-5.6h-3l1 1 .1.1L275 70h.1v2.6h-2.5V75h3.5v2.4l2-.9Zm4.4 2.2Zm-16-1.6Zm21.8-.4v-2.2h4v-4h1.1-1.2v4h-3.9Zm-16-1.7v-3h2.5-2.5Zm10.7-.5Zm-6.9-2.6.4 1.9-.4-2Zm12.2.6v-2Zm.2-.3h1.4V71h-1.4Zm-21-.2Zm11.2-.2a45.7 45.7 0 0 0 3.4-7.8 45.7 45.7 0 0 1-3.4 7.8Zm-13-2.7 1.4 1.7-1.5-1.7Zm15.9 1.4Zm-11.4-3.3a17 17 0 0 1-2 2.6 17 17 0 0 0 2-2.6 14 14 0 0 0 1-1.7 30 30 0 0 1 3.7 3.8l1.6-2-1.6 2a30 30 0 0 0-3.7-3.8 14 14 0 0 1-1 1.7Zm.2.1a17.7 17.7 0 0 1-1.7 2.3h6.2l-.2-.2a30.2 30.2 0 0 0-3.5-3.5 13.9 13.9 0 0 1-.8 1.4Zm21.8 1Zm-3.9 0v-2.2Zm.2-.2h1.4v-1.7h-1.4Zm-5.5-2Zm-7.2 0Zm12.5-2Zm-16.2-.5.3-.9-.3.9Zm95.5 23.8h.2a21.7 21.7 0 0 0 7.6-7c1.2-1.9 2-5 2.4-9.1h-9.3v-3.1h9.6l.1-5.4V63h3v5.5h11.2v.2c0 8.9-.2 14.5-.7 16.8a5.5 5.5 0 0 1-1.7 3.4 6 6 0 0 1-3.3.8 40.7 40.7 0 0 1-5.2-.3h-.1l-.7-3.4h.3a38.7 38.7 0 0 0 5.7.5 1.7 1.7 0 0 0 1.4-.5 6.5 6.5 0 0 0 .6-2.6c.3-2.6.4-6.6.4-11.8h-8.2c-.4 5.1-1.4 8.8-2.8 11a24.2 24.2 0 0 1-8.6 7.7h-.2Zm.3.1 1.5 2.3 1.2-.7-1.2.7-1.5-2.3Zm13.7 1.3a40.4 40.4 0 0 0 5.1.4 5.8 5.8 0 0 0 3.2-.8 5.3 5.3 0 0 0 1.6-3.3q.7-3.4.7-16.7 0 13.3-.7 16.7a5.3 5.3 0 0 1-1.6 3.3 5.8 5.8 0 0 1-3.2.8 40.4 40.4 0 0 1-5.1-.4l-.7-2.8Zm-1-15.9.1-1.9-.2 2Zm-12-1.9Zm12.3-2.6q.2-2.6.2-5.6 0 3-.2 5.6Zm-78.1 21.4h-.2l-.4-3a16 16 0 0 1-1 1.7l-.2.2-2-2v-.2a30.9 30.9 0 0 0 3.2-7v-.2l2.5 1.3v.2a34.5 34.5 0 0 1-2.5 6h.3a9 9 0 0 0 2.4.4l.3-.1a3.2 3.2 0 0 0 .1-1V79h-4.5v-8.6h11.6V79h-4.2v8a4 4 0 0 1-.6 2.5 2.8 2.8 0 0 1-2.3.8 12.8 12.8 0 0 1-2.5-.2Zm0-.2a12.4 12.4 0 0 0 2.5.2 2.6 2.6 0 0 0 2.1-.8 4 4 0 0 0 .5-2.3v-8.2h4.3-4.3V87a4 4 0 0 1-.5 2.3 2.6 2.6 0 0 1-2 .8 12.4 12.4 0 0 1-2.6-.2l-.4-2.6Zm-3.6-3 1.8 1.8a27.7 27.7 0 0 0 3.4-7.7 27.7 27.7 0 0 1-3.4 7.7l-1.8-1.7Zm1.8-8.1Zm2.4-2.2v-3.8Zm.2-.2h6V73h-6Zm7 11.4v-.1a14.5 14.5 0 0 0 3.8-4.7 21.6 21.6 0 0 0 2-6.2 38.3 38.3 0 0 0 .6-4.7h-4v-2.8h4.1l.1-6.8v-.2h2.9v.2l-.1 6.8h6.9v2.8h-7c-.2 2-.3 3.7-.6 5a24.2 24.2 0 0 1-2.7 8 18 18 0 0 1-4.5 5l-.2.2Zm.2 0L312 90a17.8 17.8 0 0 0 4.4-5 23.9 23.9 0 0 0 2.7-7.9q.3-2.1.5-5.3h7-7q-.2 3.2-.5 5.3a23.9 23.9 0 0 1-2.7 8A17.8 17.8 0 0 1 312 90l-1.2-2.2Zm2.5-16Zm6.4-2.2q.2-3.2.2-7.1 0 4-.2 7ZM237 87.8h.3a9 9 0 0 0 4.3-1.1 2.3 2.3 0 0 0 .6-.6h-4.5v-4.4h-.4l-.5-2h.1l2.4-1.7-2.1.2h-.2l-.3-2h.1a17.5 17.5 0 0 0 4.1-3.5h.1l2.4.6-.2.2a20.8 20.8 0 0 1-2.6 2.4l1.7-.2 1.5-1.4v-.1l2.2 1-.2.2-2.8 2.3 1.5-.4.1.1a13.1 13.1 0 0 1 1.6 3.4v.3l-1 .3v2.8a5 5 0 0 1-1.7 4.1 10.3 10.3 0 0 1-5.2 1.9h-.2Zm.4.2.8 2a10 10 0 0 0 5.1-1.9 4.7 4.7 0 0 0 1.6-3.9 4.7 4.7 0 0 1-1.6 4 10 10 0 0 1-5 1.8l-1-2Zm.5-2Zm2-1.9Zm-1.3-2.5h1.5V84h2.7v-2.5h1.4c0-.3-.2-.6-.3-.8a38.5 38.5 0 0 1-5.3 1Zm-1.6-1.8.5 1.7a38 38 0 0 0 6.6-1.2l.3 1 1.6-.4-1.6.5-.3-1a38 38 0 0 1-6.6 1.1l-.5-1.7Zm3-.3a39.7 39.7 0 0 0 5.6-4.2 39.7 39.7 0 0 1-5.7 4.2Zm1-.3a70 70 0 0 0 2.1-.4l-.4-.7h-.1l-1.7 1Zm1.9-1.2a8.8 8.8 0 0 1 .6 1 8.8 8.8 0 0 0-.6-1Zm-6-1.6.3 1.6 3-.3-3 .3-.3-1.6Zm2.9-.2a18.8 18.8 0 0 0 3.2-2.8 18.8 18.8 0 0 1-3.2 2.8Zm198.6 14V78.8a28.7 28.7 0 0 1-3.5 5.7l-.2.2-1.9-2.4.2-.1a27.7 27.7 0 0 0 3.1-4.8 27.5 27.5 0 0 0 2-4.4h-4.4v-2.8h4.7v-3.7l-3.4.4h-.1l-1.4-2.7h.3c3.4-.3 6.8-.7 10.1-1.3h.2l1.7 2.2-.4.1-4 .9v4h4.1V73h-4.1v1.3a41.7 41.7 0 0 1 3.8 4.4l.1.2-1.8 2.5-.2-.3-2-3v12Zm.2-.2h2.5V77.5l2.4 3.5 1.6-2.1-1.6 2.1q-1.2-2-2.4-3.5V90Zm-5.5-7.7 1.6 2a28.7 28.7 0 0 0 4-6.5 28.7 28.7 0 0 1-4 6.5l-1.6-2Zm8-7.9v-1.6h4.2-4.2Zm-7.2-1.6Zm7.2-7q2.3-.3 4.3-.8l-4.3.9Zm-7.3-1.4 1.2 2.3 3.6-.5-3.6.5-1.2-2.3ZM418 90.2v-7.9a21.2 21.2 0 0 1-1.6 2.3 20 20 0 0 1-4.5 3.9h-.2l-1.3-2.3v3.5h-2.9v-1.3H404V90h-2.8V80h9.2v6a17.8 17.8 0 0 0 4-3.3 18.6 18.6 0 0 0 2.2-2.8H411v-2.7h6.9v-1.6h-5.6V63.3h14.2v12.3h-5.7v1.6h7.1V80h-5.8a17.4 17.4 0 0 0 2 2.8 13 13 0 0 0 4 2.9h.1l-1.5 3-.2-.2a17 17 0 0 1-4.1-3.8 19.7 19.7 0 0 1-1.6-2.3v7.9Zm.2-.2h2.4v-8.5a20 20 0 0 0 2 3 16.8 16.8 0 0 0 4.1 3.8l1.3-2.5-1.3 2.5a16.8 16.8 0 0 1-4-3.8 20 20 0 0 1-2-3V90Zm-16.8-.3h2.4v-1.5 1.5Zm6.4-.2h2.3Zm2.8-3.3 1.2 2a19.8 19.8 0 0 0 4.4-3.7 21.7 21.7 0 0 0 2-3 21.7 21.7 0 0 1-2 3 19.8 19.8 0 0 1-4.4 3.8l-1.2-2.1Zm-6.8-.3v-3.4Zm.2-.2h3.5v-3H404Zm23.8-6Zm-16.5 0Zm9.3-2.3v-2h5.8-5.8Zm-8-2Zm8-2.1v-2.8Zm-5.4 0v-2.8Zm5.7-.3h2.7v-2.3h-2.7Zm-5.5 0h2.6v-2.3h-2.6Zm5.2-4.5v-2.9Zm-5.4 0v-2.9Zm5.7-.2h2.7v-2.4h-2.7Zm-5.5 0h2.6v-2.4h-2.6Zm-70 21.9v-7.3h-3.9l1.8 2-.2.2a16 16 0 0 1-3.7 2.6 28.7 28.7 0 0 1-4.5 2h-.2l-1.2-2.7.2-.1a24.3 24.3 0 0 0 4.3-1.8 17.3 17.3 0 0 0 3.3-2.1h-7.8v-2.6h12V79H335v-2.7h10.3v-1.5H334V72h6a10.9 10.9 0 0 0-.8-1l-.2-.3 1.8-1.1h-7.2V67h5l-.1-.2a11.8 11.8 0 0 0-2-2.8l-.2-.2 2.3-1.4a13.2 13.2 0 0 1 2.3 3v.2l-2.2 1.4h3.7v-4.8h2.8V67h3.1v-4.8h2.8V67h3.2l-2-1.9.2-.1a11.8 11.8 0 0 0 2.6-2.5l.1-.2 2.4 1.6-.1.2a13.7 13.7 0 0 1-2.8 2.9h5.8v2.6h-8.8l2.5.8v.2a12.9 12.9 0 0 1-.8 1.4h6.1v2.6h-11.2v1.5h10V79h-10v1.5h12.3V83h-8.3a46.3 46.3 0 0 1 7.5 4.4l.2.1-2.2 2.5-.2-.1a35 35 0 0 0-7-4.5l-.2-.1 1.7-2.3h-3.8v7.3Zm.3-.2h2.5v-7.3h12.3H348V90Zm5.1-5a35 35 0 0 1 7 4.6l2-2.1-2 2a35 35 0 0 0-7-4.4Zm-17 2.1 1 2.4a28.4 28.4 0 0 0 4.5-2 15.8 15.8 0 0 0 3.6-2.5 15.8 15.8 0 0 1-3.6 2.5 28.4 28.4 0 0 1-4.5 2l-1-2.4Zm0-4.4Zm14.4-2v-2h9.9-9.9Zm-12.8-2Zm12.8-2.2v-2h11.2-11.2Zm-13.9-2Zm18.9-2.3a.4.4 0 0 0 0 .1.4.4 0 0 1 0-.1 13.2 13.2 0 0 0 .8-1.6 13.2 13.2 0 0 1-.8 1.6Zm-12.6.1a11 11 0 0 0-1.1-1.4 11 11 0 0 1 1.1 1.4Zm2.9-.2h6.7l.3-.5a15.3 15.3 0 0 0 .8-1.9h-9.8a15.3 15.3 0 0 1 2 2.4Zm-9.6-2.7h26.4Zm17.1-2.1Zm-6 0Zm7.7-2 2 1.6a13.3 13.3 0 0 0 2.7-2.9 13.3 13.3 0 0 1-2.8 3l-1.9-1.8Zm-12 .3Zm-4-1.7.1.1Zm-89.9 26.3v-8.7l-.6-2 .1-.1 2.3-1.5-2 .2h-.3l-.2-2h.1a17.7 17.7 0 0 0 4.1-3.5l2.5.5-.2.3a20 20 0 0 1-2.7 2.4l1.7-.2 1.6-1.5h.1l2.1 1-.2.2-3 2.4 1.7-.5.1.1a11.7 11.7 0 0 1 1.8 3.5v.3l-1.6.5v4.8h-5v3.8Zm.2-.2h2v-3.8h5-5V90Zm2-5.7Zm-.8-3h1v2.8h2.6v-2.6h2c0-.4-.2-.7-.3-1a42.4 42.4 0 0 1-5.3.9Zm5.9 0 1.5-.4-1.5.5-.5-1.2a41.8 41.8 0 0 1-6.7 1l-.5-1.6.5 1.7a41.8 41.8 0 0 0 6.7-1.1l.5 1.2Zm-7.7-1.7 3-2-3 2Zm2.9-.3a36.5 36.5 0 0 0 5.7-4.2 36.5 36.5 0 0 1-5.7 4.2Zm1-.3 2.2-.4c0-.2-.2-.4-.4-.6l-.1-.2-1.7 1.2Zm2-1.1.6 1-.6-1 1.6-.5Zm-6-1.7.2 1.7 3-.3-3 .3-.2-1.7Zm2.8-.1a18.1 18.1 0 0 0 3.3-2.8A18.1 18.1 0 0 1 249 76Zm-16 14v-27h12v9.4h-9.2v17.7Zm.2-.1h2.4V72.3h9.2-9.2V90Zm2.4-19.6v-1.7Zm.2-.2h6.4v-1.3h-6.4Zm-.2-3.4v-1.7Zm.2-.2h6.4v-1.3h-6.4Zm85.8 23.1c-1.2-.1-1.8-1-1.8-2.7V73.3h2.9V87h.1a1.4 1.4 0 0 0 .7.1c.6 0 .7-.2.7-.3a6 6 0 0 0 .3-1.7c0-.6 0-1.5.2-2.8V82l2.7 1.4v.1c-.3 3.1-.7 4.9-1.2 5.5a1.4 1.4 0 0 1-1 .8 4.6 4.6 0 0 1-1.7.2 5.6 5.6 0 0 1-1.9-.3Zm-1.5-2.7q0 2.3 1.6 2.5a5.4 5.4 0 0 0 1.8.2 4.3 4.3 0 0 0 1.6-.1 1.1 1.1 0 0 0 1-.7q.7-.8 1-5.4-.3 4.6-1 5.4a1.1 1.1 0 0 1-1 .7 4.3 4.3 0 0 1-1.6.1 5.4 5.4 0 0 1-1.8-.2q-1.6-.2-1.6-2.5Zm2.4-.6Zm-69.2 3.3h-.1l-.6-3.2.4.1a9.1 9.1 0 0 0 2.8.5c.4 0 .5-.7.5-1.3V72.4H247V63h12v23.6a3.7 3.7 0 0 1-.7 2.5 2.8 2.8 0 0 1-2.3.9 16.6 16.6 0 0 1-2.8-.3Zm0-.2a16.4 16.4 0 0 0 2.8.2q2.8 0 2.8-3 0 3-2.8 3a16.4 16.4 0 0 1-2.7-.2l-.5-2.7Zm-6.1-17.3Zm2.4-2v-1.5Zm.2-.2h6.5v-1h-6.5Zm-.2-3.2v-1.7Zm.2-.2h6.5v-1.3h-6.5Zm194.6 23v-2.7h7.5V83h-6.2v-2.6h6.2v-3.1l-6 .2h-.2l-.4-2.8h.2a76.3 76.3 0 0 0 14.4-1.2h.2l.9 2.4h-.3c-1.8.5-3.8.8-6 1v3.5h6V83h-6v4h7v2.7Zm.2-.3h16.8Zm9.9-2.2v-4.3h6-6Zm-8.6-4.3Zm8.6-6a62.4 62.4 0 0 0 6.2-1 62.4 62.4 0 0 1-6.2 1Zm-9-1.9.4 2.4-.4-2.4Zm6.6 2.2Zm-141 8.4a16.9 16.9 0 0 0-2.5-4.2l-.2-.2 2.3-1.4.2.1a19.7 19.7 0 0 1 2.6 4.3v.2l-2.4 1.4Zm-2.4-4.4a17 17 0 0 1 2.5 4.3l2.1-1.2-2 1.2a17 17 0 0 0-2.6-4.3Zm-41.5 3.6a27.4 27.4 0 0 0-1.1-5.6V79l2.3-.5v.2a30.6 30.6 0 0 1 1.1 5.6v.2l-2.3.6Zm-.9-5.6a27.5 27.5 0 0 1 1 5.6l2-.5-2 .5a27.5 27.5 0 0 0-1-5.6Zm134.9-1v-2.7h8.7v2.7Zm.2-.2h8.3Zm-.2-4.4v-2.7h8.7v2.7Zm.2-.2h8.3Zm45.2-.6v-9.4h13.5v9.4Zm.2-.3h13Zm2.5-2.3v-4.3Zm.3-.2h7.5v-4h-7.5Zm-126-1a15.7 15.7 0 0 0-2.3-4l-.1-.3 2.3-1.4.1.1a21 21 0 0 1 2.6 4.2v.2l-2.4 1.4Zm-2-4.2a16 16 0 0 1 2.3 4.1l2-1.2-2 1.2a16 16 0 0 0-2.4-4.1Zm78.5 3.9v-2.7h4a16.6 16.6 0 0 0-1-2.8v-.2l2.7-.8.1.2a18.8 18.8 0 0 1 1.2 3.6h4.1v2.7Zm.2-.2H411Zm4-2.3a17 17 0 0 0-1-3 17 17 0 0 1 1 3Zm-104.9 2.4v-2.7h5.5a15.4 15.4 0 0 0-1-2.3l-.1-.3 3-1 .1.2a15 15 0 0 1 1.5 3.4h5.6v2.7Zm.3-.2h14Zm5.6-2.3a15.9 15.9 0 0 0-1.2-2.6 15.9 15.9 0 0 1 1.1 2.6Z" data-name="Union 65"/>
    </g>
    <g transform="translate(0 3.6)">
      <circle cx="6" cy="6" r="6" fill="#ea5514" data-name="Ellipse 6756" transform="translate(26.5 9.5)"/>
      <path fill="#ea5514" d="m43.7 22.2.8-2.2s.3-1.2-.4-1.4c0 0-.5-.2-1.1.9a13.7 13.7 0 0 1-7.3 5S26 28 16.1 12.4l-1-1.6a1 1 0 0 0-.1-.2.5.5 0 0 0-.5-.2.5.5 0 0 0-.5.6 6.2 6.2 0 0 0 .5 1.3s16 36.1 32.5 43c0 0-9.5-17.5-3.3-33.1Z" data-name="Path 256449"/>
      <path fill="#f8b62d" d="M66.2 52c-.8 2.5-2.6 4.5-6.4 4.5-3.7 0-5.2-2.3-5.2-5.5 0-3.7 2-8.7 7.3-8.7 4 0 5.2 2.5 5 4.7h-3.5c0-1-.2-2-1.8-2-2.2 0-3.2 3.7-3.2 6 0 1.8.6 2.8 1.8 2.8a2.3 2.3 0 0 0 2.3-1.8Z" data-name="Path 256450"/>
      <path fill="#f8b62d" d="M80.9 47.8c0 3.5-1.7 8.7-7.5 8.7-3.8 0-5.5-2.3-5.5-5.6 0-3.4 2-8.6 7.5-8.6 3.6 0 5.5 2.3 5.5 5.5Zm-9.2 3.4c0 1.7.7 2.6 2 2.6 2.5 0 3.4-4.4 3.4-6.3 0-1.7-.5-2.6-2-2.6-2.4 0-3.4 4.1-3.4 6.3Z" data-name="Path 256451"/>
      <path fill="#f8b62d" d="m86.3 50.8-1.1 5.4h-3.6l2.9-13.7h5.4c3 0 4.4 1.5 4.4 3.5a3.7 3.7 0 0 1-2.6 3.6c1 .6 1.4 1.7 1 3.7a20.6 20.6 0 0 0-.5 2.9h-3.6a15.2 15.2 0 0 1 .5-3.1c.3-1.4.2-2.3-1.3-2.3Zm.5-2.6h1.6c1.5 0 2.2-.6 2.2-1.8 0-1-.8-1.3-1.6-1.3h-1.5Z" data-name="Path 256452"/>
      <path fill="#f8b62d" d="M104.7 50.6h-5.5l-.6 2.9h6.5l-1 2.7h-9.6l2.9-13.7h9.3l-.6 2.8h-5.7l-.6 2.5h5.5Z" data-name="Path 256453"/>
      <path fill="#f8b62d" d="M5.6 47.2s-6.8 12.2 14 7.5c0 0 14.6-2.2 30.2-16.5C54 34.3 61 26.8 55.4 24c0 0-5.2-2.4-12.4 1.3 0 0 12.4-8.4 19-2.2 0 0 5.5 5-3.6 16.4 0 0-26 28.2-52 21.5 0 0-10-3.4-.8-13.8Z" data-name="Path 256454"/>
      <circle cx="6" cy="6" r="6" fill="#3fb7a0" data-name="Ellipse 6757" transform="translate(0 25)"/>
      <path fill="#3fb7a0" d="M31.5 44.3s-8.8-9.5-17.3-28.8a36 36 0 0 0-1.7-3.2.5.5 0 0 0-1 .4 6 6 0 0 0 .7 1.6s6.6 15.8 2 23.9c-3.8 6.5-12.6 1-12.6 1l-.2-.1a.4.4 0 0 0-.2 0h-.1a.4.4 0 0 0-.2 0 .6.6 0 0 0 0 .1.4.4 0 0 0-.1.1.4.4 0 0 0 0 .1c-.2 1 1.9 3.7 4.6 5.9a68 68 0 0 0 14 8.4c16.3 6 26 2.7 26 2.7a59.9 59.9 0 0 1-13.9-12.1Z" data-name="Path 256455"/>
      <path fill="#f8b62d" d="m7.2.1 2.2 1.6a.6.6 0 0 0 .5 0l2.6-1a.6.6 0 0 1 .8.8l-.8 2.6a.6.6 0 0 0 0 .6l1.8 2a.6.6 0 0 1-.5 1l-2.7.1a.6.6 0 0 0-.5.3l-1.5 2.3a.6.6 0 0 1-1-.2L7 7.7a.6.6 0 0 0-.3-.4L4 6.6a.6.6 0 0 1 0-1.1l2.2-1.6a.6.6 0 0 0 .2-.5V.6a.6.6 0 0 1 .9-.5Z" data-name="Path 256456"/>
    </g>
  </g>
</svg>