<svg xmlns="http://www.w3.org/2000/svg" viewBox="0 0 362 70.31"><defs><clipPath id="a"><path fill="none" d="M0 0h118.81v34.55H0z" data-name="Rectangle 173330"/></clipPath><clipPath id="b"><path fill="none" d="M0 0h60v60H0z" data-name="Rectangle 173329"/></clipPath><clipPath id="c"><path fill="none" d="M0 0h39.23v39.23H0z" data-name="Rectangle 173326"/></clipPath><clipPath id="d"><path fill="none" d="M24.53 44.15a19.62 19.62 0 1 0 19.61-19.62 19.62 19.62 0 0 0-19.61 19.62" data-name="Path 256515" transform="translate(-24.53 -24.53)"/></clipPath></defs><g data-name="Group 221596"><g data-name="Group 220266"><g data-name="Group 220171"><g data-name="Group 220159" opacity=".48"><path fill="#86c9cf" d="m86.37 5.6 12.61 34.56h18.21L104.6 5.6Z" data-name="Path 256519"/><g data-name="Group 220142"><g clip-path="url(#a)" data-name="Group 220141" transform="translate(64.47 5.6)"><path fill="#86c9cf" d="M96.2 34.55s-1.19-5.72 4.32-16.93A48.55 48.55 0 0 0 105.14 0H86.93s1.4 4.78-5.98 20.22c-4.22 8.82-2.97 14.33-2.97 14.33Z" data-name="Path 256520"/><path fill="#dddddc" d="M100.43 34.55s1.18-5.72-4.33-16.93A48.55 48.55 0 0 1 91.48 0h18.21s-1.41 4.78 5.98 20.22c4.22 8.82 2.97 14.33 2.97 14.33Z" data-name="Path 256521"/><path fill="#ffb900" d="M98.3 22.71c.59-1.55 1.31-3.25 2.22-5.1A48.56 48.56 0 0 0 105.14 0H91.48a48.55 48.55 0 0 0 4.62 17.62c.9 1.84 1.63 3.54 2.2 5.1" data-name="Path 256522"/><path fill="#86c9cf" d="M43.46 0s1.32 4.4-2.78 12.13c-8.64 16.25-6.17 22.42-6.17 22.42h18.22s-1.05-7.86 5.98-20.22C63.53 5.84 61.68 0 61.68 0Z" data-name="Path 256523"/><path fill="#dddddc" d="m40.12 0-12.6 34.55H9.3L21.9 0Z" data-name="Path 256524"/><path fill="#ffb900" d="M18.57 0s-1.32 4.4 2.78 12.13c8.64 16.25 6.17 22.42 6.17 22.42H9.3s1.05-7.86-5.98-20.22C-1.5 5.84.35 0 .35 0Z" data-name="Path 256525"/><path fill="#e85620" d="M21.35 12.12a29.13 29.13 0 0 1-2.08-4.89L9.3 34.55h18.22v-.03c.18-.48 2.12-6.8-6.17-22.4" data-name="Path 256526"/><path fill="#dddddc" d="M75.34 0H57.48v34.55h17.86a17.18 17.18 0 0 0 17.09-17.27A17.18 17.18 0 0 0 75.33 0" data-name="Path 256527"/></g></g></g><g data-name="Group 220167" transform="translate(-118 -29.1)"><g data-name="Group 220170" transform="translate(198.18 19.93)"><g data-name="Group 220168"><path fill="#86c9cf" d="M258.36 79.4a14.1 14.1 0 0 0 1.45.07 13.95 13.95 0 0 0 12.6-7.96l-6.94-18.74a13.92 13.92 0 0 0-15.8 3.1Z" data-name="Path 256666"/><path fill="#86c9cf" d="M259.8 79.47a13.95 13.95 0 0 0 7.93-25.44 22.72 22.72 0 0 1-2.62 7.48c-4.94 9.22-5.97 14.92-6.03 17.93l.73.03" data-name="Path 256667"/><path fill="#59b5ad" d="M259.8 79.47a13.95 13.95 0 0 0 12.6-7.95l-5.36-14.5a26.49 26.49 0 0 1-1.93 4.52c-4.97 9.16-5.97 14.86-6.03 17.87l.73.03" data-name="Path 256668"/><path fill="#dddddc" d="M263.93 52.17a13.95 13.95 0 0 0-9.64 26.15Z" data-name="Path 256669"/><path fill="#e85620" d="M247.15 61.5a5.8 5.8 0 0 1-.42-.87 13.92 13.92 0 0 0 6.32 17.1c-.39-3.26-1.77-8.5-5.9-16.22" data-name="Path 256670"/></g><rect width="20.95" height="20.95" fill="#fff" data-name="Rectangle 173339" rx="10.47" transform="translate(249.12 55)"/></g><circle cx="18.5" cy="18.5" r="18.5" fill="#fff" data-name="Ellipse 6758" transform="translate(432 58.1)"/><path fill="#0f69af" d="M316.32 42h1.1a14.9 14.9 0 0 1-.1 1.86 6.97 6.97 0 0 0 1.6-1.05l.7.87a11.02 11.02 0 0 1-2.16 1.23 14.33 14.33 0 0 1 2.1 1.58l-.77.93a15.31 15.31 0 0 0-2.1-1.74 5.54 5.54 0 0 1-2.21 1.8l-.75-.8a4.75 4.75 0 0 0 1.97-1.49 5.57 5.57 0 0 0 .62-3.19Zm6.22 0h1.09a14.55 14.55 0 0 1-.1 1.84 6.46 6.46 0 0 0 1.72-1.15l.7.88a11.12 11.12 0 0 1-2.36 1.36 14.27 14.27 0 0 1 2.24 1.63l-.75.92a15.18 15.18 0 0 0-2.23-1.76 5.53 5.53 0 0 1-2.16 1.7l-.74-.8a4.65 4.65 0 0 0 1.97-1.47 5.44 5.44 0 0 0 .62-3.15Zm3.75 5.58v2.78h-1.2v-1.67h-10.42v1.55h-1.21v-2.66Zm-11.45 2.66h3.74a10.01 10.01 0 0 0 .22-1.34l1.2.2q-.07.6-.17 1.14h4.9q-.07 3.53-.7 4.4a1.73 1.73 0 0 1-1.43.6 18.28 18.28 0 0 1-2.24-.19l-.3-1.2a21.57 21.57 0 0 0 2.55.18.52.52 0 0 0 .49-.34 9.64 9.64 0 0 0 .25-2.43h-3.8a6.45 6.45 0 0 1-1.19 2.18 7.52 7.52 0 0 1-3.82 2.04l-.5-1.16a6.7 6.7 0 0 0 3.42-1.76 3.92 3.92 0 0 0 .8-1.3h-3.42Zm-.42-7.43a8.63 8.63 0 0 1 1.1 1.84l-.9.51a8.44 8.44 0 0 0-1.05-1.78Zm6.16-.06a9.12 9.12 0 0 1 1.1 1.84l-.91.52a8.44 8.44 0 0 0-1.04-1.78Zm16.05-.45.68.9q-1.41.15-3 .25v1.02h3.17v1h-3.16v.8h2.83v4.53h-2.83v.94h2.78v.9h-2.78v.88q1.63-.08 2.95-.17l.07.62a9.3 9.3 0 0 0 1.13-2.55 22.12 22.12 0 0 0 .62-5.37h-1.42v-1.1h1.44v-2.9h1.15v2.9h2.75a74.1 74.1 0 0 1-.42 8.93 1.8 1.8 0 0 1-.53 1.1 1.6 1.6 0 0 1-1.06.38 7.57 7.57 0 0 1-1.48-.18l-.12-1.26a7.29 7.29 0 0 0 1.6.23.37.37 0 0 0 .34-.27 3 3 0 0 0 .22-1.1q.23-3.13.26-6.74h-1.57a23.06 23.06 0 0 1-.77 6.1 8.36 8.36 0 0 1-1.8 3.28l-.83-.8a2.83 2.83 0 0 0 .3-.4q-3.13.38-6.96.62l-.18-1.15 3.23-.13v-.92h-2.82v-.9h2.82v-.94h-2.82v-4.52h2.82v-.81h-3.3v-1h3.3v-.93q-1.22.09-2.54.14l-.45-.87q3.2-.16 6.39-.5Zm-5.11 7.54h1.72v-.88h-1.72Zm2.8-.88v.88h1.72v-.88Zm-2.8-.85h1.72v-.86h-1.72Zm2.8-.86v.86h1.72v-.86Zm16.1-5.2a6.83 6.83 0 0 1 .61 1.52h2.91v1.07h-1.62l1.05.36a14.26 14.26 0 0 1-.53 1.56q-.17.44-.35.8h1.61v1.15h-7.42v-1.14h1.91a14.74 14.74 0 0 0-.86-2.36l.76-.36h-1.58v-1.08h2.8a5.49 5.49 0 0 0-.44-1.15Zm-.6 5.32h1.39a10.3 10.3 0 0 0 .43-1.07 11.69 11.69 0 0 0 .5-1.65h-3.32a18.82 18.82 0 0 1 1 2.72Zm3.43 2.3v5.39h-1.15v-.8h-3.47v.93h-1.14v-5.53Zm-4.62 3.5h3.47v-2.43h-3.47Zm11.41-10.48-1.85 5.02a7.05 7.05 0 0 1 1.28 1.67 4.15 4.15 0 0 1 .51 1.88q-.03 2.32-2.08 2.32a8.56 8.56 0 0 1-1.21-.12l-.27-1.38a4.92 4.92 0 0 0 1.48.29q.85 0 .87-1.1a3.25 3.25 0 0 0-.4-1.5 5.36 5.36 0 0 0-1.43-1.78l1.4-4.15h-2.4V55.3h-1.2V42.7Zm6.65-.69h1.1a14.9 14.9 0 0 1-.1 1.86 6.97 6.97 0 0 0 1.6-1.05l.7.87a11.02 11.02 0 0 1-2.16 1.23 14.33 14.33 0 0 1 2.1 1.58l-.77.93a15.31 15.31 0 0 0-2.1-1.74 5.54 5.54 0 0 1-2.21 1.8l-.75-.8a4.75 4.75 0 0 0 1.97-1.49 5.57 5.57 0 0 0 .62-3.19Zm6.22 0H374a14.55 14.55 0 0 1-.1 1.84 6.46 6.46 0 0 0 1.73-1.15l.69.88a11.12 11.12 0 0 1-2.36 1.37 14.27 14.27 0 0 1 2.24 1.62l-.75.92a15.18 15.18 0 0 0-2.23-1.76 5.53 5.53 0 0 1-2.16 1.7l-.75-.8a4.65 4.65 0 0 0 1.98-1.47 5.44 5.44 0 0 0 .61-3.15Zm3.75 5.58v2.78h-1.21v-1.67h-10.41v1.55h-1.21v-2.66Zm-11.45 2.66h3.74a10.01 10.01 0 0 0 .22-1.34l1.2.2q-.07.6-.17 1.14h4.9q-.07 3.53-.7 4.4a1.73 1.73 0 0 1-1.43.6 18.28 18.28 0 0 1-2.24-.18l-.3-1.21a21.57 21.57 0 0 0 2.55.19.52.52 0 0 0 .48-.35 9.64 9.64 0 0 0 .26-2.43h-3.8a6.45 6.45 0 0 1-1.19 2.18 7.52 7.52 0 0 1-3.82 2.04l-.5-1.15a6.7 6.7 0 0 0 3.42-1.77 3.92 3.92 0 0 0 .8-1.3h-3.42Zm-.42-7.43a8.63 8.63 0 0 1 1.1 1.84l-.91.52a8.44 8.44 0 0 0-1.04-1.79Zm6.16-.06a9.12 9.12 0 0 1 1.1 1.84l-.91.52a8.44 8.44 0 0 0-1.04-1.78ZM387 42.3l.68.9q-1.41.15-3 .25v1.02h3.17v1h-3.16v.8h2.83v4.53h-2.83v.94h2.78v.9h-2.78v.88q1.62-.08 2.95-.17l.07.62a9.3 9.3 0 0 0 1.14-2.55 22.12 22.12 0 0 0 .61-5.37h-1.42v-1.1h1.44v-2.9h1.15v2.9h2.74a74.1 74.1 0 0 1-.41 8.93 1.8 1.8 0 0 1-.53 1.1 1.6 1.6 0 0 1-1.07.38 7.57 7.57 0 0 1-1.48-.17l-.11-1.27a7.29 7.29 0 0 0 1.6.23.37.37 0 0 0 .34-.27 3 3 0 0 0 .22-1.1q.23-3.13.26-6.74h-1.58a23.06 23.06 0 0 1-.76 6.1 8.36 8.36 0 0 1-1.81 3.28l-.82-.8a2.83 2.83 0 0 0 .3-.4q-3.13.38-6.96.63l-.19-1.16 3.24-.13v-.92h-2.82v-.9h2.82v-.94h-2.82v-4.52h2.82v-.81h-3.3v-1h3.3v-.93q-1.22.09-2.55.14l-.44-.87q3.2-.16 6.38-.5Zm-5.12 7.54h1.73v-.88h-1.73Zm2.8-.88v.88h1.73v-.88Zm-2.8-.85h1.73v-.86h-1.73Zm2.8-.86v.86h1.74v-.86Zm13.36-2.2h4.63q.07-1.24.07-2.7h1.27q0 1.46-.07 2.7h5.43a53.96 53.96 0 0 1-.34 8.05 2.54 2.54 0 0 1-.77 1.59 2.79 2.79 0 0 1-1.53.37 19.47 19.47 0 0 1-2.48-.16l-.3-1.38a18.72 18.72 0 0 0 2.78.22.92.92 0 0 0 .77-.27 3.34 3.34 0 0 0 .3-1.31q.2-1.96.2-5.84h-4.15q-.33 3.83-1.38 5.34a11.48 11.48 0 0 1-4.1 3.7l-.7-1.09a10.51 10.51 0 0 0 3.7-3.4 10.57 10.57 0 0 0 1.2-4.55h-4.53Zm25.36 2.38h-1.54a3.23 3.23 0 0 1-.51 1.75 2.52 2.52 0 0 1-1.36.94l-.52-1.03a2.16 2.16 0 0 0 .98-.66 4.41 4.41 0 0 0 .35-2.11h3.07a8.1 8.1 0 0 1-1.08-.81 7.38 7.38 0 0 1-2.17-3.2l1.05-.3a4.84 4.84 0 0 0 .76 1.48 7.9 7.9 0 0 0 1.83-1.48l.73.87a10.36 10.36 0 0 1-1.84 1.4q.28.26.58.5a1.57 1.57 0 0 1 .13.12 7.87 7.87 0 0 0 1.95-1.69l.75.86a11 11 0 0 1-1.7 1.47 12.67 12.67 0 0 0 2.45 1.02l-.86.97a10.66 10.66 0 0 1-1.9-.81v1.4q0 .4.34.4h1.56v1.02h-1.78q-1.26 0-1.26-1.03Zm-7.72 1.32h2.43v-1.23h-2.13v-.1a9.5 9.5 0 0 1-1.67.58l-.57-1.1a8.82 8.82 0 0 0 2.44-.88 11.43 11.43 0 0 0-1.46-1.37l.74-.8a10.27 10.27 0 0 1 1.76 1.47 5.96 5.96 0 0 0 1.48-1.8h-3.75v-1.1h5.1v.8a7.47 7.47 0 0 1-2.14 3l-.36.27h1.71v3.3h-2.9l-.3 1.09h3.36q-.38 3.13-.98 3.78a1.75 1.75 0 0 1-1.38.53h-1.43l-.11-1.15a13.98 13.98 0 0 0 1.53.11.64.64 0 0 0 .58-.31 4.7 4.7 0 0 0 .52-1.95h-3.5l.81-3.15Zm4.9 2.63h-.63V50.3h5.68v.75a5.48 5.48 0 0 1-.95 1.8 2.83 2.83 0 0 1-.29.3q1.04.58 2 1.22l-.82 1q-1.04-.75-2.12-1.4l-.7.42a8.57 8.57 0 0 1-2.98.91l-.3-1.09a7 7 0 0 0 2.5-.7 2.51 2.51 0 0 0 .36-.2q-1.2-.67-2.44-1.23Zm2.76 1.2.23-.25a4.25 4.25 0 0 0 .67-.95h-3.47q1.34.56 2.58 1.2Zm18.29-9h-8.53v1.07h8.53Zm-8.53 2.17v1.45h2.53v-1.15h1.15v1.15h2.6v-1.15h1.14v1.15H443v1.08h-2.48v1.56h3.11v1.1h-8.21v3.15q1.3-.32 2.69-.81l.18 1.05a22.85 22.85 0 0 1-3.75 1.1l-.5-1.06a.42.42 0 0 0 .23-.33v-3.1h-1.31q-.07.66-.19 1.29a15.84 15.84 0 0 1-.93 3.08l-1.15-.64a20.42 20.42 0 0 0 .96-3.29 24.18 24.18 0 0 0 .25-3.42v-5.48h10.88v3.26Zm-.04 4.1h2.57v-1.57h-2.53v.05q0 .77-.05 1.51Zm3.72 0h2.6v-1.57h-2.6Zm4.8 1.37.74.87a10.35 10.35 0 0 1-1.67 1.09 5.6 5.6 0 0 0 .93.4 9.72 9.72 0 0 0 2.29.57l-.52 1.15a12.84 12.84 0 0 1-2.49-.76 5.78 5.78 0 0 1-1.78-1.08 5.48 5.48 0 0 1-1.3-1.9l1.01-.34a4.87 4.87 0 0 0 .9 1.27 8.11 8.11 0 0 0 1.88-1.27Zm6.64-8.68h11.75v3.1h-11.75Zm1.15 2.18h2.47v-1.28h-2.47Zm3.56-1.28v1.28h2.38v-1.28Zm3.47 0v1.28h2.42v-1.28Zm-8 3.18h4.5v-.7h1.2v.7h3.1v.8q1.29-.57 2.42-1.2l.7.73a25.96 25.96 0 0 1-2.58 1.32h2.97v.94h-5.28q-.34.13-.71.24-1.04.36-2.13.67h6.67v5.19h-1.2v-.64h-7.18v.63h-1.2v-4.4q-.94.22-1.9.42l-.47-.96q2.62-.52 4.86-1.15h-4.7v-.94h5.43v-.75h-4.5Zm2.47 7.18h7.18v-.9h-7.18Zm0-1.79h7.18v-.96h-7.18Zm4.13-3.74q1-.34 1.93-.75h-2.83v.75Z" data-name="Path 247273"/><path fill="#1a202c" d="m274.17 88 .13-.13a13.12 13.12 0 0 0 1.18-1.34 70.72 70.72 0 0 1-8.72 2.82l-.2.05-.9-2.6.25-.06c1.36-.28 2.66-.58 3.88-.88v-8.2h-3.55v-2.62h3.55v-2.5h-2.5V71.3l-.15.14-1.82-2 .15-.15a16.3 16.3 0 0 0 2.65-3.23 16.9 16.9 0 0 0 1.8-3.63l.07-.2 2.7.6-.08.24c-.08.25-.17.49-.27.72a28.21 28.21 0 0 1 3.2 2.6v-2.3h6.87l-.1.3a47.68 47.68 0 0 1-3.26 7.46h3.27v.23a36.1 36.1 0 0 1-2.1 11.57 10.73 10.73 0 0 0 .85 1.2c.82.95 2.41 1.54 4.74 1.78v-3.11h-4.45v-2.48h4.44v-1.85h-3.48v-2.45h3.49v-1.7h-2.99v-2.5h2.98V71h-4.44v-2.6h4.44v-1.73h-2.98v-2.44h2.98v-1.94h2.72v1.94h3.94v4.17h1.19V71h-1.2v4.05h-3.93v1.7h3.94v2.45h-3.94v1.85h4.5v2.47h-4.5v3.22c1.73 0 3.6-.09 5.58-.23l.31-.02-.81 2.88h-5.54c-4.16-.04-7.02-.85-8.51-2.42a8.37 8.37 0 0 1-.61-.63 18.14 18.14 0 0 1-3.01 3.94l-.2.2Zm.29.03 1.3 2.06a17.93 17.93 0 0 0 3.14-4.17 8.55 8.55 0 0 0 .8.86q2.18 2.3 8.36 2.36h5.37l.68-2.42-.68 2.42h-5.37q-6.18-.06-8.35-2.36a8.55 8.55 0 0 1-.81-.86 17.93 17.93 0 0 1-3.13 4.17l-1.31-2.06Zm-7.76 1.1a69.86 69.86 0 0 0 8.83-2.86 69.71 69.71 0 0 1-8.83 2.87Zm-.74-2.18Zm20.07-.44h2.27V83.3h4.5-4.5v3.22Zm-10.29-.33a17.8 17.8 0 0 0 1.57-2.66 25.22 25.22 0 0 1-1.3-4.48l-.02.09c-.42 2.06-.82 3.8-1.2 5.14l-.02.08.3-.1.23-.1Zm-3.46-.8v-7.94h3.49-3.5Zm.22-.3c.7-.2 1.38-.42 2.03-.65l-1.9-.5.06-.22c.4-1.71.7-3.43.92-5.1l.03-.25 2.34.54a41.3 41.3 0 0 1-.22-1.19l-.01-.05h-3.25Zm.4-1.32 1.67.45q.57-2.03 1.2-5.13-.63 3.1-1.2 5.13l-1.67-.45Zm7.07-.09a35.59 35.59 0 0 0 2.12-11.6 35.59 35.59 0 0 1-2.11 11.6Zm-4-6a27.23 27.23 0 0 0 1.58 5.85 27.23 27.23 0 0 1-1.57-5.84Zm5.6 5.61Zm6.73-2.02v-2.3h3.94-3.94Zm-10.16-4.48c.18 1.03.38 1.98.61 2.84a45.24 45.24 0 0 0 .94-5.33h-3.42l-.4-2.14.04-.08a31.18 31.18 0 0 0 2.67-5.53h-2.89q.48.46.93.94l.13.14-1.83 2.3h.09v2.62h-2.51v2.5h3.49v2.4l2.1-.94Zm4.4 2.18Zm-16.08-1.52Zm21.84-.47V74.8h3.94v-4.05h1.19-1.2v4.05h-3.93Zm-16.02-1.7v-2.95h2.5-2.5Zm10.77-.45Zm-6.95-2.63.36 1.88-.36-1.88Zm12.2.57v-2Zm.22-.22h1.35v-1.55h-1.35Zm-21.01-.23Zm11.15-.23a45.65 45.65 0 0 0 3.43-7.77 45.65 45.65 0 0 1-3.43 7.76Zm-13.03-2.63 1.52 1.67-1.52-1.67Zm15.95 1.31Zm-11.39-3.25a16.96 16.96 0 0 1-2.03 2.63 16.96 16.96 0 0 0 2.03-2.63 13.94 13.94 0 0 0 .99-1.67 30.02 30.02 0 0 1 3.72 3.73l1.55-1.94-1.55 1.94a30.02 30.02 0 0 0-3.73-3.73 13.94 13.94 0 0 1-.98 1.67Zm.19.13a17.68 17.68 0 0 1-1.7 2.28h6.22l-.17-.2a30.15 30.15 0 0 0-3.48-3.53 13.9 13.9 0 0 1-.87 1.44Zm21.85.98Zm-3.93 0v-2.18Zm.22-.23h1.35v-1.73h-1.35Zm-5.47-1.95Zm-7.28-.13Zm12.53-1.87Zm-16.23-.57q.18-.42.33-.86-.15.44-.33.86Zm95.56 23.88.2-.12a21.67 21.67 0 0 0 7.59-6.97c1.18-1.81 2-4.88 2.41-9.1h-9.37v-3.08h9.62c.09-1.64.13-3.44.13-5.35v-.23h3.07v.23c0 1.9-.04 3.7-.13 5.35h11.26v.22c0 8.87-.25 14.5-.72 16.75a5.49 5.49 0 0 1-1.67 3.42h-.01a6.03 6.03 0 0 1-3.31.82 40.71 40.71 0 0 1-5.16-.33l-.16-.02-.73-3.34.32.05a38.74 38.74 0 0 0 5.73.45 1.72 1.72 0 0 0 1.42-.47 6.5 6.5 0 0 0 .6-2.61c.24-2.65.37-6.64.38-11.87h-8.17c-.46 5.2-1.43 8.89-2.88 10.97a24.17 24.17 0 0 1-8.57 7.76l-.19.11Zm.31.07 1.43 2.27q.62-.35 1.2-.71-.58.36-1.2.71l-1.43-2.27Zm13.63 1.32a40.39 40.39 0 0 0 5.13.32 5.79 5.79 0 0 0 3.2-.77 5.28 5.28 0 0 0 1.57-3.28q.72-3.37.72-16.7 0 13.33-.72 16.7a5.28 5.28 0 0 1-1.58 3.28 5.79 5.79 0 0 1-3.19.77 40.39 40.39 0 0 1-5.13-.32l-.62-2.87Zm-1.03-15.9q.11-.92.2-1.91-.09.99-.2 1.9Zm-11.85-1.91Zm12.23-2.63q.14-2.56.14-5.57 0 3-.14 5.57Zm-78.16 21.37-.15-.03-.45-2.85a15.91 15.91 0 0 1-1 1.6l-.15.2-2.07-2 .1-.15a30.89 30.89 0 0 0 3.16-6.96l.08-.25 2.43 1.29-.05.17a34.53 34.53 0 0 1-2.43 5.98l.25.06a8.95 8.95 0 0 0 2.44.35c.23 0 .28-.08.3-.12a3.2 3.2 0 0 0 .1-.96v-7.42h-4.56v-8.56h11.66v8.56h-4.26v7.97a4.06 4.06 0 0 1-.56 2.53 2.8 2.8 0 0 1-2.29.83 12.8 12.8 0 0 1-2.55-.24Zm.04-.22a12.44 12.44 0 0 0 2.5.24 2.58 2.58 0 0 0 2.12-.75 3.91 3.91 0 0 0 .5-2.38v-8.2h4.28-4.27v8.2a3.91 3.91 0 0 1-.5 2.38 2.58 2.58 0 0 1-2.12.75 12.44 12.44 0 0 1-2.5-.24l-.39-2.5Zm-3.58-2.9 1.76 1.7a27.71 27.71 0 0 0 3.46-7.63 27.71 27.71 0 0 1-3.46 7.64l-1.76-1.7Zm1.76-8.2Zm2.39-2.17v-3.82Zm.22-.22h6v-3.38h-6Zm6.92 11.4.15-.1a14.46 14.46 0 0 0 3.73-4.62 21.58 21.58 0 0 0 2.1-6.26 38.35 38.35 0 0 0 .51-4.72h-3.92v-2.72h4.06c.06-2 .09-4.3.09-6.84v-.22h2.86v.22c0 2.52-.04 4.82-.11 6.84h6.88v2.72h-7.02c-.12 2-.29 3.7-.5 5.09a24.23 24.23 0 0 1-2.74 7.98 18.07 18.07 0 0 1-4.47 5.02l-.2.15Zm.29.07 1.19 2.14a17.77 17.77 0 0 0 4.41-4.95 23.87 23.87 0 0 0 2.72-7.9q.33-2.15.5-5.28h7.02-7.01q-.18 3.13-.51 5.28a23.87 23.87 0 0 1-2.71 7.9 17.77 17.77 0 0 1-4.42 4.95l-1.19-2.15Zm2.5-16Zm6.44-2.26q.12-3.13.12-7.07 0 3.94-.11 7.07Zm-82.7 18.27.31-.03a9.02 9.02 0 0 0 4.27-1.15l.01-.01a2.25 2.25 0 0 0 .58-.51h-4.56V81.7l-.14.01-.19.02-.54-2.01.14-.09c.82-.52 1.62-1.06 2.38-1.63-.7.1-1.42.16-2.12.22l-.21.02-.3-2 .13-.07a17.46 17.46 0 0 0 4.12-3.44l.1-.11 2.4.64-.25.27a20.78 20.78 0 0 1-2.6 2.35c.53-.05 1.1-.1 1.69-.18.53-.46 1.04-.93 1.52-1.4l.1-.12 2.16 1.02-.26.22c-.96.85-1.9 1.63-2.83 2.32l1.59-.45.09.14a13.13 13.13 0 0 1 1.57 3.4l.07.21-1.13.35v2.81a4.95 4.95 0 0 1-1.66 4.12 10.26 10.26 0 0 1-5.21 1.86l-.17.03Zm.33.2.86 1.93a10 10 0 0 0 5.1-1.82 4.72 4.72 0 0 0 1.59-3.94 4.72 4.72 0 0 1-1.58 3.94 10 10 0 0 1-5.1 1.82l-.87-1.94Zm.5-2.13Zm2-1.81Zm-1.24-2.5h1.47v2.27h2.68v-2.5h1.42c-.07-.27-.16-.53-.26-.8a38.53 38.53 0 0 1-5.31 1.04Zm-1.59-1.77.45 1.67a37.94 37.94 0 0 0 6.59-1.2q.2.54.36 1.08l1.55-.48-1.55.48q-.15-.54-.36-1.07a37.94 37.94 0 0 1-6.59 1.19l-.45-1.67Zm2.9-.3a39.72 39.72 0 0 0 5.7-4.27 39.72 39.72 0 0 1-5.7 4.27Zm1-.37c.74-.1 1.47-.23 2.19-.36a8.74 8.74 0 0 0-.45-.66l-.1-.12q-.83.62-1.64 1.14Zm1.92-1.14a8.77 8.77 0 0 1 .62.95 8.77 8.77 0 0 0-.62-.95Zm-5.94-1.65.24 1.64q1.5-.11 2.95-.32-1.46.2-2.95.32l-.24-1.64Zm2.84-.18a18.77 18.77 0 0 0 3.25-2.8 18.77 18.77 0 0 1-3.25 2.8Zm198.64 14V78.83a28.67 28.67 0 0 1-3.54 5.64l-.18.22-1.83-2.36.12-.14a27.7 27.7 0 0 0 3.16-4.8 27.47 27.47 0 0 0 2.03-4.4h-4.44v-2.84h4.68v-3.67c-1.07.15-2.2.29-3.36.42l-.15.02-1.42-2.67.33-.03c3.36-.3 6.76-.74 10.12-1.31l.14-.03 1.72 2.26-.34.08c-1.29.3-2.67.59-4.09.84v4.1h4.15v2.82h-4.15v1.36a41.7 41.7 0 0 1 3.9 4.4l.1.13-1.85 2.55-.17-.28a47.04 47.04 0 0 0-1.98-2.96V90.2Zm.22-.22h2.5V77.5q1.2 1.58 2.39 3.52l1.55-2.14-1.55 2.14q-1.2-1.93-2.39-3.52v12.47Zm-5.48-7.64 1.55 2a28.68 28.68 0 0 0 3.93-6.53 28.68 28.68 0 0 1-3.93 6.53l-1.55-2Zm7.99-7.9v-1.67h4.14-4.14Zm-7.19-1.67Zm7.19-6.89q2.24-.39 4.26-.86-2.02.47-4.26.86Zm-7.3-1.43 1.18 2.23q1.88-.2 3.61-.44-1.73.24-3.6.44l-1.2-2.23ZM417.9 90.19v-7.84a21.24 21.24 0 0 1-1.6 2.27l-.01.02a20.09 20.09 0 0 1-4.5 3.83l-.2.1-1.33-2.35v3.47h-2.83v-1.31h-3.5v1.58h-2.83v-10h9.16v6.06l.1-.06a17.83 17.83 0 0 0 3.95-3.3 18.64 18.64 0 0 0 2.15-2.73H411v-2.72h6.9v-1.6h-5.58V63.26h14.17v12.35h-5.73v1.6h7.16v2.72h-5.85a17.36 17.36 0 0 0 2.12 2.72 12.93 12.93 0 0 0 3.84 2.9l.2.1-1.53 2.93-.2-.14a17.03 17.03 0 0 1-4.11-3.83 19.68 19.68 0 0 1-1.63-2.32v7.89Zm.22-.22h2.42v-8.5a20.06 20.06 0 0 0 2.03 3.01 16.82 16.82 0 0 0 4.05 3.8l1.32-2.51-1.31 2.5a16.82 16.82 0 0 1-4.06-3.79 20.06 20.06 0 0 1-2.03-3v8.5Zm-16.79-.24h2.39v-1.58 1.58Zm6.33-.27h2.38Zm2.83-3.3 1.2 2.11a19.76 19.76 0 0 0 4.44-3.79 21.7 21.7 0 0 0 2-2.95 21.7 21.7 0 0 1-2 2.95 19.76 19.76 0 0 1-4.45 3.8l-1.2-2.13Zm-6.77-.25v-3.46Zm.22-.22h3.49v-3.01h-3.49Zm23.76-5.98Zm-16.46 0Zm9.3-2.27V75.4h5.73-5.73Zm-8-2.05Zm8-2.12v-2.78Zm-5.49 0v-2.78Zm5.72-.23h2.77v-2.33h-2.77Zm-5.5 0h2.63v-2.33h-2.63Zm5.27-4.54v-2.87Zm-5.49 0v-2.87Zm5.72-.23h2.77v-2.41h-2.77Zm-5.5 0h2.63v-2.41h-2.63Zm-69.9 21.92v-7.27h-3.97l1.75 2.05-.15.15a16.08 16.08 0 0 1-3.69 2.6 28.7 28.7 0 0 1-4.53 1.95l-.2.07-1.23-2.78.25-.07a24.33 24.33 0 0 0 4.31-1.74 17.35 17.35 0 0 0 3.24-2.18l.07-.06h-7.78v-2.5h11.93v-1.55H335.1v-2.63h10.26v-1.55H334V72.1h6.08a10.87 10.87 0 0 0-.89-1.05l-.18-.2 1.75-1.17h-7.2v-2.6h4.98l-.07-.15a11.84 11.84 0 0 0-2-2.84l-.18-.2 2.26-1.43.13.13a13.2 13.2 0 0 1 2.18 2.95l.1.18-2.28 1.37h3.7v-4.8h2.8v4.8h3.13v-4.8h2.83v4.8h3.2l-2.1-1.86.22-.16a11.78 11.78 0 0 0 2.61-2.46l.13-.16 2.4 1.55-.14.2a13.73 13.73 0 0 1-2.73 2.9h5.73v2.58h-8.72l2.5.84-.1.22a12.88 12.88 0 0 1-.72 1.36h6.12v2.6h-11.22v1.55h9.9v2.62h-9.9v1.56h12.29v2.5h-8.32l.04.02a46.3 46.3 0 0 1 7.47 4.34l.2.15-2.22 2.46-.17-.14a34.97 34.97 0 0 0-7-4.47l-.24-.12 1.76-2.25h-3.81v7.28Zm.22-.22h2.5V82.7h12.29-12.29v7.28Zm5.13-4.9a35.03 35.03 0 0 1 7.04 4.5l1.9-2.1-1.9 2.1a35.03 35.03 0 0 0-7.04-4.5Zm-17.06 2.04 1.04 2.35a28.42 28.42 0 0 0 4.5-1.94 15.79 15.79 0 0 0 3.64-2.56 15.79 15.79 0 0 1-3.64 2.56 28.42 28.42 0 0 1-4.5 1.94l-1.04-2.35Zm0-4.42Zm14.43-2.06v-2H358h-9.9Zm-12.76-2Zm12.76-2.17v-2h11.22-11.22Zm-13.87-2Zm18.88-2.3a.37.37 0 0 0-.08.15.37.37 0 0 1 .08-.15 13.18 13.18 0 0 0 .84-1.52 13.18 13.18 0 0 1-.84 1.52Zm-12.58.15a11.09 11.09 0 0 0-1.17-1.43 11.09 11.09 0 0 1 1.17 1.44Zm2.86-.23h6.73c.1-.16.2-.34.29-.53a15.25 15.25 0 0 0 .82-1.83l.02-.05h-9.8a15.29 15.29 0 0 1 1.94 2.42Zm-9.6-2.64h26.45Zm17.15-2.14Zm-5.97 0Zm7.64-2.06 1.94 1.7a13.31 13.31 0 0 0 2.74-2.89 13.31 13.31 0 0 1-2.74 2.9l-1.94-1.7Zm-11.93.4Zm-4.03-1.7.08.08Zm-89.92 26.25v-8.7h-.06l-.6-2 .14-.1a54.4 54.4 0 0 0 2.25-1.46c-.66.08-1.33.14-2 .18l-.2.01-.26-1.99.12-.07a17.7 17.7 0 0 0 4.09-3.44l.09-.11 2.44.64-.26.27a20 20 0 0 1-2.64 2.37c.5-.04 1.06-.1 1.64-.17.55-.46 1.1-.96 1.64-1.47l.11-.11 2.12 1.05-.26.22q-1.53 1.32-3 2.38l1.75-.5.1.12a11.66 11.66 0 0 1 1.79 3.53l.06.21-1.7.53v4.8h-4.91v3.81Zm.23-.22h2v-3.82h4.92-4.93v3.82Zm2-5.64Zm-.87-2.96h1.09v2.75h2.57v-2.64h2.01v-.04c-.1-.34-.22-.69-.35-1.02a42.38 42.38 0 0 1-5.33.95Zm5.88.01 1.55-.48-1.55.48c-.12-.42-.26-.82-.42-1.22a41.78 41.78 0 0 1-6.71 1.1l-.5-1.67.5 1.67a41.78 41.78 0 0 0 6.7-1.1c.17.4.3.8.42 1.22Zm-7.64-1.79q1.55-.95 3.01-2-1.46 1.05-3.01 2Zm2.87-.3a36.5 36.5 0 0 0 5.75-4.14 36.5 36.5 0 0 1-5.76 4.14Zm1-.33c.76-.09 1.51-.2 2.26-.31l-.43-.63-.13-.19q-.87.61-1.71 1.13Zm2-1.07.64.92-.63-.92 1.55-.45Zm-5.96-1.64.21 1.64q1.46-.09 2.9-.3-1.44.2-2.9.3l-.2-1.64Zm2.8-.18a18.14 18.14 0 0 0 3.29-2.8 18.14 18.14 0 0 1-3.29 2.8ZM233 90.19V63.02h12.02v9.52h-9.19v17.65Zm.22-.22h2.39V72.31h9.19-9.19v17.66Zm2.39-19.6V68.7Zm.23-.22h6.32v-1.22h-6.33Zm-.23-3.33v-1.7Zm.23-.22h6.32v-1.25h-6.33Zm85.8 23.12c-1.2-.15-1.79-1.08-1.79-2.76V73.28h2.83V86.4c0 .49.09.6.1.62h.04l.03.03a1.42 1.42 0 0 0 .65.08c.61 0 .69-.25.71-.34l.01-.03a6.09 6.09 0 0 0 .25-1.69c.06-.57.12-1.5.18-2.74l.02-.35 2.7 1.43v.15c-.27 3.05-.64 4.85-1.14 5.5a1.35 1.35 0 0 1-1.08.72 4.59 4.59 0 0 1-1.65.19 5.62 5.62 0 0 1-1.87-.24Zm-1.57-2.76q0 2.36 1.61 2.54a5.37 5.37 0 0 0 1.82.24 4.32 4.32 0 0 0 1.59-.18 1.14 1.14 0 0 0 .95-.63q.72-.87 1.1-5.4-.39 4.53-1.1 5.4a1.14 1.14 0 0 1-.95.63 4.32 4.32 0 0 1-1.59.18 5.37 5.37 0 0 1-1.82-.24q-1.6-.19-1.6-2.54Zm2.39-.57Zm-69.11 3.3-.15-.03-.61-3.15.36.12a9.14 9.14 0 0 0 2.82.5c.41 0 .5-.74.5-1.36V72.42h-9.31v-9.4h12.14v23.61a3.65 3.65 0 0 1-.74 2.47 2.83 2.83 0 0 1-2.23.86 16.63 16.63 0 0 1-2.78-.28Zm.04-.23a16.35 16.35 0 0 0 2.74.27q2.75 0 2.75-3.1 0 3.1-2.75 3.1a16.35 16.35 0 0 1-2.74-.27l-.5-2.62Zm-6.2-17.27Zm2.38-1.94V68.7Zm.22-.22h6.48v-1.1h-6.48Zm-.22-3.2v-1.7Zm.22-.23h6.48v-1.25h-6.48Zm194.58 22.97v-2.69h7.48v-3.84h-6.17V80.4h6.17V77.3c-1.87.13-3.87.21-5.94.25h-.2l-.46-2.83h.26a76.27 76.27 0 0 0 14.43-1.2l.19-.03.86 2.45-.25.05c-1.85.4-3.89.74-6.06 1v3.43h6v2.62h-6v3.85h6.95v2.68Zm.22-.23h16.82Zm9.87-2.23v-4.3h6-6Zm-8.56-4.3Zm8.56-6.02a62.37 62.37 0 0 0 6.23-1.02 62.37 62.37 0 0 1-6.23 1.02Zm-8.95-1.85.39 2.39-.39-2.39Zm6.56 2.12Zm-141.03 8.43a16.9 16.9 0 0 0-2.48-4.21l-.15-.2 2.32-1.43.12.16a19.69 19.69 0 0 1 2.66 4.3l.08.2-2.46 1.42Zm-2.3-4.35a16.97 16.97 0 0 1 2.5 4.27l2.06-1.2-2.06 1.2a16.97 16.97 0 0 0-2.5-4.27Zm-41.58 3.6a27.37 27.37 0 0 0-1.06-5.6l-.07-.22 2.38-.55.06.2a30.6 30.6 0 0 1 1.08 5.62l.02.19-2.38.62Zm-.85-5.65a27.48 27.48 0 0 1 1.08 5.63l1.94-.5-1.94.5a27.48 27.48 0 0 0-1.08-5.64Zm134.88-.97v-2.69h8.71v2.69Zm.23-.23h8.26Zm-.23-4.4v-2.71h8.71v2.71Zm.23-.22h8.26Zm45.18-.61v-9.4h13.48v9.4Zm.23-.23h13.03Zm2.5-2.3v-4.38Zm.23-.22h7.57v-3.94h-7.57Zm-125.88-1a15.73 15.73 0 0 0-2.35-4.1l-.16-.2 2.33-1.42.12.16a21.05 21.05 0 0 1 2.54 4.19l.08.18-2.46 1.43Zm-2.17-4.23a15.9 15.9 0 0 1 2.38 4.14l2.06-1.19-2.06 1.2a15.9 15.9 0 0 0-2.38-4.15Zm78.61 3.92v-2.71h3.89a16.6 16.6 0 0 0-.86-2.8l-.1-.23 2.79-.74.07.17a18.78 18.78 0 0 1 1.15 3.6h4.15v2.7Zm.22-.22H411Zm3.94-2.27a16.95 16.95 0 0 0-.92-3.1 16.95 16.95 0 0 1 .92 3.1Zm-104.83 2.37v-2.71h5.49a15.37 15.37 0 0 0-1.02-2.3l-.13-.23 3.05-1 .1.15a15.06 15.06 0 0 1 1.43 3.38h5.6v2.71Zm.22-.22h14.08Zm5.58-2.27a15.86 15.86 0 0 0-1.13-2.62 15.86 15.86 0 0 1 1.13 2.62Z" data-name="Union 65"/></g><g transform="translate(0 3.6)"><circle cx="5.99" cy="5.99" r="5.99" fill="#ea5514" data-name="Ellipse 6756" transform="translate(26.46 9.49)"/><path fill="#ea5514" d="M43.65 22.16c.42-1.04.53-1.18.84-2.17 0 0 .36-1.2-.38-1.35 0 0-.52-.2-1.12.86a13.65 13.65 0 0 1-7.25 5.01s-9.8 3.42-19.66-12.15l-.96-1.54a.95.95 0 0 0-.16-.19.53.53 0 0 0-.41-.2.54.54 0 0 0-.55.55V11a6.18 6.18 0 0 0 .48 1.26s16.06 36.18 32.57 43.11c0 0-9.5-17.58-3.4-33.2Z" data-name="Path 256449"/><path fill="#f8b62d" d="M66.2 52c-.76 2.48-2.57 4.46-6.37 4.46-3.68 0-5.26-2.24-5.26-5.5 0-3.61 2-8.7 7.31-8.7 3.98 0 5.18 2.5 5.08 4.72h-3.59c0-.95-.2-2.04-1.74-2.04-2.27 0-3.24 3.72-3.24 6.1 0 1.75.56 2.73 1.85 2.73a2.34 2.34 0 0 0 2.28-1.78Z" data-name="Path 256450"/><path fill="#f8b62d" d="M80.9 47.83c0 3.48-1.7 8.63-7.52 8.63-3.8 0-5.46-2.27-5.46-5.57 0-3.38 1.9-8.64 7.45-8.64 3.67 0 5.53 2.3 5.53 5.58Zm-9.18 3.33c0 1.74.63 2.62 1.97 2.62 2.5 0 3.42-4.35 3.42-6.26 0-1.73-.56-2.6-1.99-2.6-2.43 0-3.4 4.12-3.4 6.25Z" data-name="Path 256451"/><path fill="#f8b62d" d="m86.3 50.81-1.14 5.4h-3.58l2.91-13.7h5.45c2.94 0 4.4 1.5 4.4 3.45a3.65 3.65 0 0 1-2.63 3.62c1 .59 1.35 1.69.95 3.72a20.62 20.62 0 0 0-.44 2.9h-3.59a15.24 15.24 0 0 1 .45-3.1c.31-1.42.21-2.28-1.32-2.28Zm.55-2.59h1.59c1.43 0 2.14-.66 2.14-1.79 0-1.03-.74-1.36-1.54-1.36H87.5Z" data-name="Path 256452"/><path fill="#f8b62d" d="M104.72 50.55h-5.5l-.6 2.92h6.48l-.96 2.75H94.5l2.9-13.7h9.27l-.59 2.76h-5.7l-.54 2.52h5.5Z" data-name="Path 256453"/><path fill="#f8b62d" d="M5.6 47.2s-6.8 12.15 13.96 7.54c0 0 14.64-2.29 30.23-16.54 4.28-3.9 11.18-11.37 5.65-14.23 0 0-5.23-2.34-12.43 1.31 0 0 12.43-8.4 18.9-2.13 0 0 5.6 5.03-3.49 16.32 0 0-25.95 28.25-52.06 21.49 0 0-10.04-3.34-.75-13.75Z" data-name="Path 256454"/><circle cx="5.99" cy="5.99" r="5.99" fill="#3fb7a0" data-name="Ellipse 6757" transform="translate(0 24.96)"/><path fill="#3fb7a0" d="M31.51 44.28s-8.85-9.51-17.36-28.75a36.02 36.02 0 0 0-1.6-3.23.54.54 0 0 0-.96.36 6 6 0 0 0 .6 1.63s6.63 15.8 1.96 23.89c-3.79 6.54-12.5 1.03-12.5 1.03l-.25-.14h-.05a.4.4 0 0 0-.13-.03H1.1a.42.42 0 0 0-.16.07l-.04.03a.61.61 0 0 0-.09.1.38.38 0 0 0-.04.06.4.4 0 0 0-.03.13c-.18 1 1.93 3.63 4.69 5.84a67.92 67.92 0 0 0 13.9 8.45c16.4 5.94 26 2.63 26 2.63-5.69-2.62-13.82-12.07-13.82-12.07Z" data-name="Path 256455"/><path fill="#f8b62d" d="m7.15.11 2.23 1.55a.6.6 0 0 0 .56.07l2.54-.95a.6.6 0 0 1 .79.74l-.79 2.6a.6.6 0 0 0 .1.55l1.7 2.12a.6.6 0 0 1-.47.96l-2.7.1a.6.6 0 0 0-.47.27l-1.5 2.26a.6.6 0 0 1-1.09-.16l-.89-2.57a.6.6 0 0 0-.4-.38l-2.63-.7a.6.6 0 0 1-.2-1.07L6.1 3.86a.6.6 0 0 0 .24-.5L6.22.63a.6.6 0 0 1 .94-.52Z" data-name="Path 256456"/></g></g></g></g></svg>