<svg xmlns="http://www.w3.org/2000/svg" width="163.138" height="25.94"><defs><clipPath id="a"><path fill="none" d="M0 0h163.138v25.94H0z"/></clipPath><clipPath id="b"><path fill="none" d="M0 0h16.98v16.961H0z"/></clipPath><clipPath id="c"><path d="M15.617 24.1a8.49 8.49 0 1 0 8.49-8.48 8.485 8.485 0 0 0-8.49 8.48" transform="translate(-15.617 -15.619)" fill="none"/></clipPath></defs><g clip-path="url(#a)"><path d="m115.737 22.273.285-1.1h.507l-.385 1.1Zm13.273-.531.045-.416a1.923 1.923 0 0 0 .656.152c.258 0 .62-.143.62-.51 0-.7-1.359-.506-1.359-1.476 0-.555.444-.851 1.015-.851a2.129 2.129 0 0 1 .674.112l-.064.412a1.411 1.411 0 0 0-.593-.13c-.253 0-.552.09-.552.416 0 .6 1.357.461 1.357 1.49 0 .666-.52.931-1.153.931a2.131 2.131 0 0 1-.646-.131Zm-27.827-1.5a1.566 1.566 0 0 1 1.67-1.6 2.4 2.4 0 0 1 .928.157l-.036.452a1.47 1.47 0 0 0-.87-.215 1.221 1.221 0 0 0-.022 2.442 1.865 1.865 0 0 0 .507-.053v-.949h-.665v-.367h1.117v1.623a2.887 2.887 0 0 1-.963.139 1.548 1.548 0 0 1-1.666-1.627Zm55.89.013a1.524 1.524 0 1 1 3.042 0 1.524 1.524 0 1 1-3.042 0Zm.481 0c0 .622.312 1.221 1.041 1.221s1.04-.6 1.04-1.221a1.085 1.085 0 0 0-1.04-1.222h-.007a1.085 1.085 0 0 0-1.035 1.224Zm-16.361 0a1.523 1.523 0 1 1 3.041 0 1.523 1.523 0 1 1-3.041 0Zm.48 0c0 .622.312 1.221 1.041 1.221s1.041-.6 1.041-1.221a1.085 1.085 0 0 0-1.041-1.222h-.007a1.086 1.086 0 0 0-1.035 1.224Zm-31.168-.014a1.566 1.566 0 0 1 1.67-1.6 1.756 1.756 0 0 1 .71.134l-.036.434a1.285 1.285 0 0 0-.652-.175 1.222 1.222 0 0 0-.023 2.443 1.569 1.569 0 0 0 .688-.152l.028.433a1.979 1.979 0 0 1-.72.112 1.548 1.548 0 0 1-1.665-1.627Zm-33.18.014a1.524 1.524 0 1 1 3.042 0 1.524 1.524 0 1 1-3.042 0Zm.479 0c0 .622.313 1.221 1.041 1.221s1.042-.6 1.042-1.221a1.086 1.086 0 0 0-1.042-1.222h-.008a1.086 1.086 0 0 0-1.033 1.224Zm-21.323-.014a1.566 1.566 0 0 1 1.67-1.6 1.758 1.758 0 0 1 .71.134l-.036.434a1.282 1.282 0 0 0-.651-.175 1.222 1.222 0 0 0-.023 2.443 1.577 1.577 0 0 0 .686-.155l.027.433a1.976 1.976 0 0 1-.72.112 1.548 1.548 0 0 1-1.664-1.624Zm-6.467.014a1.524 1.524 0 1 1 3.042 0 1.524 1.524 0 1 1-3.042 0Zm.48 0c0 .622.312 1.221 1.041 1.221s1.041-.6 1.041-1.221a1.086 1.086 0 0 0-1.039-1.22h-.01a1.086 1.086 0 0 0-1.034 1.222Zm-12.409 0a1.48 1.48 0 0 1 1.521-1.615 1.48 1.48 0 0 1 1.521 1.615 1.467 1.467 0 0 1-1.521 1.615 1.466 1.466 0 0 1-1.522-1.613Zm.48 0c0 .622.312 1.221 1.041 1.221s1.041-.6 1.041-1.221a1.086 1.086 0 0 0-1.041-1.222h-.008a1.086 1.086 0 0 0-1.034 1.224Zm99.215 1.567v-1.311l-1.236-1.816h.529l.942 1.4.919-1.4h.53l-1.227 1.816v1.311Zm-9.966 0v-3.127h.453v3.127Zm-4.707 0v-3.127h.453v3.127Zm-8.7 0v-1.311l-1.235-1.816h.529l.941 1.4.919-1.4h.529l-1.232 1.816v1.311Zm-33.334 0v-3.127h.828c.648 0 1.186.224 1.186.935 0 .694-.548.94-1.118.94h-.444v1.252Zm.452-1.642h.448a.567.567 0 0 0 .633-.558c0-.394-.417-.537-.7-.537h-.385Zm-18.098 1.642v-3.127h.933a1.54 1.54 0 0 1 1.683 1.534 1.486 1.486 0 0 1-1.684 1.593Zm.453-.394h.475a1.057 1.057 0 0 0 1.209-1.177 1.1 1.1 0 0 0-1.155-1.159h-.529Zm98.678.393-.484-1.083c-.14-.3-.29-.3-.53-.3h-.271v1.384h-.453v-3.127h.773c.625 0 1.227.1 1.227.846a.731.731 0 0 1-.652.711v.009a.525.525 0 0 1 .308.313l.6 1.244Zm-1.285-1.78h.385c.429 0 .684-.189.684-.487 0-.282-.218-.46-.634-.46h-.434Zm-6.92 1.78v-3.126h.856c.656 0 1.109.21 1.109.788a.725.725 0 0 1-.652.742v.01a.733.733 0 0 1 .733.751c0 .671-.56.832-1.2.832Zm.453-.367h.34c.407 0 .774-.085.774-.5 0-.484-.43-.55-.819-.55h-.294Zm0-1.423h.25c.439 0 .809-.039.809-.5 0-.371-.321-.465-.584-.465h-.475Zm-1.469 1.791-.322-.787h-1.548l-.321.787h-.475l1.349-3.123h.476l1.341 3.123Zm-1.724-1.154h1.258l-.629-1.547Zm-2.95 1.154v-3.127h.453v2.727h1.321v.4Zm-3.724 0v-3.127h1.679v.394h-1.227v.913h1.172v.394h-1.172v1.426Zm-9.105 0-.484-1.083c-.14-.3-.289-.3-.53-.3h-.271v1.383h-.453v-3.127h.774c.625 0 1.226.1 1.226.846a.731.731 0 0 1-.651.711v.009a.525.525 0 0 1 .307.313l.6 1.244Zm-1.285-1.78h.385c.43 0 .684-.189.684-.487 0-.282-.217-.46-.634-.46h-.434Zm-2.4 1.78v-2.734h-.982v-.394h2.417v.394h-.983v2.734Zm-5.8 0-1.43-2.567h-.01v2.567h-.453v-3.127h.616l1.394 2.514h.009v-2.514h.453v3.127Zm-4.588 0v-2.7h-.01l-1.045 2.7h-.443l-1.045-2.7h-.01v2.7h-.452v-3.127h.746l.992 2.6.973-2.6h.747v3.127Zm-12.558 0-1.429-2.567h-.01v2.567h-.453v-3.127h.617l1.393 2.514h.01v-2.514h.452v3.127Zm-4.471 0v-3.127h1.77v.394h-1.323v.913h1.2v.394h-1.2v1.026h1.317v.4Zm-4.421 0-.322-.787h-1.552l-.321.787h-.479l1.349-3.123h.475l1.338 3.123Zm-1.725-1.154h1.251l-.63-1.547Zm-3.924 1.154v-2.734h-.982v-.394h2.416v.394h-.982v2.734Zm-2.1 0-1.429-2.567h-.009v2.567h-.453v-3.127h.616l1.394 2.514h.008v-2.514h.448v3.127Zm-4.471 0v-3.127h1.77v.394h-1.318v.913h1.2v.394h-1.2v1.026h1.317v.4Zm-1.375 0v-2.7h-.01l-1.045 2.7h-.444l-1.044-2.7h-.01v2.7h-.453v-3.127h.747l.991 2.6.973-2.6h.748v3.127Zm-11.586 0v-3.127h.453v2.727h1.322v.4Zm-2.579 0v-3.127h1.77v.394h-1.318v.913h1.2v.394h-1.2v1.026h1.317v.4Zm-2.314 0-1.19-3.123h.507l.973 2.729h.01l1-2.729h.475l-1.213 3.123Zm-3.4 0v-3.127h1.77v.394h-1.32v.913h1.2v.394h-1.2v1.026h1.317v.4Zm-7.313 0v-3.127h1.77v.394h-1.32v.913h1.2v.394h-1.2v1.026h1.317v.4Zm-4.023 0-.485-1.083c-.14-.3-.289-.3-.529-.3h-.271v1.383h-.453v-3.127h.774c.625 0 1.228.1 1.228.846a.732.732 0 0 1-.653.711v.009c.141.053.208.121.308.313l.6 1.244Zm-1.285-1.78h.385c.43 0 .683-.189.683-.487 0-.282-.217-.46-.633-.46h-.434Zm-6.42 1.78v-3.127h1.679v.394h-1.226v.913h1.172v.394h-1.172v1.426Zm-1.2 0-1.408-1.53v1.53h-.451v-3.127h.453v1.373l1.347-1.373h.6l-1.484 1.477 1.6 1.646Zm-3.028 0-.484-1.083c-.141-.3-.29-.3-.529-.3h-.271v1.383h-.452v-3.127h.773c.625 0 1.227.1 1.227.846a.731.731 0 0 1-.652.711v.009c.141.053.208.121.308.313l.6 1.244Zm-1.285-1.78h.385c.43 0 .684-.189.684-.487 0-.282-.218-.46-.634-.46h-.434Zm-6.1 1.78-.689-2.729h-.003l-.692 2.729h-.607l-.955-3.127h.5l.756 2.675h.009l.674-2.675h.641l.683 2.675h.009l.757-2.675h.479l-.973 3.127Zm27.367-6.374a22.705 22.705 0 0 0 .1-2.411v-1.215q0-.606-.052-1.2a.046.046 0 0 1 .052-.052q.6.052 1.235.052h2.5q.624 0 1.248-.052a.046.046 0 0 1 .057.052q-.052.594-.052 1.186v1.185a22.757 22.757 0 0 0 .1 2.373 1.28 1.28 0 0 1-.558.064c-.312 0-.477-.022-.494-.064a2.078 2.078 0 0 0 .026-.336v-.348H64.53v.387a2.606 2.606 0 0 0 .026.374c-.008.043-.164.065-.468.065a1.189 1.189 0 0 1-.533-.064Zm.975-1.6h3.185v-2.376h-3.18Zm32.822.967q.207-.142.572-.451-2.4.283-5.342.606l-.143-.838q.962-.078 2.769-.258v-1.112h-1.204q-.416 0-1.2.051a1.046 1.046 0 0 1-.039-.418 1.056 1.056 0 0 1 .039-.42q.6.053 1.2.052h1.209v-.787h-1.2q-.611 0-1.183.051c-.026 0-.039-.017-.039-.051a5 5 0 0 0 .039-.786V9.322a18.418 18.418 0 0 0-.078-1.908c0-.034.025-.052.078-.052q.572.052 1.183.052h1.2v-.815h-1.379q-.624 0-1.378.064a1.236 1.236 0 0 1-.039-.438 1.231 1.231 0 0 1 .039-.438 12.431 12.431 0 0 0 1.378.064h1.379v-.852q-1.34.1-2.392.142a2.38 2.38 0 0 0-.234-.709 35 35 0 0 0 5.485-.631l.481.735a24.6 24.6 0 0 1-2.5.374v.94H97.4q.611 0 1.352-.064a1.248 1.248 0 0 1 .038.438 2.137 2.137 0 0 1-.023.4q.255.026.647.026h.768q.025-.9.026-2.824h.9q0 1.922-.025 2.824h2.69c0 .163 0 .327-.013.49q-.104 4.191-.223 5.682a4.535 4.535 0 0 1-.468 2.05 1.069 1.069 0 0 1-.845.477 8.995 8.995 0 0 1-1.547 0 2.4 2.4 0 0 0-.26-.9q.767.064 1.4.064a.552.552 0 0 0 .468-.206 4.562 4.562 0 0 0 .351-1.767q.129-1.521.221-4.99h-1.82a17.357 17.357 0 0 1-.715 4.616 6.617 6.617 0 0 1-2.274 3.328 2.311 2.311 0 0 0-.695-.682Zm-1.3-1.032q1.378-.129 2.548-.27v.064a7.215 7.215 0 0 0 1.162-2.672 20.118 20.118 0 0 0 .4-3.353h-.754a7.208 7.208 0 0 0-.741.039 1.35 1.35 0 0 1-.039-.49 2.771 2.771 0 0 1 .022-.45q-.526-.052-1.244-.052h-1.349v.812H97.3q.637 0 1.235-.052c.026 0 .039.018.039.052a9.04 9.04 0 0 0-.039.954v1.921a9.052 9.052 0 0 0 .039.954c0 .034-.013.051-.039.051q-.6-.051-1.235-.051h-1.248v.782h1.261q.416 0 1.248-.052a1.064 1.064 0 0 1 .039.42 1.054 1.054 0 0 1-.039.418q-.624-.046-1.248-.046h-1.261Zm0-3.21h1.678v-.945h-1.673Zm-2.457 0h1.612v-.945h-1.606ZM96.047 9h1.678v-.931h-1.673ZM93.59 9h1.612v-.931h-1.606Zm-40.693 5.812q.208-.142.572-.451-2.405.283-5.342.606l-.143-.838q.962-.078 2.768-.258v-1.109h-1.208q-.417 0-1.2.051a1.071 1.071 0 0 1-.039-.418 1.081 1.081 0 0 1 .039-.42q.6.053 1.2.052h1.208v-.787h-1.2q-.612 0-1.183.051c-.027 0-.039-.017-.039-.051a4.935 4.935 0 0 0 .039-.786V9.322a18.467 18.467 0 0 0-.078-1.908c0-.034.026-.052.078-.052q.571.052 1.183.052h1.2v-.815h-1.378q-.624 0-1.377.064a1.216 1.216 0 0 1-.04-.438 1.212 1.212 0 0 1 .04-.438 12.413 12.413 0 0 0 1.377.064h1.378v-.852q-1.338.1-2.392.142a2.337 2.337 0 0 0-.233-.709 35.015 35.015 0 0 0 5.485-.631l.481.735a24.667 24.667 0 0 1-2.5.374v.94h1.352q.611 0 1.352-.064a1.231 1.231 0 0 1 .04.436 2.114 2.114 0 0 1-.023.4c.169.017.385.026.647.026h.767q.027-.9.026-2.824h.9q0 1.922-.026 2.824h2.69c0 .163 0 .327-.013.49q-.1 4.191-.221 5.686a4.538 4.538 0 0 1-.468 2.05 1.071 1.071 0 0 1-.845.477 9 9 0 0 1-1.547 0 2.406 2.406 0 0 0-.26-.9q.766.064 1.4.064a.552.552 0 0 0 .468-.206 4.573 4.573 0 0 0 .351-1.767q.129-1.521.221-4.99h-1.82a17.431 17.431 0 0 1-.715 4.616 6.608 6.608 0 0 1-2.275 3.328 2.3 2.3 0 0 0-.697-.684Zm-1.3-1.032q1.378-.129 2.548-.27v.064a7.211 7.211 0 0 0 1.157-2.669 20.276 20.276 0 0 0 .4-3.353h-.754a7.2 7.2 0 0 0-.741.039 1.346 1.346 0 0 1-.039-.49 2.76 2.76 0 0 1 .022-.45q-.527-.052-1.244-.052h-1.349v.812h1.248q.636 0 1.234-.052c.026 0 .039.018.039.052a9.1 9.1 0 0 0-.039.954v1.921a9.113 9.113 0 0 0 .039.954c0 .034-.013.051-.039.051q-.6-.051-1.234-.051h-1.248v.782h1.261q.416 0 1.248-.052a1.072 1.072 0 0 1 .039.42 1.063 1.063 0 0 1-.039.418q-.624-.051-1.248-.051h-1.261Zm0-3.21h1.677v-.942h-1.677Zm-2.457 0h1.612v-.942h-1.615Zm2.457-1.573h1.677v-.928h-1.677Zm-2.457 0h1.612v-.928h-1.615Zm58.273 5.737a9.041 9.041 0 0 0 3.445-3.533 9.9 9.9 0 0 0 1.013-3.779h-2.04q-.857 0-2.04.09a2.021 2.021 0 0 1-.039-.567 2.015 2.015 0 0 1 .039-.566q.883.089 2.066.09h2.068V4.793q0-.515-.053-1.161a4.82 4.82 0 0 1 .78.013q.507.052.507.168a1.531 1.531 0 0 0-.261.825v1.831h5.3c-.008.164-.018.331-.026.5q-.221 3.985-.455 5.661a4.73 4.73 0 0 1-.65 2.192 1.269 1.269 0 0 1-.468.374 2.1 2.1 0 0 1-.624.142 15.767 15.767 0 0 1-2.028-.039 1.861 1.861 0 0 0-.324-.98q1.014.09 2 .09a.8.8 0 0 0 .585-.194 3.756 3.756 0 0 0 .571-1.857q.234-1.585.415-4.939h-4.347a10.983 10.983 0 0 1-1.027 4.178 9.6 9.6 0 0 1-3.683 3.898 2.688 2.688 0 0 0-.724-.761Zm-37.657.7q.1-1.1.1-2.746V7.165q0-1.65-.1-2.746 0-.077.1-.077a17.881 17.881 0 0 0 1.876.08h1.872l.156-.039.689.452q-1.08 2.527-1.768 3.869a4.371 4.371 0 0 1 1.6 3.12 1.884 1.884 0 0 1-.623 1.676 1.838 1.838 0 0 1-.833.284 7.038 7.038 0 0 1-1.1.026 2.053 2.053 0 0 0-.26-.955 6.358 6.358 0 0 0 1 .026 1.349 1.349 0 0 0 .546-.142q.351-.219.351-1.019a3.988 3.988 0 0 0-1.65-2.889q.6-1.25 1.482-3.507h-2.4v6.239q0 2.32.1 3.868a1.283 1.283 0 0 1-.559.065 1.332 1.332 0 0 1-.579-.065Zm84.581-.012a13.889 13.889 0 0 0 .077-1.651v-1.667q-1.129.412-2.352.761a7.532 7.532 0 0 0-.495-.8 27.2 27.2 0 0 0 5.486-1.986h-2.574q-1.2 0-2.574.1a1.488 1.488 0 0 1-.039-.464 1.348 1.348 0 0 1 .039-.451q.962.09 2.223.09h2.236V8.351h-1.627q-.729 0-1.612.065a1.087 1.087 0 0 1-.039-.413 1.088 1.088 0 0 1 .039-.413q.675.064 1.612.065h1.625v-.733h-3.675V5.528a12.206 12.206 0 0 0-.065-1.38c0-.068.022-.1.065-.1a23.2 23.2 0 0 0 2.4.1h7.227v1.393a12.147 12.147 0 0 0 .065 1.38c0 .069-.022.1-.065.1q-1-.1-2.522-.1h-2.535v.735h3.094v.373q.559-.463 1.118-1.018a2.374 2.374 0 0 1 .52.451q.233.271.143.348a.232.232 0 0 1-.169.065.5.5 0 0 0-.351.167 17.593 17.593 0 0 1-1.689 1.316h1.586q.715 0 1.585-.065a1.177 1.177 0 0 1 .039.432 1.316 1.316 0 0 1-.039.446q-.935-.091-2.157-.091h-2.159a24.937 24.937 0 0 1-2.339 1.2h3.64a7.19 7.19 0 0 0-1.756-.7l.455-.49a6.288 6.288 0 0 1 1.938.734l-.4.452h.741a5.446 5.446 0 0 0 .728-.039c.034 0 .052.013.052.039a10.324 10.324 0 0 0-.052 1.031v1.035q0 1.161.09 2.063a1.224 1.224 0 0 1-.559.065c-.33 0-.5-.022-.507-.065v-.065a.551.551 0 0 0 .013-.1v-.181h-5.5v.181a.645.645 0 0 0 .013.115v.067c-.008.043-.169.064-.481.064a1.087 1.087 0 0 1-.517-.064Zm.988-1.058h5.5v-.893h-5.5Zm0-1.508h5.5v-.868h-5.5Zm1.936-3.494h1.131q.78-.464 1.534-1.006h-2.665Zm2.056-3.15h2.079V4.857h-2.079Zm-2.9 0h2.028V4.857h-2.028Zm-2.847 0h1.967V4.857h-1.963Zm-10.385 5.35h-1.56v2.46q.391-.065 1.2-.193.988-.155 1.482-.246l.039.838-1.612.271q-2.379.413-3.3.567l-.157-.89q.52-.064 1.469-.218v-2.589h-.809c-.269 0-.533.014-.793.039a1.166 1.166 0 0 1-.039-.451 1.306 1.306 0 0 1 .039-.464q.547.052 1.132.052h1.144V9.422h-.949c-.321 0-.637.012-.949.039a1.155 1.155 0 0 1-.039-.451 1.153 1.153 0 0 1 .039-.451 9.076 9.076 0 0 0 .949.039h.949V7.422h-2.314v.606q0 5.017-1.508 7.415a2.861 2.861 0 0 0-.831-.49 9.005 9.005 0 0 0 1.17-3.443 24.173 24.173 0 0 0 .209-3.482V6.146a17.508 17.508 0 0 0-.079-1.87c0-.069.027-.1.079-.1a22.074 22.074 0 0 0 2.365.1h4.758a22.1 22.1 0 0 0 2.366-.1c.025 0 .039.034.039.1a6.046 6.046 0 0 0-.039.787v.786q0 .929.064 1.573c0 .026-.022.039-.064.039a9.075 9.075 0 0 0-.949-.039h-.949v1.175h1.079c.242 0 .6-.017 1.066-.052a1.3 1.3 0 0 1 .039.465 1.291 1.291 0 0 1-.039.464q-.52-.052-1.066-.052h-1.079v1.316h1.326q.585 0 1.326-.065a1.452 1.452 0 0 1 .039.483 1.6 1.6 0 0 1-.039.5q-.935-.09-2.158-.09h-2.157a5.326 5.326 0 0 0 1.013 1.38 13.816 13.816 0 0 0 1.911-1.3 2.415 2.415 0 0 1 .481.483q.208.278.117.342a.235.235 0 0 1-.181.038.521.521 0 0 0-.378.113 12.266 12.266 0 0 1-1.365.825 7.038 7.038 0 0 0 2.846 1.212 2.526 2.526 0 0 0-.559.8 6.665 6.665 0 0 1-4.774-3.897Zm-.871-.824h2.547V9.422h-2.547Zm0-2.141h2.547V7.422h-2.547Zm-3.211-2.011h7.6V5.115h-7.6Zm-12.283 8.148a9.027 9.027 0 0 0 2.535-.876 5.192 5.192 0 0 1-1.352-1.793l.519-.155h-.493q-.169 0-.481.027c-.026-.018-.039-.144-.039-.381a.958.958 0 0 1 .039-.393 10.454 10.454 0 0 0 1.053.052h3.158l.156-.039.52.219a5.594 5.594 0 0 1-1.677 2.437 8.167 8.167 0 0 0 2.639.813 3.448 3.448 0 0 0-.56.786 7.735 7.735 0 0 1-2.807-1.07 9.28 9.28 0 0 1-2.793 1.083 2.655 2.655 0 0 0-.417-.71Zm3.25-1.341a4.473 4.473 0 0 0 1.261-1.483h-2.548a3.853 3.853 0 0 0 1.286 1.483ZM77.803 14.58a7.882 7.882 0 0 0 3.146-1.083 3.355 3.355 0 0 0 1.313-1.908h-1.69q-.844 0-1.689.077a1.7 1.7 0 0 1-.039-.516 1.54 1.54 0 0 1 .039-.5 16.146 16.146 0 0 0 1.78.077h1.781q.079-.644.117-1.393h1.014q-.076.929-.143 1.393h4.328c-.007.138-.021.28-.039.425a27.316 27.316 0 0 1-.286 2.734 2.322 2.322 0 0 1-.454 1.147 1.331 1.331 0 0 1-.923.374q-.91.026-1.95-.039a1.679 1.679 0 0 0-.324-.89c.64.052 1.269.077 1.883.077a.883.883 0 0 0 .547-.128 6.635 6.635 0 0 0 .546-2.837h-3.484a4.365 4.365 0 0 1-1.43 2.463 8.121 8.121 0 0 1-3.549 1.379 2.051 2.051 0 0 0-.494-.852Zm-44.455 0a7.881 7.881 0 0 0 3.144-1.084 3.356 3.356 0 0 0 1.314-1.907h-1.69q-.846 0-1.69.077a1.7 1.7 0 0 1-.039-.516 1.54 1.54 0 0 1 .039-.5 16.15 16.15 0 0 0 1.781.072h1.781q.078-.644.116-1.393h1.014q-.081.931-.143 1.393h4.328q-.013.207-.039.425a27.4 27.4 0 0 1-.286 2.734 2.314 2.314 0 0 1-.455 1.147 1.33 1.33 0 0 1-.923.374q-.91.026-1.95-.039a1.671 1.671 0 0 0-.325-.89q.963.078 1.885.077a.876.876 0 0 0 .547-.128 6.6 6.6 0 0 0 .546-2.837h-3.484a4.361 4.361 0 0 1-1.429 2.463 8.124 8.124 0 0 1-3.553 1.383 2.065 2.065 0 0 0-.49-.851Zm90.249.787a1.563 1.563 0 0 0-.286-.813q.845.078 1.651.078a.683.683 0 0 0 .468-.116 1.286 1.286 0 0 0 .261-.645 14.3 14.3 0 0 0 .208-1.522h-2.251l-.091.36-.793-.141a28.532 28.532 0 0 0 .611-2.914h2.562V8.322h-2.224V8.21a10.419 10.419 0 0 1-1.287.555 2.951 2.951 0 0 0-.52-.709 8.852 8.852 0 0 0 2.483-1.212 6.958 6.958 0 0 0-1.417-1.109l.546-.541a9.527 9.527 0 0 1 1.519 1.146 6.228 6.228 0 0 0 1.222-1.353h-1.48q-.662 0-1.482.064a1.317 1.317 0 0 1-.039-.457 1.066 1.066 0 0 1 .039-.433 7.313 7.313 0 0 0 .857.039h2.6l.169-.039.585.309a7.372 7.372 0 0 1-2.676 3.082h.988a9.4 9.4 0 0 0 .975-.039.035.035 0 0 1 .039.039 5.914 5.914 0 0 0-.039.774V9.1q0 .732.041 1.274a2.056 2.056 0 0 0 1.18-1.881V7.5h2.86a8.305 8.305 0 0 1-3.068-3.6l.754-.246a6.8 6.8 0 0 0 .988 1.568 13.632 13.632 0 0 0 1.612-1.474 2.586 2.586 0 0 1 .487.483q.214.278.136.355a.245.245 0 0 1-.181.064.569.569 0 0 0-.367.156 12 12 0 0 1-1.208.928 7.307 7.307 0 0 0 .923.773 11.158 11.158 0 0 0 1.7-1.47 2.531 2.531 0 0 1 .494.464q.221.271.13.348a.243.243 0 0 1-.182.065.562.562 0 0 0-.364.154 10.3 10.3 0 0 1-1.144.851 8.341 8.341 0 0 0 2.17.9 2.925 2.925 0 0 0-.585.761 8.319 8.319 0 0 1-1.82-.8v1.732a.606.606 0 0 0 .052.335.414.414 0 0 0 .221.039h.377a1.67 1.67 0 0 0 .273-.013.326.326 0 0 0 .156-.181 6.16 6.16 0 0 0 .057-.67 1.711 1.711 0 0 0 .689.362 2.643 2.643 0 0 1-.143.85.754.754 0 0 1-.377.3 2.075 2.075 0 0 1-.572.065h-.624a1.118 1.118 0 0 1-.7-.193 1.513 1.513 0 0 1-.208-.968V8.274h-1.731v.248a2.66 2.66 0 0 1-1.377 2.45 3.655 3.655 0 0 0-.608-.591q.01.134.023.256a1.1 1.1 0 0 1-.481.052c-.295 0-.447-.021-.455-.065v-.041a.232.232 0 0 0 .014-.061v-.12h-1.9l-.078.4q-.1.542-.156.8h3.034c-.009.129-.022.258-.039.386a20.787 20.787 0 0 1-.273 2.16 1.9 1.9 0 0 1-.389.935 1.288 1.288 0 0 1-.846.31q-.239.008-.508.009-.537-.001-1.185-.036Zm-35.85-4.811a4.985 4.985 0 0 0 .04-.709v-.71h-8.7v.71a5.037 5.037 0 0 0 .039.709q-.026.052-.507.052t-.507-.052q.052-.542.052-1.122V8.3h10.064a23.967 23.967 0 0 0-2.314-1.663 3.867 3.867 0 0 1-2.277 1.534 1.693 1.693 0 0 0-.52-.709 3.309 3.309 0 0 0 2.067-1.3 5.536 5.536 0 0 0 .519-2.5h.871a8.975 8.975 0 0 1-.326 2.244q1.82 1.174 2.627 1.792l-.6.606h.443v1.131q0 .581.052 1.122a1.2 1.2 0 0 1-.52.052q-.477-.001-.503-.053Zm-44.456 0a5.051 5.051 0 0 0 .039-.709v-.71h-8.693v.71a5.038 5.038 0 0 0 .039.709q-.025.052-.507.052t-.51-.052q.051-.542.052-1.122V8.3h10.061a23.8 23.8 0 0 0-2.314-1.664 3.863 3.863 0 0 1-2.275 1.535 1.688 1.688 0 0 0-.52-.709 3.3 3.3 0 0 0 2.066-1.3 5.516 5.516 0 0 0 .52-2.5h.871a9.017 9.017 0 0 1-.324 2.24q1.82 1.174 2.626 1.792l-.6.606h.442v1.135q0 .581.052 1.122a1.2 1.2 0 0 1-.52.052q-.479-.001-.505-.053Zm24.425-1.057h-3.279q-.818 0-1.637.078a1.759 1.759 0 0 1-.039-.522 1.942 1.942 0 0 1 .039-.536q1.313.1 3.275.1h1.638q.818 0 1.638-.077a1.614 1.614 0 0 1 .039.51 1.759 1.759 0 0 1-.039.522 13.439 13.439 0 0 0-1.635-.075Zm-.871-1.186a16.3 16.3 0 0 0 .714-2.191 3.546 3.546 0 0 1 .663.232c.216.1.316.181.3.233a.155.155 0 0 1-.09.09.364.364 0 0 0-.182.232c-.026.061-.063.155-.11.284l-.111.3q-.26.671-.416 1.019Zm-2.575-.851a7.806 7.806 0 0 0-.364-1.082l.793-.168a6.66 6.66 0 0 1 .585 2.063l-.819.193a5.044 5.044 0 0 0-.195-1.006Zm13.441.1a3.481 3.481 0 0 0 2.171-1.315 3.411 3.411 0 0 0 .4-1.109 9.364 9.364 0 0 0 .155-1.48h.819a8.979 8.979 0 0 1-.312 2.295c.044.026.108.069.195.13q1.339.928 1.742 1.276l-.624.593q-.494-.438-1.651-1.263a3.846 3.846 0 0 1-2.431 1.586 1.7 1.7 0 0 0-.464-.71Zm-44.455 0a3.481 3.481 0 0 0 2.171-1.312 3.417 3.417 0 0 0 .4-1.109 9.364 9.364 0 0 0 .158-1.483h.819a8.969 8.969 0 0 1-.312 2.295c.044.026.109.069.195.13q1.339.928 1.742 1.276l-.624.593q-.494-.438-1.651-1.263a3.846 3.846 0 0 1-2.43 1.585 1.705 1.705 0 0 0-.468-.709Zm44.663-1.609a3.089 3.089 0 0 0 1.067-1.611 3.5 3.5 0 0 1 .48.219c.165.094.238.168.221.219-.009.035-.039.06-.091.078a.316.316 0 0 0-.168.193 3.3 3.3 0 0 1-.235.49 2.7 2.7 0 0 1-.688.812Zm-44.455 0a3.091 3.091 0 0 0 1.066-1.611 3.49 3.49 0 0 1 .481.219c.164.094.238.168.221.219-.009.035-.039.06-.091.078a.318.318 0 0 0-.169.193 3.294 3.294 0 0 1-.234.49 2.708 2.708 0 0 1-.689.812Zm49.655-.051a2.619 2.619 0 0 0 1.118-1.573 5.377 5.377 0 0 1 .508.219c.164.094.238.168.221.219q-.014.052-.092.078a.317.317 0 0 0-.169.193c-.1.224-.186.387-.247.49a2.381 2.381 0 0 1-.728.786Zm-44.456 0a2.619 2.619 0 0 0 1.118-1.573 5.269 5.269 0 0 1 .507.219c.165.094.238.168.221.219-.008.034-.039.06-.09.078a.315.315 0 0 0-.169.193q-.156.335-.247.49a2.393 2.393 0 0 1-.727.786Zm48.289-.039a8.053 8.053 0 0 0 1.085-1.534 3.011 3.011 0 0 1 .6.3c.19.125.268.2.234.238a.162.162 0 0 1-.116.052.309.309 0 0 0-.221.128 2.949 2.949 0 0 0-.221.258l-.117.155a.343.343 0 0 0-.039.051c-.269.309-.464.525-.585.644Zm-44.455 0a8.134 8.134 0 0 0 1.08-1.534 3.012 3.012 0 0 1 .6.3c.191.125.269.2.235.238a.166.166 0 0 1-.117.052.311.311 0 0 0-.222.128 3.2 3.2 0 0 0-.221.258l-.117.155a.521.521 0 0 0-.039.051c-.268.309-.464.525-.585.644Zm39.074-.064a10.249 10.249 0 0 0 .923-1.47 3.074 3.074 0 0 1 .585.29c.182.115.26.189.234.219a.183.183 0 0 1-.1.058.238.238 0 0 0-.207.116c-.035.043-.085.107-.15.193s-.115.15-.149.193l-.208.245a5.027 5.027 0 0 1-.351.412Zm-44.456 0a10.2 10.2 0 0 0 .922-1.47 3.084 3.084 0 0 1 .588.293c.181.115.26.189.234.219a.183.183 0 0 1-.1.058.237.237 0 0 0-.208.116c-.035.043-.085.107-.15.193s-.115.15-.149.193l-.215.243a5.007 5.007 0 0 1-.351.412Zm30.547.129h-3.014q-.689 0-1.508.065a1.467 1.467 0 0 1-.039-.484 1.322 1.322 0 0 1 .039-.47q.624.052 1.274.052h1.274v-.7a6.233 6.233 0 0 0-.039-.735 3.84 3.84 0 0 1 .7.013q.441.052.442.167a1.1 1.1 0 0 0-.208.619v.632h1.3q.428 0 1.287-.052a1.326 1.326 0 0 1 .039.47 1.471 1.471 0 0 1-.039.484 15.083 15.083 0 0 0-1.507-.061Z" fill="#161615"/><path d="M116.499 22.773h-1.408l.118-.455h-1.3v-1.653l-.6-.885-.021.26-.685-.4a.786.786 0 0 0-.4-.107.722.722 0 0 0-.023 1.443 1.165 1.165 0 0 0 .432-.081l.7-.419.1 1.607-.331.137a2.374 2.374 0 0 1-.911.15 2.089 2.089 0 0 1-1.894-1.031v.983h-1.372l-.645-1.158v1.158h-4.033v-.2l-.253.086a3.445 3.445 0 0 1-1.124.166 2.205 2.205 0 0 1-1.5-.534l.205.48H99.97l-.322-.787h-.876l-.321.787h-1.572l1.78-4.123h.385l.165-.406.165.406h.419l.89 2.08v-.031a2.067 2.067 0 0 1 2.17-2.1 2.877 2.877 0 0 1 1.09.184l.284.1v-.227h3.99l.607 1.1v-1.1h1.452v.982a2.119 2.119 0 0 1 1.9-1.035 2.485 2.485 0 0 1 .533.054h1.258l.67 1 .654-1h1.746l-1.675 2.469v1.076l.276-1.064h1.599Zm-10.82-1.851h1.126v-.029h-1.126Zm-3.151-1.315h.832a1.2 1.2 0 0 0-.485-.074.79.79 0 0 0-.347.076Zm-17.076 3.096-.147-.385h-.431l-.211-.546v.55H83.21v-1.7a1.67 1.67 0 0 1-1.186.453v1.247h-1.452v-.881a1.914 1.914 0 0 1-1.727.934 1.978 1.978 0 0 1-1.441-.56v.507H72.05v-2.353l-.913 2.353h-1.248l-.9-2.366v.944h-1.2v.022h1.317v1.4h-2.769V21.23a2.036 2.036 0 0 1-1.978 1.092h-1.432v-4.127h1.433a2.128 2.128 0 0 1 1.977 1.127v-1.127h3.568l.631 1.77.648-1.77h4.9v2.727h.826a2.592 2.592 0 0 1-.084-.667 1.98 1.98 0 0 1 2.02-2.115 1.93 1.93 0 0 1 1.727.951v-.9h1.328a1.807 1.807 0 0 1 1.31.446v-.446h1.591l.642 1.682.63-1.682h5.507l.608 1.1v-1.1h4.408v1.394h-.982v2.737h-1.453v-2.734h-.525v2.734h-1.37l-.644-1.157v1.157h-5.407v-.548l-.212.548h-.407Zm-6.615-3.168c-.508 0-.534.6-.534.722 0 .269.07.721.541.721s.542-.452.542-.721c0-.12-.026-.722-.534-.722Zm-14.458.053v1.334c.5-.006.684-.185.684-.677a.6.6 0 0 0-.655-.659Zm24.664 1.334h1.127v-.029h-1.127Zm-15.54 0h1.127v-.029h-1.127Zm46.99 1.779-.147-.385h-.431l-.212-.548v.554h-1.452v-4.127h1.586l.643 1.682.631-1.682h4.248l.608 1.1v-1.1h2.8v.456a1.552 1.552 0 0 1 1.22-.51 2.687 2.687 0 0 1 .676.09v-.036h4.207a2.971 2.971 0 0 1 .787.087l-.058-.086h1.738l.67 1 .654-1h1.743l-1.667 2.469v1.657h-1.453v-1.657l-.689-1.012a1.179 1.179 0 0 1-.366.75l.919 1.914h-1.634l-.461-1.032v1.037H133.6v-2.734h-.5v2.734h-1.454v-2.734h-.609l-.041.266-.5-.195a1.4 1.4 0 0 1 .818 1.281 1.455 1.455 0 0 1-1.653 1.431 2.589 2.589 0 0 1-.8-.154l-.089-.029v.13h-2.722l-.645-1.159v1.163h-4.149v-.549l-.212.549h-.407Zm8.274-2.036.478.2a1.446 1.446 0 0 0 .466.114.288.288 0 0 0 .087-.014 2.631 2.631 0 0 0-.273-.139 2.172 2.172 0 0 1-.758-.507Zm29.826 1.7a1.91 1.91 0 0 1-1.751-.976c-.129.447-.529.923-1.648.923h-2.191l-.322-.787h-.876l-.321.787h-3.32v-4.117h1.453v2.727h.9l1.179-2.729h.386l.165-.406.165.406h.418l1.025 2.4v-2.4h1.356a1.947 1.947 0 0 1 1.07.256 1.144 1.144 0 0 1 .517.777 2.037 2.037 0 0 1 3.525-.136v-.9h1.273a2.386 2.386 0 0 1 1.078.2 1.2 1.2 0 0 1 .649 1.148 1.18 1.18 0 0 1-.371.863l.919 1.914h-1.634l-.461-1.031v1.038h-1.453v-.88a1.913 1.913 0 0 1-1.73.929Zm-.007-2.836c-.507 0-.533.6-.533.722 0 .269.07.721.541.721s.54-.452.54-.721c0-.12-.026-.722-.533-.722Zm-15.873 2.836a1.959 1.959 0 0 1-2.021-2.115 1.98 1.98 0 0 1 2.021-2.115 1.929 1.929 0 0 1 1.727.952v-.9h2.679v1.394h-.054v1.306h-1.172v1.435h-1.456v-.881a1.913 1.913 0 0 1-1.724.93Zm-.007-2.836c-.508 0-.533.6-.533.722 0 .269.07.721.541.721s.541-.452.541-.721c0-.12-.026-.722-.534-.722Zm-84.56 2.836a2.161 2.161 0 0 1-1.631-.667l.294.613h-1.634l-.461-1.031v1.042h-1.453v-.88a2.037 2.037 0 0 1-3.671-.543h-.841v1.423h-2.371l-.688-.748v.748h-2.445l-.461-1.032v1.032h-1.452v-.88a1.914 1.914 0 0 1-1.727.934 1.91 1.91 0 0 1-1.976-1.622l-.492 1.568h-1.338l-.3-1.208-.312 1.208h-1.365l-1.261-4.127h1.553l.355 1.255.317-1.255h1.42l.324 1.267.358-1.267h1.537l-.123.394a2 2 0 0 1 1.3-.447 1.929 1.929 0 0 1 1.727.951v-.9h1.276a2.386 2.386 0 0 1 1.077.2 1.147 1.147 0 0 1 .554.6v-.8h1.453v.65l.639-.65h3.647v.654a1.951 1.951 0 0 1 1.559-.707 1.929 1.929 0 0 1 1.727.951v-.9h1.276a2.387 2.387 0 0 1 1.077.2 1.151 1.151 0 0 1 .619.822 2.113 2.113 0 0 1 1.92-1.074 2.258 2.258 0 0 1 .871.159v-.106h2.77v1.394h-.118v1.306h-1.2v.03h1.317v1.4h-2.77v-.082a2.426 2.426 0 0 1-.877.131Zm-11.788-2.188.938.963v-1.9Zm-2.4.226.276.574v-.968a1.191 1.191 0 0 1-.273.394Zm14.213-.869a.722.722 0 0 0-.023 1.443 1.163 1.163 0 0 0 .434-.082l.437-.255v-.737l-.45-.263a.778.778 0 0 0-.396-.106Zm-6.647 0c-.508 0-.533.6-.533.722 0 .269.07.721.541.721s.541-.452.541-.721c0-.12-.026-.722-.534-.722Zm-11.929 0c-.508 0-.533.6-.533.722 0 .269.07.721.541.721s.541-.452.541-.721c0-.12-.026-.722-.534-.722Zm13.868-3.312-.289-.465a1.819 1.819 0 0 0-.553-.531L52.279 15c-1.307.151-2.68.305-4.1.46l-.468.051-.314-1.84.545-.044c.554-.045 1.312-.114 2.309-.213v-.152h-.708c-.266 0-.657.017-1.164.05l-.222.01-.16-.156c-.176-.172-.189-.408-.189-.775s.012-.594.178-.766a.556.556 0 0 1-.152-.388v-.05l.01-.049a4.344 4.344 0 0 0 .03-.688V9.322a18.061 18.061 0 0 0-.075-1.854V7.411a.553.553 0 0 1 .05-.234l-.082.007-.166-.22c-.109-.144-.141-.31-.141-.739s.032-.6.143-.742l.172-.225.1.012-.007-.038a1.861 1.861 0 0 0-.18-.557l-.386-.7.8-.043a34.725 34.725 0 0 0 5.4-.62l.335-.076 1.07 1.629-.7.158c-.5.112-1.189.221-2.06.327h.806c.395 0 .835-.021 1.309-.062l.275-.024.167.22a1.055 1.055 0 0 1 .14.665h.393c.01-.567.015-1.334.015-2.324v-.503h1.9v.5c0 .955 0 1.734-.015 2.324h2.679v.5c0 .177 0 .348-.013.51-.068 2.779-.143 4.7-.222 5.706a4.424 4.424 0 0 1-.559 2.3 1.563 1.563 0 0 1-1.191.682 5.532 5.532 0 0 1-.694.036c-.267 0-.584-.011-.944-.033l-.424-.026-.043-.423a1.924 1.924 0 0 0-.2-.716l-.17-.317a6.554 6.554 0 0 1-1.454 1.525Zm2.174-2.3.368.031c.5.042.955.063 1.362.063a.205.205 0 0 0 .07-.009 5.028 5.028 0 0 0 .251-1.508c.078-.918.147-2.413.205-4.447h-.832a17.072 17.072 0 0 1-.715 4.275 8.222 8.222 0 0 1-.709 1.595Zm-1.171-2.294a.525.525 0 0 1 .076.1 8.757 8.757 0 0 0 .273-.937 18.3 18.3 0 0 0 .359-2.739h-.223c-.12 0-.244 0-.369.011v2.223a8.678 8.678 0 0 0 .036.9v.055a.557.557 0 0 1-.152.387Zm43.454 4.6-.29-.463a1.835 1.835 0 0 0-.554-.532l-.341-.226c-1.3.15-2.672.3-4.1.46l-.468.051-.315-1.84.545-.044c.552-.044 1.31-.114 2.309-.213v-.159h-.709c-.265 0-.657.017-1.163.05l-.217.01-.159-.151c-.182-.173-.195-.41-.195-.781s.012-.594.179-.766a.557.557 0 0 1-.152-.388v-.045l.01-.048a4.418 4.418 0 0 0 .029-.688V9.322a18.034 18.034 0 0 0-.075-1.854V7.411a.553.553 0 0 1 .05-.234l-.085.007-.166-.223a1.177 1.177 0 0 1-.138-.737 1.169 1.169 0 0 1 .14-.74l.172-.227.106.012-.007-.037a1.9 1.9 0 0 0-.181-.56l-.381-.7.793-.043a34.71 34.71 0 0 0 5.4-.62l.338-.077 1.067 1.628-.7.158c-.5.112-1.188.221-2.06.327h.806c.395 0 .835-.021 1.309-.062l.278-.024.166.224a1.036 1.036 0 0 1 .137.661h.4c.01-.582.015-1.36.015-2.324v-.498h1.9v.5c0 .983 0 1.75-.014 2.324h2.679v.5c0 .163 0 .334-.013.509-.071 2.844-.144 4.711-.222 5.706a4.431 4.431 0 0 1-.56 2.3 1.561 1.561 0 0 1-1.192.683 5.526 5.526 0 0 1-.693.036c-.267 0-.584-.011-.943-.033l-.424-.026-.043-.422a1.922 1.922 0 0 0-.2-.716l-.171-.318a6.567 6.567 0 0 1-1.453 1.525Zm2.173-2.3.368.031c.5.042.955.063 1.362.063a.208.208 0 0 0 .07-.009 4.95 4.95 0 0 0 .251-1.508c.079-.931.148-2.426.205-4.446h-.832a17 17 0 0 1-.715 4.276 8.219 8.219 0 0 1-.709 1.587Zm-1.171-2.3a.525.525 0 0 1 .076.1 8.8 8.8 0 0 0 .273-.937 18.163 18.163 0 0 0 .359-2.739h-.224c-.12 0-.243 0-.368.011v2.223a8.639 8.639 0 0 0 .036.9v.056a.557.557 0 0 1-.152.386Zm38.79 4.57-.44-.374a2.373 2.373 0 0 0-.687-.4l-.567-.219.324-.514a8.557 8.557 0 0 0 1.1-3.253 23.8 23.8 0 0 0 .2-3.406V6.146a17.107 17.107 0 0 0-.075-1.813v-.056a.579.579 0 0 1 .579-.6h.056a21.7 21.7 0 0 0 2.31.1h4.758a21.737 21.737 0 0 0 2.311-.1h.056a.554.554 0 0 1 .539.6v.068a5.654 5.654 0 0 0-.034.718v.786c0 .6.021 1.115.062 1.523v.05a.54.54 0 0 1-.564.539h-.055a8.65 8.65 0 0 0-.894-.036h-.454v.174h.579c.228 0 .575-.017 1.029-.051l.234-.017.163.169c.162.168.178.376.178.811s-.018.65-.185.818l-.167.167-.235-.023c-.329-.033-.671-.049-1.017-.049h-.579v.316h.826c.367 0 .8-.021 1.283-.063l.276-.024.167.221c.119.157.14.342.14.784a1.41 1.41 0 0 1-.112.757l-.163.268-.312-.03-.279-.024a.671.671 0 0 1 .054.373.562.562 0 0 1-.218.364.726.726 0 0 1-.53.138.256.256 0 0 0-.038.024h-.006q-.323.227-.68.443a7.052 7.052 0 0 0 1.974.695l.919.185-.666.66a2.04 2.04 0 0 0-.451.641l-.168.394-.415-.105a8.022 8.022 0 0 1-2.985-1.407l.014.31-.437.074-1.612.271c-1.613.28-2.694.466-3.3.567l-.489.082-.286-1.624a7.827 7.827 0 0 1-.718 1.5Zm1.577-4.109a13.189 13.189 0 0 1-.452 1.833l.374-.046c.253-.031.592-.08 1.03-.149v-1.665h-.304c-.213 0-.43.009-.648.027Zm2.836-.027v1.375l.618-.1c.3-.047.571-.091.811-.13a7.272 7.272 0 0 1-.69-1.146Zm.689-1.824h1.547v-.316h-1.547Zm-3.292-.024c.246.016.5.024.751.024h.644v-.316h-.449c-.312 0-.617.012-.907.037h-.021c-.003.087-.011.171-.017.255Zm3.292-2.117h1.547v-.175h-1.547Zm-3.211-.032c.211.022.5.032.865.032h.449v-.175h-1.314v.106c.001.012.001.024.001.036Zm0-1.979h6.6v-.47h-6.6Zm-31.608 10.088-.269-.4a2.213 2.213 0 0 0-.589-.623l-.66-.435.676-.41a8.589 8.589 0 0 0 3.261-3.337 9.063 9.063 0 0 0 .9-3.047h-1.483c-.55 0-1.224.03-2 .089l-.306.023-.159-.262c-.082-.135-.111-.281-.111-.827s.033-.695.111-.824l.163-.271.315.032c.572.058 1.25.087 2.016.087h1.568V4.793c0-.321-.017-.7-.051-1.12l-.04-.506.5-.034a5.346 5.346 0 0 1 .861.014c.265.027.96.1.96.665v.146l-.078.123a1.033 1.033 0 0 0-.183.557v1.331h5.33l-.027.525q-.005.1-.011.205-.008.146-.015.3c-.148 2.664-.3 4.582-.459 5.706a5 5 0 0 1-.762 2.444 1.765 1.765 0 0 1-.647.51 2.56 2.56 0 0 1-.779.183h-.009c-.167.013-.369.02-.6.02-.4 0-.9-.02-1.5-.058l-.446-.029-.021-.446a1.358 1.358 0 0 0-.238-.722l-.6-.873 1.053.093c.664.059 1.323.088 1.958.088a.382.382 0 0 0 .233-.049l.006-.006c.023-.022.231-.256.422-1.568.14-.949.268-2.416.381-4.367h-3.358a11.2 11.2 0 0 1-1.04 3.9 10.134 10.134 0 0 1-3.863 4.1Zm.242-1.375.023.026a8.981 8.981 0 0 0 3.113-3.446 9.236 9.236 0 0 0 .745-2.227 9.359 9.359 0 0 1-.815 2.28 9.328 9.328 0 0 1-3.066 3.367Zm8.328-.222a1.085 1.085 0 0 1-.312.214.964.964 0 0 0 .152-.05.771.771 0 0 0 .279-.23l.013-.015a1.9 1.9 0 0 0 .3-.728 1.8 1.8 0 0 1-.434.809Zm-8.313-7.655v.06q.287-.018.552-.031-.287-.013-.552-.029Zm18.671 9.109-.154-.409a1.849 1.849 0 0 0-.163-.324 1.237 1.237 0 0 1-.122.141 1.768 1.768 0 0 1-1.165.454h-.016c-.169.006-.346.009-.526.009-.362 0-.768-.012-1.208-.035l-.447-.024-.026-.447a1.062 1.062 0 0 0-.2-.557l-.611-.882 1.068.1c.545.05 1.084.076 1.6.076a.989.989 0 0 0 .135-.008 1.767 1.767 0 0 0 .1-.356v-.007c.046-.205.092-.511.14-.913h-1.291l-.109.434-1.791-.319.144-.528a28.166 28.166 0 0 0 .6-2.862l.068-.42h2.488v-.332h-1.843c-.317.148-.651.286-1 .41l-.405.145-.2-.379a2.468 2.468 0 0 0-.431-.59l-.596-.586.8-.246a8.418 8.418 0 0 0 1.819-.805 8 8 0 0 0-.869-.612l-.54-.334.643-.638a2 2 0 0 1-.055-.595c0-.374 0-.67.257-.846l.156-.107.188.023a6.882 6.882 0 0 0 .8.035h2.543l.3-.068.19.1-.059-.132 1.706-.556.185.406a6.327 6.327 0 0 0 .611 1.065 14.275 14.275 0 0 0 1.162-1.108l.308-.325.357.27a3.1 3.1 0 0 1 .581.573.869.869 0 0 1 .241.776l.007-.007.3-.317.355.253a3.039 3.039 0 0 1 .591.556c.459.563.229.9.084 1.029a.733.733 0 0 1-.513.2.233.233 0 0 0-.049.034q-.252.215-.51.411a7.824 7.824 0 0 0 1.337.478l.892.23-.679.623a2.44 2.44 0 0 0-.484.633l-.078.142.168.047-.03.407a2.5 2.5 0 0 1-.211 1.067 1.236 1.236 0 0 1-.613.5l-.045.017.259.109-.159.445a6.151 6.151 0 0 1-1.271 2.126 8.143 8.143 0 0 0 1.83.469l1.032.145-.759.714a2.917 2.917 0 0 0-.467.668l-.176.312-.352-.067a8.484 8.484 0 0 1-2.721-.978 10.142 10.142 0 0 1-2.676.988Zm.342-3.681c-.076.8-.155 1.4-.239 1.831a9.117 9.117 0 0 0 1.472-.464 5.522 5.522 0 0 1-.874-1.282h-.032l-.177.015-.147-.1Zm2.448.062a3.648 3.648 0 0 0 .347.34 4.066 4.066 0 0 0 .33-.34Zm-5.3-1.309h1.332a.51.51 0 0 1-.241-.2h-1.054Zm4.134-.387h1.82a1.919 1.919 0 0 1-.316-1.28v-.66h-.737a3.111 3.111 0 0 1-.768 1.938Zm-1.779-3.7h.028a.533.533 0 0 1 .539.539v.069a5.506 5.506 0 0 0-.034.7v.988a1.5 1.5 0 0 0 .22-.82V7h1.906a8.7 8.7 0 0 1-1.617-2 7.5 7.5 0 0 1-1.549 2.046c.192-.006.352-.016.479-.03Zm4.06-1.231.13.1a10.759 10.759 0 0 0 .928-.784.8.8 0 0 1-.27.048.252.252 0 0 0-.051.035c-.228.205-.478.404-.737.598Zm-66.74 10.223a1.285 1.285 0 0 1-.851-.176l-.212-.172.03-.271a22.361 22.361 0 0 0 .1-2.356v-1.211c0-.389-.017-.778-.05-1.156v-.043a.546.546 0 0 1 .552-.552h.044c.377.033.778.05 1.191.05h2.5c.406 0 .812-.017 1.206-.05h.042a.546.546 0 0 1 .55.551v.043c-.033.38-.05.764-.05 1.143v1.185a22.363 22.363 0 0 0 .1 2.32l.014.129.006-.058c.067-.706.1-1.614.1-2.7v-2.602l-.07-.009a13.043 13.043 0 0 0-1.574-.074h-3.279c-.527 0-1.062.025-1.59.075l-.314.03-.162-.27a1.472 1.472 0 0 1-.11-.779 1.7 1.7 0 0 1 .089-.756l.149-.306.338.029q.483.038 1.067.062a5.219 5.219 0 0 0-.117-.48v-.009a7.373 7.373 0 0 0-.337-1.009l-.05-.111-.223.016-.275.021-.165-.22c-.11-.147-.138-.308-.138-.784 0-.443.017-.655.184-.822l.166-.164.233.019c.4.033.812.05 1.232.05h.774v-.2a5.764 5.764 0 0 0-.036-.669l-.062-.518.52-.04a4.359 4.359 0 0 1 .793.014h.005c.219.026.884.1.884.664v.149l-.084.131a.616.616 0 0 0-.123.34v.127h.8c.278 0 .7-.017 1.256-.051l.123-.007-.006-.065v-.048a.578.578 0 0 1 .6-.577h.055a17.508 17.508 0 0 0 1.819.081h1.805l.308-.078 1.223.8-.165.385c-.651 1.523-1.182 2.7-1.617 3.571a4.694 4.694 0 0 1 1.493 3.212v.01a2.339 2.339 0 0 1-.847 2.093 2.339 2.339 0 0 1-1.05.364 7.558 7.558 0 0 1-1.182.029l-.371-.014q.023.6.057 1.105l.017.256-.2.163c-.162.134-.383.179-.877.179-.509 0-.725-.043-.89-.178l-.199-.171v-.042l-.177.146c-.162.133-.383.179-.876.179-.36 0-.808 0-.959-.379l-.051-.129.022-.137q.008-.05.013-.1h-2.172c0 .065.009.127.018.19l.012.085-.017.084c-.096.463-.613.463-.962.463Zm6.2-1.013h.067q-.017-.322-.031-.675-.009.357-.031.675Zm-5.263-1.65h2.185v-1.373h-2.18Zm6.256-1.015.225.024a5.885 5.885 0 0 0 .915.024.931.931 0 0 0 .317-.071c.019-.021.112-.148.112-.591a3.547 3.547 0 0 0-1.473-2.511l-.094-.083v2.44q0 .395.003.768Zm0-6.509v2.732c.322-.68.714-1.6 1.169-2.731Zm-5.512 2.301h.613a17.354 17.354 0 0 0 .58-1.694h-1.625a7.241 7.241 0 0 1 .432 1.694Zm2.944-1.03-.005.013c-.015.035-.048.116-.1.258l-.061.159-.052.139c-.063.164-.122.312-.176.446.332-.012.662-.033.987-.064l.054-.005V6.514l-.235-.024-.1-.01a.535.535 0 0 1-.026.268l-.008.023a.653.653 0 0 1-.278.321Zm9.241 8.913-.134-.422a1.572 1.572 0 0 0-.37-.648l-.689-.684.958-.163a7.459 7.459 0 0 0 2.942-1 2.7 2.7 0 0 0 .872-1h-.962c-.554 0-1.107.025-1.643.075l-.312.029-.162-.27a1.466 1.466 0 0 1-.111-.775V11.1a.746.746 0 0 1-.63-.249l-.114-.154.018-.191c.033-.341.049-.7.049-1.074v-1.1a1.2 1.2 0 0 0-.292-.4l-.677-.618.887-.234a5.7 5.7 0 0 0 .741-.247l-1.278-.871.582-.416a2.626 2.626 0 0 0 .882-1.361l.163-.5.488.184a4.02 4.02 0 0 1 .549.253 1.53 1.53 0 0 1 .192.129q.025-.279.034-.614l.02-.479h1.82l-.022.521c-.016.394-.041.749-.075 1.067a5.864 5.864 0 0 0 .357-.629l.2-.417.432.161a3.593 3.593 0 0 1 .68.337 1.5 1.5 0 0 1 .318.249q.049-.125.091-.263l.155-.51.5.187a5.906 5.906 0 0 1 .555.24l.027.014a1.6 1.6 0 0 1 .175.116c.016-.18.029-.377.037-.591l.018-.481h1.876l-.024.523a13.278 13.278 0 0 1-.131 1.41 8.8 8.8 0 0 0 .65-1.007l.209-.373.4.149a3.522 3.522 0 0 1 .7.353.845.845 0 0 1 .465.584.525.525 0 0 1-.112.382.629.629 0 0 1-.379.228 2.388 2.388 0 0 0-.176.208l-.01.013-.1.134-.042.057-.022.025c-.242.278-.417.472-.542.6.5.338.9.622 1.2.851l.45.345-.411.416v.428l.372.315h-.372v.635c0 .366.017.727.05 1.074l.018.191-.114.154c-.179.242-.467.254-.921.254h-.025q0 .043-.01.089a27.734 27.734 0 0 1-.292 2.777v.006a2.719 2.719 0 0 1-.581 1.395 1.818 1.818 0 0 1-1.246.529h-.026c-.616.017-1.287 0-1.995-.039l-.426-.026-.041-.425a1.185 1.185 0 0 0-.221-.631l-.684-.879a4.19 4.19 0 0 1-.541.533 8.51 8.51 0 0 1-3.782 1.485Zm4.763-2.116 1.105.089c.623.05 1.243.076 1.843.076a1.031 1.031 0 0 0 .209-.017 7.071 7.071 0 0 0 .339-1.948h-2.554a5.02 5.02 0 0 1-.942 1.8Zm1.276-3.667h3.284c.006-.1.009-.223.009-.377v-.21h-3.237q-.028.326-.056.587Zm-4.4-.023c.31.015.666.023 1.065.023h1.332q.027-.285.047-.586h-2.448v.21c0 .144.003.261.008.355Zm5.916-2.4h1.232q-.33-.232-.711-.486a3.583 3.583 0 0 1-.517.487Zm-5.219 0h.985q-.248-.189-.557-.414a3.43 3.43 0 0 1-.424.415Zm2.196-1.377q.437.319.668.511.209-.063.395-.136l-.869-.587c-.074.087-.135.154-.186.2ZM33.5 16.004l-.135-.421a1.586 1.586 0 0 0-.37-.65l-.687-.684.955-.163a7.458 7.458 0 0 0 2.942-1 2.7 2.7 0 0 0 .872-1h-.961c-.555 0-1.108.025-1.644.075l-.312.029-.162-.268a1.466 1.466 0 0 1-.111-.775V11.1a.745.745 0 0 1-.629-.249l-.114-.154.018-.191c.033-.348.049-.709.049-1.075v-1.1a1.2 1.2 0 0 0-.292-.4l-.675-.618.885-.234a5.7 5.7 0 0 0 .74-.246l-1.277-.87.581-.416a2.624 2.624 0 0 0 .882-1.361l.163-.5.488.183a3.956 3.956 0 0 1 .549.253 1.543 1.543 0 0 1 .192.129q.025-.279.039-.614l.02-.479h1.82l-.022.521c-.016.394-.041.749-.074 1.067a5.805 5.805 0 0 0 .356-.624l.2-.418.432.161a3.6 3.6 0 0 1 .68.337 1.508 1.508 0 0 1 .318.25q.045-.13.087-.269l.156-.509.5.187a5.8 5.8 0 0 1 .555.24l.023.013a1.546 1.546 0 0 1 .177.118c.016-.18.029-.377.037-.592l.018-.481h1.875l-.023.522a13.313 13.313 0 0 1-.131 1.41 8.886 8.886 0 0 0 .647-1.007l.209-.373.4.149a3.528 3.528 0 0 1 .7.353.845.845 0 0 1 .466.584.525.525 0 0 1-.115.387.634.634 0 0 1-.377.223c-.02.02-.072.077-.176.208l-.136.178v.006l-.016.023-.018.021c-.235.271-.413.469-.542.6.5.338.9.623 1.2.852l.45.345-.41.416v.429l.371.314h-.371v.635c0 .366.017.727.05 1.074l.018.191-.114.154c-.179.242-.467.254-.922.254h-.025q0 .044-.01.088a27.442 27.442 0 0 1-.292 2.778v.006a2.712 2.712 0 0 1-.582 1.395 1.817 1.817 0 0 1-1.246.529h-.034c-.616.017-1.287 0-2-.039l-.426-.026-.041-.425a1.177 1.177 0 0 0-.221-.63l-.686-.878a4.19 4.19 0 0 1-.54.531 8.513 8.513 0 0 1-3.764 1.486Zm4.762-2.115 1.1.089c.624.05 1.245.076 1.845.076a1.032 1.032 0 0 0 .208-.017 7 7 0 0 0 .339-1.948h-2.551a5.013 5.013 0 0 1-.942 1.8Zm1.275-3.667h3.284c.006-.109.009-.234.009-.377v-.21h-3.236q-.029.327-.057.587Zm-4.4-.021c.31.015.666.023 1.065.023h1.335c.018-.189.033-.384.047-.586h-2.447v.563Zm5.916-2.4h1.237q-.33-.232-.712-.486a3.579 3.579 0 0 1-.52.485Zm-5.22 0h.985q-.248-.189-.557-.414a3.43 3.43 0 0 1-.424.413Zm2.198-1.379q.437.318.668.511.209-.063.395-.136l-.869-.586c-.074.088-.134.154-.185.2Zm116.827 9.56c-.439 0-.694-.032-.872-.209l-.174-.173.031-.244a13.489 13.489 0 0 0 .074-1.588v-.958c-.556.189-1.131.369-1.715.535l-.384.109-.192-.35a7.079 7.079 0 0 0-.461-.746l-.435-.6.719-.179a28.091 28.091 0 0 0 3.2-1h-.172c-.773 0-1.627.034-2.537.1l-.33.024-.151-.295a1.511 1.511 0 0 1-.094-.693 1.3 1.3 0 0 1 .113-.713l.163-.265.31.029c.268.025.556.045.863.059l-.082-.1a1.1 1.1 0 0 1-.145-.721 1.631 1.631 0 0 1 .067-.583h-.47V5.528a11.772 11.772 0 0 0-.062-1.322v-.058a.571.571 0 0 1 .565-.6h.054a22.845 22.845 0 0 0 2.351.1h7.727v1.893a11.735 11.735 0 0 0 .061 1.321v.06a.584.584 0 0 1-.293.532.679.679 0 0 1 .07.345.57.57 0 0 1-.184.379.734.734 0 0 1-.483.2.278.278 0 0 0-.028.024l-.019.018q-.255.225-.52.441h.085c.458 0 .979-.021 1.548-.063l.269-.02.164.213a1.144 1.144 0 0 1 .143.737 1.315 1.315 0 0 1-.112.7l-.163.269-.313-.03c-.521-.051-1.121-.08-1.788-.087l.221.143-.041.046c.106-.006.2-.014.275-.025h.07a.539.539 0 0 1 .552.539v.05c-.033.324-.049.654-.049.982v1.027c0 .755.029 1.433.088 2.014l.024.236-.168.168c-.179.179-.437.211-.912.211-.366 0-.862 0-.984-.413h-4.515c-.111.424-.619.424-.959.424Zm2.9-7.124h.493l.01-.006h-.5Zm-3.481 0h1.584v-.007h-1.124q-.217 0-.455.006Zm5.54-3.146h1.079v-.355h-1.079Zm-2.9 0h1.028v-.355h-1.028Zm-2.847 0h.963v-.355h-.963Z" fill="rgba(0,0,0,0)"/><path d="M25.514 12.97A12.531 12.531 0 1 1 12.98.453 12.524 12.524 0 0 1 25.514 12.97" fill="#fff"/><path d="M12.983 25.94a12.97 12.97 0 1 1 12.984-12.97 12.991 12.991 0 0 1-12.984 12.97m0-25.04a12.065 12.065 0 1 0 12.079 12.07A12.086 12.086 0 0 0 12.983.9" fill="#d1d1d0"/><path d="m4.436 6.492-.144.051a.354.354 0 0 0-.057-.245.779.779 0 0 1 .1-.053c.034-.015.052-.02.057-.014a.017.017 0 0 1 0 .017.047.047 0 0 0 .005.035.527.527 0 0 1 .026.066.348.348 0 0 1 .014.145m1.436.164a.35.35 0 0 0-.191-.07c.059-.06.117-.121.172-.184a.137.137 0 0 0 .038-.068q0-.055-.164-.232l-.266.306a.524.524 0 0 1 .087.358 1.361 1.361 0 0 1-.217.515.413.413 0 0 0-.1-.023.573.573 0 0 0-.111 0 1.4 1.4 0 0 0 .2-.4.377.377 0 0 0-.019-.26l-.285.327-.122-.106-.086.1-.251-.219.015-.017a.426.426 0 0 0-.137-.005.651.651 0 0 0 .08-.251.291.291 0 0 0-.048-.179 1.058 1.058 0 0 0-.155-.17l.13-.149a1.092 1.092 0 0 1 .2.228q.171-.065.281-.1v.188a2.277 2.277 0 0 0-.224.065.513.513 0 0 1-.042.266l.229-.263.231-.265a.394.394 0 0 0-.158 0 .64.64 0 0 0 .077-.239.3.3 0 0 0-.048-.176.989.989 0 0 0-.144-.163l.133-.152a1.07 1.07 0 0 1 .19.227q.237-.095.389-.14v.137l.054-.06.25.218-.1.118a.486.486 0 0 0 .047.043 3.048 3.048 0 0 1 .236.261.307.307 0 0 1 .074.153.269.269 0 0 1-.062.17c-.034.047-.095.116-.18.209m-1.1-.614-.124.068a1.191 1.191 0 0 0-.072-.21 1.4 1.4 0 0 1 .125-.069c.041-.019.062-.026.063-.02a.033.033 0 0 1 0 .016.042.042 0 0 0-.01.034v.066c0 .007.007.053.012.094a.113.113 0 0 0 0 .02m.187-.156-.145.055a.345.345 0 0 0-.059-.245c.036-.022.069-.041.1-.056s.054-.022.058-.016a.017.017 0 0 1 0 .018.041.041 0 0 0 .005.035.56.56 0 0 1 .028.068.308.308 0 0 1 .014.142m-.025.857.258-.3-.1-.106-.134.153-.133.152Zm.388-1.318-.129.071a.9.9 0 0 0-.068-.226 1.047 1.047 0 0 1 .129-.072c.043-.02.065-.027.065-.02a.026.026 0 0 1-.006.018.046.046 0 0 0-.009.035l.005.05v.02c0 .024.006.059.009.1a.132.132 0 0 0 0 .019m-.15.561.161-.185.162-.185c-.069.018-.161.048-.275.089a.587.587 0 0 1-.048.281m.178.28.177-.2.176-.2-.111-.1-.346.4.1.105M7.321 5.352a.562.562 0 0 0-.185-.026q-.4.364-.557.5l-.122-.118c.118-.1.216-.184.292-.247l-.06-.08-.132.1c-.031.023-.074.058-.129.1a.263.263 0 0 1-.051-.058.232.232 0 0 1-.041-.064c.045-.029.091-.06.136-.094l.132-.1-.039-.052-.258.194-.154-.205-.155-.207.258-.193-.039-.052-.149.112c-.033.025-.081.063-.144.116-.005 0-.022-.02-.052-.059a.256.256 0 0 1-.043-.066c.052-.033.1-.069.152-.105l.149-.112-.04-.053q-.139.119-.245.2a.524.524 0 0 0-.125-.082 6.105 6.105 0 0 0 .6-.553l.168.06c-.066.072-.147.152-.245.24l.049.065.289-.216.055.073.141-.106c-.043-.06-.113-.153-.208-.28l.172-.129q.144.191.207.281l.306-.23c.018.023.034.048.052.072q.31.435.413.6a.631.631 0 0 1 .115.256.205.205 0 0 1-.018.087.39.39 0 0 1-.049.069 1.545 1.545 0 0 1-.184.146.4.4 0 0 0-.167-.113c.059-.037.111-.073.157-.107a.078.078 0 0 0 .034-.061.463.463 0 0 0-.088-.195q-.095-.152-.33-.477l-.136.1a2.063 2.063 0 0 1 .273.535.89.89 0 0 1 0 .531m-1.063-.3.116-.088-.044-.059-.058.044-.058.044Zm.116.155.117-.088-.045-.06-.059.044-.058.044Zm.529.122c.059-.051.142-.123.248-.216a.823.823 0 0 0-.067-.342 1.953 1.953 0 0 0-.2-.354l-.137.1-.078-.1-.289.217.039.052.268-.2.155.207.154.205-.267.2.039.052.137-.1c.032-.024.076-.059.133-.108.005 0 .022.02.051.058a.218.218 0 0 1 .042.064q-.072.046-.141.1l-.137.1Zm-.365-.486.119-.089-.044-.059-.06.045-.059.044Zm.116.155.059-.044.06-.045-.052-.064-.118.089ZM7.749 3.572a.339.339 0 0 1-.045-.083.306.306 0 0 1-.033-.087c.053-.019.106-.041.158-.065l.157-.073-.031-.068c-.009-.018-.021-.042-.037-.071a1.27 1.27 0 0 1 .14-.063c.061-.023.094-.03.1-.022a.088.088 0 0 0 0 .072l.028.061.157-.073c.035-.016.086-.042.154-.078a.326.326 0 0 1 .044.081.357.357 0 0 1 .034.088q-.087.031-.209.087l-.206.094-.206.095q-.092.043-.2.1m.162.448a.411.411 0 0 1-.047-.088.318.318 0 0 1-.035-.089.848.848 0 0 0 .1-.041l.1-.045a.9.9 0 0 0-.162-.2l.142-.098a.717.717 0 0 1 .172.189l-.146.108.454-.209-.159.035a1.177 1.177 0 0 0-.036-.262.9.9 0 0 1 .16-.024c.055 0 .083 0 .084.017a.051.051 0 0 1-.012.033.115.115 0 0 0-.019.068v.125l.1-.046c.034-.016.066-.033.1-.051a.347.347 0 0 1 .045.084.394.394 0 0 1 .037.093 2.128 2.128 0 0 0-.224.093l-.22.1-.22.1a3.368 3.368 0 0 0-.216.11m.507.6a.4.4 0 0 1-.11.041 2.955 2.955 0 0 0-.122-.3l-.069-.147a1.299 1.299 0 0 0-.074-.144.007.007 0 0 1 0-.011 1.807 1.807 0 0 0 .18-.074l.176-.081.178-.082q.1-.048.173-.089a.007.007 0 0 1 .01 0c.018.051.038.1.06.149l.067.145a2.556 2.556 0 0 0 .149.285.443.443 0 0 1-.108.059c-.068.031-.1.044-.107.039l-.006-.012a.2.2 0 0 0-.009-.023l-.016-.035-.319.147.018.038a.168.168 0 0 0 .012.022l.007.015c0 .006-.03.023-.094.053m-.015-.284.158-.073.161-.074-.093-.2-.319.147Zm.854-.105a.48.48 0 0 1-.119.045A2.94 2.94 0 0 0 9 3.929l-.153-.332-.154-.334a3.054 3.054 0 0 0-.169-.324c0-.006 0-.012.012-.016.062-.022.144-.056.245-.1l.243-.112.026-.021.187.013q.014.356 0 .544a.531.531 0 0 1 .335.276.275.275 0 0 1 .012.268.323.323 0 0 1-.1.092 1.012 1.012 0 0 1-.135.066.415.415 0 0 0-.053-.082.375.375 0 0 0-.077-.073.972.972 0 0 0 .1-.041.241.241 0 0 0 .057-.041q.029-.041-.007-.121a.46.46 0 0 0-.317-.229c0-.076-.007-.206-.023-.39v-.055l-.208.1.325.7a4.3 4.3 0 0 0 .23.446.526.526 0 0 1-.117.063M9.929 2.69l-.145-.044a.355.355 0 0 0 .1-.231.779.779 0 0 1 .112.016c.036.008.054.016.054.023s0 .009-.011.012a.047.047 0 0 0-.017.031.4.4 0 0 1-.018.069.337.337 0 0 1-.074.124m1.054.986a.345.345 0 0 0-.112-.17c.084-.013.166-.028.247-.047a.139.139 0 0 0 .072-.032.554.554 0 0 0 .006-.284l-.4.088a.52.52 0 0 1-.143.339 1.364 1.364 0 0 1-.48.287.425.425 0 0 0-.068-.079.617.617 0 0 0-.087-.07 1.384 1.384 0 0 0 .395-.2.377.377 0 0 0 .14-.221l-.424.094-.035-.158-.127.028-.072-.324.022-.005a.417.417 0 0 0-.108-.086.646.646 0 0 0 .215-.147.288.288 0 0 0 .068-.173 1.059 1.059 0 0 0-.023-.229l.193-.042a1.071 1.071 0 0 1 .023.3c.118.033.213.063.284.089l-.114.151a2.215 2.215 0 0 0-.219-.081.514.514 0 0 1-.192.189l.341-.076.343-.076a.4.4 0 0 0-.125-.1.638.638 0 0 0 .2-.147.288.288 0 0 0 .066-.17.94.94 0 0 0-.019-.216l.2-.044a1.075 1.075 0 0 1 .018.295c.164.044.3.083.4.119l-.08.112.079-.018.072.325-.152.034c0 .011.005.032.012.062a3.149 3.149 0 0 1 .035.35.3.3 0 0 1-.032.167.271.271 0 0 1-.151.1c-.055.016-.145.037-.27.062m-.798-.485.383-.085c0-.035-.011-.084-.019-.147l-.2.044-.2.043Zm.286-.661-.14-.018a1.137 1.137 0 0 0 .067-.212 1.316 1.316 0 0 1 .142.019c.045.009.066.016.063.021a.031.031 0 0 1-.014.01.045.045 0 0 0-.029.022l-.016.029-.016.029c-.01.02-.026.047-.047.082a.1.1 0 0 0-.01.017m.243-.014-.149-.043a.347.347 0 0 0 .1-.232c.041 0 .079.008.114.014s.056.015.056.021a.018.018 0 0 1-.011.016.043.043 0 0 0-.017.031.537.537 0 0 1-.018.07.3.3 0 0 1-.073.123m.089.538.262-.058.262-.059-.032-.143-.514.114c.006.045.013.094.021.146m.023-.33.24-.053.24-.053c-.066-.026-.158-.057-.274-.091a.584.584 0 0 1-.206.2m.454-.362-.146-.019a.914.914 0 0 0 .081-.223 1.3 1.3 0 0 1 .146.02c.047.01.068.018.064.023a.025.025 0 0 1-.016.011.045.045 0 0 0-.028.023l-.026.043a.157.157 0 0 0-.009.018l-.056.089-.01.016M12.945 3.48a.573.573 0 0 0-.133-.131q-.541.052-.745.068l-.028-.17.382-.025v-.1h-.165c-.039 0-.094 0-.165.007a.205.205 0 0 1-.006-.077.218.218 0 0 1 .005-.077c.054 0 .109.006.165.006h.165v-.062h-.32v-.515h.323v-.065h-.186q-.062 0-.184.007a.24.24 0 0 1-.006-.078.231.231 0 0 1 .006-.078c.061 0 .123.006.184.006h.186v-.068c-.122.008-.228.013-.317.014a.5.5 0 0 0-.051-.139 6.152 6.152 0 0 0 .813-.085l.1.148c-.1.018-.209.033-.34.046v.082h.361v.092h.177v-.349h.215v.349h.382v.089q-.012.534-.028.728a.626.626 0 0 1-.061.274.188.188 0 0 1-.067.059.314.314 0 0 1-.08.026 1.517 1.517 0 0 1-.235.007.4.4 0 0 0-.066-.19c.069.006.132.008.19.008a.077.077 0 0 0 .063-.028.455.455 0 0 0 .046-.209c.01-.119.017-.312.021-.58h-.169a2.082 2.082 0 0 1-.1.591.887.887 0 0 1-.321.423m-.671-.878h.146v-.077h-.146Zm0 .193h.146V2.72h-.146Zm.351.413c.078 0 .188-.013.329-.024a.821.821 0 0 0 .15-.314 1.918 1.918 0 0 0 .051-.4h-.171v-.137h-.361v.065h.335v.515h-.334v.065h.165q.059 0 .171-.007a.235.235 0 0 1 .006.077.252.252 0 0 1-.005.077c-.056 0-.113-.006-.171-.006h-.171Zm0-.608h.148v-.077h-.148Zm0 .193h.148v-.078h-.148ZM14.231 3.535a.5.5 0 0 0-.06-.1.694.694 0 0 0-.079-.095 1.121 1.121 0 0 0 .548-.3 1.035 1.035 0 0 0 .236-.413l-.279-.057a4.0555 4.0555 0 0 0-.279-.047.531.531 0 0 1 .018-.112.473.473 0 0 1 .028-.108c.069.021.162.044.28.067l.283.058.034-.169a1.472 1.472 0 0 0 .027-.177c.056.009.116.022.176.038s.111.034.109.044a.31.31 0 0 0-.077.147l-.034.164.373.075.374.077c-.007.03-.016.061-.024.092q-.13.49-.2.69a.557.557 0 0 1-.153.259.248.248 0 0 1-.1.048.353.353 0 0 1-.115.012 2.022 2.022 0 0 1-.295-.057.439.439 0 0 0 0-.106.416.416 0 0 0-.033-.11c.076.021.166.043.272.064a.131.131 0 0 0 .092-.009 1.876 1.876 0 0 0 .274-.726l-.51-.107a1.278 1.278 0 0 1-.262.495 1.232 1.232 0 0 1-.62.363M16.244 4.01a.319.319 0 0 0 .007-.179c.069.037.138.07.206.1a.122.122 0 0 0 .069.014c.028-.008.073-.064.133-.168l-.224-.1-.027.032-.153-.095a3.148 3.148 0 0 0 .256-.338l.318.14.047-.107-.284-.123v-.011c-.041 0-.088 0-.141-.009a.768.768 0 0 0-.051-.181 1.281 1.281 0 0 0 .338.01c-.034-.051-.073-.1-.118-.161l.158-.045a1.4 1.4 0 0 1 .139.176.762.762 0 0 0 .143-.054l-.168-.075a4.9296 4.9296 0 0 0-.172-.068.275.275 0 0 1 .029-.08.239.239 0 0 1 .043-.072 1.084 1.084 0 0 0 .11.054l.112.05.225.1.038.008.1.11a1 1 0 0 1-.481.219l.22.1-.136.308a.274.274 0 0 0 .15-.055.263.263 0 0 0 .068-.1l.047-.109.342.15a1.169 1.169 0 0 1-.179-.571l.182.031a.832.832 0 0 0 .035.192 1.42 1.42 0 0 0 .221-.068.607.607 0 0 1 .065.126c.016.043.016.066 0 .068a.047.047 0 0 1-.033 0 .109.109 0 0 0-.066 0l-.107.021h-.027c.022.042.043.079.063.11a1.489 1.489 0 0 0 .255-.074.628.628 0 0 1 .066.123c.017.043.02.066.007.069a.062.062 0 0 1-.032 0 .119.119 0 0 0-.064 0c-.058.011-.1.019-.127.022a1.345 1.345 0 0 0 .206.185.786.786 0 0 0-.186.09 1.684 1.684 0 0 1-.163-.158l-.062.141a.118.118 0 0 0-.013.038.033.033 0 0 0 .017.015l.03.013a.1.1 0 0 0 .022.008.033.033 0 0 0 .026-.012.592.592 0 0 0 .037-.066.46.46 0 0 0 .113.13l-.011.015a.276.276 0 0 1-.056.072.115.115 0 0 1-.084.014.283.283 0 0 1-.088-.026l-.088-.039a.179.179 0 0 1-.1-.083.112.112 0 0 1-.01-.061.4.4 0 0 1 .032-.1l.039-.088-.149-.072a.38.38 0 0 1-.323.218.648.648 0 0 0-.063-.147l-.015.034a.077.077 0 0 0-.007.02l-.006.014a.3.3 0 0 1-.094-.034.3.3 0 0 1-.088-.047V3.56l-.17-.085c-.026.037-.047.066-.066.088l.382.168-.032.062a2.273 2.273 0 0 1-.14.234.234.234 0 0 1-.105.091.236.236 0 0 1-.16-.008c-.05-.018-.126-.051-.229-.1m.51.234a.534.534 0 0 0-.028-.169 1.425 1.425 0 0 0 .33.052.767.767 0 0 1-.067-.234l.125.022-.083-.037-.084-.033a.193.193 0 0 1 .023-.066c.018-.041.029-.062.034-.063.043.023.087.046.134.066l.139.061.278.122.034.009.1.081a.713.713 0 0 1-.323.2 1.422 1.422 0 0 0 .272.2.622.622 0 0 0-.184.094 1.3 1.3 0 0 1-.29-.26 1.517 1.517 0 0 1-.4-.045m.485-.133a.54.54 0 0 0 .172-.065l-.125-.055-.123-.054a.564.564 0 0 0 .077.174M17.99 4.864a.671.671 0 0 0-.044-.1.7.7 0 0 0-.056-.1 1.048 1.048 0 0 0 .4-.262 2.744 2.744 0 0 0 .29-.348l.145-.2a2.072 2.072 0 0 0 .135-.205c.005-.008.011-.009.017 0q.109.1.285.223l.294.213.294.213c.118.086.219.153.3.2.006 0 .006.01 0 .018a1.639 1.639 0 0 0-.141.175l-.134.184-.207-.15-.065.089.11.08c.038.027.075.052.113.075a.288.288 0 0 1-.047.074.31.31 0 0 1-.056.068 1.78 1.78 0 0 0-.106-.083l-.111-.08-.067.092.143.1c.033.024.082.056.147.1a.313.313 0 0 1-.048.076.3.3 0 0 1-.057.069.607.607 0 0 0-.076-.062l-.081-.059.062.144a2.214 2.214 0 0 1-.276-.037 1.157 1.157 0 0 0 .207.28.586.586 0 0 0-.2.055 1 1 0 0 1-.256-.5l-.073.114c-.09-.046-.223-.118-.4-.216l-.222-.12.081-.164.167.1.15-.207-.079-.057-.08-.053a.289.289 0 0 1 .047-.074c.033-.045.051-.068.056-.068.026.023.064.052.113.089l.117.085.067-.092-.1-.07a1.112 1.112 0 0 0-.1-.065.282.282 0 0 1 .047-.074c.033-.045.051-.068.056-.067a.938.938 0 0 0 .093.073l.1.07.065-.089-.223-.16-.023.032a1.725 1.725 0 0 1-.772.675m.646.156.07.038.061.034c.028.017.073.041.132.072a.908.908 0 0 1 .007-.236l-.133-.1Zm.249-1 .806.584.069-.095-.4-.292-.4-.292Zm.062.733.227.164.067-.092-.113-.082-.114-.082Zm.148.453a2.092 2.092 0 0 0 .222.021l-.12-.087-.119-.087a.683.683 0 0 0 .017.152m.016-.679.228.164.064-.089-.113-.082-.113-.082ZM19.809 6.358a.384.384 0 0 1-.075-.1 1.806 1.806 0 0 0 .153-.125l.146-.131a4.1358 4.1358 0 0 1-.261-.171.7.7 0 0 0 .03-.091.676.676 0 0 0 .02-.1 4.315 4.315 0 0 0 .665.417l-.235-.262q-.111-.122-.244-.25a.619.619 0 0 1 .125-.105c.052.07.117.147.193.232l.2.226.059-.054-.15-.167c-.045-.051-.1-.1-.155-.16 0-.006.019-.024.054-.056a.261.261 0 0 1 .061-.047c.037.049.085.106.143.172l.15.167.049-.043-.333-.37.144-.13a1.6 1.6 0 0 0 .138-.137c.006-.006.012-.006.016 0q.086.116.232.277l.243.27.485.54-.144.13a1.6 1.6 0 0 0-.138.137c-.006.006-.012.006-.016 0a3.8348 3.8348 0 0 0-.236-.281l-.245-.272-.049.044.278.308-.062.056a1.528 1.528 0 0 0 .216.036.7.7 0 0 1 .016.147c0 .048-.007.072-.019.069a.045.045 0 0 1-.028-.016.1.1 0 0 0-.064-.028l-.144-.033.106.117c.023.026.059.063.109.111 0 .005-.018.024-.054.056a.25.25 0 0 1-.063.049 2.5495 2.5495 0 0 0-.146-.174l-.148-.176a1.079 1.079 0 0 1 .093.216l-.083-.01.083.093-.208.188a2.525 2.525 0 0 0-.2.2.473.473 0 0 1-.092-.09c-.054-.06-.078-.091-.074-.1l.011-.008.015-.013-.459-.51-.015.014-.007.007-.004.013q-.008 0-.082-.078m.209-.038.459.509.052-.047-.23-.255-.229-.254Zm.135-.127.229.254.23.256.052-.047-.459-.509Zm.327.053.133.147.132.147a1.745 1.745 0 0 0-.082-.172l.115.013-.014-.016a3.059 3.059 0 0 1-.283-.12m.169-.846.065.073.067.074.085-.076-.132-.147Zm.026.655.129.143a1.539 1.539 0 0 0 .153.05l-.112-.124-.111-.123Zm.243-.356.137.151.084-.076-.068-.076-.068-.075Zm.273.3.138.154.084-.076-.069-.077-.069-.077ZM4.097 8.709l-.9-.633.11-.228 1.3.358-.087.181-.991-.292.844.6-.113.235-1-.282.845.593-.084.175-1.089-.788.111-.231ZM3.881 9.899c-.077.229-.339.375-.787.224s-.57-.425-.493-.655.339-.375.786-.224.57.425.494.655m-1.1-.371c-.043.128.046.272.388.387s.5.053.542-.074-.045-.272-.388-.387-.5-.054-.542.074M3.681 10.484l-.08.356a.311.311 0 0 1-.413.263.29.29 0 0 1-.253-.289h-.007c-.017.041-.049.083-.177.092l-.521.038.049-.222.442-.018a.155.155 0 0 0 .169-.128l.01-.047-.551-.126.047-.209Zm-.624.167a.179.179 0 0 0 .153.231c.147.033.2-.027.225-.145l.018-.085-.378-.086ZM3.482 11.417l-.026.212-.554-.07.515.4-.03.243-.568-.469-.743.336.031-.256.656-.27-.614-.078.026-.212ZM3.383 12.359l-.02.59-.193-.008.012-.376-.359-.014-.012.36-.193-.007.012-.359-.575-.022.007-.214ZM3.402 13.523c.013.243-.179.476-.654.5s-.691-.183-.7-.426.179-.476.653-.5.691.183.7.425m-1.173.068c.007.135.144.237.507.216s.488-.137.48-.272-.144-.237-.507-.216-.487.137-.48.273M3.436 14.149l.056.36a.314.314 0 0 1-.291.4.289.289 0 0 1-.342-.175h-.008c0 .044-.016.1-.132.151l-.475.228-.035-.225.408-.18a.155.155 0 0 0 .112-.181l-.007-.048-.562.087-.033-.212Zm-.523.386a.178.178 0 0 0 .228.158c.149-.023.176-.1.158-.217l-.014-.086-.386.06ZM2.527 16.11a.586.586 0 0 1-.108-.233c-.089-.343.147-.592.519-.689s.7.007.785.343a.662.662 0 0 1 .012.264l-.212.043a.411.411 0 0 0 .014-.231c-.045-.172-.214-.284-.543-.2s-.422.266-.378.438a.332.332 0 0 0 .121.2ZM3.842 15.97l.207.574-.178.066-.134-.373-.332.118.127.353-.182.065-.127-.353-.367.131.14.389-.182.065-.216-.595ZM4.307 17.132l.142.268c.171.321.064.6-.323.8s-.693.1-.845-.181l-.142-.268Zm-.9.723.034.063c.113.212.327.22.583.085s.369-.319.256-.531l-.034-.063ZM4.806 18.04l.34.506-.159.108-.222-.33-.291.2.209.312-.159.107-.209-.311-.322.217.231.343-.159.108-.35-.52ZM5.216 18.657l.146.178-.644.817.945-.448.14.17-1.253.549-.143-.174ZM5.881 19.452l.427.44-.139.134-.278-.287-.254.243.263.271-.139.134-.263-.271-.281.269.29.3-.139.133-.439-.452ZM6.446 20.027l.161.142-.737.845.289.255-.126.145-.449-.4ZM7.386 20.758c.2.142.26.437-.019.821s-.58.417-.778.275-.259-.438.019-.82.58-.417.777-.275m-.688.946c.111.079.276.038.489-.255s.2-.462.09-.541-.276-.038-.489.255-.2.462-.09.542M7.895 21.129l.291.167a.401.401 0 0 1-.4.695l-.1-.06-.258.446-.186-.107Zm-.053.681c.116.067.2.032.276-.092s.057-.216-.06-.282l-.07-.04-.217.374ZM9.381 22.124l-.712.886-.139-.061.189-1.117-.445 1-.177-.078.533-1.2.291.128-.178 1 .622-.8.283.124-.533 1.2-.178-.078ZM9.876 22.069l.587.18-.058.183-.382-.117-.1.334.361.111-.058.183-.361-.111-.116.37.4.122-.058.184-.6-.185ZM10.657 22.301l.249.05.18 1.091.2-1.016.19.038-.254 1.293-.25-.05-.18-1.084-.2 1.008-.19-.038ZM11.842 22.707l-.258-.028.02-.191.726.08-.02.191-.257-.028-.119 1.115-.212-.023ZM13.454 23.569l-.4.009-.075.319h-.214l.354-1.327.234-.005.414 1.31h-.221Zm-.048-.184-.165-.613-.143.619ZM14.363 23.06l.374-.049.086.683a.631.631 0 0 1-.3.108c-.371.049-.6-.209-.652-.6s.112-.7.483-.746a.678.678 0 0 1 .288.019l.016.217a.476.476 0 0 0-.276-.045c-.225.03-.32.255-.285.526.037.294.178.466.4.437a.308.308 0 0 0 .119-.041l-.045-.352-.175.023ZM14.876 22.397l.6-.139.043.187-.391.091.077.341.37-.086.042.187-.369.086.086.378.407-.095.043.187-.617.143ZM15.675 22.21l.24-.08.7.853-.329-.976.183-.061.419 1.243-.242.081-.692-.847.326.968-.184.061ZM17.892 22.714a.568.568 0 0 1-.208.147c-.32.146-.606-.044-.765-.392s-.116-.688.2-.832a.669.669 0 0 1 .257-.057l.08.2a.408.408 0 0 0-.229.027c-.16.073-.241.259-.1.568s.335.369.5.3a.328.328 0 0 0 .163-.161ZM18.101 22.024l-.695-.512.2-.115.462.342-.077-.563.2-.115.1.86.262.453-.186.107ZM18.859 21.897l.146.461-.135.087-.18-.439ZM19.657 20.195l.5 1.026-.116.1-.932-.653.719.835-.147.126-.864-1 .243-.208.828.59-.458-.908.236-.2.863 1-.148.126ZM19.806 19.739l.149-.153.952.913-.149.153ZM20.14 19.401l.161-.2 1.042.358-.8-.657.122-.149 1.015.836-.161.2-1.035-.355.792.652-.123.149ZM20.801 18.564l.1235-.1748 1.0784.7616-.1235.1748zM21.976 18.734a.44.44 0 0 0 .2-.17.174.174 0 0 0-.073-.251c-.081-.049-.142-.029-.25.027l-.113.057a.375.375 0 0 1-.394-.016.349.349 0 0 1-.119-.5.68.68 0 0 1 .165-.185l.168.114a.5.5 0 0 0-.161.159.148.148 0 0 0 .049.22.2.2 0 0 0 .216-.014l.132-.066a.361.361 0 0 1 .407.01.367.367 0 0 1 .14.542.478.478 0 0 1-.186.2ZM21.746 17.392l-.116.232-.173-.085.328-.654.172.085-.115.231 1.008.5-.1.191ZM21.829 16.768l.131-.341a.314.314 0 0 1 .449-.2.287.287 0 0 1 .208.322h.005c.023-.038.062-.075.189-.066l.524.037-.081.212-.442-.045a.155.155 0 0 0-.187.1l-.018.045.529.2-.077.2Zm.644-.077a.177.177 0 0 0-.118-.25c-.141-.053-.2 0-.245.111l-.031.081.364.139ZM22.95 15.978l-.858.109.065-.22.572-.07-.447-.352.065-.221.668.551.5.147-.06.2ZM22.497 14.246c.032-.239.263-.432.733-.369s.643.312.612.551-.263.432-.733.368-.644-.311-.612-.55m1.161.158c.018-.134-.1-.259-.457-.308s-.5.041-.521.175.1.259.457.308.5-.041.521-.175M22.582 13.6l.02-.59.193.008-.012.376.359.014.012-.36.193.007-.012.359.575.022-.005.213ZM22.595 12.384l-.019-.214 1.117-.1-.034-.384.191-.017.052.6ZM23.404 10.882l.07.4.326.027.037.209-1.363-.157-.041-.229 1.229-.6.038.216Zm-.174.076-.579.251.633.05ZM22.33 10.654l-.092-.326c-.066-.23 0-.363.217-.423a.291.291 0 0 1 .346.1.287.287 0 0 1 .244-.3.343.343 0 0 1 .455.248l.1.341Zm.475-.346-.031-.106a.176.176 0 0 0-.235-.107.162.162 0 0 0-.124.213l.028.1Zm.56-.157-.032-.113a.177.177 0 0 0-.243-.117.175.175 0 0 0-.144.232l.03.108ZM21.904 9.406c-.09-.224.016-.506.454-.684s.709-.049.8.175-.017.506-.455.684-.709.049-.8-.175m1.082-.439c-.05-.126-.211-.177-.546-.041s-.416.285-.365.41.211.177.546.041.416-.285.365-.41M21.663 8.804l-.171-.321a.309.309 0 0 1 .145-.466.29.29 0 0 1 .38.055h.005c-.014-.042-.016-.095.075-.184l.374-.366.106.2-.326.3a.153.153 0 0 0-.046.206l.023.043.5-.262.1.188Zm.368-.53a.179.179 0 0 0-.266-.075.159.159 0 0 0-.078.255l.041.077.345-.18Z" fill="#474746"/><g clip-path="url(#b)" transform="translate(4.494 4.489)" style="mix-blend-mode:multiply;isolation:isolate"><path d="M16.983 8.481a8.49 8.49 0 1 1-8.49-8.48 8.485 8.485 0 0 1 8.49 8.48" fill="#ffb900"/></g><path fill="none" d="M0 0h163.138v25.94H0z"/><g clip-path="url(#c)" transform="translate(4.494 4.49)"><path d="M7.62 16.917a8.615 8.615 0 0 0 .87.044 8.483 8.483 0 0 0 7.657-4.835L11.941.737a8.465 8.465 0 0 0-9.594 1.9Z" fill="#86c9cf"/><path d="M8.49 16.961a8.476 8.476 0 0 0 4.832-15.449 13.8 13.8 0 0 1-1.6 4.546c-3.011 5.6-3.631 9.054-3.665 10.881.145.007.289.022.436.022" fill="#86c9cf"/><path d="M8.49 16.961a8.483 8.483 0 0 0 7.659-4.835l-3.251-8.8a16.072 16.072 0 0 1-1.177 2.736c-3.011 5.6-3.63 9.054-3.665 10.881.145.007.289.022.436.022" fill="#59b5ad"/><path d="M11.002.382a8.482 8.482 0 0 0-5.868 15.892Z" fill="#dddddc"/><path d="M.797 6.057c-.1-.187-.167-.352-.256-.531a8.443 8.443 0 0 0 3.843 10.376c-.23-1.986-1.07-5.16-3.589-9.845" fill="#e85620"/></g><g clip-path="url(#a)" fill="#fff"><path d="M6.513 17.394h4.054s4.766-5.543 6.356-10.9a28.339 28.339 0 0 1-7.236 4.924 20.165 20.165 0 0 0 3.181-.157 41 41 0 0 1-6.355 6.133"/><path d="M6.982 12.376v.008c.611-.771 2.573-.717 4.52.2.063.029.122.06.184.09q.251-.272.482-.54c-2.419-.946-4.658-.871-5.182.246"/><path d="M16.781 16.454c-.072-1.573-1.732-2.756-2.961-3.525-2.316-1.462-6.213-2.095-6.841-.546 1.033-1.277 4.788-.068 6.339 1.318 2.417 1.974.641 3.972-2.075 2.864-.114.145-.216.273-.305.382a8.159 8.159 0 0 0 1.8.752v.006a6.277 6.277 0 0 0 1.449.235c1.022.046 2.511-.259 2.6-1.486"/></g></g></svg>