<svg xmlns="http://www.w3.org/2000/svg" width="141.522" height="141.521"><path d="M139.111 70.722a68.4 68.4 0 1 1-68.4-68.4 68.4 68.4 0 0 1 68.4 68.4" fill="#fff"/><path d="M70.711 141.522a70.761 70.761 0 1 1 .1 0" fill="#d1d1d0"/><path d="M70.711 4.822a65.95 65.95 0 1 1-.1 0" fill="#fff"/><path d="m24.011 35.322-.8.2a2.009 2.009 0 0 0-.3-1.3 4.152 4.152 0 0 1 .6-.3h.3a.3.3 0 0 0 0 .2 2.917 2.917 0 0 1 .1.4 1.908 1.908 0 0 1 .1.8m7.9.9a2.012 2.012 0 0 0-1-.4l.8-1a.708.708 0 0 0 .2-.4 3.351 3.351 0 0 0-.8-1.3l-1.5 1.7a2.905 2.905 0 0 1 .5 2 7.417 7.417 0 0 1-1.2 2.8 2.31 2.31 0 0 0-.6-.1 3.163 3.163 0 0 0-.6 0 7.706 7.706 0 0 0 1.1-2.2 2.005 2.005 0 0 0 0-1.5l-1.6 1.8-.7-.6-.5.6-1.4-1.2.1-.1a2.415 2.415 0 0 0-.7 0 3.609 3.609 0 0 0 .4-1.4 1.609 1.609 0 0 0-.2-1 5.847 5.847 0 0 0-.9-.9l.7-.8a6.028 6.028 0 0 1 1.1 1.2l1.6-.5v1a11.98 11.98 0 0 0-1.3.4 2.8 2.8 0 0 1-.2 1.5l1.2-1.5 1.3-1.4a2.2 2.2 0 0 0-.9 0 3.5 3.5 0 0 0 .5-1.3 1.606 1.606 0 0 0-.3-1 5.438 5.438 0 0 0-.8-.9l.7-.8a5.842 5.842 0 0 1 1 1.2l2.2-.8v.8l.3-.3 1.4 1.2-.6.6.3.2a17.023 17.023 0 0 1 1.3 1.5 1.709 1.709 0 0 1 .4.8 1.5 1.5 0 0 1-.4 1l-1 1m-6-3.3-.6.4a6.5 6.5 0 0 0-.4-1.2 7.216 7.216 0 0 1 .7-.3l.3-.1a.2.2 0 0 0 0 .2v.9a.558.558 0 0 0 0 .1m1-.8-.7.3a1.908 1.908 0 0 0-.4-1.4l.6-.3h.3a.2.2 0 0 0 0 .2 3.114 3.114 0 0 1 .2.4 1.717 1.717 0 0 1 0 .8m0 4.7 1.3-1.7-.5-.5-.8.8-.7.8Zm2-7.2-.7.3a5.014 5.014 0 0 0-.3-1.2 5.5 5.5 0 0 1 .7-.4h.3a.3.3 0 0 0 0 .2v1m-.8 3.1.9-1 .9-1-1.5.5a3.218 3.218 0 0 1-.3 1.5m1 1.5 1-1 1-1.2-.7-.5-1.9 2.2.6.5m10.8-5a3.016 3.016 0 0 0-1-.1l-3.1 2.7-.7-.6 1.6-1.4-.3-.4-.7.5-.7.6a1.376 1.376 0 0 1-.3-.3 1.286 1.286 0 0 1-.2-.4l.7-.5.7-.5-.2-.3-1.4 1-.8-1-.9-1.2 1.4-1-.2-.3-.8.6-.8.6-.3-.3a1.377 1.377 0 0 1-.2-.4l.8-.6.9-.6-.3-.3-1.3 1.1a2.932 2.932 0 0 0-.7-.4 33.241 33.241 0 0 0 3.3-3l1 .3-1.4 1.3.2.4 1.6-1.2.3.4.8-.6-1.1-1.5.9-.7 1.1 1.5 1.7-1.2.3.4 2.1 3.2a3.51 3.51 0 0 1 .7 1.4 1 1 0 0 1-.1.5 1.989 1.989 0 0 1-.3.4 8.444 8.444 0 0 1-1 .8 2.213 2.213 0 0 0-1-.6l1-.6a.4.4 0 0 0 .1-.3 2.612 2.612 0 0 0-.5-1.1l-1.8-2.6-.7.5a11.318 11.318 0 0 1 1.5 3 4.91 4.91 0 0 1 0 2.9m-5.8-1.7.6-.5-.2-.3-.4.2-.3.3Zm.6.9.6-.5-.2-.4-.3.3-.4.2Zm2.9.6 1.4-1.1a4.515 4.515 0 0 0-.3-1.8 10.8 10.8 0 0 0-1.1-2l-.8.6-.4-.6-1.6 1.2.2.3 1.5-1.1.8 1.1.9 1.1-1.5 1.1.2.3.8-.5.7-.6.3.3a1.213 1.213 0 0 1 .2.4l-.8.5-.7.5Zm-2-2.6.6-.5-.2-.3-.3.2-.4.2Zm.6.8.3-.2.4-.3-.3-.3-.6.5Zm6.1-7.8a1.828 1.828 0 0 1-.3-.4 1.582 1.582 0 0 1-.1-.5l.8-.4.9-.4-.2-.3-.2-.4a7.369 7.369 0 0 1 .8-.4h.5a.5.5 0 0 0 0 .3l.2.3.8-.4.9-.4a1.734 1.734 0 0 1 .2.5 1.914 1.914 0 0 1 .2.4l-1.1.5-1.2.5-1 .6-1.2.5m.9 2.5a2.167 2.167 0 0 1-.3-.5 1.679 1.679 0 0 1-.2-.5 4.586 4.586 0 0 0 .6-.2l.5-.3a4.839 4.839 0 0 0-.9-1l.9-.6a3.919 3.919 0 0 1 .9 1l-.8.6 2.5-1.2-.9.2a6.557 6.557 0 0 0-.2-1.4 4.942 4.942 0 0 1 .9-.1h.4a.311.311 0 0 1 0 .2.6.6 0 0 0-.1.4v.7l.5-.2.5-.3a2.02 2.02 0 0 1 .3.4 2.253 2.253 0 0 1 .2.5 12.094 12.094 0 0 0-1.2.6l-1.2.5-1.2.6-1.2.6m2.7 3.2a2.22 2.22 0 0 1-.6.3 16.476 16.476 0 0 0-.6-1.7l-.4-.8-.4-.8a9.787 9.787 0 0 0 1-.4l1-.5 1-.4.9-.5.4.8.3.8a13.884 13.884 0 0 0 .8 1.6 2.373 2.373 0 0 1-.6.3l-.5.2a1.384 1.384 0 0 0-.1-.2l-.1-.2-1.7.8v.2a.83.83 0 0 0 .1.2.739.739 0 0 1-.5.3m0-1.5.8-.4 1-.4-.6-1.1-1.7.8Zm4.6-.6a2.612 2.612 0 0 1-.6.2 16.715 16.715 0 0 0-.8-1.8l-.8-1.8-.8-1.8a17.273 17.273 0 0 0-1-1.8l.1-.1 1.3-.6 1.4-.6h1.1v3a2.9 2.9 0 0 1 1.9 1.5 1.5 1.5 0 0 1 0 1.4 1.714 1.714 0 0 1-.5.5 5.329 5.329 0 0 1-.7.4 2.264 2.264 0 0 0-.3-.5 2.032 2.032 0 0 0-.5-.4 5.554 5.554 0 0 0 .6-.2 1.33 1.33 0 0 0 .3-.2v-.7a2.5 2.5 0 0 0-1.8-1.2l-.1-2.1v-.3l-1.2.5 1.8 3.8a23.037 23.037 0 0 0 1.3 2.5 2.907 2.907 0 0 1-.7.3m3.7-8.4-.8-.2a2 2 0 0 0 .5-1.3 4.3 4.3 0 0 1 .7 0l.3.2h-.1a.3.3 0 0 0 0 .2 2.331 2.331 0 0 1-.2.4 1.807 1.807 0 0 1-.4.7m5.8 5.4a1.91 1.91 0 0 0-.6-1l1.3-.2a.8.8 0 0 0 .4-.2 3 3 0 0 0 0-1.5l-2.1.4a2.8 2.8 0 0 1-.8 1.9 7.419 7.419 0 0 1-2.6 1.6 2.326 2.326 0 0 0-.4-.5 3.523 3.523 0 0 0-.5-.3 7.6 7.6 0 0 0 2.2-1.1 2 2 0 0 0 .7-1.3l-2.3.6-.2-.9-.7.2-.4-1.8h.2a2.325 2.325 0 0 0-.6-.5 3.5 3.5 0 0 0 1.1-.8 1.6 1.6 0 0 0 .4-1 5.9 5.9 0 0 0-.1-1.2l1-.2a6.04 6.04 0 0 1 .2 1.6l1.5.5-.6.8a11.555 11.555 0 0 0-1.2-.4 2.8 2.8 0 0 1-1 1l1.8-.4 1.9-.4a2.119 2.119 0 0 0-.7-.5 3.505 3.505 0 0 0 1.1-.9 1.606 1.606 0 0 0 .4-.9 5.146 5.146 0 0 0-.1-1.2l1-.2a6.04 6.04 0 0 1 .2 1.6l2.1.7-.4.6.4-.1.4 1.7-.8.2v.4a17.563 17.563 0 0 1 .2 1.9 1.707 1.707 0 0 1-.1.9 1.5 1.5 0 0 1-.9.5l-1.4.4m-4.4-2.7 2-.4v-.8l-1.1.2-1.1.2Zm1.5-3.6h-.7a6.354 6.354 0 0 0 .3-1.2 7.124 7.124 0 0 1 .8 0c.2.1.4.1.3.2a.2.2 0 0 0-.2.1v.2l-.2.2-.2.4a.558.558 0 0 0 0 .1m1.2 0-.8-.3a2 2 0 0 0 .6-1.3l.6.1.3.1a.1.1 0 0 1 0 .1.2.2 0 0 0-.2.2 3.338 3.338 0 0 1 0 .4 1.709 1.709 0 0 1-.5.6m.5 3 1.5-.4 1.4-.3-.2-.8-2.8.7.1.8m.1-1.8 1.4-.3 1.3-.3-1.5-.5a3.2 3.2 0 0 1-1.2 1m2.5-2h-.8a5.01 5.01 0 0 0 .5-1.2 7.124 7.124 0 0 1 .8 0l.3.2a.2.2 0 0 0-.2.2l-.2.2a.547.547 0 0 0 0 .1l-.3.5v.1m9.1 6.1a3.133 3.133 0 0 0-.8-.7l-4 .4-.2-1h2.1v-.7h-1.8a1.075 1.075 0 0 1 0-.4 1.278 1.278 0 0 1 0-.4h1.8v-.4h-1.8v-2.8h1.8v-.3h-2a1.278 1.278 0 0 1 0-.4 1.167 1.167 0 0 1 0-.4h2v-.4l-1.7.1a2.832 2.832 0 0 0-.3-.8 33.642 33.642 0 0 0 4.4-.4l.6.8-1.9.2v.5h2v.5h1v-2h1.1v2h2v4.6a3.416 3.416 0 0 1-.4 1.4 1.006 1.006 0 0 1-.4.4 1.8 1.8 0 0 1-.4.1 8.3 8.3 0 0 1-1.3 0 2.209 2.209 0 0 0-.4-1h1a.4.4 0 0 0 .4-.1 2.5 2.5 0 0 0 .3-1.1l.1-3.2h-1a11.421 11.421 0 0 1-.5 3.2 4.8 4.8 0 0 1-1.7 2.3m-3.7-4.8h.8v-.4h-.8Zm0 1h.8v-.2h-.8Zm2 2.3h1.7a4.506 4.506 0 0 0 .8-1.8 10.669 10.669 0 0 0 .3-2.2h-1v-.7h-1.8v.3h1.8v2.9h-1.8v.4h1.9a1.344 1.344 0 0 1 0 .4 1.412 1.412 0 0 1 0 .4h-1.9Zm-.1-3.3h.8v-.4h-.7Zm0 1h.8v-.2h-.7Zm8.8 4.1a2.641 2.641 0 0 0-.3-.5 4.077 4.077 0 0 0-.5-.5 6.1 6.1 0 0 0 3-1.7 5.711 5.711 0 0 0 1.3-2.2l-1.5-.3-1.5-.3a2.866 2.866 0 0 1 0-.6 2.6 2.6 0 0 1 .2-.6l1.5.4 1.6.3.2-1a8.471 8.471 0 0 0 .1-.9l1 .2.6.2a1.7 1.7 0 0 0-.5.9l-.1.8 2 .5 2 .4-.1.5-1.1 3.8a3 3 0 0 1-.9 1.4 1.3 1.3 0 0 1-.5.2 2.012 2.012 0 0 1-.6 0 10.866 10.866 0 0 1-1.6-.3 2.612 2.612 0 0 0 0-.5 2.445 2.445 0 0 0-.2-.6l1.5.3a.7.7 0 0 0 .5 0q.5-.3 1.5-4l-2.8-.6a7.018 7.018 0 0 1-1.4 2.7 6.7 6.7 0 0 1-3.4 2m11 2.7a1.808 1.808 0 0 0 0-1l1.1.5a.7.7 0 0 0 .4 0c.2 0 .4-.3.7-.9l-1.2-.5-.1.2-.9-.5a17.343 17.343 0 0 0 1.4-1.9l1.8.8.2-.6-1.5-.7-.8-.1a4.221 4.221 0 0 0-.3-1 6.948 6.948 0 0 0 1.9 0l-.7-.8 1-.3a7.8 7.8 0 0 1 .7 1 4.291 4.291 0 0 0 .8-.3l-1-.4-1-.4a1.482 1.482 0 0 1 .2-.4 1.306 1.306 0 0 1 .3-.4 5.99 5.99 0 0 0 .6.3l.6.3 1.2.5h.2l.6.6a5.5 5.5 0 0 1-2.7 1.2l1.2.6-.7 1.6a1.493 1.493 0 0 0 .8-.3 1.393 1.393 0 0 0 .4-.5l.2-.6 1.9.8a6.385 6.385 0 0 1-1-3l1 .1a4.546 4.546 0 0 0 .2 1 7.66 7.66 0 0 0 1.2-.3 3.347 3.347 0 0 1 .4.7v.3a.3.3 0 0 1-.2 0 .609.609 0 0 0-.3 0l-.6.1h-.2l.4.6a7.955 7.955 0 0 0 1.4-.4 3.489 3.489 0 0 1 .3.7c.1.2.1.4 0 .4a.415.415 0 0 1-.1 0 .6.6 0 0 0-.4 0h-.7a7.291 7.291 0 0 0 1.1 1 4.3 4.3 0 0 0-1 .6 9 9 0 0 1-.9-.9l-.3.8a.67.67 0 0 0 0 .2l.2.1a.558.558 0 0 0 .1 0 .189.189 0 0 0 .1 0c.071-.1.138-.2.2-.3a2.482 2.482 0 0 0 .7.7 1.507 1.507 0 0 1-.4.4.6.6 0 0 1-.5.1 1.485 1.485 0 0 1-.4-.1l-.5-.2a1 1 0 0 1-.6-.5.587.587 0 0 1 0-.3 2.2 2.2 0 0 1 .2-.5l.2-.5-.9-.4a2 2 0 0 1-1.7 1.2 3.54 3.54 0 0 0-.4-.8v.2l-.1.2a1.669 1.669 0 0 1-.5-.2l-.5-.3-1-.5q-.142.255-.3.5l2 .9v.3a12.349 12.349 0 0 1-.8 1.3 1.235 1.235 0 0 1-1.5.5l-1.2-.6m2.7 1.3a3.017 3.017 0 0 0-.1-1 7.786 7.786 0 0 0 1.8.3 4.167 4.167 0 0 1-.4-1.2h.7l-.4-.1-.5-.2a.993.993 0 0 1 .1-.4l.2-.3.7.4.8.3 1.5.7h.2l.5.5a3.9 3.9 0 0 1-1.7 1 7.637 7.637 0 0 0 1.4 1.1 3.391 3.391 0 0 0-1 .6 6.95 6.95 0 0 1-1.5-1.5 8.194 8.194 0 0 1-2.3-.2m2.7-.7a3 3 0 0 0 1-.4l-.8-.3-.6-.3a2.965 2.965 0 0 0 .4 1m4.1 4.1a3.838 3.838 0 0 0-.2-.6 4.377 4.377 0 0 0-.4-.5 5.7 5.7 0 0 0 2.2-1.4 15.1 15.1 0 0 0 1.6-2l.8-1a11.759 11.759 0 0 0 .7-1.1h.1l1.6 1.1 1.6 1.2 1.6 1.2q.771.638 1.6 1.2a9.048 9.048 0 0 0-.7 1l-.8 1-1-.9-.4.5.6.5.6.4a1.51 1.51 0 0 1-.3.4 1.739 1.739 0 0 1-.3.3 8.565 8.565 0 0 0-.6-.4l-.6-.5-.3.5.8.6.8.5a2.071 2.071 0 0 1-.6.8 3.53 3.53 0 0 0-.4-.3l-.5-.3.4.8a12.011 12.011 0 0 1-1.5-.2 6.345 6.345 0 0 0 1 1.5 3.2 3.2 0 0 0-1 .3 5.392 5.392 0 0 1-1.4-2.7l-.4.6-2.2-1.2-1.2-.6.4-1 1 .6.8-1.1-.5-.4-.4-.2a1.56 1.56 0 0 1 .2-.5l.3-.3.7.5.6.4.4-.5-.6-.4q-.243-.161-.5-.3a1.484 1.484 0 0 1 .3-.4l.3-.4a4.709 4.709 0 0 0 .5.4l.5.4.4-.5-1.3-.9-.1.2a9.824 9.824 0 0 1-4.2 3.7m3.5.9.4.2.3.1.8.4a4.915 4.915 0 0 1 0-1.2l-.7-.6Zm1.4-5.5 4.4 3.2.3-.6-2.2-1.5-2.2-1.6Zm.3 4 1.2.9.4-.5-.6-.5-.6-.4Zm.8 2.5a11.422 11.422 0 0 0 1.2 0l-.6-.4-.7-.5a3.64 3.64 0 0 0 .1.9m.1-3.7 1.2.9.4-.5-.6-.5-.6-.4Zm3.8 9.9a1.971 1.971 0 0 1-.4-.5 10.4 10.4 0 0 0 .8-.7l.8-.7-1.4-1a3.822 3.822 0 0 0 .2-.4 3.37 3.37 0 0 0 .1-.6 23.529 23.529 0 0 0 3.6 2.3l-1.3-1.4-1.3-1.4a3.241 3.241 0 0 1 .7-.6l1 1.3 1.1 1.2.4-.3-.8-.9-.9-.9.3-.3a1.389 1.389 0 0 1 .3-.2l.8 1 .8.8.3-.2-1.8-2 .8-.7a8.74 8.74 0 0 0 .7-.8h.1l1.3 1.5 1.3 1.5 2.6 3-.7.6a8.879 8.879 0 0 0-.8.8l-1.4-1.5-1.3-1.6-.3.2 1.5 1.7-.3.3a8.234 8.234 0 0 0 1.2.2 3.818 3.818 0 0 1 0 .8v.4a.3.3 0 0 1-.2-.1.608.608 0 0 0-.3-.2l-.8-.1.6.6.6.6-.3.3a1.413 1.413 0 0 1-.4.3l-.8-1-.8-.9a5.946 5.946 0 0 1 .5 1.2h-.4l.4.4-1.1 1a13.359 13.359 0 0 0-1.1 1.3 2.572 2.572 0 0 1-.5-.5l-.4-.5.1-.1-2.5-2.8v.1h-.1l-.5-.4m1.2-.2 2.5 2.8.3-.2-1.3-1.4-1.3-1.4Zm.7-.6 1.3 1.3 1.2 1.4.3-.2-2.5-2.8Zm1.8.2.7.8.7.8a9.8958 9.8958 0 0 0-.4-.9h.6l-1.6-.7m1-4.6.3.4.3.4.5-.4-.7-.8Zm0 3.6.8.8a8.094 8.094 0 0 0 .8.3l-.6-.7-.6-.7Zm1.4-2 .7.9.5-.4-.4-.4-.4-.5Zm1.5 1.7.7.8.5-.4-.4-.4-.4-.4Zm-93.3 14.7-5-3.5.7-1.2 7 2-.4 1-5.4-1.7 4.6 3.3-.7 1.3-5.4-1.6 4.6 3.3-.5 1-5.9-4.3.6-1.3Zm-1.2 6.4c-.4 1.3-1.9 2.1-4.3 1.3s-3.1-2.3-2.7-3.6 1.8-2 4.3-1.2 3 2.3 2.7 3.6m-6-2c-.3.7.2 1.4 2 2s2.8.4 3-.3-.2-1.5-2-2.1-2.8-.3-3 .4m4.8 5.2-.4 2a1.7 1.7 0 0 1-1.906 1.466 1.624 1.624 0 0 1-.294-.066 1.6 1.6 0 0 1-1.4-1.7c-.1.2-.3.4-1 .5l-2.8.2.2-1.2 2.5-.1a.876.876 0 0 0 .9-.7v-.3l-3-.7.3-1.1Zm-3.3.9a1 1 0 0 0 .8 1.3c.8.1 1.1-.2 1.2-.8l.1-.5-2-.5Zm2.3 4.2-.1 1.1-3-.4 2.7 2.2-.1 1.4-3.1-2.6-4 1.8.1-1.4 3.6-1.4-3.4-.5.2-1.1Zm-.5 5.1-.1 3.3h-1v-2.1l-2-.1v2h-1.1v-2l-3-.2v-1.1Zm.1 6.4c0 1.3-1 2.6-3.6 2.7s-3.8-1-3.8-2.3 1-2.6 3.5-2.7 3.8 1 3.9 2.3m-6.4.4c0 .7.8 1.3 2.7 1.1s2.7-.7 2.7-1.5-.8-1.2-2.8-1.1-2.7.7-2.6 1.5m6.5 3 .3 2a1.7 1.7 0 0 1-1.119 2.128 1.651 1.651 0 0 1-.381.072 1.6 1.6 0 0 1-2-1c0 .2 0 .5-.7.8l-2.6 1.3-.1-1.3 2.2-1a.8.8 0 0 0 .612-.951l-.012-.049v-.2l-3.1.5-.2-1.2Zm-2.7 2.1a1 1 0 0 0 1.076.918.886.886 0 0 0 .124-.018.924.924 0 0 0 .942-.9.949.949 0 0 0-.042-.3v-.5l-2.2.3Zm-2.2 8.6a3.178 3.178 0 0 1-.6-1.2c-.5-2 .8-3.3 2.8-3.8s3.8 0 4.3 1.9a3.624 3.624 0 0 1 0 1.4l-1 .2a2.3 2.3 0 0 0 0-1.2c-.2-1-1.2-1.6-3-1.1s-2.3 1.5-2 2.4a1.791 1.791 0 0 0 .6 1Zm7.2-.7 1.1 3.1-1 .4-.7-2-1.8.6.7 1.9-1 .3-.7-1.9-2 .7.7 2.2-1 .3-1.1-3.2Zm2.5 6.3.8 1.5c1 1.7.3 3.2-1.8 4.4-2.1 1.1-3.8.5-4.6-1l-.8-1.5Zm-5 4 .3.3c.6 1.2 1.7 1.2 3.1.5s2-1.8 1.4-3l-.1-.3Zm7.7 1 1.9 2.7-.9.6-1.2-1.8-1.6 1.1 1.2 1.7-1 .6-1-1.7-1.8 1.2 1.3 1.8-1 .6-1.8-2.8Zm2.3 3.4.8.9-3.6 4.5 5.2-2.5.8 1-6.9 3-.7-1Zm3.6 4.3 2.3 2.4-.7.7-1.5-1.6-1.4 1.4 1.4 1.5-.8.7-1.4-1.5-1.5 1.5 1.5 1.6-.8.7-2.4-2.4Zm3.1 3.1.9.8-4 4.6 1.5 1.4-.7.8-2.4-2.2Zm5.1 4c1.1.8 1.4 2.4 0 4.5s-3.2 2.3-4.3 1.5-1.4-2.4 0-4.5 3.2-2.3 4.3-1.5m-3.7 5.2c.6.4 1.5.2 2.6-1.4s1.1-2.5.5-3-1.5-.2-2.6 1.4-1.1 2.6-.5 3m6.4-3.2 1.7 1a2.2 2.2 0 0 1-2.2 3.7l-.6-.3-1.4 2.5-1-.6Zm-.2 3.8a1.079 1.079 0 0 0 1.464-.429.9451.9451 0 0 0 .036-.071 1.062 1.062 0 0 0-.3-1.6l-.4-.2-1.2 2Zm8.4 1.7-3.9 4.8-.8-.3 1-6.1-2.4 5.5-1-.5 3-6.5 1.6.7-1 5.4 3.4-4.4 1.6.7-3 6.6-1-.4Zm2.7-.3 3.2 1-.3 1-2.1-.7-.6 1.9 2 .6-.3 1-2-.6-.6 2 2.2.7-.4 1-3.2-1Zm4.3 1.3 1.3.2 1 6 1.1-5.6 1 .2-1.3 7.1-1.4-.3-1-5.9-1 5.5-1.1-.2Zm6.4 2.1h-1.4l.1-1.1 4 .4-.1 1-1.4-.1-.7 6h-1.1Zm8.8 4.8h-2.2l-.4 1.8h-1.1l1.9-7.3h1.3l2.2 7.2h-1.1Zm-.2-1-1-3.4-.7 3.4Zm5.2-1.8 2-.3.5 3.8a3.393 3.393 0 0 1-1.7.6c-2 .2-3.2-1.2-3.5-3.3s.6-3.8 2.6-4a3.722 3.722 0 0 1 1.6 0v1.2a2.6 2.6 0 0 0-1.4-.2c-1.3.1-1.8 1.3-1.6 2.8.2 1.6 1 2.6 2.2 2.4a1.688 1.688 0 0 0 .6-.2l-.2-2-1 .2Zm2.8-3.6 3.3-.8.2 1-2.1.5.4 1.9 2-.5.2 1-2 .5.5 2 2.2-.4.3 1-3.4.8Zm4.4-1 1.3-.5 3.8 4.7-1.8-5.4 1-.3 2.3 6.8-1.3.4-3.8-4.6 1.7 5.3-1 .4Zm12.1 2.6a3.1 3.1 0 0 1-1.2.9c-1.7.8-3.3-.3-4.2-2.2s-.6-3.7 1.1-4.5a3.7 3.7 0 0 1 1.4-.3l.5 1a2.207 2.207 0 0 0-1.3.2c-.9.4-1.3 1.4-.5 3.1s1.8 2 2.7 1.6a1.8 1.8 0 0 0 .9-.8Zm1.1-3.7-3.8-2.8 1.1-.6 2.5 1.9-.4-3 1.1-.7.5 4.7 1.5 2.5-1 .5Zm4.2-.7.7 2.6-.7.4-1-2.4Zm4.3-9.3 2.7 5.7-.7.5-5-3.6 3.9 4.6-.8.7-4.8-5.5 1.4-1.1 4.5 3.2-2.5-5 1.3-1 4.7 5.4-.8.7Zm.8-2.4.8-.9 5.2 5-.8.8Zm1.9-1.9.8-1 5.7 1.9-4.3-3.6.6-.8 5.6 4.5-1 1.1-5.6-2v.1l4.3 3.6-.6.8Zm3.5-4.6.7-1 6 4.2-.8 1Zm6.5 1a2.4 2.4 0 0 0 1-1 1 1 0 0 0-.4-1.3c-.4-.3-.8-.2-1.3.1l-.7.3a2.034 2.034 0 0 1-2.8-2.8 3.689 3.689 0 0 1 1-1l.9.6a2.79 2.79 0 0 0-1 .9.8.8 0 0 0 .165 1.119.711.711 0 0 0 .135.081 1 1 0 0 0 1.2-.1l.7-.4a2.2 2.2 0 0 1 3 3.1 2.6 2.6 0 0 1-1 1Zm-1.3-7.4-.6 1.3-1-.5 1.8-3.5 1 .4-.7 1.3 5.5 2.7-.5 1Zm.4-3.4.8-1.8a1.7 1.7 0 0 1 2.4-1.1 1.6 1.6 0 0 1 1.1 1.7c.2-.2.4-.4 1.1-.3l2.9.2-.5 1.1-2.4-.2a.8.8 0 0 0-1 .5l-.1.3 2.9 1-.4 1.2Zm3.6-.4a1 1 0 0 0-.7-1.4c-.8-.3-1 0-1.3.6l-.2.5 2 .7Zm2.6-3.9-4.7.6.3-1.2 3.2-.4-2.5-2 .4-1.1 3.6 3 2.8.8-.4 1.1Zm-2.5-9.5c.2-1.3 1.4-2.3 4-2s3.5 1.7 3.3 3-1.4 2.4-4 2-3.5-1.7-3.3-3m6.3.9c.1-.7-.5-1.4-2.5-1.7s-2.7.2-2.8 1 .5 1.4 2.5 1.7 2.7-.3 2.8-1m-5.8-4.4v-3.2h1.1v2l2 .2v-2h1v2l3.1.1v1.2Zm0-6.6v-1.2l6-.5-.2-2.1 1-.1.4 3.2Zm4.4-8.2.4 2.1 1.8.2.2 1.1-7.4-.8-.3-1.3 6.7-3.2.3 1.1Zm-1 .4-3 1.4 3.4.3Zm-4.8-1.7-.5-1.8a1.565 1.565 0 0 1 1.2-2.3 1.818 1.818 0 0 0 3.2-1 1.9 1.9 0 0 1 2.442 1.119c.022.06.041.12.058.181l.5 1.9Zm2.6-1.9-.2-.6a1 1 0 0 0-1.3-.5.9.9 0 0 0-.71 1.057l.01.043.2.6Zm3-.8-.2-.7a1.1 1.1 0 0 0-2 .7l.1.6Zm-7.9-4.1c-.5-1.2 0-2.8 2.4-3.7s4-.3 4.4 1 0 2.7-2.5 3.6-3.9.3-4.3-1m5.9-2.3c-.3-.7-1.2-1-3-.2s-2.3 1.5-2 2.2 1.1 1 3 .2 2.2-1.5 2-2.2m-7.3-.9-.9-1.7a1.7 1.7 0 0 1 .374-2.375 1.754 1.754 0 0 1 .426-.225 1.6 1.6 0 0 1 2 .3h.1a1.41 1.41 0 0 1 .4-1l2-2 .6 1-1.7 1.7a.8.8 0 0 0-.307 1.089l.007.011.1.3 2.8-1.5.5 1Zm2-2.9a1 1 0 0 0-1.348-.429.8688.8688 0 0 0-.052.029.9.9 0 0 0-.537 1.154.861.861 0 0 0 .137.246l.2.4 1.9-1Z" fill="#474746"/><path d="M117.011 70.722a46.674 46.674 0 1 0 0 .1" fill="#ffb900"/><path d="M65.911 116.822a47 47 0 0 0 46.6-26.2l-23-62.2a46.2 46.2 0 0 0-52.4 10.3Z" fill="#86c9cf"/><path d="M70.711 117.022a46.3 46.3 0 0 0 26.3-84.4 75.414 75.414 0 0 1-8.7 24.8c-16.4 30.6-19.8 49.5-20 59.5l2.4.1" fill="#86c9cf"/><path d="M70.711 117.022a46.3 46.3 0 0 0 41.8-26.4l-17.8-48.1a87.94 87.94 0 0 1-6.4 15c-16.5 30.4-19.8 49.3-20 59.3l2.4.1" fill="#59b5ad"/><path d="M84.411 26.422a46.3 46.3 0 0 0-32 86.8Z" fill="#dddddc"/><path d="M28.711 57.422a19.161 19.161 0 0 1-1.4-2.9 46.2 46.2 0 0 0 21 56.7c-1.3-10.8-5.9-28.2-19.6-53.8" fill="#e85620"/><path d="M35.311 94.822h22.2s26-30.2 34.7-59.5a154.687 154.687 0 0 1-39.5 26.9 109.957 109.957 0 0 0 17.3-.9c-7.9 10.6-21.9 23.1-34.7 33.6" fill="#fff"/><path d="M37.911 67.422c3.3-4.1 14-3.8 24.7 1.1l1 .5 2.6-3c-13.2-5-25.4-4.7-28.3 1.4" fill="#fff"/><path d="M91.411 89.822c-.4-8.7-9.5-15.1-16.2-19.3-12.6-8-33.9-11.5-37.3-3 5.6-7 26.1-.4 34.6 7.2 13.2 10.8 3.5 21.7-11.3 15.6l-1.7 2.1a44.469 44.469 0 0 0 9.8 4.1 34.167 34.167 0 0 0 7.9 1.3c5.6.3 13.7-1.4 14.2-8" fill="#fff"/></svg>