<svg xmlns="http://www.w3.org/2000/svg" width="375.2" height="107.9"><defs><clipPath id="a"><path fill="none" d="M0 0h375.2v107.9H0z"/></clipPath></defs><path d="M69.2 0 109 108h57.5L126.7 0Z" fill="#86c9cf"/><g clip-path="url(#a)"><path d="M303.8 108s-3.8-18 13.6-53C331 27.6 332 0 332 0h-57.5s4.5 15-18.9 63.2c-13.3 27.5-9.4 44.7-9.4 44.7Z" fill="#86c9cf"/><path d="M317.1 108s3.8-18-13.6-53c-13.6-27.4-14.6-55-14.6-55h57.5s-4.5 15 18.9 63.2c13.3 27.5 9.4 44.7 9.4 44.7Z" fill="#dddddc"/><path d="M310.4 71c1.9-4.9 4.2-10.2 7-16C331 27.6 332 0 332 0H289s1 27.6 14.6 55c2.8 5.8 5.1 11.1 7 16" fill="#ffb900"/><path d="M137.3 0s4.1 13.8-8.8 37.9c-27.3 50.7-19.5 70-19.5 70h57.5s-3.3-24.5 18.9-63.1C200.6 18.2 194.8 0 194.8 0Z" fill="#86c9cf"/><path d="M126.7 0 86.9 108H29.4L69.2 0Z" fill="#dddddc"/><path d="M58.6 0s-4.1 13.8 8.8 37.9c27.3 50.7 19.5 70 19.5 70H29.4s3.3-24.5-19-63.1C-4.7 18.2 1.2 0 1.2 0Z" fill="#ffb900"/><path d="M67.4 37.9a90.5 90.5 0 0 1-6.6-15.3l-31.4 85.3h57.5c.6-1.6 6.7-21.3-19.5-70" fill="#e85620"/><path d="M237.9 0h-56.4v108h56.4a54 54 0 1 0 0-108" fill="#dddddc"/></g></svg>