<svg xmlns="http://www.w3.org/2000/svg" width="65" height="35" viewBox="0 0 65 35"><g transform="translate(6070 1434)"><rect width="65" height="35" rx="4" transform="translate(-6070 -1434)" fill="#fff"/><g transform="translate(-6065.63 -1425.627)"><path d="M40.427,30.4,35.978,42.459l-.457-2.453c-1.123-2.994-3.535-6.154-6.321-7.4l4.075,15.469H38.1l7.194-17.631H40.427Z" transform="translate(-24.418 -30.067)" fill="#003c82"/><path d="M65.4,48.031,68.228,30.4H72.8L69.932,48.031Z" transform="translate(-45.565 -30.067)" fill="#003c82"/><path d="M96.939,30.348a10.937,10.937,0,0,0-4.075-.748c-4.532,0-7.693,2.412-7.693,5.822-.042,2.537,2.287,3.95,3.992,4.824,1.788.873,2.37,1.414,2.37,2.2,0,1.164-1.414,1.7-2.744,1.7a9,9,0,0,1-4.283-.915l-.582-.291L83.3,46.9a14.078,14.078,0,0,0,5.073.956c4.782,0,7.9-2.37,7.942-6.029,0-2-1.206-3.535-3.826-4.782-1.58-.832-2.578-1.372-2.578-2.2,0-.748.832-1.5,2.62-1.5a8.1,8.1,0,0,1,3.41.665l.416.208.582-3.867Z" transform="translate(-56.022 -29.6)" fill="#003c82"/><path d="M126.424,30.4H122.89a2.332,2.332,0,0,0-2.412,1.455L113.7,48.031h4.782s.79-2.162.956-2.661h5.822c.125.624.541,2.661.541,2.661h4.241L126.424,30.4Zm-5.655,11.394c.374-1,1.83-4.948,1.83-4.948-.042.042.374-1.04.624-1.663l.291,1.539s.873,4.2,1.04,5.115c-.707-.042-2.869-.042-3.784-.042Z" transform="translate(-73.781 -30.067)" fill="#003c82"/><path d="M25.1,30.4h-7.36l-.042.291c5.738,1.455,9.481,5.073,11.061,9.314L27.139,31.9A1.893,1.893,0,0,0,25.1,30.4Z" transform="translate(-17.7 -30.067)" fill="#003c82"/></g></g></svg>