<svg hidden="hidden" version="1.1" xmlns="http://www.w3.org/2000/svg" xmlns:xlink="http://www.w3.org/1999/xlink">
  <defs>
    <symbol id="bi-bookmark-fill" viewBox="0 0 16 16">
      <path fill="currentColor" d="M2 2v13.5a.5.5 0 0 0 .74.439L8 13.069l5.26 2.87A.5.5 0 0 0 14 15.5V2a2 2 0 0 0-2-2H4a2 2 0 0 0-2 2z" />
    </symbol>
    <symbol id="ic-search" viewBox="0 0 24 24">
      <path fill="currentColor" d="m21.7 18.9-3.1-3.1c-.7 1.1-1.7 2.1-2.8 2.8l3.1 3.1c.4.4 1 .4 1.4 0l1.4-1.4c.4-.4.4-1 0-1.4Z" />
      <path fill="currentColor" d="M11 20c-5 0-9-4-9-9s4-9 9-9 9 4 9 9-4 9-9 9Zm0-16c-3.9 0-7 3.1-7 7s3.1 7 7 7 7-3.1 7-7-3.1-7-7-7Zm-3 7c0-1.7 1.3-3 3-3 .6 0 1-.4 1-1s-.4-1-1-1c-2.8 0-5 2.2-5 5 0 .6.4 1 1 1s1-.4 1-1Z" opacity=".36" />
    </symbol>
    <symbol id="ic-arrow-l" viewBox="0 0 24 24">
      <path d="M9.60001 11H21C21.6 11 22 11.4 22 12C22 12.6 21.6 13 21 13H9.60001V11Z" fill="currentColor" />
      <path opacity="0.3" d="M9.6 20V4L2.3 11.3C1.9 11.7 1.9 12.3 2.3 12.7L9.6 20Z" fill="currentColor" />
    </symbol>
    <symbol id="ic-arrow-r" viewBox="0 0 24 24">
      <path fill="currentColor" d="M14.4 11H3c-.6 0-1 .4-1 1s.4 1 1 1h11.4v-2Z" />
      <path fill="currentColor" d="M14.4 20V4l7.3 7.3c.4.4.4 1 0 1.4L14.4 20Z" opacity=".36" />
    </symbol>
    <symbol id="ic-images" viewBox="0 0 24 24">
      <g fill="currentColor">
        <path d="M22 8v6l-2-1a2 2 0 0 0-2 0l-5 3a2 2 0 0 1-2 0h-1a2 2 0 0 0-2 0l-5 3a7 7 0 0 1-1-3V8c0-4 2-6 6-6h8c4 0 6 2 6 6Z" opacity=".4" />
        <path d="M11 8a2 2 0 1 1-2-2 2 2 0 0 1 2 2Zm11 6v2c0 4-2 6-6 6H8c-3 0-5-1-5-3l5-3a2 2 0 0 1 2 0h1a2 2 0 0 0 2 0l5-4a2 2 0 0 1 2 0Z" />
      </g>
    </symbol>
    <symbol id="ic-setting" viewBox="0 0 24 24">
      <path opacity="0.3" d="M22.1 11.5V12.6C22.1 13.2 21.7 13.6 21.2 13.7L19.9 13.9C19.7 14.7 19.4 15.5 18.9 16.2L19.7 17.2999C20 17.6999 20 18.3999 19.6 18.7999L18.8 19.6C18.4 20 17.8 20 17.3 19.7L16.2 18.9C15.5 19.3 14.7 19.7 13.9 19.9L13.7 21.2C13.6 21.7 13.1 22.1 12.6 22.1H11.5C10.9 22.1 10.5 21.7 10.4 21.2L10.2 19.9C9.4 19.7 8.6 19.4 7.9 18.9L6.8 19.7C6.4 20 5.7 20 5.3 19.6L4.5 18.7999C4.1 18.3999 4.1 17.7999 4.4 17.2999L5.2 16.2C4.8 15.5 4.4 14.7 4.2 13.9L2.9 13.7C2.4 13.6 2 13.1 2 12.6V11.5C2 10.9 2.4 10.5 2.9 10.4L4.2 10.2C4.4 9.39995 4.7 8.60002 5.2 7.90002L4.4 6.79993C4.1 6.39993 4.1 5.69993 4.5 5.29993L5.3 4.5C5.7 4.1 6.3 4.10002 6.8 4.40002L7.9 5.19995C8.6 4.79995 9.4 4.39995 10.2 4.19995L10.4 2.90002C10.5 2.40002 11 2 11.5 2H12.6C13.2 2 13.6 2.40002 13.7 2.90002L13.9 4.19995C14.7 4.39995 15.5 4.69995 16.2 5.19995L17.3 4.40002C17.7 4.10002 18.4 4.1 18.8 4.5L19.6 5.29993C20 5.69993 20 6.29993 19.7 6.79993L18.9 7.90002C19.3 8.60002 19.7 9.39995 19.9 10.2L21.2 10.4C21.7 10.5 22.1 11 22.1 11.5ZM12.1 8.59998C10.2 8.59998 8.6 10.2 8.6 12.1C8.6 14 10.2 15.6 12.1 15.6C14 15.6 15.6 14 15.6 12.1C15.6 10.2 14 8.59998 12.1 8.59998Z" fill="currentColor" />
      <path d="M17.1 12.1C17.1 14.9 14.9 17.1 12.1 17.1C9.30001 17.1 7.10001 14.9 7.10001 12.1C7.10001 9.29998 9.30001 7.09998 12.1 7.09998C14.9 7.09998 17.1 9.29998 17.1 12.1ZM12.1 10.1C11 10.1 10.1 11 10.1 12.1C10.1 13.2 11 14.1 12.1 14.1C13.2 14.1 14.1 13.2 14.1 12.1C14.1 11 13.2 10.1 12.1 10.1Z" fill="currentColor" />
    </symbol>
    <symbol id="ic-home" viewBox="0 0 24 24">
      <path d="M11 2.375L2 9.575V20.575C2 21.175 2.4 21.575 3 21.575H9C9.6 21.575 10 21.175 10 20.575V14.575C10 13.975 10.4 13.575 11 13.575H13C13.6 13.575 14 13.975 14 14.575V20.575C14 21.175 14.4 21.575 15 21.575H21C21.6 21.575 22 21.175 22 20.575V9.575L13 2.375C12.4 1.875 11.6 1.875 11 2.375Z" fill="currentColor" />
    </symbol>
    <symbol id="ic-board" viewBox="0 0 24 24">
      <path opacity="0.3" d="M8 8C8 7.4 8.4 7 9 7H16V3C16 2.4 15.6 2 15 2H3C2.4 2 2 2.4 2 3V13C2 13.6 2.4 14 3 14H5V16.1C5 16.8 5.79999 17.1 6.29999 16.6L8 14.9V8Z" fill="currentColor" />
      <path d="M22 8V18C22 18.6 21.6 19 21 19H19V21.1C19 21.8 18.2 22.1 17.7 21.6L15 18.9H9C8.4 18.9 8 18.5 8 17.9V7.90002C8 7.30002 8.4 6.90002 9 6.90002H21C21.6 7.00002 22 7.4 22 8ZM19 11C19 10.4 18.6 10 18 10H12C11.4 10 11 10.4 11 11C11 11.6 11.4 12 12 12H18C18.6 12 19 11.6 19 11ZM17 15C17 14.4 16.6 14 16 14H12C11.4 14 11 14.4 11 15C11 15.6 11.4 16 12 16H16C16.6 16 17 15.6 17 15Z" fill="currentColor" />
    </symbol>
    <symbol id="ic-arrow-b" viewBox="0 0 24 24">
      <path d="M11.4343 12.7344L7.25 8.55005C6.83579 8.13583 6.16421 8.13584 5.75 8.55005C5.33579 8.96426 5.33579 9.63583 5.75 10.05L11.2929 15.5929C11.6834 15.9835 12.3166 15.9835 12.7071 15.5929L18.25 10.05C18.6642 9.63584 18.6642 8.96426 18.25 8.55005C17.8358 8.13584 17.1642 8.13584 16.75 8.55005L12.5657 12.7344C12.2533 13.0468 11.7467 13.0468 11.4343 12.7344Z" fill="currentColor"></path>
    </symbol>
    <symbol id="ic-teacher" viewBox="0 0 24 24">
      <path d="M20 14H18V10H20C20.6 10 21 10.4 21 11V13C21 13.6 20.6 14 20 14ZM21 19V17C21 16.4 20.6 16 20 16H18V20H20C20.6 20 21 19.6 21 19ZM21 7V5C21 4.4 20.6 4 20 4H18V8H20C20.6 8 21 7.6 21 7Z" fill="currentColor" />
      <path opacity="0.3" d="M17 22H3C2.4 22 2 21.6 2 21V3C2 2.4 2.4 2 3 2H17C17.6 2 18 2.4 18 3V21C18 21.6 17.6 22 17 22ZM10 7C8.9 7 8 7.9 8 9C8 10.1 8.9 11 10 11C11.1 11 12 10.1 12 9C12 7.9 11.1 7 10 7ZM13.3 16C14 16 14.5 15.3 14.3 14.7C13.7 13.2 12 12 10.1 12C8.10001 12 6.49999 13.1 5.89999 14.7C5.59999 15.3 6.19999 16 7.39999 16H13.3Z" fill="currentColor" />
    </symbol>
    <symbol id="ic-logout" viewBox="0 0 24 24">
      <rect opacity="0.3" width="12" height="2" rx="1" transform="matrix(-1 0 0 1 15.5 11)" fill="currentColor" />
      <path d="M13.6313 11.6927L11.8756 10.2297C11.4054 9.83785 11.3732 9.12683 11.806 8.69401C12.1957 8.3043 12.8216 8.28591 13.2336 8.65206L16.1592 11.2526C16.6067 11.6504 16.6067 12.3496 16.1592 12.7474L13.2336 15.3479C12.8216 15.7141 12.1957 15.6957 11.806 15.306C11.3732 14.8732 11.4054 14.1621 11.8756 13.7703L13.6313 12.3073C13.8232 12.1474 13.8232 11.8526 13.6313 11.6927Z" fill="currentColor" />
      <path d="M8 5V6C8 6.55228 8.44772 7 9 7C9.55228 7 10 6.55228 10 6C10 5.44772 10.4477 5 11 5H18C18.5523 5 19 5.44772 19 6V18C19 18.5523 18.5523 19 18 19H11C10.4477 19 10 18.5523 10 18C10 17.4477 9.55228 17 9 17C8.44772 17 8 17.4477 8 18V19C8 20.1046 8.89543 21 10 21H19C20.1046 21 21 20.1046 21 19V5C21 3.89543 20.1046 3 19 3H10C8.89543 3 8 3.89543 8 5Z" fill="currentColor" />
    </symbol>
    <symbol id="ic-filter" viewBox="0 0 24 24">
      <g fill="currentColor">
        <path d="M16.2 2H7.8C4.2 2 2 4.2 2 7.8v8.4C2 19.8 4.2 22 7.8 22h8.4c3.6 0 5.8-2.2 5.8-5.8V7.8C22 4.2 19.8 2 16.2 2Z" opacity=".4" />
        <path d="M15.6 19.2a.8.8 0 0 1-.8-.7v-3.9a.8.8 0 0 1 .8-.8.8.8 0 0 1 .7.8v3.9a.8.8 0 0 1-.7.7Zm0-11a.8.8 0 0 1-.8-.7v-2a.8.8 0 0 1 .8-.8.8.8 0 0 1 .7.8v2a.8.8 0 0 1-.7.7ZM8.4 19.3a.8.8 0 0 1-.7-.8v-2a.8.8 0 0 1 .7-.7.8.8 0 0 1 .8.8v1.9a.7.7 0 0 1-.8.8Zm0-9.1a.8.8 0 0 1-.7-.8V5.5a.8.8 0 0 1 .7-.8.8.8 0 0 1 .8.8v3.9a.7.7 0 0 1-.8.8Z" />
        <path d="M15.6 7.3a2.7 2.7 0 1 0 2.7 2.8 2.7 2.7 0 0 0-2.7-2.8Zm-7.2 3.9a2.7 2.7 0 1 0 2.7 2.8 2.7 2.7 0 0 0-2.7-2.8Z" />
      </g>
    </symbol>
    <symbol id="ic-reset" viewBox="0 0 24 24">
      <g fill="currentColor">
        <path d="M16.2 2H7.8C4.2 2 2 4.2 2 7.8v8.4C2 19.8 4.2 22 7.8 22h8.4c3.6 0 5.8-2.2 5.8-5.8V7.8C22 4.2 19.8 2 16.2 2Z" opacity=".4" />
        <path d="M16.8 9a.7.7 0 0 0-1-.1.8.8 0 0 0-.3 1A4.3 4.3 0 1 1 12 8a5.3 5.3 0 0 1 .6 0l-.6.5a.7.7 0 0 0-.2 1 .8.8 0 0 0 .7.3.8.8 0 0 0 .4-.1l2-1.4a.6.6 0 0 0 0-.2.5.5 0 0 0 .1 0v-.2l.1-.2a.3.3 0 0 0 0-.1.3.3 0 0 0 0-.1.8.8 0 0 0 0-.2H15v-.1l-1.7-2a.7.7 0 0 0-1 0 .8.8 0 0 0-.2 1l.3.4H12a5.8 5.8 0 1 0 5.7 5.7 5.7 5.7 0 0 0-1-3.2Z" />
      </g>
    </symbol>
    <symbol id="ic-save" viewBox="0 0 24 24">
      <g fill="currentColor" data-name="book-saved">
        <path d="M12 5.3v16a1 1 0 0 0 .5 0v-.1a25.7 25.7 0 0 1 7.5-2.4h.3a2 2 0 0 0 1.7-2V4.6a2 2 0 0 0-2.2-2 18.8 18.8 0 0 0-7 2.3l-.3.2a1 1 0 0 1-.5.1Z" data-name="Vector" opacity=".4" />
        <path d="M2 4.7v12a2 2 0 0 0 1.7 2h.4a25.5 25.5 0 0 1 7.4 2.5.9.9 0 0 0 .5.1v-16a1 1 0 0 1-.5-.1l-.2-.1a18.9 18.9 0 0 0-7-2.4h-.1a2 2 0 0 0-2.2 2ZM19 2.8V7a.5.5 0 0 1-.8.4L17 6.7l-1.2.8A.5.5 0 0 1 15 7V3.9a20.2 20.2 0 0 1 4-1.1Z" data-name="Vector" />
      </g>
    </symbol>
    <!-- <i class="svg-icon"><svg><use href="#ic-resume"></use></svg></i> -->
    <symbol id="ic-resume" viewBox="0 0 24 24">
      <title>RESUME</title>
      <path fill="currentColor" d="M20 14h-2v-4h2c.6 0 1 .4 1 1v2c0 .6-.4 1-1 1Zm1 5v-2c0-.6-.4-1-1-1h-2v4h2c.6 0 1-.4 1-1Zm0-12V5c0-.6-.4-1-1-1h-2v4h2c.6 0 1-.4 1-1Z" />
      <path fill="currentColor" d="M17 22H3c-.6 0-1-.4-1-1V3c0-.6.4-1 1-1h14c.6 0 1 .4 1 1v18c0 .6-.4 1-1 1ZM10 7a2 2 0 0 0-2 2c0 1.1.9 2 2 2a2 2 0 0 0 2-2 2 2 0 0 0-2-2Zm3.3 9c.7 0 1.2-.7 1-1.3a4.6 4.6 0 0 0-4.2-2.7c-2 0-3.6 1.1-4.2 2.7-.3.6.3 1.3 1.5 1.3h5.9Z" opacity=".6" />
    </symbol>
    <!-- <i class="svg-icon"><svg><use href="#ic-page"></use></svg></i> -->
    <symbol id="ic-page" viewBox="0 0 24 24">
      <title>PAGE</title>
      <path fill="currentColor" d="M19 22H5c-.6 0-1-.4-1-1V3c0-.6.4-1 1-1h9l6 6v13c0 .6-.4 1-1 1Zm-6.5-4c0-.6.1-.5-.5-.5H8.5c-.6 0-.5-.1-.5.5s-.1.5.5.5L12 18c.6 0 .5.6.5 0Zm4-5c0-.6.1-.5-.5-.5H8.5c-.6 0-.5-.1-.5.5s-.1.5.5.5h7c.6 0 1 .1 1-.5Zm-4-5c0-.6.1-.5-.5-.5H8c-.6 0-.5-.1-.5.5s-.1.5.5.5h4c.6 0 .5.1.5-.5Z" opacity=".3" />
      <rect width="6" height="2" x="7" y="17" fill="currentColor" rx="1" />
      <rect width="10" height="2" x="7" y="12" fill="currentColor" rx="1" />
      <rect width="6" height="2" x="7" y="7" fill="currentColor" rx="1" />
      <path fill="currentColor" d="M15 8h5l-6-6v5c0 .6.4 1 1 1Z" />
    </symbol>
    <!-- <i class="svg-icon"><svg><use href="#ic-seeker"></use></svg></i> -->
    <symbol id="ic-seeker" viewBox="0 0 24 24">
      <title>SEEKERS</title>
      <path fill="currentColor" d="M3 6c-.6 0-1-.4-1-1V3c0-.6.4-1 1-1h2c.6 0 1 .4 1 1s-.4 1-1 1H4v1c0 .6-.4 1-1 1Zm19-1V3c0-.6-.4-1-1-1h-2c-.6 0-1 .4-1 1s.4 1 1 1h1v1c0 .6.4 1 1 1s1-.4 1-1ZM6 21c0-.6-.4-1-1-1H4v-1c0-.6-.4-1-1-1s-1 .4-1 1v2c0 .6.4 1 1 1h2c.6 0 1-.4 1-1Zm16 0v-2c0-.6-.4-1-1-1s-1 .4-1 1v1h-1c-.6 0-1 .4-1 1s.4 1 1 1h2c.6 0 1-.4 1-1Zm-6-10V9a4 4 0 0 0-4-4 4 4 0 0 0-4 4v2c-.8 0-1.5.7-1.5 1.5S7.2 14 8 14v1a4 4 0 0 0 4 4 4 4 0 0 0 4-4v-1c.8 0 1.5-.7 1.5-1.5S16.8 11 16 11Zm-2.6 4c.3 0 .6.3.5.6A2 2 0 0 1 12 17a2 2 0 0 1-1.9-1.3c-.1-.3.1-.7.5-.7h2.8Z" opacity=".4" />
      <path fill="currentColor" d="m9.2 12.9-.1-.3c-.1-.4.2-.9.6-1 .4-.1.9.2 1 .6v.3l-1.5.4Zm5.6 0 .1-.3a.9.9 0 0 0-.6-1 .9.9 0 0 0-1 .6v.3l1.5.4ZM16 7.3l.7-1-1.3-.1-1-.5c-.6-.5-1.4-.7-2.2-.8-2.3-.1-4.1 1.9-4.1 4.2v2.3c.8-.7 1.3-1.6 1.5-2.4 1.4.1 3.8-.3 4.9-.7.2 1.1.8 2.2 1.6 3.1V9l-.3-1.5.2-.2Z" />
    </symbol>
    <!-- <i class="svg-icon"><svg><use href="#ic-date"></use></svg></i> -->
    <symbol id="ic-date" viewBox="0 0 24 24">
      <title>DATE</title>
      <path fill="currentColor" d="M19 3.4c-.6 0-1 .4-1 1v4h-4v-4c0-.6-.4-1-1-1s-1 .4-1 1v4H8v-4c0-.6-.4-1-1-1s-1 .4-1 1v4H2v-4c0-.6-.4-1-1-1s-1 .4-1 1v15c0 .6.4 1 1 1h18c.6 0 1-.4 1-1v-15c0-.6-.4-1-1-1Zm-1 7v3h-4v-3h4Zm-6 0v3H8v-3h4Zm0 5v3H8v-3h4Zm-6-5v3H2v-3h4Zm-4 5h4v3H2v-3Zm12 3v-3h4v3h-4Z" opacity=".3" />
      <path fill="currentColor" d="M19 .4H1c-.6 0-1 .4-1 1v3c0 .6.4 1 1 1h18c.6 0 1-.4 1-1v-3c0-.6-.4-1-1-1Z" />
    </symbol>
    <!-- <i class="svg-icon"><svg><use href="#ic-arrow-double"></use></svg></i> -->
    <symbol id="ic-arrow-double" viewBox="0 0 24 24">
      <title>ARROW DOUBLE</title>
      <path fill="currentColor" d="M9.6 11.4 5.5 7.2A1 1 0 0 1 7 5.8l5.5 5.6c.4.4.4 1 0 1.4L7 18.3a1 1 0 0 1-1.5-1.6l4.1-4.1a1 1 0 0 0 0-1.2Z" opacity=".5" />
      <path fill="currentColor" d="m15.6 11.4-4.2-4.2A1 1 0 0 1 13 5.8l5.6 5.6c.4.4.4 1 0 1.4L13 18.4a1 1 0 0 1-1.5-1.6l4.2-4.1a1 1 0 0 0 0-1.2Z" />
    </symbol>
    <!-- <i class="svg-icon"><svg><use href="#ic-redo"></use></svg></i> -->
    <symbol id="ic-redo" viewBox="0 0 24 24">
      <title>REDO</title>
      <g fill="currentColor">
        <path d="M7.8 2h8.4C19.8 2 22 4.2 22 7.8v8.4c0 3.6-2.2 5.8-5.8 5.8H7.8C4.2 22 2 19.8 2 16.2V7.8C2 4.2 4.2 2 7.8 2Z" opacity=".4" />
        <path d="M17.5 9.2 16 7.6a.8.8 0 0 0-1.1 1l.3.4h-5.1a3.8 3.8 0 1 0 0 7.6H15a.8.8 0 1 0 0-1.5h-5a2.3 2.3 0 0 1 0-4.6h5.2l-.3.2a.8.8 0 0 0 0 1.1.7.7 0 0 0 1 0l1.6-1.6a.8.8 0 0 0 0-1Z" />
      </g>
    </symbol>
    <!-- <i class="svg-icon"><svg><use href="#ic-lovely"></use></svg></i> -->
    <symbol id="ic-lovely" viewBox="0 0 24 24">
      <title>lovely</title>
      <g fill="currentColor">
        <path d="M19.9 8v.5a4.5 4.5 0 0 0-4.6.9 4.4 4.4 0 0 0-3-1.2A4.5 4.5 0 0 0 8 12.7a8.7 8.7 0 0 0 2.8 6.3 1 1 0 0 1-.3 0C7.8 18 2 14.2 2 8a5 5 0 0 1 9-3 5 5 0 0 1 8.9 3Z" opacity=".4" />
        <path d="M18 9.6a3.3 3.3 0 0 0-2.6 1.3 3.3 3.3 0 0 0-6 2 6.1 6.1 0 0 0 .3 2A9 9 0 0 0 15 20a1.3 1.3 0 0 0 .7 0 9 9 0 0 0 5.3-5.2 6.2 6.2 0 0 0 .3-2A3.3 3.3 0 0 0 18 9.6Z" />
      </g>
    </symbol>
    <!-- <i class="svg-icon"><svg><use href="#ic-edit"></use></svg></i> -->
    <symbol id="ic-edit" viewBox="0 0 24 24">
      <title>EDIT</title>
      <g fill="currentColor">
        <path d="M15.5 3h-8C4.1 3 2 5 2 8.5v8C2 19.9 4 22 7.5 22h8c3.4 0 5.5-2 5.5-5.5v-8C21 5.1 19 3 15.5 3Z" opacity=".4" />
        <path d="M7.2 16.8a1.9 1.9 0 0 1-.5-1.6l.4-3a3 3 0 0 1 .8-1.5l5.4-5.4c0 .3.2.5.3.8a7.4 7.4 0 0 0 .4.8 4.4 4.4 0 0 0 .4.5 3.5 3.5 0 0 0 .3.6 1 1 0 0 0 .2.1 7.2 7.2 0 0 0 1 1 1 1 0 0 0 0 .1 5.2 5.2 0 0 0 .6.4l.6.4a8.2 8.2 0 0 0 .8.4l.7.3-5.3 5.4a3 3 0 0 1-1.5.8l-3 .4h-.3a1.8 1.8 0 0 1-1.3-.5Zm12.3-7.2a7.5 7.5 0 0 1-5-5.1.4.4 0 0 1 0-.4L15.6 3C17.5 1 19.2 1.2 21 3a4 4 0 0 1 1.4 2.7A3.8 3.8 0 0 1 21 8.4l-1 1a.4.4 0 0 1-.4.2Z" />
      </g>
    </symbol>
    <!-- <i class="svg-icon"><svg><use href="#ic-calendar-add"></use></svg></i> -->
    <symbol id="ic-calendar-add" viewBox="0 0 24 24">
      <title>CALENDAR-ADD</title>
      <g fill="currentColor">
        <path d="M16.2 21.8a4 4 0 0 1 0-5.6 4 4 0 0 1 5.6 0 4 4 0 0 1 0 5.6A4 4 0 0 1 19 23a4 4 0 0 1-2.8-1.2Zm.6-2.8a.7.7 0 0 0 .7.8h.8v.8a.8.8 0 0 0 .8.7.7.7 0 0 0 .5-.2.7.7 0 0 0 .2-.5v-.8h.7a.7.7 0 0 0 .6-.2.7.7 0 0 0 .2-.6.7.7 0 0 0-.8-.7h-.7v-.7a.8.8 0 0 0-.7-.8.8.8 0 0 0-.8.8v.7h-.8a.8.8 0 0 0-.7.7Zm-9-.8a1 1 0 0 1-.3-.7 1 1 0 0 1 .3-.7 1 1 0 0 1 .3-.2 1 1 0 0 1 1.1.2 1 1 0 0 1 .3.7 1 1 0 0 1-.3.7 1 1 0 0 1-.7.3 1 1 0 0 1-.7-.3Zm3.5-3.5a1 1 0 0 1-.3-.7 1 1 0 0 1 .3-.7 1 1 0 0 1 1.4 0 1 1 0 0 1 .3.7 1 1 0 0 1-.3.7 1 1 0 0 1-.7.3 1 1 0 0 1-.7-.3Zm-3.5 0a1 1 0 0 1-.3-.7 1 1 0 0 1 .3-.7 1 1 0 0 1 .9-.3.6.6 0 0 1 .2 0 .7.7 0 0 1 .2.2h.1a1 1 0 0 1 .3.8 1 1 0 0 1-.3.7l-.1.1a.8.8 0 0 1-.2.1.7.7 0 0 1-.2 0 1.5 1.5 0 0 1-.2.1 1 1 0 0 1-.7-.3ZM3.5 8.3a.5.5 0 0 1-.5-.5 4.2 4.2 0 0 1 4.3-4.2V2a.8.8 0 0 1 .7-.8.8.8 0 0 1 .8.8v1.5h6.5V2a.8.8 0 0 1 .7-.8.8.8 0 0 1 .8.8v1.6A4.2 4.2 0 0 1 21 7.8a.5.5 0 0 1-.5.5Z" />
        <path d="M21 10.8v1.8a1 1 0 0 1-1.1 1 6.1 6.1 0 0 0-.9-.1 5.5 5.5 0 0 0-5.5 5.5 6.2 6.2 0 0 0 .4 1.7 1 1 0 0 1-1 1.3H8c-3.5 0-5-2-5-5v-6.2a1 1 0 0 1 1-1h16a1 1 0 0 1 1 1Z" opacity=".4" />
      </g>
    </symbol>
    <!-- <i class="svg-icon"><svg><use href="#ic-calendar"></use></svg></i> -->
    <symbol id="ic-calendar" viewBox="0 0 24 24">
      <title>CALENDAR</title>
      <g fill="currentColor">
        <path d="M14.789 18.21a1.053 1.053 0 0 1-.29-.711 1.051 1.051 0 0 1 .29-.709 1.047 1.047 0 0 1 1.42 0 1.053 1.053 0 0 1 .29.709 1.055 1.055 0 0 1-.29.711 1.054 1.054 0 0 1-.709.29 1.054 1.054 0 0 1-.711-.29Zm-3.5 0a1.048 1.048 0 0 1-.292-.711 1.046 1.046 0 0 1 .292-.709 1.045 1.045 0 0 1 1.418 0 1.055 1.055 0 0 1 .291.709 1.057 1.057 0 0 1-.291.711 1.051 1.051 0 0 1-.709.29 1.047 1.047 0 0 1-.707-.29Zm-3.171.209a1.044 1.044 0 0 1-.329-.209 1.055 1.055 0 0 1-.292-.711 1.053 1.053 0 0 1 .292-.709 1.027 1.027 0 0 1 .329-.209.961.961 0 0 1 .581-.062.62.62 0 0 1 .18.062.717.717 0 0 1 .18.089c.05.04.1.081.151.12a1.053 1.053 0 0 1 .29.709 1.055 1.055 0 0 1-.29.711c-.052.039-.1.089-.151.12a.736.736 0 0 1-.18.089.573.573 0 0 1-.18.06 1.332 1.332 0 0 1-.2.021.979.979 0 0 1-.379-.081Zm6.67-3.709a1.048 1.048 0 0 1-.29-.709 1.053 1.053 0 0 1 .29-.711 1.057 1.057 0 0 1 .331-.209.946.946 0 0 1 .581-.06.578.578 0 0 1 .178.06.718.718 0 0 1 .182.089c.05.042.1.081.149.12a1.055 1.055 0 0 1 .29.711 1.051 1.051 0 0 1-.29.709l-.149.12a.8.8 0 0 1-.182.091.684.684 0 0 1-.178.06 1.452 1.452 0 0 1-.2.019 1.054 1.054 0 0 1-.711-.29Zm-3.5 0a1.047 1.047 0 0 1-.292-.709 1.048 1.048 0 0 1 .292-.711.929.929 0 0 1 .329-.209 1 1 0 0 1 1.09.209 1.057 1.057 0 0 1 .291.711 1.056 1.056 0 0 1-.291.709l-.149.12a.843.843 0 0 1-.18.091.681.681 0 0 1-.18.06 1.55 1.55 0 0 1-.2.019 1.047 1.047 0 0 1-.707-.29Zm-3.5 0a1.054 1.054 0 0 1-.292-.709 1.055 1.055 0 0 1 .292-.711 1 1 0 0 1 1.089-.209.953.953 0 0 1 .331.209 1.055 1.055 0 0 1 .29.711 1.054 1.054 0 0 1-.29.709 1.055 1.055 0 0 1-.711.29 1.053 1.053 0 0 1-.707-.29ZM3.537 8.34a.5.5 0 0 1-.5-.529A4.249 4.249 0 0 1 7.248 3.56V2.001a.754.754 0 0 1 .749-.75.755.755 0 0 1 .75.75v1.5h6.5v-1.5a.755.755 0 0 1 .75-.75.754.754 0 0 1 .749.75V3.56a4.25 4.25 0 0 1 4.211 4.251.5.5 0 0 1-.5.529Z" />
        <path d="M20 9.84a1 1 0 0 1 1 1V17c0 3-1.5 5-5 5H8c-3.5 0-5-2-5-5v-6.16a1 1 0 0 1 1-1Z" opacity=".4" />
      </g>
    </symbol>
    <!-- <i class="svg-icon"><svg><use href="#ic-time"></use></svg></i> -->
    <symbol id="ic-time" viewBox="0 0 24 24">
      <title>time</title>
      <g fill="currentColor">
        <path d="M20.67 13.33A8.67 8.67 0 1 1 12 4.66a8.67 8.67 0 0 1 8.67 8.67Z" opacity=".4" />
        <path d="M11.25 13V8a.756.756 0 0 1 .75-.749.756.756 0 0 1 .751.749v5a.756.756 0 0 1-.751.751.756.756 0 0 1-.75-.751ZM9.11 3.451a.717.717 0 0 1-.72-.72.726.726 0 0 1 .72-.73h5.78a.717.717 0 0 1 .72.72.726.726 0 0 1-.72.73Z" />
      </g>
    </symbol>
    <!-- <i class="svg-icon"><svg><use href="#ic-messages"></use></svg></i> -->
    <symbol id="ic-messages" viewBox="0 0 24 24">
      <title>MESSAGES</title>
      <g fill="currentColor">
        <path d="M18 10.8v4a6 6 0 0 1 0 .7c-.3 2.7-1.9 4-4.8 4h-.4a.8.8 0 0 0-.6.4L11 21.5a1.1 1.1 0 0 1-2 0l-1.2-1.6a1 1 0 0 0-.6-.3h-.4c-3.2 0-4.8-.8-4.8-4.8v-4c0-3 1.4-4.5 4-4.8a6 6 0 0 1 .8 0h6.4Q18 6 18 10.8Z" opacity=".4" />
        <path d="M18 14.8v-4Q18 6 13.2 6H6.8A6.2 6.2 0 0 0 6 6c.3-2.6 1.9-4 4.8-4h6.4Q22 2 22 6.8v4c0 3-1.4 4.5-4 4.7a5.8 5.8 0 0 0 0-.7ZM12.5 13a1 1 0 0 1 1-1 1 1 0 0 1 1 1 1 1 0 0 1-1 1 1 1 0 0 1-1-1ZM9 13a1 1 0 0 1 1-1 1 1 0 0 1 1 1 1 1 0 0 1-1 1 1 1 0 0 1-1-1Zm-3.5 0a1 1 0 0 1 1-1 1 1 0 0 1 1 1 1 1 0 0 1-1 1 1 1 0 0 1-1-1Z" />
      </g>
    </symbol>
    <!-- <i class="svg-icon"><svg><use href="#ic-forward"></use></svg></i> -->
    <symbol id="ic-forward" viewBox="0 0 24 24">
      <title>FORWARD</title>
      <g fill="currentColor">
        <path d="M16.2 2H7.8C4.2 2 2 4.2 2 7.8v8.4C2 19.8 4.2 22 7.8 22h8.4c3.6 0 5.8-2.2 5.8-5.8V7.8C22 4.2 19.8 2 16.2 2Z" opacity=".4" />
        <path d="M17.5 8.7 16 7a.8.8 0 0 0-1.1 1l.3.4h-5.1a3.8 3.8 0 1 0 0 7.6H15a.8.8 0 1 0 0-1.5h-5a2.3 2.3 0 1 1 0-4.6h5.2l-.3.2a.8.8 0 0 0 0 1.1.7.7 0 0 0 1 0l1.6-1.6a.8.8 0 0 0 0-1Z" />
      </g>
    </symbol>
    <!-- <i class="svg-icon"><svg><use href="#ic-print"></use></svg></i> -->
    <symbol id="ic-print" viewBox="0 0 24 24">
      <title>PRINT</title>
      <g fill="currentColor">
        <path d="M11 22a3 3 0 0 1-3-3v-3.3H7a.8.8 0 0 1-.8-.7.8.8 0 0 1 .8-.7h10a.8.8 0 0 1 .8.7.8.8 0 0 1-.8.8h-1V19a3 3 0 0 1-3 3ZM7 11.7a.8.8 0 0 1-.8-.7.8.8 0 0 1 .8-.8h3a.8.8 0 0 1 .8.8.8.8 0 0 1-.8.7ZM7 7V5a3 3 0 0 1 3-3h4a3 3 0 0 1 3 3v2Z" />
        <path d="M18 7H6a2.7 2.7 0 0 0-3 3v5a2.7 2.7 0 0 0 3 3h2v-3h8v3h2a2.7 2.7 0 0 0 3-3v-5a2.7 2.7 0 0 0-3-3Zm-8 4.8H7a.8.8 0 0 1 0-1.6h3a.8.8 0 0 1 0 1.6Z" opacity=".4" />
      </g>
    </symbol>
    <!-- <i class="svg-icon"><svg><use href="#ic-medal-star"></use></svg></i> -->
    <symbol id="ic-medal-star" viewBox="0 0 24 24">
      <title>MEDAL-STAR</title>
      <g fill="currentColor">
        <path d="M19 9a7 7 0 0 1-6 7 6.2 6.2 0 0 1-2 0 7 7 0 1 1 8-7Z" opacity=".4" />
        <path d="M5.5 21 5 19.7a1 1 0 0 0-.7-.7l-1.7-.4a1 1 0 0 1-.4-1.7l3.9-3.9a7 7 0 0 0 4.8 3 6 6 0 0 0 1 .1l-4.8 5.5a1 1 0 0 1-.7.3 1 1 0 0 1-1-.7Zm11.3.5L12 16a6 6 0 0 0 1 0 7 7 0 0 0 4.8-3.1l4 3.9a1 1 0 0 1-.6 1.7l-1.6.4a1 1 0 0 0-.7.7l-.4 1.5a1 1 0 0 1-1 .7 1 1 0 0 1-.7-.3ZM12 16Zm1.3-4-1-.6a.7.7 0 0 0-.6 0l-1 .6c-.7.4-1.2 0-1-.7l.3-1a.7.7 0 0 0-.2-.7L9 8.8c-.5-.5-.4-1 .3-1.1l1-.2a.7.7 0 0 0 .6-.3l.5-1.2c.3-.7.9-.7 1.2 0l.6 1.2a.7.7 0 0 0 .5.3l1 .2c.7.1.9.6.4 1l-.9 1a.7.7 0 0 0-.1.5l.2 1c.1.6 0 1-.4 1a1.2 1.2 0 0 1-.6-.2Z" />
      </g>
    </symbol>
    <!-- <i class="svg-icon"><svg><use href="#ic-3d-square"></use></svg></i> -->
    <symbol id="ic-3d-square" viewBox="0 0 24 24">
      <title>3D-SQUARE</title>
      <g fill="currentColor">
        <path d="M16.2 2.3H7.8C4.2 2.3 2 4.5 2 8.1v8.4c0 3.7 2.2 5.8 5.8 5.8h8.4c3.6 0 5.8-2.1 5.8-5.8V8.2c0-3.7-2.2-5.9-5.8-5.9Z" opacity=".4" />
        <path d="M12.8 17.8a.8.8 0 0 1-.4-.7v-3.3a1.5 1.5 0 0 1 .8-1.3l3.5-1.8a.9.9 0 0 1 .9 0 .8.8 0 0 1 .4.8v3.3a1.5 1.5 0 0 1-.8 1.3L13.7 18a1 1 0 0 1-.4 0 .8.8 0 0 1-.5 0Zm-2.5 0-3.5-1.7a1.5 1.5 0 0 1-.8-1.3v-3.3a.8.8 0 0 1 .4-.7.9.9 0 0 1 .8 0l3.5 1.7a1.5 1.5 0 0 1 .9 1.3v3.3a.8.8 0 0 1-.4.7.8.8 0 0 1-.5.2.9.9 0 0 1-.4-.1Zm1-6-3.7-2a.9.9 0 0 1-.4-.8.9.9 0 0 1 .4-.8l3.8-2a1.4 1.4 0 0 1 1.2 0l3.8 2a.9.9 0 0 1 .5.8.9.9 0 0 1-.5.8l-3.8 2a1.3 1.3 0 0 1-.6.1 1.3 1.3 0 0 1-.6-.1Z" />
      </g>
    </symbol>
    <!-- <i class="svg-icon"><svg><use href="#ic-book-en"></use></svg></i> -->
    <symbol id="ic-book-en" viewBox="0 0 24 24">
      <title>BOOK-EN</title>
      <g fill="currentColor">
        <path d="M12 21.3V18h2.4a.6.6 0 0 0 .4-.2.5.5 0 0 0 .2-.3.5.5 0 0 0-.2-.4.6.6 0 0 0-.4-.2H12v-3.6h2a.6.6 0 0 0 .3-.1.5.5 0 0 0 .2-.4.5.5 0 0 0-.2-.4.6.6 0 0 0-.4-.2H12V9.1h2.2a.6.6 0 0 0 .4-.2.5.5 0 0 0 .2-.4.5.5 0 0 0-.2-.4.6.6 0 0 0-.4-.1H12V5.3a1 1 0 0 0 .5-.1l.3-.2a18.7 18.7 0 0 1 7-2.3h.2a2 2 0 0 1 2 2v12a2 2 0 0 1-1.7 2H20a25.7 25.7 0 0 0-7.5 2.5 1 1 0 0 1-.5.1Z" opacity=".4" />
        <path d="M12 21.3a.9.9 0 0 1-.5 0 25.4 25.4 0 0 0-7.4-2.5h-.4a2 2 0 0 1-1.7-2V4.6a2 2 0 0 1 2-2h.2A18.7 18.7 0 0 1 11.3 5h.2a1 1 0 0 0 .5.2V8H9.6a.6.6 0 0 0-.4.1.5.5 0 0 0-.2.4v9a.5.5 0 0 0 .2.3.5.5 0 0 0 .4.2H12v3.3Zm0-4.4h-1a.6.6 0 0 1-.5-.1.5.5 0 0 1-.1-.4v-2.6a.5.5 0 0 1 .1-.3.6.6 0 0 1 .4-.2H12V17Zm0-4.7h-1a.6.6 0 0 1-.5-.1.5.5 0 0 1-.1-.4v-2a.5.5 0 0 1 .1-.5.6.6 0 0 1 .4-.1H12v3.1Zm6.5-4.6a.5.5 0 0 1-.3-.1L17 6.7l-1.2.8a.5.5 0 0 1-.3 0 .5.5 0 0 1-.3 0A.5.5 0 0 1 15 7V3.9a20.1 20.1 0 0 1 4-1.1V7a.5.5 0 0 1-.5.5Z" />
      </g>
    </symbol>
    <!-- <i class="svg-icon"><svg><use href="#ic-book-ch"></use></svg></i> -->
    <symbol id="ic-book-ch" viewBox="0 0 24 24">
      <title>BOOK-CH</title>
      <g fill="currentColor">
        <path d="M12 21.3v-6.8l.3-.2a4.2 4.2 0 0 0 3 1.4.5.5 0 0 0 .6-.5.5.5 0 0 0-.5-.5 3.3 3.3 0 0 1-2.4-1.2 5.7 5.7 0 0 0 1.2-3h1.2a.5.5 0 0 0 .5-.6.5.5 0 0 0-.5-.5h-2.9v-.6a.5.5 0 0 0-.5-.5v-3a1 1 0 0 0 .5-.1l.3-.2a18.7 18.7 0 0 1 7-2.3h.2a2 2 0 0 1 2 2v12a2 2 0 0 1-1.7 2H20a25.6 25.6 0 0 0-7.5 2.5 1 1 0 0 1-.5.1Zm0-8.2v-2.7h1.2a4.8 4.8 0 0 1-1.2 2.7Z" opacity=".4" />
        <path d="M12 21.3a.9.9 0 0 1-.5 0 25.4 25.4 0 0 0-7.4-2.5h-.4a2 2 0 0 1-1.7-2V4.6a2 2 0 0 1 2-2h.2A18.8 18.8 0 0 1 11.3 5h.2a1 1 0 0 0 .5.2v3a.5.5 0 0 0-.5.5v.6H8.6a.5.5 0 0 0-.5.5.5.5 0 0 0 .5.5H12v2.7a4.5 4.5 0 0 1-3.4 1.6.5.5 0 0 0-.5.5.5.5 0 0 0 .5.5 5.4 5.4 0 0 0 3.4-1.2v6.8Zm6.5-13.7a.5.5 0 0 1-.3-.1L17 6.7l-1.2.8a.5.5 0 0 1-.3 0 .5.5 0 0 1-.3 0A.5.5 0 0 1 15 7V3.9a20.2 20.2 0 0 1 4-1.1V7a.5.5 0 0 1-.5.5Z" />
      </g>
    </symbol>
    <!-- <i class="svg-icon"><svg><use href="#ic-data"></use></svg></i> -->
    <symbol id="ic-data" viewBox="0 0 24 24">
      <title>DATA</title>
      <g fill="currentColor">
        <path d="M17.2 22a1.2 1.2 0 0 1-1.2-1.2v-1.6a1.2 1.2 0 0 1 1.2-1.2h3.6a1.2 1.2 0 0 1 1.2 1.2v1.6a1.2 1.2 0 0 1-1.2 1.2Zm0-7.5a1.2 1.2 0 0 1-1.2-1.2v-1.6a1.2 1.2 0 0 1 1.2-1.2h3.6a1.2 1.2 0 0 1 1.2 1.2v1.6a1.2 1.2 0 0 1-1.2 1.2ZM4 8a2 2 0 0 1-2-2V4a2 2 0 0 1 2-2h3a2 2 0 0 1 2 2v2a2 2 0 0 1-2 2Zm13.2-1A1.2 1.2 0 0 1 16 5.8V4.2A1.2 1.2 0 0 1 17.2 3h3.6A1.2 1.2 0 0 1 22 4.2v1.6A1.2 1.2 0 0 1 20.8 7Z" />
        <path d="M16 13.3a.8.8 0 0 0 0-1.6h-2.8v-6H16a.8.8 0 0 0 .8-.7.8.8 0 0 0-.8-.8H9a.8.8 0 0 0-.8.8.8.8 0 0 0 .8.8h2.8V18a2.7 2.7 0 0 0 2.7 2.8H16a.8.8 0 0 0 0-1.6h-1.5a1.3 1.3 0 0 1-1.3-1.2v-4.8Z" opacity=".4" />
      </g>
    </symbol>
    <!-- <i class="svg-icon"><svg><use href="#ic-cup"></use></svg></i> -->
    <symbol id="ic-cup" viewBox="0 0 24 24">
      <title>CUP</title>
      <g fill="currentColor">
        <path d="M6 22A.8.8 0 015.3 21.2.8.8 0 016 20.5H7V20.3A2 2 0 019 18.3H11.2V16A6.6 6.6 0 0012 16 6.7 6.7 0 0012.8 16V18.3H15A2 2 0 0117 20.3V20.5H18A.8.8 0 0118.8 21.2.8.8 0 0118 22ZM19 9V6A4 4 0 0018.6 4.3H19.1A2.5 2.5 0 0121.7 6.8 5.5 5.5 0 0120.2 10.5 4.9 4.9 0 0118.5 11.6 6.8 6.8 0 0019 9ZM3.8 10.5A5.5 5.5 0 012.3 6.8 2.5 2.5 0 014.8 4.3H5.4A3.9 3.9 0 005 6V9A6.8 6.8 0 005.5 11.6 4.9 4.9 0 013.8 10.5ZM13.2 11.4 12.3 11A.9.9 0 0011.7 11L10.8 11.4A.6.6 0 019.9 10.7L9.9 9.7A.8.8 0 009.8 9.2L9.2 8.5A.6.6 0 019.5 7.3L10.5 7.1A.8.8 0 0010.9 6.8L11.4 6A.6.6 0 0112.6 6L13.1 6.8A.8.8 0 0013.5 7.1L14.5 7.3A.6.6 0 0114.8 8.5L14.2 9.2A.8.8 0 0014.1 9.7L14.1 10.7C14.1 11.1 13.9 11.4 13.5 11.4A.9.9 0 0113.2 11.4Z" opacity=".4" />
        <path d="M15 2H9a4 4 0 00-4 4v3a7 7 0 0014 0V6a4 4 0 00-4-4Zm-.2 6.4-.6.8a.8.8 0 00-.1.5v1a.6.6 0 01-1 .7l-.8-.4a1 1 0 00-.6 0l-.9.4a.6.6 0 01-1-.7l.1-1a.8.8 0 00-.1-.5l-.6-.8a.6.6 0 01.3-1l1-.3a.8.8 0 00.4-.3l.5-.8a.6.6 0 011.2 0l.5.8a.8.8 0 00.4.3l1 .2a.6.6 0 01.3 1.1Z" />
      </g>
    </symbol>
    <!-- <i class="svg-icon"><svg><use href="#ic-diamond"></use></svg></i> -->
    <symbol id="ic-diamond" viewBox="0 0 24 24">
      <title>DIAMOND</title>
      <g fill="currentColor">
        <path d="m21.2 13.2-6.8 7.6a3.1 3.1 0 0 1-4.8 0l-6.8-7.6a3.5 3.5 0 0 1-.6-3.4L3 8h18l.8 1.8a3.5 3.5 0 0 1-.6 3.4Z" />
        <path d="M21 8H3l1.8-4a2.9 2.9 0 0 1 2.9-1.9h8.6a2.9 2.9 0 0 1 3 2Z" opacity=".4" />
      </g>
    </symbol>
    <!-- <i class="svg-icon"><svg><use href="#ic-archive-book"></use></svg></i> -->
    <symbol id="ic-archive-book" viewBox="0 0 24 24">
      <title>ARCHIVE-BOOK</title>
      <g fill="currentColor">
        <path d="M21 7v10c0 3-1.5 5-5 5H8c-3.5 0-5-2-5-5V7c0-3 1.5-5 5-5h8c3.5 0 5 2 5 5Z" opacity=".4" />
        <path d="M9 18.8a.8.8 0 0 1-.7-.8.8.8 0 0 1 .7-.7h8.5a.8.8 0 0 1 .8.7.8.8 0 0 1-.8.8Zm4.3-4a.8.8 0 0 1-.8-.8.8.8 0 0 1 .8-.7h4.2a.8.8 0 0 1 .8.7.8.8 0 0 1-.8.8Zm-4.8-5V2h7v7.9a.5.5 0 0 1-.8.3l-2.4-2.1a.5.5 0 0 0-.6 0l-2.4 2.1a.5.5 0 0 1-.3.2.5.5 0 0 1-.5-.5Z" />
      </g>
    </symbol>
    <!-- <i class="svg-icon"><svg><use href="#ic-language-ch"></use></svg></i> -->
    <symbol id="ic-language-ch" viewBox="0 0 24 24">
      <title>LANGUAGE-CH</title>
      <g fill="currentColor">
        <path d="M16.2 2H7.8C4.2 2 2 4.2 2 7.8v8.4C2 19.8 4.2 22 7.8 22h8.4c3.6 0 5.8-2.2 5.8-5.8V7.8C22 4.2 19.8 2 16.2 2Z" opacity=".4" />
        <path d="M17 16a4.8 4.8 0 0 1-3.6-1.7 8.5 8.5 0 0 0 1.8-4.6H17a.8.8 0 0 0 0-1.5h-2.5c-.1 0 0 0 0 0h-1.8v-1a.8.8 0 0 0-1.5 0v1H7a.8.8 0 0 0 0 1.5h6.7A6.9 6.9 0 0 1 7 16a.8.8 0 0 0 0 1.5 8 8 0 0 0 5.4-2.1 6.3 6.3 0 0 0 4.6 2 .8.8 0 0 0 .7-.7.7.7 0 0 0-.7-.7Z" />
      </g>
    </symbol>
    <!-- <i class="svg-icon"><svg><use href="#ic-language-en"></use></svg></i> -->
    <symbol id="ic-language-en" viewBox="0 0 24 24">
      <title>LANGUAGE-EN</title>
      <g fill="currentColor">
        <path d="M16.2 2H7.8C4.2 2 2 4.2 2 7.8v8.4C2 19.8 4.2 22 7.8 22h8.4c3.6 0 5.8-2.2 5.8-5.8V7.8C22 4.2 19.8 2 16.2 2Z" opacity=".4" />
        <path d="M14.6 12.4h-4a.8.8 0 0 0-.6.2.6.6 0 0 0-.2.4v3a.6.6 0 0 0 .2.5.8.8 0 0 0 .6.2h4.6a.8.8 0 0 1 .6.2.6.6 0 0 1 .2.4.6.6 0 0 1-.2.5.8.8 0 0 1-.6.2H8.7a.8.8 0 0 1-.5-.2.6.6 0 0 1-.2-.4V6.6a.6.6 0 0 1 .2-.4.8.8 0 0 1 .5-.2H15a.9.9 0 0 1 .5.2.6.6 0 0 1 .3.4.6.6 0 0 1-.3.5.8.8 0 0 1-.5.2h-4.3a.8.8 0 0 0-.6.2.6.6 0 0 0-.2.4v2.6a.6.6 0 0 0 .2.4.8.8 0 0 0 .6.2h4a.8.8 0 0 1 .5.2.6.6 0 0 1 .3.4.6.6 0 0 1-.3.5.8.8 0 0 1-.5.2Z" />
      </g>
    </symbol>
    <!-- <i class="svg-icon"><svg><use href="#ic-eye"></use></svg></i> -->
    <symbol id="ic-eye" viewBox="0 0 24 24">
      <title>EYE</title>
      <g fill="currentColor">
        <path d="M21.3 9.2c-2.4-3.7-5.7-5.8-9.3-5.8A9.7 9.7 0 0 0 7 5a13.4 13.4 0 0 0-4.3 4.3 5.8 5.8 0 0 0 0 5.6c2.4 3.7 5.7 5.8 9.3 5.8a9.7 9.7 0 0 0 5-1.5 13.4 13.4 0 0 0 4.3-4.3 5.8 5.8 0 0 0 0-5.6ZM12 16a4 4 0 1 1 4-4 4 4 0 0 1-4 4Z" opacity=".4" />
        <path d="M12 9.1a2.9 2.9 0 1 0 2.9 2.9A2.9 2.9 0 0 0 12 9.1Z" data-name="Vector" />
      </g>
    </symbol>
    <!-- <i class="svg-icon"><svg><use href="#ic-business-plan"></use></svg></i> -->
    <symbol id="ic-business-plan" viewBox="0 0 28 28">
      <title>BUSINESS-PLAN</title>
      <path fill="none" d="M0 0h28v28H0z" />
      <path fill="currentColor" d="M11.1 13.3h-.9a.4.4 0 1 1 0-.9h2.2a.9.9 0 0 0 0-1.7h-.8v-1a.9.9 0 0 0-1.8 0v1a2.2 2.2 0 0 0 .4 4.4h1a.4.4 0 0 1 0 .9H8.8a.9.9 0 0 0 0 1.8h.9v.9a.9.9 0 0 0 1.8 0v-1a2.2 2.2 0 0 0-.5-4.4Zm0 0h-.9a.4.4 0 1 1 0-.9h2.2a.9.9 0 0 0 0-1.7h-.8v-1a.9.9 0 0 0-1.8 0v1a2.2 2.2 0 0 0 .4 4.4h1a.4.4 0 0 1 0 .9H8.8a.9.9 0 0 0 0 1.8h.9v.9a.9.9 0 0 0 1.8 0v-1a2.2 2.2 0 0 0-.5-4.4Zm0 0h-.9a.4.4 0 1 1 0-.9h2.2a.9.9 0 0 0 0-1.7h-.8v-1a.9.9 0 0 0-1.8 0v1a2.2 2.2 0 0 0 .4 4.4h1a.4.4 0 0 1 0 .9H8.8a.9.9 0 0 0 0 1.8h.9v.9a.9.9 0 0 0 1.8 0v-1a2.2 2.2 0 0 0-.5-4.4Zm12-5.3a.9.9 0 0 0-.9.9v2.7H17V6.2h2.7a.9.9 0 0 0 0-1.8H5.3a.9.9 0 0 0-.9 1V23a.9.9 0 0 0 1 .9H23a.9.9 0 0 0 .9-.9V9a.9.9 0 0 0-.9-1Zm-.9 14.2H17V17h5.3Zm0-7H16a.9.9 0 0 0-.9.8v6.2H6.2v-16h9v6.2a.9.9 0 0 0 .8 1h6.2Zm-12-2.8h2.2a.9.9 0 0 0 0-1.7h-.8v-1a.9.9 0 0 0-1.8 0v1a2.2 2.2 0 0 0 .4 4.4h1a.4.4 0 0 1 0 .9H8.8a.9.9 0 0 0 0 1.8h.9v.9a.9.9 0 0 0 1.8 0v-1a2.2 2.2 0 0 0-.5-4.4h-.9a.4.4 0 1 1 0-.9Zm1 1h-1a.4.4 0 1 1 0-1h2.2a.9.9 0 0 0 0-1.7h-.8v-1a.9.9 0 0 0-1.8 0v1a2.2 2.2 0 0 0 .4 4.4h1a.4.4 0 0 1 0 .9H8.8a.9.9 0 0 0 0 1.8h.9v.9a.9.9 0 0 0 1.8 0v-1a2.2 2.2 0 0 0-.5-4.4Zm0 0h-1a.4.4 0 1 1 0-1h2.2a.9.9 0 0 0 0-1.7h-.8v-1a.9.9 0 0 0-1.8 0v1a2.2 2.2 0 0 0 .4 4.4h1a.4.4 0 0 1 0 .9H8.8a.9.9 0 0 0 0 1.8h.9v.9a.9.9 0 0 0 1.8 0v-1a2.2 2.2 0 0 0-.5-4.4Zm0 0h-1a.4.4 0 1 1 0-1h2.2a.9.9 0 0 0 0-1.7h-.8v-1a.9.9 0 0 0-1.8 0v1a2.2 2.2 0 0 0 .4 4.4h1a.4.4 0 0 1 0 .9H8.8a.9.9 0 0 0 0 1.8h.9v.9a.9.9 0 0 0 1.8 0v-1a2.2 2.2 0 0 0-.5-4.4Zm0 0h-1a.4.4 0 1 1 0-1h2.2a.9.9 0 0 0 0-1.7h-.8v-1a.9.9 0 0 0-1.8 0v1a2.2 2.2 0 0 0 .4 4.4h1a.4.4 0 0 1 0 .9H8.8a.9.9 0 0 0 0 1.8h.9v.9a.9.9 0 0 0 1.8 0v-1a2.2 2.2 0 0 0-.5-4.4Zm0 0h-1a.4.4 0 1 1 0-1h2.2a.9.9 0 0 0 0-1.7h-.8v-1a.9.9 0 0 0-1.8 0v1a2.2 2.2 0 0 0 .4 4.4h1a.4.4 0 0 1 0 .9H8.8a.9.9 0 0 0 0 1.8h.9v.9a.9.9 0 0 0 1.8 0v-1a2.2 2.2 0 0 0-.5-4.4Zm12-5.4a.9.9 0 0 0-1 .9v2.7H17V6.2h2.7a.9.9 0 0 0 0-1.8H5.3a.9.9 0 0 0-.9 1V23a.9.9 0 0 0 1 .9H23a.9.9 0 0 0 .9-.9V9a.9.9 0 0 0-.9-1Zm-1 14.2H17V17h5.3Zm0-7H16a.9.9 0 0 0-.9.8v6.2H6.2v-16h9v6.2a.9.9 0 0 0 .8 1h6.2Zm-12-2.8h2.2a.9.9 0 0 0 0-1.7h-.8v-1a.9.9 0 0 0-1.8 0v1a2.2 2.2 0 0 0 .4 4.4h1a.4.4 0 0 1 0 .9H8.8a.9.9 0 0 0 0 1.8h.9v.9a.9.9 0 0 0 1.8 0v-1a2.2 2.2 0 0 0-.5-4.4h-.9a.4.4 0 1 1 0-.9Zm1 1h-1a.4.4 0 1 1 0-1h2.2a.9.9 0 0 0 0-1.7h-.8v-1a.9.9 0 0 0-1.8 0v1a2.2 2.2 0 0 0 .4 4.4h1a.4.4 0 0 1 0 .9H8.8a.9.9 0 0 0 0 1.8h.9v.9a.9.9 0 0 0 1.8 0v-1a2.2 2.2 0 0 0-.5-4.4Zm0 0h-1a.4.4 0 1 1 0-1h2.2a.9.9 0 0 0 0-1.7h-.8v-1a.9.9 0 0 0-1.8 0v1a2.2 2.2 0 0 0 .4 4.4h1a.4.4 0 0 1 0 .9H8.8a.9.9 0 0 0 0 1.8h.9v.9a.9.9 0 0 0 1.8 0v-1a2.2 2.2 0 0 0-.5-4.4Zm0 0h-1a.4.4 0 1 1 0-1h2.2a.9.9 0 0 0 0-1.7h-.8v-1a.9.9 0 0 0-1.8 0v1a2.2 2.2 0 0 0 .4 4.4h1a.4.4 0 0 1 0 .9H8.8a.9.9 0 0 0 0 1.8h.9v.9a.9.9 0 0 0 1.8 0v-1a2.2 2.2 0 0 0-.5-4.4Zm0 0h-1a.4.4 0 1 1 0-1h2.2a.9.9 0 0 0 0-1.7h-.8v-1a.9.9 0 0 0-1.8 0v1a2.2 2.2 0 0 0 .4 4.4h1a.4.4 0 0 1 0 .9H8.8a.9.9 0 0 0 0 1.8h.9v.9a.9.9 0 0 0 1.8 0v-1a2.2 2.2 0 0 0-.5-4.4Zm16-8.7-3.5-3.6a1 1 0 0 0-.6-.2H1.8a.9.9 0 0 0-1 .9v24.9a.9.9 0 0 0 1 .8h24.9a.9.9 0 0 0 .8-.8V5.3a1 1 0 0 0-.2-.6Zm-1.4 21H2.7v-23h19.5v2.6a.9.9 0 0 0 1 1h2.6ZM22.2 9v2.7H17V6.2h2.7a.9.9 0 0 0 0-1.8H5.3a.9.9 0 0 0-.9 1V23a.9.9 0 0 0 1 .9H23a.9.9 0 0 0 .9-.9V9a.9.9 0 1 0-1.8 0Zm0 13.3H17V17h5.3Zm0-7H16a.9.9 0 0 0-.9.8v6.2H6.2v-16h9v6.2a.9.9 0 0 0 .8 1h6.2Zm-12-2.8h2.2a.9.9 0 0 0 0-1.7h-.9v-1a.9.9 0 0 0-1.7 0v1a2.2 2.2 0 0 0 .4 4.4h1a.4.4 0 0 1 0 .9H8.8a.9.9 0 0 0 0 1.8h.9v.9a.9.9 0 0 0 1.8 0v-1a2.2 2.2 0 0 0-.5-4.4h-.9a.4.4 0 1 1 0-.9Zm1 1h-1a.4.4 0 1 1 0-1h2.2a.9.9 0 0 0 0-1.7h-.9v-1a.9.9 0 0 0-1.7 0v1a2.2 2.2 0 0 0 .4 4.4h1a.4.4 0 0 1 0 .9H8.8a.9.9 0 0 0 0 1.8h.9v.9a.9.9 0 0 0 1.8 0v-1a2.2 2.2 0 0 0-.5-4.4Zm0 0h-1a.4.4 0 1 1 0-1h2.2a.9.9 0 0 0 0-1.7h-.9v-1a.9.9 0 0 0-1.7 0v1a2.2 2.2 0 0 0 .4 4.4h1a.4.4 0 0 1 0 .9H8.8a.9.9 0 0 0 0 1.8h.9v.9a.9.9 0 0 0 1.8 0v-1a2.2 2.2 0 0 0-.5-4.4Z" />
    </symbol>
    <!-- <i class="svg-icon"><svg><use href="#ic-sitemap"></use></svg></i> -->
    <symbol id="ic-sitemap" viewBox="0 0 32 32">
      <title>SITEMAP</title>
      <g fill="currentColor">
        <path d="M7.6 22.6H1.9a1 1 0 0 0-.9.9v3.8a1 1 0 0 0 1 .9h5.6a1 1 0 0 0 .9-1v-3.7a1 1 0 0 0-1-1ZM18.8 22.6h-5.6a1 1 0 0 0-1 .9v3.8a1 1 0 0 0 1 .9h5.6a1 1 0 0 0 1-1v-3.7a1 1 0 0 0-1-1ZM5.7 18.8h7.5a1 1 0 0 0 1-1v-3.7a1 1 0 0 0-1-1H5.7a1 1 0 0 0-1 1V18a1 1 0 0 0 1 1ZM17.9 14.1V18a1 1 0 0 0 1 1h7.4a1 1 0 0 0 1-1V14a1 1 0 0 0-1-1h-7.5a1 1 0 0 0-1 1ZM11.3 9.4h9.4a1 1 0 0 0 1-.9V4.8a1 1 0 0 0-1-1h-9.4a1 1 0 0 0-1 1v3.7a1 1 0 0 0 1 1ZM30 22.6h-5.6a1 1 0 0 0-.9.9v3.8a1 1 0 0 0 1 .9H30a1 1 0 0 0 .9-1v-3.7a1 1 0 0 0-1-1Z" />
      </g>
    </symbol>
    <!-- <i class="svg-icon"><svg><use href="#ic-share"></use></svg></i> -->
    <symbol id="ic-share" viewBox="0 0 24 24">
      <title>SHARE</title>
      <g fill="currentColor">
        <path d="M8 21a.7.7 0 0 1-.4-1 .7.7 0 0 1 1-.3 7.5 7.5 0 0 0 2 .7 7.6 7.6 0 0 0 2.8 0 7.5 7.5 0 0 0 2-.6.7.7 0 0 1 1 .3.7.7 0 0 1-.4 1 9 9 0 0 1-4 .9 9 9 0 0 1-4-1Zm-4.3-8.2A.7.7 0 0 1 3 12a9 9 0 0 1 3.8-6.5.7.7 0 0 1 1 .2.7.7 0 0 1-.1 1A7.6 7.6 0 0 0 4.5 12a.7.7 0 0 1-.8.7Zm16.7 0a.7.7 0 0 1-.8-.7 7.6 7.6 0 0 0-3.2-5.5.7.7 0 0 1-.2-1 .7.7 0 0 1 1-.2 9.1 9.1 0 0 1 3.9 6.5.7.7 0 0 1-.7.8Z" opacity=".4" />
        <path d="M16.1 16.7a2.8 2.8 0 0 1 2.8-2.8 2.8 2.8 0 0 1 2.9 2.8 2.8 2.8 0 0 1-2.9 2.8 2.8 2.8 0 0 1-2.8-2.8Zm-13.9 0A2.8 2.8 0 0 1 5 13.9 2.8 2.8 0 0 1 8 16.7 2.8 2.8 0 0 1 5 19.5a2.8 2.8 0 0 1-2.8-2.8Zm7-11.9A2.8 2.8 0 0 1 12 2 2.8 2.8 0 0 1 15 4.8 2.8 2.8 0 0 1 12 7.7a2.8 2.8 0 0 1-2.8-2.9Z" />
      </g>
    </symbol>
    <!-- <i class="svg-icon"><svg><use href="#ic-send"></use></svg></i> -->
    <symbol id="ic-send" viewBox="0 0 24 24">
      <title>SEND</title>
      <path fill="currentColor" d="M15.4 8.6 10.7 15a1 1 0 0 0 0 1l2.5 5.3a1 1 0 0 0 .9.6 1 1 0 0 0 .9-.6l7-18a1 1 0 0 0-.3-1.1l-6.3 6.3Z" />
      <path fill="currentColor" d="m20.7 2-18 7a1 1 0 0 0-.1 1.8l5.3 2.5a1 1 0 0 0 1 0l6.5-4.7 6.3-6.3a1 1 0 0 0-1-.2Z" opacity=".3" />
    </symbol>
    <!-- <i class="svg-icon"><svg><use href="#ic-dim"></use></svg></i> -->
    <symbol id="ic-dim" viewBox="0 0 24 24">
      <title>DIM</title>
      <rect width="20" height="20" x="2" y="2" fill="currentColor" opacity=".3" rx="5" />
      <rect width="12" height="2" x="6" y="10.9" fill="currentColor" rx="1" />
    </symbol>
    <!-- <i class="svg-icon"><svg><use href="#ic-add"></use></svg></i> -->
    <symbol id="ic-add" viewBox="0 0 24 24">
      <title>ADD</title>
      <rect width="20" height="20" x="2" y="2" fill="currentColor" opacity=".3" rx="5" />
      <rect width="12" height="2" x="10.9" y="17.8" fill="currentColor" rx="1" transform="rotate(-90 10.9 17.8)" />
      <rect width="12" height="2" x="6" y="10.9" fill="currentColor" rx="1" />
    </symbol>
    <!-- <i class="svg-icon"><svg><use href="#ic-love"></use></svg></i> -->
    <symbol id="ic-love" viewBox="0 0 24 24">
      <title>LOVE</title>
      <path fill="currentColor" d="M18.4 4.7A5 5 0 0 0 12 5.9a5 5 0 0 0-6.4-1.2 5.3 5.3 0 0 0-2.3 6.2C4 14.9 9.7 20 12 20c2.3 0 7.9-5.1 8.7-9.1a5.3 5.3 0 0 0-2.3-6.2Z" />
    </symbol>
    <!-- <i class="svg-icon"><svg><use href="#ic-more"></use></svg></i> -->
    <symbol id="ic-more" viewBox="0 0 24 24">
      <title>MORE</title>
      <rect width="4" height="4" x="10" y="10" fill="currentColor" rx="2" />
      <rect width="4" height="4" x="17" y="10" fill="currentColor" rx="2" />
      <rect width="4" height="4" x="3" y="10" fill="currentColor" rx="2" />
    </symbol>
    <!-- <i class="svg-icon"><svg><use href="#ic-more-sq"></use></svg></i> -->
    <symbol id="ic-more-sq" viewBox="0 0 24 24">
      <title>MORE</title>
      <rect width="20" height="20" x="2" y="2" fill="currentColor" opacity=".3" rx="4" />
      <rect width="2.6" height="2.6" x="11" y="11" fill="currentColor" rx="1.3" />
      <rect width="2.6" height="2.6" x="15" y="11" fill="currentColor" rx="1.3" />
      <rect width="2.6" height="2.6" x="7" y="11" fill="currentColor" rx="1.3" />
    </symbol>
    <!-- <i class="svg-icon"><svg><use href="#ic-character-b"></use></svg></i> -->
    <symbol id="ic-character-b" viewBox="0 0 24 24">
      <title>CHARACTER BOTTOM</title>
      <path d="M11.4343 12.7344L7.25 8.55005C6.83579 8.13583 6.16421 8.13584 5.75 8.55005C5.33579 8.96426 5.33579 9.63583 5.75 10.05L11.2929 15.5929C11.6834 15.9835 12.3166 15.9835 12.7071 15.5929L18.25 10.05C18.6642 9.63584 18.6642 8.96426 18.25 8.55005C17.8358 8.13584 17.1642 8.13584 16.75 8.55005L12.5657 12.7344C12.2533 13.0468 11.7467 13.0468 11.4343 12.7344Z" fill="currentColor" />
    </symbol>
    <!-- <i class="svg-icon"><svg><use href="#ic-character-t"></use></svg></i> -->
    <symbol id="ic-character-t" viewBox="0 0 24 24">
      <title>CHARACTER TOP</title>
      <path d="M12.5657 11.3657L16.75 15.55C17.1642 15.9643 17.8358 15.9643 18.25 15.55C18.6642 15.1358 18.6642 14.4643 18.25 14.05L12.7071 8.50716C12.3166 8.11663 11.6834 8.11663 11.2929 8.50715L5.75 14.05C5.33579 14.4643 5.33579 15.1358 5.75 15.55C6.16421 15.9643 6.83579 15.9643 7.25 15.55L11.4343 11.3657C11.7467 11.0533 12.2533 11.0533 12.5657 11.3657Z" fill="currentColor" />
    </symbol>
    <!-- <i class="svg-icon"><svg><use href="#ic-arrow-l-d"></use></svg></i> -->
    <symbol id="ic-arrow-l-d" viewBox="0 0 24 24">
      <title>ARROW LEFT</title>
      <rect width="13" height="2" x="6" y="11" fill="currentColor" opacity=".5" rx="1" />
      <path fill="currentColor" d="m8.6 11.4 4.2-4.2a1 1 0 0 0-1.6-1.5l-5.5 5.6a1 1 0 0 0 0 1.4l5.5 5.6a1 1 0 0 0 1.6-1.6l-4.2-4.1a.8.8 0 0 1 0-1.2Z" />
    </symbol>
    <!-- <i class="svg-icon"><svg><use href="#ic-arrow-r-d"></use></svg></i> -->
    <symbol id="ic-arrow-r-d" viewBox="0 0 24 24">
      <title>ARROW RIGHT</title>
      <rect width="13" height="2" x="18" y="13" opacity=".5" fill="currentColor" rx="1" transform="rotate(-180 18 13)" />
      <path fill="currentColor" d="m15.4 12.6-4.2 4.2a1 1 0 0 0 1.6 1.4l5.5-5.5c.4-.4.4-1 0-1.4l-5.6-5.6a1 1 0 0 0-1.4 1.5l4.1 4.2c.3.3.3.9 0 1.2Z" />
    </symbol>
    <!-- <i class="svg-icon"><svg><use href="#ic-arrow-l"></use></svg></i> -->
    <symbol id="ic-arrow-l" viewBox="0 0 24 24">
      <title>ARROW LEFT</title>
      <path d="M9.60001 11H21C21.6 11 22 11.4 22 12C22 12.6 21.6 13 21 13H9.60001V11Z" fill="currentColor" />
      <path opacity="0.3" d="M9.6 20V4L2.3 11.3C1.9 11.7 1.9 12.3 2.3 12.7L9.6 20Z" fill="currentColor" />
    </symbol>
    <!-- <i class="svg-icon"><svg><use href="#ic-arrow-r"></use></svg></i> -->
    <symbol id="ic-arrow-r" viewBox="0 0 24 24">
      <title>ARROW RIGHT</title>
      <path fill="currentColor" d="M14.4 11H3c-.6 0-1 .4-1 1s.4 1 1 1h11.4v-2Z" />
      <path fill="currentColor" d="M14.4 20V4l7.3 7.3c.4.4.4 1 0 1.4L14.4 20Z" opacity=".36" />
    </symbol>
    <!-- <i class="svg-icon"><svg><use href="#ic-moneys"></use></svg></i> -->
    <symbol id="ic-moneys" viewBox="0 0 24 24">
      <title>MONEYS</title>
      <g fill="currentColor">
        <path d="M19.3 8v5c0 3.1-1.8 4.5-4.4 4.5H6.1a5.8 5.8 0 0 1-1.3-.2 3.9 3.9 0 0 1-.7-.2c-1.5-.5-2.4-1.8-2.4-4V7.9c0-3 1.8-4.4 4.4-4.4H15c2.2 0 3.8 1 4.3 3.1a7.2 7.2 0 0 1 .1 1.3Z" opacity=".4" />
        <path d="M22.3 11v5c0 3.1-1.8 4.5-4.4 4.5H9.1a5.6 5.6 0 0 1-2-.4 3.5 3.5 0 0 1-2.3-2.8 5.8 5.8 0 0 0 1.3.2H15c2.6 0 4.4-1.4 4.4-4.4V7.9a6.3 6.3 0 0 0-.1-1.3c1.9.4 3.1 1.8 3.1 4.3Z" />
        <path d="M13.1 10.5a2.6 2.6 0 1 1-2.6-2.6 2.6 2.6 0 0 1 2.6 2.6ZM4.8 8.3A.8.8 0 0 0 4 9v3a.8.8 0 0 0 .8.8.8.8 0 0 0 .7-.8V9a.7.7 0 0 0-.7-.8ZM16.2 8.3a.8.8 0 0 0-.7.7v3a.8.8 0 0 0 .7.8.8.8 0 0 0 .8-.8V9a.7.7 0 0 0-.8-.8Z" />
      </g>
    </symbol>
    <!-- <i class="svg-icon"><svg><use href="#ic-cost"></use></svg></i> -->
    <symbol id="ic-cost" viewBox="0 0 24 24">
      <title>COST</title>
      <path fill="currentColor" d="M12.5 22c-.6 0-1-.4-1-1V3c0-.6.4-1 1-1s1 .4 1 1v18c0 .6-.4 1-1 1Z" opacity=".3" />
      <path fill="currentColor" d="M17.8 14.7a4 4 0 0 1-.6 2.2c-.4.7-1 1.2-1.9 1.5-.8.4-1.8.6-2.9.6-1.3 0-2.4-.3-3.3-.8-.6-.4-1.1-.8-1.5-1.5-.4-.6-.6-1.2-.6-1.8l.3-.9c.2-.2.5-.4.9-.4.3 0 .5.1.7.3l.5.8.6 1.1.8.7c.4.2.8.3 1.4.3.8 0 1.5-.2 2-.6.5-.4.8-.9.8-1.4 0-.4-.1-.8-.4-1.1a2 2 0 0 0-1.1-.6l-1.7-.5c-1-.2-1.8-.5-2.4-.8a4 4 0 0 1-1.6-1.2c-.4-.5-.6-1.2-.6-2 0-.7.2-1.4.6-2 .4-.6 1-1 1.8-1.3a7.6 7.6 0 0 1 4.9-.2c.6.2 1.1.5 1.5.8.4.3.7.7.9 1.1.2.4.3.7.3 1.1l-.3.9c-.2.3-.5.4-.9.4l-.7-.2-.5-.8c-.2-.5-.5-.9-.9-1.2-.4-.3-.9-.4-1.7-.4-.7 0-1.3.2-1.7.5-.4.3-.7.7-.7 1.1l.2.7.6.5c.2.1.5.3.8.3l1.3.4 2.1.6 1.6.8c.4.3.8.7 1 1.2.2.5.4 1.1.4 1.8Z" />
    </symbol>
    <!-- <i class="svg-icon"><svg><use href="#ic-question"></use></svg></i> -->
    <symbol id="ic-question" viewBox="0 0 24 24">
      <title>QUESTION</title>
      <rect width="20" height="20" x="2" y="2" fill="currentColor" opacity=".3" rx="10" />
      <path fill="currentColor" d="M11.3 13.7a2.4 2.4 0 0 1 .6-1.7l.7-.6.7-.7c.2-.2.3-.5.3-.8 0-.3-.1-.5-.3-.8-.2-.3-.6-.4-1.2-.4s-1 .2-1.3.5c-.2.3-.3.6-.3 1v.4H8.8V10a2.7 2.7 0 0 1 1.5-2.5c.5-.2 1.2-.4 2-.4.9 0 1.7.2 2.2.7.6.4.9 1 .9 1.8 0 .5 0 .9-.2 1.2l-.5.7-.8.7-.8.7c-.2.3-.3.5-.3.9v.4h-1.5v-.6Zm-.1 1.5h1.7V17h-1.7v-1.8Z" />
    </symbol>
    <!-- <i class="svg-icon"><svg><use href="#ic-list-sm"></use></svg></i> -->
    <symbol id="ic-list-sm" viewBox="0 0 24 24">
      <title>LIST</title>
      <g fill="currentColor">
        <path d="M4.1 21C2.6 21 2 20.7 2 20v-2c0-.7.6-1 2.1-1h15.8c1.5 0 2.1.3 2.1 1v2c0 .7-.6 1-2.1 1Zm0-14C2.6 7 2 6.7 2 6V4c0-.7.6-1 2.1-1h15.8c1.5 0 2.1.3 2.1 1v2c0 .7-.6 1-2.1 1Z" opacity=".4" />
        <path d="M19.9 10H4.1c-1.5 0-2.1.3-2.1 1v2c0 .7.6 1 2.1 1h15.8c1.5 0 2.1-.3 2.1-1v-2c0-.7-.6-1-2.1-1Z" />
      </g>
    </symbol>
    <!-- <i class="svg-icon"><svg><use href="#ic-grid"></use></svg></i> -->
    <symbol id="ic-grid" viewBox="0 0 24 24">
      <title>GRID</title>
      <g fill="currentColor">
        <path d="M4.2 22C2.6 22 2 21.4 2 19.8v-4c0-1.7.6-2.3 2.2-2.3h4c1.7 0 2.3.6 2.3 2.2v4c0 1.7-.6 2.3-2.2 2.3Zm15.6-11.5h-4c-1.7 0-2.3-.6-2.3-2V4c0-1.4.6-2 2.2-2h4c1.7 0 2.3.6 2.3 2v4.5c0 1.4-.6 2-2.2 2Z" opacity=".4" />
        <path d="M15.7 22c-1.6 0-2.2-.6-2.2-2.2v-4c0-1.7.6-2.3 2.2-2.3h4c1.7 0 2.3.6 2.3 2.2v4c0 1.7-.6 2.3-2.2 2.3ZM8.3 10.5h-4c-1.7 0-2.3-.6-2.3-2V4c0-1.4.6-2 2.2-2h4c1.7 0 2.3.6 2.3 2v4.5c0 1.4-.6 2-2.2 2Z" />
      </g>
    </symbol>
    <!-- <i class="svg-icon"><svg><use href="#ic-list"></use></svg></i> -->
    <symbol id="ic-list" viewBox="0 0 24 24">
      <title>LIST</title>
      <g fill="currentColor">
        <path d="M19.9 13.5H4.1c-1.5 0-2.1.6-2.1 2.2v4c0 1.7.6 2.3 2.1 2.3h15.8c1.5 0 2.1-.6 2.1-2.2v-4c0-1.7-.6-2.3-2.1-2.3Z" opacity=".4" />
        <path d="M19.9 2H4.1C2.6 2 2 2.6 2 4.2v4c0 1.7.6 2.3 2.1 2.3h15.8c1.5 0 2.1-.6 2.1-2.2v-4c0-1.7-.6-2.3-2.1-2.3Z" />
      </g>
    </symbol>
    <!-- <i class="svg-icon"><svg><use href="#ic-close"></use></svg></i> -->
    <symbol id="ic-close" viewBox="0 0 24 24">
      <title>CLOSE</title>
      <g fill="currentColor">
        <path d="M9.2 8.4a.7.7 0 0 1 .5.2L12 11l2.3-2.3a.8.8 0 0 1 1 0 .7.7 0 0 1 .3.6.7.7 0 0 1-.2.5L13 12l2.3 2.3a.7.7 0 0 1 .2.5.7.7 0 0 1-.2.6.8.8 0 0 1-1.1 0L12 13l-2.3 2.3a.8.8 0 0 1-1 0 .7.7 0 0 1-.3-.6.7.7 0 0 1 .2-.5L11 12 8.6 9.7a.7.7 0 0 1-.2-.5.7.7 0 0 1 .2-.6.7.7 0 0 1 .6-.2Z" data-name="Union 178" />
        <path d="M15 22.8H9c-2.8 0-4.6-.6-6-1.9S1.3 17.8 1.3 15V9c0-2.8.6-4.6 1.9-6S6.2 1.3 9 1.3h6c2.8 0 4.6.6 6 1.9s1.8 3.1 1.8 5.9v6c0 2.8-.6 4.6-1.9 6s-3.1 1.8-5.9 1.8Zm-6-20c-2.3 0-3.9.4-4.8 1.4S2.7 6.7 2.7 9v6c0 2.3.5 3.9 1.5 4.8s2.5 1.4 4.8 1.4h6c2.3 0 3.9-.4 4.8-1.4s1.4-2.5 1.4-4.8V9c0-2.3-.4-3.9-1.4-4.8S17.3 2.7 15 2.7Z" />
      </g>
    </symbol>
    <!-- <i class="svg-icon"><svg><use href="#ic-prize"></use></svg></i> -->
    <symbol id="ic-prize" viewBox="0 0 24 24">
      <title>PRIZE</title>
      <path fill="currentColor" d="M14 18v-2h-4v2l-1 2h6l-1-2Z" />
      <path fill="currentColor" d="M20 4h-3V3c0-.6-.4-1-1-1H8c-.6 0-1 .4-1 1v1H4c-.6 0-1 .4-1 1v4a4 4 0 0 0 4 4l3 3h4l3-3a4 4 0 0 0 4-4V5c0-.6-.4-1-1-1ZM5 9V6h2v5a2 2 0 0 1-2-2Zm14 0a2 2 0 0 1-2 2V6h2v3Zm-2 12v1H7v-1c0-.6.4-1 1-1h8c.6 0 1 .4 1 1ZM10 9c-.6 0-1-.4-1-1V5c0-.6.4-1 1-1s1 .4 1 1v3c0 .6-.4 1-1 1Zm0 4c-.6 0-1-.4-1-1v-1c0-.6.4-1 1-1s1 .4 1 1v1c0 .6-.4 1-1 1Z" opacity=".3" />
    </symbol>
    <!-- <i class="svg-icon"><svg><use href="#ic-user"></use></svg></i> -->
    <symbol id="ic-user" viewBox="0 0 24 24">
      <title>USER</title>
      <g fill="currentColor">
        <path d="M22 12A10 10 0 1 1 12 2a10 10 0 0 1 10 10Z" opacity=".4" />
        <path d="M12 7a3.7 3.7 0 0 0 0 7.4h.1A3.7 3.7 0 0 0 12 7ZM18.8 19.4A10 10 0 0 1 12 22a10 10 0 0 1-6.8-2.6A4.3 4.3 0 0 1 7.1 17a9.6 9.6 0 0 1 9.8 0 4.2 4.2 0 0 1 1.9 2.4Z" />
      </g>
    </symbol>
    <!-- <i class="svg-icon"><svg><use href="#ic-info"></use></svg></i> -->
    <symbol id="ic-info" viewBox="0 0 24 24">
      <title>INFO</title>
      <rect width="20" height="20" x="2" y="2" fill="currentColor" opacity=".3" rx="10" />
      <rect width="7" height="2" x="11" y="17" fill="currentColor" rx="1" transform="rotate(-90 11 17)" />
      <rect width="2" height="2" x="11" y="9" fill="currentColor" rx="1" transform="rotate(-90 11 9)" />
    </symbol>
    <!-- <i class="svg-icon"><svg><use href="#ic-burger"></use></svg></i> -->
    <symbol id="ic-burger" viewBox="0 0 24 24">
      <title>BURGER</title>
      <g id="menu" transform="translate(-684 -380)">
        <path d="M18,.75H0A.75.75,0,0,1-.75,0,.75.75,0,0,1,0-.75H18a.75.75,0,0,1,.75.75A.75.75,0,0,1,18,.75Z" transform="translate(687 387)" fill="currentColor" />
        <path d="M-9919.249,5444.5a.751.751,0,0,1-.752-.751.751.751,0,0,1,.752-.75h18a.75.75,0,0,1,.749.75.75.75,0,0,1-.749.751Z" transform="translate(10606.25 -5051.75)" fill="currentColor" opacity="0.34" />
        <path d="M18,.75H0A.75.75,0,0,1-.75,0,.75.75,0,0,1,0-.75H18a.75.75,0,0,1,.75.75A.75.75,0,0,1,18,.75Z" transform="translate(687 397)" fill="currentColor" />
      </g>
    </symbol>
    <!-- <i class="svg-icon"><svg><use href="#ic-search"></use></svg></i> -->
    <symbol id="ic-search" viewBox="0 0 24 24">
      <title>SEARCH</title>
      <path fill="currentColor" d="m21.7 18.9-3.1-3.1c-.7 1.1-1.7 2.1-2.8 2.8l3.1 3.1c.4.4 1 .4 1.4 0l1.4-1.4c.4-.4.4-1 0-1.4Z" />
      <path fill="currentColor" d="M11 20c-5 0-9-4-9-9s4-9 9-9 9 4 9 9-4 9-9 9Zm0-16c-3.9 0-7 3.1-7 7s3.1 7 7 7 7-3.1 7-7-3.1-7-7-7Zm-3 7c0-1.7 1.3-3 3-3 .6 0 1-.4 1-1s-.4-1-1-1c-2.8 0-5 2.2-5 5 0 .6.4 1 1 1s1-.4 1-1Z" opacity=".36" />
    </symbol>
    <!-- <i class="svg-icon"><svg><use href="#ic-zoom-in"></use></svg></i> -->
    <symbol id="ic-zoom-in" viewBox="0 0 24 24">
      <title>zoom-in</title>
      <g fill="currentColor">
        <path d="M20 11a9 9 0 1 1-9-9 9 9 0 0 1 9 9Z" opacity=".4" />
        <path d="M19.7 22.3c-.4 0-1.2-.4-1.6-1.7a2 2 0 0 1 .2-1.8A2 2 0 0 1 20 18a2 2 0 0 1 2 1 2 2 0 0 1-.3 2.1 2.2 2.2 0 0 1-1.8 1.2 1.2 1.2 0 0 1-.2 0Zm-9.5-8.8v-1.8H8.5a.8.8 0 0 1-.8-.7.8.8 0 0 1 .8-.7h1.7V8.4a.8.8 0 0 1 .8-.7.8.8 0 0 1 .7.7v1.8h1.8a.8.8 0 0 1 .7.7.8.8 0 0 1-.7.8h-1.8v1.7a.8.8 0 0 1-.7.7.8.8 0 0 1-.8-.7Z" />
      </g>
    </symbol>
    <!-- <i class="svg-icon"><svg><use href="#ic-search-out"></use></svg></i> -->
    <symbol id="ic-search-out" viewBox="0 0 24 24">
      <title>SEARCH</title>
      <rect width="8.2" height="2" x="17" y="15.1" fill="currentColor" opacity=".5" rx="1" transform="rotate(45 17 15.1)" />
      <path fill="currentColor" d="M11 19a8 8 0 0 1-8-8 8 8 0 0 1 8-8 8 8 0 0 1 8 8 8 8 0 0 1-8 8Zm0-14c-3.5 0-6 2.5-6 6s2.5 6 6 6 6-2.5 6-6-2.5-6-6-6Z" />
    </symbol>
    <!-- <i class="svg-icon"><svg><use href="#ic-images"></use></svg></i> -->
    <symbol id="ic-images" viewBox="0 0 24 24">
      <g fill="currentColor">
        <path d="M22 8v6l-2-1a2 2 0 0 0-2 0l-5 3a2 2 0 0 1-2 0h-1a2 2 0 0 0-2 0l-5 3a7 7 0 0 1-1-3V8c0-4 2-6 6-6h8c4 0 6 2 6 6Z" opacity=".4" />
        <path d="M11 8a2 2 0 1 1-2-2 2 2 0 0 1 2 2Zm11 6v2c0 4-2 6-6 6H8c-3 0-5-1-5-3l5-3a2 2 0 0 1 2 0h1a2 2 0 0 0 2 0l5-4a2 2 0 0 1 2 0Z" />
      </g>
    </symbol>
    <!-- <i class="svg-icon"><svg><use href="#ic-briefcase"></use></svg></i> -->
    <symbol id="ic-briefcase" viewBox="0 0 24 24">
      <title>BRIEFCASE</title>
      <g fill="currentColor">
        <path d="M21 7c-.8-1-2.2-1.4-4.2-1.4h-.3c0-1.7 0-3.8-3.7-3.8h-1.6c-3.7 0-3.7 2-3.7 3.7h-.3c-2 0-3.4.6-4.3 1.5a4.5 4.5 0 0 0-.8 3.6v1.1a.2.2 0 0 0 .1 0 15 15 0 0 0 1.5 1 17.2 17.2 0 0 0 5.5 1.8c0 1 .5 2 2.7 2s2.6-1 2.7-2a16.8 16.8 0 0 0 5.7-2l.2-.2a12.8 12.8 0 0 0 1.3-.8l.1-.4v-.7a4.4 4.4 0 0 0-.8-3.4Zm-8 6.8c0 1 0 1.3-1.1 1.3s-1.3-.2-1.3-1.3v-1.2h2.5ZM9 5.6c0-1.8 0-2.4 2.2-2.4h1.6c2.3 0 2.3.6 2.3 2.3H8.9Z" />
        <path d="M20.5 12.3h-.2a17 17 0 0 1-5.7 2.2c-.1 1-.5 2-2.7 2s-2.6-1-2.7-2a16.7 16.7 0 0 1-5.5-1.9l-.5-.2a15 15 0 0 1-1-.7l.6 6.5c.2 2 1 4 5.4 4h7.6c4.4 0 5.2-2 5.4-4l.7-6.8a12.5 12.5 0 0 1-1.4.9Z" opacity=".4" />
      </g>
    </symbol>
    <!-- <i class="svg-icon"><svg><use href="#ic-star"></use></svg></i> -->
    <symbol id="ic-star" viewBox="0 0 24 24">
      <title>收藏</title>
      <g fill="currentColor">
        <path d="M11.1 4.5C11.5 3.8 12.5 3.8 12.9 4.5L15 8.2C15.2 8.4 15.4 8.6 15.7 8.6L19.8 9.5C20.6 9.7 20.9 10.6 20.4 11.2L17.5 14.4C17.3 14.6 17.2 14.9 17.3 15.1L17.7 19.4C17.8 20.1 17 20.7 16.3 20.4L12.4 18.7C12.1 18.6 11.9 18.6 11.6 18.7L7.7 20.4C7 20.7 6.2 20.1 6.3 19.4L6.7 15.1C6.8 14.9 6.7 14.6 6.5 14.4L3.6 11.2C3.1 10.6 3.4 9.7 4.2 9.5L8.3 8.6C8.6 8.6 8.8 8.4 9 8.2L11.1 4.5Z" />
      </g>
    </symbol>
    <!-- <i class="svg-icon"><svg><use href="#ic-map"></use></svg></i> -->
    <symbol id="ic-map" viewBox="0 0 24 24">
      <title>MAP</title>
      <g fill="currentColor">
        <path d="M7.8 22a6 6 0 0 1-.7 0 6 6 0 0 1-1.7-.4C3.2 20.8 2 18.9 2 16.2V7.8C2 4.2 4.2 2 7.8 2h8.4c2.7 0 4.6 1.2 5.4 3.3a6 6 0 0 1 .4 1.8 5.6 5.6 0 0 1 0 .7v8.4a6.1 6.1 0 0 1-1 3.7 4 4 0 0 1-1.1 1 6.1 6.1 0 0 1-3.7 1.1Z" opacity=".4" />
        <path d="m5.4 21.6.3-.4L21.6 5.3a6 6 0 0 1 .4 1.8L15 14l6 5.9a4 4 0 0 1-1.1 1L14 15.1 7.1 22a6 6 0 0 1-1.7-.4Zm2.3-9.4A4.7 4.7 0 0 1 6 8a3.1 3.1 0 0 1 3.1-2.4A3.1 3.1 0 0 1 12.2 8a4.6 4.6 0 0 1-1.7 4.3 2 2 0 0 1-1.4.6 2 2 0 0 1-1.4-.6Zm.5-3.7a1 1 0 0 0 1 1 1 1 0 0 0 1-1 1 1 0 0 0-1-1 1 1 0 0 0-1 1Z" />
      </g>
    </symbol>
    <!-- <i class="svg-icon"><svg><use href="#ic-gps"></use></svg></i> -->
    <symbol id="ic-gps" viewBox="0 0 24 24">
      <title>GPS</title>
      <g fill="currentColor">
        <path d="M20 12a8 8 0 1 1-8-8 8 8 0 0 1 8 8Z" opacity=".4" />
        <path d="M15.1 12A3.1 3.1 0 1 1 12 8.9a3.1 3.1 0 0 1 3.1 3.1ZM12.8 2v2a6 6 0 0 0-.8 0 6 6 0 0 0-.7 0V2a.8.8 0 0 1 .7-.8.8.8 0 0 1 .8.8ZM4 12a6.2 6.2 0 0 0 0 .8H2a.8.8 0 0 1-.8-.8.8.8 0 0 1 .8-.8h2a6.2 6.2 0 0 0 0 .8ZM12.8 20v2a.8.8 0 0 1-.8.7.8.8 0 0 1-.8-.7v-2a6 6 0 0 0 .8 0 6 6 0 0 0 .7 0ZM22.8 12a.8.8 0 0 1-.8.8h-2a6.2 6.2 0 0 0 0-.8 6.2 6.2 0 0 0 0-.8h2a.8.8 0 0 1 .8.8Z" />
      </g>
    </symbol>
    <!-- <i class="svg-icon"><svg><use href="#ic-route"></use></svg></i> -->
    <symbol id="ic-route" viewBox="0 0 24 24">
      <title>ROUTE</title>
      <g fill="currentColor">
        <path fill="currentColor" d="M16.2 2H7.8C4.2 2 2 4.2 2 7.8v8.4C2 19.8 4.2 22 7.8 22h8.4c3.6 0 5.8-2.2 5.8-5.8V7.8C22 4.2 19.8 2 16.2 2Z" opacity=".4" />
        <path fill="currentColor" d="M17.4 9 15 16.7a2 2 0 0 1-3.6 0l-.7-2a1.9 1.9 0 0 0-1.3-1.2l-2-.7a2 2 0 0 1 0-3.7L15 6.6a2 2 0 0 1 2.4 2.5Z" />
      </g>
    </symbol>
    <!-- <i class="svg-icon"><svg><use href="#ic-location"></use></svg></i> -->
    <symbol id="ic-location" viewBox="0 0 24 24">
      <title>LOCATION</title>
      <g fill="currentColor">
        <path d="M20.6 8.4A8.6 8.6 0 0 0 12 1.7a8.6 8.6 0 0 0-8.6 6.7c-1.2 5.2 2 9.6 4.8 12.3a5.4 5.4 0 0 0 7.6 0c2.8-2.7 6-7 4.8-12.3Z" opacity=".4" />
        <path d="M15.2 10.3A3.1 3.1 0 1 1 12 7.2a3.1 3.1 0 0 1 3.2 3.1Z" />
      </g>
    </symbol>
    <!-- <i class="svg-icon"><svg><use href="#ic-filter"></use></svg></i> -->
    <symbol id="ic-filter" viewBox="0 0 24 24">
      <title>FILTER</title>
      <g fill="currentColor">
        <path d="M17.6 21.3V12h-1a.9.9 0 0 1-.8-1 .9.9 0 0 1 .9-.8h2.7a.9.9 0 0 1 .9.9.9.9 0 0 1-1 .9h-.9v9.3a.9.9 0 0 1-.9.9.9.9 0 0 1-.9-.9Zm-13 0V12h-1a.9.9 0 0 1-.9-1 .9.9 0 0 1 1-.8h2.6a.9.9 0 0 1 1 .9.9.9 0 0 1-1 .9h-1v9.3a.9.9 0 0 1-.8.9.9.9 0 0 1-1-.9Zm13-14V2.8a.9.9 0 0 1 1-.9.9.9 0 0 1 .8.9v4.6a.9.9 0 0 1-.9 1 .9.9 0 0 1-.9-1Zm-13 0V2.8a.9.9 0 0 1 .9-.9.9.9 0 0 1 .9.9v4.6a.9.9 0 0 1-1 1 .9.9 0 0 1-.8-1Z" opacity=".4" />
        <path d="M11.1 21.3v-4.6a.9.9 0 0 1 .9-1 .9.9 0 0 1 .9 1v4.6a.9.9 0 0 1-.9.9.9.9 0 0 1-.9-.9Zm-1-7.5a.9.9 0 0 1-.9-.9.9.9 0 0 1 1-.9h.9V2.7a.9.9 0 0 1 .9-.9.9.9 0 0 1 .9.9V12h1a.9.9 0 0 1 .9 1 .9.9 0 0 1-1 .8Z" />
      </g>
    </symbol>
    <!-- <i class="svg-icon"><svg><use href="#ic-routing"></use></svg></i> -->
    <symbol id="ic-routing" viewBox="0 0 24 24">
      <title>ROUTING</title>
      <g fill="currentColor">
        <path d="M17 21.4c-1.1-1-2.4-2.8-2-4.8.9-3.5 6.1-3.5 7 0 .4 2-1 3.8-2 4.8a2.1 2.1 0 0 1-1.5.6 2.1 2.1 0 0 1-1.5-.6Zm.5-4.2a1 1 0 0 0 1 1 1 1 0 0 0 1-1 1 1 0 0 0-1-1 1 1 0 0 0-1 1ZM4 9.4C3 8.4 1.6 6.6 2 4.6 3 1.1 8 1.1 9 4.6c.4 2-.8 3.8-2 4.8a2.1 2.1 0 0 1-1.4.6A2.1 2.1 0 0 1 4 9.4Zm.5-4.2a1 1 0 0 0 1 1 1 1 0 0 0 1-1 1 1 0 0 0-1-1 1 1 0 0 0-1 1Z" opacity=".4" />
        <path d="M9.3 19.8A2.7 2.7 0 0 1 6.8 18a2.7 2.7 0 0 1 .7-3l8-7a1.2 1.2 0 0 0 .4-1.4 1.2 1.2 0 0 0-1.2-.8H12a.8.8 0 0 1-.8-.8.8.8 0 0 1 .8-.7h2.7A2.7 2.7 0 0 1 17.3 6a2.7 2.7 0 0 1-.8 3l-8 7a1.2 1.2 0 0 0-.3 1.4 1.2 1.2 0 0 0 1.1.8H12a.8.8 0 0 1 .8.8.8.8 0 0 1-.8.8Zm8.2-2.6a1 1 0 0 1 1-1 1 1 0 0 1 1 1 1 1 0 0 1-1 1 1 1 0 0 1-1-1Zm-13-12a1 1 0 0 1 1-1 1 1 0 0 1 1 1 1 1 0 0 1-1 1 1 1 0 0 1-1-1Z" />
      </g>
    </symbol>
    <!-- <i class="svg-icon"><svg><use href="#ic-education"></use></svg></i> -->
    <symbol id="ic-education" viewBox="0 0 24 24">
      <title>EDUCATION</title>
      <g fill="currentColor">
        <path d="M18.38 12.84v4.93a3.43 3.43 0 0 1-2.18 3.03l-3.19 1.06a3.65 3.65 0 0 1-2.02 0L7.8 20.8a3.41 3.41 0 0 1-2.18-3.03l.01-4.93 4.42 2.88a3.91 3.91 0 0 0 3.94 0Z" opacity=".4" />
        <path d="M19.98 6.46 14 2.53a3.91 3.91 0 0 0-3.94 0L4.03 6.46a3.19 3.19 0 0 0 0 5.34l1.6 1.04 4.42 2.88a3.91 3.91 0 0 0 3.94 0l4.39-2.88 1.37-.9V15a.75.75 0 0 0 1.5 0v-4.92a3.17 3.17 0 0 0-1.27-3.62Z" />
      </g>
    </symbol>
    <!-- <i class="svg-icon"><svg><use href="#ic-briefcase"></use></svg></i> -->
    <symbol id="ic-loading" width="34px" height="34px" viewBox="0 0 128 128" xml:space="preserve">
            <title>LOADING</title>
            <g fill="currentColor">
            <path class="circle-preloader-0" d="M75.4 126.63a11.43 11.43 0 0 1-2.1-22.65 40.9 40.9 0 0 0 30.5-30.6 11.4 11.4 0 1 1 22.27 4.87h.02a63.77 63.77 0 0 1-47.8 48.05v-.02a11.38 11.38 0 0 1-2.93.37z" />
            <animateTransform attributeName="transform" type="rotate" from="0 64 64" to="360 64 64" dur="1200ms" repeatCount="indefinite"></animateTransform>
                </g>
            </symbol>
    <!-- Socails -->
    <!-- <i class="svg-icon"><svg><use href="#ic-youtube"></use></svg></i> -->
    <symbol id="ic-youtube" viewBox="0 0 24 24">
      <title>YOUTUBE</title>
      <path fill="currentColor" d="M21 6.3c-.5-1-1.1-1.1-2.3-1.2L11.9 5l-6.8.1c-1.2.1-1.8.2-2.3 1.2-.6 1-.8 2.6-.8 5.6 0 2.9.3 4.6.8 5.6s1.1 1.1 2.3 1.2l6.8.1 6.8-.1c1.2-.1 1.8-.3 2.3-1.2.6-1 .8-2.6.8-5.6 0-2.9-.3-4.6-.8-5.6ZM9.9 15.7V8.2l4.6 2.8c.8.5.8 1.5 0 2l-4.6 2.7Z" />
    </symbol>
    <!-- <i class="svg-icon"><svg><use href="#ic-facebook"></use></svg></i> -->
    <symbol id="ic-facebook" viewBox="0 0 24 24">
      <title>FACEBOOK</title>
      <path fill="currentColor" d="M12 22a10 10 0 1 0 0-20 10 10 0 0 0 0 20Z" opacity=".3" />
      <path fill="currentColor" d="M13.6 9.4a1.2 1.2 0 0 1 1.2-1.2H16v-3h-2.4a3.5 3.5 0 0 0-3.5 3.6v3H7.8v2.9H10v7.1c1.2.2 2.4.3 3.5 0v-7.1H16l1.2-3h-3.6V9.4Z" />
    </symbol>
    <!-- <i class="svg-icon"><svg><use href="#ic-twitter"></use></svg></i> -->
    <symbol id="ic-twitter" viewBox="0 0 24 24">
      <title>TWITEER</title>
      <path fill="currentColor" d="M19 4.4a4.4 4.4 0 0 0-7.2 1.2c-.8 1.8.1 3.9-.6 5.7-1.1 3-3.4 5.6-6.3 6.6-.4.1-1.1.3-1.8.3-.5.1-.7.8-.2 1A12.3 12.3 0 0 0 20.2 7.8v-.6a8 8 0 0 0 1.7-1.9.8.8 0 0 0-.5-1.2c-.9.1-1.7.1-2.4.3Z" opacity=".3" />
      <path fill="currentColor" d="M11.5 8.3c-3.2-.2-5.9-1.5-8.2-3.8-.4-.4-1-.2-1.1.3-.6 1.8.2 3.6 1.7 4.8a5 5 0 0 1-1.2-.2c-.3-.1-.7.2-.6.6a4.3 4.3 0 0 0 3.3 3.4l-1.1.2c-.4 0-.6.5-.4.8a4 4 0 0 0 3.6 2.1c1.3 0 2.6 0 3.7-.7 1.5-.9 2.7-2.6 2.6-4.4.1-1.4-.7-3-2.3-3.1Z" />
    </symbol>
    <!-- <i class="svg-icon"><svg><use href="#ic-instagram"></use></svg></i> -->
    <symbol id="ic-instagram" viewBox="0 0 24 24">
      <title>INSTAGRAM</title>
      <path fill="currentColor" d="M22 8.2v7.5c0 3.4-2.8 6.3-6.3 6.3H8.2A6.3 6.3 0 0 1 2 15.7V8.2C2 4.8 4.8 2 8.2 2h7.5A6.1 6.1 0 0 1 22 8.2Zm-10-.9a4.7 4.7 0 0 0-4.6 4.6c0 2.5 2.1 4.6 4.6 4.6 2.5 0 4.6-2.1 4.6-4.6 0-2.6-2.1-4.6-4.6-4.6ZM17.9 5c-.6 0-1 .4-1 1s.4 1 1 1 1-.4 1-1c0-.5-.5-1-1-1Z" opacity=".3" />
      <path fill="currentColor" d="M12 17.5a5.6 5.6 0 1 1 0-11.2 5.6 5.6 0 0 1 0 11.2Zm0-9.2c-2 0-3.6 1.6-3.6 3.6s1.6 3.6 3.6 3.6 3.6-1.6 3.6-3.6S14 8.3 12 8.3Z" />
    </symbol>
    <!-- <i class="svg-icon"><svg><use href="#ic-burger-lt"></use></svg></i> -->
    <symbol id="ic-burger-lt" viewBox="0 0 16 16">
      <title>BURGER-LEFT</title>
      <rect width="12" height="1.5" x="2" y="4" fill="currentColor" rx="2" />
      <rect width="6" height="1.5" x="2" y="7.5" fill="currentColor" opacity=".4" rx="1.5" />
      <rect width="10" height="1.5" x="2" y="11.5" fill="currentColor" opacity=".4" rx="1.5" />
    </symbol>
  </defs>
</svg>
