<svg xmlns="http://www.w3.org/2000/svg" width="295.934" height="101.192" viewBox="0 0 295.934 101.192">
  <path id="bubble" d="M263.954,31.695c-15.9-2.4-32.556-4.284-82.977-3.815-79.67.74-121.785.26-145.294,5.51C17.2,37.52,1.35,45.086,2.3,65.5L4,82.89c1.01,21.68,11.678,29.377,21.934,30.838,14.884,2.12,29.72,3.52,54.512-.848C67.932,118.263,66.954,129,66.954,129s1.992-7.686,32.218-14c17.933-5.043,118.2,3.687,163.51-2.544,21.317-2.932,33.706-8.26,34.228-27.022l1.272-26.717c.46-16.58-12.34-23.718-34.23-27.022Z" transform="translate(-2.26 -27.808)" fill="#314a5d"/>
</svg>
