<svg xmlns="http://www.w3.org/2000/svg" width="48.5" height="14.502" viewBox="0 0 48.5 14.502">
  <g id="heading_line_w" transform="translate(-769.47 -22.178)">
    <path id="Path_1097" data-name="Path 1097" d="M793.231,36.43a.524.524,0,0,1-.48-.305l-4.026-8.911L786.949,31.7a.526.526,0,0,1-.49.329H779.32a.514.514,0,1,1,0-1.028h6.78l2.1-5.314a.524.524,0,0,1,.477-.329.517.517,0,0,1,.492.306l3.921,8.68,2.965-11.524a.529.529,0,0,1,.985-.094L801.006,31h6.06a.514.514,0,1,1,0,1.028h-6.394a.525.525,0,0,1-.475-.3l-3.48-7.267L793.74,36.041a.522.522,0,0,1-.465.387A.317.317,0,0,1,793.231,36.43Z" transform="translate(0.529 0)" fill="#fff" stroke="#fff" stroke-width="0.5"/>
    <path id="Path_1098" data-name="Path 1098" d="M776.879,31.812h-6.63a.529.529,0,1,1,0-1.058h6.63a.529.529,0,0,1,0,1.058Z" transform="translate(0 0.214)" fill="#fff" stroke="#fff" stroke-width="0.5"/>
    <path id="Path_1099" data-name="Path 1099" d="M815.191,31.812h-6.63a.529.529,0,1,1,0-1.058h6.63a.529.529,0,0,1,0,1.058Z" transform="translate(2 0.214)" fill="#fff" stroke="#fff" stroke-width="0.5"/>
  </g>
</svg>
