<svg xmlns="http://www.w3.org/2000/svg" width="49" height="15.001" viewBox="0 0 49 15.001">
  <g id="heading_line" transform="translate(-769.22 -21.929)">
    <path id="Path_210082" data-name="Path 210082" d="M793.231,36.43a.524.524,0,0,1-.48-.3l-4.026-8.911L786.949,31.7a.526.526,0,0,1-.49.329H779.32a.514.514,0,0,1,0-1.028h6.78l2.1-5.314a.524.524,0,0,1,.477-.329.517.517,0,0,1,.492.306l3.921,8.68,2.965-11.524a.529.529,0,0,1,.985-.094L801.006,31h6.06a.514.514,0,0,1,0,1.028h-6.394a.525.525,0,0,1-.475-.3l-3.48-7.267-2.977,11.58a.522.522,0,0,1-.465.387.316.316,0,0,1-.044,0Z" transform="translate(0.529)" fill="#3850d5" stroke="#3850d5" stroke-width="1"/>
    <path id="Path_210083" data-name="Path 210083" d="M776.879,31.812h-6.63a.529.529,0,0,1,0-1.058h6.63a.529.529,0,0,1,0,1.058Z" transform="translate(0 0.214)" fill="#3850d5" stroke="#3850d5" stroke-width="1"/>
    <path id="Path_210084" data-name="Path 210084" d="M815.191,31.812h-6.63a.529.529,0,0,1,0-1.058h6.63a.529.529,0,0,1,0,1.058Z" transform="translate(2 0.214)" fill="#3850d5" stroke="#3850d5" stroke-width="1"/>
  </g>
</svg>
