<?xml version="1.0" encoding="utf-8"?>
<!-- Generator: Adobe Illustrator 23.0.3, SVG Export Plug-In . SVG Version: 6.00 Build 0)  -->
<svg version="1.1" id="Layer_1" xmlns="http://www.w3.org/2000/svg" xmlns:xlink="http://www.w3.org/1999/xlink" x="0px" y="0px"
	 viewBox="0 0 512 512" style="enable-background:new 0 0 512 512;" xml:space="preserve">
<style type="text/css">
	.st0{fill:#FFFFFF;}
</style>
<g>
	<circle class="st0" cx="295.9" cy="180.3" r="10"/>
	<circle class="st0" cx="216.1" cy="180.3" r="10"/>
	<path class="st0" d="M256,279.9c16.9,0,32-10.7,37.6-26.6c1.8-5.2-0.9-10.9-6.1-12.7c-5.2-1.8-10.9,0.9-12.7,6.1
		C272,254.6,264.4,260,256,260s-16-5.3-18.8-13.3c-1.8-5.2-7.5-7.9-12.7-6.1c-5.2,1.8-7.9,7.5-6.1,12.7
		C224,269.2,239.1,279.9,256,279.9z"/>
	<circle class="st0" cx="355.7" cy="501.2" r="10"/>
	<path class="st0" d="M400.5,491.2c-5.5,0-10,4.5-10,10s4.5,10,10,10h34.9c5.5,0,10-4.5,10-10v-82.3c0-44.7-32.9-82.5-77-88.8
		l-40-5.7c-10.8-1.6-19.7-9.7-21.9-20.7c21-13.8,40.2-36,54.8-63.6h4.5c22,0,39.9-17.9,39.9-39.9c0-14.9-8.5-28.4-21.4-35.2
		c0,0,1.5-34.4,1.5-34.6C385.6,59,327.4,0.9,256,0.9S126.4,59,126.4,130.4c0,0.1,0,0.3,0,0.4l1.5,34.1
		c-12.9,6.8-21.4,20.3-21.4,35.2c0,22,17.9,39.9,39.9,39.9h4.5c14.6,27.5,33.8,49.7,54.8,63.6c-2.2,10.9-11,19.1-21.9,20.7l-40,5.7
		c-44.2,6.3-77,44.2-77,88.8v82.3c0,5.5,4.5,10,10,10h234.2c5.5,0,10-4.5,10-10s-4.5-10-10-10H266V413l55.7-69.6
		c1.3,0.3,2.5,0.5,3.8,0.7l20.2,2.9v66.2c-11.6,4.1-19.9,15.2-19.9,28.2c0,16.5,13.4,29.9,29.9,29.9s29.9-13.4,29.9-29.9
		c0-13-8.3-24.1-19.9-28.2v-63.4c34.1,4.9,59.8,34.6,59.8,69v72.4L400.5,491.2z M256,393.5l-47.2-59.1c6.9-5.5,12.1-12.9,14.9-21.3
		c10.6,4.4,21.5,6.6,32.3,6.6c10.9,0,21.7-2.2,32.3-6.6c2.8,8.4,8,15.8,14.9,21.3L256,393.5z M256,20.8
		c60.4,0,109.5,49.1,109.6,109.4l-1.2,28.4c-10.9-4-18.7-14.4-18.7-26.6v-1.6c0-5.5-4.5-10-10-10h-35.1c-23.7,0-45-13.2-55.6-34.4
		c-2.1-4.1-6.7-6.3-11.2-5.2c-4.5,1.1-7.7,5.1-7.7,9.7c0,16.5-13.4,29.9-29.9,29.9h-19.9c-5.5,0-10,4.5-10,10v1.6
		c0,12.2-7.8,22.7-18.7,26.6l-1.2-28.4C146.5,69.9,195.6,20.8,256,20.8L256,20.8z M165.9,225.7c-1.7-3.4-5.1-5.5-8.9-5.5h-10.6
		c-11,0-19.9-8.9-19.9-19.9c0-15.9,15.1-18.9,17.2-20.3c21.2-2.5,38.2-18.7,41.9-39.5h10.7c19,0,35.6-10.7,44-26.4
		c15.3,16.7,37,26.4,60.4,26.4h25.9c3.7,20.8,20.7,37,41.9,39.5c2,1.3,17.2,4.5,17.2,20.3c0,11-8.9,19.9-19.9,19.9H355
		c-3.8,0-7.2,2.1-8.9,5.5c-17.5,35.4-50.6,74.2-90.1,74.2C216.6,299.8,183.7,261.6,165.9,225.7L165.9,225.7z M86.6,491.2v-72.4
		c0-34.5,25.7-64.1,59.8-69v30.8c-22.7,4.6-39.9,24.8-39.9,48.8v31.9c0,5.5,4.5,10,10,10h19.9c5.5,0,10-4.5,10-10
		c0-5.5-4.5-10-10-10h-10v-21.9c0-16.5,13.4-29.9,29.9-29.9s29.9,13.4,29.9,29.9v21.9h-10c-5.5,0-10,4.5-10,10c0,5.5,4.5,10,10,10
		h19.9c5.5,0,10-4.5,10-10v-31.9c0-24.1-17.1-44.2-39.9-48.8v-33.6l20.2-2.9c1.3-0.2,2.5-0.4,3.8-0.7L246,413v78.2L86.6,491.2z
		 M355.7,451.3c-5.5,0-10-4.5-10-10s4.5-10,10-10c5.5,0,10,4.5,10,10S361.2,451.3,355.7,451.3z"/>
</g>
</svg>
