<?xml version="1.0" encoding="utf-8"?>
<!-- Generator: Adobe Illustrator 23.0.3, SVG Export Plug-In . SVG Version: 6.00 Build 0)  -->
<svg version="1.1" id="Layer_1" xmlns="http://www.w3.org/2000/svg" xmlns:xlink="http://www.w3.org/1999/xlink" x="0px" y="0px"
	 viewBox="0 0 512 512" style="enable-background:new 0 0 512 512;" xml:space="preserve">
<style type="text/css">
	.st0{fill:#FFFFFF;stroke:#FFFFFF;stroke-miterlimit:10;}
</style>
<g>
	<g>
		<path class="st0" d="M488.5,465h-68V159.6c0-4.1-3.4-7.5-7.5-7.5s-7.5,3.4-7.5,7.5v17.3h-299V103h87v9.3c0,6.3,5.2,11.5,11.5,11.5
			h23.5v23.5c0,6.3,5.2,11.5,11.5,11.5h32c6.3,0,11.5-5.2,11.5-11.5v-23.5H307c6.3,0,11.5-5.2,11.5-11.5V103h87v24.6
			c0,4.1,3.4,7.5,7.5,7.5s7.5-3.4,7.5-7.5V95.5c0-4.1-3.4-7.5-7.5-7.5h-53.5V7.5c0-4.1-3.4-7.5-7.5-7.5H222.8
			c-4.1,0-7.5,3.4-7.5,7.5s3.4,7.5,7.5,7.5h121.7v73h-26v-7.7c0-6.3-5.2-11.5-11.5-11.5h-23.5V45.3c0-6.3-5.2-11.5-11.5-11.5h-32
			c-6.3,0-11.5,5.2-11.5,11.5v23.5H205c-6.3,0-11.5,5.2-11.5,11.5V88h-26V15h24.4c4.1,0,7.5-3.4,7.5-7.5S196,0,191.9,0H160
			c-4.1,0-7.5,3.4-7.5,7.5V88H99c-4.1,0-7.5,3.4-7.5,7.5V465h-68C10.5,465,0,475.5,0,488.5S10.5,512,23.5,512h72
			c4.1,0,7.5-3.4,7.5-7.5s-3.4-7.5-7.5-7.5h-72c-4.7,0-8.5-3.8-8.5-8.5s3.8-8.5,8.5-8.5h465c4.7,0,8.5,3.8,8.5,8.5s-3.8,8.5-8.5,8.5
			H128.2c-4.1,0-7.5,3.4-7.5,7.5s3.4,7.5,7.5,7.5h360.3c13,0,23.5-10.5,23.5-23.5S501.5,465,488.5,465z M208.5,83.8H232
			c6.3,0,11.5-5.2,11.5-11.5V48.8h25v23.5c0,6.3,5.2,11.5,11.5,11.5h23.5v25H280c-6.3,0-11.5,5.2-11.5,11.5v23.5h-25v-23.5
			c0-6.3-5.2-11.5-11.5-11.5h-23.5V83.8z M405.4,191.9v15H106.5v-15H405.4z M172.5,465v-45h19v45H172.5z M305.5,420v45h-99v-45
			H305.5z M320.5,465v-45h19v45H320.5z M354.5,465v-52.5c0-4.1-3.4-7.5-7.5-7.5H165c-4.1,0-7.5,3.4-7.5,7.5V465h-51V221.9h299V465
			H354.5z"/>
		<path class="st0" d="M190,234.5h-54c-4.1,0-7.5,3.4-7.5,7.5v50c0,4.1,3.4,7.5,7.5,7.5h54c4.1,0,7.5-3.4,7.5-7.5v-50
			C197.5,237.9,194.1,234.5,190,234.5z M182.5,284.5h-39v-35h39V284.5z"/>
		<path class="st0" d="M376,234.5h-54c-4.1,0-7.5,3.4-7.5,7.5v50c0,4.1,3.4,7.5,7.5,7.5h54c4.1,0,7.5-3.4,7.5-7.5v-50
			C383.5,237.9,380.1,234.5,376,234.5z M368.5,284.5h-39v-35h39V284.5z"/>
		<path class="st0" d="M283,234.5h-54c-4.1,0-7.5,3.4-7.5,7.5v50c0,4.1,3.4,7.5,7.5,7.5h54c4.1,0,7.5-3.4,7.5-7.5v-50
			C290.5,237.9,287.1,234.5,283,234.5z M275.5,284.5h-39v-35h39V284.5z"/>
		<path class="st0" d="M190,321.5h-54c-4.1,0-7.5,3.4-7.5,7.5v50c0,4.1,3.4,7.5,7.5,7.5h54c4.1,0,7.5-3.4,7.5-7.5v-50
			C197.5,324.9,194.1,321.5,190,321.5z M182.5,371.5h-39v-35h39V371.5z"/>
		<path class="st0" d="M376,321.5h-54c-4.1,0-7.5,3.4-7.5,7.5v50c0,4.1,3.4,7.5,7.5,7.5h54c4.1,0,7.5-3.4,7.5-7.5v-50
			C383.5,324.9,380.1,321.5,376,321.5z M368.5,371.5h-39v-35h39V371.5z"/>
		<path class="st0" d="M283,321.5h-54c-4.1,0-7.5,3.4-7.5,7.5v50c0,4.1,3.4,7.5,7.5,7.5h54c4.1,0,7.5-3.4,7.5-7.5v-50
			C290.5,324.9,287.1,321.5,283,321.5z M275.5,371.5h-39v-35h39V371.5z"/>
	</g>
</g>
</svg>
