<svg id="wave" xmlns="http://www.w3.org/2000/svg" width="1366" height="54" viewBox="0 0 1366 54">
  <path id="Fill_1" data-name="Fill 1" d="M0,.163S66.278,16.372,168.226,16.007c67.932-.243,130-17.874,220.554-15.844,61.146,1.371,128.367,20.648,196.648,20.371C655.166,20.251,728.2.918,834.4.163s197.717,24.3,282.62,24.9C1262.887,26.094,1363.585,4.718,1366,6.953V54H0Z" transform="translate(0 0)" fill="#fff" opacity="0.2"/>
  <path id="Fill_3" data-name="Fill 3" d="M0,28.557S48.4,1.208,220.191,2.061C357.014,2.74,384.72,20.366,464.305,20.4c65.55.031,140.352-19.1,208.6-18.344,67.622.746,128.918,20.232,195.141,20.382C932.563,22.588,986.95.721,1090.108.023S1223.725,14.778,1268.7,20.4c69.943,8.749,97.3,10.19,97.3,10.19V42.387H0Z" transform="translate(0 11.613)" fill="#fff" opacity="0.4"/>
  <path id="Fill_5" data-name="Fill 5" d="M1366,9.6c-67.291,0-77.217,17.776-289.352,16.716C1019.116,26.026,897.316.863,834.4.045,761.765-.9,686.675,19.257,612.343,19.149,536.4,19.038,467.97,1.177,397.014.045,319.207-1.2,238.766,23.8,174.957,21.536,40.375,16.761,0,2.433,0,2.433V37.742H1366Z" transform="translate(0 16.258)" fill="#fff" opacity="0.6"/>
  <path id="Fill_7" data-name="Fill 7" d="M1366,22.07c-8.294,1.891-64.067,4.58-174.957-2.006-51.806-3.078-97.776-17.728-161.5-18.057C966.094,1.679,884.4,18.522,814.216,18.057c-100.935-.668-139.266-15.973-208.6-16.05C538.845,1.932,486.5,13.3,423.93,14.045,330.343,15.152,248.849.081,174.957,0,50.247-.136,0,20.064,0,20.064V33.677H1366Z" transform="translate(0 20.323)" fill="#fff"/>
</svg>
