<svg xmlns="http://www.w3.org/2000/svg" xmlns:xlink="http://www.w3.org/1999/xlink" width="1366" height="284" viewBox="0 0 1366 284"><defs><clipPath id="a"><path d="M0,0H1366V284H0Z" transform="translate(0 123)" fill="#1864ab" opacity="0"/></clipPath></defs><g transform="translate(0 -123)" style="isolation:isolate"><g opacity="0.12" clip-path="url(#a)"><path d="M1011.143,524.594H0V224.976H34.679V187.318H74v-20.6h44.777v58.255h6.481V187.318H138.22v24.5l51.03-30.356h115.43l10.387,6.178v-31.4h66.926v-46.3h36.384L463.2,80.076V70.653l81.088,39.29v46.3H556.8v-46.3h25.014v46.3h29.405v33.583h31.743V147.747h100.6v42.076h7.752V147.747h15.506v42.076h6.01V165.616h10.095V146.226l17.525-7.958,17.525,7.958v19.389H826.7v44.226h37.788v15.134h14.264V170.412l66.2-88.189,132.394-2.711,36.151,11.29V65.688l140.62-27.614L1366,60.371V524.594H1011.143Z" transform="translate(0 110.666)" fill="#1864ab" fill-rule="evenodd"/></g><g transform="translate(200.828 146.987)"><g transform="translate(0 9.164)"><path d="M643.835,505.887s4.716-7.928,15.993-7.047c0,0,16.372-13.214,33.832-1.762,0,0,18.559-2.838,32.3,2.456,9.164,3.53,12.19,7.233,12.19,7.233Z" transform="translate(-643.835 -492.408)" fill="#f8fcff"/></g><g transform="translate(86.303)"><path d="M1161.444,457.854s3.443-8.693,11.676-7.727c0,0,11.953-14.488,24.7-1.932,0,0,13.549-3.111,23.583,2.694,6.69,3.87,8.9,7.93,8.9,7.93Z" transform="translate(-1161.444 -443.076)" fill="#f8fcff"/></g><g transform="translate(193.847 58.934)"><path d="M1740.379,770.272s2.366-5.848,8.025-5.2c0,0,8.216-9.747,16.977-1.3,0,0,9.313-2.093,16.21,1.813,4.6,2.6,6.117,5.335,6.117,5.335Z" transform="translate(-1740.379 -760.329)" fill="#f8fcff"/></g><g transform="translate(60.302 36.177)"><path d="M1021.47,646.047a9.736,9.736,0,0,1,9.289-4.3s9.509-8.057,19.65-1.074c0,0,10.779-1.73,18.762,1.5,5.322,2.152,7.08,4.41,7.08,4.41Z" transform="translate(-1021.47 -637.828)" fill="#f8fcff"/></g></g><g transform="translate(876.5 134.987)"><g transform="translate(146.858 9.164)"><path d="M738.153,505.887s-4.716-7.928-15.993-7.047c0,0-16.372-13.214-33.832-1.762,0,0-18.559-2.838-32.3,2.456-9.164,3.53-12.19,7.233-12.19,7.233Z" transform="translate(-643.835 -492.408)" fill="#f8fcff"/></g><g transform="translate(86.017)"><path d="M1230.3,457.854s-3.443-8.693-11.676-7.727c0,0-11.953-14.488-24.7-1.932,0,0-13.549-3.111-23.583,2.694-6.69,3.87-8.9,7.93-8.9,7.93Z" transform="translate(-1161.444 -443.076)" fill="#f8fcff"/></g><g transform="translate(0 58.934)"><path d="M1787.708,770.272s-2.366-5.848-8.025-5.2c0,0-8.216-9.747-16.977-1.3,0,0-9.313-2.093-16.21,1.813-4.6,2.6-6.117,5.335-6.117,5.335Z" transform="translate(-1740.379 -760.329)" fill="#f8fcff"/></g><g transform="translate(126.094 36.177)"><path d="M1076.251,646.047a9.736,9.736,0,0,0-9.289-4.3s-9.509-8.057-19.65-1.074c0,0-10.779-1.73-18.762,1.5-5.322,2.152-7.08,4.41-7.08,4.41Z" transform="translate(-1021.47 -637.828)" fill="#f8fcff"/></g></g></g></svg>