<svg xmlns="http://www.w3.org/2000/svg" xml:space="preserve" id="Calque_1" x="0" y="0" stroke="#fff" version="1.1" viewBox="0 0 1000 1000"><style>@keyframes stroke{20%{stroke-dashoffset:0}40%{stroke-dashoffset:-500}}svg *{stroke-dasharray:500;stroke-dashoffset:500;animation:stroke 5s ease-in-out infinite}</style><path fill="none" stroke-linecap="round" stroke-linejoin="round" stroke-miterlimit="10" stroke-width="15" d="m200.7 251 1 77.3 77.3 1 .9 77.3 77.3.9 1 77.3 77.3 1M596 131.5l55.3 54 55.4-54 55.3 54 55.3-54 55.4 54 55.3-54m-200.5 436h100v100h-100zm163-239.5-100 100m0-100 100 100m-742 57v142M78 556.5h141M332.5 200V99.5H232zm226 432.8-71.1-71-71.4 71.4z"/><circle cx="311" cy="807" r="50" fill="none" stroke-linecap="round" stroke-linejoin="round" stroke-miterlimit="10" stroke-width="15"/><circle cx="562" cy="294" r="50" fill="none" stroke-linecap="round" stroke-linejoin="round" stroke-miterlimit="10" stroke-width="15"/><path fill="none" stroke-linecap="round" stroke-linejoin="round" stroke-miterlimit="10" stroke-width="15" d="M512 816.5c36.6 0 36.6 52 73.2 52s36.6-52 73.2-52 36.6 52 73.3 52c36.6 0 36.6-52 73.3-52"/></svg>