<svg xmlns="http://www.w3.org/2000/svg" width="53" height="63" viewBox="0 0 53 63">
  <g id="avastarPlaceholders-girl" transform="translate(-22 -27.442)">
    <g id="people" transform="translate(22 27.873)">
      <g id="_016-boy-7" data-name="016-boy-7" transform="translate(5.045 0.118)">
        <path id="Path_258277" data-name="Path 258277" d="M63.86,56.915l-.1-.88a.634.634,0,0,0-.7-.56l-.055.006-.946-7.566a4.307,4.307,0,0,0-2.912-3.552l-5.255-1.752a2.153,2.153,0,0,0-2.07.387l-1.548-.516A2.153,2.153,0,0,1,48.8,40.44V36.967l4.638-1.933a6.46,6.46,0,0,0,3.976-5.963V27.995a3.229,3.229,0,0,0,2.547-5.216,27.523,27.523,0,0,0,.684-17.4s-.385-.283-1.1-.708a7.188,7.188,0,0,0-1.048-3.6l-3.93,1.31A42.169,42.169,0,0,0,40.191,0a4.55,4.55,0,0,1-2.153,1.077A58.9,58.9,0,0,0,30.5,0L28.347,5.384s-5.384-.045-5.384,6.46c0,2.386,1.33,8.335,1.9,10.769a3.23,3.23,0,0,0,2.408,5.382v1.077a6.461,6.461,0,0,0,3.975,5.963l4.638,1.933V40.44a2.153,2.153,0,0,1-1.472,2.043L32.863,43a2.153,2.153,0,0,0-2.07-.387l-5.255,1.752a4.307,4.307,0,0,0-2.912,3.552l-.946,7.566-.055-.006a.634.634,0,0,0-.7.56l-.1.88a.634.634,0,0,0,.56.7l1.575.175V60.3a2.153,2.153,0,0,0,2.153,2.153H59.572A2.153,2.153,0,0,0,61.725,60.3V57.79l1.575-.175a.634.634,0,0,0,.56-.7Z" transform="translate(-20.824 0)" fill="#e9e9ed"/>
        <path id="Path_258278" data-name="Path 258278" d="M64.822,79.129H51.9v3.562a2.134,2.134,0,0,1-1.079,1.838A14.621,14.621,0,0,0,64.822,79.129Z" transform="translate(-36.842 -42.251)" fill="#e9e9ed"/>
        <path id="Path_258279" data-name="Path 258279" d="M61.1,37.571V35.418a5.384,5.384,0,0,0-5.384-5.384H36.338a5.384,5.384,0,0,0-5.384,5.384v2.153a3.23,3.23,0,1,0,0,6.46v1.077a6.461,6.461,0,0,0,3.975,5.963l6.957,2.9a10.768,10.768,0,0,0,8.283,0l6.958-2.9A6.46,6.46,0,0,0,61.1,45.109V44.032a3.23,3.23,0,0,0,0-6.46Z" transform="translate(-24.508 -16.037)" fill="#e9e9ed"/>
        <path id="Path_258280" data-name="Path 258280" d="M55.08,111.142v-5.384H64.1l-1.144-9.151a4.307,4.307,0,0,0-2.912-3.552L54.786,91.3a2.119,2.119,0,0,0-2.462.835,10.755,10.755,0,0,1-18.178,0,2.119,2.119,0,0,0-2.462-.835L26.43,93.056a4.307,4.307,0,0,0-2.912,3.552L22.494,104.8l8.9.016v6.326Z" transform="translate(-21.716 -48.692)" fill="#e9e9ed"/>
        <path id="Path_258281" data-name="Path 258281" d="M49.594,51.747a1.08,1.08,0,0,1-1.077-1.077V49.594a1.077,1.077,0,1,1,2.153,0v1.077A1.08,1.08,0,0,1,49.594,51.747Zm15.074,0a1.08,1.08,0,0,1-1.077-1.077V49.594a1.077,1.077,0,1,1,2.153,0v1.077A1.08,1.08,0,0,1,64.668,51.747Z" transform="translate(-35.611 -25.906)" fill="#e9e9ed"/>
        <path id="Path_258282" data-name="Path 258282" d="M60.832,67.949a8.968,8.968,0,0,1-4.913-1.293,1.077,1.077,0,1,1,1.211-1.78,7.909,7.909,0,0,0,7.4,0,1.077,1.077,0,0,1,1.211,1.78A8.968,8.968,0,0,1,60.832,67.949Z" transform="translate(-39.312 -34.541)" fill="#e9e9ed"/>
        <path id="Path_258283" data-name="Path 258283" d="M36.607,48.84a5.047,5.047,0,0,1-1.345-3.449v-9.5c2.972-1.607,11.655-5.854,20.458-5.854H36.338a5.061,5.061,0,0,0-1.077.119v-.01a5.385,5.385,0,0,0-4.307,5.275v2.153a3.23,3.23,0,1,0,0,6.46v1.077a6.46,6.46,0,0,0,3.976,5.963l6.957,2.9a10.779,10.779,0,0,0,1.04.37,44.941,44.941,0,0,1-6.32-5.5Z" transform="translate(-24.508 -16.037)" fill="#e9e9ed"/>
        <path id="Path_258284" data-name="Path 258284" d="M31.277,110.334V107.9a4.307,4.307,0,0,0-1.052-2.82L24.3,98.238a4.3,4.3,0,0,0-.9,2.132l-1.125,9C23.991,109.47,28.546,110,31.277,110.334Z" transform="translate(-21.601 -52.454)" fill="#e9e9ed"/>
        <path id="Path_258285" data-name="Path 258285" d="M30.5,120.016l-8.874-.986a.634.634,0,0,0-.7.56l-.1.88a.634.634,0,0,0,.56.7l9.112,1.013v-2.166Z" transform="translate(-20.824 -63.554)" fill="#e9e9ed"/>
        <path id="Path_258286" data-name="Path 258286" d="M92.414,110.334V107.9a4.307,4.307,0,0,1,1.051-2.82l5.925-6.839a4.3,4.3,0,0,1,.9,2.132l1.125,9C99.7,109.47,95.144,110,92.414,110.334Z" transform="translate(-59.049 -52.454)" fill="#e9e9ed"/>
        <path id="Path_258287" data-name="Path 258287" d="M92.414,120.016l8.874-.986a.634.634,0,0,1,.7.56l.1.88a.634.634,0,0,1-.56.7l-9.112,1.013Z" transform="translate(-59.049 -63.554)" fill="#e9e9ed"/>
        <path id="Path_258288" data-name="Path 258288" d="M63.1,5.384s-.385-.283-1.1-.708a7.188,7.188,0,0,0-1.048-3.6l-3.93,1.31A42.169,42.169,0,0,0,42.642,0a4.55,4.55,0,0,1-2.153,1.077A58.9,58.9,0,0,0,32.951,0L30.8,5.384s-5.384-.045-5.384,6.46c0,2.39,1.335,8.359,1.9,10.783a3.209,3.209,0,0,1,2.405-1.093V19.381a5.379,5.379,0,0,1,5.306-5.376,11.96,11.96,0,0,0-1,3.222A18.927,18.927,0,0,1,44.8,14h9.691a5.384,5.384,0,0,1,5.384,5.384v2.153a3.212,3.212,0,0,1,2.541,1.258A27.523,27.523,0,0,0,63.1,5.384Z" transform="translate(-23.275 0)" fill="#e9e9ed"/>
        <path id="Path_258289" data-name="Path 258289" d="M60.946,1.077l-3.93,1.31A42.169,42.169,0,0,0,42.642,0a4.55,4.55,0,0,1-2.153,1.077A58.9,58.9,0,0,0,32.951,0L30.8,5.384s-5.384-.045-5.384,6.46c0,2.39,1.335,8.359,1.9,10.783a3.209,3.209,0,0,1,2.405-1.093V19.381a5.366,5.366,0,0,1,4.908-5.336,9.605,9.605,0,0,0-.6,3.182C38.267,11.844,44.289,9.9,49.1,8.614c4.778-1.279,5.384-3.23,5.384-3.23S59.2,5.114,60.946,1.077Z" transform="translate(-23.275 0)" fill="#e9e9ed"/>
      </g>
      <g id="_016-boy-7-2" data-name="016-boy-7" transform="translate(5.045 0.118)">
        <path id="Path_258290" data-name="Path 258290" d="M63.86,56.915l-.1-.88a.634.634,0,0,0-.7-.56l-.055.006-.946-7.566a4.307,4.307,0,0,0-2.912-3.552l-5.255-1.752a2.153,2.153,0,0,0-2.07.387l-1.548-.516A2.153,2.153,0,0,1,48.8,40.44V36.967l4.638-1.933a6.46,6.46,0,0,0,3.976-5.963V27.995a3.229,3.229,0,0,0,2.547-5.216,27.523,27.523,0,0,0,.684-17.4s-.385-.283-1.1-.708a7.188,7.188,0,0,0-1.048-3.6l-3.93,1.31A42.169,42.169,0,0,0,40.191,0a4.55,4.55,0,0,1-2.153,1.077A58.9,58.9,0,0,0,30.5,0L28.347,5.384s-5.384-.045-5.384,6.46c0,2.386,1.33,8.335,1.9,10.769a3.23,3.23,0,0,0,2.408,5.382v1.077a6.461,6.461,0,0,0,3.975,5.963l4.638,1.933V40.44a2.153,2.153,0,0,1-1.472,2.043L32.863,43a2.153,2.153,0,0,0-2.07-.387l-5.255,1.752a4.307,4.307,0,0,0-2.912,3.552l-.946,7.566-.055-.006a.634.634,0,0,0-.7.56l-.1.88a.634.634,0,0,0,.56.7l1.575.175V60.3a2.153,2.153,0,0,0,2.153,2.153H59.572A2.153,2.153,0,0,0,61.725,60.3V57.79l1.575-.175a.634.634,0,0,0,.56-.7Z" transform="translate(-20.824 0)" fill="#e9e9ed"/>
        <path id="Path_258291" data-name="Path 258291" d="M64.822,79.129H51.9v3.562a2.134,2.134,0,0,1-1.079,1.838A14.621,14.621,0,0,0,64.822,79.129Z" transform="translate(-36.842 -42.251)" fill="#e9e9ed"/>
        <path id="Path_258292" data-name="Path 258292" d="M61.1,37.571V35.418a5.384,5.384,0,0,0-5.384-5.384H36.338a5.384,5.384,0,0,0-5.384,5.384v2.153a3.23,3.23,0,1,0,0,6.46v1.077a6.461,6.461,0,0,0,3.975,5.963l6.957,2.9a10.768,10.768,0,0,0,8.283,0l6.958-2.9A6.46,6.46,0,0,0,61.1,45.109V44.032a3.23,3.23,0,0,0,0-6.46Z" transform="translate(-24.508 -16.037)" fill="#e9e9ed"/>
        <path id="Path_258293" data-name="Path 258293" d="M55.08,111.142v-5.384H64.1l-1.144-9.151a4.307,4.307,0,0,0-2.912-3.552L54.786,91.3a2.119,2.119,0,0,0-2.462.835,10.755,10.755,0,0,1-18.178,0,2.119,2.119,0,0,0-2.462-.835L26.43,93.056a4.307,4.307,0,0,0-2.912,3.552L22.494,104.8l8.9.016v6.326Z" transform="translate(-21.716 -48.692)" fill="#e9e9ed"/>
        <path id="Path_258294" data-name="Path 258294" d="M49.594,51.747a1.08,1.08,0,0,1-1.077-1.077V49.594a1.077,1.077,0,1,1,2.153,0v1.077A1.08,1.08,0,0,1,49.594,51.747Zm15.074,0a1.08,1.08,0,0,1-1.077-1.077V49.594a1.077,1.077,0,1,1,2.153,0v1.077A1.08,1.08,0,0,1,64.668,51.747Z" transform="translate(-35.611 -25.906)" fill="#e9e9ed"/>
        <path id="Path_258295" data-name="Path 258295" d="M60.832,67.949a8.968,8.968,0,0,1-4.913-1.293,1.077,1.077,0,1,1,1.211-1.78,7.909,7.909,0,0,0,7.4,0,1.077,1.077,0,0,1,1.211,1.78A8.968,8.968,0,0,1,60.832,67.949Z" transform="translate(-39.312 -34.541)" fill="#e9e9ed"/>
        <path id="Path_258296" data-name="Path 258296" d="M36.607,48.84a5.047,5.047,0,0,1-1.345-3.449v-9.5c2.972-1.607,11.655-5.854,20.458-5.854H36.338a5.061,5.061,0,0,0-1.077.119v-.01a5.385,5.385,0,0,0-4.307,5.275v2.153a3.23,3.23,0,1,0,0,6.46v1.077a6.46,6.46,0,0,0,3.976,5.963l6.957,2.9a10.779,10.779,0,0,0,1.04.37,44.941,44.941,0,0,1-6.32-5.5Z" transform="translate(-24.508 -16.037)" fill="#e9e9ed"/>
        <path id="Path_258297" data-name="Path 258297" d="M31.277,110.334V107.9a4.307,4.307,0,0,0-1.052-2.82L24.3,98.238a4.3,4.3,0,0,0-.9,2.132l-1.125,9C23.991,109.47,28.546,110,31.277,110.334Z" transform="translate(-21.601 -52.454)" fill="#e9e9ed"/>
        <path id="Path_258298" data-name="Path 258298" d="M30.5,120.016l-8.874-.986a.634.634,0,0,0-.7.56l-.1.88a.634.634,0,0,0,.56.7l9.112,1.013v-2.166Z" transform="translate(-20.824 -63.554)" fill="#e9e9ed"/>
        <path id="Path_258299" data-name="Path 258299" d="M92.414,110.334V107.9a4.307,4.307,0,0,1,1.051-2.82l5.925-6.839a4.3,4.3,0,0,1,.9,2.132l1.125,9C99.7,109.47,95.144,110,92.414,110.334Z" transform="translate(-59.049 -52.454)" fill="#e9e9ed"/>
        <path id="Path_258300" data-name="Path 258300" d="M92.414,120.016l8.874-.986a.634.634,0,0,1,.7.56l.1.88a.634.634,0,0,1-.56.7l-9.112,1.013Z" transform="translate(-59.049 -63.554)" fill="#e9e9ed"/>
        <path id="Path_258301" data-name="Path 258301" d="M63.1,5.384s-.385-.283-1.1-.708a7.188,7.188,0,0,0-1.048-3.6l-3.93,1.31A42.169,42.169,0,0,0,42.642,0a4.55,4.55,0,0,1-2.153,1.077A58.9,58.9,0,0,0,32.951,0L30.8,5.384s-5.384-.045-5.384,6.46c0,2.39,1.335,8.359,1.9,10.783a3.209,3.209,0,0,1,2.405-1.093V19.381a5.379,5.379,0,0,1,5.306-5.376,11.96,11.96,0,0,0-1,3.222A18.927,18.927,0,0,1,44.8,14h9.691a5.384,5.384,0,0,1,5.384,5.384v2.153a3.212,3.212,0,0,1,2.541,1.258A27.523,27.523,0,0,0,63.1,5.384Z" transform="translate(-23.275 0)" fill="#e9e9ed"/>
        <path id="Path_258302" data-name="Path 258302" d="M60.946,1.077l-3.93,1.31A42.169,42.169,0,0,0,42.642,0a4.55,4.55,0,0,1-2.153,1.077A58.9,58.9,0,0,0,32.951,0L30.8,5.384s-5.384-.045-5.384,6.46c0,2.39,1.335,8.359,1.9,10.783a3.209,3.209,0,0,1,2.405-1.093V19.381a5.366,5.366,0,0,1,4.908-5.336,9.605,9.605,0,0,0-.6,3.182C38.267,11.844,44.289,9.9,49.1,8.614c4.778-1.279,5.384-3.23,5.384-3.23S59.2,5.114,60.946,1.077Z" transform="translate(-23.275 0)" fill="#e9e9ed"/>
      </g>
      <path id="Rectangle_3982" data-name="Rectangle 3982" d="M4,0H49a4,4,0,0,1,4,4V59a4,4,0,0,1-4,4H4a4,4,0,0,1-4-4V4A4,4,0,0,1,4,0Z" transform="translate(0 -0.431)" fill="#e9e9ed"/>
    </g>
    <g id="_002-girl" data-name="002-girl" transform="translate(-27.301 32.841)" opacity="0.6" style="mix-blend-mode: luminosity;isolation: isolate">
      <path id="Path_258303" data-name="Path 258303" d="M91.417,41.065a4.5,4.5,0,0,0-2.448-3.43l-1.939-.969a.568.568,0,0,0-.761.258l-.977-.359A26.975,26.975,0,0,0,95.6,31.5c-3.544-6.919-2.588-17.438-5.4-23.4S82.1,0,75.8,0,64.213,2.138,61.4,8.1,59.544,24.582,56,31.5a26.977,26.977,0,0,0,10.31,5.063l-.977.359a.566.566,0,0,0-.758-.259l-1.768.884a4.6,4.6,0,0,0-2.622,3.517l-.044.327h0l-1.034,7.752A2.7,2.7,0,0,0,61.784,52.2H89.817a2.7,2.7,0,0,0,2.676-3.057Z" transform="translate(0 0)" fill="#ffd7a3"/>
      <path id="Path_258304" data-name="Path 258304" d="M90.2,8.1C87.389,2.138,82.1,0,75.8,0S64.213,2.138,61.4,8.1,59.544,24.582,56,31.5c0,0,6.975,6.3,19.8,6.3s19.8-6.3,19.8-6.3C92.058,24.582,93.014,14.063,90.2,8.1Z" transform="translate(0 0)" fill="#9d6e48"/>
      <path id="Path_258305" data-name="Path 258305" d="M70.4,16.088c0-6.3,2.352-12.183,7.1-16.026C76.944.025,76.378,0,75.8,0,69.5,0,64.213,2.138,61.4,8.1S59.544,24.582,56,31.5c0,0,5.111,4.488,14.4,5.88Z" transform="translate(0 0)" fill="#8d5f3d"/>
      <path id="Path_258306" data-name="Path 258306" d="M115.786,261.492a4.5,4.5,0,0,0-2.907-3.629l-6.122-2.252a1.8,1.8,0,0,1-1.231-1.708V248h-10.8v5.9a1.8,1.8,0,0,1-1.231,1.708l-6.122,2.252a4.5,4.5,0,0,0-2.907,3.629l-1.034,7.752A2.7,2.7,0,0,0,86.11,272.3h28.033a2.7,2.7,0,0,0,2.676-3.057Z" transform="translate(-24.326 -220.099)" fill="#ffd7a3"/>
      <path id="Path_258307" data-name="Path 258307" d="M177.121,276.978c0,.044,0,.087-.005.131,0,.022,0,.045-.007.067s0,.036-.006.054q-.007.052-.018.1v0a1.8,1.8,0,0,1-.835,1.186,12.252,12.252,0,0,0,11.672-4.444l-10.8-.075Z" transform="translate(-106.72 -243.174)" fill="#fdc88e"/>
      <path id="Path_258308" data-name="Path 258308" d="M123.9,110.3v-1.8a4.5,4.5,0,0,0-4.5-4.5H103.2a4.5,4.5,0,0,0-4.5,4.5v1.8a2.7,2.7,0,0,0,0,5.4v.9a5.4,5.4,0,0,0,3.323,4.985l5.816,2.423a9,9,0,0,0,6.923,0l5.816-2.423A5.4,5.4,0,0,0,123.9,116.6v-.9a2.7,2.7,0,0,0,0-5.4Z" transform="translate(-35.5 -92.3)" fill="#ffe1b2"/>
      <path id="Path_258309" data-name="Path 258309" d="M119.176,109.32V107H101.491a4.5,4.5,0,0,0-2.791,4.163v1.8a2.7,2.7,0,1,0,0,5.4v.9a5.4,5.4,0,0,0,3.323,4.985l5.815,2.423a9.009,9.009,0,0,0,.869.309,37.563,37.563,0,0,1-5.283-4.6A4.219,4.219,0,0,1,102.3,119.5V112.95c2.9-.071,12.115-.542,16.876-3.63Z" transform="translate(-35.5 -94.962)" fill="#ffd7a3"/>
      <path id="Path_258310" data-name="Path 258310" d="M131.163,103.175s5.738.563,9-.9c.459-.206,1.8-3.15,1.8-3.15v4.05a29.326,29.326,0,0,0,8.438-1.949V98H130.55A50.328,50.328,0,0,1,131.163,103.175Z" transform="translate(-66.163 -86.975)" fill="#9d6e48"/>
      <path id="Path_258311" data-name="Path 258311" d="M113.294,326.391l-1.939-.969a.574.574,0,0,0-.808.378,10.8,10.8,0,0,1-20.843,0,.571.571,0,0,0-.8-.376l-1.768.884a4.6,4.6,0,0,0-2.622,3.517l-1.077,8.08a2.7,2.7,0,0,0,2.676,3.057h28.033a2.7,2.7,0,0,0,2.676-3.057l-1.077-8.08A4.5,4.5,0,0,0,113.294,326.391Z" transform="translate(-24.326 -288.756)" fill="#ff6473"/>
      <path id="Path_258312" data-name="Path 258312" d="M84.919,353.124a4.386,4.386,0,0,0-.41,1.337l-1.077,8.08a2.7,2.7,0,0,0,2.676,3.057h4.116V362a5.4,5.4,0,0,0-1.08-3.24l-4.225-5.634Zm30.411,0a4.386,4.386,0,0,1,.41,1.337l1.077,8.08a2.7,2.7,0,0,1-2.676,3.057h-4.116V362a5.4,5.4,0,0,1,1.08-3.24l4.225-5.634Z" transform="translate(-24.324 -313.396)" fill="#f05467"/>
      <path id="Path_258313" data-name="Path 258313" d="M285.85,86.343c0,1.212-2.445,2.194-3.656,2.194a2.194,2.194,0,0,1,0-4.388C283.405,84.149,285.85,85.131,285.85,86.343Zm0,0c0-1.212,2.445-2.194,3.656-2.194a2.194,2.194,0,0,1,0,4.388C288.295,88.537,285.85,87.554,285.85,86.343Z" transform="translate(-198.799 -74.682)" fill="#bd445a"/>
      <path id="Path_258314" data-name="Path 258314" d="M300.269,102.612c1.049.606.677,3.214.072,4.263a2.194,2.194,0,0,1-3.8-2.194C297.147,103.632,299.22,102.006,300.269,102.612Z" transform="translate(-213.218 -90.951)" fill="#ff6473"/>
      <path id="Path_258315" data-name="Path 258315" d="M326.782,61.36c-1.049-.606-.678-3.214-.072-4.263a2.194,2.194,0,1,1,3.8,2.194C329.9,60.34,327.831,61.966,326.782,61.36Z" transform="translate(-239.73 -49.699)" fill="#ff6473"/>
      <path id="Path_258316" data-name="Path 258316" d="M326.782,102.612c-1.049.606-.678,3.214-.072,4.263a2.194,2.194,0,1,0,3.8-2.194C329.9,103.632,327.831,102.006,326.782,102.612Z" transform="translate(-239.73 -90.951)" fill="#f05467"/>
      <path id="Path_258317" data-name="Path 258317" d="M300.269,61.36c1.049-.606.677-3.214.072-4.263a2.194,2.194,0,0,0-3.8,2.194C297.147,60.34,299.22,61.966,300.269,61.36Z" transform="translate(-213.218 -49.699)" fill="#f05467"/>
      <circle id="Ellipse_6766" data-name="Ellipse 6766" cx="1.463" cy="1.463" r="1.463" transform="translate(85.589 10.198)" fill="#fff"/>
      <path id="Path_258318" data-name="Path 258318" d="M130.546,98a50.327,50.327,0,0,1,.614,5.175,30.054,30.054,0,0,0,5.288-.025v-.087a22.974,22.974,0,0,1,.56-5.063Z" transform="translate(-66.159 -86.975)" fill="#8d5f3d"/>
    </g>
  </g>
</svg>
