<svg xmlns="http://www.w3.org/2000/svg" viewBox="0 0 1384 224">
  <g opacity=".4">
    <path fill="#3b85db" d="M32.8 155.5a7.9 7.9 0 0 1 4.8 1.6l49.2 37.3a8 8 0 0 1 1.5 11.1L76.6 221a8 8 0 0 1-6.3 3.1 7.9 7.9 0 0 1-4.8-1.6l-49.2-37.3a8 8 0 0 1-1.5-11.1l11.7-15.4a8 8 0 0 1 6.3-3.1ZM70.3 220a3.9 3.9 0 0 0 3.1-1.5L85.1 203a4 4 0 0 0-.8-5.5l-49.2-37.3a4 4 0 0 0-5.5.7L18 176.4a4 4 0 0 0 .7 5.5L68 219.2a3.9 3.9 0 0 0 2.4.8Z"/>
    <path fill="#f9a619" d="M160 72.2A13.1 13.1 0 0 1 173.2 84l3 32.1a13.1 13.1 0 0 1-11.8 14.3l-32.1 3-1.3.1a13.1 13.1 0 0 1-13-11.9l-3-32.1a13.1 13.1 0 0 1 11.8-14.3l32.1-3 1.3-.1Zm-29 57.4h.8l32.1-3a9.1 9.1 0 0 0 8.3-10l-3-32.1a9.1 9.1 0 0 0-9.1-8.3h-.9l-32.1 3a9.1 9.1 0 0 0-8.3 10l3 32.2a9.1 9.1 0 0 0 9.1 8.2Z"/>
    <path fill="#eb3669" d="M269.1 144.3a33 33 0 1 1-12.9 2.6 33 33 0 0 1 13-2.6Zm0 62.3a29 29 0 1 0-11.3-2.3 29 29 0 0 0 11.3 2.3Z"/>
    <path fill="#28192d" d="M12.7 59a12.7 12.7 0 1 1-9 3.6 12.6 12.6 0 0 1 9-3.7Zm0 21.2A8.7 8.7 0 1 0 4 71.6a8.7 8.7 0 0 0 8.7 8.6Z"/>
    <path fill="#f9a619" d="M1318 88a9.3 9.3 0 0 1-7.3-3.4l-14.4-17.7a9.4 9.4 0 0 1 1.3-13.2l56.6-46.3a9.4 9.4 0 0 1 13.2 1.3l14.5 17.7a9.4 9.4 0 0 1-1.3 13.2l-56.7 46.3a9.4 9.4 0 0 1-6 2.1Zm42.2-78.7a5.3 5.3 0 0 0-3.4 1.2L1300 56.8a5.4 5.4 0 0 0-.7 7.6l14.4 17.7a5.4 5.4 0 0 0 7.6.7l56.6-46.3a5.4 5.4 0 0 0 .8-7.6l-14.5-17.7a5.3 5.3 0 0 0-4.1-2Z"/>
    <path fill="#eb3669" d="M1185 69a11 11 0 0 1 5.5 1.4l23.4 13.6a11 11 0 0 1 4 15l-13.5 23.5a11 11 0 0 1-15 4l-23.5-13.5a11 11 0 0 1-4-15l13.5-23.5a11 11 0 0 1 9.6-5.5Zm9.8 55a7 7 0 0 0 6.1-3.5l13.6-23.5a7 7 0 0 0-2.6-9.6L1188.5 74a7 7 0 0 0-9.7 2.6l-13.5 23.4a7 7 0 0 0 2.6 9.6l23.4 13.6a7 7 0 0 0 3.5.9Z"/>
    <path fill="#28192d" d="M1359.4 119.1a4.3 4.3 0 0 1 2.1.6l9 5.2a4.3 4.3 0 0 1 1.5 5.9l-5.1 9a4.3 4.3 0 0 1-6 1.5l-8.9-5.2a4.3 4.3 0 0 1-1.5-5.9l5.1-8.9a4.3 4.3 0 0 1 3.8-2.2Zm3.7 18.8a.3.3 0 0 0 .3-.2l5.2-9a.3.3 0 0 0-.1-.4l-9-5.1a.3.3 0 0 0-.1 0 .3.3 0 0 0-.3 0l-5.2 9a.3.3 0 0 0 .1.5l9 5.1a.3.3 0 0 0 .1 0Z"/>
    <path fill="#3b85db" d="M1247 0a20.4 20.4 0 0 1 8 39.2 20.4 20.4 0 1 1-8-39.2Zm0 36.8a16.4 16.4 0 1 0-11.6-4.8 16.3 16.3 0 0 0 11.6 4.8Z"/>
  </g>
</svg>