<svg xmlns="http://www.w3.org/2000/svg" xmlns:xlink="http://www.w3.org/1999/xlink" width="112" height="112" viewBox="0 0 112 112"><defs><filter id="a" x="0" y="0" width="112" height="112" filterUnits="userSpaceOnUse"><feOffset dx="2" dy="2" input="SourceAlpha"/><feGaussianBlur stdDeviation="2" result="b"/><feFlood flood-color="#cecece" flood-opacity="0.161"/><feComposite operator="in" in2="b"/><feComposite in="SourceGraphic"/></filter></defs><g transform="translate(4018 -809)"><g transform="matrix(1, 0, 0, 1, -4018, 809)" filter="url(#a)"><circle cx="50" cy="50" r="50" transform="translate(4 4)" fill="#fff" opacity="0"/></g><g transform="translate(-3992 828.995)"><circle cx="6.214" cy="6.214" r="6.214" transform="translate(27.448 9.846)" fill="#ea5514"/><path d="M89.762,100.626c.429-1.085.542-1.228.873-2.259,0,0,.365-1.243-.4-1.4,0,0-.538-.212-1.159.893a14.164,14.164,0,0,1-7.525,5.2s-10.164,3.546-20.4-12.6l-.986-1.6a.986.986,0,0,0-.173-.2.547.547,0,0,0-.424-.2.562.562,0,0,0-.567.562v.025a6.411,6.411,0,0,0,.493,1.312s16.663,37.533,33.79,44.723C93.283,135.081,83.42,116.835,89.762,100.626Z" transform="translate(-44.472 -77.633)" fill="#ea5514"/><path d="M37.14,137.69s-7.072,12.6,14.469,7.821c0,0,15.189-2.377,31.368-17.166,4.438-4.039,11.6-11.8,5.858-14.76,0,0-5.424-2.431-12.9,1.361,0,0,12.9-8.719,19.612-2.214,0,0,5.8,5.217-3.615,16.934,0,0-26.93,29.307-54.013,22.29C37.924,151.956,27.509,148.49,37.14,137.69Z" transform="translate(-31.321 -88.714)" fill="#f8b62d"/><circle cx="6.214" cy="6.214" r="6.214" transform="translate(0 25.897)" fill="#3fb7a0"/><path d="M63.014,125.36S53.832,115.5,45,95.535a37.367,37.367,0,0,0-1.672-3.343h0a.562.562,0,0,0-.986.365h0a6.221,6.221,0,0,0,.631,1.691S49.842,110.64,45,119.033c-3.93,6.786-12.974,1.075-12.974,1.075s-.153-.1-.247-.153h-.054a.424.424,0,0,0-.133-.025h-.128A.438.438,0,0,0,31.3,120l-.044.03a.637.637,0,0,0-.094.1.39.39,0,0,0-.039.064.409.409,0,0,0-.035.133c-.187,1.05,2.007,3.772,4.862,6.061a70.469,70.469,0,0,0,14.414,8.768c17.013,6.159,26.984,2.732,26.984,2.732C71.447,135.173,63.014,125.36,63.014,125.36Z" transform="translate(-30.319 -79.426)" fill="#3fb7a0"/><path d="M40.89,66.626,43.2,68.234a.616.616,0,0,0,.577.074l2.638-.986a.626.626,0,0,1,.819.764l-.819,2.7a.631.631,0,0,0,.1.572l1.76,2.2a.621.621,0,0,1-.493.986l-2.791.1a.621.621,0,0,0-.493.281l-1.553,2.352a.626.626,0,0,1-1.129-.168L40.9,74.447a.626.626,0,0,0-.424-.4l-2.717-.735a.621.621,0,0,1-.212-1.1l2.249-1.7a.626.626,0,0,0,.247-.528l-.128-2.816a.626.626,0,0,1,.981-.542Z" transform="translate(-33.469 -66.51)" fill="#f8b62d"/></g></g></svg>