<svg xmlns="http://www.w3.org/2000/svg" width="134" height="100" viewBox="0 0 134 100">
  <g data-name="Group 221794" transform="translate(-28.4 -26.6)">
    <circle cx="50" cy="50" r="50" fill="#f5f5f9" transform="translate(28.4 26.6)" />
    <g transform=" matrix(0.866, -0.5, 0.25, 0.433, 80, 80)">
      <path d="M 0,70 A 65,70 0 0,0 65,0 5,5 0 0,1 75,0 75,70 0 0,1 0,70Z" fill="#FFF">
        <animateTransform attributeName="transform" type="rotate" from="360 0 0" to="0 0 0" dur="1s" repeatCount="indefinite" />
      </path>
    </g>
    <path fill="#f5f5f9" d="M122.4 56.2a49.2 49.2 0 0 0-43.3-29.6 49 49 0 0 0-45 26.8 51.4 51.4 0 0 0 3.7 53.2Z" />
    <g transform="translate(51.4 40.9)">
      <circle cx="6.2" cy="6.2" r="6.2" fill="#ea5514" transform="translate(27.4 9.8)" />
      <path fill="#ea5514" d="m45.3 23 .9-2.3s.3-1.2-.4-1.4c0 0-.6-.2-1.2 1a14.2 14.2 0 0 1-7.5 5S26.9 29 16.7 12.9l-1-1.6a1 1 0 0 0-.2-.2.5.5 0 0 0-.4-.2.6.6 0 0 0-.6.6 6.4 6.4 0 0 0 .5 1.3s16.7 37.5 33.8 44.6c0 0-9.9-18.2-3.5-34.3Z" />
      <path fill="#f8b62d" d="M5.8 48.9s-7 12.5 14.5 7.8c0 0 15.2-2.4 31.4-17.2 4.4-4 11.6-11.7 5.8-14.6 0 0-5.4-2.5-12.9 1.3 0 0 13-8.7 19.6-2.2 0 0 5.8 5.2-3.6 17 0 0-27 29.1-54 22 0 0-10.4-3.4-.8-14.1Z" />
      <circle cx="6.2" cy="6.2" r="6.2" fill="#3fb7a0" transform="translate(0 25.9)" />
      <path fill="#3fb7a0" d="M32.7 45.9s-9.2-10-18-29.8L13 12.8a.6.6 0 0 0-1 .3 6.2 6.2 0 0 0 .7 1.7s6.8 16.4 2 24.7c-4 6.8-13 1-13 1h-.2a.4.4 0 0 0-.2 0H1a.4.4 0 0 0-.1 0 .6.6 0 0 0-.2.1.4.4 0 0 0 0 .2c-.2 1 2 3.8 4.8 6A70.5 70.5 0 0 0 20 55.7c17 6.1 27 2.7 27 2.7A61.8 61.8 0 0 1 32.7 46Z" />
      <path fill="#f8b62d" d="m7.4.2 2.3 1.6a.6.6 0 0 0 .6 0l2.6-1a.6.6 0 0 1 .9.9l-.9 2.7a.6.6 0 0 0 .1.5L14.8 7a.6.6 0 0 1-.5 1h-2.8a.6.6 0 0 0-.5.4l-1.5 2.3a.6.6 0 0 1-1.2-.2L7.4 8a.6.6 0 0 0-.4-.4l-2.7-.7a.6.6 0 0 1-.3-1L6.3 4a.6.6 0 0 0 .3-.5L6.4.8a.6.6 0 0 1 1-.6Z" />
    </g>
  </g>
</svg>