<svg xmlns="http://www.w3.org/2000/svg" display="block" opacity=".4" overflow="hidden" viewBox="0 0 1422 800">
  <defs>
    <linearGradient id="a" x1="711" x2="711" y1="-400" y2="800" gradientUnits="userSpaceOnUse" spreadMethod="pad">
      <stop offset="0%" stop-color="hsl(1.4, 100%, 67%)"/>
      <stop offset="100%" stop-color="hsl(167, 52%, 78%)"/>
    </linearGradient>
  </defs>
  <path fill="url(#a)" d="m765 113.1-5.4-1q-5.3-1-16-2.5t-20.9-2.4l-21.7-1.5q-11.5-.7-26.2-1.1-14.8-.5-30.1-.7l-33-.4-27-.2h-18.8l-19.1-.2h-38.9l-19-.1h-19q-9.4 0-27.3.9-18 .9-36 2.5t-33.8 4q-15.9 2.2-28.3 5.1-12.5 2.9-23.8 6.8-11.3 4-23 9.4-11.8 5.5-23.8 12.2-11.9 6.6-23.4 14.3-11.6 7.7-22.6 15.8-11 8-20.5 15.7-9.6 7.6-18.6 16.1-9 8.6-17.6 18-8.5 9.5-16 19-7.6 9.6-14.5 20.3-6.8 10.7-12 22.3-5 11.6-8.5 22.9-3.5 11.3-5.4 23.2-1.9 11.9-2.1 23.8-.3 12 1.2 23.7 1.5 11.8 6 25.2 4.4 13.3 10 25.4 5.8 12.1 12.5 22.7t15 20.6q8.4 10.1 17.7 19.1 9.3 9 18.9 17 9.6 8 21 16.1 11.4 8 23.3 15.5 12 7.5 23.9 14.3 11.9 6.8 24.4 12.7 12.5 6 25.6 11.5 13 5.6 27.4 10.7 14.4 5.1 30.3 10.3 15.8 5.1 32.5 10 16.6 4.9 34.8 9 18.3 4.3 28.5 6.2 10.2 2 20.6 3.8 10.3 2 20.3 3.6l19.6 3.2 19.2 3q9.5 1.4 19 2.5 9.6 1.2 19 2 9.6 1 20 1.6l20.7 1.2 19.7.8 19.3.8q9.7.4 19.3 1t18.9 1l27 1.3 33.8 1.5 31.4 1 32.4.5 34 .3 33.1.2h32.4l31.4.1h57.8q14 0 27.6-.5 13.6-.6 28.2-2.3 14.7-1.6 29-4.2l27.9-5q13.5-2.3 26.4-5 12.9-2.7 25.7-6.1t24.7-7.5q12-4 22-8.8t17.6-10.8q7.5-6 14.2-14 6.7-7.9 14-19.2t11.3-24.4q3.8-13.2 5.3-22.3t2.1-18.8q.7-9.7-.2-21.4-.9-11.6-2.9-24-2-12.3-4.8-26-2.8-13.6-6.7-26.7-4-13.2-8.7-26.5-4.8-13.3-10.7-27.2-5.9-13.9-12-26.7-6-12.7-11.9-24.2-5.8-11.4-12.6-23-6.8-11.4-14.3-22.2-7.4-10.8-15-20.4-7.5-9.5-15-17.7t-15.3-15.4q-7.8-7.3-15.5-13.8-7.6-6.6-16.8-13.1-9.2-6.5-18.7-12.6-9.6-6-19.8-12.1l-20.2-11.9q-10-5.8-18.7-10.4-8.7-4.6-21.5-10.5t-21.9-9.6q-9.1-3.6-17.8-6.8-8.6-3.2-20.8-7.1-12.2-4-24.4-7-12.2-3.2-22.4-4.9-10.1-1.8-20.6-3.3l-21-3q-10.6-1.3-21.8-2.2-11.2-.8-22.6-1.3-11.4-.5-23.8-.7l-26.2-.5-26.8-.2-24.9-.1h-46.1q-12.7 0-27.3-3.3l-14.6-3 14.6-3.2q14.6-3.1 27.3-3.1h23.4l22.8.1 24.9.1 26.9.2 26.4.4q12.4.2 24 .7 11.6.5 23.2 1.4 11.5.8 22.2 2.2 10.7 1.4 21.3 3 10.7 1.5 21.1 3.3 10.5 1.8 23.3 5 12.7 3.3 25.2 7.4 12.4 4 21 7.3 8.7 3.2 18.3 7 9.5 3.8 22.6 9.9 13.1 6.1 22 10.8t19 10.6l20.5 12q10.4 6.2 20 12.4 9.7 6.1 19.5 13.1 9.7 7 17.5 13.6 7.8 6.7 16 14.3 8 7.7 15.8 16.2 7.8 8.5 15.6 18.5 7.8 9.9 15.5 21 7.6 11.1 14.7 23 7 12 12.9 23.5 5.8 11.4 12 24.5 6.2 13 12.3 27.2 6 14.3 11 27.8 4.8 13.5 9 27.3 4 13.8 7 27.6 2.9 13.9 5 26.7 2 12.8 3 25.3.9 12.6.1 22.9-.7 10.3-2.3 20.1-1.6 9.8-4.2 19.7-2.6 9.8-6.8 19-4.3 9.1-10 17-5.6 7.8-12.9 16.4-7.4 8.7-16.3 15.6t-19.8 12q-10.8 5-23.1 9.2-12.3 4.2-25.4 7.7-13.1 3.4-26.3 6.1-13.2 2.8-26.7 5.2l-28.1 5q-14.6 2.6-29.7 4.3-15.1 1.7-29 2.2-14 .5-28 .5h-57.9l-31.3-.1-32.4-.1-33.2-.2-34-.3q-17.2-.2-32.7-.6-15.4-.4-31.6-1.1l-33.9-1.6-27-1.3-18.8-1q-9.6-.7-19.2-1-9.6-.5-19.3-.8l-19.9-.9-20.8-1.1-20.4-1.5-19.4-2.1q-9.7-1.2-19.2-2.7l-19.3-3-19.8-3.1-20.4-3.6q-10.4-1.8-20.7-3.8-10.4-1.9-20.1-4-9.7-2-18.6-4.1-9-2.2-25.8-7.1-16.9-5-32.9-10-16-5.2-30.8-10.5-14.8-5.2-28-10.9-13-5.6-26-11.7t-25.3-13q-12.2-7-24.3-14.7-12.1-7.6-24-16-11.9-8.3-21.8-16.6t-19.6-17.8q-9.7-9.4-18.6-20-8.9-10.8-16-22.1-7-11.3-13-24-6-12.6-10.7-27-4.8-14.5-6.4-27.4-1.6-12.8-1.3-25.6.4-12.8 2.4-25.4 2-12.6 5.8-24.7 3.8-12.2 9.2-24.5 5.5-12.3 12.7-23.6 7.3-11.3 15.2-21.2 7.9-10 16.7-19.7 8.8-9.8 18.3-18.8 9.5-8.9 19.3-16.7 9.8-7.8 20.9-15.9 11.1-8.2 23.2-16.1 12-8 24.3-14.9t24.5-12.5q12.1-5.5 24.2-9.7t25.1-7q13-3 29.3-5.3 16.2-2.3 34.3-4l27.4-2.3q9.1-.6 18.3-.9 9.2-.3 18.6-.3h114.8l27 .2q17.8 0 33.2.3l30.3.5q14.9.4 26.5 1.1 11.7.7 22.2 1.6 10.5.9 21.6 2.5 11 1.6 16.5 2.6 5.3 1 6 1.3.8.2 1.4.6l1.2 1q.5.4.9 1.1.4.6.6 1.4l.3 1.4-.1 1.5q-.1.7-.5 1.5l-.8 1.2q-.4.6-1 1l-1.3.9q-.7.3-1.5.4H765Z"/>
</svg>