<svg xmlns="http://www.w3.org/2000/svg" xmlns:xlink="http://www.w3.org/1999/xlink" width="242.597" height="157.253" viewBox="0 0 242.597 157.253"><defs><linearGradient id="a" x1="-96.086" y1="-158.596" x2="-95.086" y2="-158.596" gradientUnits="objectBoundingBox"><stop offset="0" stop-color="#0e218a"/><stop offset="1" stop-color="#1f72d2"/></linearGradient><clipPath id="b"><path d="M2103.972,614.512h36.014l-15.844-75.378s14.387-27.042,14.387-28.922-7.293-19.3-7.293-19.3-14.1-12.118-27.263-14.138-24.98-7.069-37.374-3.787-16.292-3.534-26.083,17.42-11.81,20.74-15.6,39.151-3.282,51.737-3.282,58.05,6.668,26.9,6.668,26.9Z" transform="translate(-2021.614 -471.906)" fill="none"/></clipPath><linearGradient id="c" x1="0.323" y1="1.202" x2="-0.425" y2="0.368" gradientUnits="objectBoundingBox"><stop offset="0" stop-color="#f6462e"/><stop offset="1" stop-color="#fb7d42"/></linearGradient><linearGradient id="d" x1="0.031" y1="1.035" x2="0.971" y2="0.11" xlink:href="#c"/><linearGradient id="e" x1="0" y1="0.5" x2="1" y2="0.5" xlink:href="#a"/><linearGradient id="g" y1="0.5" x2="1" y2="0.5" gradientUnits="objectBoundingBox"><stop offset="0" stop-color="#caf0db"/><stop offset="1" stop-color="#f8f7db"/></linearGradient><linearGradient id="h" x1="0.37" y1="1.328" x2="1.069" y2="0.284" xlink:href="#c"/><linearGradient id="i" x1="-333.68" y1="-224.199" x2="-332.68" y2="-224.199" gradientUnits="objectBoundingBox"><stop offset="0" stop-color="#aaceff"/><stop offset="1" stop-color="#dbe9ff"/></linearGradient><linearGradient id="j" x1="-336.139" y1="-224.189" x2="-335.14" y2="-224.189" xlink:href="#i"/><linearGradient id="k" x1="-338.498" y1="-223.969" x2="-337.499" y2="-223.969" xlink:href="#i"/><linearGradient id="l" x1="-340.907" y1="-224.169" x2="-339.908" y2="-224.169" xlink:href="#i"/><linearGradient id="m" x1="-587.229" y1="-225.014" x2="-586.23" y2="-225.014" xlink:href="#i"/><linearGradient id="n" x1="-589.696" y1="-225.008" x2="-588.696" y2="-225.008" xlink:href="#i"/><linearGradient id="o" x1="-591.833" y1="-224.791" x2="-590.833" y2="-224.791" xlink:href="#i"/><linearGradient id="p" x1="-23.956" y1="0.5" x2="-22.956" y2="0.5" gradientUnits="objectBoundingBox"><stop offset="0" stop-color="#ebeae5"/><stop offset="1" stop-color="#abafb8"/></linearGradient><linearGradient id="q" y1="0.5" x2="1" y2="0.5" gradientUnits="objectBoundingBox"><stop offset="0" stop-color="#fea235"/><stop offset="1" stop-color="#ffb44f"/></linearGradient><linearGradient id="r" x1="-0.002" y1="0.5" x2="0.998" y2="0.5" xlink:href="#q"/><linearGradient id="s" x1="0" y1="0.5" x2="1" y2="0.5" xlink:href="#c"/><linearGradient id="w" x1="0.5" y1="0" x2="0.5" y2="1" xlink:href="#c"/><linearGradient id="ai" x1="-2.469" y1="3.255" x2="-1.469" y2="3.255" gradientUnits="objectBoundingBox"><stop offset="0" stop-color="#237c8f"/><stop offset="1" stop-color="#2abdd1"/></linearGradient><linearGradient id="aj" x1="-5.93" y1="-8.712" x2="-4.93" y2="-8.712" xlink:href="#c"/><linearGradient id="ak" x1="0.5" y1="0" x2="0.5" y2="1" xlink:href="#q"/><linearGradient id="al" x1="-0.071" y1="0.997" x2="1.013" y2="0.014" xlink:href="#q"/></defs><g transform="translate(0 -34.987)"><g transform="translate(6.943 190.732)"><rect width="198.44" height="1.508" fill="#1a1a1a"/></g><path d="M2041.683,491.542a1.229,1.229,0,1,1,.9-1.485A1.229,1.229,0,0,1,2041.683,491.542Z" transform="translate(-2026.113 -427.955)" fill="url(#a)"/><g transform="translate(0 48.127)"><g clip-path="url(#b)"><g transform="translate(9.105 3.602)"><g transform="translate(60.984 84.419)"><path d="M2131.295,593.6c3.836,7.227,10.616,29.7,11.445,32.468a50.4,50.4,0,0,0,6.845,8.765c3.786,4,4.245,7.37,4.069,9.313-.01.29-.444,11.877-2.5,14.747-.454.635-1.77.39-1.632-.458.538-3.3.728-12.385.728-12.385s-5.347,6.381-6.288,5.914a33.611,33.611,0,0,1-4.006-4.124c-1.108-1.255-.546-2.83.423-4.195a9.875,9.875,0,0,0,1.9-3.517,2.731,2.731,0,0,0-1.122-1.7c-.027,0-.053-.008-.079-.009-3.915-.258-4.643-5.4-4.776-7.035-2.733-6.9-16.094-20.026-21.538-31.851C2111.08,591.533,2125.037,581.812,2131.295,593.6Z" transform="translate(-2114.153 -588.12)" fill="#faaf9a"/><path d="M2148.8,665.3l4.937-6.533S2151.132,663.446,2148.8,665.3Z" transform="translate(-2122.558 -605.26)" fill="#1e1916"/><path d="M2151.106,667.953l6.462-7.022S2153.607,666.329,2151.106,667.953Z" transform="translate(-2123.118 -605.784)" fill="#1e1916"/></g><g transform="translate(40.572 40.866)"><path d="M2098.137,530.762c-4.764.907-11.685,7.284-10.868,17.613s8.265,33.606,16.07,49.2a47.409,47.409,0,0,0,24.043-22.487s-6.73-24.161-11.622-32.649S2103.394,529.762,2098.137,530.762Z" transform="translate(-2087.203 -530.617)" fill="url(#c)"/></g><path d="M2104.67,551.381c1.749,15.468-3.07,73.385.723,80.249,0,0-7.9,7.5-22.306,4.967-15.166-2.663-31.866,6.619-49.452,3.686,0-18.216.782-70.214,7.322-96.746,3.187-12.93,7.427-12.094,13.1-14.262C2072.48,522.23,2101.5,523.295,2104.67,551.381Z" transform="translate(-2033.635 -488.539)" fill="url(#d)"/><path d="M2098.239,511.588l-2.817,12.545c-.748,1.126-4.723,6.957-15.846-2.591l4.834-18.143A133.606,133.606,0,0,0,2098.239,511.588Z" transform="translate(-2044.78 -483.148)" fill="#faaf9a"/><path d="M2097.41,524.99c-6.931,3.914-11.808-4.583-11.514-9.324,5.788,4.941,10.105,4.228,11.64,5.606C2098.2,521.868,2097.638,524.054,2097.41,524.99Z" transform="translate(-2046.311 -486.124)" fill="#ed7662"/><path d="M2097.406,517.1c-4.236-.067-11.915-5.907-13.594-9.8-.6-1.386-.324-5.052.248-6.819,1.8-5.538,3.255-10.562,7.58-12.047,1.824-.621,6.4-.03,8.065.331,5.5,1.2,6.549,5.642,6.534,11.269C2106.222,506.351,2104.876,517.222,2097.406,517.1Z" transform="translate(-2045.726 -479.453)" fill="#faaf9a"/><g transform="translate(54.411 19.138)"><path d="M2105.653,511.057l-.178-.685c.832-.218,2.133-.745,2.28-1.179.011-.032.03-.087-.055-.2a7.546,7.546,0,0,1-1.192-5.724l.019-.083.054-.066a3.659,3.659,0,0,1,3.963-.966l-.232.668a2.9,2.9,0,0,0-3.127.685,6.875,6.875,0,0,0,1.074,5.053.881.881,0,0,1,.167.857C2108.1,510.371,2106.059,510.951,2105.653,511.057Z" transform="translate(-2105.474 -501.93)" fill="#1e1916"/></g><path d="M2085.832,503.876a3.96,3.96,0,1,1-3.926-3.994A3.96,3.96,0,0,1,2085.832,503.876Z" transform="translate(-2044.376 -482.295)" fill="#faaf9a"/><g transform="translate(35.577 19.085)"><path d="M2082.173,507.142a2.105,2.105,0,0,1-1.566-.589l.47-.529c.008.007.763.646,1.162.341.072-.057.043-.181-.135-.578-.2-.445-.5-1.118.072-1.645a3.592,3.592,0,0,1,.458-.335c.218-.143.517-.339.533-.478.009-.072-.064-.2-.193-.33a1.511,1.511,0,0,0-1.565-.344l-.257-.658a2.209,2.209,0,0,1,2.332.512,1.119,1.119,0,0,1,.387.9c-.054.47-.476.747-.85.99a2.963,2.963,0,0,0-.366.264c-.17.157-.125.345.094.835.181.4.455,1.014-.077,1.426A1.081,1.081,0,0,1,2082.173,507.142Z" transform="translate(-2080.607 -501.86)" fill="#1e1916"/></g><g transform="translate(49.441 30.224)"><path d="M2104.354,517.729a10.062,10.062,0,0,1-5.442-.515l.286-.648a10.092,10.092,0,0,0,5.828.305l.183.683C2105.168,517.566,2104.851,517.648,2104.354,517.729Z" transform="translate(-2098.912 -516.566)" fill="#1e1916"/></g><g transform="translate(47.474 18.834)"><path d="M2100.8,502.782c-.01-.014-.918-1.372-4.161.269l-.32-.632c3.885-1.962,5.041-.08,5.088,0l-.611.358.305-.179Z" transform="translate(-2096.315 -501.529)" fill="#1e1916"/></g><g transform="translate(50.642 46.258)"><path d="M2100.5,542.794v-.708c4.568,0,6.938-4.306,6.961-4.35l.623.336C2107.979,538.265,2105.484,542.794,2100.5,542.794Z" transform="translate(-2100.498 -537.736)" fill="#1e1916"/></g><g transform="translate(33.401 105.479)"><path d="M2095.506,654.354c-.148-.023-14.75-25.136-17.772-38.269l.689-.159c2.916,12.671,17.508,37.717,17.651,37.739Z" transform="translate(-2077.733 -615.926)"/></g><path d="M2087.568,493.819l-1.1,4.59a5.22,5.22,0,0,1-1.515-.093c.042-4.709-3.894-3.868-3.894-3.868-3.5-5.521,1.534-14.541,5.657-14.159,0,0,3.356-5.51,12.041-2.948s7.771,7.934,7.771,7.934,2.421,1.033,2.04,5.2-3.258,8.538-3.258,8.538l.044-3.668s-8.437-1.21-12.839-6.574C2091.334,493.4,2087.568,493.819,2087.568,493.819Z" transform="translate(-2044.853 -476.662)" fill="#1e1916"/><g transform="translate(55.739 31.542)"><path d="M1.666,0H36.472a0,0,0,0,1,0,0V7.384a0,0,0,0,1,0,0H1.666A1.666,1.666,0,0,1,0,5.718V1.666A1.666,1.666,0,0,1,1.666,0Z" transform="translate(0 7.716)" fill="url(#e)"/><path d="M2145.122,526.14v-.031a7.457,7.457,0,0,0,0,7.17v.026l7.991,6.194L2153,518.8Z" transform="translate(-2116.197 -518.426)" fill="url(#e)"/><path d="M2159.266,528.984c0,5.9-1.5,10.678-3.361,10.678s-3.362-4.781-3.362-10.678,1.505-10.677,3.362-10.677S2159.266,523.087,2159.266,528.984Z" transform="translate(-2118.221 -518.307)" fill="#1e1916"/><path d="M2156.117,539.213c-1.1,0-2.7-3.9-2.7-10.017s1.6-10.016,2.7-10.016,2.7,3.9,2.7,10.016S2157.218,539.213,2156.117,539.213Z" transform="translate(-2118.433 -518.519)" fill="url(#g)"/></g><g transform="translate(7.92 34.705)"><path d="M2051.2,532.032c-4.3,2.247-9.6,9.017-5.826,18.669s14.206,29.931,26.191,42.6c0,0,5.108-17.039,18.731-28.919,0,0-12.206-21.613-19.345-28.323S2055.945,529.553,2051.2,532.032Z" transform="translate(-2044.092 -524.414)" fill="url(#h)"/><g transform="translate(10.66 40.194)"><path d="M2071.344,585.381a16.322,16.322,0,0,1-13.179-9.519l.634-.311a15.813,15.813,0,0,0,15.844,9.17l.1.7A14.838,14.838,0,0,1,2071.344,585.381Z" transform="translate(-2058.165 -575.551)"/></g><path d="M2098.876,573.981c1.266.772-1.814,8.135-6.882,16.445s-10.2,14.421-11.468,13.648,1.814-8.134,6.882-16.445S2097.608,573.208,2098.876,573.981Z" transform="translate(-2052.861 -534.96)"/><g transform="translate(43.704)"><path d="M2118.548,542.646l10.741,1.472c-.405,7.328-7.625,27.281-13.806,36.723-1.14,1.738-2.208,3.309-3.162,4.61q-1.025-1.265-2.076-2.623c-4.228-5.5-7.409-10.641-8.452-13.459.582-.485,1.18-.991,1.795-1.507C2113.732,559.434,2118.548,542.646,2118.548,542.646Z" transform="translate(-2101.793 -527.374)" fill="#faaf9a"/><g transform="translate(12.335)"><path d="M2119.622,526.371s-.818,1.807-1.274,3.041-.418,2.135.794,3.982,3.222,6.613,5.249,7.4,7.526,2.792,10.347-2.518.742-14.74-2.006-12.024c0,0-.545-3.79-3.724-1.8,0,0-2.306-3.562-4.359-.567C2124.649,523.886,2121.121,519.441,2119.622,526.371Z" transform="translate(-2118.079 -522.482)" fill="#faaf9a"/><path d="M2126.434,524.336a11.153,11.153,0,0,0-.989,4.752,9.81,9.81,0,0,0,.757-2.321A9.951,9.951,0,0,0,2126.434,524.336Z" transform="translate(-2119.864 -522.932)" fill="#1e1916"/><path d="M2132.1,525.091a23.406,23.406,0,0,0-.81,3.159c-.2,1.064-.382,2.12-.5,3.218a8.272,8.272,0,0,0,.623-1.526,15.354,15.354,0,0,0,.4-1.59A14.293,14.293,0,0,0,2132.1,525.091Z" transform="translate(-2121.165 -523.115)" fill="#1e1916"/><path d="M2137.391,527.428c-.071.772-.085,1.5-.132,2.228-.013.365-.04.729-.064,1.1s-.057.736-.056,1.13a4.5,4.5,0,0,0,.654-2.2,5.4,5.4,0,0,0-.062-1.15A3.648,3.648,0,0,0,2137.391,527.428Z" transform="translate(-2122.704 -523.682)" fill="#1e1916"/></g></g><g transform="translate(1.877 25.463)"><path d="M2072.118,600.015c-.264-.242-26.455-24.326-25.524-43.914l.707.033c-.916,19.26,25.031,43.119,25.293,43.358Z" transform="translate(-2046.569 -556.101)"/></g><path d="M2082.055,599.463s2.676,6.293,11.149,10.832c7.926,4.246,18.794-23.237,20.324-25.925S2097,577.8,2097,577.8l-1.26-.41S2085.415,590.2,2082.055,599.463Z" transform="translate(-2053.301 -535.802)" fill="#faaf9a"/><g transform="translate(29.851 15.027)"><path d="M2098.9,566.35c-.09-.161-9.225-16.255-15.4-23.538l.579-.49c6.22,7.337,15.389,23.492,15.483,23.655Z" transform="translate(-2083.503 -542.322)"/></g></g><path d="M2100.508,505.635a1.093,1.093,0,1,1-1.094-1.093A1.093,1.093,0,0,1,2100.508,505.635Z" transform="translate(-2049.328 -483.426)" fill="#1e1916"/><path d="M2111.289,505.478a1.093,1.093,0,1,1-1.093-1.093A1.093,1.093,0,0,1,2111.289,505.478Z" transform="translate(-2051.943 -483.387)" fill="#1e1916"/></g></g></g><g transform="translate(69.168 147.67)"><path d="M2164.134,659.3a.292.292,0,0,1-.292.292l-50.32.064a.583.583,0,0,1-.584-.582v-1.4l51.2-.066Z" transform="translate(-2112.936 -616.499)" fill="#1e1916"/><g transform="translate(4.776 40.314)"><path d="M2121.039,656.834v.591l-1.8,0v-.787l1.6,0A.2.2,0,0,1,2121.039,656.834Z" transform="translate(-2119.242 -656.578)" fill="#1e1916"/><path d="M2123.791,656.831v.592l-1.8,0,0-.788,1.6,0A.2.2,0,0,1,2123.791,656.831Z" transform="translate(-2119.91 -656.578)" fill="#1e1916"/><path d="M2126.543,656.828v.591l-1.8,0v-.787l1.6,0A.2.2,0,0,1,2126.543,656.828Z" transform="translate(-2120.577 -656.577)" fill="#1e1916"/><path d="M2138.008,656.813v.591l-1.8,0v-.788l1.6,0A.2.2,0,0,1,2138.008,656.813Z" transform="translate(-2123.358 -656.573)" fill="#1e1916"/><path d="M2140.759,656.809v.592l-1.8,0v-.788l1.6,0A.2.2,0,0,1,2140.759,656.809Z" transform="translate(-2124.026 -656.572)" fill="#1e1916"/><path d="M2173.059,656.769v.591l-1.8,0v-.787l1.6,0A.2.2,0,0,1,2173.059,656.769Z" transform="translate(-2131.862 -656.562)" fill="#1e1916"/><path d="M2175.81,656.765v.592l-1.8,0v-.788l1.6,0A.2.2,0,0,1,2175.81,656.765Z" transform="translate(-2132.529 -656.561)" fill="#1e1916"/><path d="M2133.771,656.817v.591l-6.178.008v-.788l5.98-.008A.2.2,0,0,1,2133.771,656.817Z" transform="translate(-2121.268 -656.574)" fill="#1e1916"/><path d="M2183.34,656.754v.592l-6.175.008v-.788l5.98-.007A.2.2,0,0,1,2183.34,656.754Z" transform="translate(-2133.294 -656.559)" fill="#1e1916"/><path d="M2163.756,656.772v.591l-21.447.027V656.6l21.251-.026A.2.2,0,0,1,2163.756,656.772Z" transform="translate(-2124.838 -656.563)" fill="#1e1916"/></g><g transform="translate(54.135 40.27)"><path d="M2184.607,656.557l4.353-.005a.445.445,0,0,1,.445.444v.343l-4.993.006v-.592A.2.2,0,0,1,2184.607,656.557Z" transform="translate(-2184.411 -656.514)" fill="url(#i)"/><path d="M2192.55,656.547l4.352-.005a.444.444,0,0,1,.446.444v.342l-4.993.007v-.592A.194.194,0,0,1,2192.55,656.547Z" transform="translate(-2186.338 -656.512)" fill="url(#j)"/><path d="M2200.491,656.537l4.352-.006a.446.446,0,0,1,.447.445v.342l-4.994.007v-.591A.2.2,0,0,1,2200.491,656.537Z" transform="translate(-2188.265 -656.509)" fill="url(#k)"/><path d="M2208.434,656.527l4.353-.005a.445.445,0,0,1,.446.443v.343l-4.994.007v-.591A.2.2,0,0,1,2208.434,656.527Z" transform="translate(-2190.192 -656.507)" fill="url(#l)"/><path d="M2217.785,656.517l2.278,0a.444.444,0,0,1,.446.444v.342l-2.919,0v-.592A.2.2,0,0,1,2217.785,656.517Z" transform="translate(-2192.46 -656.505)" fill="url(#m)"/><path d="M2222.468,656.51l2.277,0a.446.446,0,0,1,.446.444v.342l-2.919,0v-.591A.2.2,0,0,1,2222.468,656.51Z" transform="translate(-2193.596 -656.504)" fill="url(#n)"/><path d="M2226.874,656.505l2.28,0a.445.445,0,0,1,.445.444v.343l-2.919,0V656.7A.2.2,0,0,1,2226.874,656.505Z" transform="translate(-2194.665 -656.502)" fill="url(#o)"/></g><path d="M2171.919,607.09a3.771,3.771,0,0,1,3.563-2.811l-11.548,42.154a2.3,2.3,0,0,1-1.443-2.805C2162.92,641.834,2169.695,615.676,2171.919,607.09Z" transform="translate(-2124.937 -603.562)" fill="#1e1916"/><g transform="translate(38.599)"><path d="M2175.848,603.76l53.6-.067a1.15,1.15,0,0,1,1.116,1.431l-9.816,38.982-56.383.071,9.911-39.187A1.628,1.628,0,0,1,2175.848,603.76Z" transform="translate(-2164.01 -603.42)" fill="url(#p)"/><path d="M2173.9,604.837a1.9,1.9,0,0,1,1.839-1.435l53.6-.068a1.423,1.423,0,0,1,1.38,1.769l-9.816,38.982-.051.206-56.946.072Zm56.287.133a.876.876,0,0,0-.851-1.09l-53.6.067a1.354,1.354,0,0,0-1.312,1.023l-9.825,38.846,55.821-.07Z" transform="translate(-2163.898 -603.333)" fill="#1e1916"/></g><path d="M2221.14,659.107a.291.291,0,0,1-.291.292l-55.3.07a.582.582,0,0,1-.584-.582l0-1.78,56.175-.071Z" transform="translate(-2125.558 -616.361)" fill="#1a1a1a"/><g transform="translate(0.636 40.785)"><rect width="39.404" height="0.668" transform="matrix(1, -0.001, 0.001, 1, 0, 0.05)" fill="#1a1a1a"/></g><g transform="translate(49.604 40.715)"><rect width="45.976" height="0.668" transform="translate(0 0.058) rotate(-0.072)" fill="#1e1916"/></g></g><g transform="translate(99.828 37.162)"><path d="M2300.464,514.213c0,31.364-22.359,56.79-49.944,56.79-27.44,0-49.723-25.176-49.936-56.328-.007-.152-.007-.311-.007-.462,0-.28,0-.561.007-.841.023-1.666.106-3.317.251-4.938.045-.515.1-1.023.151-1.53,3.159-27.9,24.13-49.474,49.534-49.474,16.087,0,30.4,8.65,39.536,22.086.2.3.395.583.592.886a59.935,59.935,0,0,1,7.694,17.39c.092.341.182.7.265,1.045A63.8,63.8,0,0,1,2300.464,514.213Z" transform="translate(-2157.695 -457.43)" fill="#1e1916"/><g transform="translate(0 6.141)"><path d="M2189.138,517.358c0-19.532,8.675-36.757,21.881-46.975l-54.9,36.959c-1.1,0-2.7,3.9-2.7,10.016s1.6,10.017,2.7,10.017l54.354,36.516C2197.576,553.622,2189.138,536.616,2189.138,517.358Z" transform="translate(-2153.416 -466.713)" opacity="0.3" fill="url(#q)"/><path d="M2236.605,465.555v-.017l-.193.13Z" transform="translate(-2173.551 -465.538)" opacity="0.5" fill="url(#r)"/></g><path d="M2300.464,514.213c0,31.364-22.359,56.79-49.944,56.79-27.44,0-49.723-25.176-49.936-56.328-.007-.152-.007-.311-.007-.462,0-.28,0-.561.007-.841.023-1.666.106-3.317.251-4.938.045-.515.1-1.023.151-1.53,3.159-27.9,24.13-49.474,49.534-49.474,16.087,0,30.4,8.65,39.536,22.086.2.3.395.583.592.886a59.935,59.935,0,0,1,7.694,17.39c.092.341.182.7.265,1.045A63.8,63.8,0,0,1,2300.464,514.213Z" transform="translate(-2164.857 -457.43)" fill="#f8f8fc"/><g transform="translate(39.882 5.497)"><path d="M2269.932,533.369a6.189,6.189,0,0,1-9.027,2.31,7.706,7.706,0,0,1-2-10.013,6.2,6.2,0,0,1,9.028-2.31A7.726,7.726,0,0,1,2269.932,533.369Z" transform="translate(-2218.64 -478.652)" fill="url(#s)"/><g transform="translate(26.153 29.068)"><path d="M2270.772,506.379c-9.135-6.377-21.261-3.272-27.093,6.938s-3.136,23.654,6,30.031,21.269,3.28,27.093-6.93S2279.914,512.756,2270.772,506.379Zm.484,26.191c-3.885,6.8-11.967,8.877-18.064,4.62s-7.877-13.217-3.992-20.026,11.967-8.877,18.056-4.62S2275.142,525.761,2271.257,532.57Z" transform="translate(-2240.602 -503.065)" fill="url(#s)"/></g><g transform="translate(13.071 14.532)"><path d="M2273.618,489.4c-15.231-10.634-35.447-5.461-45.157,11.558s-5.234,39.43,10,50.064,35.447,5.453,45.149-11.558S2288.848,500.034,2273.618,489.4Zm4.475,46.209c-7.763,13.618-23.933,17.754-36.12,9.248s-15.762-26.441-8-40.052,23.943-17.754,36.128-9.24S2285.865,522,2278.093,535.609Z" transform="translate(-2223.33 -483.873)" fill="url(#s)"/></g><path d="M2276.46,472.422a41.594,41.594,0,0,0-35.431-6.173c-.356.091-.7.2-1.045.3-.015.008-.031.008-.045.015s-.015.008-.023.008c-1.3.4-2.575.871-3.84,1.394a44.337,44.337,0,0,0-6.491,3.363c-1.061.667-2.106,1.378-3.113,2.136-.682.508-1.356,1.038-2.015,1.591a49.8,49.8,0,0,0-11.21,13.542,54.667,54.667,0,0,0-6.725,20.23c-.068.523-.129,1.038-.174,1.56a53.648,53.648,0,0,0-.266,6.415c-.007.538.016,1.083.046,1.621.007.273.023.538.038.81a55.78,55.78,0,0,0,2.629,14.027,51.028,51.028,0,0,0,10.043,17.875c.4.462.811.916,1.226,1.356a46.479,46.479,0,0,0,7.173,6.188,43.918,43.918,0,0,0,5.726,3.4,42.789,42.789,0,0,0,5.393,2.219,40.634,40.634,0,0,0,7.635,1.757.028.028,0,0,0,.023.008,42.215,42.215,0,0,0,26.365-5.249,44.411,44.411,0,0,0,5.113-3.37,47.55,47.55,0,0,0,4.787-4.173.43.43,0,0,1,.083-.083,51.093,51.093,0,0,0,8.1-10.679,53.966,53.966,0,0,0,4.657-10.755C2301.924,509.944,2294.691,485.147,2276.46,472.422Zm8.483,66.235c-11.656,20.42-35.916,26.63-54.185,13.868s-23.646-39.658-12-60.077,35.909-26.623,54.185-13.868S2296.591,518.238,2284.943,538.657Z" transform="translate(-2206.073 -464.687)" fill="url(#s)"/><g transform="translate(13.071 14.532)"><path d="M2269.932,533.369a6.189,6.189,0,0,1-9.027,2.31,7.706,7.706,0,0,1-2-10.013,6.2,6.2,0,0,1,9.028-2.31A7.726,7.726,0,0,1,2269.932,533.369Z" transform="translate(-2231.711 -493.183)" fill="url(#w)"/><path d="M2270.772,506.379c-9.135-6.377-21.261-3.272-27.093,6.938s-3.136,23.654,6,30.031,21.269,3.28,27.093-6.93S2279.914,512.756,2270.772,506.379Zm.484,26.191c-3.885,6.8-11.967,8.877-18.064,4.62s-7.877-13.217-3.992-20.026,11.967-8.877,18.056-4.62S2275.142,525.761,2271.257,532.57Z" transform="translate(-2227.52 -488.529)" fill="url(#w)"/><path d="M2273.618,489.4c-15.231-10.634-35.447-5.461-45.157,11.558s-5.234,39.43,10,50.064,35.447,5.453,45.149-11.558S2288.848,500.034,2273.618,489.4Zm4.475,46.209c-7.763,13.618-23.933,17.754-36.12,9.248s-15.762-26.441-8-40.052,23.943-17.754,36.128-9.24S2285.865,522,2278.093,535.609Z" transform="translate(-2223.33 -483.873)" fill="url(#w)"/></g><g transform="translate(13.071 14.532)"><path d="M2269.932,533.369a6.189,6.189,0,0,1-9.027,2.31,7.706,7.706,0,0,1-2-10.013,6.2,6.2,0,0,1,9.028-2.31A7.726,7.726,0,0,1,2269.932,533.369Z" transform="translate(-2231.711 -493.183)" fill="url(#s)"/><g transform="translate(13.083 14.536)"><path d="M2270.772,506.379c-9.135-6.377-21.261-3.272-27.093,6.938s-3.136,23.654,6,30.031,21.269,3.28,27.093-6.93S2279.914,512.756,2270.772,506.379Zm.484,26.191c-3.885,6.8-11.967,8.877-18.064,4.62s-7.877-13.217-3.992-20.026,11.967-8.877,18.056-4.62S2275.142,525.761,2271.257,532.57Z" transform="translate(-2240.602 -503.065)" fill="url(#s)"/></g><path d="M2273.618,489.4c-15.231-10.634-35.447-5.461-45.157,11.558s-5.234,39.43,10,50.064,35.447,5.453,45.149-11.558S2288.848,500.034,2273.618,489.4Zm4.475,46.209c-7.763,13.618-23.933,17.754-36.12,9.248s-15.762-26.441-8-40.052,23.943-17.754,36.128-9.24S2285.865,522,2278.093,535.609Z" transform="translate(-2223.33 -483.873)" fill="url(#s)"/></g><g transform="translate(26.153 29.068)"><path d="M2269.932,533.369a6.189,6.189,0,0,1-9.027,2.31,7.706,7.706,0,0,1-2-10.013,6.2,6.2,0,0,1,9.028-2.31A7.726,7.726,0,0,1,2269.932,533.369Z" transform="translate(-2244.793 -507.72)" fill="url(#w)"/><path d="M2270.772,506.379c-9.135-6.377-21.261-3.272-27.093,6.938s-3.136,23.654,6,30.031,21.269,3.28,27.093-6.93S2279.914,512.756,2270.772,506.379Zm.484,26.191c-3.885,6.8-11.967,8.877-18.064,4.62s-7.877-13.217-3.992-20.026,11.967-8.877,18.056-4.62S2275.142,525.761,2271.257,532.57Z" transform="translate(-2240.602 -503.065)" fill="url(#w)"/></g><g transform="translate(26.153 29.068)"><path d="M2269.932,533.369a6.189,6.189,0,0,1-9.027,2.31,7.706,7.706,0,0,1-2-10.013,6.2,6.2,0,0,1,9.028-2.31A7.726,7.726,0,0,1,2269.932,533.369Z" transform="translate(-2244.793 -507.72)" fill="url(#s)"/><path d="M2270.772,506.379c-9.135-6.377-21.261-3.272-27.093,6.938s-3.136,23.654,6,30.031,21.269,3.28,27.093-6.93S2279.914,512.756,2270.772,506.379Zm.484,26.191c-3.885,6.8-11.967,8.877-18.064,4.62s-7.877-13.217-3.992-20.026,11.967-8.877,18.056-4.62S2275.142,525.761,2271.257,532.57Z" transform="translate(-2240.602 -503.065)" fill="url(#s)"/></g><g transform="translate(39.236 43.598)"><g transform="translate(0)"><path d="M2269.932,533.369a6.189,6.189,0,0,1-9.027,2.31,7.706,7.706,0,0,1-2-10.013,6.2,6.2,0,0,1,9.028-2.31A7.726,7.726,0,0,1,2269.932,533.369Z" transform="translate(-2257.876 -522.25)" fill="url(#w)"/></g></g><g transform="translate(39.236 43.598)"><path d="M2269.932,533.369a6.189,6.189,0,0,1-9.027,2.31,7.706,7.706,0,0,1-2-10.013,6.2,6.2,0,0,1,9.028-2.31A7.726,7.726,0,0,1,2269.932,533.369Z" transform="translate(-2257.876 -522.25)" fill="url(#s)"/></g></g></g><path d="M2099.574,456.618a1.229,1.229,0,1,1-.075-1.737A1.229,1.229,0,0,1,2099.574,456.618Z" transform="translate(-2040.009 -419.571)" fill="url(#ai)"/><path d="M2155.121,461.6a1.229,1.229,0,1,1-.075-1.738A1.229,1.229,0,0,1,2155.121,461.6Z" transform="translate(-2053.484 -420.78)" fill="url(#aj)"/><g transform="translate(154.343 132.47) rotate(-128)"><path d="M488.644,282.022h2.68v-3.268H493.1v3.268h3.547v-6.46h2.331v5.067h2.837v-2.584h1.064v3.978h1.571V269.9H488.639Z" transform="translate(586.678 30.115) rotate(150)" fill="url(#ak)"/><path d="M488.644,282.022h2.68v-3.268H493.1v3.268h3.547v-6.46h2.331v5.067h2.837v-2.584h1.064v3.978h1.571V269.9H488.639Z" transform="translate(586.678 30.115) rotate(150)" opacity="0.04"/><path d="M4476.662,1474.2l-1.808-3.116a1.411,1.411,0,0,1,.511-1.928l38.112-22.119-1.661-2.863a14.189,14.189,0,1,1,24.543-14.245l6.548,11.281a14.19,14.19,0,1,1-24.545,14.245l-1.661-2.862-38.111,22.119a1.41,1.41,0,0,1-1.928-.511Zm43.4-44.085a8.029,8.029,0,0,0-2.911,10.962l6.548,11.281a8.02,8.02,0,1,0,13.872-8.051l-6.546-11.281a8.025,8.025,0,0,0-10.962-2.911Z" transform="translate(-4466.569 -1422.859)" fill="url(#al)"/><path d="M4477.883,1475.4a1.917,1.917,0,0,1-1.653-.951l-1.809-3.117a1.913,1.913,0,0,1,.692-2.611l37.68-21.868-1.41-2.43a14.693,14.693,0,0,1,12.692-22.065,14.682,14.682,0,0,1,12.717,7.318l6.548,11.281a14.693,14.693,0,0,1-12.691,22.066,14.685,14.685,0,0,1-12.719-7.318l-1.41-2.43-37.679,21.868A1.908,1.908,0,0,1,4477.883,1475.4Zm46.192-52.042a13.691,13.691,0,0,0-11.827,20.563l1.912,3.3-.433.251-38.112,22.119a.912.912,0,0,0-.33,1.244l1.809,3.117a.909.909,0,0,0,1.244.33l38.544-22.37,1.912,3.295a13.689,13.689,0,0,0,23.68-13.743l-6.548-11.281a13.68,13.68,0,0,0-11.852-6.82Zm6.574,33.491h0a8.526,8.526,0,0,1-7.383-4.242l-6.548-11.281a8.52,8.52,0,0,1,14.739-8.553l6.546,11.281a8.517,8.517,0,0,1-7.354,12.8Zm-6.575-27.318a7.518,7.518,0,0,0-6.49,11.293l6.548,11.281a7.524,7.524,0,0,0,10.278,2.73,7.527,7.527,0,0,0,2.729-10.279l-6.546-11.281A7.555,7.555,0,0,0,4524.074,1429.532Z" transform="translate(-4466.569 -1422.859)" fill="rgba(0,0,0,0)"/><g transform="translate(1.563 27.648)" opacity="0"><g transform="translate(0 0)"><path d="M2.78,0a.264.264,0,0,0-.132.036L.132,1.5A.264.264,0,1,0,.4,1.953L2.684.626,7.89,9.594a1.94,1.94,0,0,0,2.65.7.264.264,0,1,0-.265-.458,1.412,1.412,0,0,1-1.927-.512L3.009.132A.264.264,0,0,0,2.78,0Z" transform="translate(0 0)" fill="#f45e32"/></g><g transform="translate(13.418 0.49)"><path d="M1.16,0a.264.264,0,0,0-.132.036l-.9.52A.264.264,0,0,0,.4,1.013L1.064.626,2.952,3.877a.264.264,0,0,0,.457-.265L1.389.132A.265.265,0,0,0,1.16,0Z" transform="translate(0 0)" fill="#f45e32"/></g><g transform="translate(17.558 6.079)"><path d="M.264,0A.264.264,0,0,0,.036.4L1.82,3.471a.264.264,0,0,0,.458-.265L.493.132A.265.265,0,0,0,.264,0Z" transform="translate(0 0)" fill="#f45e32"/></g></g><g transform="translate(28.548 26.768)"><g transform="translate(0 3.219)"><path d="M10.354,0a.264.264,0,0,0-.132.036L.132,5.892A.264.264,0,0,0,.4,6.349L10.487.493A.264.264,0,0,0,10.354,0Z" transform="translate(0 0)" fill="#ed850e" opacity="0"/></g><g transform="translate(12.912 0)"><path d="M2.988,0a.264.264,0,0,0-.132.036L.132,1.616A.264.264,0,0,0,.4,2.074L3.121.493A.264.264,0,0,0,2.988,0Z" transform="translate(0 0)" fill="#ed850e" opacity="0"/></g></g><g transform="translate(9.556 33.717)"><g transform="translate(23.391 0)"><path d="M7.406,0a.264.264,0,0,0-.132.036L.132,4.18A.264.264,0,1,0,.4,4.638L7.538.493A.264.264,0,0,0,7.406,0Z" transform="translate(0 0)" fill="#fdd247" opacity="0"/></g><g transform="translate(0 5.676)"><path d="M21.017,0a.263.263,0,0,0-.132.036L1.789,11.118.493,8.886a.264.264,0,0,0-.458.265l1.34,2.309a.441.441,0,0,0,.6.16L21.15.493A.264.264,0,0,0,21.017,0Z" transform="translate(0)" fill="#fdd247" opacity="0"/></g></g><g transform="translate(44.302 0.971)" opacity="0"><g transform="translate(0 0)"><path d="M13.185,0a13.221,13.221,0,0,0-11.4,19.857.264.264,0,1,0,.457-.265A12.691,12.691,0,0,1,24.193,6.85a.264.264,0,0,0,.458-.265A13.131,13.131,0,0,0,16.608.45,13.33,13.33,0,0,0,13.185,0Z" transform="translate(0 0)" fill="#ed850e"/></g><g transform="translate(25.416 8.621)"><path d="M.264,0A.264.264,0,0,0,.036.4l3.628,6.25a.264.264,0,1,0,.457-.265L.493.132A.264.264,0,0,0,.264,0Z" transform="translate(0 0)" fill="#ed850e"/></g><g transform="translate(11.496 28.128)"><path d="M16.661,0a.265.265,0,0,0-.24.154,8.922,8.922,0,0,1-3.64,3.995,8.928,8.928,0,0,1-6.818.909A8.929,8.929,0,0,1,.493.886a.264.264,0,0,0-.457.265A9.453,9.453,0,0,0,5.827,5.569a9.453,9.453,0,0,0,7.219-.963A9.448,9.448,0,0,0,16.9.375.265.265,0,0,0,16.661,0Z" transform="translate(0 0)" fill="#ed850e"/></g></g><g transform="translate(48.067 4.678)" opacity="0"><g transform="translate(19.034 31.736)"><path d="M3.469,0a.264.264,0,0,0-.132.036A12.674,12.674,0,0,1,.2,1.334a.264.264,0,1,0,.135.511A13.2,13.2,0,0,0,3.6.493.264.264,0,0,0,3.469,0Z" transform="translate(0 0)" fill="#fdd247"/></g><g transform="translate(4.53 27.034)"><path d="M.264,0A.264.264,0,0,0,.036.4,13.206,13.206,0,0,0,12.064,6.966a.264.264,0,0,0-.023-.528A12.67,12.67,0,0,1,.493.132.264.264,0,0,0,.264,0Z" transform="translate(0 0)" fill="#fdd247"/></g><g transform="translate(17.191 4.605)"><path d="M.264,0A.265.265,0,0,0,.036.4L2.3,4.293a.264.264,0,1,0,.457-.265L.493.132A.264.264,0,0,0,.264,0Z" transform="translate(0 0)" fill="#fdd247"/></g><g transform="translate(0 0)"><path d="M9.445,0A9.5,9.5,0,0,0,0,8.406a.264.264,0,0,0,.525.062,8.987,8.987,0,0,1,14.756-5.8.264.264,0,1,0,.343-.4A9.534,9.534,0,0,0,9.445,0Z" transform="translate(0 0)" fill="#fdd247"/></g></g></g></g></svg>