<svg data-name="Capa 1" xmlns="http://www.w3.org/2000/svg" xmlns:xlink="http://www.w3.org/1999/xlink" viewBox="0 0 1440 325"><defs><linearGradient id="c" x1="1461.72" y1="686.37" x2="1979.99" y2="686.37" gradientTransform="matrix(-.09 1 1 .09 749.04 -1688.46)" gradientUnits="userSpaceOnUse"><stop offset="0" stop-color="#8df690" stop-opacity=".98"/><stop offset="1" stop-color="#69e781"/></linearGradient><linearGradient id="a" x1="-38.46" y1="405.81" x2="716.89" y2="405.81" gradientTransform="matrix(1 0 0 -1 0 325)" gradientUnits="userSpaceOnUse"><stop offset="0" stop-color="#4ad295"/><stop offset="1" stop-color="#00af80"/></linearGradient><linearGradient id="d" x1="927.91" y1="6.4" x2="1475.37" y2="6.4" xlink:href="#a"/><clipPath id="b"><path fill="none" d="M0 0h1440v325H0z"/></clipPath></defs><g clip-path="url(#b)"><path fill="#00af80" d="M0 325V0h1440v325H0z"/><path d="M671.1 371.3c3.9-18.4 12.1-37.6 24.2-52s29-25.9 46.7-29.6c20.6-4.3 41.7-1.4 61.9 3.2 23.5 5.4 56 2.7 79.2-12.1s37-33.6 54.1-53.3c25-28.7 56.9-53.3 96.9-50.4 31.7 2.3 58.6 21.6 76.9 46.9 11.5 16 19.9 34.1 26.2 52.7 23.7 70.6 12.4 94 12.4 94z" fill="#2bc48a"/><path d="M1509.6 65.5c-62.7 121.2-220 80-196.2 184.6s-212.2 153.6-278.1-48.9 240-51.6 141.3-209.2 115.4-175.5 210.6-151.4 185.1 103.7 122.4 224.9z" fill="url(#c)"/><path d="M714.3-92.6c-4.5 22.4-27.5 75-68.4 111.1S540.6 58 500.6 42.8s-76.1-12.2-99.1 10.8-18.9 43.4-24.6 73.1-48.2 93.7-113.9 83.8-107.1-83-113.8-125.2-25.9-70.6-61-55.5c-18.3 7.8-67.8 40.1-94.5 6.8C-134.1-123 144.8-386.8 377.8-372.6c210.5 12.8 360.9 158.3 336.5 280z" fill="url(#a)"/><path d="M292.6 295c-.3-1.9-15.9-87.8-115-86.4s-8.3-101.4-91.7-142S61.7-28.5-53.8-18.6s-185.5 248.5-92.6 364.5c116.2 144.8 475.8 193.3 439-50.9z" fill="#69e781"/><path d="M1463.6 189.3C1442 132.1 1382.9 73.2 1340 81.7c-37.7 7.5-50.2 64.5-96.9 66.1-25.5.9-33.7-15.6-50.3-9.4-35.8 13.4-18 97.8-47.8 110.1-32 13.3-71.2-76.2-120.5-71.9-55.9 4.9-118.9 130.1-88.8 226.8 36.2 116.5 203.8 180.7 333.2 141.3 155.2-47.1 238.9-238.1 194.7-355.4z" fill="url(#d)"/><path d="M1241.5 35c-7.7 10.2-5.9 22.9-5.4 26.8s4 24 20.2 30.2 33.5-3.8 41.4-18.2 7-32.2-5.2-43.6c-15-14.2-40.4-9.3-51 4.8" fill="#69e781"/></g></svg>