<?xml version="1.0" encoding="utf-8"?>
<!-- Generator: Adobe Illustrator 28.0.0, SVG Export Plug-In . SVG Version: 6.00 Build 0)  -->
<svg version="1.1" id="Layer_1" xmlns="http://www.w3.org/2000/svg" xmlns:xlink="http://www.w3.org/1999/xlink" x="0px" y="0px"
	 viewBox="0 0 20 20" style="enable-background:new 0 0 20 20;" xml:space="preserve">
<style type="text/css">
	.st0{fill:#0F52BA;}
</style>
<g>
	<path class="st0" d="M14,0.9c0,0.2,0,0.3,0,0.5c0,0.8-0.2,1.6-0.7,2.2c2.3,1.2,3.9,3.6,3.9,6.4c0,4-3.3,7.3-7.3,7.3S2.6,14,2.6,10
		c0-0.7,0.1-1.4,0.3-2.1l-2-2.4C0.4,6.9,0,8.4,0,10c0,5.5,4.5,10,10,10s10-4.5,10-10C20,5.9,17.5,2.4,14,0.9L14,0.9z"/>
	<path class="st0" d="M7.7,10c0,1.3,1,2.3,2.3,2.3s2.3-1,2.3-2.3s-1-2.3-2.3-2.3H9.9L4.6,1.4L2.5,3.1l5.2,6.3
		C7.7,9.6,7.7,9.8,7.7,10L7.7,10z"/>
	<path class="st0" d="M11.4,1.4c0,0.8-0.6,1.4-1.4,1.4c-0.8,0-1.4-0.6-1.4-1.4S9.2,0,10,0C10.7,0,11.4,0.6,11.4,1.4L11.4,1.4z"/>
</g>
</svg>
