<?xml version="1.0" encoding="utf-8"?>
<!-- Generator: Adobe Illustrator 28.0.0, SVG Export Plug-In . SVG Version: 6.00 Build 0)  -->
<svg version="1.1" id="Layer_1" xmlns="http://www.w3.org/2000/svg" xmlns:xlink="http://www.w3.org/1999/xlink" x="0px" y="0px"
	 viewBox="0 0 512 512" style="enable-background:new 0 0 512 512;" xml:space="preserve">
<style type="text/css">
	.st0{fill:#FFFFFF;}
</style>
<path class="st0" d="M142.9,142.9c62.2-62.2,162.7-62.5,225.3-1L327,183c-6.9,6.9-8.9,17.2-5.2,26.2S334.3,224,344,224h119.5l0,0
	h8.5c13.3,0,24-10.7,24-24V72c0-9.7-5.8-18.5-14.8-22.2S461.9,48.1,455,55l-41.6,41.6c-87.6-86.5-228.7-86.2-315.8,1
	c-24.4,24.4-42,53.1-52.8,83.8c-5.9,16.7,2.9,34.9,19.5,40.8s34.9-2.9,40.8-19.5C112.8,180.9,125.3,160.4,142.9,142.9L142.9,142.9z
	 M16,312v7.6v0.7V440c0,9.7,5.8,18.5,14.8,22.2s19.3,1.7,26.2-5.2l41.6-41.6c87.6,86.5,228.7,86.2,315.8-1
	c24.4-24.4,42.1-53.1,52.9-83.7c5.9-16.7-2.9-34.9-19.5-40.8s-34.9,2.9-40.8,19.5c-7.7,21.8-20.2,42.3-37.8,59.8
	c-62.2,62.2-162.7,62.5-225.3,1L185,329c6.9-6.9,8.9-17.2,5.2-26.2S177.7,288,168,288H48.4h-0.7H40C26.7,288,16,298.7,16,312z"/>
</svg>
