<svg xmlns="http://www.w3.org/2000/svg" xmlns:xlink="http://www.w3.org/1999/xlink" viewBox="0 0 94.3 154.5">
  <defs>
    <path id="a" fill="#0e5f9e" d="M41.6 42.4a.9.9 0 0 1-.9-.6l-1-3.6-3.4 1.4a.8.8 0 0 1-.2 0 1 1 0 0 1-.8-.4.9.9 0 0 1-.1-.9l4.1-8.5a.7.7 0 0 1 .6-.4.6.6 0 0 1 .6.4 2.3 2.3 0 0 0 2 1 2.2 2.2 0 0 0 1.5-.6l.1-.1a.5.5 0 0 1 .3-.1.6.6 0 0 1 .2 0 .7.7 0 0 1 .6.4c.4 1.3 1 1.6 1.2 1.7 0 0 .5.4.4.9l-4.4 8.9a1 1 0 0 1-.8.5ZM40 36.7a.7.7 0 0 1 .7.5l.9 3.2 3.6-7.4a2.4 2.4 0 0 1-.3-.3 3.5 3.5 0 0 1-.8-1 4.7 4.7 0 0 1-2 .5 2.5 2.5 0 0 1-.2 0 3.6 3.6 0 0 1-1-.4 5.7 5.7 0 0 1-1-.5l-1.9 4-1.3 2.7 3.2-1.3a.7.7 0 0 1 .1 0Z"/>
    <path id="b" fill="#0e5f9e" d="M52.8 42.7a.8.8 0 0 1-.8-.5L48 33c-.2-.4.1-.6.5-1a2.8 2.8 0 0 0 .8-.7 3.3 3.3 0 0 0 .3-.8c0-.3.1-.3.2-.3a.6.6 0 0 1 .4-.2 1 1 0 0 1 .6.4 2.2 2.2 0 0 0 1.6.6 2.3 2.3 0 0 0 2-1 .7.7 0 0 1 .5-.3.7.7 0 0 1 .6.4l3.9 8.8a1 1 0 0 1-.8 1.2.8.8 0 0 1-.4 0l-3.4-1.6-1.2 3.6a.9.9 0 0 1-.8.6Zm-2.3-10.9a4.5 4.5 0 0 1-1.1 1.2l3.3 7.6 1.1-3.2a.7.7 0 0 1 .6-.4.7.7 0 0 1 .3 0l3 1.4-3-6.9a3.6 3.6 0 0 1-2.4.9 3.4 3.4 0 0 1-1.8-.6Z"/>
  </defs>
  <path fill="#ffab00" d="M75.1 22c0 2-.2 4-.4 5.8l-.1.7v.6a61.9 61.9 0 0 1-1 5.3l-.2.9-.1.2-.2.7v.5l-.1.2-.2.8-1.2 3.6A22.8 22.8 0 0 1 71 43v.1l-.3.8v.1l-.3.6-.2.4a13 13 0 0 1-.6 1.5l-.4.7-.4.8-.2.5-.1.2-1.1 2-.3.5-.2.3-.3.5-.4.5-.4.7h-.1l-.4.7-.4.5v.1l-.6.6a24 24 0 0 1-13.8 9.4L50.2 82h-7.3l.3-17.6a24 24 0 0 1-13.6-9.8 41.7 41.7 0 0 1-3.9-6.6A57.8 57.8 0 0 1 21 32.4l-.7-5.5L20 21a1.6 1.6 0 0 1 1.6-1.6l52 .9a1.6 1.6 0 0 1 1.5 1.7Z"/>
  <path fill="rgba(255,255,255,0.4)" d="M75.1 22c0 2-.2 4-.4 5.8l-.1.7v.6a61.9 61.9 0 0 1-1 5.3l-.2.9-.1.2-.2.7v.5l-.1.2-.2.8-1.2 3.6A22.8 22.8 0 0 1 71 43v.1l-.3.8v.1l-.3.6-.2.4a13 13 0 0 1-.6 1.5l-.4.7-.4.8-.2.5-.1.2-1.1 2-.3.5-.2.3-.3.5-.4.5-.4.7h-.1l-.4.7-.4.5v.1l-.6.6a24 24 0 0 1-13.8 9.4L50.2 82h-7.3l.3-17.6a24 24 0 0 1-13.6-9.8 41.7 41.7 0 0 1-3.9-6.6A57.8 57.8 0 0 1 21 32.4l-.7-5.5L20 21a1.6 1.6 0 0 1 1.6-1.6l52 .9a1.6 1.6 0 0 1 1.5 1.7Z"/>
  <path fill="#ffab00" d="m50.2 82.7-7.4-.1c-.5 0-.6-.2-.6-.7l.3-17h-.3a23.3 23.3 0 0 1-10.8-7.1A41.6 41.6 0 0 1 24.1 46a59.5 59.5 0 0 1-3.6-12.2A70 70 0 0 1 19.3 21a2.3 2.3 0 0 1 2.3-2.2l26 .3 26 .5a2.3 2.3 0 0 1 2.2 2.4l-.6 6.4v.5a67.1 67.1 0 0 1-1.5 7.6 60.2 60.2 0 0 1-2 6.7h-.1l-.4 1a50.7 50.7 0 0 1-2 4.6l-.3.3v.2l-1.3 2.2-.1.1-.1.3-.6.9a35 35 0 0 1-6.7 7.6 21.7 21.7 0 0 1-9 4.5l-.3 17c0 .6-.2.7-.6.7Zm6-62L39 20.4l-17.3-.2a1 1 0 0 0-1 1 67.1 67.1 0 0 0 2.4 18 45.5 45.5 0 0 0 8 16c2.4 3.2 6.6 7.2 12.3 8.5a.7.7 0 0 1 .5.7l-.3 16.9h6l.3-16.8c0-.6.4-.6.8-.7h.3a20.2 20.2 0 0 0 7.4-3.6 29.2 29.2 0 0 0 5.9-6 43.7 43.7 0 0 0 3.7-5.7 1.8 1.8 0 0 1 .1-.4 1 1 0 0 0 .1-.1l1.1-2.4.8-1.8.1-.3v-.1a51 51 0 0 0 2.2-6.7l.6-2.2v-.2l.4-1.8a69.9 69.9 0 0 0 1.2-10 1.5 1.5 0 0 0-.4-1.2.8.8 0 0 0-.6-.2l-17.3-.4Z"/>
  <path fill="#ffab00" d="M61.8 89.6 31 89a7.4 7.4 0 0 1 2.3-5.1 7.2 7.2 0 0 1 5.1-2l16.2.2a7.3 7.3 0 0 1 7.2 7.5Z"/>
  <path fill="rgba(255,255,255,0.4)" d="M61.8 89.6 31 89a7.4 7.4 0 0 1 2.3-5.1 7.2 7.2 0 0 1 5.1-2l16.2.2a7.3 7.3 0 0 1 7.2 7.5Z"/>
  <path fill="#ffab00" d="M61.7 90.2 31 89.7a.5.5 0 0 1-.4-.2c-.4-.6 0-2.1 0-2.6a8 8 0 0 1 7.8-5.7l8.1.1c2.7.1 5.5 0 8.2.2a8 8 0 0 1 5.4 2.4 8 8 0 0 1 2.3 5.6s-.1.7-.7.7Zm-12.5-7.5-5.4-.1-5.4-.1a6.6 6.6 0 0 0-4.4 1.7 6.7 6.7 0 0 0-2.3 4.2l29.4.5v-.2a6.7 6.7 0 0 0-2.1-4.1 6.6 6.6 0 0 0-4.4-1.8l-5.4-.1Z"/>
  <path fill="#ffab00" d="m68.8 99.3-45-.7v-3.1a6.5 6.5 0 0 1 6.6-6.5l32 .6a6.5 6.5 0 0 1 6.4 6.7Z"/>
  <path fill="rgba(255,255,255,0.4)" d="m68.8 99.3-45-.7v-3.1a6.5 6.5 0 0 1 6.6-6.5l32 .6a6.5 6.5 0 0 1 6.4 6.7Z"/>
  <path fill="#ffab00" d="m68.7 100-45-.8c-.5 0-.6-.2-.6-.6v-1.2a12.2 12.2 0 0 1 .5-4.4 7.3 7.3 0 0 1 6.7-4.6l12.6.1 14 .3 5.6.1a7.2 7.2 0 0 1 4.9 2.3 7.2 7.2 0 0 1 2 5v3.1c0 .6-.2.7-.7.7Zm-17-10H41.2l-10.7-.2a5.9 5.9 0 0 0-4.1 1.7 5.9 5.9 0 0 0-1.9 4.1V98l43.7.8v-.9a10 10 0 0 0-.3-3.6 6 6 0 0 0-5.4-4c-3.2 0-6.6 0-10.6-.2Z"/>
  <path fill="#8592a3" d="m72.5 115.6-53-.9a1 1 0 0 1-1.1-1l.2-12a6.2 6.2 0 0 1 6.3-6l42.8.7a6.2 6.2 0 0 1 6 6.3l-.2 11.9a1 1 0 0 1-1 1Z"/>
  <path fill="rgba(0,0,0,0.1)" d="m72.5 115.6-53-.9a1 1 0 0 1-1.1-1l.2-12a6.2 6.2 0 0 1 6.3-6l42.8.7a6.2 6.2 0 0 1 6 6.3l-.2 11.9a1 1 0 0 1-1 1Z"/>
  <path fill="#8592a3" d="M54.8 116a518 518 0 0 1-17.7-.3l-17.7-.3a1.8 1.8 0 0 1-1.7-1.7l.2-12a7 7 0 0 1 7-6.7 1764.3 1764.3 0 0 1 36 .6l6.8.1a6.9 6.9 0 0 1 4.7 2.1 6.9 6.9 0 0 1 2 4.9l-.1 7.9-.1 4a1.8 1.8 0 0 1-1.7 1.7l-17.7-.2Zm-1.4-19.2-14.2-.3-14.3-.2a5.6 5.6 0 0 0-3.9 1.6 5.6 5.6 0 0 0-1.8 3.9v2.6l-.2 9.2a.4.4 0 0 0 .5.5 2129.8 2129.8 0 0 0 53 .9.4.4 0 0 0 .4-.4l.2-12a5.7 5.7 0 0 0-1.6-3.8 5.5 5.5 0 0 0-3.8-1.8l-14.3-.3Z"/>
  <path fill="rgba(0,0,0,0.2)" d="M54.8 116a518 518 0 0 1-17.7-.3l-17.7-.3a1.8 1.8 0 0 1-1.7-1.7l.2-12a7 7 0 0 1 7-6.7 1764.3 1764.3 0 0 1 36 .6l6.8.1a6.9 6.9 0 0 1 4.7 2.1 6.9 6.9 0 0 1 2 4.9l-.1 7.9-.1 4a1.8 1.8 0 0 1-1.7 1.7l-17.7-.2Zm-1.4-19.2-14.2-.3-14.3-.2a5.6 5.6 0 0 0-3.9 1.6 5.6 5.6 0 0 0-1.8 3.9v2.6l-.2 9.2a.4.4 0 0 0 .5.5 2129.8 2129.8 0 0 0 53 .9.4.4 0 0 0 .4-.4l.2-12a5.7 5.7 0 0 0-1.6-3.8 5.5 5.5 0 0 0-3.8-1.8l-14.3-.3Z"/>
  <path fill="#ffab00" d="m8.4 26.7 11.8.2.7 5.5-13-.2a.2.2 0 0 0-.2.2c0 2 1.5 15 18 15.6a41.8 41.8 0 0 0 4 6.6C9 54.9 2.8 40.7 1 32a4.5 4.5 0 0 1 4.4-5.4Z"/>
  <path fill="rgba(255,255,255,0.4)" d="m8.4 26.7 11.8.2.7 5.5-13-.2a.2.2 0 0 0-.2.2c0 2 1.5 15 18 15.6a41.8 41.8 0 0 0 4 6.6C9 54.9 2.8 40.7 1 32a4.5 4.5 0 0 1 4.4-5.4Z"/>
  <path fill="#ffab00" d="M28.4 55.2a33.7 33.7 0 0 1-11-2 24.5 24.5 0 0 1-9.3-5.9A30.7 30.7 0 0 1 .6 32.6a5.7 5.7 0 0 1 1.1-4.8 4.8 4.8 0 0 1 3.8-1.9l14.7.3h.1c.6.1.6.5.6.9a2.3 2.3 0 0 0 0 .2l.6 4.7v.4a.7.7 0 0 1-.6.7l-12.5-.2a15.6 15.6 0 0 0 2.6 7.4 15.2 15.2 0 0 0 6 5.1 22 22 0 0 0 8.7 2c.1 0 .5 0 .8.7a41.6 41.6 0 0 0 3.7 6 .8.8 0 0 1 0 .6c0 .3-.3.5-1 .5h-.8Zm-23-28a3.7 3.7 0 0 0-2.8 1.5 3.9 3.9 0 0 0-.8 3.3v.3a35.9 35.9 0 0 0 1.3 4.5A25.6 25.6 0 0 0 14 50.2 29.2 29.2 0 0 0 28.3 54a67.2 67.2 0 0 1-3-5.2 23.1 23.1 0 0 1-8.7-2.1A16 16 0 0 1 9.9 41 16.7 16.7 0 0 1 7 32.6a1 1 0 0 1 .3-.8.8.8 0 0 1 .6-.2l12.3.2-.1-.5-.5-3.7v-.1ZM89 44c-4 6.3-11.5 11.8-24.7 11.2l.5-.7.5-.6.4-.6v-.1l.5-.7.4-.5c0-.2.2-.4.3-.5l.1-.3.4-.6 1-1.9c16.5 0 18.4-13 18.5-15a.2.2 0 0 0-.2-.2l-13-.2q.2-.3.2-.7a47.4 47.4 0 0 0 .4-2l.2-1.5v-.6l.2-.7 14.6.2a4.5 4.5 0 0 1 4.2 5.6 36.3 36.3 0 0 1-2 5.7"/>
  <path fill="rgba(255,255,255,0.4)" d="M89 44c-4 6.3-11.5 11.8-24.7 11.2l.5-.7.5-.6.4-.6v-.1l.5-.7.4-.5c0-.2.2-.4.3-.5l.1-.3.4-.6 1-1.9c16.5 0 18.4-13 18.5-15a.2.2 0 0 0-.2-.2l-13-.2q.2-.3.2-.7a47.4 47.4 0 0 0 .4-2l.2-1.5v-.6l.2-.7 14.6.2a4.5 4.5 0 0 1 4.2 5.6 36.3 36.3 0 0 1-2 5.7"/>
  <path fill="#ffab00" d="m75.2 28.7-.6 4 12.1.2a.6.6 0 0 1 .5.2c.6.4.3 1.4.1 2.3A17 17 0 0 1 79 47a22.2 22.2 0 0 1-10 2.4s-1 1.8-1.6 2.7l-.2.3-1.5 2.1c6.9.1 14-1.6 19-6.4a24.8 24.8 0 0 0 3.9-4.4s.3-.5.7-.4c.5.1.7.5.2 1.3A25.8 25.8 0 0 1 73 55.2a36.5 36.5 0 0 1-8.5.6c-1.4 0-1-.8-.7-1.1l1.6-2.2a43.6 43.6 0 0 0 2.3-4c.4-.6 1.7-.4 2.7-.5 4.9-.4 9.8-2.4 12.8-6.4a16 16 0 0 0 2.9-7.4L73.8 34c-1 0-.4-1.9-.2-3.5l.4-2.6s0-.7.7-.8l14.7.3a5.3 5.3 0 0 1 4.7 6.2 33.3 33.3 0 0 1-1.9 5.9c-.2.4-.9.7-1.2.1-.3-.5.4-1.6.8-2.6l.8-2.5a6 6 0 0 0 .3-2.8 3.9 3.9 0 0 0-3.6-3l-14-.3-.1.3Z"/>
  <path fill="rgba(0,0,0,0.25)" d="m0 43.4 2.4-.4a26.4 26.4 0 0 0 4.3-1.8 29 29 0 0 0 4.5-3.3 38.9 38.9 0 0 0 4.5-5.2 58.6 58.6 0 0 0 4.2-7.6 64.2 64.2 0 0 0 3-8.8A82.5 82.5 0 0 0 24.6 7l.4-6a1 1 0 0 0-1-1h-6.7a84.5 84.5 0 0 1-1.9 20A40.5 40.5 0 0 1 0 43.4" style="mix-blend-mode:overlay;isolation:isolate" transform="translate(49.5 20.7)"/>
  <path fill="rgba(0,0,0,0.25)" d="M-2 0a16.8 16.8 0 0 0 2 0l-2 15.9-2-.3Z" style="mix-blend-mode:overlay;isolation:isolate" transform="rotate(-6.4 610.9 -413.9)"/>
  <path fill="rgba(0,0,0,0.25)" d="M6.8 6a6.3 6.3 0 0 0-2.2-4.4A6.7 6.7 0 0 0 .2 0H0s3 .9 3.6 6Z" style="mix-blend-mode:overlay;isolation:isolate" transform="translate(54.3 82.8)"/>
  <path fill="rgba(0,0,0,0.25)" d="M6.1 5.3a5.4 5.4 0 0 0-1.9-3.9A5.6 5.6 0 0 0 .2 0H0s2.7.8 3.2 5.3Z" style="mix-blend-mode:overlay;isolation:isolate" transform="translate(62.1 90.3)"/>
  <path fill="rgba(0,0,0,0.25)" d="M23.6 6.5h-.2l.1.1a3 3 0 0 1-2.7 5l-.2-.1v.1a2.9 2.9 0 0 1-.2 2.3l4 8.7a.2.2 0 0 1-.3.3l-4-1.7-1.4 4.3a.2.2 0 0 1-.4 0l-4.2-9a3 3 0 0 1-2.4 0l-4.2 8.9a.3.3 0 0 1-.5 0l-1.2-4.2-4 1.7a.3.3 0 0 1-.4-.4l4-8.6a2.9 2.9 0 0 1-.3-2.3v-.1a3 3 0 0 1-2.9-4.9h.1l-.1-.1a3 3 0 0 1 0-5.7h.1V.7a3 3 0 0 1-.6-.7H24a3 3 0 0 1-.6.7v.1a3 3 0 0 1 0 5.7" style="mix-blend-mode:overlay;isolation:isolate" transform="translate(33.5 20.4)"/>
  <path fill="#fff" d="M30.1 28c-2 0-1.8-2.3-1.8-2.3-.1 2.4-2.1 2.3-2.1 2.3a2.2 2.2 0 0 1 2 2.3s.3-2 2-2.2m1.8 2.4c-1.2-.1-1-1.5-1-1.5 0 1.5-1.3 1.4-1.3 1.4a1.4 1.4 0 0 1 1.2 1.4s.2-1.2 1.2-1.3"/>
  <path fill="#3b1b6a" d="M46 45.9a.3.3 0 0 1 .2.1l4.3 5.3a.3.3 0 0 1 0 .3.4.4 0 0 1-.6.2l-4.3-5.3c-.4-.5.1-.6.4-.6Zm3.2.2a.4.4 0 0 1 .2.2l1.2 1.4c.2.3-.3.8-.6.5l-1.2-1.4a.4.4 0 0 1 .4-.7ZM45 48.4a.4.4 0 0 1 .2.1l2.5 3c.2.3-.2 1-.6.5l-2.5-3a.4.4 0 0 1 .3-.6Z"/>
  <path fill="#8592a3" d="M38.9 96.1a.4.4 0 0 1 .3.4v4.6c0 .3-.1.3-.3.4a.4.4 0 0 1-.5-.4v-4.6a.4.4 0 0 1 .5-.4Z"/>
  <path fill="rgba(0,0,0,0.2)" d="M38.9 96.1a.4.4 0 0 1 .3.4v4.6c0 .3-.1.3-.3.4a.4.4 0 0 1-.5-.4v-4.6a.4.4 0 0 1 .5-.4Z"/>
  <path fill="#8592a3" d="M43 95.5a.4.4 0 0 1 .3.4l-.2 10.4c0 .4-.7.6-.8 0l.2-10.4a.4.4 0 0 1 .5-.4Z"/>
  <path fill="rgba(0,0,0,0.2)" d="M43 95.5a.4.4 0 0 1 .3.4l-.2 10.4c0 .4-.7.6-.8 0l.2-10.4a.4.4 0 0 1 .5-.4Z"/>
  <path fill="#fff" d="m46.2 32.7-4.3 9a.3.3 0 0 1-.5-.1L40 37.4 36 39a.3.3 0 0 1-.3-.4l4.1-8.5a3 3 0 0 0 1.7 1.3 2.8 2.8 0 0 0 2.9-.7v-.1.1a2.8 2.8 0 0 0 1.7 2Z"/>
  <use xlink:href="#a"/>
  <use xlink:href="#a"/>
  <path fill="#fff" d="m58.5 39.4-4.1-1.8L53 42a.2.2 0 0 1-.4 0l-4-9.2a2.8 2.8 0 0 0 1.4-1.4 3.5 3.5 0 0 0 .2-.5v-.1h.1a2.8 2.8 0 0 0 2.9 1 3 3 0 0 0 1.7-1.4l3.9 8.8a.2.2 0 0 1-.3.3Z"/>
  <use xlink:href="#b"/>
  <use xlink:href="#b"/>
  <path fill="#3f87bf" d="M58.2 23h-.1v.1a3 3 0 0 1-2.8 4.8h-.1v.1a2.9 2.9 0 0 1-.3 2.3 3 3 0 0 1-1.7 1.3 2.8 2.8 0 0 1-2.9-.8v-.1l-.1.1a3.5 3.5 0 0 1-.2.5 2.8 2.8 0 0 1-1.5 1.4 3 3 0 0 1-2.3 0 2.8 2.8 0 0 1-1.6-2v-.1h-.1a2.8 2.8 0 0 1-3 .8 3 3 0 0 1-1.6-1.3 2.8 2.8 0 0 1-.2-2.3v-.2h-.1a3 3 0 0 1-2.7-4.9v-.1a3 3 0 0 1 0-5.6h.1v-.2a3 3 0 0 1 2.8-4.8h.2a2.9 2.9 0 0 1 4.7-3l.1.1V9a2.9 2.9 0 0 1 5.7 0v.2a2.9 2.9 0 0 1 4.9 2.8v.2a2.9 2.9 0 0 1 2.8 4.9h-.1l.1.1a3 3 0 0 1 0 5.7Z"/>
  <path fill="#696cff" d="M47.4 33.6a3.6 3.6 0 0 1-3.2-2 4.3 4.3 0 0 1-1.9.6 2.7 2.7 0 0 1-.4 0 3.6 3.6 0 0 1-2.2-1.3 3.5 3.5 0 0 1-.8-2.5 4.2 4.2 0 0 1-2.1-.6 3.7 3.7 0 0 1-1-4.9l-.1-.1a3.6 3.6 0 0 1-1.6-3.2 3.4 3.4 0 0 1 1.9-3s0 0-.1-.2a3.6 3.6 0 0 1 .2-3.5 3.4 3.4 0 0 1 3-1.7 1 1 0 0 0 0-.2 3.5 3.5 0 0 1 1.3-2.4 3.8 3.8 0 0 1 2.5-1 3.2 3.2 0 0 1 1.7.5 5 5 0 0 1 .7-.9 3.6 3.6 0 0 1 2.5-1 3.6 3.6 0 0 1 3 2 4.5 4.5 0 0 1 2-.5h.3A3.6 3.6 0 0 1 55.4 9a3.5 3.5 0 0 1 .9 2.5 4.3 4.3 0 0 1 2 .7 3.7 3.7 0 0 1 1.4 2.2 3.5 3.5 0 0 1-.4 2.7 4.4 4.4 0 0 1 1.5 1.6 3.7 3.7 0 0 1-1.6 4.7 1 1 0 0 0 0 .2A3.6 3.6 0 0 1 59 27a3.4 3.4 0 0 1-2.9 1.7H56a4.5 4.5 0 0 1-.7 2.1 3.7 3.7 0 0 1-3 1.6 3.3 3.3 0 0 1-1.8-.6 4.3 4.3 0 0 1-1.8 1.6 3.4 3.4 0 0 1-1.3.2ZM44.5 30c.4 0 .7.5.7.7a2.3 2.3 0 0 0 2.3 1.7 2 2 0 0 0 1.3-.4 2.3 2.3 0 0 0 .8-1.2.8.8 0 0 1 .3-.6.5.5 0 0 1 .3 0 1.5 1.5 0 0 1 .7.3 2.4 2.4 0 0 0 1.4.7 2.2 2.2 0 0 0 1.8-1 2.4 2.4 0 0 0 .5-2 .8.8 0 0 1 .1-.6.7.7 0 0 1 .6-.2 1.8 1.8 0 0 1 .4 0 2.3 2.3 0 0 0 .4.1 2.1 2.1 0 0 0 1.2-.3 2.3 2.3 0 0 0 1-1.7 2.2 2.2 0 0 0-.6-1.8.8.8 0 0 1-.3-.6c0-.4.4-.5.8-.7a2.5 2.5 0 0 0 1.3-1 2.3 2.3 0 0 0 .1-2 2.2 2.2 0 0 0-1.4-1.4.8.8 0 0 1-.6-.4c-.1-.3.1-.6.3-.9a3.7 3.7 0 0 0 .3-.3 2.2 2.2 0 0 0 0-2.3 2.2 2.2 0 0 0-1.9-1.2 2.1 2.1 0 0 0-.6 0 1 1 0 0 1-.3.1.6.6 0 0 1-.4-.1c-.2-.3-.2-.6-.1-1a3.4 3.4 0 0 0 0-.5 2 2 0 0 0-.5-1.5 2.5 2.5 0 0 0-1.7-.7 2 2 0 0 0-1.5.6.9.9 0 0 1-.6.3c-.4 0-.6-.4-.7-.8a2.7 2.7 0 0 0-.6-1 2.2 2.2 0 0 0-1.5-.6 2.3 2.3 0 0 0-2.2 1.6.9.9 0 0 1-.2.5.5.5 0 0 1-.4.2 1.6 1.6 0 0 1-.7-.4 2.6 2.6 0 0 0-1.5-.7 2.2 2.2 0 0 0-1.8 1 2.4 2.4 0 0 0-.4 2 .9.9 0 0 1-.2.6.7.7 0 0 1-.5.2 1.5 1.5 0 0 1-.4 0 2.3 2.3 0 0 0-.5-.1 2.1 2.1 0 0 0-1.1.3 2.3 2.3 0 0 0-1 1.7 2.2 2.2 0 0 0 .5 1.8.9.9 0 0 1 .3.6c0 .4-.3.5-.8.7a2.5 2.5 0 0 0-1.3 1 2.3 2.3 0 0 0 0 2A2.2 2.2 0 0 0 37 22s.5.1.5.5a1 1 0 0 1-.3.8 2.2 2.2 0 0 0 0 3 2.3 2.3 0 0 0 1.7.8 2.5 2.5 0 0 0 .6-.1.8.8 0 0 1 .6.3 1 1 0 0 1 .1.8 2.2 2.2 0 0 0 2.2 2.8 2.2 2.2 0 0 0 1.6-.7 1 1 0 0 1 .4-.2.5.5 0 0 1 .1 0Z"/>
  <path fill="#0f69af" d="M47.4 33.6a3.6 3.6 0 0 1-3.2-2 4.3 4.3 0 0 1-1.9.6 2.7 2.7 0 0 1-.4 0 3.6 3.6 0 0 1-2.2-1.3 3.5 3.5 0 0 1-.8-2.5 4.2 4.2 0 0 1-2.1-.6 3.7 3.7 0 0 1-1-4.9l-.1-.1a3.6 3.6 0 0 1-1.6-3.2 3.4 3.4 0 0 1 1.9-3s0 0-.1-.2a3.6 3.6 0 0 1 .2-3.5 3.4 3.4 0 0 1 3-1.7 1 1 0 0 0 0-.2 3.5 3.5 0 0 1 1.3-2.4 3.8 3.8 0 0 1 2.5-1 3.2 3.2 0 0 1 1.7.5 5 5 0 0 1 .7-.9 3.6 3.6 0 0 1 2.5-1 3.6 3.6 0 0 1 3 2 4.5 4.5 0 0 1 2-.5h.3A3.6 3.6 0 0 1 55.4 9a3.5 3.5 0 0 1 .9 2.5 4.3 4.3 0 0 1 2 .7 3.7 3.7 0 0 1 1.4 2.2 3.5 3.5 0 0 1-.4 2.7 4.4 4.4 0 0 1 1.5 1.6 3.7 3.7 0 0 1-1.6 4.7 1 1 0 0 0 0 .2A3.6 3.6 0 0 1 59 27a3.4 3.4 0 0 1-2.9 1.7H56a4.5 4.5 0 0 1-.7 2.1 3.7 3.7 0 0 1-3 1.6 3.3 3.3 0 0 1-1.8-.6 4.3 4.3 0 0 1-1.8 1.6 3.4 3.4 0 0 1-1.3.2ZM44.5 30c.4 0 .7.5.7.7a2.3 2.3 0 0 0 2.3 1.7 2 2 0 0 0 1.3-.4 2.3 2.3 0 0 0 .8-1.2.8.8 0 0 1 .3-.6.5.5 0 0 1 .3 0 1.5 1.5 0 0 1 .7.3 2.4 2.4 0 0 0 1.4.7 2.2 2.2 0 0 0 1.8-1 2.4 2.4 0 0 0 .5-2 .8.8 0 0 1 .1-.6.7.7 0 0 1 .6-.2 1.8 1.8 0 0 1 .4 0 2.3 2.3 0 0 0 .4.1 2.1 2.1 0 0 0 1.2-.3 2.3 2.3 0 0 0 1-1.7 2.2 2.2 0 0 0-.6-1.8.8.8 0 0 1-.3-.6c0-.4.4-.5.8-.7a2.5 2.5 0 0 0 1.3-1 2.3 2.3 0 0 0 .1-2 2.2 2.2 0 0 0-1.4-1.4.8.8 0 0 1-.6-.4c-.1-.3.1-.6.3-.9a3.7 3.7 0 0 0 .3-.3 2.2 2.2 0 0 0 0-2.3 2.2 2.2 0 0 0-1.9-1.2 2.1 2.1 0 0 0-.6 0 1 1 0 0 1-.3.1.6.6 0 0 1-.4-.1c-.2-.3-.2-.6-.1-1a3.4 3.4 0 0 0 0-.5 2 2 0 0 0-.5-1.5 2.5 2.5 0 0 0-1.7-.7 2 2 0 0 0-1.5.6.9.9 0 0 1-.6.3c-.4 0-.6-.4-.7-.8a2.7 2.7 0 0 0-.6-1 2.2 2.2 0 0 0-1.5-.6 2.3 2.3 0 0 0-2.2 1.6.9.9 0 0 1-.2.5.5.5 0 0 1-.4.2 1.6 1.6 0 0 1-.7-.4 2.6 2.6 0 0 0-1.5-.7 2.2 2.2 0 0 0-1.8 1 2.4 2.4 0 0 0-.4 2 .9.9 0 0 1-.2.6.7.7 0 0 1-.5.2 1.5 1.5 0 0 1-.4 0 2.3 2.3 0 0 0-.5-.1 2.1 2.1 0 0 0-1.1.3 2.3 2.3 0 0 0-1 1.7 2.2 2.2 0 0 0 .5 1.8.9.9 0 0 1 .3.6c0 .4-.3.5-.8.7a2.5 2.5 0 0 0-1.3 1 2.3 2.3 0 0 0 0 2A2.2 2.2 0 0 0 37 22s.5.1.5.5a1 1 0 0 1-.3.8 2.2 2.2 0 0 0 0 3 2.3 2.3 0 0 0 1.7.8 2.5 2.5 0 0 0 .6-.1.8.8 0 0 1 .6.3 1 1 0 0 1 .1.8 2.2 2.2 0 0 0 2.2 2.8 2.2 2.2 0 0 0 1.6-.7 1 1 0 0 1 .4-.2.5.5 0 0 1 .1 0Z"/>
  <path fill="#fff" d="M52.1 18.6a4.8 4.8 0 0 1 .2 1.4 4.7 4.7 0 0 1-4.8 4.7 4.7 4.7 0 0 1-4.6-4.8 4.7 4.7 0 0 1 4.8-4.7 4.7 4.7 0 0 1 2 .5"/>
  <path fill="#0f69af" d="M47.7 14.5a4.7 4.7 0 0 1 2.2.6c.6.3.3 1.5-.8 1a4.2 4.2 0 0 0-5.6 3.7 4.2 4.2 0 0 0 5.2 4.1 4.2 4.2 0 0 0 2.8-5 .8.8 0 0 1 .2-.8c.4-.3 1 0 1.1.8a5.6 5.6 0 0 1-3.8 6.3 5.6 5.6 0 0 1-6.8-5 5.6 5.6 0 0 1 5.3-5.7ZM41.5 24c.4 0 .5.4.8.7a7.2 7.2 0 0 0 .9.9 7.3 7.3 0 0 0 1 .8.5.5 0 0 1 .3.4c-.1.6-1.2 0-2-.7a8.1 8.1 0 0 1-1.3-1.5s-.1-.7.3-.7Z"/>
  <path fill="#0f69af" d="M41.5 24c.4 0 .5.4.8.7a7.2 7.2 0 0 0 .9.9 7.3 7.3 0 0 0 1 .8.5.5 0 0 1 .3.4c-.1.6-1.2 0-2-.7a8.1 8.1 0 0 1-1.3-1.5s-.1-.7.3-.7Z"/>
  <path fill="#696cff" d="M63 4.4a.4.4 0 0 1 .2.7l-2.2 1c-.3 0-.8-.5-.3-.8a5.9 5.9 0 0 1 2.3-1ZM56.9 0a.4.4 0 0 1 .3.4v2.2c-.1.4-.9.5-.9 0l.1-2.2A.4.4 0 0 1 57 0Zm3.4 1.5a.4.4 0 0 1 .3.6l-1.4 2c-.2.3-1 0-.7-.5l1.4-2a.4.4 0 0 1 .4-.1Z"/>
  <path fill="rgba(0,0,0,0.25)" d="M12.2 0h.5a5.9 5.9 0 0 1 3.2 1.5 5.6 5.6 0 0 1 1.9 4.4v11.5a.5.5 0 0 1-.5.5H0l1.3-1.6a26 26 0 0 0 4.9-8.8l.2-.6c1.6-4.2 3.8-4 5-3.7l-.1-.3a21.6 21.6 0 0 0-.4-2.9Z" style="mix-blend-mode:overlay;isolation:isolate" transform="translate(55.1 96)"/>
  <path fill="#ff3e1d" d="M66.8 154.4c-.4-9.6-4.1-26.3-4-28 .2-2.3 7.2-5.6 10-9.3s2.2-4.2 1.8-7.2-1-11.6-2.8-16a5.2 5.2 0 0 0-2.9-3 .8.8 0 0 0-1.1.9 1892.2 1892.2 0 0 0 1.1 6.2 21 21 0 0 1 .4 2.9v.3c-1.1-.4-3.4-.6-5 3.6l-.3.6a26 26 0 0 1-5 8.8c-3.6 4-4 6-3.6 10.5a17.2 17.2 0 0 1 0 2.6L54 154.1Z"/>
  <path fill="rgba(255,255,255,0.8)" d="M66.8 154.4c-.4-9.6-4.1-26.3-4-28 .2-2.3 7.2-5.6 10-9.3s2.2-4.2 1.8-7.2-1-11.6-2.8-16a5.2 5.2 0 0 0-2.9-3 .8.8 0 0 0-1.1.9 1892.2 1892.2 0 0 0 1.1 6.2 21 21 0 0 1 .4 2.9v.3c-1.1-.4-3.4-.6-5 3.6l-.3.6a26 26 0 0 1-5 8.8c-3.6 4-4 6-3.6 10.5a17.2 17.2 0 0 1 0 2.6L54 154.1Z"/>
  <path fill="#ff3e1d" d="M69.8 99.2c.6.1.5 1.2.5 2.2 0 3.8-2 7.3-2 10.7a1 1 0 0 1-.3.6c-.5.3-1-.1-.8-1 .2-2.4 1-4.5 1.5-6.7a18.8 18.8 0 0 0 .5-5s0-.9.6-.8Z"/>
  <path fill="rgba(255,255,255,0.6)" d="M69.8 99.2c.6.1.5 1.2.5 2.2 0 3.8-2 7.3-2 10.7a1 1 0 0 1-.3.6c-.5.3-1-.1-.8-1 .2-2.4 1-4.5 1.5-6.7a18.8 18.8 0 0 0 .5-5s0-.9.6-.8Z"/>
  <path fill="#ff3e1d" d="M66.6 103c.3 0 .5.4 1.1.4.5 0 .7 1-.3.8-.6 0-1.3-.4-1.3-.9a.4.4 0 0 1 .5-.4Z"/>
  <path fill="rgba(255,255,255,0.6)" d="M66.6 103c.3 0 .5.4 1.1.4.5 0 .7 1-.3.8-.6 0-1.3-.4-1.3-.9a.4.4 0 0 1 .5-.4Z"/>
  <path fill="#ff3e1d" d="M55.4 123.6c.6 0 .7.8.8 1.4a3.5 3.5 0 0 0 1.3 1.9.8.8 0 0 1 .3.7c-.2.6-1 .5-1.7-.2a4.6 4.6 0 0 1-1.4-3.2.6.6 0 0 1 .7-.6Z"/>
  <path fill="rgba(255,255,255,0.6)" d="M55.4 123.6c.6 0 .7.8.8 1.4a3.5 3.5 0 0 0 1.3 1.9.8.8 0 0 1 .3.7c-.2.6-1 .5-1.7-.2a4.6 4.6 0 0 1-1.4-3.2.6.6 0 0 1 .7-.6Z"/>
  <path fill="#ff3e1d" d="M59.5 116.7c.7.1.3.6.1.8a5.1 5.1 0 0 0-1.1 3.2.5.5 0 0 1-.2.3.4.4 0 0 1-.6-.4 5.8 5.8 0 0 1 1.4-3.7.4.4 0 0 1 .4-.2Z"/>
  <path fill="rgba(255,255,255,0.8)" d="M59.5 116.7c.7.1.3.6.1.8a5.1 5.1 0 0 0-1.1 3.2.5.5 0 0 1-.2.3.4.4 0 0 1-.6-.4 5.8 5.8 0 0 1 1.4-3.7.4.4 0 0 1 .4-.2Z"/>
  <path fill="rgba(0,0,0,0.25)" d="M5.6 50.4 4.9 38S2.2 26.3 2.2 25a7.5 7.5 0 0 1 .3-3.2C3 20.6 7.2 18 7.2 18c3.8-4.6 4.9-6.2 5.5-7.4a4.2 4.2 0 0 0 .2-2.7l-.5-3.2-.6-4.7v6A8.9 8.9 0 0 1 9 12.4c-2.2 2.1-7.9 6.9-8.6 8.9-1.4 4 1.6 11.3 1.6 16l.4 13Z" style="mix-blend-mode:overlay;isolation:isolate" transform="translate(61.4 103.2)"/>
  <path fill="#ff3e1d" d="M23.3 153.4c.8-9.5 5-26 5-27.7-.2-2.3-7-5.8-9.6-9.6s-2.2-4.3-1.7-7.2 1.3-11.6 3.3-16a5.2 5.2 0 0 1 3-2.8.8.8 0 0 1 1.2 1l-1.5 6a20.8 20.8 0 0 0-.4 2.8v.3c1-.3 3.3-.4 4.8 3.8l.2.6a26 26 0 0 0 4.8 9c3.4 4 3.8 6.1 3.2 10.5a17.1 17.1 0 0 0-.1 2.6l.7 26.8Z"/>
  <path fill="rgba(255,255,255,0.8)" d="M23.3 153.4c.8-9.5 5-26 5-27.7-.2-2.3-7-5.8-9.6-9.6s-2.2-4.3-1.7-7.2 1.3-11.6 3.3-16a5.2 5.2 0 0 1 3-2.8.8.8 0 0 1 1.2 1l-1.5 6a20.8 20.8 0 0 0-.4 2.8v.3c1-.3 3.3-.4 4.8 3.8l.2.6a26 26 0 0 0 4.8 9c3.4 4 3.8 6.1 3.2 10.5a17.1 17.1 0 0 0-.1 2.6l.7 26.8Z"/>
  <path fill="#ff3e1d" d="M21.2 100.6c.2 0 .4.2.5.6a32.9 32.9 0 0 0 2 7.4A26.7 26.7 0 0 1 25 113a1.2 1.2 0 0 1 0 .6c-.2.4-.6 0-.8-.7a53.5 53.5 0 0 0-1.9-5.7 30.8 30.8 0 0 1-1.4-6s0-.6.3-.6Z"/>
  <path fill="rgba(255,255,255,0.6)" d="M21.2 100.6c.2 0 .4.2.5.6a32.9 32.9 0 0 0 2 7.4A26.7 26.7 0 0 1 25 113a1.2 1.2 0 0 1 0 .6c-.2.4-.6 0-.8-.7a53.5 53.5 0 0 0-1.9-5.7 30.8 30.8 0 0 1-1.4-6s0-.6.3-.6Z"/>
  <path fill="#ff3e1d" d="M25.3 102.2c.7 0 0 1.5-1.2 1.2-.4 0-.5-.8.2-.8.4 0 .7-.4 1-.4Z"/>
  <path fill="rgba(255,255,255,0.6)" d="M25.3 102.2c.7 0 0 1.5-1.2 1.2-.4 0-.5-.8.2-.8.4 0 .7-.4 1-.4Z"/>
  <path fill="#ff3e1d" d="M35.9 122.9c.7 0 .6 1.2.1 2.3a4.8 4.8 0 0 1-1.8 2.2.8.8 0 0 1-.5.1.7.7 0 0 1-.1-1.2 4.2 4.2 0 0 0 1.6-2.9.7.7 0 0 1 .7-.5Z"/>
  <path fill="rgba(255,255,255,0.6)" d="M35.9 122.9c.7 0 .6 1.2.1 2.3a4.8 4.8 0 0 1-1.8 2.2.8.8 0 0 1-.5.1.7.7 0 0 1-.1-1.2 4.2 4.2 0 0 0 1.6-2.9.7.7 0 0 1 .7-.5Z"/>
  <path fill="#ff3e1d" d="M32 116.2c.3 0 .5.4.8.8a6 6 0 0 1 .8 3.2s0 .2-.3.3c-.5.2-.5-1-.7-1.8a4.5 4.5 0 0 0-1-1.9s0-.6.4-.6Z"/>
  <path fill="rgba(255,255,255,0.8)" d="M32 116.2c.3 0 .5.4.8.8a6 6 0 0 1 .8 3.2s0 .2-.3.3c-.5.2-.5-1-.7-1.8a4.5 4.5 0 0 0-1-1.9s0-.6.4-.6Z"/>
  <path fill="rgba(0,0,0,0.25)" d="M-1 .6s.3 0 1-.6l-1 26-3-.2Z" style="mix-blend-mode:overlay;isolation:isolate" transform="rotate(-3.8 1936.5 -464.7)"/>
</svg>