<svg xmlns="http://www.w3.org/2000/svg" width="376.002" height="108" viewBox="0 0 376.002 108"><path d="M147.919,180.448l39.888,108h57.627l-39.888-108Z" transform="translate(-78.628 -180.448)" fill="#b6b6b6"/><path d="M383.039,288.448s-3.808-18,13.63-53c13.63-27.4,14.632-55,14.632-55H353.674s4.51,15-18.942,63.2c-13.329,27.5-9.422,44.7-9.422,44.7Z" transform="translate(-78.628 -180.448)" fill="#b6b6b6"/><path d="M396.369,288.448s3.808-18-13.63-53c-13.633-27.4-14.633-55-14.633-55h57.627s-4.51,15,18.942,63.2c13.331,27.5,9.421,44.7,9.421,44.7Z" transform="translate(-78.628 -180.448)" fill="#ddd"/><path d="M389.653,251.448c1.9-4.9,4.209-10.2,7.016-16,13.63-27.4,14.637-55,14.637-55h-43.1s1,27.6,14.632,55c2.806,5.8,5.111,11.1,7.016,16" transform="translate(-78.628 -180.448)" fill="#bababa"/><path d="M316.993,288.448H260.468v-108h56.525a54,54,0,0,1,0,108Zm-4.9-70.99H295.745V248.7H312.1a15.62,15.62,0,0,0,0-31.24Z" transform="translate(-78.628 -180.448)" fill="#ddd"/><path d="M216.17,180.448s4.109,13.8-8.82,37.9c-27.36,50.7-19.545,70-19.545,70h57.63s-3.307-24.5,18.942-63.1c15.234-26.6,9.421-44.8,9.421-44.8Z" transform="translate(-78.628 -180.448)" fill="#b6b6b6"/><path d="M205.546,180.448l-39.889,108H108.03l39.888-108Z" transform="translate(-78.628 -180.448)" fill="#ddd"/><path d="M137.3,180.448s-4.109,13.8,8.819,37.9c27.361,50.7,19.544,70,19.544,70H108.03s3.307-24.5-19.042-63.1c-15.134-26.6-9.223-44.8-9.223-44.8Z" transform="translate(-78.628 -180.448)" fill="#bababa"/><path d="M146.114,218.348a90.333,90.333,0,0,1-6.615-15.3l-31.469,85.3h57.627c.6-1.6,6.715-21.3-19.543-70" transform="translate(-78.628 -180.448)" fill="#7c7c7c"/></svg>