<svg xmlns="http://www.w3.org/2000/svg" width="117.241" height="100" viewBox="0 0 117.241 100"><g transform="translate(-30 -30)"><circle cx="50" cy="50" r="50" transform="translate(30 30)" fill="#fff" opacity="0"/><path d="M97.5,110.3c31.083-17.946,48.451-46.058,38.8-62.8-.425-1.228.938-3.142,3.155-4.431s4.569-1.534,5.446-.568c9.681,16.728-11.54,47.081-47.4,67.8Z" fill="#f8b62f"/><g transform="translate(46.941 39.268)"><circle cx="7.089" cy="7.089" r="7.089" transform="translate(31.329 11.217)" fill="#ea5514"/><path d="M49.717,24.749l1.029-2.63s.343-1.372-.457-1.6c0,0-.686-.229-1.372,1.143a16.236,16.236,0,0,1-8.575,5.831S28.678,31.61,17.015,13.087l-1.143-1.829a1.143,1.143,0,0,0-.229-.229.572.572,0,0,0-.457-.229.686.686,0,0,0-.686.686,7.318,7.318,0,0,0,.572,1.486s19.095,42.992,38.647,51.11C53.718,64.082,42.4,43.272,49.717,24.749Z" transform="translate(2.079 1.56)" fill="#ea5514"/><path d="M6.383,52.931s-8,14.407,16.579,8.918c0,0,17.38-2.744,35.9-19.666C63.9,37.609,72.129,28.691,65.5,25.375c0,0-6.174-2.858-14.75,1.486,0,0,14.864-9.948,22.411-2.515,0,0,6.632,5.946-4.116,19.438,0,0-30.872,33.5-61.743,25.383,0,0-11.891-3.888-.915-16.236Z" transform="translate(0.248 3.107)" fill="#ffd8a8"/><circle cx="7.089" cy="7.089" r="7.089" transform="translate(0 29.625)" fill="#3fb7a0"/><path d="M37.291,50.785S26.771,39.351,16.709,16.6q-.878-1.934-1.944-3.773a.686.686,0,0,0-1.143.343,7.089,7.089,0,0,0,.8,1.944S22.2,33.862,16.709,43.467C12.136,51.242,1.845,44.61,1.845,44.61H1.617a.457.457,0,0,0-.229-.114H1.045a.457.457,0,0,0-.114,0v.114a.686.686,0,0,0-.229.114.457.457,0,0,0,0,.229C.473,46.1,2.989,49.3,6.19,51.814A80.608,80.608,0,0,0,22.769,61.99c19.438,7.089,30.872,3.2,30.872,3.2A72.72,72.72,0,0,1,37.291,50.785Z" transform="translate(0.099 1.823)" fill="#3fb7a0"/><path d="M7.926.126l2.63,1.829a.686.686,0,0,0,.686.114L14.215.926a.688.688,0,1,1,1.029.915L14.215,4.928a.686.686,0,0,0,.114.572l2.058,2.515a.686.686,0,0,1-.572,1.143l-3.2.114a.686.686,0,0,0-.572.343L10.327,12.36a.7.7,0,1,1-1.372-.229L7.926,9.044a.686.686,0,0,0-.457-.457l-3.087-.8a.686.686,0,0,1-.343-1.258l2.63-1.944a.686.686,0,0,0,.343-.572L6.783.812A.686.686,0,0,1,7.926.126Z" transform="translate(0.535 0)" fill="#f8b62d"/></g></g></svg>