<svg xmlns="http://www.w3.org/2000/svg" viewBox="0 0 3387 1270">
  <style>
    .fil1{fill:#d9dada}
  </style>
  <path id="planePath" d="M-226 626c439 4 636-213 934-225 755-31 602 769 1334 658 562-86 668-698 266-908-401-210-893 189-632 630 260 441 747 121 1051 91 360-36 889 179 889 179" style="stroke:#d9dada;stroke-width:.5%;stroke-dasharray:1% 2%;stroke-linecap:round;fill:none"/>
  <g id="plane">
    <path d="M-141-10 199 0l-397-72 10 11 17 4h-13z" class="fil1"/>
    <path d="m199 0-340-10-22 73 40-54z" style="fill:#c5c6c6"/>
    <path d="m-95 39-18-7-10-23-40 54 58-10-3-8 21 3-3-3-13-4h9z" style="fill:#aeafb0"/>
    <path d="m-87 48-21-3 3 8 19-4-1-1zm-26-16 18 7-2-1 32-7-29 1 11-4-24-1-16-18 10 23zm10 9 13 4-4-4h-9z" style="fill:#9d9e9e"/>
    <path d="m-83 28-11 4 29-1-32 7 11 11 19 21L199 0l-322 9 16 18z" class="fil1"/>
  </g>
  <animateMotion dur="5s" repeatCount="indefinite" rotate="auto">
    <mpath href="#planePath"/>
  </animateMotion>
</svg>