<svg xmlns="http://www.w3.org/2000/svg" viewBox="0 0 128 47">
  <defs>
    <clipPath id="a">
      <path fill="#fff" d="M0 0h128v47H0z" transform="translate(965 3)"/>
    </clipPath>
  </defs>
  <g clip-path="url(#a)" transform="translate(-965 -3)">
    <g transform="translate(1001.4 3)">
      <path fill="#abe5eb" d="M55 20.4c-.2-2-2-4.2-4-4.1a37 37 0 0 0-4 .5l-4.2.5-9 1.2-.7-1.2a148.3 148.3 0 0 0-7-13.1A8.7 8.7 0 0 0 21.9.3a4.8 4.8 0 0 0-5 1c-1.7 1.6-2.7 4-3.7 6.2q-1.9 3.8-3.6 7.8C7.2 20.5 4 29.8 2.2 34.9a30.2 30.2 0 0 0-1.8 5.7 16 16 0 0 0 0 7.2 5.3 5.3 0 0 0 3.9 3.8c2 .5 3.5-.7 4.5-2.4L8.9 66c-.8 1-1.5 1.1-2.2 2-.3.6 0 1 .8 1h10.1c1 0 1.2-1.2 1.2-2.3V43.6h3.6c.5 8.3.8 22.5.8 23.7 0 1.4.5 1.7 1.2 1.7h10.9c.7 0 .7-.8.3-1.3a16.2 16.2 0 0 0-2-1.6c-.1-7.6-.5-15.4-.8-23a26 26 0 0 0 6.1-1.3 4 4 0 0 0 2.8-4.6c-.3-2.2-1.5-4.4-2.4-6.4l-.1-.4a3 3 0 0 0 .6.4 2.1 2.1 0 0 1 .8.6 1.8 1.8 0 0 0 .6.4c1.8.7 3.9-.8 4.6-2.5l5.9-4c1.6-1.2 3.7-2.5 3.4-4.9Z"/>
      <path fill="#063f58" d="M15.7 18.2a.5.5 0 0 1-.6-.6v-.9a.5.5 0 0 1 1.1 0v1a.5.5 0 0 1-.5.5Z"/>
      <path fill="#e3d6bd" d="M34 31.3a17.1 17.1 0 0 0-2.4-.4l.9-.9c.5-.5 1.3-.9 1.4-1.7a.4.4 0 0 0-.2-.4 9 9 0 0 0-2.6-.7l.3-.6a.5.5 0 0 0-.4-.6 60.7 60.7 0 0 0-20.1-.2.5.5 0 0 0-.5.6l.4.8H9.7a.5.5 0 0 0-.3.8 7.2 7.2 0 0 1 1.6 2.2l-1 .2a.5.5 0 0 0-.4.6 24.7 24.7 0 0 1 1.8 3.3l3.3-.6a6.5 6.5 0 0 1 2.8-.2c.8.3.7 1 .2 1.4A22.8 22.8 0 0 1 15 36a22.3 22.3 0 0 1 2.6-.4.6.6 0 0 1 .6 1c-.4.5-1.9 1-2.5 1.3l1.8-.5c.4 0 .6.7.3 1a10.3 10.3 0 0 1-4.3 2.4l.2 1.6a11.4 11.4 0 0 0 0 1.2 1 1 0 0 0 .8 1.1 12.2 12.2 0 0 0 2.4 0q5.4-.3 10.8 0a.4.4 0 0 0 .4-.4.4.4 0 0 0 0-.1.4.4 0 0 0 0-.2 15.2 15.2 0 0 1 1.7-6.7 12 12 0 0 1 1.5-2.9 10.8 10.8 0 0 1 2.5-2 1 1 0 0 0 .2-1.2Z"/>
      <path fill="#063f58" d="M31 31.7a61 61 0 0 0-13.6-1.3 48 48 0 0 0-5.7.8.5.5 0 0 1-.2-1 48 48 0 0 1 5.9-.8A62.2 62.2 0 0 1 31 30.7a.5.5 0 0 1 0 1Zm-20-3.8a.5.5 0 0 1-.1-1 106.8 106.8 0 0 1 19.8-.1.5.5 0 0 1 0 1 105.8 105.8 0 0 0-19.7 0ZM7.6 36a.5.5 0 0 1-.5-.3 17.2 17.2 0 0 1-.5-2.4.5.5 0 1 1 1-.1 16.2 16.2 0 0 0 .6 2.2.5.5 0 0 1-.4.6.5.5 0 0 1-.2 0Z"/>
      <path fill="#063f58" d="M5 42a.5.5 0 0 1-.4-.7A58.6 58.6 0 0 1 8 35a21.2 21.2 0 0 1 1.9-2.7.5.5 0 1 1 .8.8 20 20 0 0 0-1.8 2.4 57.4 57.4 0 0 0-3.4 6.2.5.5 0 0 1-.4.3Zm7.1.2a2.9 2.9 0 0 1-1-.2.5.5 0 1 1 .4-1 1.8 1.8 0 0 0 1.5 0 .5.5 0 0 1 .5.9 2.9 2.9 0 0 1-1.4.3Z"/>
      <path fill="#063f58" d="M9.2 49.6a.5.5 0 0 1-.5-.7l2.8-6.8a.5.5 0 0 1 1 .4l-2.8 6.8a.5.5 0 0 1-.5.3Zm30.4-19.1a3.6 3.6 0 0 1-.7 0A2.7 2.7 0 0 1 37 29a4.2 4.2 0 0 1-.1-3.5.5.5 0 0 1 1 .4 3.2 3.2 0 0 0 0 2.6 1.6 1.6 0 0 0 1.2.9 2 2 0 0 0 1.5-.3 2 2 0 0 0 .8-1.4.5.5 0 0 1 1.1.2 3.2 3.2 0 0 1-1.3 2 2.9 2.9 0 0 1-1.6.6Zm1.4 1a.5.5 0 0 1 0-1 2.5 2.5 0 0 0 1.9-1.7.5.5 0 1 1 1 .3 3.5 3.5 0 0 1-2.8 2.4Z"/>
      <path fill="#063f58" d="M37.5 29.2a.6.6 0 0 1-.1 0c-1.8-.3-2-2-2-2.6a3.7 3.7 0 0 1 1.1-3.1 3.1 3.1 0 0 1 3.3-1.2.5.5 0 0 0 .2.1h.1a48.4 48.4 0 0 1 6.3-3.3.5.5 0 1 1 .4 1 47.4 47.4 0 0 0-6 3.1 1.4 1.4 0 0 1-.7.3.6.6 0 0 1-.1 0 1.5 1.5 0 0 1-.6-.2c-1-.3-1.8.6-2.1.9a2.6 2.6 0 0 0-1 2.3c.3 1.3.7 1.6 1.2 1.7a.5.5 0 0 1 0 1Z"/>
      <path fill="#063f58" d="M45.2 20.7a.5.5 0 0 1-.5-.7.9.9 0 0 0 .1-.5.5.5 0 1 1 1-.2 2 2 0 0 1 0 1 .5.5 0 0 1-.6.4Zm-6.1 7.9a.5.5 0 0 1-.5-.5 3.6 3.6 0 0 1 .6-2.3.5.5 0 1 1 1 .6 2.5 2.5 0 0 0-.5 1.6.5.5 0 0 1-.6.6Z"/>
      <path fill="#86cdd7" d="M23.7 23.5a6.7 6.7 0 0 1-5.1-3.7 7.3 7.3 0 0 1-.6-2.6 7.6 7.6 0 0 1 1-4.2 8 8 0 0 1 2.5-2.5A9.2 9.2 0 0 1 24.9 9a7.3 7.3 0 0 1 7.9 4.5A7.4 7.4 0 0 1 31 21a7.8 7.8 0 0 1-7.4 2.5Z"/>
      <path fill="#063f58" d="M28.3 15.2a3 3 0 0 0-2.7-2 3 3 0 0 0-2.7 2 3.2 3.2 0 0 0 .2 3.4 2.8 2.8 0 0 0 2.1 1h.2a3.2 3.2 0 0 0 2.2-1.1 3.3 3.3 0 0 0 .7-3.3Zm10.9 12.5a.5.5 0 0 1-.3-.2l-7-5.5-1-.9a.5.5 0 1 1 .7-.8l1 .9a390 390 0 0 0 7 5.5.5.5 0 0 1-.4 1Z"/>
      <circle cx="1.7" cy="1.7" r="1.7" fill="#fff" transform="translate(21.4 13.2)"/>
      <path fill="#063f58" d="M25 24.2a10 10 0 0 1-1.5-.2 7.2 7.2 0 0 1-5.6-4 7.8 7.8 0 0 1-.6-2.8 8 8 0 0 1 1-4.5A8.5 8.5 0 0 1 21 10a9.7 9.7 0 0 1 3.7-1.5 7.8 7.8 0 0 1 8.4 4.9 8 8 0 0 1-1.8 8 8.2 8.2 0 0 1-6.3 2.8Zm1-14.7a5.8 5.8 0 0 0-1 0 8.6 8.6 0 0 0-3.3 1.4 7.5 7.5 0 0 0-2.4 2.4 7 7 0 0 0-.8 3.9 6.8 6.8 0 0 0 .5 2.4 6.2 6.2 0 0 0 4.7 3.4 7.3 7.3 0 0 0 6.9-2.4 6.9 6.9 0 0 0 1.6-6.9A6.8 6.8 0 0 0 26 9.4Z"/>
    </g>
  </g>
</svg>