<svg xmlns="http://www.w3.org/2000/svg" width="288" height="288">
  <style>
    @keyframes one{0%{stroke-dasharray:0 400;stroke-dashoffset:200;fill-opacity:0;stroke-width:.6}10%{stroke-dasharray:200 0;stroke-dashoffset:200;fill-opacity:0;stroke-width:.6}15%{fill-opacity:1;stroke-width:0}}@keyframes two{0%,10%{stroke-dasharray:0 400;stroke-dashoffset:200;fill-opacity:0;stroke-width:.6}20%{stroke-dasharray:200 0;stroke-dashoffset:200;fill-opacity:0;stroke-width:.6}25%{fill-opacity:1;stroke-width:0}}@keyframes stroke-logo{20%{stroke-dashoffset:0;stroke-dasharray:500}40%{stroke-dashoffset:-500}to{stroke-dasharray:500;stroke-dashoffset:500}}.one{-webkit-animation:one 4000ms ease-in-out 1;stroke:rgba(255,255,255,.36)}
  </style>
  <path d="M175.8 230.7a98.8 98.8 0 0 1-22.8-3.8 128.6 128.6 0 0 1-28.3-11.8l4.9-6c42.7 17.5 70.7-14 32.6-45.1a655.3 655.3 0 0 1-43.3 58H55.2a828.4 828.4 0 0 0 81.1-74.4 133.8 133.8 0 0 0-44.7-12.8c-8.8-.5-16.4.4-22 2.9a19.7 19.7 0 0 0-7.3 5.5l.3-.6-.3.3a18.5 18.5 0 0 1 1.3-2.2c3.2-5.3 9.2-8.7 17-10.4 15.8-3.7 39-.7 63.4 8.5v.2c4-4.7 7.7-9.3 11-13.7a317.3 317.3 0 0 1-50 2.6 446.6 446.6 0 0 0 114.1-77.7c-10.6 35.7-30 71.8-49 101.7 19.3 12.1 45.5 30.6 46.7 55.7-1.3 17.7-21.6 23.2-37.4 23.2a72 72 0 0 1-3.6-.1Zm-121-8.7h.4l-.4.3Z" data-name="wda" style="animation:stroke-logo 5s ease-in-out 1 reverse backwards;stroke:rgba(255,255,255,.92);fill:none;stroke-width:2;stroke-dasharray:5000;stroke-dashoffset:500"/>
  <path fill="#e6e6e6" d="M143.6 287.1C64.4 287.1 0 222.7 0 143.6S64.4 0 143.6 0a143.7 143.7 0 0 1 0 287.1Zm0-281.9C67.3 5.2 5.2 67.2 5.2 143.6A138.5 138.5 0 1 0 143.5 5.3Z" class="one"/>
  <path fill="#999" d="m273.4 166.2.7-4.4q.8-5.9 1.1-11.8l-16.5 13a117.1 117.1 0 0 1-2.8 12.4l-.2.9-1.6 5a117 117 0 0 1-89.1 77l16.8 11.3a131.8 131.8 0 0 0 91.6-103.4Zm-126.3 94.1h-5.4a116.7 116.7 0 0 1-100.6-60.9L35.5 219a131.6 131.6 0 0 0 126.7 55l4.3-.7q5.9-1 11.6-2.6l-17.4-11.6a116 116 0 0 1-13.6 1.2ZM72.2 51.2q2.1-1.7 4.3-3.2a116.7 116.7 0 0 1 117.3-9.9l-7-19c-2.4-.9-4.8-1.7-7.3-2.3A131.9 131.9 0 0 0 51.9 48.9L48.8 52q-4.2 4.3-8 9l21-.8a117.5 117.5 0 0 1 10.4-9ZM209.3 47l4.4 3.1a117.1 117.1 0 0 1 45.7 108.6l16-12.6a132.2 132.2 0 0 0-70.2-119l-4-2q-5.2-2.6-10.8-4.7l7.3 19.6a115.8 115.8 0 0 1 11.6 7ZM32 177.8A116.6 116.6 0 0 1 58.7 63.3l-20.3.8a131.6 131.6 0 0 0-13.2 137.4l2 3.9q2.9 5.3 6.1 10.3l5.7-20.2a117.8 117.8 0 0 1-5.4-12.6l-1.7-5Z" style="-webkit-animation:two 4000ms ease-in-out 1;stroke:rgba(255,255,255,.16)"/>
  <path fill="#e6e6e6" d="M143.6 253.6a110 110 0 1 1 110-110 110.1 110.1 0 0 1-110 110Zm0-216a106 106 0 1 0 106 106 106.1 106.1 0 0 0-106-106Z" class="one"/>
</svg>