<svg xmlns="http://www.w3.org/2000/svg" width="213.6" height="42.3"><path d="M199.6 42.3h-1.4l-1.4-3.9a10.4 10.4 0 0 1-1.4-.5l-1.2 3.3a13.8 13.8 0 0 1-4.9-3.4 18.7 18.7 0 0 0 3 .2 18.5 18.5 0 0 0 18.4-18.2 14 14 0 0 1 2.3 12.7 14.1 14.1 0 0 1-1 2.3v.2l-.4.6v.1l-.1.1v.1h-.1v.2h-.1a14 14 0 0 1-5.2 4.6l-.2.2h-.2l-.1.1h-.1l-.1.1a14 14 0 0 1-4.2 1.1h-1.6Z" fill="#86c9cf"/><path d="m165 9 .2.7V12h3.4l-.6 2.2h-9.1l.6-2.2h3.1V9.6Zm3 3.4h-3.3V9.5l-1.7.4.1.5v2h-3.3l-.3 1.4h8.2ZM95.8 9.6v.2l.1.5v.7l.1.6v.7h4.2l-.7 2.1H88.7l.7-2 4-.1V11l-.2-.4v-.2Zm3.8 3-4 .1v-2l-.2-.6-1.7.5v.5l.1.4v1.2h-4.1l-.4 1.3h10Zm3.7-3h2.2v.2l-.5 1.4-.4 1.3-.4 1.3-.4 1.2h5.1l-.7 2.1H103l-.1.2v.3l-.2.2v.2h2.1l-3.2 10.2v.2a.5.5 0 0 0 0 .2 1.1 1.1 0 0 0 .2 0h.3a1.1 1.1 0 0 0 .2 0 .6.6 0 0 0 .2 0 .4.4 0 0 0 .1-.1 1.5 1.5 0 0 0 .1-.2l.2-.3.1-.3.2-.6.2-.4q0-.3.2-.4l.2-.6q.2-.3.2-.7l.2-.3 1.7 1.1v.2l-.7 1.6-.6 1.2a9.8 9.8 0 0 1-.5 1 3.1 3.1 0 0 1-.4.5 1.2 1.2 0 0 1-.2.2 1.4 1.4 0 0 1-.3.1 1.7 1.7 0 0 1-.2.2 2.2 2.2 0 0 1-.4 0 1.2 1.2 0 0 1-.1 0 2.2 2.2 0 0 1-.3.1 4.5 4.5 0 0 1-.9 0h-.8a2.8 2.8 0 0 1-.3 0 1.7 1.7 0 0 1-.2-.1 1.1 1.1 0 0 1-.5-.2.8.8 0 0 1-.3-.3 1.4 1.4 0 0 1-.1-.7 3.9 3.9 0 0 1 .2-1l3.3-10.5-.3.8-.3.7-.3.7-.3.7-1 1.8-1 1.6q-.4.8-1 1.5t-1 1.3l-1.1 1.1-1.1 1-1.2 1-1.2.8-.2.1-.5-2 .2-.1.8-.6.7-.6.8-.6.7-.7-2.2 1v-.2l-.1-.8-.2-.8-.2-.8-.3-.8V24l2-1.1.1.1.4.8.2.8.2.9.1.9q.2 0 .3-.2t.2-.2l.2-.2q.2-.1.2-.3l.8-1 .8-1.2.8-1.3.7-1.3.3-.7.4-.9.4-1 .4-1h-3l.8-2.1h3l.4-1.2.4-1.3.4-1.3.5-1.4Zm1.7.4h-1.4l-.4 1.4-.5 1.3-.4 1.3-.4 1.2v.2h-3l-.5 1.3h3l-.1.2-.5 1.2-.4 1-.4.9-.3.8-.8 1.3-.7 1.3-.9 1.2-.8 1.1-.9 1-1 1-1 .8-1 .8.3 1.3 1-.8 1.2-.8 1-1 1-1 1-1.3 1-1.4 1-1.6.9-1.8.4-.8.4-1 .4-1 .4-1.2.1-.2h5.2l.5-1.3h-5.2v-.2l.5-1.2.4-1.3.4-1.3.5-1.4Zm-.7 8.4h-1.4l-3.2 10.2a3.3 3.3 0 0 0-.2 1 1 1 0 0 0 .2.5.6.6 0 0 0 .2.2 1 1 0 0 0 .3 0 1.4 1.4 0 0 0 .3.1 2.5 2.5 0 0 0 .2.1h1.6a1.9 1.9 0 0 0 .2 0 .7.7 0 0 0 .1 0 1.8 1.8 0 0 0 .3-.1 1.2 1.2 0 0 0 .2-.1.8.8 0 0 0 .1-.1.6.6 0 0 0 .1-.1h.1a2 2 0 0 0 .3-.4 7.1 7.1 0 0 0 .4-.7l.6-1.2.7-1.7-1-.7-.3.5-.2.5-.1.4-.2.4-.1.4-.2.4-.2.4a2.3 2.3 0 0 1-.1.2 1.1 1.1 0 0 1-.2.2 1 1 0 0 1-.2.1 1.1 1.1 0 0 1-.3.2 1.5 1.5 0 0 1-.4 0h-.2a1.7 1.7 0 0 1-.2 0 .8.8 0 0 1-.1 0 .4.4 0 0 1-.1-.1.2.2 0 0 1-.1-.1.6.6 0 0 1 0-.3 1.6 1.6 0 0 1 0-.2v-.2Zm-9.4 8-.1-.8-.2-.8-.2-.7-.3-.7-1.3.7.2.7.3.7.1.8.1.7Zm25-17h2.2l-1 3.7h2.2l1.1-3.7h2.3l-1.1 3.7h2.3l-1.2-1.4.3-.1.7-.5.7-.5.6-.5.6-.5.1-.1 1.6 1.2-.2.2-.7.7q-.3.4-.7.5l-.6.6q-.3.3-.7.4h4.4l-.7 2-6.5.1 1.6.6-.2.2-.2.3-.2.2-.2.3-.2.2h4.7l-.6 2.1h-8.7l-.4 1.2h7.7l-.6 2h-7.7l-.3 1.2h9.5l-.6 2.1h-6.4l1.3.7 1.2.9 1.2.9 1 .9.2.1-2.4 2h-.1l-1-1.1-1-1-1.2-.8-1.2-.8h-.2l1.9-1.8h-2.9l-1.7 5.7h-2.4l1.8-5.7h-3l.9 1.5-.2.2-.8.5-.9.6-.8.5q-.4.3-1 .4l-.9.4-1 .4-1 .4-1 .3h-.2l-.2-2.2h.2l1-.4 1-.3.8-.3.9-.4.8-.4.7-.4.7-.4.7-.5h-5.8l.6-2h9.1l.4-1.1h-7.9l.7-2.2h7.8l.3-1h-8.6l.7-2.2h4.5v-.2q0-.2-.2-.1v-.2l-.2-.2V16l1.4-.9h-5.3l.6-2h3.8l-.2-.6-.2-.6q0-.3-.2-.5t-.3-.6l-.1-.1 2.1-1.2.1.1.3.6.3.5.2.6.2.6v.2l-2 1h2.7Zm1.7.5h-1.4l-1.1 3.7h-6.7l-.4 1.2h19.8l.4-1.3H125l1.1-3.7h-1.4l-1 3.8h-3.2Zm-4 2.1-.1-.5-.2-.5-.2-.4-.3-.5-1.3.7.3.5q.2.2.2.5l.1.4.1.5Zm13-1.2-1-.7-.4.4-.6.4-.6.4-.6.4.9 1 .5-.3.6-.5.6-.5.6-.6Zm-5.7 4.4h-7.3l.2.5.3.4.2.5q.2.3.1.4h5.2l.1-.2.2-.2.2-.3.3-.4.3-.3.2-.4Zm-1.2 2.2H118l-.2-.5-.2-.5-.3-.5-.2-.4-1.3.7.2.2q.2.2 0 .2l.2.3v.2l.2.4h-5l-.3 1.2h8.6l-.6 2h-7.8l-.4 1.2h7.8l-.6 2h-9l-.5 1.2h9.1l-1.7 5.8h1.5l1.7-5.8h9.6l.3-1.1h-9.5l.6-2h7.7l.3-1.3h-7.6l.6-2h8.7l.3-1.3h-5l.3-.2V17l.1-.1.2-.3.2-.2.2-.2.2-.3-1.3-.5-.3.4q0 .2-.2.3l-.3.3q-.2.1-.2.3l-.1.2h-.1l-.1.2-.2.1Zm3.3 11.8-1-.9-1-.8-1.2-.8-1.2-.7-1.3 1.2 1.1.7 1 .8q.6.4 1 .9t1 1Zm-12.4-2.1-.5-1.1-.7.4-.7.4-.8.4-.7.4-.8.3-1 .4-.8.3-1 .3.2 1.4 1-.3 1-.3.8-.4.9-.4.8-.4.8-.4.8-.5.7-.5ZM194 9.4l1 1.9h-.4l-.9.2-.9.2-.9.2q-.5.2-.9.1l-.8 3.3h3.5l-.6 2.4h-3.6l-.2 1 .6 1 .7.8.5 1 .5.8.1.2-2.2 2.1-.1-.3-.2-.6-.3-.6-.2-.6-.3-.5-2.6 9.8h-2.5l2.4-9.2-1 1.2-1 1.1-1 1.1-1.1 1-.2.3-1.1-2 .1-.2.9-.7.9-1 1-1 1-1.2.6-.8.7-1 .6-.8.7-1H183l.7-2.3h3.9l.8-2.9h-.7l-.8.2h-.7l-.7.1h-.2l-.6-2.2h.3l2.2-.2 2.2-.3 2.2-.3 2.2-.3Zm.3 1.6-.7-1.2-2 .4-2.2.3-2 .2-2 .2.3 1.4.8-.1h.7l.8-.2h.7l.2-.1-1 3.8H184l-.4 1.5h3.9l-.2.3-.6 1-.7 1-.8 1-.7 1-1 1-1 1.1-.8 1-.8.7.6 1.3 1.2-1.2 1.2-1.2 1-1.3q.6-.6 1-1.4h.5l-2.6 9.9h1.7l2.8-10.7.3.5.3.6.3.6.3.7q.2.3.2.7l1.4-1.3-.5-1-.5-.8-.6-.9q-.3-.5-.7-.8v-.1l.4-1.7h3.5l.4-1.5h-3.5l1-4h.2l1-.2.8-.2.8-.1.9-.2ZM145 9.8h2.5v.1l-.3 1.1-.4 1.1-.3 1-.3 1h9l-.1.2-1.4 4.8-1.2 3.9-1 2.8-.8 1.9-.5 1a7.7 7.7 0 0 1-.5.7 5.2 5.2 0 0 1-.5.6 3.6 3.6 0 0 1-.6.5 4.8 4.8 0 0 1-.7.3 5.4 5.4 0 0 1-.7.2 6.3 6.3 0 0 1-.7 0 7.5 7.5 0 0 1-.8.1h-2l-1-.2h-1l-.2-.1.2-2.8h.3q.5.2 1.1.2t1.1.2h2.2a3.1 3.1 0 0 0 .4 0 2 2 0 0 0 .4 0 1.4 1.4 0 0 0 .2-.1 1 1 0 0 0 .3-.2 1.8 1.8 0 0 0 .1-.2 4.4 4.4 0 0 0 .3-.4l.3-.6.3-.9.7-1.8.7-2.1.8-2.6.8-2.9h-6.4l-1.2 2.9-1.2 2.4a20.7 20.7 0 0 1-1.2 2 12 12 0 0 1-1.2 1.4 24.3 24.3 0 0 1-1.8 1.8l-2 1.6q-1 .8-2.3 1.5l-2.5 1.3h-.2l-.7-2.1.2-.1 2.2-1.2 2-1.3q1-.7 1.8-1.5a22.3 22.3 0 0 0 1.6-1.5 11.2 11.2 0 0 0 1-1.3 18.5 18.5 0 0 0 1-1.6l1-2 1-2.3h-7.4l.7-2.4h7.6l.3-1 .3-1 .4-1.1.3-1.1Zm2 .4h-1.6l-.4 1-.3 1.1-.3 1-.4 1v.3h-7.6l-.5 1.6h7.4v.2l-1 2.5-1.1 2a19.4 19.4 0 0 1-1 1.8 11.8 11.8 0 0 1-1.1 1.3l-1.6 1.6q-.8.8-1.8 1.4l-2 1.4q-1 .7-2.2 1.2l.5 1.4 2.4-1.3 2.1-1.4 2-1.6a23.6 23.6 0 0 0 1.7-1.6 11.5 11.5 0 0 0 1.2-1.5 20.4 20.4 0 0 0 1.2-2l1.2-2.3q.6-1.3 1.1-3l.1-.1h7.3v.2l-1 3-.8 2.6-.7 2.2-.7 1.9-.3.8-.3.6a5.5 5.5 0 0 1-.3.5 2.5 2.5 0 0 1-.2.4 1.6 1.6 0 0 1-.4.2 2 2 0 0 1-.3.2 2.5 2.5 0 0 1-.5 0 3.5 3.5 0 0 1-.5.1h-2l-1.1-.2-1.1-.1-.1 1.8 1 .1.9.1h2a7.1 7.1 0 0 0 .7 0 5.8 5.8 0 0 0 .6 0 4.9 4.9 0 0 0 .7-.2 4.2 4.2 0 0 0 .5-.3 3 3 0 0 0 .5-.4 4.7 4.7 0 0 0 .5-.5 7.4 7.4 0 0 0 .5-.7l.4-.9.8-1.8 1-2.8 1.1-3.8 1.4-4.7h-9v-.2l.4-1 .3-1 .4-1 .3-1.1Zm-39.3 0 .1.2.3.8.3.7.2.9q.2.5.1.8v.2l-2.2 1.1v-.2l-.1-.8-.2-.8-.2-.8-.3-.7-.1-.2Zm.5 3.4v-.7q0-.3-.3-.7 0-.4-.2-.7t-.2-.7l-1.3.7.2.7.2.7.2.7v.7ZM170 9.8h11.7l-2.6 10h-4.8L174 21h6l-.7 2.3h-4.8l.2.6.3.6.3.5.3.5a7 7 0 0 0 .5.7 7.1 7.1 0 0 0 .6.6 7.5 7.5 0 0 0 .7.6 8.1 8.1 0 0 0 .8.5h.2l-2 2.6-.2-.2a8.3 8.3 0 0 1-.7-.6 9.1 9.1 0 0 1-.7-.8 10.2 10.2 0 0 1-.6-.8l-.6-1-.2-.4-.2-.4-.2-.5-.2-.4-1.7 6.3h-2.5l1.7-6.3-.4.5-.4.4-.5.4-.4.4-1.3 1-1.2 1-1.1.6-1 .6h-.2l-.5-1.8-.8 2.7h-2.4l.3-1h-2.8l-.3 1.2h-2.4l2.3-8.2h7.5l-1.3 5 1-.6.9-.6 1-.7 1-.8.7-.6.6-.5.6-.5q.3-.2.5-.6h-4.5l.7-2.3h5.6l.4-1.2h-4.6Zm11.2.4h-10.9l-2.5 9.2h4.6l-.6 2h-5.6l-.4 1.5h4.8l-.3.3-.6.7-.6.6-.7.7q-.3.4-.8.6l-1 .8-1 .7-1 .6-.9.5.4 1.4 1-.5q.5-.2 1-.7l1-.8 1.2-1 .6-.5.6-.6.5-.6.6-.6.6-.7-2 7.5h1.6l2-7.6.2.7.2.7.3.6.2.6.3.6.5.8.6.8a9 9 0 0 0 .6.7 8 8 0 0 0 .7.6l1.3-1.6a8.3 8.3 0 0 1-.8-.5 7.7 7.7 0 0 1-.6-.6 7.4 7.4 0 0 1-.6-.6 7.3 7.3 0 0 1-.5-.7l-.4-.6-.3-.6-.3-.7-.3-.7-.1-.3h5.2l.4-1.4h-6l.6-2.1h4.7Zm-17 13.5h-6.7l-2 7.3h1.4l.4-1.3h3.7l-.3 1 1.5.1Zm31.8-14 11.6-.1-2 7.8H194Zm11 .3h-10.7l-1.7 7h10.7Zm-35.4 1.5h3l-.8 2.8h-3Zm2.4.5h-2.1l-.5 1.8h2Zm2-.5h3.2l-.7 2.7h-3.2Zm2.6.4h-2.2l-.5 2h2.2Zm19-.4h7.4l-1 4h-7.4Zm6.8.4H198l-.8 3.2h6.4Zm-33.9 3.5h3l-.7 2.7h-3Zm2.4.5h-2l-.6 1.8h2.1Zm2.1-.5h3.2l-.8 2.7h-3Zm2.6.5h-2.2l-.5 1.8h2.2Zm-88.3 0h8.6l-2.1 6.5h-3.2l-2 6.1q0 .4-.2.7a5.8 5.8 0 0 1-.2.6 3.5 3.5 0 0 1-.3.4 2 2 0 0 1-.3.3 2.2 2.2 0 0 1-.4.3 2.4 2.4 0 0 1-.4.2 3 3 0 0 1-.5.1 3.8 3.8 0 0 1-.6 0h-1.4l-.4-.2h-.2l.4-2.1-.3.3-.2.3-.3.3q0 .2-.2.2l-.2.2-1.1-1.6.1-.1 1.1-1.2 1-1.3 1-1.4 1-1.4.1-.3 1.5 1v.2l-.9 1.3-.8 1.2-.8 1-.8 1 .1.1.4.1.5.1h.8a.5.5 0 0 0 .1 0 .2.2 0 0 0 .1 0h.1c.1 0 0-.2 0-.2l.2-.2V28l1.9-5.7H87Zm8 .3h-7.8L87.7 22H91l-2 6v.4l-.1.2-.1.2a1.8 1.8 0 0 1-.1.2.9.9 0 0 1-.2 0 .8.8 0 0 1 0 .2.8.8 0 0 1-.3 0 .9.9 0 0 1-.2.1h-.8l-.4-.1-.4-.1-.2 1.5h.8l.4.1h.4a3.5 3.5 0 0 0 .5 0 2.5 2.5 0 0 0 .4 0 2 2 0 0 0 .4-.2 1.6 1.6 0 0 0 .3-.3 1.3 1.3 0 0 0 .2-.1 2.6 2.6 0 0 0 .2-.4 5 5 0 0 0 .2-.5l.3-.7 2-6.5h3.2Zm-8.2 7.9-1-.7-.8 1.4q-.4.7-1 1.3l-1 1.2-1 1.2.7 1 1-1 1-1.3 1-1.5 1-1.6Zm70.2-8.2h7.1l-.6 2.2h-7.1Zm6.6.4h-6.3l-.4 1.4h6.3Zm-75.4 1.1h5.1l-1 3.4h-5.2Zm4.6.4h-4.4l-.8 2.5h4.4Zm110.4.2.2 2-.2.1-1.3.3q-.6.2-1.3.2l-1.4.2q-.7.2-1.4.1l-.7 2.8h5.1L204 26h-5.2l-.8 3 6 .1-.6 2.4-15-.2.7-2.3h6.4l.8-3H191l.6-2.3h5.3l.6-2.5h-1.2l-1.3.1h-1.3l-1.3.1h-.2l.2-2.4h3.7q1.6 0 3.3-.3 1.6 0 3-.3t2.9-.4Zm-.3 1.7-.1-1.2-2.8.4-3 .3-3.1.2h-3.4l-.1 1.6h1.3l1.3-.1h1.3l1.2-.2h.3l-.9 3.5h-5.3l-.3 1.3h5.3l-1 4h-6.5l-.4 1.4 14 .1.4-1.4h-6l1-4h5.2l.4-1.4h-5.2l.9-3.7h.2l1.4-.1 1.3-.2 1.3-.2 1.3-.3Zm-47-.1h7.2l-.6 2.2h-7.2Zm6.6.4h-6.2l-.4 1.4h6.3Zm-6.2 5h3.6l-.9 3.3h-3.6Zm3 .5H159l-.7 2.4h2.8Z" fill="#212529"/><path d="M89.6 12.5h4V11l-.1-.5 2-.6.2.6v.6l.1.7v.7h4.1l-.5 1.7H89Zm-.2 3.5h8.2l-2 6.2h-3.1l-2 6.3-.3.7a5.7 5.7 0 0 1-.2.5 3.2 3.2 0 0 1-.2.4 1.8 1.8 0 0 1-.3.3 1.9 1.9 0 0 1-.3.2 2.2 2.2 0 0 1-.4.2 2.7 2.7 0 0 1-.5.1 3.7 3.7 0 0 1-.5 0h-1.4l-.4-.2.3-1.9.4.1.5.1h.9a.7.7 0 0 0 .1 0 .5.5 0 0 0 .1 0 .5.5 0 0 0 .1 0 .5.5 0 0 0 .1-.1 1.6 1.6 0 0 0 0-.2l.2-.1v-.3l.1-.2 2-5.9h-3.4Zm.3 4.6h4.7l1-3h-4.8ZM88 23l1.3.9-1.2 1.8-1.1 1.5-1.1 1.4-1 1.1-1-1.3 1.1-1.2 1-1.3 1-1.4 1-1.5Zm6.1 0 .3.8.3.8.2.9.1.8-1.8 1v-1q0-.4-.2-.7l-.3-.9-.3-.7Zm4.5-8h3l.4-1.1.5-1.3.4-1.4.5-1.5h1.8l-.5 1.4-.4 1.4-.5 1.3-.4 1.3h5.1l-.5 1.7h-5.2l-.5 1.2-.4 1-.4 1-.4.9-1 1.7-.9 1.6-1 1.5-1 1.3-1.1 1q-.5.6-1.1 1l-1.2 1-1.2.8-.3-1.7 1-.8 1-.8 1-1 1-1 .8-1 .8-1.2.7-1.3.8-1.4.3-.7.4-1 .4-1 .5-1h-3Zm4 3h1.9l-3.2 10a2.8 2.8 0 0 0 0 .3 1 1 0 0 0 0 .2.3.3 0 0 0 0 .2.2.2 0 0 0 .1 0 .7.7 0 0 0 .1 0 1.6 1.6 0 0 0 .2.1h.2a1.4 1.4 0 0 0 .3 0 1 1 0 0 0 .2 0 .7.7 0 0 0 .2-.2.8.8 0 0 0 .1-.2 2 2 0 0 0 .1-.2l.2-.3.1-.4.2-.4.2-.4.2-.5.2-.6q.2-.3.2-.7l1.5 1-.7 1.5-.6 1.3a9.4 9.4 0 0 1-.5.8 2.7 2.7 0 0 1-.4.6 1 1 0 0 1-.1.1 1 1 0 0 1-.2.2 1.4 1.4 0 0 1-.3 0 2 2 0 0 1-.3.1 1 1 0 0 1-.2.1 2.5 2.5 0 0 1-.2 0h-1.6a2.7 2.7 0 0 1-.3 0 1.5 1.5 0 0 1-.2-.1 1 1 0 0 1-.5-.2.8.8 0 0 1-.2-.4 1.6 1.6 0 0 1 0-.6 4.1 4.1 0 0 1 0-.8Zm5-7.6.3.8.3.8.1.8.2.8-1.8.9-.1-.8-.2-.8-.2-.8-.3-.8Zm9.2-.6.3.5.3.5.2.6.2.6-1.8 1q0-.4-.2-.7t-.2-.5l-.2-.6-.3-.5Zm3.2-.2h1.8l-1.2 3.7h2.8l1-3.8h2l-1.2 3.7h7.2L132 15h-20.3l.5-1.6h6.7Zm-2.8 5.5.3.5q.2.2.2.5l.3.5.2.5h5.5l.1-.2.1-.1.1-.2.3-.3.3-.4.2-.4.3-.3 1.7.6q0 .2-.2.3t-.2.3l-.3.3-.3.3v.1h4.8l-.5 1.7h-8.7l-.4 1.6h7.6l-.5 1.7h-7.6l-.5 1.5h9.5l-.5 1.7h-9.5l-1.7 5.7h-2l1.8-5.8h-9.1l.5-1.6h9l.5-1.5h-7.8l.5-1.7h7.9l.4-1.6H111l.5-1.6h4.8l-.1-.3-.2-.3-.1-.3-.2-.3Zm-3.1 10.5.7 1.4-.8.6-.8.5-.9.5-.9.4-.9.4-1 .4-1 .4-1 .3-.2-1.8 1-.3 1-.4.9-.3.8-.4.8-.4.8-.4.8-.4.7-.5Zm8.4 0 1.3.8 1.2.8 1.2 1q.6.4 1 .9l-2 1.6-1-1-1-1-1.1-.8-1.2-.8Zm7-16 1.4 1-.8.8-.7.6-.7.5-.6.4-1.1-1.3.7-.4.7-.5.6-.5.6-.5Zm6.8 4.7h7.5l.4-1 .3-1.2.4-1 .3-1.2h2L147 11l-.3 1.1-.4 1.1-.3 1h9l-1.4 4.8-1.2 3.8-1 2.9-.8 1.9-.5.9a7.6 7.6 0 0 1-.5.7 5 5 0 0 1-.5.6 3.3 3.3 0 0 1-.5.4 4.5 4.5 0 0 1-.6.3 5 5 0 0 1-.7.2 6 6 0 0 1-.7 0 7.4 7.4 0 0 1-.7.1h-2l-1-.2h-1v-2.4l1.2.2h1.1l1.2.2h1a3.3 3.3 0 0 0 .5 0 2.3 2.3 0 0 0 .4-.1 1.6 1.6 0 0 0 .3-.2 1.3 1.3 0 0 0 .3-.2 2.3 2.3 0 0 0 .3-.3 5.3 5.3 0 0 0 .2-.5l.3-.6.3-.7.7-1.9.7-2.2.8-2.6.9-3h-6.8l-1.2 3-1.2 2.3a20.5 20.5 0 0 1-1.2 2 11.9 11.9 0 0 1-1.3 1.5 24.1 24.1 0 0 1-1.7 1.7l-2 1.6-2.3 1.5-2.5 1.3-.6-1.8 2.2-1.2 2-1.3 1.9-1.5 1.6-1.6a11.6 11.6 0 0 0 1-1.3 19 19 0 0 0 1.1-1.7l1-2 1-2.5h-7.3Zm33.8-4.3 11.3-.1-2.6 9.6H174l-.4 1.7h6L179 23h-5l.3.7.3.7.3.6.4.5a7.2 7.2 0 0 0 1.1 1.4 7.6 7.6 0 0 0 .7.6 8.3 8.3 0 0 0 .8.5l-1.6 2a8.2 8.2 0 0 1-.8-.6 8.9 8.9 0 0 1-.6-.7 10 10 0 0 1-.6-.9l-.6-.9-.3-.6-.3-.6-.2-.6q-.2-.3-.2-.7l-1.9 7h-2l1.9-7-.6.8-.6.6-.6.6-.5.5-1.3 1-1.2.9-1.1.7-1 .5-.5-1.8 1-.5 1-.6 1-.7 1-.9.8-.6.7-.6.6-.7.6-.6h-4.6l.5-1.8h5.7l.4-1.7h-4.6Zm-.1 7.8h2.5l.6-2.2h-2.5Zm5.1-2.3-.6 2.3h2.7l.6-2.3Zm-4-1.5h2.4l.7-2.4h-2.6Zm5-2.4-.6 2.3h2.7l.6-2.3Zm-16.5.5h3.2v-1.9l-.1-.6 2-.5.1.8v.7l.1.7v.8h3.3l-.5 1.8h-8.6Zm-.3 3.9h6.8l-.5 1.8h-6.8Zm-1 3.7h6.7l-.5 1.8H158Zm6 3.7-2 7.5h-2l.3-1h-3.2l-.4 1.2h-2l2.2-7.7ZM158 28h3.2l.8-2.8h-3.3Zm35.8-18.5.8 1.5-.9.2-1 .2-.9.2q-.5.2-1 .1l-1 3.7h3.6l-.5 2h-3.5l-.4 1.3.7 1 .6.8.6 1 .5.9-1.8 1.7-.3-.8-.3-.7-.3-.7-.3-.7-2.7 10.3h-2.1l2.6-10L185 23l-1.2 1.4q-.5.7-1.2 1.3t-1.2 1.2l-1-1.6 1-.8.8-1 1-1 1-1.2.8-.9.7-1 .7-1 .6-1h-3.8l.5-1.9h4l.9-3.4-.8.1-.8.1-.8.1-.8.1-.5-1.8 2.2-.2q1-.2 2.2-.2l2.2-.3q1.2-.1 2.2-.4Zm2.3.3 11.2-.1-1.9 7.3h-11.1Zm.8 5.4h6.9l.9-3.6h-6.9Zm-5.2 8.6h5.3l.8-3-1.3.1-1.3.1h-2.8l.2-1.9h3.5q1.7 0 3.3-.2l3-.3q1.5-.1 2.9-.5l.2 1.7-1.4.3-1.3.2-1.5.2q-.8.2-1.4.1L199 24h5.2l-.5 1.9h-5.2l-.9 3.5h6l-.4 2-14.5-.2.4-1.8h6.5l.9-3.6h-5.3Z" fill="#1a202c"/><circle cx="3.5" cy="3.5" r="3.5" transform="translate(15.6 5.6)" fill="#ea5514"/><path d="m25.8 13 .5-1.2s.2-.7-.3-.8c0 0-.3-.1-.6.5a8 8 0 0 1-4.3 3s-5.8 2-11.6-7.2l-.6-1a.3.3 0 0 0-.3-.1.3.3 0 0 0-.3.3 3.6 3.6 0 0 0 .2.7S18 28.6 27.8 32.7c0 0-5.6-10.4-2-19.6Z" fill="#ea5514"/><path d="M39 30.7a3.5 3.5 0 0 1-3.7 2.6c-2.2 0-3-1.3-3-3.2 0-2.1 1.1-5.1 4.2-5.1 2.4 0 3 1.4 3 2.7h-2c0-.5-.2-1.2-1.1-1.2-1.4 0-2 2.2-2 3.6 0 1 .4 1.6 1.2 1.6a1.4 1.4 0 0 0 1.3-1Zm8.8-2.5c0 2.1-1 5.1-4.5 5.1-2.2 0-3.2-1.3-3.2-3.3 0-2 1.1-5 4.4-5a3 3 0 0 1 3.3 3.2Zm-5.5 2c0 1 .4 1.6 1.2 1.6 1.5 0 2-2.6 2-3.7 0-1-.3-1.6-1.1-1.6-1.5 0-2 2.5-2 3.7ZM51 30l-.7 3.2h-2.1l1.7-8.1H53c1.7 0 2.6.9 2.6 2a2.2 2.2 0 0 1-1.6 2.2c.6.3.8 1 .6 2.2a12.2 12.2 0 0 0-.3 1.7h-2a9 9 0 0 1 .2-1.9c.2-.8.1-1.3-.8-1.3Zm.3-1.5h1c.8 0 1.2-.4 1.2-1 0-.7-.5-.9-1-.9h-.8Zm10.5 1.3h-3.2l-.4 1.8H62l-.5 1.6h-5.7l1.7-8.1H63l-.4 1.6h-3.3l-.4 1.5h3.3ZM3.3 27.9s-4 7.1 8.2 4.4c0 0 8.7-1.3 17.9-9.7 2.5-2.3 6.6-6.8 3.3-8.4 0 0-3-1.4-7.3.7 0 0 7.3-5 11.2-1.2 0 0 3.3 3-2.1 9.6 0 0-15.3 16.7-30.7 12.7 0 0-6-2-.5-8.1Z" fill="#f8b62d"/><circle cx="3.5" cy="3.5" r="3.5" transform="translate(0 14.7)" fill="#3fb7a0"/><path d="M18.6 26.1s-5.2-5.6-10.2-17a21.3 21.3 0 0 0-1-1.8.3.3 0 0 0-.6.2 3.5 3.5 0 0 0 .4 1s4 9.3 1.2 14c-2.3 3.9-7.4.7-7.4.7L.8 23H.6a.3.3 0 0 0-.1 0 .4.4 0 0 0-.1 0 .2.2 0 0 0 0 .1c-.2.7 1 2.2 2.7 3.5a40.1 40.1 0 0 0 8.2 5c9.7 3.5 15.4 1.6 15.4 1.6-3.4-1.6-8.2-7.2-8.2-7.2Z" fill="#3fb7a0"/><path d="m4.2 0 1.3 1A.4.4 0 0 0 6 1L7.4.5a.4.4 0 0 1 .4.4l-.4 1.5a.4.4 0 0 0 0 .4l1 1.2a.4.4 0 0 1-.3.6H6.6a.4.4 0 0 0-.3.2L5.3 6a.4.4 0 0 1-.5 0l-.6-1.6a.4.4 0 0 0-.2-.2l-1.6-.4a.4.4 0 0 1 0-.7l1.2-1a.4.4 0 0 0 .1-.2V.4a.4.4 0 0 1 .5-.3Z" fill="#f8b62d"/><path d="M82.6 15.8h.8l-5 17.3h-.8Zm.6-8.4h.9L77.8 29H77Z" fill="#d1d1d0" opacity=".5"/><path d="M80.7 7.4h1.7l-7.5 26h-1.7Z" fill="#d1d1d0"/><path d="M50.4 7 49 11.6h-4.8L41.4 21h-1.2l4.2-14Zm-6 3.7H48l.3-1-3.5.1Zm.6-1.9h3.6l.2-.9h-3.5ZM52.2 7h5.5l-3.5 12.4q-.5 1.6-2 1.6l-1.4-.1.2-1.4 1.4.2q.4 0 .6-.8l2.1-7.2h-4.9L51.6 7Zm3.2 3.7.2-.8H52l-.2.8Zm-3-1.8h3.5l.3-.9h-3.6Zm-8.5 7.9h1l-.3 1.2h1.6l.4-1.3h1l-.4 1.3q-.4 1.5-1.5 2.1-1 .7-2.9 1l-.1-1q1.7-.2 2.4-.7.4-.2.6-.5h-2.4Zm4.8-.1h1l-.4 1.4h1.6l.4-1.4h1l-.7 2.4H49l-.6 2h-1Zm4.2-2.2q.3.8.4 1.8l-1 .3v-.7q-1.9.5-3.7.6v-.9l2-1-1.6.1.1-.9q1.6-.8 2.7-1.8l1 .3q-1.2 1-2.2 1.5l1.4-.2 1.1-.8.7.5-3.6 2.2 2-.3-.2-.5Zm-5 0q.4.8.4 1.8l-1 .3V16q-1.8.5-3.6.6v-.9l2-1.1-1.6.2.1-.9Q46 13 47 12l.9.2q-1.2 1-2.2 1.5l1.4-.1 1-.8.8.4q-2 1.4-3.6 2.3l2-.3-.2-.5Zm15.4-8 1.1.4-.3.4q1 .9 1.8 2l-1.1 1-1.4-2-.8 1-1.5 1.3h3.5l-.3 1.2H63l-.5 1.5h1.9l-.3 1.2h-2L61 18.6l1.7-.5-.1 1q-2.4.9-5.2 1.5v-1.1l2.3-.5 1.3-4.6h-2l.3-1.2h2l.4-1.5h-1.4l.3-.8-.3.1-.5-.8q1.1-.9 1.9-1.8.9-1 1.5-2ZM60 15q0 1.5-.3 3l-1.1.3q.3-1.6.3-3Zm3 0 .9.3-1.4 2.7-.8-.2 1.2-2.8Zm2.4-1-.1 2q.8-1.3 1.6-3.4H65l.1-1q1.3-1.4 2.4-3.1h-1.7l.3-1h3.4q-1.6 2.4-3 4h1.8q-1.1 3.6-2.8 6.2l.3.7q.6 1 3.5 1.1l3.3-.1-.7 1.3h-3q-3.2 0-4-1.3l-.4-.5q-1 1.3-2.3 2.3l-.4-1.2q1.3-.9 2.4-2.4-.2-1.2 0-3ZM70 7.5h1.6l.3-1H73l-.3 1h2.1l-.6 2.2h.7l-.4 1.1H74l-.6 2.2h-2.1l-.4 1.1H73l-.3 1.1h-2.2l-.3 1.3h2.4l-.3 1H70l-.5 1.8h-1.2l.5-1.8h-2.4l.3-1H69l.3-1.3h-1.8l.3-1h1.8L70 13h-1.6l.3-1h1.6l.3-1.2h-2.4l.3-1.1h2.4l.3-1.2h-1.6Zm2.5 1-.3 1.2h1l.3-1.2Zm-.6 2.3-.3 1.1h1l.2-1Z" fill="#f8b633"/><path d="m63.2 5.9 1.6.4-.2.2v.1l-.1.1v.1l.2.3q.1.2.3.2l.3.3q.2.1.2.3l.3-1h5.5l.3-1h1.7l-.3 1h2.1l-.6 2.2h.7l-.5 1.7h-.6l-.6 2.2h-2.2l-.1.6h2l-.4 1.6h-2l-.3.7H73l-.5 1.6h-2.4l-.4 1.4h2.9l.3-.1-1 1.9h-3.1a13.8 13.8 0 0 1-1.6-.2 7.1 7.1 0 0 1-1.2-.2 3.6 3.6 0 0 1-1-.4 2.1 2.1 0 0 1-.5-.6l-.1-.1V19l-.6.5-.5.5-.5.5-.6.4-.3.3-.5-1.6.2-.1v-.1h.2v-.2h.1l-1 .3-1.2.4-1.1.3-1.2.3h-.3V19h.3l.5-.1.5-.1.5-.1.5-.1.2-.6-1.5.4V18l.2-.8.1-.7v-1.7l1.7-.4v2.1l.5-2.2h-1.9l.5-1.6h1.9l.3-1h-1.3l.1-.7-.7-1.2.2-.1.5-.4.5-.5.5-.4.4-.4.4-.5.4-.5.3-.4.4-.5Zm9.4.5H72l-.3 1H70l-.2.6h1.6L71 9.7h-2.3l-.2.6h2.4l-.5 1.6h-1.6l-.1.5h1.6l-.5 1.7h-1.9l-.1.5h1.8l-.5 1.8h-2.3l-.2.6H69l-.5 1.7h.7l.5-1.7H72l.2-.6h-2.5l.5-1.7h2.2l.1-.6h-2.1l.5-1.7h2l.7-2.1h.6l.2-.6h-.6l.6-2.3h-2.1Zm-8.6.2-.6-.1-.3.4-.4.5-.4.4-.4.5-.3.4-.5.4-.4.4-.5.4.3.5h.1l.3-.4.4-.3.4-.3.3-.3.4-.4.2-.2.2-.2.2-.2q.2-.1.1-.3l.3-.3.2.3.3.4.3.4.4.4.3.5.6-.6-.3-.5q-.1-.3-.4-.4l-.5-.5-.4-.4-.1-.1.1-.2v-.1Zm6.8 1.9h-1.6l.4-1.3-.3.5-.3.5-.4.5-.3.4h2.4ZM69 7.4h-2.7l-.2.5h1.8l-.2.4-.6.8-.5.8-.6.7-.6.8-.1.6h2l-.2.3-.4 1-.4 1-.4.8-.4.7-.5.8v-2.5l-.5.3-.1.8v2.3l-.6.6-.5.6-.6.6-.6.5.3.6.5-.4.5-.5.5-.5.4-.5.3-.3.2.3.1.2v.1l.2.1a1.8 1.8 0 0 0 .5.5 3.4 3.4 0 0 0 .8.4 7 7 0 0 0 1.2.2 13.3 13.3 0 0 0 1.4.1h2.8l.4-.7h-3a12.6 12.6 0 0 1-1.4 0 6.2 6.2 0 0 1-1-.2 2.9 2.9 0 0 1-.8-.4 1.6 1.6 0 0 1-.5-.5l-.1-.2q-.1-.2 0-.1l-.2-.2v-.4L66 16l.7-1.4.7-1.5.6-1.6h-2l.3-.4.6-.8.7-.9.7-1 .7-1ZM64.4 10q0-.3-.2-.5t-.3-.4l-.3-.4-.3-.3-.1.1-.2.2-.1.1-.2.2-.2.2q-.2.1-.2.3l-.3.2-.3.3ZM67 8.4h-1v.1h.1v.1l.1.1.1.2L65 10l-.4 1.5H63l-.3 1h1.9l-.3 1.3 1.2-.5v.5l-.1.3v.4l.2-.4q.2-.2.2-.5l.3-.6.2-.5h-1.8l.1-1.3.1-.1.6-.7.5-.6.5-.7.5-.8Zm3.3 2.4h-2.4l.5-1.6-.4.5-.3.4-.4.5-.3.4h1.7l-.1.2v.1H70Zm-6-.3H61l-.2.6h1.4l-.6 2.1h-2v.6h1.8l-1.5 5-.2.1-.4.1-.5.1-.6.1-.5.1v.7l1.3-.3 1.2-.3 1.1-.4 1-.4.1-.4H62l-.4.2h-.3l-.4.2h-.3l1.4-4.8h1.8l.2-.6h-1.8l.6-2.1H64Zm5.4 2.5H68l.4-1.4-.2.5-.2.5-.2.5-.2.5h1.8Zm-.6 2.2h-2l.3-1-.1.5-.2.4-.2.4-.3.4h2.3Zm-5.2-.8h-1.4l-.7 2.2.2-.5.3-.5.2-.4q.2-.2.2-.5v-.3l1.2.3v-.3Zm-4.5 3.1.1-.6.1-.6V15l-.5.2v1.2l-.1.6-.1.6Zm4.1-2.3L63 15l-.2.6-.3.6-.2.5-.3.6h.4l.2-.4.3-.5.3-.6.3-.6Zm.4 2.1v-1.7l-.3.6-.3.5-.2.4-.3.4h.2v.9l.2-.2q.2-.1.2-.3l.2-.3.3-.3Zm4.5.2H66l.3-1-.1.2-.2.2-.1.3-.2.2v.2q0 .2.2.1v.3a1.1 1.1 0 0 0 .4.3 2 2 0 0 0 .4.2 3.6 3.6 0 0 0 .6.2 6.5 6.5 0 0 0 .7.2Zm-6.5.3h-.4v.2l.2-.1ZM44.2 6.4h6.5L49 11.6h-1.3l.6.2-.4.3-.3.3-.4.2-.3.3q-.2 0-.3.2h.4l.2-.2.3-.2.2-.2.2-.2h.2l1.2.6-.4.2-.3.2-.3.2-.2.2-.3.2h.2l.1.1v.3l.1.2.1.3q.1.2 0 .2h.1l.3-.1.2-.1.2-.1.2-.2h-.8l.2-1.2h.2l.7-.5.7-.4.6-.4.5-.4h-1.6l1.5-5.2H58L54.4 19a3.4 3.4 0 0 1-.5 1 2.2 2.2 0 0 1-.5.5 2 2 0 0 1-.7.3 2.4 2.4 0 0 1-.6 0h-1.4l-.2-.1.2-1.7H49l-.5 2H47l1.4-4.7v-.2l-.6.2-.4 1.4a5.1 5.1 0 0 1-.3.7 4.2 4.2 0 0 1-.3.6 3.6 3.6 0 0 1-.5.5 3.4 3.4 0 0 1-.5.4 4.6 4.6 0 0 1-.6.4 6 6 0 0 1-.7.3 8.2 8.2 0 0 1-.8.2l-1 .1h-.2l-.2-1.5h1.1l.7-.2a4.4 4.4 0 0 0 .5-.2 2.4 2.4 0 0 0 .4-.2h-2l.7-2.3h-.2v-1.3h.3l.2-.2.3-.1.2-.2.2-.1h-.8l.2-1.2.1-.1.8-.4.6-.4.6-.4.5-.4h-2.3l-2.7 9.2h-1.8ZM50 7h-5.5l-4 13.5h.7l2.8-9.3h4.8Zm7.4 0h-5.6l-1.3 4.2h5l-2.2 7.4a2.8 2.8 0 0 1-.3.6 1.3 1.3 0 0 1-.2.3.8.8 0 0 1-.3.2.6.6 0 0 1-.2 0h-.6l-.3-.1q-.2-.1-.2 0l-.1.7h.3l.3.1h.6a1.8 1.8 0 0 0 .5 0 1.3 1.3 0 0 0 .5-.3 1.6 1.6 0 0 0 .3-.4 3 3 0 0 0 .3-.6Zm-2.6 4.7h-2.1l.6.1-.4.4-.4.2-.3.3-.3.2-.3.2h.4l.3-.2.2-.2.3-.2.2-.2h.2l1.2.6-.4.3-.3.2-.3.2-.3.2-.3.2.3-.1.1.1a4.3 4.3 0 0 1 .2.5 4.6 4.6 0 0 1 0 .4l.2.5v.5Zm-2.6.4h-.4l-.5.3-.6.5-.7.4-.7.4v.4h1.2v.4l-.3.2-.5.3-.4.2-.4.2v.5h.8l.9-.2.8-.1 1-.2h.2v.5h.3V15l-.1-.3-.2-.3h-.3v.2l.2.4h-.4l-.5.1-.5.1h-.5l-.5.1v-.5l.8-.4.8-.4.8-.5.8-.6-.3-.2-.2.2-.3.2-.2.2-.2.1h-.2l-.4.1h-.3l-.4.1h-1.3l1-.5.4-.2.4-.3q.2 0 .4-.3t.5-.3Zm-4.9 0H47l-.5.4-.6.4-.6.4-.7.4-.1.5h.7l.3-.1h.3l1-.2-1 .6-.4.3-.4.2-.4.3-.5.3v.4h.8l.8-.2q.5 0 .9-.2t.8-.2h.3v.5h.4v-.4l-.1-.3v-.4q0-.2-.2-.3l-.3.1v.2l.2.4h-.4l-.5.1-.5.1h-.5l-.5.1V15l.8-.4.8-.5.8-.5.8-.6-.3-.2-.2.2-.2.2-.3.1-.2.2h-.5l-.4.1h-.6v-.4l.3-.2.4-.3.5-.3.4-.3Zm4.8 4V16q0-.1 0 0h-.6l-.5.1-.5.1-.5.1-.4 1.3h1l.5-1.4ZM46 17.4l.4-1.2h-.6l-.3.1h-.3l-.3 1.1Zm6.5 1.8a.5.5 0 0 0 0-.1 1.3 1.3 0 0 0 .1-.2 2.8 2.8 0 0 0 .1-.3l.7-2.4-1 .3-.7 2.6h-.1.9Zm-5.3-2.6h-.4l-.4 1.3h-2.2l.4-1.2H44l-.4 1.7h2.6l-.3.4-.2.1q-.2.1-.1.2l-.2.1-.2.2a3 3 0 0 1-.4.2 4.6 4.6 0 0 1-.6.1l-.6.2H43l.1.6.8-.1.7-.2a5.3 5.3 0 0 0 .6-.3 3.8 3.8 0 0 0 .5-.3 2.7 2.7 0 0 0 .4-.3 2.8 2.8 0 0 0 .4-.4 3.4 3.4 0 0 0 .3-.5 4.6 4.6 0 0 0 .2-.6Zm2.1 0h-.5l-1.1 4h.5l.6-2h2.6l.5-1.9h-.5L51 18h-2Zm-4.2-9.1h4l-.4 1.4h-4Zm3.4.5h-3l-.1.4h3Zm3.9-.5h4.1l-.4 1.4H52Zm3.4.5h-3l-.2.4h3.1Zm16.4 0h1.5l-.5 1.7h-1.5Zm.8.6h-.4l-.2.6h.4Zm-28.4.8h4l-.4 1.3h-4Zm3.3.5h-3l-.1.3h3Zm4-.6h4l-.3 1.4h-4.2Zm3.4.5h-3.1l-.1.3h3.1Zm16.3.6H73l-.5 1.6H71Zm.8.5h-.5l-.1.5h.4Z" fill="#f8b633"/></svg>