<svg xmlns="http://www.w3.org/2000/svg" viewBox="0 0 362 70">
  <defs>
    <clipPath id="a">
      <path fill="none" d="M0 0h118.8v34.6H0z"/>
    </clipPath>
  </defs>
  <g opacity=".5">
    <path fill="#86c9cf" d="m91.6 5 12.6 34.6h18.3L109.9 5Z"/>
    <g clip-path="url(#a)" transform="translate(69.7 5)">
      <path fill="#86c9cf" d="M96.2 34.6s-1.2-5.8 4.3-17A48.6 48.6 0 0 0 105.1 0H87s1.4 4.8-6 20.2c-4.2 8.8-3 14.4-3 14.4Z"/>
      <path fill="#dddddc" d="M100.4 34.6s1.2-5.8-4.3-17A48.6 48.6 0 0 1 91.5 0h18.2s-1.4 4.8 6 20.2c4.2 8.8 3 14.4 3 14.4Z"/>
      <path fill="#ffb900" d="m98.3 22.7 2.2-5A48.6 48.6 0 0 0 105.1 0H91.5A48.6 48.6 0 0 0 96 17.6l2.2 5.1"/>
      <path fill="#86c9cf" d="M43.5 0s1.3 4.4-2.8 12.1c-8.7 16.3-6.2 22.5-6.2 22.5h18.2s-1-8 6-20.3c4.8-8.5 3-14.3 3-14.3Z"/>
      <path fill="#dddddc" d="M40.1 0 27.5 34.6H9.3L21.9 0Z"/>
      <path fill="#ffb900" d="M18.6 0s-1.3 4.4 2.8 12.1c8.6 16.3 6.1 22.5 6.1 22.5H9.3s1-8-6-20.3C-1.5 5.8.3 0 .3 0Z"/>
      <path fill="#e85620" d="M21.4 12.1a29.1 29.1 0 0 1-2.1-4.9l-10 27.4h18.2c.2-.6 2.1-6.9-6.1-22.5"/>
      <path fill="#dddddc" d="M75.3 0H57.5v34.6h17.8a17.2 17.2 0 0 0 17.1-17.3A17.2 17.2 0 0 0 75.4 0"/>
    </g>
  </g>
  <path fill="#86c9cf" d="M348 69.4h-1.4l-1.4-3.9a10.5 10.5 0 0 0 13.1-10.1V55l2.3 6.3a14 14 0 0 1-12.6 8Zm-8.8-20-1.3-3.6a14 14 0 0 1 15.8-3.1l2.3 6.1a10.5 10.5 0 0 0-16.8.6Z"/>
  <path fill="#86c9cf" d="M348 69.4h-.7a20.8 20.8 0 0 1 .4-3.5h.1a10.5 10.5 0 0 0 7.2-18.1 22.8 22.8 0 0 0 1-3.8 14 14 0 0 1 5.4 15.6 14 14 0 0 1-13.4 9.8Z"/>
  <path fill="#59b5ad" d="M348 69.4h-.7a20.9 20.9 0 0 1 .4-3.5h.1a10.5 10.5 0 0 0 10.5-10.5V55l2.3 6.3a14 14 0 0 1-12.6 8Zm8-20.6a10.6 10.6 0 0 0-1-1l.3-.9.7 1.9Z"/>
  <path fill="#dddddc" d="M342.5 68.2a14 14 0 0 1 9.7-26.1l-1.2 3.3a10.5 10.5 0 0 0-7.3 19.6l-1.2 3.2Z"/>
  <path fill="#e85620" d="M341.3 67.6a14 14 0 0 1-6.3-17 5.7 5.7 0 0 0 .4.8 83 83 0 0 1 2 4 10.4 10.4 0 0 0 2.8 7.1 30.2 30.2 0 0 1 1 5.1Z"/>
  <path fill="#2dbecd" d="m252 25.8-.4-1.1a.1.1 0 0 1 0-.1 6.6 6.6 0 0 0 3.4-1.8 3.8 3.8 0 0 0 .7-1.1h-3.2a.1.1 0 0 1-.2-.1v-1h-1.2a.1.1 0 0 1-.1 0v-2.7a.1.1 0 0 1 0-.1h1l-.7-.7a.1.1 0 0 1 0-.2 4.6 4.6 0 0 0 2-1.5 5.5 5.5 0 0 0 .5-3.1.1.1 0 0 1 .2-.1h1a.1.1 0 0 1 .2.1 15 15 0 0 1-.1 1.6 6.9 6.9 0 0 0 1.4-.9.1.1 0 0 1 .2 0l.7 1a11.3 11.3 0 0 1-2 1.2 14.6 14.6 0 0 1 1.9 1.5.1.1 0 0 1 0 .2l-.7.9h1.6l-.7-.8a.1.1 0 0 1 0-.1 4.5 4.5 0 0 0 2-1.5 5.4 5.4 0 0 0 .5-3.1.1.1 0 0 1 .2-.1h1a.1.1 0 0 1 .2.1 14.7 14.7 0 0 1 0 1.6 6.3 6.3 0 0 0 1.4-1 .1.1 0 0 1 .1 0l.8.9a.1.1 0 0 1 0 .2 11.3 11.3 0 0 1-2.2 1.3 14.4 14.4 0 0 1 2 1.5.1.1 0 0 1 0 .1l-.6.9h1a.1.1 0 0 1 .2 0v2.9a.1.1 0 0 1-.2 0h-1.2a.1.1 0 0 1-.1 0V19h-6l1 .2a.1.1 0 0 1 .2.1l-.2 1h4.8a.1.1 0 0 1 .1.1c0 2.4-.3 4-.7 4.5a1.8 1.8 0 0 1-1.4.7h-.2a18.5 18.5 0 0 1-2.2-.2.1.1 0 0 1-.1-.1l-.3-1.2a.1.1 0 0 1 0-.1.1.1 0 0 1 .1 0 21.8 21.8 0 0 0 2.6.1.4.4 0 0 0 .3-.2 9.6 9.6 0 0 0 .3-2.3h-3.6a6.5 6.5 0 0 1-1.2 2.1 7.6 7.6 0 0 1-3.9 2.1.1.1 0 0 1-.1 0Zm-.3-1.2.5 1.2a7.5 7.5 0 0 0 3.8-2 6.4 6.4 0 0 0 1.2-2.2h3.8v.2-.2h-3.8a6.4 6.4 0 0 1-1.2 2.1 7.5 7.5 0 0 1-3.8 2l-.5-1Zm8.6 1Zm-2.3-.2a18.4 18.4 0 0 0 2.2.1h.1a18.4 18.4 0 0 1-2.3-.1l-.3-1.2Zm3.7-.5a1.7 1.7 0 0 1-1.3.7 1.7 1.7 0 0 0 1.3-.7q.6-.8.7-4.4-.1 3.6-.7 4.4Zm-9.2-3.3Zm10.2-1h1.2Zm-5.2 0Zm-6.4 0h1.2V19v1.5Zm1.3-.2h3.7a9.5 9.5 0 0 0 .2-1.2h-3.9Zm-1-3.4.7.8a5.6 5.6 0 0 0 2.2-1.8 15.3 15.3 0 0 1 2.1 1.7l.8-1-.8 1a15.3 15.3 0 0 0-2-1.7 5.6 5.6 0 0 1-2.3 1.8l-.7-.8Zm11.3.8.8-1-.8 1a15.3 15.3 0 0 0-2.2-1.8 5.5 5.5 0 0 1-2.2 1.7l-.7-.8.7.8a5.5 5.5 0 0 0 2.2-1.7 15.3 15.3 0 0 1 2.2 1.8Zm-4.1 0h3.9a15 15 0 0 0-2-1.6 5.7 5.7 0 0 1-2 1.6Zm-6.1 0h3.8a15.2 15.2 0 0 0-2-1.6 5.7 5.7 0 0 1-1.8 1.6Zm8.7-2.6.4-.1-.4.1Zm-6.1 0a11 11 0 0 0 2.2-1.2 11 11 0 0 1-2.2 1.2Zm-.1-1a14.9 14.9 0 0 0 0-1.8 14.9 14.9 0 0 1 0 1.8Zm6.2 0a14.8 14.8 0 0 0 0-1.8 14.8 14.8 0 0 1 0 1.7Zm-59.5 11.6-.5-1.1a.1.1 0 0 1 0-.1 6.6 6.6 0 0 0 3.4-1.8 3.8 3.8 0 0 0 .7-1.1h-3.2a.1.1 0 0 1-.1-.1v-1h-1.3a.1.1 0 0 1-.1 0v-2.7a.1.1 0 0 1 0-.1.1.1 0 0 1 .1 0h.9l-.7-.7a.1.1 0 0 1 0-.1.1.1 0 0 1 0-.1 4.6 4.6 0 0 0 2-1.5 5.5 5.5 0 0 0 .6-3.1.1.1 0 0 1 0-.1h1.2a.1.1 0 0 1 .1.1 15.7 15.7 0 0 1 0 1.6 7 7 0 0 0 1.3-.9.1.1 0 0 1 .1 0l.8 1a11.3 11.3 0 0 1-2 1.2 14.4 14.4 0 0 1 2 1.5.1.1 0 0 1 0 .2l-.8.9h1.6l-.7-.8a.1.1 0 0 1 0-.1 4.5 4.5 0 0 0 2-1.5 5.4 5.4 0 0 0 .6-3 .1.1 0 0 1 .1-.2h1a.1.1 0 0 1 .2.1 14.4 14.4 0 0 1 0 1.6 6.4 6.4 0 0 0 1.4-1 .1.1 0 0 1 .1 0 .1.1 0 0 1 .1 0l.7.9a.1.1 0 0 1 0 .2 11.3 11.3 0 0 1-2.2 1.3 14.5 14.5 0 0 1 2 1.5.1.1 0 0 1 0 .1l-.6.9h1a.1.1 0 0 1 .2 0v2.9a.1.1 0 0 1-.1 0h-1.3V19h-6l1 .2a.1.1 0 0 1 0 .1v1h4.7a.1.1 0 0 1 .1.2c0 2.4-.3 3.8-.7 4.4a1.8 1.8 0 0 1-1.4.7h-.1a18.5 18.5 0 0 1-2.3-.2.1.1 0 0 1 0-.1l-.4-1.2a.1.1 0 0 1 0-.1.1.1 0 0 1 .1 0 21.7 21.7 0 0 0 2.6.1.4.4 0 0 0 .3-.2 9.5 9.5 0 0 0 .3-2.3h-3.6a6.5 6.5 0 0 1-1.2 2.1 7.6 7.6 0 0 1-3.9 2.1.1.1 0 0 1-.1 0Zm-.4-1.2.5 1.2a7.5 7.5 0 0 0 3.8-2 6.5 6.5 0 0 0 1.2-2.2h3.8v.2-.2h-3.8a6.5 6.5 0 0 1-1.2 2.1 7.5 7.5 0 0 1-3.8 2l-.5-1Zm8.7 1Zm-2.4-.2a18.4 18.4 0 0 0 2.3.2 18.4 18.4 0 0 1-2.3-.2l-.3-1.2Zm3.7-.5a1.7 1.7 0 0 1-1.3.7 1.7 1.7 0 0 0 1.3-.7q.6-.8.7-4.4 0 3.6-.7 4.4Zm-9.2-3.3Zm10.2-1h1.3Zm-5.2 0Zm-6.4 0h1.2V19v1.5Zm1.4-.2h3.6a10 10 0 0 0 .2-1.2h-3.8Zm10.2-2.6.8-1-.8 1a15.2 15.2 0 0 0-2.2-1.8 5.5 5.5 0 0 1-2.1 1.7l-.8-.8.8.8a5.5 5.5 0 0 0 2-1.7 15.2 15.2 0 0 1 2.2 1.8ZM201 17l.7.8A5.5 5.5 0 0 0 204 16a15.2 15.2 0 0 1 2 1.7l.8-1-.7 1A15.2 15.2 0 0 0 204 16a5.5 5.5 0 0 1-2.3 1.8l-.7-.8Zm7.2.8h4a15.1 15.1 0 0 0-2-1.6 5.7 5.7 0 0 1-2 1.6Zm-6.1 0h3.8a15.2 15.2 0 0 0-2-1.6 5.7 5.7 0 0 1-1.8 1.6Zm8.8-2.6a11.2 11.2 0 0 0 2.3-1.3 11.2 11.2 0 0 1-2.4 1.3Zm-6.2 0A11 11 0 0 0 207 14a11 11 0 0 1-2.2 1.2Zm-.1-1a15 15 0 0 0 0-1.8 15 15 0 0 1 0 1.8Zm6.2 0a14.5 14.5 0 0 0 .1-1.8 14.5 14.5 0 0 1-.1 1.7Zm64.4 11.6-.8-.8a.1.1 0 0 1 0-.2l.1-.1-6.7.6a.1.1 0 0 1 0-.1l-.3-1.2a.1.1 0 0 1 .1-.1l3.2-.1V23H268a.1.1 0 0 1-.2-.1v-1a.1.1 0 0 1 .2 0h2.7v-.8H268a.1.1 0 0 1-.2 0v-4.6a.1.1 0 0 1 .2-.1h2.7v-.6h-3.2a.1.1 0 0 1-.1-.1v-1a.1.1 0 0 1 0-.1h3.3V14l-2.5.1-.5-1a.1.1 0 0 1 0-.1l6.4-.5a.1.1 0 0 1 .2 0l.6 1a.1.1 0 0 1 0 .1l-3 .3v.7h3.1a.1.1 0 0 1 .1.2v.3a.1.1 0 0 1 .1 0h1.3v-2.7a.1.1 0 0 1 .1-.2h1.2a.1.1 0 0 1 .1.2V15h2.6a.1.1 0 0 1 .2.1 74.5 74.5 0 0 1-.5 9 2 2 0 0 1-.5 1.2 1.7 1.7 0 0 1-1.2.4 7.5 7.5 0 0 1-1.5-.2.1.1 0 0 1 0-.1l-.2-1.3a.1.1 0 0 1 .2-.1 7.1 7.1 0 0 0 1.5.2.2.2 0 0 0 .3-.2 2.8 2.8 0 0 0 .2-1l.2-6.6H278a23.2 23.2 0 0 1-.8 6 8.5 8.5 0 0 1-1.8 3.3h-.1Zm-.7-.9.8.8a8.4 8.4 0 0 0 1.8-3.3 23 23 0 0 0 .8-5.9 23 23 0 0 1-.8 6 8.4 8.4 0 0 1-1.8 3.2l-.8-.8Zm2.7.6a7.4 7.4 0 0 0 1.4.2 7.4 7.4 0 0 1-1.4-.2l-.2-1.3Zm3-1.3a1.8 1.8 0 0 1-.5 1 1.6 1.6 0 0 1-1 .5 1.6 1.6 0 0 0 1-.4 1.8 1.8 0 0 0 .5-1.1 74.3 74.3 0 0 0 .5-7.8 74.3 74.3 0 0 1-.5 7.8Zm-12.6-.2.2 1.1q3.9-.2 7-.6-3.1.4-7 .6l-.2-1.1Zm7.4-.4v.3a9.1 9.1 0 0 0 1-2.2 22 22 0 0 0 .6-5.2h-1.3a.1.1 0 0 1-.1-.2V16H272v.6h2.7a.1.1 0 0 1 .1 0v4.6a.1.1 0 0 1-.1.1H272v.7h2.6a.1.1 0 0 1 .2.1v1a.1.1 0 0 1-.2 0H272v.7l2.8-.2a.1.1 0 0 1 .1.1Zm-3 .2V23h2.7-2.7Zm-4-.9Zm4-.9v-.9h2.8-2.8Zm-4-.9Zm4-1v-.8Zm-2.8 0v-.8Zm2.9 0h1.5v-.7H272Zm-2.8 0h1.5v-.7h-1.5Zm-.1-1.7v-.8Zm2.8 0v-.8Zm-2.7-.1h1.5v-.6h-1.5Zm2.8 0h1.5v-.6H272Zm-.1-1.7v-.8h3.1-3.1Zm3.3-.3h1.4v.2-.2Zm4.2 0Zm-11.9-.5Zm10.3-.5Zm-6-1.5 3-.3-3 .3Zm-4-.7.4.9q1.4 0 2.6-.2l-2.6.2-.4-.9Zm7 .4-.6-.9Zm-.6-.9Zm47.4 13.2-.5-1a.1.1 0 0 1 0-.2.3.3 0 0 0 .2-.3v-3h-1l-.2 1.2a16 16 0 0 1-1 3.1.1.1 0 0 1 0 .1.1.1 0 0 1-.2 0l-1.1-.6a.1.1 0 0 1 0-.2 20.4 20.4 0 0 0 .9-3.2 24 24 0 0 0 .2-3.4v-5.5a.1.1 0 0 1 .2-.2H330a.1.1 0 0 1 .2.2V16a.1.1 0 0 1-.2.2h-9.5v1.2h2.3v-1a.1.1 0 0 1 .1-.2h1.2a.1.1 0 0 1 0 .1v1h2.4v-1a.1.1 0 0 1 .1 0h1.2a.1.1 0 0 1 .1 0v1h2.4a.1.1 0 0 1 0 .2v1a.1.1 0 0 1 0 .2h-2.4V20h3a.1.1 0 0 1 .1.1v1.1a.1.1 0 0 1-.1.2h-8v2.8a28 28 0 0 0 2.4-.7.1.1 0 0 1 .1 0l.3 1.1a.1.1 0 0 1-.1.1 23 23 0 0 1-3.8 1.1.1.1 0 0 1-.1 0Zm-.4-1.1.5 1a22.8 22.8 0 0 0 3.8-1 22.8 22.8 0 0 1-3.8 1l-.5-1Zm-3.4.3 1.2.6a16 16 0 0 0 1-3l.1-1.4c0 .5 0 1-.2 1.3a16 16 0 0 1-.9 3.1l-1.2-.6Zm4.8-.6v-3.2h8.2-8.2ZM324 20v-1.5Zm-3.7 0h2.6-2.6Zm7.5 0v-1.5h2.5-2.5Zm-7.4-1.5V20v-1.5Zm3.8 1.4h2.3v-1.3h-2.3Zm-3.8 0h2.4v-1.3h-2.3V20Zm7.4-2.5Zm-3.8 0Zm6-1.5h-9.6 9.6Zm-9.6-1v-1.1Zm0-.2h8.4V14h-8.3Zm-95.6 11-.8-.8a.1.1 0 0 1 0-.2l.1-.1-6.6.6a.1.1 0 0 1-.2-.1l-.2-1.2a.1.1 0 0 1 .2-.1l3-.1V23h-2.6a.1.1 0 0 1-.1-.1v-1h2.8v-.8h-2.7a.1.1 0 0 1-.1 0v-4.6a.1.1 0 0 1 0-.1h2.8v-.6h-3.2a.1.1 0 0 1-.1-.1v-1a.1.1 0 0 1 .1-.1h3.2V14l-2.4.1a.1.1 0 0 1-.2 0l-.4-1a.1.1 0 0 1 .1-.1l6.4-.5a.1.1 0 0 1 .1 0l.7 1a.1.1 0 0 1-.1.1l-2.9.3v.7h3a.1.1 0 0 1 .2.2v.3h1.3v-2.7a.1.1 0 0 1 .2-.2h1.1a.1.1 0 0 1 .1.2V15h2.7a.1.1 0 0 1 0 .1 74.5 74.5 0 0 1-.3 9 2 2 0 0 1-.6 1.2 1.7 1.7 0 0 1-1.2.4 7.7 7.7 0 0 1-1.5-.2.1.1 0 0 1 0-.1l-.2-1.3a.1.1 0 0 1 .2-.1 7.2 7.2 0 0 0 1.5.2.2.2 0 0 0 .3-.2 2.9 2.9 0 0 0 .2-1l.2-6.6h-1.3a23.2 23.2 0 0 1-.8 6 8.5 8.5 0 0 1-1.8 3.3.1.1 0 0 1-.2 0Zm-.7-.9.8.8a8.4 8.4 0 0 0 1.8-3.3 23 23 0 0 0 .8-5.9 23 23 0 0 1-.8 6 8.4 8.4 0 0 1-1.8 3.2l-.8-.8Zm2.7.6a7.4 7.4 0 0 0 1.5.2 7.4 7.4 0 0 1-1.5-.2l-.1-1.3Zm1.6.2a1.6 1.6 0 0 0 .9-.4 1.6 1.6 0 0 1-.9.4Zm1.4-1.5a1.8 1.8 0 0 1-.5 1 1.8 1.8 0 0 0 .5-1 74 74 0 0 0 .5-7.8 74 74 0 0 1-.4 7.8Zm-12.5-.2.2 1.1q3.8-.2 7-.6-3.2.4-7 .6l-.2-1.1Zm7.4-.4v.3a9.1 9.1 0 0 0 1-2.2 22 22 0 0 0 .5-5.2H225a.1.1 0 0 1-.1-.2V16h-3.1v.6h2.7a.1.1 0 0 1 .1 0v4.6a.1.1 0 0 1 0 .1h-2.8v.7h2.7a.1.1 0 0 1 0 .1v1h-2.7v.7l2.8-.2a.1.1 0 0 1 .2.1Zm-3.1.2V23h2.8-2.8Zm-4-.9Zm4-.9V21h2.8-2.8Zm-4-.9Zm4-1v-.8Zm-2.8 0v-.8Zm3 0h1.4v-.7h-1.5Zm-2.9 0h1.5v-.7h-1.5Zm-.1-1.7v-.8Zm2.8 0v-.8Zm-2.7-.1h1.5v-.6h-1.5Zm2.8 0h1.5v-.6h-1.5Zm-.1-1.7v-.8h3.1-3.1Zm3.3-.2h1.5v.1-.1Zm4.2 0Zm-11.9-.6Zm10.3-.5Zm-6-1.5 3-.3-3 .3Zm-4-.7.5.9 2.5-.1-2.5.1-.5-.9Zm7 .4-.6-.9Zm-7-.4 2.5-.1-2.5.1Zm6.4-.5Zm0 0Zm88.9 13.2-2-1.4-.7.4a8.7 8.7 0 0 1-3 1 .1.1 0 0 1-.2-.2l-.3-1a.1.1 0 0 1 0-.2.1.1 0 0 1 .1 0 6.9 6.9 0 0 0 2.5-.7h.1c-.7-.5-1.4-.9-2.2-1.2a.1.1 0 0 1 0-.2l.5-.5h-.4a.1.1 0 0 1-.1-.1v-1a.1.1 0 0 1 0-.2l-.5-1v.6a.1.1 0 0 1 0 .1h-2.9l-.2.9h3.2a.1.1 0 0 1 .1.1c-.2 2.1-.6 3.4-1 3.9a1.9 1.9 0 0 1-1.4.5h-1.5a.1.1 0 0 1-.1 0l-.1-1.2a.1.1 0 0 1 0-.1 13.9 13.9 0 0 0 1.6 0 .5.5 0 0 0 .5-.2 4.5 4.5 0 0 0 .5-1.8h-3.4a.1.1 0 0 1-.1 0 .1.1 0 0 1 0-.1l.8-3.2a.1.1 0 0 1 .1 0h2.5v-1h-2a9.8 9.8 0 0 1-1.6.4.1.1 0 0 1-.1 0l-.6-1.1a.1.1 0 0 1 0-.1.1.1 0 0 1 0-.1 8.6 8.6 0 0 0 2.3-.8A11.4 11.4 0 0 0 302 15a.1.1 0 0 1 0-.1.1.1 0 0 1 0-.1l.7-.8a.1.1 0 0 1 .2 0 10.4 10.4 0 0 1 1.7 1.4 5.8 5.8 0 0 0 1.2-1.6h-3.5a.1.1 0 0 1-.1 0v-1.2a.1.1 0 0 1 .1-.1h5.1a.1.1 0 0 1 .1.1v.8a7.6 7.6 0 0 1-2.2 3.1h1.3a.1.1 0 0 1 .1.2v2.5a.1.1 0 0 1 .1 0 2 2 0 0 0 1-.6 4.3 4.3 0 0 0 .2-2 .1.1 0 0 1 0-.2.1.1 0 0 1 .2 0h2.6a8.4 8.4 0 0 1-.7-.6 7.5 7.5 0 0 1-2.2-3.3.1.1 0 0 1 0-.1l1.1-.3a.1.1 0 0 1 .2 0 4.7 4.7 0 0 0 .6 1.4 7.8 7.8 0 0 0 1.7-1.4.1.1 0 0 1 .1 0 .1.1 0 0 1 .1 0l.7.9a.1.1 0 0 1 0 .2 10.6 10.6 0 0 1-1.7 1.3 9.4 9.4 0 0 0 .5.4 7.7 7.7 0 0 0 1.9-1.6.1.1 0 0 1 .2 0l.7.9a.1.1 0 0 1 0 .2 11.2 11.2 0 0 1-1.5 1.3 12.6 12.6 0 0 0 2.2 1 .1.1 0 0 1 .1 0 .1.1 0 0 1 0 .1l-.9 1a.1.1 0 0 1-.1 0 10.7 10.7 0 0 1-1.8-.7v1.2c0 .3.2.3.3.3h1.5a.1.1 0 0 1 .1.1v1a.1.1 0 0 1 0 .2H312c-1.1 0-1.4-.7-1.4-1.2v-1h-1.3a3.4 3.4 0 0 1-.5 1.8 2.7 2.7 0 0 1-1.2.9h5.4a.1.1 0 0 1 .1.1v.8a5.6 5.6 0 0 1-1 1.8l-.1.2 1.8 1.2a.1.1 0 0 1 0 .2l-.8 1a.1.1 0 0 1-.1 0Zm0-.1.9-1-.9 1-2-1.4-.8.4a8.6 8.6 0 0 1-3 .9l-.3-1 .3 1a8.6 8.6 0 0 0 3-1l.7-.3q1.1.6 2.1 1.4Zm-8.4-.2Zm0 0a1.8 1.8 0 0 0 1-.3 1.8 1.8 0 0 1-1 .3Zm-1.5 0h1.4-1.4l-.1-1.2Zm2.8-.5h-.1.1q.6-.7 1-3.8-.4 3.1-1 3.8Zm-1.4-.5Zm.3-.1a.7.7 0 0 0 .2-.1.7.7 0 0 1-.2 0Zm2.6-2 2.4 1.2-2.4-1.2Zm5.7-1a5.5 5.5 0 0 1-1 1.8 3 3 0 0 1-.2.3 3 3 0 0 0 .2-.3 5.5 5.5 0 0 0 1-1.8Zm-2.3 1.5-2.6-1.2q1.4.5 2.6 1.2Zm0-.2.1-.1a4.1 4.1 0 0 0 .6-.8h-2.7l2 1Zm-8.7-.5Zm5.3-.5Zm-3.9-.5.3-1.1h3-3Zm3.4-1.8.6 1a2.5 2.5 0 0 0 1.3-1 3.2 3.2 0 0 0 .5-1.7h1.6v1.1q0 1 1.2 1h1.8-1.8q-1.2 0-1.2-1v-1H309a3.2 3.2 0 0 1-.5 1.7 2.5 2.5 0 0 1-1.3 1l-.6-1Zm5.1-1V17a10.7 10.7 0 0 0 2 .8l.8-1-.9 1a10.7 10.7 0 0 1-1.9-.8ZM301 17.2l.6 1.1a9.4 9.4 0 0 0 1.6-.6 9.4 9.4 0 0 1-1.6.6l-.6-1Zm2.2.6Zm4.9-.8Zm-.8-3.5a7.5 7.5 0 0 1-2.1 3l-.4.3.4-.3a7.5 7.5 0 0 0 2.1-3Zm3.8 3.1a8 8 0 0 1-1-.8 7.4 7.4 0 0 1-2.2-3.2 7.4 7.4 0 0 0 2.2 3.2 8 8 0 0 0 1 .8ZM302 15a11.5 11.5 0 0 1 1.4 1.3A11.5 11.5 0 0 0 302 15Zm10.1.9a11.1 11.1 0 0 0 1.7-1.5 11.1 11.1 0 0 1-1.7 1.4Zm-1-.7a7.9 7.9 0 0 0 1.7-1.4 7.9 7.9 0 0 1-1.7 1.4 1.6 1.6 0 0 0-.1-.1 1.4 1.4 0 0 1 .1.1Zm-.7-.6a10.4 10.4 0 0 0 1.9-1.4 10.4 10.4 0 0 1-1.9 1.4Zm-8.2-.8Zm-16.7 12-.7-1.2a.1.1 0 0 1 0-.1 10.4 10.4 0 0 0 3.7-3.4 10.3 10.3 0 0 0 1.2-4.4h-4.4a.1.1 0 0 1-.1 0v-1.3a.1.1 0 0 1 0-.1.1.1 0 0 1 .1 0h4.5v-2.6a.1.1 0 0 1 .2-.2h1.3a.1.1 0 0 1 0 .2v2.5h5.3a.1.1 0 0 1 .2.2 54.7 54.7 0 0 1-.4 8 2.7 2.7 0 0 1-.8 1.7 3 3 0 0 1-1.6.4 19.8 19.8 0 0 1-2.5-.2.1.1 0 0 1-.1 0l-.3-1.4a.1.1 0 0 1 0-.2.1.1 0 0 1 .1 0 18.8 18.8 0 0 0 2.8.2.8.8 0 0 0 .7-.2 3.2 3.2 0 0 0 .2-1.2c.2-1.3.2-3.2.2-5.8h-3.9a11.6 11.6 0 0 1-1.4 5.3 11.7 11.7 0 0 1-4.1 3.8.1.1 0 0 1-.2 0Zm-.6-1.2.7 1a11.5 11.5 0 0 0 4.1-3.6q1-1.5 1.4-5.4-.3 3.9-1.4 5.4a11.5 11.5 0 0 1-4 3.7l-.8-1.1Zm9.2.8Zm0 0a2.8 2.8 0 0 0 1.3-.3 2.8 2.8 0 0 1-1.2.3Zm-2.6-.2a19.3 19.3 0 0 0 2.5.2 19.3 19.3 0 0 1-2.5-.2l-.3-1.4Zm4.8-1.8a2.5 2.5 0 0 1-.8 1.6 2.5 2.5 0 0 0 .8-1.6 54.1 54.1 0 0 0 .3-8 54.1 54.1 0 0 1-.3 8Zm-2.2.7Zm0 0h-.1Zm.6-.2Zm-9.4-7.3v-1.2Zm5.9-1.2v-2.7 2.6Zm54.1 10.3a.1.1 0 0 1-.1 0V25h-7v.5a.1.1 0 0 1 0 .1h-1.3v-4.3l-1.8.4a.1.1 0 0 1-.2-.1l-.4-1a.1.1 0 0 1 0-.2c1.4-.2 2.8-.5 4-.9h-3.8v-1a.1.1 0 0 1 0-.1h5.3V18h-4.3a.1.1 0 0 1-.2-.2V17a.1.1 0 0 1 .2 0h4.3v-.7a.1.1 0 0 1 .2-.1h1.2a.1.1 0 0 1 .1.1v.6h3a.1.1 0 0 1 .1.1v.6l2.2-1a.1.1 0 0 1 .2 0l.7.7a.1.1 0 0 1 0 .2l-2.1 1h2.4a.1.1 0 0 1 .1.2v1a.1.1 0 0 1-.1 0h-5.3l-.7.3-1.3.4h5.8a.1.1 0 0 1 .2.1v5.2a.1.1 0 0 1-.2.1Zm0 0h1.2Zm-8.4 0h1.2V25v.6Zm1.2-1.6v-.9Zm.2-.1h6.9v-.7h-7Zm-.2-1.7v-1Zm.2-.1h6.9v-.7h-7Zm-3.7-1.5.4 1 2-.5-2 .4-.4-1Zm7.4-1-2.2.7 2.2-.6.7-.3h5.3-5.3l-.7.3Zm-7.3-.2Zm10.3-1a26 26 0 0 0 2.6-1.2 26 26 0 0 1-2.6 1.3Zm-3.6 0v-.7Zm0 0h.8l1.4-.5h-2.1Zm-5.7-.7V17Zm8.8 0Zm-3.1-.9ZM242 25.7a.1.1 0 0 1-.1 0V13a.1.1 0 0 1 0-.1h5.4a.1.1 0 0 1 .1 0 .1.1 0 0 1 0 .2l-1.8 4.9a7.1 7.1 0 0 1 1.2 1.6 4.3 4.3 0 0 1 .6 2c0 1.6-.8 2.4-2.3 2.4a8.8 8.8 0 0 1-1.2-.1.1.1 0 0 1 0-.1l-.4-1.4a.1.1 0 0 1 0-.1.1.1 0 0 1 .2 0 4.8 4.8 0 0 0 1.5.3c.6 0 .7-.6.7-1a3.1 3.1 0 0 0-.4-1.5 5.2 5.2 0 0 0-1.4-1.7.1.1 0 0 1 0-.1l1.3-4h-2v11.3a.1.1 0 0 1-.2.1Zm0 0h1.2V14.1v11.4Zm2-2a9 9 0 0 0 1.2.2q2 0 2-2.3 0 2.3-2 2.3a9 9 0 0 1-1.3-.1l-.2-1.4Zm.2-5.4a5.4 5.4 0 0 1 1.4 1.8 3.3 3.3 0 0 1 .4 1.5 3.3 3.3 0 0 0-.4-1.5 5.4 5.4 0 0 0-1.4-1.8Zm1.2-.3 1.9-5Zm85.2 7.7a13 13 0 0 1-2.5-.7 5.8 5.8 0 0 1-1.8-1.1 5.6 5.6 0 0 1-1.4-2 .1.1 0 0 1 0-.1l1.1-.4a.1.1 0 0 1 .2 0 4.7 4.7 0 0 0 .8 1.2 8 8 0 0 0 1.7-1.2.1.1 0 0 1 .2 0l.8 1a.1.1 0 0 1 0 .1 10.5 10.5 0 0 1-1.5 1 5.3 5.3 0 0 0 .7.3 9.7 9.7 0 0 0 2.2.5.1.1 0 0 1 .1.1.1.1 0 0 1 0 .1l-.5 1.2a.1.1 0 0 1-.1 0ZM325 22a5.5 5.5 0 0 0 1.3 1.9 5.8 5.8 0 0 0 1.8 1 13 13 0 0 0 2.5.8l.5-1.1-.5 1.1a13 13 0 0 1-2.5-.7 5.8 5.8 0 0 1-1.8-1.1 5.5 5.5 0 0 1-1.3-2Zm2.9 1.6a10.3 10.3 0 0 0 1.7-1.1 10.3 10.3 0 0 1-1.7 1Zm-93.2 2.1a.1.1 0 0 1 0-.1V20a.1.1 0 0 1 0-.1h5.8a.1.1 0 0 1 .1 0v5.5a.1.1 0 0 1-.1.1h-1.1a.1.1 0 0 1-.2-.1v-.7H236v.8a.1.1 0 0 1-.1.1Zm0-.1h1.2v-1 1Zm4.7-.1h1.1Zm-3.5-2V21Zm.1 0h3.2v-2.2H236Zm-2-4.4a.1.1 0 0 1-.2-.2v-1.1a.1.1 0 0 1 .1-.1h1.8a14.6 14.6 0 0 0-.8-2.2.1.1 0 0 1 0-.2l.3-.1h-1a.1.1 0 0 1-.2-.1V14a.1.1 0 0 1 .2-.1h2.6a5.4 5.4 0 0 0-.4-1 .1.1 0 0 1 0-.1l1.2-.4a.1.1 0 0 1 .2 0 7 7 0 0 1 .6 1.5h2.8a.1.1 0 0 1 .1 0V15a.1.1 0 0 1-.1 0h-.9l.4.2a.1.1 0 0 1 0 .2 14.5 14.5 0 0 1-.5 1.5l-.3.7h1.5v1.2a.1.1 0 0 1 0 .2Zm0-.2h7.4Zm1.8-1.1a14.8 14.8 0 0 0-.8-2.4 14.8 14.8 0 0 1 .9 2.4Zm4.3-.8-.4.8.4-.8a14.2 14.2 0 0 0 .5-1.6 14.2 14.2 0 0 1-.5 1.6Zm-3 .7h1.3a10.4 10.4 0 0 0 .4-1 11.9 11.9 0 0 0 .4-1.5h-3a18.9 18.9 0 0 1 1 2.4Zm-3-2.6Zm5.3 0Zm1.8 0ZM237 14a5.6 5.6 0 0 0-.5-1.2 5.6 5.6 0 0 1 .5 1.2Zm98.5 2.2a.1.1 0 0 1-.1 0 .1.1 0 0 1 0-.1V13a.1.1 0 0 1 0-.2h11.8a.1.1 0 0 1 .2.2v3a.1.1 0 0 1-.2.2Zm0-.1h11.7Zm8.2-1v-1.2Zm-3.5 0v-1.2Zm-3.6 0v-1.2Zm7.2 0h2.1V14h-2.1Zm-3.5 0h2.1V14h-2Zm-3.5 0h2.2V14h-2.2Zm-84.6.6a8.3 8.3 0 0 0-1.1-1.8.1.1 0 0 1 0-.1.1.1 0 0 1 0-.1l.9-.6a.1.1 0 0 1 .1 0 8.7 8.7 0 0 1 1.2 2 .1.1 0 0 1-.1 0l-.9.6a.1.1 0 0 1-.1 0Zm-1-1.9a8.4 8.4 0 0 1 1 1.8l1-.5-1 .5a8.4 8.4 0 0 0-1-1.8Zm-49.4 1.9a8.4 8.4 0 0 0-1-1.8.1.1 0 0 1-.1-.1.1.1 0 0 1 0-.1l.9-.6a.1.1 0 0 1 .2 0 8.7 8.7 0 0 1 1 2l-.9.6Zm-1-1.9a8.4 8.4 0 0 1 1 1.8l1-.5-1 .5a8.4 8.4 0 0 0-1-1.8Zm57.5 1.8a8.3 8.3 0 0 0-1-1.8.1.1 0 0 1 0-.2l.8-.5a.1.1 0 0 1 .1 0 .1.1 0 0 1 .1 0 9.3 9.3 0 0 1 1.1 1.9.1.1 0 0 1 0 .1l-1 .5Zm-1-1.9a8.5 8.5 0 0 1 1 1.8l1-.5-1 .5a8.5 8.5 0 0 0-1-1.8Zm-49.3 2a.1.1 0 0 1-.1-.1 8.3 8.3 0 0 0-1-1.8.1.1 0 0 1 0-.2l.9-.5a.1.1 0 0 1 .1 0A9.3 9.3 0 0 1 209 15a.1.1 0 0 1 0 .1l-1 .5Zm-1-2a8.5 8.5 0 0 1 1 1.8l1-.5-1 .5a8.5 8.5 0 0 0-1-1.8Zm16.9-1Zm50.4 0Z"/>
  <path fill="#fff" d="M252.2 25.9a7.6 7.6 0 0 0 3.9-2 6.5 6.5 0 0 0 1.2-2.2h3.6a9.6 9.6 0 0 1-.3 2.3.4.4 0 0 1-.4.2 21.8 21.8 0 0 1-2.5-.2.1.1 0 0 0-.1 0 .1.1 0 0 0 0 .2l.3 1.2a18.5 18.5 0 0 0 2.3.3h.1a1.8 1.8 0 0 0 1.4-.7c.5-.6.7-2 .8-4.5a.1.1 0 0 0-.1 0h-4.8l.2-1.1a.1.1 0 0 0-.2-.1l-1-.2h6v1.6a.1.1 0 0 0 .1 0h1.2a.1.1 0 0 0 .1 0v-2.8a.1.1 0 0 0 0-.1h-1.1l.7-.9a.1.1 0 0 0 0-.1 14.4 14.4 0 0 0-2.1-1.6 11.3 11.3 0 0 0 2.1-1.2.1.1 0 0 0 .1-.1.1.1 0 0 0 0-.1l-.7-.9a.1.1 0 0 0-.1 0 .1.1 0 0 0-.1 0 6.3 6.3 0 0 1-1.5 1 14.7 14.7 0 0 0 0-1.6.1.1 0 0 0 0-.1h-1.1a.1.1 0 0 0-.2.1 5.4 5.4 0 0 1-.6 3 4.5 4.5 0 0 1-1.9 1.5.1.1 0 0 0 0 .2l.7.8h-1.6l.7-1a.1.1 0 0 0 0-.1 14.6 14.6 0 0 0-2-1.5 11.3 11.3 0 0 0 2-1.1.1.1 0 0 0 0-.1.1.1 0 0 0 0-.1l-.7-.9a.1.1 0 0 0-.1 0 6.9 6.9 0 0 1-1.4 1 15 15 0 0 0 0-1.7.1.1 0 0 0 0-.1h-1.2a.1.1 0 0 0 0 .1 5.5 5.5 0 0 1-.7 3.1 4.6 4.6 0 0 1-1.9 1.5.1.1 0 0 0 0 .2l.6.7h-.8a.1.1 0 0 0-.1 0v2.7a.1.1 0 0 0 0 .2h1.3v.9a.1.1 0 0 0 .2 0h3.2a3.8 3.8 0 0 1-.7 1.2 6.6 6.6 0 0 1-3.4 1.7.1.1 0 0 0 0 .2l.4 1.1a.1.1 0 0 0 .2.1m0-.1-.5-1.2.5 1.2a7.5 7.5 0 0 0 3.8-2 6.4 6.4 0 0 0 1.2-2.2h3.8v.1-.1h-3.8a6.4 6.4 0 0 1-1.2 2.1 7.5 7.5 0 0 1-3.8 2m10.1-5.2q0 3.6-.7 4.4a1.7 1.7 0 0 1-1.2.6 1.7 1.7 0 0 0 1.2-.6q.7-.8.8-4.4m-4.7 3.6.3 1.3a18.4 18.4 0 0 0 2.2.1 18.4 18.4 0 0 1-2.2-.1l-.3-1.3m-5.4-3.6V19v1.5m.1-1.4h4a.1.1 0 0 0-.1 0 9.5 9.5 0 0 1-.2 1.3h-3.6v-1.3m-.4-1.3-.8-.8.8.8a5.6 5.6 0 0 0 2.2-1.8 15.3 15.3 0 0 1 2.1 1.7l.8-1-.8 1a15.3 15.3 0 0 0-2-1.7 5.6 5.6 0 0 1-2.3 1.8m8.4-1.8a5.5 5.5 0 0 1-2.2 1.7l-.7-.8.7.8a5.5 5.5 0 0 0 2.2-1.7 15.3 15.3 0 0 1 2.2 1.8l.7-1-.7 1a15.3 15.3 0 0 0-2.2-1.8m0 .2a15 15 0 0 1 2 1.6h-4a5.7 5.7 0 0 0 2-1.6m-6.2 0a15.2 15.2 0 0 1 2 1.6h-3.9a5.7 5.7 0 0 0 2-1.6m2.8-2.2a11 11 0 0 1-2.1 1.2 11 11 0 0 0 2.1-1.2m-2.2-1.6a14.9 14.9 0 0 1 0 1.7 14.9 14.9 0 0 0 0-1.7m6.2 0a14.8 14.8 0 0 1 0 1.7 14.8 14.8 0 0 0 0-1.7M201.8 26a7.6 7.6 0 0 0 3.9-2 6.5 6.5 0 0 0 1.2-2.2h3.6a9.5 9.5 0 0 1-.3 2.3.4.4 0 0 1-.3.2 21.7 21.7 0 0 1-2.6-.2.1.1 0 0 0-.1.2l.3 1.2a18.5 18.5 0 0 0 2.3.3h.2a1.8 1.8 0 0 0 1.4-.7c.4-.6.7-2 .7-4.5a.1.1 0 0 0-.1 0h-4.8l.2-1.1a.1.1 0 0 0-.1-.1l-1-.2h5.9v1.5a.1.1 0 0 0 .1.2h1.2a.1.1 0 0 0 .2-.2V18a.1.1 0 0 0-.2-.2h-1l.7-.8a.1.1 0 0 0 0-.1 14.5 14.5 0 0 0-2.1-1.6 11.3 11.3 0 0 0 2.2-1.2.1.1 0 0 0 0-.1.1.1 0 0 0 0-.1l-.7-.9a.1.1 0 0 0-.2 0 6.4 6.4 0 0 1-1.5 1 14.4 14.4 0 0 0 .1-1.6.1.1 0 0 0-.1-.1h-1.1a.1.1 0 0 0-.1 0v.1a5.4 5.4 0 0 1-.6 3 4.5 4.5 0 0 1-2 1.5.1.1 0 0 0 0 .2l.7.7h-1.6l.7-.8a.1.1 0 0 0 0-.2 14.4 14.4 0 0 0-2-1.5 11.3 11.3 0 0 0 2-1.1.1.1 0 0 0 0-.1.1.1 0 0 0 0-.1l-.6-.9a.1.1 0 0 0-.1 0 .1.1 0 0 0-.1 0 7 7 0 0 1-1.4 1 15.7 15.7 0 0 0 0-1.7.1.1 0 0 0 0-.1h-1.1a.1.1 0 0 0-.2 0 5.5 5.5 0 0 1-.6 3.2 4.6 4.6 0 0 1-1.9 1.4.1.1 0 0 0 0 .1.1.1 0 0 0 0 .1l.6.7h-.8a.1.1 0 0 0-.1.2v2.6a.1.1 0 0 0 .1.2h1.2v.9a.1.1 0 0 0 .2 0h3.2a3.8 3.8 0 0 1-.7 1.2 6.6 6.6 0 0 1-3.3 1.7.1.1 0 0 0-.1 0 .1.1 0 0 0 0 .2l.5 1.1m0 0-.4-1.2.5 1.2a7.5 7.5 0 0 0 3.8-2 6.5 6.5 0 0 0 1.2-2.2h3.8v.1-.1h-3.8a6.5 6.5 0 0 1-1.2 2.1 7.5 7.5 0 0 1-3.8 2m10.1-5.2q0 3.6-.6 4.4a1.7 1.7 0 0 1-1.3.6 1.7 1.7 0 0 0 1.3-.6q.6-.8.7-4.4m-4.7 3.6.3 1.2a18.4 18.4 0 0 0 2.3.2 18.4 18.4 0 0 1-2.3-.2l-.3-1.2m-5.3-3.7V19v1.5m.1-1.4h4a10 10 0 0 1-.3 1.3h-3.6v-1.3m8-3a5.5 5.5 0 0 1-2.2 1.6l-.7-.8.7.8a5.5 5.5 0 0 0 2.2-1.7 15.2 15.2 0 0 1 2.2 1.8l.8-1-.8 1a15.2 15.2 0 0 0-2.2-1.8m-8.4 1.8-.7-.8.7.8A5.5 5.5 0 0 0 204 16a15.2 15.2 0 0 1 2.1 1.7l.8-1-.8 1a15.2 15.2 0 0 0-2-1.7 5.5 5.5 0 0 1-2.3 1.8m8.4-1.6a15.1 15.1 0 0 1 2 1.5h-4a5.7 5.7 0 0 0 2-1.5m-6.1 0a15.2 15.2 0 0 1 1.9 1.5h-4a5.7 5.7 0 0 0 1.9-1.6m9.2-2.2a11.2 11.2 0 0 1-2.4 1.3 11.2 11.2 0 0 0 2.4-1.3m-6.3 0a11 11 0 0 1-2.2 1.3 11 11 0 0 0 2.2-1.2m-2.2-1.6a15 15 0 0 1-.1 1.7 15 15 0 0 0 0-1.7m6.3 0a14.4 14.4 0 0 1-.1 1.7 14.4 14.4 0 0 0 0-1.7m64.5 13.4a8.5 8.5 0 0 0 2-3.3 23.2 23.2 0 0 0 .7-6h1.3c0 2.3-.1 4.5-.3 6.6a2.8 2.8 0 0 1-.2 1 .2.2 0 0 1-.2.2 7.1 7.1 0 0 1-1.6-.2.1.1 0 0 0-.1.1l.1 1.3a.1.1 0 0 0 .1.1 7.5 7.5 0 0 0 1.5.2 1.7 1.7 0 0 0 1.2-.4 2 2 0 0 0 .5-1.2 74.5 74.5 0 0 0 .4-9H278v-2.9a.1.1 0 0 0-.1 0h-1.2a.1.1 0 0 0-.1 0v2.8h-1.3v-.3a.1.1 0 0 0-.2-.2h-3V14l2.8-.3a.1.1 0 0 0 .1 0 .1.1 0 0 0 0-.2l-.6-.9a.1.1 0 0 0-.2 0l-6.3.5a.1.1 0 0 0-.1 0 .1.1 0 0 0 0 .2l.4.8a.1.1 0 0 0 .1.1l2.4-.1v.6h-3.1a.1.1 0 0 0-.2.2v1a.1.1 0 0 0 .2 0h3.1v.6H268a.1.1 0 0 0 0 .2V21a.1.1 0 0 0 0 .1h2.7v.7H268a.1.1 0 0 0 0 .1v1h2.7v.7l-3 .2a.1.1 0 0 0-.2 0 .1.1 0 0 0 0 .1l.2 1.2a.1.1 0 0 0 .1 0 131 131 0 0 0 6.6-.4.1.1 0 0 0 0 .2l.8.8m0 0-.7-.9.8.8a8.4 8.4 0 0 0 1.8-3.3 23 23 0 0 0 .8-5.9 23 23 0 0 1-.8 6 8.4 8.4 0 0 1-1.8 3.2m1.7-1.5.1 1.3a7.4 7.4 0 0 0 1.5.1 7.4 7.4 0 0 1-1.5-.1v-1.3m3.5-7.8a74.3 74.3 0 0 1-.4 7.8 1.8 1.8 0 0 1-.5 1 1.6 1.6 0 0 1-1 .4 1.6 1.6 0 0 0 1-.3 1.8 1.8 0 0 0 .5-1.1 74.3 74.3 0 0 0 .4-7.8M267.8 25l-.2-1.1.2 1.1q3.8-.2 7-.6-3.2.4-7 .6m7-1.6-2.7.2V23h2.6a.1.1 0 0 0 .1-.2V22a.1.1 0 0 0 0-.1H272v-.7h2.7a.1.1 0 0 0 .1-.1v-4.5a.1.1 0 0 0-.1-.2H272V16h3v.4a.1.1 0 0 0 .2.2h1.3a22 22 0 0 1-.6 5.2 9.1 9.1 0 0 1-1 2.2v-.3a.1.1 0 0 0-.1 0m-3-.7h2.8-2.8m.2-1.9h2.8-2.9m.2-1.7h1.4v.6h-1.4v-.6m-2.8 0h1.4v.6h-1.4v-.6m0-1.8h1.4v.7h-1.4v-.7m2.8 0h1.5v.7H272v-.7m-.1-1.9h3.1-3.1m3.3.6h1.4v.2-.2h-1.4m-.3-2.8-.6-1 .6 1-3 .2q1.6 0 3-.2m-6.6.5-.4-1 .4 1 2.6-.2-2.6.2m53.5 11.8a23 23 0 0 0 3.8-1 .1.1 0 0 0 0-.2l-.1-1a.1.1 0 0 0 0-.2.1.1 0 0 0-.2 0l-2.5.8v-2.9h8.1a.1.1 0 0 0 .1 0V20a.1.1 0 0 0-.1-.1h-3v-1.3h2.4a.1.1 0 0 0 0-.1v-1.1a.1.1 0 0 0 0-.1h-2.4v-1a.1.1 0 0 0-.1-.2h-1.2a.1.1 0 0 0 0 .1v1h-2.4v-1a.1.1 0 0 0-.1 0h-1.2a.1.1 0 0 0-.1 0v1h-2.3v-1.1h9.5a.1.1 0 0 0 .2-.2v-3.2a.1.1 0 0 0-.2-.1h-10.8a.1.1 0 0 0-.2 0v5.6a24 24 0 0 1-.2 3.4 20.4 20.4 0 0 1-1 3.2.1.1 0 0 0 0 .2l1.2.6a.1.1 0 0 0 .1 0 .1.1 0 0 0 .1 0 16 16 0 0 0 1-3.1l.1-1.2h1.1v3a.3.3 0 0 1-.2.2.1.1 0 0 0 0 .1l.5 1a.1.1 0 0 0 .1.2m0-.2-.5-1 .5 1a22.8 22.8 0 0 0 3.8-1 22.8 22.8 0 0 1-3.8 1m-2.7 0-1.2-.7 1.2.6a16 16 0 0 0 1-3l.1-1.4c0 .5 0 1-.2 1.3a16 16 0 0 1-.9 3.1m3.6-4.4h8.2-8.2m-2.4-1.1v-1.5V20h2.6-2.6m7.5-1.5h2.5-2.5m-3.6.1h2.3V20h-2.3v-1.3m-3.7 0h2.3V20h-2.3v-1.3m9.6-5.9V16h-9.7 9.6v-3.3m-9.5 1.2h8.3v.8h-8.3V14m-95.6 12a.1.1 0 0 0 .1 0 8.5 8.5 0 0 0 1.9-3.4 23.2 23.2 0 0 0 .7-6h1.3c0 2.3 0 4.6-.2 6.6a2.9 2.9 0 0 1-.2 1 .2.2 0 0 1-.2.2 7.2 7.2 0 0 1-1.6-.2.1.1 0 0 0-.1 0 .1.1 0 0 0 0 .2v1.2a.1.1 0 0 0 .2.1 7.7 7.7 0 0 0 1.5.2 1.7 1.7 0 0 0 1.1-.4 2 2 0 0 0 .6-1.2 74.5 74.5 0 0 0 .4-9 .1.1 0 0 0-.1 0h-2.6v-2.8a.1.1 0 0 0-.2-.1h-1.1a.1.1 0 0 0-.1 0v2.8h-1.4v-.3a.1.1 0 0 0-.1-.1h-3V14l2.8-.2a.1.1 0 0 0 0-.1.1.1 0 0 0 0-.1l-.6-1a.1.1 0 0 0-.1 0l-6.4.5a.1.1 0 0 0 0 .2l.4.9 2.5-.1v.7h-3.2a.1.1 0 0 0-.1.1v1a.1.1 0 0 0 .1.1h3.2v.6h-2.7a.1.1 0 0 0-.1.1v4.5a.1.1 0 0 0 .1.2h2.7v.6h-2.7a.1.1 0 0 0-.1.2v.9a.1.1 0 0 0 .1 0h2.7v.8h-3.1a.1.1 0 0 0-.1.1.1.1 0 0 0 0 .1l.1 1.2a.1.1 0 0 0 .2 0 130.1 130.1 0 0 0 6.5-.4.1.1 0 0 0 0 .2l.9.8m0 0-.8-.9.8.8a8.4 8.4 0 0 0 1.9-3.2 23 23 0 0 0 .7-6 23 23 0 0 1-.7 6 8.4 8.4 0 0 1-1.9 3.2m1.8-1.5v1.3a7.4 7.4 0 0 0 1.6.2 7.4 7.4 0 0 1-1.5-.2l-.1-1.3m2.6 1.1a1.6 1.6 0 0 1-.9.4 1.6 1.6 0 0 0 .9-.4m1-9a74 74 0 0 1-.4 7.9 1.8 1.8 0 0 1-.6 1.1 1.8 1.8 0 0 0 .6-1.1 74 74 0 0 0 .4-7.8m-12.8 8.8-.2-1.2.2 1.2 7-.7-7 .7m7-1.7-2.8.2v-.6h2.7a.1.1 0 0 0 0-.1v-1h-2.7v-.8h2.7a.1.1 0 0 0 .1 0v-4.6a.1.1 0 0 0 0-.1h-2.8V16h3a.1.1 0 0 0 .1 0v.5a.1.1 0 0 0 .1 0h1.3a22 22 0 0 1-.6 5.3 9.1 9.1 0 0 1-.9 2.2v-.2a.1.1 0 0 0-.2-.2m-3-.5h2.9-2.8m0-1.9h2.8-2.8m.2-1.8h1.4v.6h-1.5v-.6m-2.8 0h1.5v.6h-1.5v-.6m.1-1.8h1.5v.7H219v-.6m2.8 0h1.5v.6h-1.5v-.6m-.1-2h3.2-3.2m3.3.7h1.5v.1-.1H225m-.5-2.9-.6-.9.7 1-3 .2 3-.3m-6.6.5-.5-.9 2.6-.1-2.6.1.5.9 2.5-.1-2.5.1m94.8 11.8a.1.1 0 0 0 .1 0l.9-1a.1.1 0 0 0 0-.1.1.1 0 0 0 0-.1l-2-1.2c.1 0 .2 0 .3-.2a5.6 5.6 0 0 0 1-1.8v-.8a.1.1 0 0 0-.2-.1h-5.4a2.7 2.7 0 0 0 1.2-1 3.4 3.4 0 0 0 .6-1.6h1.2v1c0 .5.3 1 1.4 1h1.8a.1.1 0 0 0 .1 0v-1a.1.1 0 0 0 0-.2h-1.6c-.1 0-.3 0-.3-.3v-1.2a10.7 10.7 0 0 0 1.8.8.1.1 0 0 0 .1 0l.9-1a.1.1 0 0 0 0-.2 12.6 12.6 0 0 1-2.3-1 11.2 11.2 0 0 0 1.5-1.3.1.1 0 0 0 0-.2l-.7-.9a.1.1 0 0 0-.2 0 7.7 7.7 0 0 1-1.9 1.7V15l-.5-.4a10.6 10.6 0 0 0 1.7-1.3.1.1 0 0 0 0-.2l-.7-.9a.1.1 0 0 0-.2 0 7.8 7.8 0 0 1-1.7 1.4 4.7 4.7 0 0 1-.6-1.3.1.1 0 0 0-.2-.1l-1 .3a.1.1 0 0 0-.1 0 .1.1 0 0 0 0 .2 7.5 7.5 0 0 0 2.2 3.2 8.4 8.4 0 0 0 .7.6h-2.6a.1.1 0 0 0-.1 0 .1.1 0 0 0 0 .1 4.3 4.3 0 0 1-.4 2 2 2 0 0 1-.9.7v-2.5a.1.1 0 0 0-.2-.1h-1.3a7.6 7.6 0 0 0 2.2-3.1v-.9h-5.2a.1.1 0 0 0-.1 0v1.1a.1.1 0 0 0 .1.2h3.6a5.8 5.8 0 0 1-1.3 1.5 10.4 10.4 0 0 0-1.7-1.4.1.1 0 0 0-.2 0l-.7.8a.1.1 0 0 0 0 .2 11.4 11.4 0 0 1 1.3 1.2 8.6 8.6 0 0 1-2.2.8.1.1 0 0 0-.1 0 .1.1 0 0 0 0 .2l.6 1a.1.1 0 0 0 .1.1 9.8 9.8 0 0 0 1.5-.5.1.1 0 0 0 .1 0h2v1h-2.5a.1.1 0 0 0 0 .1l-1 3.2a.1.1 0 0 0 .1 0 .1.1 0 0 0 .1.1h3.4a4.5 4.5 0 0 1-.5 1.8.5.5 0 0 1-.4.3 13.9 13.9 0 0 1-1.6-.2.1.1 0 0 0-.1 0 .1.1 0 0 0 0 .2v1.1a.1.1 0 0 0 .2.1h1.6a1.9 1.9 0 0 0 1.3-.5c.4-.5.8-1.8 1-3.9a.1.1 0 0 0-.1-.1h-3.2l.2-.9h2.8a.1.1 0 0 0 .2-.1v-.6l.5 1a.1.1 0 0 0 0 .1v1.1a.1.1 0 0 0 0 .1h.4l-.5.5a.1.1 0 0 0 0 .1.1.1 0 0 0 0 .1l2.3 1.1-.2.1a6.9 6.9 0 0 1-2.5.7.1.1 0 0 0 0 .2l.2 1a.1.1 0 0 0 .2.1 8.7 8.7 0 0 0 3-.9l.6-.4 2 1.4a.1.1 0 0 0 .2 0m-2.2-1.5-.7.4a8.6 8.6 0 0 1-3 1l-.2-1.2.3 1.1a8.6 8.6 0 0 0 3-1l.6-.3 2.2 1.4.8-1-.8 1q-1-.8-2.2-1.4m-5.3 1a1.8 1.8 0 0 1-.9.2 1.8 1.8 0 0 0 .9-.2m-2.6-1 .1 1.2h1.5-1.5l-.1-1.1m3.9-3.2q-.4 3.1-1 3.8l-.1.1.1-.1q.6-.7 1-3.8m-1.9 3.1a.7.7 0 0 1-.2.1.7.7 0 0 0 .2-.1m2.4-1.9 2.4 1.2-2.4-1.2m5.7-1.8v.8a5.5 5.5 0 0 1-1 1.8 3 3 0 0 1-.2.3 3 3 0 0 0 .3-.3 5.5 5.5 0 0 0 .9-1.8v-.8m-4.9 1 2.6 1.3-2.6-1.2m.7.1h2.6a4.1 4.1 0 0 1-.5.8l-.2.1-2-.9m-4.9-1.7h3-3l-.3 1 .3-1m3.7.3-.6-1 .6 1a2.5 2.5 0 0 0 1.3-1 3.2 3.2 0 0 0 .5-1.7h1.6v1.1q0 1 1.2 1h1.8-1.8q-1.2 0-1.2-1v-1H309a3.2 3.2 0 0 1-.5 1.7 2.5 2.5 0 0 1-1.3 1m4.5-3.5a10.7 10.7 0 0 0 2 .8l.8-1-.9 1a10.7 10.7 0 0 1-1.9-.8m-10.2 1.3-.6-1.1.6 1.1a9.4 9.4 0 0 0 1.6-.6 9.4 9.4 0 0 1-1.6.6m5.7-5.6v.8a7.5 7.5 0 0 1-2.1 3l-.4.3.4-.3a7.5 7.5 0 0 0 2.1-3v-.8m.6 0a7.4 7.4 0 0 0 2.2 3.1 8 8 0 0 0 1 .8 8 8 0 0 1-1-.8 7.4 7.4 0 0 1-2.2-3.2m-6 2.4a11.5 11.5 0 0 1 1.6 1.3A11.5 11.5 0 0 0 302 15m11.8-.6a11.1 11.1 0 0 1-1.7 1.4 11.1 11.1 0 0 0 1.7-1.4m-2.8.7a1.6 1.6 0 0 1 .1.1 7.9 7.9 0 0 0 1.7-1.4 7.9 7.9 0 0 1-1.7 1.4 1.4 1.4 0 0 0-.1-.1m1.3-2a10.4 10.4 0 0 1-1.9 1.5 10.4 10.4 0 0 0 1.9-1.4m-26.7 12.6a.1.1 0 0 0 .1 0 11.7 11.7 0 0 0 4.1-3.8 11.6 11.6 0 0 0 1.4-5.3h4c0 2.6-.1 4.5-.3 5.7a3.2 3.2 0 0 1-.2 1.3.8.8 0 0 1-.6.2h-.1a18.8 18.8 0 0 1-2.8-.2.1.1 0 0 0-.1.2l.3 1.3a.1.1 0 0 0 .1.1 19.8 19.8 0 0 0 2.5.2h.1a3 3 0 0 0 1.5-.4 2.7 2.7 0 0 0 .8-1.7 54.7 54.7 0 0 0 .4-8 .1.1 0 0 0-.2-.2h-5.3l.1-2.5a.1.1 0 0 0-.1-.2H290a.1.1 0 0 0-.1.2v2.5h-4.6a.1.1 0 0 0-.1.2v1.2a.1.1 0 0 0 .1.1h4.4a10.3 10.3 0 0 1-1.2 4.4 10.4 10.4 0 0 1-3.6 3.4.1.1 0 0 0 0 .1l.6 1.1a.1.1 0 0 0 .1 0m0 0-.7-1.1.7 1a11.5 11.5 0 0 0 4.1-3.6q1-1.6 1.4-5.4-.3 3.8-1.4 5.4a11.5 11.5 0 0 1-4 3.7m9.7-.6a2.8 2.8 0 0 1-1.2.3 2.8 2.8 0 0 0 1.2-.3m-4.2-1.3.3 1.4a19.3 19.3 0 0 0 2.5.2 19.3 19.3 0 0 1-2.5-.2l-.3-1.4m5.4-8.4a54.1 54.1 0 0 1-.3 8 2.5 2.5 0 0 1-.8 1.6 2.5 2.5 0 0 0 .8-1.6 54.1 54.1 0 0 0 .3-8m-11.3 0v1.2-1.2m6-2.7-.1 2.7v-2.7m55.3 13a.1.1 0 0 0 .2 0v-5.3a.1.1 0 0 0-.2-.1h-5.8a34.6 34.6 0 0 0 2-.7h5.3a.1.1 0 0 0 .1 0v-1a.1.1 0 0 0-.1-.1h-2.4l2-1.1a.1.1 0 0 0 .1-.1.1.1 0 0 0 0-.1l-.7-.8a.1.1 0 0 0-.2 0l-2.2 1.1V17a.1.1 0 0 0-.1 0h-3v-.7a.1.1 0 0 0-.1-.1h-1.2a.1.1 0 0 0-.2.1v.6h-4.3a.1.1 0 0 0-.1 0 .1.1 0 0 0 0 .1v1h4.4v.6h-5.3v1a.1.1 0 0 0 0 .1h3.8l-4 1a.1.1 0 0 0 0 .1l.4 1a.1.1 0 0 0 .2 0c.6 0 1.1-.2 1.7-.3v4.2a.1.1 0 0 0 .1.1h1.3V25h7v.5a.1.1 0 0 0 .1.1h1.2m-8.4 0V25v.6m.2-2.3h6.9v.7h-7v-.7m0-1.8h7v.7h-7v-.7m-3.2.1-.4-1 .4 1 2-.4-2 .4m7.7-2h5.3-5.3l-.7.2-2.1.6 2-.6.8-.3m4.9-2.2a26 26 0 0 1-2.6 1.3 26 26 0 0 0 2.6-1.3m-6.2.7h2.2l-1.3.5h-.8V18m-5.8-1v.8-.9m-92.5 8.8a.1.1 0 0 0 .1 0V14.2h2.1l-1.3 4a.1.1 0 0 0 0 .1 5.2 5.2 0 0 1 1.4 1.7 3.1 3.1 0 0 1 .4 1.5c0 .4 0 1-.7 1a4.8 4.8 0 0 1-1.5-.3.1.1 0 0 0-.1 0 .1.1 0 0 0 0 .1l.2 1.4a.1.1 0 0 0 .1.1 8.8 8.8 0 0 0 1.3.1c1.4 0 2.1-.8 2.2-2.4a4.3 4.3 0 0 0-.6-2 7.1 7.1 0 0 0-1.2-1.6l1.8-5a.1.1 0 0 0-.1-.1H242a.1.1 0 0 0-.1.1v12.6a.1.1 0 0 0 0 .1h1.3m0 0V14.1v11.4m.5-3.2.2 1.4a9 9 0 0 0 1.3.1q2 0 2-2.3 0 2.3-2 2.3a9 9 0 0 1-1.3-.1l-.2-1.4m.5-4a5.4 5.4 0 0 1 1.4 1.7 3.3 3.3 0 0 1 .4 1.5 3.3 3.3 0 0 0-.4-1.5 5.4 5.4 0 0 0-1.4-1.8m3.1-5.3-1.9 5 1.9-5m83.3 12.7a.1.1 0 0 0 .1 0l.5-1.2a.1.1 0 0 0 0-.2 9.7 9.7 0 0 1-2.3-.5 5.3 5.3 0 0 1-.7-.3 10.5 10.5 0 0 0 1.5-1 .1.1 0 0 0 0-.2l-.8-.8a.1.1 0 0 0-.1 0 8 8 0 0 1-1.8 1.2 4.7 4.7 0 0 1-.8-1.2.1.1 0 0 0-.2 0l-1 .3a.1.1 0 0 0 0 .1 5.6 5.6 0 0 0 1.3 2 5.8 5.8 0 0 0 1.8 1 13 13 0 0 0 2.5.8m0 0a13 13 0 0 1-2.5-.8 5.8 5.8 0 0 1-1.7-1.1 5.5 5.5 0 0 1-1.4-2 5.5 5.5 0 0 0 1.4 2 5.8 5.8 0 0 0 1.7 1 13 13 0 0 0 2.5.8l.5-1.1-.5 1.1m-1-3.2a10.3 10.3 0 0 1-1.7 1 10.3 10.3 0 0 0 1.7-1m-93.7 3.2a.1.1 0 0 0 .1-.1v-.8h3.2v.7a.1.1 0 0 0 .2.1h1.1a.1.1 0 0 0 .1-.1V20a.1.1 0 0 0 0-.1h-5.8a.1.1 0 0 0-.1 0v5.6a.1.1 0 0 0 0 .1h1.2m0 0v-1 1m.1-4.5h3.2v2.3H236v-2.2m5.4-2.2a.1.1 0 0 0 .1-.2v-1.1a.1.1 0 0 0-.1-.1H240l.2-.7a14.5 14.5 0 0 0 .6-1.5.1.1 0 0 0-.1-.2l-.4-.1h1a.1.1 0 0 0 0-.1v-1.1a.1.1 0 0 0 0-.1h-2.9a7 7 0 0 0-.6-1.5.1.1 0 0 0-.1 0l-1.2.3a.1.1 0 0 0 0 .2 5.4 5.4 0 0 1 .3 1h-2.6a.1.1 0 0 0-.1 0V15h1.1l-.3.2a.1.1 0 0 0 0 .2 14.6 14.6 0 0 1 .8 2.2h-1.8v1.2a.1.1 0 0 0 0 .2h7.5m-6.4-3.7a14.8 14.8 0 0 1 .9 2.4 14.8 14.8 0 0 0-.9-2.4m5.6 0a14.2 14.2 0 0 1-.5 1.6l-.3.8.3-.8a14.2 14.2 0 0 0 .5-1.6m-4.3-.2h3a11.9 11.9 0 0 1-.5 1.5 10.4 10.4 0 0 1-.4 1h-1.2a18.9 18.9 0 0 0-1-2.5m3.4-.1h1.6-1.6m-3-2.3a5.6 5.6 0 0 1 .4 1.2 5.6 5.6 0 0 0-.5-1.2m110.8 3.4a.1.1 0 0 0 0-.1v-3.1a.1.1 0 0 0 0-.2h-11.8a.1.1 0 0 0-.1.2v3a.1.1 0 0 0 0 .2.1.1 0 0 0 .1 0h11.8m-3.5-2.3h2.2V15h-2.2v-1m-3.5 0h2.2v1h-2.2v-1m-3.5 0h2.2v1h-2.2v-1m-84.5 1.7 1-.5a.1.1 0 0 0 0-.2 8.7 8.7 0 0 0-1.1-1.8.1.1 0 0 0-.2 0l-.8.5a.1.1 0 0 0-.1 0 .1.1 0 0 0 0 .2 8.3 8.3 0 0 1 1 1.7.1.1 0 0 0 .1.1m0-.1a8.4 8.4 0 0 0-1-1.8 8.4 8.4 0 0 1 1 1.8l1-.5-1 .5m-50.3.1 1-.5a.1.1 0 0 0 0-.2 8.7 8.7 0 0 0-1.1-1.8.1.1 0 0 0-.2 0l-.8.5a.1.1 0 0 0 0 .2 8.4 8.4 0 0 1 1 1.7.1.1 0 0 0 0 .1m0-.1a8.4 8.4 0 0 0-1-1.8 8.4 8.4 0 0 1 1 1.8l1-.5-1 .5m56.6 0 1-.5a.1.1 0 0 0 0-.1 9.3 9.3 0 0 0-1-1.9.1.1 0 0 0-.2 0l-.9.5a.1.1 0 0 0 0 .1.1.1 0 0 0 0 .1 8.3 8.3 0 0 1 1 1.8.1.1 0 0 0 .1 0m0 0a8.5 8.5 0 0 0-1-1.8 8.5 8.5 0 0 1 1 1.7l1-.5-1 .5m-50.4.2a.1.1 0 0 0 .1 0l1-.6a.1.1 0 0 0 0-.1 9.3 9.3 0 0 0-1.1-2 .1.1 0 0 0-.2 0l-.9.6a.1.1 0 0 0 0 .1 8.3 8.3 0 0 1 1 1.8.1.1 0 0 0 .1 0m0 0a8.5 8.5 0 0 0-1-1.8 8.5 8.5 0 0 1 1 1.7l1-.5-1 .5m44.2 11.3a1 1 0 0 1-.9-.5l-.5-1.2a1 1 0 0 1 0-.8 1 1 0 0 1 .7-.4 5.8 5.8 0 0 0 2.6-1.3h-1.6a1 1 0 0 1-1-.9h-.4a1 1 0 0 1-1-1v-2.7a1 1 0 0 1 .4-.6 1 1 0 0 1 0-.5 1 1 0 0 1 .5-.6 3.7 3.7 0 0 0 .4-.2.9.9 0 0 1 0-.1 7.5 7.5 0 0 0-1-1.6 1 1 0 0 1 0-.7 1 1 0 0 1 .3-.6l.9-.6a1 1 0 0 1 .5-.2 1 1 0 0 1 .7.4l.2.3v-.6a1 1 0 0 1 1-.9h1a1 1 0 0 1 1 1 1 1 0 0 1 .6-.2 1 1 0 0 1 .7.4l.4-.3a1 1 0 0 1 .5-.1 1 1 0 0 1 .8.3l.3.4v-.6a1 1 0 0 1 .9-.9h1a1 1 0 0 1 1 1 1 1 0 0 1 .8-.3 1 1 0 0 1 .6.4l.7.8a1 1 0 0 1 .2.7 1 1 0 0 1-.3.6 12.1 12.1 0 0 1-1.1.8l1 .8a1 1 0 0 1 .3.9 1 1 0 0 1 .5.8v2.8a1 1 0 0 1-1 1h-.6a7.9 7.9 0 0 1-.9 3.8 2.6 2.6 0 0 1-2 1h-.2a19.3 19.3 0 0 1-2.3-.2 1 1 0 0 1-.8-.7l-.3-1.2a1 1 0 0 1 0-.1.9.9 0 0 1-.1.1 8.4 8.4 0 0 1-4.3 2.3.9.9 0 0 1-.2 0Zm5.6-3.4 2.1.1a8.7 8.7 0 0 0 .1-.9h-2.2a7.2 7.2 0 0 1-.3.8 1 1 0 0 1 .3 0Zm-.9-8 .7.6a7.2 7.2 0 0 0-.4-.7l-.3.1Zm-55 11.4a1 1 0 0 1-1-.5l-.4-1.2a1 1 0 0 1 0-.7 1 1 0 0 1 .7-.5 5.8 5.8 0 0 0 2.6-1.3H202a1 1 0 0 1-1-.9v-.1h-.4a1 1 0 0 1-.9-1V18a1 1 0 0 1 .3-.6 1 1 0 0 1 0-.5 1 1 0 0 1 .6-.6 3.8 3.8 0 0 0 .4-.2.8.8 0 0 1 0-.1 7.6 7.6 0 0 0-1-1.6 1 1 0 0 1-.2-.7 1 1 0 0 1 .4-.6l.9-.6a1 1 0 0 1 .5-.2 1 1 0 0 1 .7.4l.3.3v-.6a1 1 0 0 1 .9-.9h1a1 1 0 0 1 1 1 1 1 0 0 1 .7-.2 1 1 0 0 1 .6.4l.4-.3a1 1 0 0 1 .6-.1 1 1 0 0 1 .7.3l.3.4v-.5a1 1 0 0 1 1-1h1a1 1 0 0 1 1 1 1 1 0 0 1 .6-.3h.1a1 1 0 0 1 .6.3l.7 1a1 1 0 0 1 .2.6 1 1 0 0 1-.3.7 12 12 0 0 1-1.1.7l1 .8a1 1 0 0 1 .3 1 1 1 0 0 1 .5.7v2.8a1 1 0 0 1-1 1h-.6a7.9 7.9 0 0 1-.8 3.8.8.8 0 0 1-.1.1 2.6 2.6 0 0 1-2 1h-.1a19.3 19.3 0 0 1-2.4-.3 1 1 0 0 1-.8-.7l-.3-1.2a1 1 0 0 1 0-.1.9.9 0 0 1-.1.1 8.4 8.4 0 0 1-4.3 2.3 1 1 0 0 1-.2 0Zm5.6-3.4 2 .1a8.8 8.8 0 0 0 .2-.9h-2.2a7.4 7.4 0 0 1-.4.8 1 1 0 0 1 .3 0Zm-1-8 .7.6-.3-.7-.4.1Zm68.8 11.4a1 1 0 0 1-.6-.3l-.9-.8-5.9.5a1 1 0 0 1-1-.8l-.2-1.1a1 1 0 0 1 .2-.7 1 1 0 0 1 .3-.3 1 1 0 0 1 0-.2v-1a1 1 0 0 1 0-.4 1 1 0 0 1 0-.5v-4.5a1 1 0 0 1-.5-.8v-1a1 1 0 0 1 .6-.9l-.2-.3a1 1 0 0 1 0-.9 1 1 0 0 1 .7-.5c2.1 0 4.3-.2 6.3-.5a1 1 0 0 1 .2 0 1 1 0 0 1 .6.3.9.9 0 0 1 .1.1l.7.9a1 1 0 0 1 .1.2v-.8a1 1 0 0 1 1-1h1.1a1 1 0 0 1 1 1v2h1.8a1 1 0 0 1 .9.9 75.2 75.2 0 0 1-.4 9 2.7 2.7 0 0 1-.8 1.7.7.7 0 0 1-.1 0 2.5 2.5 0 0 1-1.6.6 8.3 8.3 0 0 1-1.7-.2 1 1 0 0 1-.7-.4l-.3.4a1 1 0 0 1-.7.2Zm2.5-3.2h.4a2 2 0 0 0 0-.4l.2-2-.4 1.6-.2.7Zm-2-6.2v1.3-1.3Zm46 9.3a1 1 0 0 1-.8-.5l-.5-1a1 1 0 0 1-.1-.3l-.5 1.2a1 1 0 0 1-.5.5 1 1 0 0 1-.8 0l-1.1-.7a1 1 0 0 1-.4-1.2 19.6 19.6 0 0 0 .9-3 23.2 23.2 0 0 0 .2-3.3v-5.5a1 1 0 0 1 1-1H330a1 1 0 0 1 1 1V16a1 1 0 0 1-.3.7 1 1 0 0 1 .5.8v1a1 1 0 0 1-.3.7 1 1 0 0 1 1 1v1a1 1 0 0 1-1 1h-.4a1 1 0 0 1 0 .3 1 1 0 0 1-.3.6l-.3.2a9 9 0 0 0 1.3.2 1 1 0 0 1 .7.5 1 1 0 0 1 0 .8l-.4 1.2a1 1 0 0 1-1 .5 13.7 13.7 0 0 1-2.7-.8 6.6 6.6 0 0 1-1.4-.7 1 1 0 0 1-.5.5 23.7 23.7 0 0 1-4 1.1.9.9 0 0 1-.1 0Zm1.8-4.4v1l.9-.3a6.3 6.3 0 0 1-.3-.7Zm-98.7 4.4a1 1 0 0 1-.6-.2l-.8-.8-6 .5a1 1 0 0 1-1-.8l-.1-1.2a1 1 0 0 1 .1-.7 1 1 0 0 1 .3-.2 1 1 0 0 1 0-.3V22a1 1 0 0 1 0-.4 1 1 0 0 1 0-.5v-4.5a1 1 0 0 1-.5-.8v-1a1 1 0 0 1 .6-.9l-.2-.4a1 1 0 0 1 0-.8 1 1 0 0 1 .8-.5l6.3-.5a1 1 0 0 1 .4 0 1 1 0 0 1 .5.4l.6.8a1 1 0 0 1 .1.3v-.8a1 1 0 0 1 1-1h1.1a1 1 0 0 1 1 1v2h1.8a1 1 0 0 1 .9.8 75.3 75.3 0 0 1-.4 9 2.7 2.7 0 0 1-.8 1.7l-.1.1a2.5 2.5 0 0 1-1.6.6 8.5 8.5 0 0 1-1.7-.2 1 1 0 0 1-.6-.5l-.4.4a1 1 0 0 1-.6.3Zm2.5-3.2.4.1a2.1 2.1 0 0 0 0-.4l.2-2-.4 1.6q0 .4-.2.7Zm-2-6.1v1.2-1.2Zm87.4 9.3a1 1 0 0 1-.5-.2l-1.6-1h-.2v.1a9.5 9.5 0 0 1-3.4 1 1 1 0 0 1-1-.6 2.7 2.7 0 0 1-1.7.5H303a1 1 0 0 1-1-.8v-1.2a1 1 0 0 1 .2-.7 1 1 0 0 1 .7-.3l1.4.1a3.8 3.8 0 0 0 .1-.4H302a1 1 0 0 1-.7-.3 1 1 0 0 1-.2-.8l.7-2.8a1 1 0 0 1-.1 0 1 1 0 0 1-.9-.5l-.5-1a1 1 0 0 1 0-.9 1 1 0 0 1 .6-.5 7.8 7.8 0 0 0 1-.3l-.4-.3a1 1 0 0 1-.4-.7 1 1 0 0 1 .3-.7 1 1 0 0 1 0-.5v-1a1 1 0 0 1 .9-1h5.1a1 1 0 0 1 .1 0 1 1 0 0 1 .2 0l1-.4a1 1 0 0 1 .3 0 1 1 0 0 1 1 .6 3.9 3.9 0 0 0 0 .5 7 7 0 0 0 1-.8 1 1 0 0 1 .6-.3 1 1 0 0 1 .7.3l.8.9a1 1 0 0 1 .8.3l.7.9a1 1 0 0 1 0 1.2l-.7.6 1 .4a1 1 0 0 1 .7.6 1 1 0 0 1-.2.9l-.8.8a1 1 0 0 1 .1.5v1a1 1 0 0 1-.8 1v.5a1 1 0 0 1 0 .3 6.4 6.4 0 0 1-.8 1.6l1.2.7a1 1 0 0 1 .4.6 1 1 0 0 1-.2.8l-.9 1a1 1 0 0 1-.7.3Zm-3.2-7h.3a2 2 0 0 1-.1-.4 4.3 4.3 0 0 1-.2.5ZM307 16a1 1 0 0 1 .2.2 1 1 0 0 1 .2-.2 1 1 0 0 1 .7-.3h.5a8.3 8.3 0 0 1-.8-1 8.4 8.4 0 0 1-.8 1.3Zm-21.4 10.6a1 1 0 0 1-.7-.4l-.7-1.1a1 1 0 0 1-.2-.7 1 1 0 0 1 .5-.6 9.6 9.6 0 0 0 3.4-3.1 7.9 7.9 0 0 0 .9-3.2h-3.5a1 1 0 0 1-1-.9v-1.2a1 1 0 0 1 .3-.7 1 1 0 0 1 .7-.3h3.8v-1.7a1 1 0 0 1 1-1h1.2a1 1 0 0 1 .9 1v1.7h4.4a1 1 0 0 1 1 1 55.3 55.3 0 0 1-.4 8.1 3.5 3.5 0 0 1-1 2.1 1 1 0 0 1-.2.2 3.7 3.7 0 0 1-1.9.5h-.1a20.6 20.6 0 0 1-2.6-.2 1 1 0 0 1-.8-.7l-.3-1.4a1 1 0 0 1 .2-.8 1 1 0 0 1 .7-.3 1 1 0 0 1 .2 0 18 18 0 0 0 2.6.2 2.4 2.4 0 0 0 .1-.7c.2-1.1.2-2.8.2-4.9H292a11 11 0 0 1-1.5 5 12.5 12.5 0 0 1-4.4 4 1 1 0 0 1-.5 0Zm61 0h-1.3a1 1 0 0 1-.9-.7H339a1 1 0 0 1-.9.6H337a1 1 0 0 1-.9-.9v-3.2l-.8.1a1 1 0 0 1-.2 0 1 1 0 0 1-.8-.5l-.4-1a1 1 0 0 1 0-.7 1 1 0 0 1 .1-.3 1 1 0 0 1 0-.5v-1a1 1 0 0 1 .8-.9V17a1 1 0 0 1 .1-.3 1 1 0 0 1-.2-.7v-3a1 1 0 0 1 .9-1h11.7a1 1 0 0 1 1 1v3a1 1 0 0 1-.2.5l.3.2a1 1 0 0 1 .2.8 1 1 0 0 1-.1.3 1 1 0 0 1 .5.9v1a1 1 0 0 1-1 .8h-.4v5.2a1 1 0 0 1-1 1Zm-103.4 0H242a1 1 0 0 1-.8-.6 1 1 0 0 1-.7.3h-1.1a1 1 0 0 1-1-.8h-1.6a1 1 0 0 1-.9 1h-1.2a1 1 0 0 1-.9-1V20a1 1 0 0 1 0-.3 1 1 0 0 1-.8-.9v-1.1a1 1 0 0 1 1-1h.6l-.4-.8a1 1 0 0 1-1-1v-1a1 1 0 0 1 1-1h1.4a1 1 0 0 1 0-.5 1 1 0 0 1 .7-.6l1-.3a.9.9 0 0 1 .4 0 1 1 0 0 1 .8.4 7.7 7.7 0 0 1 .5 1h2a1 1 0 0 1 1-.8h5.3a1 1 0 0 1 .8.4 1 1 0 0 1 0 .8l-1.6 4.5a8 8 0 0 1 1 1.4 5 5 0 0 1 .7 2.3c0 2.1-1.1 3.3-3 3.3a9.6 9.6 0 0 1-1 0v.8a1 1 0 0 1-1 1Zm-6.4-4h1.6V22h-1.6Zm7.3-1a4 4 0 0 0 1 .1 1.4 1.4 0 0 0 0-.1 2.3 2.3 0 0 0-.3-1v-.1a4.4 4.4 0 0 0-.7-1Zm-6.3-4.9.2-.4.2-.4h-.7l.3.8Zm6.3-1.6v.5l.2-.5Z"/>
  <path fill="#1a202c" d="m161.4 58.3.2-.1a13.1 13.1 0 0 0 1.1-1.4 70.7 70.7 0 0 1-8.7 2.9h-.2l-.9-2.6h.3l3.9-1V48h-3.6v-2.7h3.6v-2.5h-2.6v-1.2l-.1.1-1.8-2 .1-.1a16.3 16.3 0 0 0 2.7-3.2 16.9 16.9 0 0 0 1.8-3.7v-.2l2.7.6v.3l-.3.7a28.2 28.2 0 0 1 3.2 2.6v-2.3h6.9l-.1.3a47.7 47.7 0 0 1-3.3 7.5h3.3v.2a36.1 36.1 0 0 1-2.1 11.6 10.7 10.7 0 0 0 .8 1.1c.9 1 2.4 1.6 4.8 1.8v-3h-4.5v-2.6h4.5v-1.8h-3.5V47h3.5v-1.7h-3v-2.5h3v-1.5h-4.5v-2.6h4.5V37h-3v-2.5h3v-2h2.7v2h4v4.2h1.1v2.6h-1.2v4h-4V47h4v2.5h-4v1.8h4.6v2.5h-4.5V57c1.7 0 3.6 0 5.6-.2h.3l-.8 2.9h-5.6c-4.1 0-7-.9-8.5-2.5a8.4 8.4 0 0 1-.6-.6 18.1 18.1 0 0 1-3 4l-.2.1Zm.3 0 1.3 2a18 18 0 0 0 3.2-4 8.5 8.5 0 0 0 .8.8q2.1 2.3 8.3 2.3h5.4l.7-2.4-.7 2.4h-5.4q-6.2 0-8.3-2.3a8.5 8.5 0 0 1-.8-.9 18 18 0 0 1-3.2 4.2l-1.3-2Zm-7.7 1.1a69.9 69.9 0 0 0 8.8-2.8 69.7 69.7 0 0 1-8.8 2.8Zm-.8-2.1Zm20-.5h2.4v-3.2h4.5-4.5v3.2Zm-10.2-.3a17.8 17.8 0 0 0 1.6-2.7 25.2 25.2 0 0 1-1.3-4.5v.1l-1.2 5.2h.2l.3-.1Zm-3.5-.8v-8h3.5-3.5Zm.3-.3 2-.7-1.9-.5V54a46 46 0 0 0 1-5.1v-.2l2.3.5-.2-1.2h-3.2Zm.4-1.3 1.6.4q.6-2 1.2-5.1-.6 3-1.2 5.1l-1.6-.4Zm7-.1a35.6 35.6 0 0 0 2.2-11.6 35.6 35.6 0 0 1-2.2 11.6Zm-4-6a27.2 27.2 0 0 0 1.6 5.8 27.2 27.2 0 0 1-1.6-5.8Zm5.6 5.6Zm6.8-2v-2.3h3.9-4ZM165.4 47l.6 2.8a45.2 45.2 0 0 0 1-5.3h-3.5l-.4-2.2a31.2 31.2 0 0 0 2.7-5.6H163l.9 1 .1.1-1.8 2.3v2.6h-2.4v2.5h3.5v2.4l2-.9Zm4.4 2.2Zm-16-1.6Zm21.8-.4V45h3.9v-4h1.2-1.2v4h-4Zm-16-1.7v-3h2.5-2.6Zm10.7-.5Zm-7-2.6.4 1.9-.3-2Zm12.3.6v-2Zm.2-.3h1.3v-1.5h-1.3Zm-21-.2Zm11.1-.2a45.7 45.7 0 0 0 3.5-7.8 45.7 45.7 0 0 1-3.5 7.8Zm-13-2.6 1.5 1.6-1.5-1.7Zm16 1.3Zm-11.4-3.3a17 17 0 0 1-2 2.6 17 17 0 0 0 2-2.6 14 14 0 0 0 1-1.7 30 30 0 0 1 3.7 3.8l1.5-2-1.5 2a30 30 0 0 0-3.8-3.8 14 14 0 0 1-1 1.7Zm.1.1a17.7 17.7 0 0 1-1.7 2.3h6.3l-.2-.2a30.2 30.2 0 0 0-3.5-3.5 13.9 13.9 0 0 1-.9 1.4Zm21.9 1Zm-4 0v-2.2Zm.3-.2h1.3V37h-1.3Zm-5.5-2Zm-7.3 0Zm12.6-2Zm-16.3-.5.4-.9-.4.9ZM255 58h.2a21.7 21.7 0 0 0 7.6-7c1.2-1.9 2-5 2.4-9.1h-9.4v-3.1h9.6l.2-5.4v-.2h3v5.6h11.2v.2c0 8.9-.3 14.5-.7 16.8a5.5 5.5 0 0 1-1.7 3.4 6 6 0 0 1-3.3.8 40.7 40.7 0 0 1-5.2-.3h-.2l-.7-3.4h.3a38.7 38.7 0 0 0 5.8.5 1.7 1.7 0 0 0 1.4-.5 6.5 6.5 0 0 0 .6-2.6c.2-2.6.4-6.6.4-11.8h-8.2a25 25 0 0 1-2.9 11 24.2 24.2 0 0 1-8.6 7.7h-.1Zm.3.1 1.4 2.3 1.2-.7-1.2.7-1.4-2.3Zm13.6 1.3a40.4 40.4 0 0 0 5.2.4 5.8 5.8 0 0 0 3.2-.8 5.3 5.3 0 0 0 1.5-3.3q.8-3.4.8-16.7 0 13.3-.8 16.7a5.3 5.3 0 0 1-1.5 3.3 5.8 5.8 0 0 1-3.2.8 40.4 40.4 0 0 1-5.2-.4l-.6-2.8Zm-1-15.9.2-1.9-.2 2ZM256 41.6Zm12.3-2.6.1-5.6-.1 5.6ZM190 60.4h-.1l-.5-3a16 16 0 0 1-1 1.7l-.1.2-2.1-2 .1-.2a30.9 30.9 0 0 0 3.2-7V50l2.5 1.3v.2a34.5 34.5 0 0 1-2.5 6h.2a9 9 0 0 0 2.5.4l.3-.1a3.2 3.2 0 0 0 0-1v-7.4H188v-8.6h11.7v8.6h-4.3v8a4 4 0 0 1-.5 2.5 2.8 2.8 0 0 1-2.3.8 12.8 12.8 0 0 1-2.6-.2Zm0-.2a12.4 12.4 0 0 0 2.6.2 2.6 2.6 0 0 0 2-.8 4 4 0 0 0 .6-2.3V49h4.3-4.3v8.2a4 4 0 0 1-.5 2.3 2.6 2.6 0 0 1-2.1.8 12.4 12.4 0 0 1-2.5-.2l-.4-2.6Zm-3.5-3 1.7 1.8a27.7 27.7 0 0 0 3.5-7.7 27.7 27.7 0 0 1-3.5 7.7l-1.7-1.7Zm1.7-8.1Zm2.4-2.2V43Zm.3-.2h6v-3.4h-6Zm6.9 11.4.1-.1a14.5 14.5 0 0 0 3.7-4.7 21.6 21.6 0 0 0 2.1-6.2 38.3 38.3 0 0 0 .6-4.7h-4v-2.8h4.1v-7h3v.2c0 2.5 0 4.8-.2 6.8h7v2.8H207l-.5 5a24.2 24.2 0 0 1-2.7 8 18 18 0 0 1-4.5 5l-.2.2Zm.3 0 1.2 2.2a17.8 17.8 0 0 0 4.4-5 23.9 23.9 0 0 0 2.7-7.9q.3-2.1.5-5.3h7-7q-.2 3.2-.5 5.3a23.9 23.9 0 0 1-2.7 8 17.8 17.8 0 0 1-4.4 4.9L198 58Zm2.5-16ZM207 40l.1-7.1v7Zm-82.7 18h.3a9 9 0 0 0 4.4-1 2.3 2.3 0 0 0 .6-.6H125V52h-.4l-.6-2h.2l2.4-1.7-2.2.2h-.2l-.3-2h.2a17.5 17.5 0 0 0 4-3.5h.2l2.4.6-.3.2a20.8 20.8 0 0 1-2.6 2.4l1.7-.2c.6-.4 1-1 1.5-1.4l.1-.1 2.2 1-.3.2-2.8 2.4 1.6-.5v.1a13.1 13.1 0 0 1 1.7 3.4v.3l-1.1.3v2.8a5 5 0 0 1-1.7 4.1 10.3 10.3 0 0 1-5.2 1.9h-.1Zm.3.2.9 2a10 10 0 0 0 5.1-1.8 4.7 4.7 0 0 0 1.6-4 4.7 4.7 0 0 1-1.6 4 10 10 0 0 1-5.1 1.8l-.9-2Zm.5-2Zm2-1.9Zm-1.2-2.5h1.5v2.3h2.6v-2.5h1.5l-.3-.8a38.5 38.5 0 0 1-5.3 1Zm-1.6-1.8.5 1.7a38 38 0 0 0 6.5-1.2l.4 1 1.6-.4-1.6.5q-.1-.6-.4-1a38 38 0 0 1-6.5 1.1l-.5-1.7Zm2.9-.3a39.7 39.7 0 0 0 5.7-4.2 39.7 39.7 0 0 1-5.7 4.2Zm1-.3a70 70 0 0 0 2.2-.4l-.5-.7-1.7 1Zm2-1.2a8.8 8.8 0 0 1 .5 1 8.8 8.8 0 0 0-.6-1Zm-6-1.6.2 1.6 3-.3-3 .3-.2-1.6Zm2.8-.2a18.8 18.8 0 0 0 3.3-2.8 18.8 18.8 0 0 1-3.3 2.8Zm198.7 14V49a28.7 28.7 0 0 1-3.6 5.7l-.2.2-1.8-2.4.1-.1a27.7 27.7 0 0 0 3.2-4.8 27.5 27.5 0 0 0 2-4.4H321v-2.8h4.7v-3.7l-3.4.4h-.1l-1.5-2.7h.4c3.3-.3 6.7-.7 10-1.3h.2l1.7 2.2-.3.1-4 .9v4h4v2.9h-4v1.3a41.7 41.7 0 0 1 3.8 4.4l.1.2-1.8 2.5-.2-.3-2-3v12Zm.2-.2h2.5V47.8l2.4 3.5 1.5-2.1-1.5 2.1q-1.2-2-2.4-3.5v12.5Zm-5.5-7.7 1.5 2a28.7 28.7 0 0 0 4-6.5 28.7 28.7 0 0 1-4 6.5l-1.5-2Zm8-7.9V43h4.1-4.1Zm-7.2-1.6Zm7.2-7q2.2-.3 4.3-.8l-4.3.9Zm-7.3-1.4 1.2 2.3 3.6-.5-3.6.5-1.2-2.3Zm-16 25.8v-7.9a21.2 21.2 0 0 1-1.5 2.3 20 20 0 0 1-4.5 3.9h-.2l-1.4-2.3V60h-2.8v-1.3h-3.5v1.6h-2.8v-10h9.1v6h.1a17.8 17.8 0 0 0 4-3.3 18.6 18.6 0 0 0 2.1-2.8h-5.4v-2.7h6.9V46h-5.6V33.6h14.2v12.3H308v1.6h7.2v2.7h-5.9a17.4 17.4 0 0 0 2.2 2.8 13 13 0 0 0 3.8 2.9h.2l-1.5 3-.2-.2a17 17 0 0 1-4.1-3.8 19.7 19.7 0 0 1-1.7-2.3v7.9Zm.3-.2h2.4v-8.5a20 20 0 0 0 2 3 16.8 16.8 0 0 0 4 3.8l1.4-2.5-1.3 2.5a16.8 16.8 0 0 1-4-3.8 20 20 0 0 1-2.1-3v8.5Zm-16.8-.3h2.4v-1.5V60Zm6.3-.2h2.4Zm2.9-3.3 1.1 2a19.8 19.8 0 0 0 4.5-3.7 21.7 21.7 0 0 0 2-3 21.7 21.7 0 0 1-2 3 19.8 19.8 0 0 1-4.5 3.8l-1.1-2.1Zm-6.8-.3v-3.4Zm.2-.2h3.5v-3h-3.5Zm23.8-6Zm-16.5 0Zm9.3-2.3v-2h5.7-5.7Zm-8-2Zm8-2.1v-2.8Zm-5.5 0v-2.8Zm5.7-.3h2.8V41H308Zm-5.5 0h2.7V41h-2.7Zm5.3-4.5v-2.9Zm-5.5 0v-2.9Zm5.7-.2h2.8v-2.4H308Zm-5.5 0h2.7v-2.4h-2.7Zm-69.9 21.9v-7.3h-4l1.8 2-.1.2a16 16 0 0 1-3.7 2.6 28.7 28.7 0 0 1-4.6 2h-.2l-1.2-2.7.3-.1a24.3 24.3 0 0 0 4.3-1.8 17.3 17.3 0 0 0 3.2-2.1h-7.7v-2.6h12v-1.5h-10.3v-2.7h10.2V45h-11.3v-2.6h6a10.9 10.9 0 0 0-.8-1l-.2-.3L228 40h-7.2v-2.6h5v-.2a11.8 11.8 0 0 0-2-2.8l-.2-.2 2.2-1.4h.1a13.2 13.2 0 0 1 2.2 3l.1.2-2.3 1.4h3.7v-4.8h2.8v4.8h3.2v-4.8h2.8v4.8h3.2l-2.1-1.9.2-.1a11.8 11.8 0 0 0 2.6-2.5l.2-.2 2.4 1.6-.2.2a13.7 13.7 0 0 1-2.7 2.9h5.7V40H239l2.5.8v.2a12.9 12.9 0 0 1-.8 1.4h6.1V45h-11.2v1.5h9.9v2.7h-10v1.5H248v2.5h-8.3a46.3 46.3 0 0 1 7.5 4.4l.2.1-2.3 2.5-.1-.1a35 35 0 0 0-7-4.5l-.3-.1 1.8-2.3h-3.8v7.3Zm.3-.2h2.5V53h12.2-12.2v7.3Zm5-5A35 35 0 0 1 245 60l2-2.1-2 2a35 35 0 0 0-7-4.4Zm-17 2.1 1 2.4a28.4 28.4 0 0 0 4.6-2 15.8 15.8 0 0 0 3.6-2.5 15.8 15.8 0 0 1-3.6 2.5 28.4 28.4 0 0 1-4.5 2l-1-2.4Zm0-4.4Zm14.5-2v-2h9.9-10Zm-12.8-2Zm12.8-2.2v-2h11.2-11.2Zm-14-2Zm19-2.3a.4.4 0 0 0-.1.1.4.4 0 0 1 0-.1 13.2 13.2 0 0 0 .9-1.6 13.2 13.2 0 0 1-.8 1.6Zm-12.6.1a11 11 0 0 0-1.2-1.4 11 11 0 0 1 1.2 1.4Zm2.8-.2h6.8c0-.2.2-.4.3-.5a15.3 15.3 0 0 0 .8-1.9h-9.8a15.3 15.3 0 0 1 2 2.4Zm-9.6-2.7h26.5Zm17.2-2.1Zm-6 0Zm7.7-2 1.9 1.6a13.3 13.3 0 0 0 2.7-2.8 13.3 13.3 0 0 1-2.7 2.8l-2-1.7Zm-12 .3Zm-4-1.7v.1Zm-90 26.3v-8.7l-.6-2 .2-.1 2.2-1.5-2 .2h-.2l-.2-2a17.7 17.7 0 0 0 4.2-3.5l2.5.5-.3.3a20 20 0 0 1-2.6 2.4l1.6-.2 1.7-1.4v-.2l2.2 1.1-.3.2-3 2.4 1.8-.5v.1A11.7 11.7 0 0 1 143 51v.3l-1.7.5v4.8h-4.9v3.8Zm.3-.2h2v-3.8h5-5v3.8Zm2-5.7Zm-.9-3h1.1v2.8h2.6v-2.6h2c0-.4-.2-.7-.3-1a42.4 42.4 0 0 1-5.4.9Zm6 0 1.5-.4-1.6.5-.4-1.2a41.8 41.8 0 0 1-6.7 1l-.5-1.6.5 1.7a41.8 41.8 0 0 0 6.7-1.1l.4 1.2Zm-7.7-1.7 3-2-3 2Zm2.8-.3a36.5 36.5 0 0 0 5.8-4.2 36.5 36.5 0 0 1-5.8 4.2Zm1-.3 2.3-.4-.4-.6-.1-.2-1.8 1.2Zm2-1.1.7 1-.6-1 1.5-.5Zm-5.9-1.7.2 1.7 2.9-.3-2.9.3-.2-1.7Zm2.8-.1a18.1 18.1 0 0 0 3.3-2.8 18.1 18.1 0 0 1-3.3 2.8Zm-16 14v-27h12v9.4H123v17.7Zm.2-.1h2.4V42.6h9.2-9.2v17.7Zm2.4-19.6V39Zm.2-.2h6.3v-1.3h-6.3Zm-.2-3.4v-1.7Zm.2-.2h6.3v-1.3h-6.3ZM208.9 60c-1.2-.1-1.8-1-1.8-2.7V43.6h2.8v13l.1.7h.1a1.4 1.4 0 0 0 .7.1c.6 0 .6-.2.7-.3a6 6 0 0 0 .2-1.7l.2-2.8v-.3l2.7 1.4v.1c-.2 3.1-.6 4.9-1.1 5.5a1.4 1.4 0 0 1-1 .8 4.6 4.6 0 0 1-1.7.2 5.6 5.6 0 0 1-2-.3Zm-1.6-2.7q0 2.3 1.6 2.5a5.4 5.4 0 0 0 1.9.2 4.3 4.3 0 0 0 1.5-.1 1.1 1.1 0 0 0 1-.7q.7-.8 1.1-5.4-.4 4.6-1.1 5.4a1.1 1.1 0 0 1-1 .7 4.3 4.3 0 0 1-1.5.1 5.4 5.4 0 0 1-1.9-.2q-1.6-.2-1.6-2.5Zm2.4-.6Zm-69 3.3h-.2l-.6-3.2.3.1a9.1 9.1 0 0 0 2.8.5c.4 0 .5-.7.5-1.3V42.7h-9.3v-9.4h12.2V57a3.7 3.7 0 0 1-.8 2.5 2.8 2.8 0 0 1-2.2.9 16.6 16.6 0 0 1-2.8-.3Zm0-.2a16.4 16.4 0 0 0 2.7.2q2.7 0 2.7-3 0 3-2.7 3a16.4 16.4 0 0 1-2.7-.2L140 57Zm-6.2-17.3Zm2.3-2V39Zm.3-.2h6.4v-1h-6.4Zm-.3-3.2v-1.7Zm.3-.2h6.4v-1.3h-6.4Zm194.5 23v-2.7h7.5v-3.9H333v-2.6h6.2v-3.1l-6 .2h-.1l-.5-2.8h.3a76.3 76.3 0 0 0 14.4-1.2h.2l.9 2.4h-.3c-1.8.5-3.9.8-6 1v3.5h6v2.6h-6v3.9h6.9v2.7Zm.3-.3h16.8Zm9.8-2.2v-4.3h6-6Zm-8.5-4.3Zm8.5-6a62.4 62.4 0 0 0 6.3-1 62.4 62.4 0 0 1-6.3 1Zm-9-1.9.5 2.4-.4-2.4Zm6.6 2.2Zm-141 8.4a16.9 16.9 0 0 0-2.5-4.2l-.1-.2L198 50l.1.1a19.7 19.7 0 0 1 2.7 4.3v.2l-2.4 1.4Zm-2.3-4.4a17 17 0 0 1 2.5 4.3l2-1.2-2 1.2a17 17 0 0 0-2.5-4.3ZM154.4 55a27.4 27.4 0 0 0-1-5.6l-.1-.2 2.4-.5v.2a30.6 30.6 0 0 1 1.1 5.6v.2l-2.3.6Zm-.8-5.6a27.5 27.5 0 0 1 1 5.6l2-.5-2 .5a27.5 27.5 0 0 0-1-5.6Zm134.9-1v-2.7h8.7v2.7Zm.2-.2h8.2Zm-.2-4.4V41h8.7v2.7Zm.2-.2h8.2Zm45.2-.6v-9.4h13.4V43Zm.2-.3h13Zm2.5-2.3v-4.3Zm.2-.2h7.6v-4h-7.6Zm-125.9-1a15.7 15.7 0 0 0-2.3-4l-.2-.3 2.4-1.4v.1a21 21 0 0 1 2.6 4.2l.1.2-2.5 1.4Zm-2.1-4.2a16 16 0 0 1 2.4 4.1l2-1.2-2 1.2a16 16 0 0 0-2.4-4.1Zm78.6 3.9v-2.7h3.9a16.6 16.6 0 0 0-.9-2.8v-.2l2.7-.8v.2a18.8 18.8 0 0 1 1.2 3.6h4.2v2.7Zm.2-.2h10.7Zm4-2.3a17 17 0 0 0-1-3 17 17 0 0 1 1 3Zm-104.9 2.4V36h5.5a15.4 15.4 0 0 0-1-2.3l-.1-.3 3-1 .1.2a15 15 0 0 1 1.4 3.4h5.6v2.7Zm.2-.2H201Zm5.6-2.3a15.9 15.9 0 0 0-1.1-2.6 15.9 15.9 0 0 1 1.1 2.6Z"/>
  <path fill="#fff" d="m163 60.7.2-.2a18.1 18.1 0 0 0 3-3.9 8.4 8.4 0 0 0 .6.6c1.5 1.6 4.4 2.4 8.5 2.5h5.6l.8-3-.3.1-5.6.2v-3.2h4.5v-2.5h-4.5v-1.8h4V47h-4v-1.7h4v-4h1.1v-2.6h-1.2v-4.2h-4v-2h-2.6v2h-3V37h3v1.7h-4.5v2.6h4.5v1.5h-3v2.5h3V47h-3.5v2.5h3.5v1.8h-4.5v2.5h4.5V57c-2.4-.2-4-.8-4.8-1.8a10.7 10.7 0 0 1-.8-1.1 36 36 0 0 0 2-11.6v-.2h-3.2a47.7 47.7 0 0 0 3.3-7.5v-.3h-6.8v2.3a28.2 28.2 0 0 0-3.2-2.6l.3-.7V33l-2.6-.6-.1.2a16.9 16.9 0 0 1-1.8 3.6 16.3 16.3 0 0 1-2.7 3.3l-.1.1 1.8 2 .1-.1v1.2h2.6v2.5h-3.6V48h3.6v8.2l-4 .8h-.2l1 2.7h.1a70.7 70.7 0 0 0 8.7-2.9 13.1 13.1 0 0 1-1.1 1.4l-.2.1 1.6 2.4m0-.3-1.3-2 1.3 2a18 18 0 0 0 3.2-4.2 8.6 8.6 0 0 0 .8.9q2.1 2.3 8.3 2.3h5.4l.7-2.4-.7 2.4h-5.4q-6.2 0-8.3-2.3a8.6 8.6 0 0 1-.8-.9 18 18 0 0 1-3.2 4.2m-6.1-1.8 5.9-2-6 2q-1.3.5-2.8.8l2.9-.8m18.7-1.8v-3.2h4.5-4.5v3.2m-13-2.3h-.3l-.3.2v-.1l1.3-5.2a25.2 25.2 0 0 0 1.3 4.4 17.8 17.8 0 0 1-1.6 2.7l-.4-2m-3-6.8h3.4-3.5m.3.3h3.2l.2 1.2-2.3-.5v.2a54 54 0 0 1-1 5.1v.2l1.9.5-2 .7V48m2 6.5-1.6-.4 1.6.4q.6-2 1.2-5.1-.6 3-1.2 5.1m7.6-12.1a35.6 35.6 0 0 1-2.2 11.6 35.6 35.6 0 0 0 2.2-11.6m-6.2 5.6a27.2 27.2 0 0 0 1.6 5.8 27.2 27.2 0 0 1-1.6-5.8m12.4 1.3h3.9-4m-10.1-2.5-2.1 1v-2.5h-3.5v-2.5h2.5v-2.6h-.1L164 38l-.1-.1-1-1h3a31.2 31.2 0 0 1-2.7 5.6l.3 2.2h3.5a45.2 45.2 0 0 1-1 5.3 34 34 0 0 1-.6-2.8v-.3m10.2-1.8h3.9v-4h1.2-1.2v4h-4m-16-2.5h2.5-2.5m3.8-.1.4 1.9-.3-2m12.4-1h1.3v1.5h-1.3v-1.5m-6.4-6.7a45.7 45.7 0 0 1-3.5 7.8 45.7 45.7 0 0 0 3.5-7.8m-15 6.8-1.5-1.7 1.5 1.7m4-5.3a30 30 0 0 1 3.8 3.8l1.5-2-1.5 2a30 30 0 0 0-3.8-3.8 14 14 0 0 1-1 1.7 17 17 0 0 1-2 2.6 17 17 0 0 0 2-2.6 14 14 0 0 0 1-1.7m.1.4A30.2 30.2 0 0 1 162 40l.2.2h-6.3a17.7 17.7 0 0 0 1.7-2.3 13.9 13.9 0 0 0 1-1.4m17.1.5h1.3v1.7h-1.3V37m-16.1-3.7q0 .5-.3.9l.4-.9m96.9 27.4.1-.1a24.2 24.2 0 0 0 8.6-7.8c1.5-2 2.4-5.8 3-11h8c0 5.3 0 9.3-.3 12a6.5 6.5 0 0 1-.6 2.5 1.7 1.7 0 0 1-1.4.5 38.7 38.7 0 0 1-5.8-.4l-.3-.1.7 3.3h.2a40.7 40.7 0 0 0 5.2.4 6 6 0 0 0 3.3-.8 5.5 5.5 0 0 0 1.7-3.4c.4-2.3.7-8 .7-16.8v-.2h-11.3l.1-5.4v-.2h-3v.2c0 2 0 3.7-.2 5.4h-9.6v3h9.4c-.4 4.3-1.2 7.3-2.4 9.2a21.7 21.7 0 0 1-7.6 7h-.2l1.7 2.7m0-.3-1.4-2.3 1.4 2.3 1.2-.7-1.2.7m11.6-3.8.6 2.8a40.4 40.4 0 0 0 5.2.4 5.8 5.8 0 0 0 3.2-.8 5.3 5.3 0 0 0 1.5-3.3q.8-3.4.8-16.7 0 13.3-.8 16.7a5.3 5.3 0 0 1-1.5 3.3 5.8 5.8 0 0 1-3.2.8 40.4 40.4 0 0 1-5.2-.4l-.6-2.8m-.2-15-.2 2 .2-2m.3-8.2-.1 5.6.1-5.6m-75.7 27.2a2.8 2.8 0 0 0 2.3-.8 4 4 0 0 0 .5-2.5v-8h4.3v-8.6H188v8.6h4.6v7.4a3.2 3.2 0 0 1-.1 1h-.3a9 9 0 0 1-2.5-.3h-.2a34.5 34.5 0 0 0 2.4-6v-.2l-2.3-1.3-.1.3a30.9 30.9 0 0 1-3.2 7l2 2 .1-.1a16 16 0 0 0 1-1.6l.5 2.8h.1a12.8 12.8 0 0 0 2.6.3m-3-3 .5 2.5a12.4 12.4 0 0 0 2.5.3 2.6 2.6 0 0 0 2-.8 4 4 0 0 0 .6-2.3V49h4.3-4.3v8.2a4 4 0 0 1-.5 2.3 2.6 2.6 0 0 1-2.1.8 12.4 12.4 0 0 1-2.5-.3l-.4-2.5m-1.4 1.4-1.8-1.7 1.8 1.7a27.7 27.7 0 0 0 3.4-7.7 27.7 27.7 0 0 1-3.4 7.7m2.6-15.6h6v3.4h-6v-3.4m8.3 17.3.2-.1a18 18 0 0 0 4.5-5 24.2 24.2 0 0 0 2.7-8l.5-5.1h7v-2.8h-6.9l.2-6.8v-.2h-3v7h-4v2.8h3.9a38.3 38.3 0 0 1-.6 4.7 21.6 21.6 0 0 1-2 6.2 14.5 14.5 0 0 1-3.8 4.7h-.1l1.4 2.6m0-.3-1.1-2.2 1.2 2.2a17.8 17.8 0 0 0 4.4-5 23.9 23.9 0 0 0 2.7-7.9q.3-2.1.5-5.3h7-7q-.2 3.2-.5 5.3a23.9 23.9 0 0 1-2.7 8 17.8 17.8 0 0 1-4.4 4.9m7.8-27.5v7-7m-81.7 27.7h.1a10.3 10.3 0 0 0 5.2-1.9 5 5 0 0 0 1.7-4v-2.9l1.1-.3V51a13.1 13.1 0 0 0-1.6-3.4l-.1-.1-1.6.4c1-.6 1.9-1.4 2.8-2.3l.3-.2-2.1-1-.2.1-1.5 1.4-1.7.2a20.8 20.8 0 0 0 2.6-2.4l.3-.2-2.4-.7-.1.1a17.5 17.5 0 0 1-4.1 3.5h-.2l.3 2h.2l2.2-.2-2.4 1.6-.2.1.6 2h.3v4.4h4.6a2.3 2.3 0 0 1-.6.6 9 9 0 0 1-4.3 1.1h-.3l1 2.4m.2-.2-.9-2 .9 2a10 10 0 0 0 5.1-1.8 4.7 4.7 0 0 0 1.6-4 4.7 4.7 0 0 1-1.6 4 10 10 0 0 1-5.1 1.8m5.7-9.3.3.8H130v2.5h-2.6v-2.3h-1.5a38.5 38.5 0 0 0 5.3-1m-6.4.9-.5-1.7.5 1.7a38 38 0 0 0 6.5-1.2l.4 1 1.6-.4-1.6.5q-.1-.6-.4-1a38 38 0 0 1-6.5 1.1m8.1-6.2a39.7 39.7 0 0 1-5.7 4.2 39.7 39.7 0 0 0 5.7-4.2m-3 2.7v.1l.5.7-2.2.4 1.7-1.2m.2 0a8.8 8.8 0 0 1 .6 1 8.8 8.8 0 0 0-.6-1m-5.7 0-.2-1.6.2 1.6 3-.3-3 .3m5.9-4.6a18.8 18.8 0 0 1-3.3 2.8 18.8 18.8 0 0 0 3.3-2.8m198.3 16.8v-12l2 3 .2.2 1.8-2.5V49a41.7 41.7 0 0 0-4-4.4v-1.3h4.2v-2.8h-4.2v-4.1l4.1-.9h.3l-1.7-2.3h-.1c-3.4.6-6.8 1-10.1 1.3h-.4l1.5 2.7h.1l3.4-.4v3.7H321v2.8h4.4a27.5 27.5 0 0 1-2 4.4 27.7 27.7 0 0 1-3.2 4.8v.1l1.7 2.4.2-.2a28.7 28.7 0 0 0 3.6-5.7v11.4h3m-.3-.2V47.8l2.4 3.5 1.5-2.1-1.5 2.1q-1.2-2-2.4-3.5v12.5m-6.5-5.7-1.5-2 1.5 2a28.7 28.7 0 0 0 4-6.5 28.7 28.7 0 0 1-4 6.5m6.5-11.5h4.1-4.1m4.3-7.8-4.3.9 4.3-.9M322.3 37l-1.2-2.3 1.2 2.3 3.6-.5-3.6.5M308 60.5v-7.9a19.7 19.7 0 0 0 1.7 2.3 17 17 0 0 0 4 3.9h.3l1.5-2.8-.2-.1a13 13 0 0 1-3.8-3 17.4 17.4 0 0 1-2.2-2.7h5.9v-2.7H308V46h5.8V33.6h-14.2v12.3h5.6v1.6h-7v2.7h5.5a18.6 18.6 0 0 1-2.1 2.8 17.8 17.8 0 0 1-4 3.3v-6h-9.2v10h2.8v-1.6h3.5V60h2.8v-3.5L299 59l.1-.1a20 20 0 0 0 4.5-3.9 21.2 21.2 0 0 0 1.7-2.2v7.8h2.8m-.2-.2v-8.5a20 20 0 0 0 2 3 16.8 16.8 0 0 0 4 3.8l1.4-2.5-1.3 2.5a16.8 16.8 0 0 1-4-3.8 20 20 0 0 1-2.1-3v8.5M291 60v-1.5V60m7.9-1.4-1.2-2.1 1.2 2a19.8 19.8 0 0 0 4.5-3.7 21.7 21.7 0 0 0 2-3 21.7 21.7 0 0 1-2 3 19.8 19.8 0 0 1-4.5 3.8m-7.7-5.6h3.5v3h-3.5v-3m17.7-3h6-6m-1.1-4.3h5.7-5.7m.2-4.7h2.8v2.3H308V41m-5.5 0h2.7v2.3h-2.7V41m5.5-4.8h2.8v2.4H308v-2.4m-5.5 0h2.7v2.4h-2.7v-2.4m-67 24.3v-7.3h3.9l-1.8 2.3h.3a35 35 0 0 1 7 4.6h.1l2.3-2.4-.2-.1a46.3 46.3 0 0 0-7.5-4.4h8.3v-2.5h-12.3v-1.5h9.9v-2.7h-10V45h11.3v-2.6h-6.1a12.9 12.9 0 0 0 .7-1.4l.1-.2-2.5-.8h8.7v-2.6H242a13.7 13.7 0 0 0 2.7-3l.2-.1-2.4-1.6-.2.2a11.8 11.8 0 0 1-2.6 2.5l-.2.1 2.1 1.9h-3.2v-4.8h-2.8v4.8h-3.2v-4.8h-2.8v4.8H226l2.3-1.4v-.2a13.2 13.2 0 0 0-2.3-3l-2.3 1.4.1.2a11.8 11.8 0 0 1 2 2.8l.1.2h-5V40h7.2l-1.7 1.1.2.2a10.9 10.9 0 0 1 .8 1h-6V45h11.3v1.5h-10.2v2.7h10.2v1.5h-11.9v2.5h7.8a17.3 17.3 0 0 1-3.3 2.2 24.3 24.3 0 0 1-4.3 1.8h-.3l1.2 2.8h.2a28.7 28.7 0 0 0 4.6-2 16 16 0 0 0 3.7-2.6l.1-.1-1.7-2h4v7.2h2.9m-.2-.2V53h12.2-12.2v7.3m9.6-.4a35 35 0 0 0-7-4.5 35 35 0 0 1 7 4.5l2-2.1-2 2m-23 0-1-2.4 1 2.4a28.4 28.4 0 0 0 4.5-2 15.8 15.8 0 0 0 3.6-2.5 15.8 15.8 0 0 1-3.6 2.5 28.4 28.4 0 0 1-4.5 2M235.4 49h9.9-10m.2-4.3h11.2-11.2m5.7-3.8a13.2 13.2 0 0 1-.8 1.6.4.4 0 0 0-.1.1.4.4 0 0 1 0-.1 13.2 13.2 0 0 0 .9-1.6m-14.6.3a11 11 0 0 1 1.2 1.4 11 11 0 0 0-1.2-1.4m2.1-1.2h9.8a15.3 15.3 0 0 1-.8 1.9l-.3.5h-6.8a15.3 15.3 0 0 0-1.9-2.4m13.1-2.8-2-1.7 2 1.7a13.3 13.3 0 0 0 2.7-2.8 13.3 13.3 0 0 1-2.7 2.8m-17.9-3v.1m-87.5 26.2v-3.8h5v-4.8l1.6-.5V51a11.7 11.7 0 0 0-1.8-3.5l-.1-.1-1.8.5q1.5-1 3-2.4l.3-.2-2.1-1h-.1l-1.7 1.5-1.6.2a20 20 0 0 0 2.6-2.4l.3-.3-2.4-.6-.1.1a17.7 17.7 0 0 1-4.1 3.5h-.2l.3 2h.2c.7 0 1.4 0 2-.2l-2.2 1.5h-.2l.6 2.1v8.7h2.5m-.2-.2v-3.8h5-5v3.8m4.5-9.6c0 .4.2.7.3 1h-2v2.7h-2.6v-2.7h-1a42.4 42.4 0 0 0 5.3-1m.1-.2a41.8 41.8 0 0 1-6.7 1l-.5-1.6 3-2-2.9.3-.2-1.7.2 1.7 2.9-.3-3 2 .5 1.7a41.8 41.8 0 0 0 6.7-1.1l.4 1.2 1.6-.5-1.6.5-.4-1.2m1.4-5a36.5 36.5 0 0 1-5.8 4 36.5 36.5 0 0 0 5.8-4m-3 2.6v.2l.5.6-2.3.4 1.7-1.2m1.9-.4-1.5.5.6 1-.6-1 1.5-.5m-1.4-4.1a18.1 18.1 0 0 1-3.3 2.8 18.1 18.1 0 0 0 3.3-2.8m-16.6 17V42.8h9.2v-9.5h-12v27.2h2.8m-.2-.2V42.6h9.2-9.2v17.7m.2-21.1h6.3v1.3H123v-1.3m-.2-2v-1.8 1.7m.2-1.4h6.3v1.2H123v-1.3m87.7 24.7a4.6 4.6 0 0 0 1.6-.2 1.4 1.4 0 0 0 1-.8c.6-.6 1-2.4 1.2-5.5v-.1l-2.7-1.4v.3l-.2 2.8a6 6 0 0 1-.2 1.7s-.1.3-.7.3a1.4 1.4 0 0 1-.7 0c0-.1-.2-.2-.2-.7V43.6H207v13.7c0 1.6.6 2.6 1.8 2.7a5.6 5.6 0 0 0 1.9.3m0-.3a5.4 5.4 0 0 1-1.9-.2q-1.6-.2-1.6-2.5 0 2.3 1.6 2.5a5.4 5.4 0 0 0 1.9.2 4.3 4.3 0 0 0 1.5-.1 1.1 1.1 0 0 0 1-.7q.7-.8 1.1-5.4-.4 4.6-1.1 5.4a1.1 1.1 0 0 1-1 .7 4.3 4.3 0 0 1-1.5.1m-67.3.3a2.8 2.8 0 0 0 2.2-.9 3.7 3.7 0 0 0 .8-2.5V33.3h-12.2v9.4h9.3v13.4c0 .6 0 1.3-.5 1.3a9.1 9.1 0 0 1-2.8-.5l-.3-.1.6 3.2h.1a16.6 16.6 0 0 0 2.8.2m-3.3-3 .5 2.6a16.4 16.4 0 0 0 2.8.2q2.7 0 2.7-3 0 3-2.7 3a16.4 16.4 0 0 1-2.8-.2l-.5-2.7m-3-17.9h6.4v1.1h-6.4v-1m-.3-2.2v-1.7 1.7m.3-1.4h6.4v1.2h-6.4v-1.3M348.9 60v-2.7h-7v-3.9h6v-2.6h-6v-3.4c2.2-.3 4.3-.6 6.1-1h.3l-1-2.5h-.1a76.3 76.3 0 0 1-14.4 1.2h-.3l.5 2.9h.2l6-.3v3.1h-6.3v2.6h6.2v3.9h-7.5V60H349m-7.2-6.8h6-6m6.2-7.1a62.4 62.4 0 0 1-6.3 1 62.4 62.4 0 0 0 6.3-1m-15.2-.9.4 2.4-.4-2.4M198.4 56l2.5-1.4-.1-.2a19.7 19.7 0 0 0-2.7-4.3l-.1-.1-2.3 1.4.1.2a16.9 16.9 0 0 1 2.5 4.2l.1.2m.1-.3a17 17 0 0 0-2.5-4.3 17 17 0 0 1 2.5 4.3l2-1.2-2 1.2m-44-.4 2.3-.6v-.2a30.6 30.6 0 0 0-1-5.6l-.1-.2-2.4.5v.3a27.4 27.4 0 0 1 1.1 5.5v.3m.2-.3a27.5 27.5 0 0 0-1-5.6 27.5 27.5 0 0 1 1 5.6l2-.5-2 .5m142.6-6.6v-2.7h-8.7v2.7h8.7m0-4.6V41h-8.7v2.7h8.7m50.1-.8v-9.4H334V43h13.4m-10.6-6.7h7.6v4h-7.6v-4M211 39.4l2.5-1.4v-.2a21 21 0 0 0-2.6-4.2l-.1-.1-2.4 1.4.2.2a15.7 15.7 0 0 1 2.3 4.1l.1.2m.2-.3a16 16 0 0 0-2.4-4.1 16 16 0 0 1 2.4 4.1l2-1.2-2 1.2m87.3-.2v-2.7h-4.2a18.8 18.8 0 0 0-1.1-3.6v-.2l-2.9.8.1.2a16.6 16.6 0 0 1 .9 2.8h-4v2.7h11.2m-7.9-5.6a17 17 0 0 1 1 3.1 17 17 0 0 0-1-3m-89.4 5.4V36h-5.6a15 15 0 0 0-1.4-3.4v-.2l-3.1 1v.3a15.4 15.4 0 0 1 1.1 2.3h-5.5v2.7h14.5m-9.8-5.1a15.9 15.9 0 0 1 1.1 2.7 15.9 15.9 0 0 0-1.1-2.6m-28.4 28a1 1 0 0 1-.9-.4l-1.5-2.5c-2 .6-4.1 1.3-6.3 1.8h-.2a1 1 0 0 1-1.2-.6l-1-2.6a1 1 0 0 1 .8-1.3h.3l.7-.2a1 1 0 0 1-.2-.5v-.3a26.4 26.4 0 0 0-1-5.4l-.2-.2a1 1 0 0 1 .3-1 1 1 0 0 1 0-.5v-2.7a1 1 0 0 1 1-1h2.5v-.5h-1.6a1 1 0 0 1-1-1v-.5l-1.7-1.9a1 1 0 0 1 0-1.4l.2-.1a15.3 15.3 0 0 0 2.5-3 15.9 15.9 0 0 0 1.7-3.5l.1-.2a1 1 0 0 1 1.2-.6l2.7.6a1 1 0 0 1 .7 1.3v.2l1 .8v-.1a1 1 0 0 1 1-1h6.8a1 1 0 0 1 .4.1h2v-1a1 1 0 0 1 1-1h2.7a1 1 0 0 1 1 1v1h3a1 1 0 0 1 1 1v3.2h.1a1 1 0 0 1 1 1v2.6a1 1 0 0 1-1 1h-.2v3a1 1 0 0 1-.5.9 1 1 0 0 1 .5.8v2.5a1 1 0 0 1-.5.8 1 1 0 0 1 1 1v2.5a1 1 0 0 1-1 1h-3.4V56c1.4 0 3 0 4.5-.2h.3a1 1 0 0 1 1 1.2l-.8 3a1 1 0 0 1-1 .7h-5.5a21.3 21.3 0 0 1-5.5-.7 8.4 8.4 0 0 1-3.4-1.8 18.8 18.8 0 0 1-2.5 3l-.2.3a1 1 0 0 1-.7.2Zm6.4-6.9a6 6 0 0 0 2.7 1v-1Zm-6.1-1a1 1 0 0 1 .1.1v-.4l-.1.3Zm1-8.2v.6l.6-.3a1 1 0 0 1 .9 0v-.3Zm-3.5-1.3h1.7l-.1-.5h-1.6Zm-2.8-5h2l-1.2-1.2-.3.4-.5.7Zm98.6 22.4a1 1 0 0 1-.9-.5l-1.7-2.6a1 1 0 0 1 .4-1.4l.2-.1a20.7 20.7 0 0 0 7.2-6.7c1-1.5 1.8-4 2.2-7.5h-8.3a1 1 0 0 1-1-1v-3.1a1 1 0 0 1 1-1h8.7v-4.6a1 1 0 0 1 1-1h3.1a1 1 0 0 1 1 1v4.6h10.2a1 1 0 0 1 1 1v.2c0 9-.3 14.6-.8 17a6.4 6.4 0 0 1-2 4 7 7 0 0 1-4 1 41.7 41.7 0 0 1-5.2-.4h-.2a1 1 0 0 1-.8-.8l-.8-3.3a1 1 0 0 1 1.2-1.2h.3a37.7 37.7 0 0 0 5.6.5 1.6 1.6 0 0 0 .6 0 7.7 7.7 0 0 0 .4-2.2c.2-2.4.3-6 .4-10.7H269a23 23 0 0 1-3 10.5 25.2 25.2 0 0 1-8.9 8l-.1.2a1 1 0 0 1-.5 0Zm-64 0a13.8 13.8 0 0 1-2.8-.3h-.1a1 1 0 0 1-.8-1v-.3a1 1 0 0 1-1.3 0l-2-2a1 1 0 0 1-.2-1.3v-.2a29.6 29.6 0 0 0 3-6.3h-.4a1 1 0 0 1-1-1v-8.6a1 1 0 0 1 .7-1h-1a1 1 0 0 1-1-1v-2.6a1 1 0 0 1 1-1h4l-.4-.8-.1-.3a1 1 0 0 1 .5-1.4l3-1a1 1 0 0 1 1.3.4v.2a15.8 15.8 0 0 1 1.4 2.9h4.8a1 1 0 0 1 1 1v2.5h1.2v-6a1 1 0 0 1 1-1h3a1 1 0 0 1 1 1v1.2l1.8-1.2a1 1 0 0 1 1.4.3v.1a22 22 0 0 1 2.7 4.4l.1.2a1 1 0 0 1-.1 1 1 1 0 0 1 .8 1v2.8a1 1 0 0 1-1 1H211a1 1 0 0 1 0 .2V52a1 1 0 0 1 1.5-.7l2.7 1.4a1 1 0 0 1 .5 1v.1c-.3 4-.8 5.3-1.2 6a2.3 2.3 0 0 1-1.7 1.1 5.7 5.7 0 0 1-2 .3 6.8 6.8 0 0 1-2-.3 2.7 2.7 0 0 1-2-1.2 4.5 4.5 0 0 1-.6-2.5V53a19.6 19.6 0 0 1-1.4 3 19 19 0 0 1-4.7 5.2l-.2.2a1 1 0 0 1-1.5-.3l-1.4-2.5a1 1 0 0 1 .2-1.3l.2-.1.4-.4a1 1 0 0 1-.2-.4l-.1-.2a15 15 0 0 0-1-2v3a4.9 4.9 0 0 1-.8 3.2 3.7 3.7 0 0 1-3 1.2Zm-1.6-5h.6v-1.4l-.6 1.4Zm8.5-6.4a20.8 20.8 0 0 1 1.4 2.2 21 21 0 0 0 1.9-5.6 32.5 32.5 0 0 0 .4-3.5h-2.5v5.9a1 1 0 0 1-1 1Zm-7.6-4.6h4v-1.4h-4Zm16.4-7h1.3a14.8 14.8 0 0 0-1.3-2.3v2.2Zm-83 22.8a1 1 0 0 1-.8-.6l-.4-.8v.4a1 1 0 0 1-1 1h-2.8a1 1 0 0 1-1-1V33.3a1 1 0 0 1 1-1h12a1 1 0 0 1 1 .8 1 1 0 0 1 1-.8h12a1 1 0 0 1 1 1V57a4.6 4.6 0 0 1-1 3.2 3.8 3.8 0 0 1-2.9 1.2 17.6 17.6 0 0 1-3-.3h-.1a1 1 0 0 1-.8-.9l-.5-2.4h-1.6v2.8a1 1 0 0 1-1 1H134a1 1 0 0 1-1-1V57a5 5 0 0 1-1.6 2.3 11.2 11.2 0 0 1-5.7 2l-.2.1a1 1 0 0 1-.1 0Zm17-5.1h.2v-3.8h-.1Zm-4.9-3h.6v-1.1h-.6Zm-9-.2h.6v-.8l-.6.1Zm13.7-6 .4.6v-1l-.4.3Zm-18-3.4v1.5a19 19 0 0 0 1.9-1.5Zm8 0 1.6.8a1 1 0 0 1 .3.2l1.3-1h-1a1 1 0 0 1-1-.8 1 1 0 0 1-1 .8Zm9.4 0 1 .4v-.5Zm187.1 17.7h-3a1 1 0 0 1-1-1V53a28.7 28.7 0 0 1-1.7 2.4l-.2.2a1 1 0 0 1-1.5 0l-1.9-2.4a1 1 0 0 1 0-1.2l.2-.2a26.8 26.8 0 0 0 3-4.6 26.2 26.2 0 0 0 1.5-3h-3a1 1 0 0 1-1-1v-2.7a1 1 0 0 1 1-1h3.7v-1.6l-2.3.3h-.1a1 1 0 0 1-1-.5l-1.5-2.7a1 1 0 0 1 .8-1.5h.4c3.3-.3 6.7-.7 10-1.3h.2a1 1 0 0 1 1 .4l.7 1a1 1 0 0 1 1-1h13.5a1 1 0 0 1 1 1V43a1 1 0 0 1-.1.3 1 1 0 0 1 0 .2l.9 2.4a1 1 0 0 1-.7 1.3h-.3a62 62 0 0 1-5.3 1v1.5h5a1 1 0 0 1 1 1v2.6a1 1 0 0 1-1 1h-5v1.9h6a1 1 0 0 1 1 1v2.7a1 1 0 0 1-1 1h-17.3a1 1 0 0 1-1-1v-2.7a1 1 0 0 1 1-1h6.5v-1.9H333a1 1 0 0 1-1-1v-1.5l-.3.5a1 1 0 0 1-1.7 0l-.2-.3v-.2 8.7a1 1 0 0 1-1 1Zm4.9-11.8h4.6v-1l-4.5.1a1 1 0 0 1-.1 1Zm-3.8-5.4 2 2.2-.2-1.3a1 1 0 0 1 .3-1Zm3.8-.4a1 1 0 0 1 0 .1h2.8-2.4a1 1 0 0 1-.4 0Zm-3.9-4.4h3.2v-3l-3.2.7Zm8.2-.3h5.6v-2h-5.6ZM308 61.5h-2.8a1 1 0 0 1-1-1v-4.8a20.7 20.7 0 0 1-4.7 4h-.2a1 1 0 0 1-.8.1v.2a1 1 0 0 1-1 1h-2.8a1 1 0 0 1-1-1v-.3h-1.5v.6a1 1 0 0 1-1 1h-2.8a1 1 0 0 1-1-1v-10a1 1 0 0 1 .6-1 1 1 0 0 1-.5-.9v-2.7a1 1 0 0 1 .7-1 1 1 0 0 1-.7-1v-2.6a1 1 0 0 1 1-1h8.7a1 1 0 0 1 1 1v2.7a1 1 0 0 1-.8 1 1 1 0 0 1 .8 1v.7h.6a1 1 0 0 1-.2-.6v-6a1 1 0 0 1-.1 0h-11.1a1 1 0 0 1-1-1v-2.7a1 1 0 0 1 1-1h2.6l-.5-1.4-.1-.3a1 1 0 0 1 .6-1.3l2.8-.7a1 1 0 0 1 1.2.5v.2a20.3 20.3 0 0 1 1.1 3h3.4v-1.6a1 1 0 0 1 1-1h14.2a1 1 0 0 1 1 1v12.3a1 1 0 0 1-.2.6h.7a1 1 0 0 1 1 1v2.7a1 1 0 0 1-1 1h-4l1 1a12 12 0 0 0 3.5 2.8h.2a1 1 0 0 1 .5 1.4l-1.6 3a1 1 0 0 1-1.4.3l-.2-.1a17.9 17.9 0 0 1-4.2-3.9v4.8a1 1 0 0 1-1 1ZM292.2 55h1.5v-1h-1.5Zm6.3-3.8v3.2a20.6 20.6 0 0 0 2.3-2.1l1-1Zm10.5-8.9h.8V42h-.8Zm-5.5 0h.7V42h-.7Zm5.5-4.7h.8v-.4h-.8Zm-5.5 0h.7v-.4h-.7Zm-68 23.9h-2.9a1 1 0 0 1-1-1v-6.3h-.8l.4.4a1 1 0 0 1-.1 1.4l-.1.1a17 17 0 0 1-4 2.8 29.7 29.7 0 0 1-4.6 2h-.2a1 1 0 0 1-1.3-.5l-1.2-2.7a1 1 0 0 1 .6-1.4h.3a23.3 23.3 0 0 0 4.1-1.7l.6-.4h-4.6a1 1 0 0 1-1-1v-2.5a1 1 0 0 1 1-1h.8a1 1 0 0 1-.1-.5v-2.7a1 1 0 0 1 .1-.5h-.2a1 1 0 0 1-1-1v-2.6a1 1 0 0 1 1-1h4a1 1 0 0 1 0-.4h-4.5a1 1 0 0 1-1-1v-2.6a1 1 0 0 1 1-1h3.3a11.8 11.8 0 0 0-1-1.3l-.3-.2a1 1 0 0 1 .2-1.6l2.3-1.4a1 1 0 0 1 1.2.2h.2a14.4 14.4 0 0 1 2 2.6v-2.1a1 1 0 0 1 1-1h2.7a1 1 0 0 1 1 1v3.8h1.2v-3.8a1 1 0 0 1 1-1h2.8a1 1 0 0 1 1 1v1.8a10.5 10.5 0 0 0 2.1-2.1l.2-.2a1 1 0 0 1 1.3-.2l2.4 1.6a1 1 0 0 1 .3 1.4l-.2.2-1 1.3h3.2a1 1 0 0 1 1 1V40a1 1 0 0 1-1 1h-5.2a1 1 0 0 1 0 .2l-.2.2h4.5a1 1 0 0 1 1 1V45a1 1 0 0 1-1 1h-.5a1 1 0 0 1 .2.5v2.7a1 1 0 0 1-.2.5h1.6a1 1 0 0 1 1 1v2.5a1 1 0 0 1-1 1h-4.2a45.3 45.3 0 0 1 4 2.6l.1.1a1 1 0 0 1 .2 1.5l-2.2 2.5a1 1 0 0 1-1.4 0h-.2a34 34 0 0 0-6.8-4.4l-.2-.1a1 1 0 0 1-.4-1.6l.5-.6h-.7v6.3a1 1 0 0 1-1 1Zm-4.3-20.1h5.6l.2-.4h-6.1l.3.4Z"/>
  <g transform="translate(5.3 3)">
    <circle cx="6" cy="6" r="6" fill="#ea5514" transform="translate(26.5 9.5)"/>
    <path fill="#ea5514" d="m43.7 22.2.8-2.2s.3-1.2-.4-1.4c0 0-.5-.2-1.1.9a13.7 13.7 0 0 1-7.3 5S26 28 16.1 12.4l-1-1.6a1 1 0 0 0-.1-.2.5.5 0 0 0-.5-.2.5.5 0 0 0-.5.6 6.2 6.2 0 0 0 .5 1.3s16 36.1 32.5 43c0 0-9.5-17.5-3.3-33.1Z"/>
    <path fill="#f8b62d" d="M66.2 52c-.8 2.5-2.6 4.5-6.4 4.5-3.7 0-5.2-2.3-5.2-5.5 0-3.7 2-8.7 7.3-8.7 4 0 5.2 2.5 5 4.7h-3.5c0-1-.2-2-1.8-2-2.2 0-3.2 3.7-3.2 6 0 1.8.6 2.8 1.8 2.8a2.3 2.3 0 0 0 2.3-1.8Zm14.7-4.2c0 3.5-1.7 8.7-7.5 8.7-3.8 0-5.5-2.3-5.5-5.6 0-3.4 2-8.6 7.5-8.6 3.6 0 5.5 2.3 5.5 5.5Zm-9.2 3.4c0 1.7.7 2.6 2 2.6 2.5 0 3.4-4.4 3.4-6.3 0-1.7-.5-2.6-2-2.6-2.4 0-3.4 4.1-3.4 6.3Zm14.6-.4-1.1 5.4h-3.6l2.9-13.7h5.4c3 0 4.4 1.5 4.4 3.5a3.7 3.7 0 0 1-2.6 3.6c1 .6 1.4 1.7 1 3.7a20.6 20.6 0 0 0-.5 2.9h-3.6a15.2 15.2 0 0 1 .5-3.1c.3-1.4.2-2.3-1.3-2.3Zm.5-2.6h1.6c1.5 0 2.2-.6 2.2-1.8 0-1-.8-1.3-1.6-1.3h-1.5Zm17.9 2.4h-5.5l-.6 2.9h6.5l-1 2.7h-9.6l2.9-13.7h9.3l-.6 2.8h-5.7l-.6 2.5h5.5ZM5.6 47.2s-6.8 12.2 14 7.5c0 0 14.6-2.2 30.2-16.5C54 34.3 61 26.8 55.4 24c0 0-5.2-2.4-12.4 1.3 0 0 12.4-8.4 19-2.2 0 0 5.5 5-3.6 16.4 0 0-26 28.2-52 21.5 0 0-10-3.4-.8-13.8Z"/>
    <circle cx="6" cy="6" r="6" fill="#3fb7a0" transform="translate(0 25)"/>
    <path fill="#3fb7a0" d="M31.5 44.3s-8.8-9.5-17.3-28.8a36 36 0 0 0-1.7-3.2.5.5 0 0 0-1 .4 6 6 0 0 0 .7 1.6s6.6 15.8 2 23.9c-3.8 6.5-12.6 1-12.6 1l-.2-.1a.4.4 0 0 0-.2 0h-.1a.4.4 0 0 0-.2 0 .6.6 0 0 0 0 .1.4.4 0 0 0-.1.1.4.4 0 0 0 0 .1c-.2 1 1.9 3.7 4.6 5.9a68 68 0 0 0 14 8.4c16.3 6 26 2.7 26 2.7a59.9 59.9 0 0 1-13.9-12.1Z"/>
    <path fill="#f8b62d" d="m7.2.1 2.2 1.6a.6.6 0 0 0 .5 0l2.6-1a.6.6 0 0 1 .8.8l-.8 2.6a.6.6 0 0 0 0 .6l1.8 2a.6.6 0 0 1-.5 1l-2.7.1a.6.6 0 0 0-.5.3l-1.5 2.3a.6.6 0 0 1-1-.2L7 7.7a.6.6 0 0 0-.3-.4L4 6.6a.6.6 0 0 1 0-1.1l2.2-1.6a.6.6 0 0 0 .2-.5V.6a.6.6 0 0 1 .9-.5Z"/>
  </g>
</svg>