<svg xmlns="http://www.w3.org/2000/svg" viewBox="0 0 570 400">
  <defs>
    <clipPath id="a">
      <path fill="#fff" stroke="#707070" d="M0 0h570v400H0z" data-name="Rectangle 173546" transform="translate(-7155 -11536)"/>
    </clipPath>
    <clipPath id="b">
      <path fill="none" d="M0 0h852v852H0z" data-name="Rectangle 173544" transform="translate(-3088 -2148)"/>
    </clipPath>
  </defs>
  <g clip-path="url(#a)" data-name="Mask Group 83927" transform="translate(7155 11536)">
    <g data-name="Group 221716">
      <g clip-path="url(#b)" data-name="Group 221715" transform="translate(-4349 -9826)">
        <g data-name="Group 221710">
          <g data-name="Group 221708">
            <g data-name="Group 221700-3">
              <g data-name="Group 220158-36">
                <path fill="#86c9cf" d="M-2678-2153s-2-18 14-47c12-20 7-33 7-33h-42s2 6-2 17l-6-17h-42l29 80Z" data-name="Path 259827"/>
                <path fill="#86c9cf" d="M-2612-2186c-10 20-7 33-7 33h42s-2-13 10-39a112 112 0 0 0 11-41h-42s3 11-14 47Z" data-name="Path 259828"/>
                <path fill="#86c9cf" d="M-2747-2048h42s3-13-7-33c-17-36-14-47-14-47h-42a112 112 0 0 0 11 41c12 26 10 39 10 39Z" data-name="Path 259829"/>
                <path fill="#86c9cf" d="M-2667-2128s-5 13 7 33c16 29 14 47 14 47h42l29-80h-42l-6 17c-4-11-2-17-2-17Z" data-name="Path 259830"/>
                <path fill="#86c9cf" d="M-2747-1838h42s3-13-7-33c-17-36-14-47-14-47h-42a112 112 0 0 0 11 41c12 26 10 39 10 39Z" data-name="Path 259831"/>
                <path fill="#86c9cf" d="M-2667-1918s-5 13 7 33c16 29 14 47 14 47h42l29-80h-42l-6 17c-4-11-2-17-2-17Z" data-name="Path 259832"/>
                <path fill="#86c9cf" d="M-2707-2023h-42l29 80h42s-2-18 14-47c12-20 7-33 7-33h-42s2 6-2 17Z" data-name="Path 259833"/>
                <path fill="#86c9cf" d="M-2612-1976c-10 20-7 33-7 33h42s-2-13 10-39a112 112 0 0 0 11-41h-42s3 11-14 47Z" data-name="Path 259834"/>
                <path fill="#86c9cf" d="M-2707-1813h-42l29 80h42s-2-18 14-47c12-20 7-33 7-33h-42s2 6-2 17Z" data-name="Path 259835"/>
                <path fill="#86c9cf" d="M-2612-1766c-10 20-7 33-7 33h42s-2-13 10-39a112 112 0 0 0 11-41h-42s3 11-14 47Z" data-name="Path 259836"/>
                <path fill="#86c9cf" d="M-2747-1628h42s3-13-7-33c-17-36-14-47-14-47h-42a112 112 0 0 0 11 41c12 26 10 39 10 39Z" data-name="Path 259837"/>
                <path fill="#86c9cf" d="M-2667-1708s-5 13 7 33c16 29 14 47 14 47h42l29-80h-42l-6 17c-4-11-2-17-2-17Z" data-name="Path 259838"/>
                <path fill="#86c9cf" d="M-2747-1418h42s3-13-7-33c-17-36-14-47-14-47h-42a112 112 0 0 0 11 41c12 26 10 39 10 39Z" data-name="Path 259839"/>
                <path fill="#86c9cf" d="M-2667-1498s-5 13 7 33c16 29 14 47 14 47h42l29-80h-42l-6 17c-4-11-2-17-2-17Z" data-name="Path 259840"/>
                <path fill="#86c9cf" d="M-2707-1603h-42l29 80h42s-2-18 14-47c12-20 7-33 7-33h-42s2 6-2 17Z" data-name="Path 259841"/>
                <path fill="#86c9cf" d="M-2612-1556c-10 20-7 33-7 33h42s-2-13 10-39a112 112 0 0 0 11-41h-42s3 11-14 47Z" data-name="Path 259842"/>
                <path fill="#86c9cf" d="M-2612-1346c-10 20-7 33-7 33h42s-2-13 10-39a112 112 0 0 0 11-41h-42s3 11-14 47Z" data-name="Path 259843"/>
                <path fill="#86c9cf" d="M-2657-1393h-42s2 6-2 17l-6-17h-42l29 80h42s-2-18 14-47c12-20 7-33 7-33Z" data-name="Path 259844"/>
                <path fill="#86c9cf" d="M-2747-1208h42s3-13-7-33c-17-36-14-47-14-47h-42a112 112 0 0 0 11 41c12 26 10 39 10 39Z" data-name="Path 259845"/>
                <path fill="#86c9cf" d="M-2667-1288s-5 13 7 33c16 29 14 47 14 47h42l29-80h-42l-6 17c-4-11-2-17-2-17Z" data-name="Path 259846"/>
                <path fill="#86c9cf" d="M-2623-1061c-4-11-2-17-2-17h-42s-5 13 7 33c16 29 14 47 14 47h42l29-80h-42Z" data-name="Path 259847"/>
                <path fill="#86c9cf" d="M-2726-1078h-42a112 112 0 0 0 11 41c12 26 10 39 10 39h42s3-13-7-33c-17-36-14-47-14-47Z" data-name="Path 259848"/>
                <path fill="#86c9cf" d="M-2612-1136c-10 20-7 33-7 33h42s-2-13 10-39a112 112 0 0 0 11-41h-42s3 11-14 47Z" data-name="Path 259849"/>
                <path fill="#86c9cf" d="M-2678-1103s-2-18 14-47c12-20 7-33 7-33h-42s2 6-2 17l-6-17h-42l29 80h42Z" data-name="Path 259850"/>
                <path fill="#86c9cf" d="M-2419-1916h-42l29 80h42s-2-18 14-47c12-20 7-33 7-33h-42s2 6-2 17Z" data-name="Path 259851"/>
                <path fill="#86c9cf" d="M-2324-1869c-10 20-7 33-7 33h42s-2-13 10-39a112 112 0 0 0 11-41h-42s3 11-14 47Z" data-name="Path 259852"/>
                <path fill="#86c9cf" d="M-2459-1731h42s3-13-7-33c-17-36-14-47-14-47h-42a112 112 0 0 0 11 41c12 26 10 39 10 39Z" data-name="Path 259853"/>
                <path fill="#86c9cf" d="M-2379-1811s-5 13 7 33c16 29 14 47 14 47h42l29-80h-42l-6 17c-4-11-2-17-2-17Z" data-name="Path 259854"/>
                <path fill="#86c9cf" d="M-2459-1521h42s3-13-7-33c-17-36-14-47-14-47h-42a112 112 0 0 0 11 41c12 26 10 39 10 39Z" data-name="Path 259855"/>
                <path fill="#86c9cf" d="M-2379-1601s-5 13 7 33c16 29 14 47 14 47h42l29-80h-42l-6 17c-4-11-2-17-2-17Z" data-name="Path 259856"/>
                <path fill="#86c9cf" d="M-2419-1706h-42l29 80h42s-2-18 14-47c12-20 7-33 7-33h-42s2 6-2 17Z" data-name="Path 259857"/>
                <path fill="#86c9cf" d="M-2324-1659c-10 20-7 33-7 33h42s-2-13 10-39a112 112 0 0 0 11-41h-42s3 11-14 47Z" data-name="Path 259858"/>
                <path fill="#86c9cf" d="M-2390-2256s-2-18 14-47c12-20 7-33 7-33h-42s2 6-2 17l-6-17h-42l29 80Z" data-name="Path 259859"/>
                <path fill="#86c9cf" d="M-2289-2256s-2-13 10-39a112 112 0 0 0 11-41h-42s3 11-14 47c-10 20-7 33-7 33Z" data-name="Path 259860"/>
                <path fill="#86c9cf" d="M-2459-2151h42s3-13-7-33c-17-36-14-47-14-47h-42a112 112 0 0 0 11 41c12 26 10 39 10 39Z" data-name="Path 259861"/>
                <path fill="#86c9cf" d="M-2379-2231s-5 13 7 33c16 29 14 47 14 47h42l29-80h-42l-6 17c-4-11-2-17-2-17Z" data-name="Path 259862"/>
                <path fill="#86c9cf" d="M-2459-1941h42s3-13-7-33c-17-36-14-47-14-47h-42a112 112 0 0 0 11 41c12 26 10 39 10 39Z" data-name="Path 259863"/>
                <path fill="#86c9cf" d="M-2379-2021s-5 13 7 33c16 29 14 47 14 47h42l29-80h-42l-6 17c-4-11-2-17-2-17Z" data-name="Path 259864"/>
                <path fill="#86c9cf" d="M-2419-2126h-42l29 80h42s-2-18 14-47c12-20 7-33 7-33h-42s2 6-2 17Z" data-name="Path 259865"/>
                <path fill="#86c9cf" d="M-2324-2079c-10 20-7 33-7 33h42s-2-13 10-39a112 112 0 0 0 11-41h-42s3 11-14 47Z" data-name="Path 259866"/>
                <path fill="#86c9cf" d="M-2324-1454c-10 20-7 33-7 33h42s-2-13 10-39a112 112 0 0 0 11-41h-42s3 11-14 47Z" data-name="Path 259867"/>
                <path fill="#86c9cf" d="M-2369-1501h-42s2 6-2 17l-6-17h-42l29 80h42s-2-18 14-47c12-20 7-33 7-33Z" data-name="Path 259868"/>
                <path fill="#86c9cf" d="M-2459-1316h42s3-13-7-33c-17-36-14-47-14-47h-42a112 112 0 0 0 11 41c12 26 10 39 10 39Z" data-name="Path 259869"/>
                <path fill="#86c9cf" d="M-2379-1396s-5 13 7 33c16 29 14 47 14 47h42l29-80h-42l-6 17c-4-11-2-17-2-17Z" data-name="Path 259870"/>
                <path fill="#86c9cf" d="M-2335-1169c-4-11-2-17-2-17h-42s-5 13 7 33c16 29 14 47 14 47h42l29-80h-42Z" data-name="Path 259871"/>
                <path fill="#86c9cf" d="M-2438-1186h-42a112 112 0 0 0 11 41c12 26 10 39 10 39h42s3-13-7-33c-17-36-14-47-14-47Z" data-name="Path 259872"/>
                <path fill="#86c9cf" d="M-2324-1244c-10 20-7 33-7 33h42s-2-13 10-39a112 112 0 0 0 11-41h-42s3 11-14 47Z" data-name="Path 259873"/>
                <path fill="#86c9cf" d="M-2390-1211s-2-18 14-47c12-20 7-33 7-33h-42s2 6-2 17l-6-17h-42l29 80h42Z" data-name="Path 259874"/>
                <path fill="#86c9cf" d="M-2995-1916h-42l29 80h42s-2-18 14-47c12-20 7-33 7-33h-42s2 6-2 17Z" data-name="Path 259875"/>
                <path fill="#86c9cf" d="M-2900-1869c-10 20-7 33-7 33h42s-2-13 10-39a112 112 0 0 0 11-41h-42s3 11-14 47Z" data-name="Path 259876"/>
                <path fill="#86c9cf" d="M-3035-1731h42s3-13-7-33c-17-36-14-47-14-47h-42a112 112 0 0 0 11 41c12 26 10 39 10 39Z" data-name="Path 259877"/>
                <path fill="#86c9cf" d="M-2955-1811s-5 13 7 33c16 29 14 47 14 47h42l29-80h-42l-6 17c-4-11-2-17-2-17Z" data-name="Path 259878"/>
                <path fill="#86c9cf" d="M-3035-1521h42s3-13-7-33c-17-36-14-47-14-47h-42a112 112 0 0 0 11 41c12 26 10 39 10 39Z" data-name="Path 259879"/>
                <path fill="#86c9cf" d="M-2955-1601s-5 13 7 33c16 29 14 47 14 47h42l29-80h-42l-6 17c-4-11-2-17-2-17Z" data-name="Path 259880"/>
                <path fill="#86c9cf" d="M-2995-1706h-42l29 80h42s-2-18 14-47c12-20 7-33 7-33h-42s2 6-2 17Z" data-name="Path 259881"/>
                <path fill="#86c9cf" d="M-2900-1659c-10 20-7 33-7 33h42s-2-13 10-39a112 112 0 0 0 11-41h-42s3 11-14 47Z" data-name="Path 259882"/>
                <path fill="#86c9cf" d="M-2966-2256s-2-18 14-47c12-20 7-33 7-33h-42s2 6-2 17l-6-17h-42l29 80Z" data-name="Path 259883"/>
                <path fill="#86c9cf" d="M-2900-2289c-10 20-7 33-7 33h42s-2-13 10-39a112 112 0 0 0 11-41h-42s3 11-14 47Z" data-name="Path 259884"/>
                <path fill="#86c9cf" d="M-3035-2151h42s3-13-7-33c-17-36-14-47-14-47h-42a112 112 0 0 0 11 41c12 26 10 39 10 39Z" data-name="Path 259885"/>
                <path fill="#86c9cf" d="M-2955-2231s-5 13 7 33c16 29 14 47 14 47h42l29-80h-42l-6 17c-4-11-2-17-2-17Z" data-name="Path 259886"/>
                <path fill="#86c9cf" d="M-3035-1941h42s3-13-7-33c-17-36-14-47-14-47h-42a112 112 0 0 0 11 41c12 26 10 39 10 39Z" data-name="Path 259887"/>
                <path fill="#86c9cf" d="M-2955-2021s-5 13 7 33c16 29 14 47 14 47h42l29-80h-42l-6 17c-4-11-2-17-2-17Z" data-name="Path 259888"/>
                <path fill="#86c9cf" d="M-2995-2126h-42l29 80h42s-2-18 14-47c12-20 7-33 7-33h-42s2 6-2 17Z" data-name="Path 259889"/>
                <path fill="#86c9cf" d="M-2900-2079c-10 20-7 33-7 33h42s-2-13 10-39a112 112 0 0 0 11-41h-42s3 11-14 47Z" data-name="Path 259890"/>
                <path fill="#86c9cf" d="M-2900-1454c-10 20-7 33-7 33h42s-2-13 10-39a112 112 0 0 0 11-41h-42s3 11-14 47Z" data-name="Path 259891"/>
                <path fill="#86c9cf" d="M-2945-1501h-42s2 6-2 17l-6-17h-42l29 80h42s-2-18 14-47c12-20 7-33 7-33Z" data-name="Path 259892"/>
                <path fill="#86c9cf" d="M-3035-1316h42s3-13-7-33c-17-36-14-47-14-47h-42a112 112 0 0 0 11 41c12 26 10 39 10 39Z" data-name="Path 259893"/>
                <path fill="#86c9cf" d="M-2955-1396s-5 13 7 33c16 29 14 47 14 47h42l29-80h-42l-6 17c-4-11-2-17-2-17Z" data-name="Path 259894"/>
                <path fill="#86c9cf" d="M-2911-1169c-4-11-2-17-2-17h-42s-5 13 7 33c16 29 14 47 14 47h42l29-80h-42Z" data-name="Path 259895"/>
                <path fill="#86c9cf" d="M-3014-1186h-42a112 112 0 0 0 11 41c12 26 10 39 10 39h42s3-13-7-33c-17-36-14-47-14-47Z" data-name="Path 259896"/>
                <path fill="#86c9cf" d="M-2900-1244c-10 20-7 33-7 33h42s-2-13 10-39a112 112 0 0 0 11-41h-42s3 11-14 47Z" data-name="Path 259897"/>
                <path fill="#86c9cf" d="M-2966-1211s-2-18 14-47c12-20 7-33 7-33h-42s2 6-2 17l-6-17h-42l29 80h42Z" data-name="Path 259898"/>
                <g fill="#dddddc" data-name="Group 221712">
                  <path d="M-2545-2233h-43a112 112 0 0 0 11 41c13 26 10 39 10 39h43s2-13-7-33c-18-36-14-47-14-47Z" data-name="Path 259899"/>
                  <path d="M-2707-2233h-42l-29 80h42Z" data-name="Path 259900"/>
                  <path d="M-2585-2193a40 40 0 0 0-40-40h-42v80h42a40 40 0 0 0 40-40Z" data-name="Path 259901"/>
                  <path d="M-2757-2048s-3-13 10-39a112 112 0 0 0 11-41h-43s4 11-14 47c-9 20-7 33-7 33Z" data-name="Path 259902"/>
                  <path d="M-2575-2128h-42l29 80h42Z" data-name="Path 259903"/>
                  <path d="M-2739-2088a40 40 0 0 0 40 40h42v-80h-42a40 40 0 0 0-40 40Z" data-name="Path 259904"/>
                  <path d="M-2757-1838s-3-13 10-39a112 112 0 0 0 11-41h-43s4 11-14 47c-9 20-7 33-7 33Z" data-name="Path 259905"/>
                  <path d="M-2575-1918h-42l29 80h42Z" data-name="Path 259906"/>
                  <path d="M-2699-1838h42v-80h-42a40 40 0 0 0-40 40 40 40 0 0 0 40 40Z" data-name="Path 259907"/>
                  <path d="M-2545-2023h-43a112 112 0 0 0 11 41c13 26 10 39 10 39h43s2-13-7-33c-18-36-14-47-14-47Z" data-name="Path 259908"/>
                  <path d="m-2749-2023-29 80h42l29-80Z" data-name="Path 259909"/>
                  <path d="M-2625-2023h-42v80h42a40 40 0 0 0 40-40 40 40 0 0 0-40-40Z" data-name="Path 259910"/>
                  <path d="M-2545-1813h-43a112 112 0 0 0 11 41c13 26 10 39 10 39h43s2-13-7-33c-18-36-14-47-14-47Z" data-name="Path 259911"/>
                  <path d="M-2778-1733h42l29-80h-42Z" data-name="Path 259912"/>
                  <path d="M-2625-1813h-42v80h42a40 40 0 0 0 40-40 40 40 0 0 0-40-40Z" data-name="Path 259913"/>
                  <path d="M-2757-1628s-3-13 10-39a112 112 0 0 0 11-41h-43s4 11-14 47c-9 20-7 33-7 33Z" data-name="Path 259914"/>
                  <path d="M-2575-1708h-42l29 80h42Z" data-name="Path 259915"/>
                  <path d="M-2699-1628h42v-80h-42a40 40 0 0 0-40 40 40 40 0 0 0 40 40Z" data-name="Path 259916"/>
                  <path d="M-2757-1418s-3-13 10-39a112 112 0 0 0 11-41h-43s4 11-14 47c-9 20-7 33-7 33Z" data-name="Path 259917"/>
                  <path d="M-2575-1498h-42l29 80h42Z" data-name="Path 259918"/>
                  <path d="M-2699-1418h42v-80h-42a40 40 0 0 0-40 40 40 40 0 0 0 40 40Z" data-name="Path 259919"/>
                  <path d="M-2545-1603h-43a112 112 0 0 0 11 41c13 26 10 39 10 39h43s2-13-7-33c-18-36-14-47-14-47Z" data-name="Path 259920"/>
                  <path d="M-2778-1523h42l29-80h-42Z" data-name="Path 259921"/>
                  <path d="M-2625-1603h-42v80h42a40 40 0 0 0 40-40 40 40 0 0 0-40-40Z" data-name="Path 259922"/>
                  <path d="M-2545-1393h-43a112 112 0 0 0 11 41c13 26 10 39 10 39h43s2-13-7-33c-18-36-14-47-14-47Z" data-name="Path 259923"/>
                  <path d="M-2778-1313h42l29-80h-42Z" data-name="Path 259924"/>
                  <path d="M-2625-1393h-42v80h42a40 40 0 0 0 40-40 40 40 0 0 0-40-40Z" data-name="Path 259925"/>
                  <path d="M-2757-1208s-3-13 10-39a112 112 0 0 0 11-41h-43s4 11-14 47c-9 20-7 33-7 33Z" data-name="Path 259926"/>
                  <path d="M-2588-1208h42l-29-80h-42Z" data-name="Path 259927"/>
                  <path d="M-2657-1208v-80h-42a40 40 0 0 0-40 40 40 40 0 0 0 40 40Z" data-name="Path 259928"/>
                  <path d="M-2736-1078h-43s4 11-14 47c-9 20-7 33-7 33h43s-3-13 10-39a112 112 0 0 0 11-41Z" data-name="Path 259929"/>
                  <path d="m-2617-1078 29 80h42l-29-80Z" data-name="Path 259930"/>
                  <path d="M-2739-1038a40 40 0 0 0 40 40h42v-80h-42a40 40 0 0 0-40 40Z" data-name="Path 259931"/>
                  <path d="M-2545-1183h-43a112 112 0 0 0 11 41c13 26 10 39 10 39h43s2-13-7-33c-18-36-14-47-14-47Z" data-name="Path 259932"/>
                  <path d="M-2778-1103h42l29-80h-42Z" data-name="Path 259933"/>
                  <path d="M-2585-1143a40 40 0 0 0-40-40h-42v80h42a40 40 0 0 0 40-40Z" data-name="Path 259934"/>
                  <path d="M-2257-1916h-43a112 112 0 0 0 11 41c13 26 10 39 10 39h43s2-13-7-33c-18-36-14-47-14-47Z" data-name="Path 259935"/>
                  <path d="M-2490-1836h42l29-80h-42Z" data-name="Path 259936"/>
                  <path d="M-2337-1916h-42v80h42a40 40 0 0 0 40-40 40 40 0 0 0-40-40Z" data-name="Path 259937"/>
                  <path d="M-2469-1731s-3-13 10-39a112 112 0 0 0 11-41h-43s4 11-14 47c-9 20-7 33-7 33Z" data-name="Path 259938"/>
                  <path d="M-2287-1811h-42l29 80h42Z" data-name="Path 259939"/>
                  <path d="M-2411-1731h42v-80h-42a40 40 0 0 0-40 40 40 40 0 0 0 40 40Z" data-name="Path 259940"/>
                  <path d="M-2469-1521s-3-13 10-39a112 112 0 0 0 11-41h-43s4 11-14 47c-9 20-7 33-7 33Z" data-name="Path 259941"/>
                  <path d="M-2287-1601h-42l29 80h42Z" data-name="Path 259942"/>
                  <path d="M-2411-1521h42v-80h-42a40 40 0 0 0-40 40 40 40 0 0 0 40 40Z" data-name="Path 259943"/>
                  <path d="M-2257-1706h-43a112 112 0 0 0 11 41c13 26 10 39 10 39h43s2-13-7-33c-18-36-14-47-14-47Z" data-name="Path 259944"/>
                  <path d="M-2490-1626h42l29-80h-42Z" data-name="Path 259945"/>
                  <path d="M-2337-1706h-42v80h42a40 40 0 0 0 40-40 40 40 0 0 0-40-40Z" data-name="Path 259946"/>
                  <path d="M-2279-2256h43s2-13-7-33c-18-36-14-47-14-47h-43a112 112 0 0 0 11 41c13 26 10 39 10 39Z" data-name="Path 259947"/>
                  <path d="M-2419-2336h-42l-29 80h42Z" data-name="Path 259948"/>
                  <path d="M-2297-2296a40 40 0 0 0-40-40h-42v80h42a40 40 0 0 0 40-40Z" data-name="Path 259949"/>
                  <path d="M-2469-2151s-3-13 10-39a112 112 0 0 0 11-41h-43s4 11-14 47c-9 20-7 33-7 33Z" data-name="Path 259950"/>
                  <path d="M-2287-2231h-42l29 80h42Z" data-name="Path 259951"/>
                  <path d="M-2451-2191a40 40 0 0 0 40 40h42v-80h-42a40 40 0 0 0-40 40Z" data-name="Path 259952"/>
                  <path d="M-2469-1941s-3-13 10-39a112 112 0 0 0 11-41h-43s4 11-14 47c-9 20-7 33-7 33Z" data-name="Path 259953"/>
                  <path d="M-2287-2021h-42l29 80h42Z" data-name="Path 259954"/>
                  <path d="M-2411-1941h42v-80h-42a40 40 0 0 0-40 40 40 40 0 0 0 40 40Z" data-name="Path 259955"/>
                  <path d="M-2257-2126h-43a112 112 0 0 0 11 41c13 26 10 39 10 39h43s2-13-7-33c-18-36-14-47-14-47Z" data-name="Path 259956"/>
                  <path d="m-2461-2126-29 80h42l29-80Z" data-name="Path 259957"/>
                  <path d="M-2337-2126h-42v80h42a40 40 0 0 0 40-40 40 40 0 0 0-40-40Z" data-name="Path 259958"/>
                  <path d="M-2257-1501h-43a112 112 0 0 0 11 41c13 26 10 39 10 39h43s2-13-7-33c-18-36-14-47-14-47Z" data-name="Path 259959"/>
                  <path d="M-2490-1421h42l29-80h-42Z" data-name="Path 259960"/>
                  <path d="M-2337-1501h-42v80h42a40 40 0 0 0 40-40 40 40 0 0 0-40-40Z" data-name="Path 259961"/>
                  <path d="M-2469-1316s-3-13 10-39a112 112 0 0 0 11-41h-43s4 11-14 47c-9 20-7 33-7 33Z" data-name="Path 259962"/>
                  <path d="M-2300-1316h42l-29-80h-42Z" data-name="Path 259963"/>
                  <path d="M-2369-1316v-80h-42a40 40 0 0 0-40 40 40 40 0 0 0 40 40Z" data-name="Path 259964"/>
                  <path d="M-2448-1186h-43s4 11-14 47c-9 20-7 33-7 33h43s-3-13 10-39a112 112 0 0 0 11-41Z" data-name="Path 259965"/>
                  <path d="m-2329-1186 29 80h42l-29-80Z" data-name="Path 259966"/>
                  <path d="M-2451-1146a40 40 0 0 0 40 40h42v-80h-42a40 40 0 0 0-40 40Z" data-name="Path 259967"/>
                  <path d="M-2257-1291h-43a112 112 0 0 0 11 41c13 26 10 39 10 39h43s2-13-7-33c-18-36-14-47-14-47Z" data-name="Path 259968"/>
                  <path d="M-2490-1211h42l29-80h-42Z" data-name="Path 259969"/>
                  <path d="M-2297-1251a40 40 0 0 0-40-40h-42v80h42a40 40 0 0 0 40-40Z" data-name="Path 259970"/>
                  <path d="M-2833-1916h-43a112 112 0 0 0 11 41c13 26 10 39 10 39h43s2-13-7-33c-18-36-14-47-14-47Z" data-name="Path 259971"/>
                  <path d="M-3066-1836h42l29-80h-42Z" data-name="Path 259972"/>
                  <path d="M-2913-1916h-42v80h42a40 40 0 0 0 40-40 40 40 0 0 0-40-40Z" data-name="Path 259973"/>
                  <path d="M-3045-1731s-3-13 10-39a112 112 0 0 0 11-41h-43s4 11-14 47c-9 20-7 33-7 33Z" data-name="Path 259974"/>
                  <path d="M-2863-1811h-42l29 80h42Z" data-name="Path 259975"/>
                  <path d="M-2987-1731h42v-80h-42a40 40 0 0 0-40 40 40 40 0 0 0 40 40Z" data-name="Path 259976"/>
                  <path d="M-3045-1521s-3-13 10-39a112 112 0 0 0 11-41h-43s4 11-14 47c-9 20-7 33-7 33Z" data-name="Path 259977"/>
                  <path d="M-2863-1601h-42l29 80h42Z" data-name="Path 259978"/>
                  <path d="M-2987-1521h42v-80h-42a40 40 0 0 0-40 40 40 40 0 0 0 40 40Z" data-name="Path 259979"/>
                  <path d="M-2833-1706h-43a112 112 0 0 0 11 41c13 26 10 39 10 39h43s2-13-7-33c-18-36-14-47-14-47Z" data-name="Path 259980"/>
                  <path d="M-3066-1626h42l29-80h-42Z" data-name="Path 259981"/>
                  <path d="M-2913-1706h-42v80h42a40 40 0 0 0 40-40 40 40 0 0 0-40-40Z" data-name="Path 259982"/>
                  <path d="M-2833-2336h-43a112 112 0 0 0 11 41c13 26 10 39 10 39h43s2-13-7-33c-18-36-14-47-14-47Z" data-name="Path 259983"/>
                  <path d="M-2995-2336h-42l-29 80h42Z" data-name="Path 259984"/>
                  <path d="M-2873-2296a40 40 0 0 0-40-40h-42v80h42a40 40 0 0 0 40-40Z" data-name="Path 259985"/>
                  <path d="M-3045-2151s-3-13 10-39a112 112 0 0 0 11-41h-43s4 11-14 47c-9 20-7 33-7 33Z" data-name="Path 259986"/>
                  <path d="M-2863-2231h-42l29 80h42Z" data-name="Path 259987"/>
                  <path d="M-3027-2191a40 40 0 0 0 40 40h42v-80h-42a40 40 0 0 0-40 40Z" data-name="Path 259988"/>
                  <path d="M-3045-1941s-3-13 10-39a112 112 0 0 0 11-41h-43s4 11-14 47c-9 20-7 33-7 33Z" data-name="Path 259989"/>
                  <path d="M-2863-2021h-42l29 80h42Z" data-name="Path 259990"/>
                  <path d="M-2987-1941h42v-80h-42a40 40 0 0 0-40 40 40 40 0 0 0 40 40Z" data-name="Path 259991"/>
                  <path d="M-2833-2126h-43a112 112 0 0 0 11 41c13 26 10 39 10 39h43s2-13-7-33c-18-36-14-47-14-47Z" data-name="Path 259992"/>
                  <path d="m-3037-2126-29 80h42l29-80Z" data-name="Path 259993"/>
                  <path d="M-2913-2126h-42v80h42a40 40 0 0 0 40-40 40 40 0 0 0-40-40Z" data-name="Path 259994"/>
                  <path d="M-2833-1501h-43a112 112 0 0 0 11 41c13 26 10 39 10 39h43s2-13-7-33c-18-36-14-47-14-47Z" data-name="Path 259995"/>
                  <path d="M-3066-1421h42l29-80h-42Z" data-name="Path 259996"/>
                  <path d="M-2913-1501h-42v80h42a40 40 0 0 0 40-40 40 40 0 0 0-40-40Z" data-name="Path 259997"/>
                  <path d="M-3045-1316s-3-13 10-39a112 112 0 0 0 11-41h-43s4 11-14 47c-9 20-7 33-7 33Z" data-name="Path 259998"/>
                  <path d="M-2876-1316h42l-29-80h-42Z" data-name="Path 259999"/>
                  <path d="M-2945-1316v-80h-42a40 40 0 0 0-40 40 40 40 0 0 0 40 40Z" data-name="Path 260000"/>
                  <path d="M-3024-1186h-43s4 11-14 47c-9 20-7 33-7 33h43s-3-13 10-39a112 112 0 0 0 11-41Z" data-name="Path 260001"/>
                  <path d="m-2905-1186 29 80h42l-29-80Z" data-name="Path 260002"/>
                  <path d="M-3027-1146a40 40 0 0 0 40 40h42v-80h-42a40 40 0 0 0-40 40Z" data-name="Path 260003"/>
                  <path d="M-2833-1291h-43a112 112 0 0 0 11 41c13 26 10 39 10 39h43s2-13-7-33c-18-36-14-47-14-47Z" data-name="Path 260004"/>
                  <path d="M-3066-1211h42l29-80h-42Z" data-name="Path 260005"/>
                  <path d="M-2873-1251a40 40 0 0 0-40-40h-42v80h42a40 40 0 0 0 40-40Z" data-name="Path 260006"/>
                </g>
                <g fill="#ffb900" data-name="Group 221713">
                  <path d="m-2572-2181 5-11a112 112 0 0 0 11-41h-31a112 112 0 0 0 10 41l5 11Z" data-name="Path 260007"/>
                  <path d="M-2572-2181Z" data-name="Path 260008"/>
                  <path d="M-2757-2233h-42s-5 13 7 33c16 29 14 47 14 47h42s6-14-14-52c-10-18-7-28-7-28Z" data-name="Path 260009"/>
                  <path d="M-2737-2128h-31a112 112 0 0 0 11 41l5 11 5-11a112 112 0 0 0 10-41Z" data-name="Path 260010"/>
                  <path d="M-2752-2076Z" data-name="Path 260011"/>
                  <path d="M-2567-2128s3 10-7 28c-20 38-14 52-14 52h42s-2-18 14-47c11-20 7-33 7-33Z" data-name="Path 260012"/>
                  <path d="M-2752-1866Z" data-name="Path 260013"/>
                  <path d="M-2737-1918h-31a112 112 0 0 0 11 41l5 11 5-11a112 112 0 0 0 10-41Z" data-name="Path 260014"/>
                  <path d="M-2567-1918s3 10-7 28c-20 38-14 52-14 52h42s-2-18 14-47c11-20 7-33 7-33Z" data-name="Path 260015"/>
                  <path d="M-2556-2023h-31a112 112 0 0 0 10 41l5 11 5-11a112 112 0 0 0 11-41Z" data-name="Path 260016"/>
                  <path d="M-2572-1971Z" data-name="Path 260017"/>
                  <path d="M-2757-2023h-42s-5 13 7 33c16 29 14 47 14 47h42s6-14-14-52c-10-18-7-28-7-28Z" data-name="Path 260018"/>
                  <path d="M-2572-1761Z" data-name="Path 260019"/>
                  <path d="M-2556-1813h-31a112 112 0 0 0 10 41l5 11 5-11a112 112 0 0 0 11-41Z" data-name="Path 260020"/>
                  <path d="M-2757-1813h-42s-5 13 7 33c16 29 14 47 14 47h42s6-14-14-52c-10-18-7-28-7-28Z" data-name="Path 260021"/>
                  <path d="M-2737-1708h-31a112 112 0 0 0 11 41l5 11 5-11a112 112 0 0 0 10-41Z" data-name="Path 260022"/>
                  <path d="M-2752-1656Z" data-name="Path 260023"/>
                  <path d="M-2567-1708s3 10-7 28c-20 38-14 52-14 52h42s-2-18 14-47c11-20 7-33 7-33Z" data-name="Path 260024"/>
                  <path d="M-2752-1446Z" data-name="Path 260025"/>
                  <path d="M-2737-1498h-31a112 112 0 0 0 11 41l5 11 5-11a112 112 0 0 0 10-41Z" data-name="Path 260026"/>
                  <path d="M-2567-1498s3 10-7 28c-20 38-14 52-14 52h42s-2-18 14-47c11-20 7-33 7-33Z" data-name="Path 260027"/>
                  <path d="M-2572-1551Z" data-name="Path 260028"/>
                  <path d="M-2556-1603h-31a112 112 0 0 0 10 41l5 11 5-11a112 112 0 0 0 11-41Z" data-name="Path 260029"/>
                  <path d="M-2757-1603h-42s-5 13 7 33c16 29 14 47 14 47h42s6-14-14-52c-10-18-7-28-7-28Z" data-name="Path 260030"/>
                  <path d="M-2556-1393h-31a112 112 0 0 0 10 41l5 11 5-11a112 112 0 0 0 11-41Z" data-name="Path 260031"/>
                  <path d="M-2572-1341Z" data-name="Path 260032"/>
                  <path d="M-2757-1393h-42s-5 13 7 33c16 29 14 47 14 47h42s6-14-14-52c-10-18-7-28-7-28Z" data-name="Path 260033"/>
                  <path d="M-2737-1288h-31a112 112 0 0 0 11 41l5 11 5-11a112 112 0 0 0 10-41Z" data-name="Path 260034"/>
                  <path d="M-2752-1236Z" data-name="Path 260035"/>
                  <path d="M-2567-1288s3 10-7 28c-20 38-14 52-14 52h42s-2-18 14-47c11-20 7-33 7-33Z" data-name="Path 260036"/>
                  <path d="m-2757-1037 5 11 5-11a112 112 0 0 0 10-41h-31a112 112 0 0 0 11 41Z" data-name="Path 260037"/>
                  <path d="M-2752-1026Z" data-name="Path 260038"/>
                  <path d="M-2567-1078s3 10-7 28c-20 38-14 52-14 52h42s-2-18 14-47c11-20 7-33 7-33Z" data-name="Path 260039"/>
                  <path d="M-2556-1183h-31a112 112 0 0 0 10 41l5 11 5-11a112 112 0 0 0 11-41Z" data-name="Path 260040"/>
                  <path d="M-2572-1131Z" data-name="Path 260041"/>
                  <path d="M-2757-1183h-42s-5 13 7 33c16 29 14 47 14 47h42s6-14-14-52c-10-18-7-28-7-28Z" data-name="Path 260042"/>
                  <path d="M-2284-1864Z" data-name="Path 260043"/>
                  <path d="M-2268-1916h-31a112 112 0 0 0 10 41l5 11 5-11a112 112 0 0 0 11-41Z" data-name="Path 260044"/>
                  <path d="M-2469-1916h-42s-5 13 7 33c16 29 14 47 14 47h42s6-14-14-52c-10-18-7-28-7-28Z" data-name="Path 260045"/>
                  <path d="M-2449-1811h-31a112 112 0 0 0 11 41l5 11 5-11a112 112 0 0 0 10-41Z" data-name="Path 260046"/>
                  <path d="M-2464-1759Z" data-name="Path 260047"/>
                  <path d="M-2279-1811s3 10-7 28c-20 38-14 52-14 52h42s-2-18 14-47c11-20 7-33 7-33Z" data-name="Path 260048"/>
                  <path d="M-2449-1601h-31a112 112 0 0 0 11 41l5 11 5-11a112 112 0 0 0 10-41Z" data-name="Path 260049"/>
                  <path d="M-2464-1549Z" data-name="Path 260050"/>
                  <path d="M-2279-1601s3 10-7 28c-20 38-14 52-14 52h42s-2-18 14-47c11-20 7-33 7-33Z" data-name="Path 260051"/>
                  <path d="M-2268-1706h-31a112 112 0 0 0 10 41l5 11 5-11a112 112 0 0 0 11-41Z" data-name="Path 260052"/>
                  <path d="M-2284-1654Z" data-name="Path 260053"/>
                  <path d="M-2469-1706h-42s-5 13 7 33c16 29 14 47 14 47h42s6-14-14-52c-10-18-7-28-7-28Z" data-name="Path 260054"/>
                  <path d="m-2284-2284 5-11a112 112 0 0 0 11-41h-31a112 112 0 0 0 10 41l5 11Z" data-name="Path 260055"/>
                  <path d="M-2284-2284Z" data-name="Path 260056"/>
                  <path d="M-2469-2336h-42s-5 13 7 33c16 29 14 47 14 47h42s6-14-14-52c-10-18-7-28-7-28Z" data-name="Path 260057"/>
                  <path d="M-2449-2231h-31a112 112 0 0 0 11 41l5 11 5-11a112 112 0 0 0 10-41Z" data-name="Path 260058"/>
                  <path d="M-2464-2179Z" data-name="Path 260059"/>
                  <path d="M-2258-2151s-2-18 14-47c11-20 7-33 7-33h-42s3 10-7 28c-20 38-14 52-14 52Z" data-name="Path 260060"/>
                  <path d="M-2464-1969Z" data-name="Path 260061"/>
                  <path d="M-2449-2021h-31a112 112 0 0 0 11 41l5 11 5-11a112 112 0 0 0 10-41Z" data-name="Path 260062"/>
                  <path d="M-2279-2021s3 10-7 28c-20 38-14 52-14 52h42s-2-18 14-47c11-20 7-33 7-33Z" data-name="Path 260063"/>
                  <path d="M-2284-2074Z" data-name="Path 260064"/>
                  <path d="M-2268-2126h-31a112 112 0 0 0 10 41l5 11 5-11a112 112 0 0 0 11-41Z" data-name="Path 260065"/>
                  <path d="M-2469-2126h-42s-5 13 7 33c16 29 14 47 14 47h42s6-14-14-52c-10-18-7-28-7-28Z" data-name="Path 260066"/>
                  <path d="M-2284-1449Z" data-name="Path 260067"/>
                  <path d="M-2268-1501h-31a112 112 0 0 0 10 41l5 11 5-11a112 112 0 0 0 11-41Z" data-name="Path 260068"/>
                  <path d="M-2469-1501h-42s-5 13 7 33c16 29 14 47 14 47h42s6-14-14-52c-10-18-7-28-7-28Z" data-name="Path 260069"/>
                  <path d="M-2464-1344Z" data-name="Path 260070"/>
                  <path d="M-2449-1396h-31a112 112 0 0 0 11 41l5 11 5-11a112 112 0 0 0 10-41Z" data-name="Path 260071"/>
                  <path d="M-2279-1396s3 10-7 28c-20 38-14 52-14 52h42s-2-18 14-47c11-20 7-33 7-33Z" data-name="Path 260072"/>
                  <path d="m-2469-1145 5 11 5-11a112 112 0 0 0 10-41h-31a112 112 0 0 0 11 41Z" data-name="Path 260073"/>
                  <path d="M-2464-1134Z" data-name="Path 260074"/>
                  <path d="M-2279-1186s3 10-7 28c-20 38-14 52-14 52h42s-2-18 14-47c11-20 7-33 7-33Z" data-name="Path 260075"/>
                  <path d="M-2284-1239Z" data-name="Path 260076"/>
                  <path d="M-2268-1291h-31a112 112 0 0 0 10 41l5 11 5-11a112 112 0 0 0 11-41Z" data-name="Path 260077"/>
                  <path d="M-2469-1291h-42s-5 13 7 33c16 29 14 47 14 47h42s6-14-14-52c-10-18-7-28-7-28Z" data-name="Path 260078"/>
                  <path d="M-2860-1864Z" data-name="Path 260079"/>
                  <path d="M-2844-1916h-31a112 112 0 0 0 10 41l5 11 5-11a112 112 0 0 0 11-41Z" data-name="Path 260080"/>
                  <path d="M-3045-1916h-42s-5 13 7 33c16 29 14 47 14 47h42s6-14-14-52c-10-18-7-28-7-28Z" data-name="Path 260081"/>
                  <path d="M-3025-1811h-31a112 112 0 0 0 11 41l5 11 5-11a112 112 0 0 0 10-41Z" data-name="Path 260082"/>
                  <path d="M-3040-1759Z" data-name="Path 260083"/>
                  <path d="M-2855-1811s3 10-7 28c-20 38-14 52-14 52h42s-2-18 14-47c11-20 7-33 7-33Z" data-name="Path 260084"/>
                  <path d="M-3040-1549Z" data-name="Path 260085"/>
                  <path d="M-3025-1601h-31a112 112 0 0 0 11 41l5 11 5-11a112 112 0 0 0 10-41Z" data-name="Path 260086"/>
                  <path d="M-2855-1601s3 10-7 28c-20 38-14 52-14 52h42s-2-18 14-47c11-20 7-33 7-33Z" data-name="Path 260087"/>
                  <path d="M-2860-1654Z" data-name="Path 260088"/>
                  <path d="M-2844-1706h-31a112 112 0 0 0 10 41l5 11 5-11a112 112 0 0 0 11-41Z" data-name="Path 260089"/>
                  <path d="M-3045-1706h-42s-5 13 7 33c16 29 14 47 14 47h42s6-14-14-52c-10-18-7-28-7-28Z" data-name="Path 260090"/>
                  <path d="m-2860-2284 5-11a112 112 0 0 0 11-41h-31a112 112 0 0 0 10 41l5 11Z" data-name="Path 260091"/>
                  <path d="M-2860-2284Z" data-name="Path 260092"/>
                  <path d="M-3045-2336h-42s-5 13 7 33c16 29 14 47 14 47h42s6-14-14-52c-10-18-7-28-7-28Z" data-name="Path 260093"/>
                  <path d="M-3025-2231h-31a112 112 0 0 0 11 41l5 11 5-11a112 112 0 0 0 10-41Z" data-name="Path 260094"/>
                  <path d="M-3040-2179Z" data-name="Path 260095"/>
                  <path d="M-2855-2231s3 10-7 28c-20 38-14 52-14 52h42s-2-18 14-47c11-20 7-33 7-33Z" data-name="Path 260096"/>
                  <path d="M-3025-2021h-31a112 112 0 0 0 11 41l5 11 5-11a112 112 0 0 0 10-41Z" data-name="Path 260097"/>
                  <path d="M-3040-1969Z" data-name="Path 260098"/>
                  <path d="M-2855-2021s3 10-7 28c-20 38-14 52-14 52h42s-2-18 14-47c11-20 7-33 7-33Z" data-name="Path 260099"/>
                  <path d="M-2860-2074Z" data-name="Path 260100"/>
                  <path d="M-2844-2126h-31a112 112 0 0 0 10 41l5 11 5-11a112 112 0 0 0 11-41Z" data-name="Path 260101"/>
                  <path d="M-3045-2126h-42s-5 13 7 33c16 29 14 47 14 47h42s6-14-14-52c-10-18-7-28-7-28Z" data-name="Path 260102"/>
                  <path d="M-2860-1449Z" data-name="Path 260103"/>
                  <path d="M-2844-1501h-31a112 112 0 0 0 10 41l5 11 5-11a112 112 0 0 0 11-41Z" data-name="Path 260104"/>
                  <path d="M-3045-1501h-42s-5 13 7 33c16 29 14 47 14 47h42s6-14-14-52c-10-18-7-28-7-28Z" data-name="Path 260105"/>
                  <path d="M-3040-1344Z" data-name="Path 260106"/>
                  <path d="M-3025-1396h-31a112 112 0 0 0 11 41l5 11 5-11a112 112 0 0 0 10-41Z" data-name="Path 260107"/>
                  <path d="M-2855-1396s3 10-7 28c-20 38-14 52-14 52h42s-2-18 14-47c11-20 7-33 7-33Z" data-name="Path 260108"/>
                  <path d="m-3045-1145 5 11 5-11a112 112 0 0 0 10-41h-31a112 112 0 0 0 11 41Z" data-name="Path 260109"/>
                  <path d="M-3040-1134Z" data-name="Path 260110"/>
                  <path d="M-2855-1186s3 10-7 28c-20 38-14 52-14 52h42s-2-18 14-47c11-20 7-33 7-33Z" data-name="Path 260111"/>
                  <path d="M-2844-1291h-31a112 112 0 0 0 10 41l5 11 5-11a112 112 0 0 0 11-41Z" data-name="Path 260112"/>
                  <path d="M-2860-1239Z" data-name="Path 260113"/>
                  <path d="M-3045-1291h-42s-5 13 7 33c16 29 14 47 14 47h42s6-14-14-52c-10-18-7-28-7-28Z" data-name="Path 260114"/>
                </g>
                <path fill="#e85620" d="M-3038-1263a67 67 0 0 1-5-11l-23 63h42c0-1 5-16-14-52" data-name="Path 256660-36"/>
              </g>
              <path fill="#e85620" d="M-3038-1473a67 67 0 0 1-5-11l-23 63h42c0-1 5-16-14-52" data-name="Path 256660-33"/>
              <path fill="#e85620" d="M-2862-1368a67 67 0 0 0 5-11l23 63h-42c0-1-5-16 14-52" data-name="Path 256660-34"/>
              <path fill="#e85620" d="M-2862-1158a67 67 0 0 0 5-11l23 63h-42c0-1-5-16 14-52" data-name="Path 256660-35"/>
            </g>
          </g>
          <g fill="#e85620" data-name="Group 221714">
            <path d="M-2750-2205a67 67 0 0 1-5-11l-23 63h42c0-1 5-16-14-52Z" data-name="Path 260115"/>
            <path d="M-2574-2100c-19 36-14 51-14 52h42l-23-63a67 67 0 0 1-5 11Z" data-name="Path 260116"/>
            <path d="M-2574-1890c-19 36-14 51-14 52h42l-23-63a67 67 0 0 1-5 11Z" data-name="Path 260117"/>
            <path d="M-2750-1995a67 67 0 0 1-5-11l-23 63h42c0-1 5-16-14-52Z" data-name="Path 260118"/>
            <path d="M-2750-1785a67 67 0 0 1-5-11l-23 63h42c0-1 5-16-14-52Z" data-name="Path 260119"/>
            <path d="M-2574-1680c-19 36-14 51-14 52h42l-23-63a67 67 0 0 1-5 11Z" data-name="Path 260120"/>
            <path d="M-2574-1470c-19 36-14 51-14 52h42l-23-63a67 67 0 0 1-5 11Z" data-name="Path 260121"/>
            <path d="M-2750-1575a67 67 0 0 1-5-11l-23 63h42c0-1 5-16-14-52Z" data-name="Path 260122"/>
            <path d="M-2750-1365a67 67 0 0 1-5-11l-23 63h42c0-1 5-16-14-52Z" data-name="Path 260123"/>
            <path d="M-2574-1260c-19 36-14 51-14 52h42l-23-63a67 67 0 0 1-5 11Z" data-name="Path 260124"/>
            <path d="M-2574-1050c-19 36-14 51-14 52h42l-23-63a67 67 0 0 1-5 11Z" data-name="Path 260125"/>
            <path d="M-2750-1155a67 67 0 0 1-5-11l-23 63h42c0-1 5-16-14-52Z" data-name="Path 260126"/>
            <path d="M-2462-1888a67 67 0 0 1-5-11l-23 63h42c0-1 5-16-14-52Z" data-name="Path 260127"/>
            <path d="M-2286-1783c-19 36-14 51-14 52h42l-23-63a67 67 0 0 1-5 11Z" data-name="Path 260128"/>
            <path d="M-2286-1573c-19 36-14 51-14 52h42l-23-63a67 67 0 0 1-5 11Z" data-name="Path 260129"/>
            <path d="M-2462-1678a67 67 0 0 1-5-11l-23 63h42c0-1 5-16-14-52Z" data-name="Path 260130"/>
            <path d="M-2462-2308a67 67 0 0 1-5-11l-23 63h42c0-1 5-16-14-52Z" data-name="Path 260131"/>
            <path d="M-2300-2151h42l-23-63a67 67 0 0 1-5 11c-19 36-14 51-14 52Z" data-name="Path 260132"/>
            <path d="M-2286-1993c-19 36-14 51-14 52h42l-23-63a67 67 0 0 1-5 11Z" data-name="Path 260133"/>
            <path d="M-2462-2098a67 67 0 0 1-5-11l-23 63h42c0-1 5-16-14-52Z" data-name="Path 260134"/>
            <path d="M-2462-1473a67 67 0 0 1-5-11l-23 63h42c0-1 5-16-14-52Z" data-name="Path 260135"/>
            <path d="M-2286-1368c-19 36-14 51-14 52h42l-23-63a67 67 0 0 1-5 11Z" data-name="Path 260136"/>
            <path d="M-2286-1158c-19 36-14 51-14 52h42l-23-63a67 67 0 0 1-5 11Z" data-name="Path 260137"/>
            <path d="M-2462-1263a67 67 0 0 1-5-11l-23 63h42c0-1 5-16-14-52Z" data-name="Path 260138"/>
            <path d="M-3038-1888a67 67 0 0 1-5-11l-23 63h42c0-1 5-16-14-52Z" data-name="Path 260139"/>
            <path d="M-2862-1783c-19 36-14 51-14 52h42l-23-63a67 67 0 0 1-5 11Z" data-name="Path 260140"/>
            <path d="M-2862-1573c-19 36-14 51-14 52h42l-23-63a67 67 0 0 1-5 11Z" data-name="Path 260141"/>
            <path d="M-3038-1678a67 67 0 0 1-5-11l-23 63h42c0-1 5-16-14-52Z" data-name="Path 260142"/>
            <path d="M-3038-2308a67 67 0 0 1-5-11l-23 63h42c0-1 5-16-14-52Z" data-name="Path 260143"/>
            <path d="M-2862-2203c-19 36-14 51-14 52h42l-23-63a67 67 0 0 1-5 11Z" data-name="Path 260144"/>
            <path d="M-2862-1993c-19 36-14 51-14 52h42l-23-63a67 67 0 0 1-5 11Z" data-name="Path 260145"/>
            <path d="M-3038-2098a67 67 0 0 1-5-11l-23 63h42c0-1 5-16-14-52Z" data-name="Path 260146"/>
          </g>
        </g>
      </g>
    </g>
  </g>
</svg>
