<svg xmlns="http://www.w3.org/2000/svg" xmlns:xlink="http://www.w3.org/1999/xlink" viewBox="0 0 163.1 25.9">
  <defs>
    <path id="a" fill="none" d="M0 0h163.1v26H0z"/>
  </defs>
  <defs>
    <clipPath id="b">
      <use xlink:href="#a"/>
    </clipPath>
    <clipPath id="c">
      <path fill="none" d="M0 0h17v17H0z"/>
    </clipPath>
    <clipPath id="d">
      <path fill="none" d="M15.6 24.1a8.5 8.5 0 1 0 8.5-8.5 8.5 8.5 0 0 0-8.5 8.5" transform="translate(-15.6 -15.6)"/>
    </clipPath>
  </defs>
  <g clip-path="url(#b)">
    <path fill="#161615" d="m115.7 22.3.3-1.1h.5l-.4 1Zm13.3-.6v-.4a2 2 0 0 0 .7.2c.3 0 .6-.2.6-.5 0-.7-1.3-.5-1.3-1.5 0-.6.4-.9 1-.9a2.1 2.1 0 0 1 .7.2l-.1.4a1.4 1.4 0 0 0-.6-.2c-.2 0-.5.1-.5.5 0 .6 1.3.4 1.3 1.4 0 .7-.5 1-1.1 1a2.1 2.1 0 0 1-.7-.2Zm-27.8-1.5a1.6 1.6 0 0 1 1.7-1.6 2.4 2.4 0 0 1 .9.2v.5a1.5 1.5 0 0 0-1-.3 1.2 1.2 0 0 0 0 2.5 1.9 1.9 0 0 0 .6 0v-1h-.7V20h1.1v1.6a2.9 2.9 0 0 1-1 .2 1.5 1.5 0 0 1-1.6-1.7Zm55.9 0a1.5 1.5 0 1 1 3 0 1.5 1.5 0 1 1-3 0Zm.5 0c0 .7.3 1.3 1 1.3s1-.6 1-1.2a1 1 0 0 0-1-1.3 1 1 0 0 0-1 1.3Zm-16.4 0a1.5 1.5 0 1 1 3 0 1.5 1.5 0 1 1-3 0Zm.5 0c0 .7.3 1.3 1 1.3s1-.6 1-1.2a1 1 0 0 0-1-1.3 1 1 0 0 0-1 1.3Zm-31.2 0a1.6 1.6 0 0 1 1.7-1.6 1.8 1.8 0 0 1 .7.2v.4a1.3 1.3 0 0 0-.7-.2 1.2 1.2 0 0 0 0 2.5 1.6 1.6 0 0 0 .7-.2v.5a2 2 0 0 1-.7 0 1.5 1.5 0 0 1-1.7-1.6Zm-33.2 0a1.5 1.5 0 1 1 3 0 1.5 1.5 0 1 1-3 0Zm.5 0c0 .7.3 1.3 1 1.3s1-.6 1-1.2a1 1 0 0 0-1-1.3 1 1 0 0 0-1 1.3Zm-21.3 0a1.6 1.6 0 0 1 1.7-1.6 1.8 1.8 0 0 1 .7.2v.4a1.3 1.3 0 0 0-.7-.2 1.2 1.2 0 0 0 0 2.5 1.6 1.6 0 0 0 .6-.2v.5a2 2 0 0 1-.7 0 1.5 1.5 0 0 1-1.6-1.6Zm-6.5 0a1.5 1.5 0 1 1 3 0 1.5 1.5 0 1 1-3 0Zm.5 0c0 .7.3 1.3 1 1.3s1-.6 1-1.2a1 1 0 0 0-1-1.3 1 1 0 0 0-1 1.3Zm-12.4 0a1.5 1.5 0 0 1 1.5-1.6 1.5 1.5 0 0 1 1.5 1.7 1.5 1.5 0 0 1-1.5 1.6 1.5 1.5 0 0 1-1.5-1.6Zm.5 0c0 .7.3 1.3 1 1.3s1-.6 1-1.2a1 1 0 0 0-1-1.3 1 1 0 0 0-1 1.3Zm99.2 1.6v-1.3l-1.3-1.8h.6l1 1.4.8-1.4h.6l-1.3 1.8v1.3Zm-10 0v-3.1h.5v3.1Zm-4.7 0v-3.1h.5v3.1Zm-8.7 0v-1.3l-1.2-1.8h.5l1 1.4.9-1.4h.5l-1.2 1.8v1.3Zm-33.3 0v-3.1h.8c.6 0 1.2.2 1.2 1 0 .6-.6.9-1.1.9h-.5v1.2Zm.4-1.6h.5a.6.6 0 0 0 .6-.6c0-.4-.4-.5-.7-.5h-.4Zm-18 1.6v-3.1h.9a1.5 1.5 0 0 1 1.6 1.5 1.5 1.5 0 0 1-1.6 1.6Zm.4-.4h.5a1 1 0 0 0 1.2-1.1 1.1 1.1 0 0 0-1.2-1.2H64Zm98.7.4-.5-1c-.2-.4-.3-.4-.6-.4h-.2v1.4h-.5v-3.1h.8c.6 0 1.2.1 1.2.8a.7.7 0 0 1-.6.8.5.5 0 0 1 .3.3l.6 1.2Zm-1.3-1.8h.4c.4 0 .6-.1.6-.4 0-.3-.2-.5-.6-.5h-.4Zm-7 1.8v-3.1h1c.6 0 1 .2 1 .8a.7.7 0 0 1-.6.7.7.7 0 0 1 .7.8c0 .7-.6.8-1.2.8Zm.5-.3h.3c.5 0 .8-.1.8-.5 0-.5-.4-.6-.8-.6h-.3Zm0-1.5h.3c.4 0 .8 0 .8-.5 0-.3-.4-.4-.6-.4h-.5Zm-1.5 1.8-.3-.8h-1.5l-.4.8h-.4l1.3-3.1h.5l1.3 3.1Zm-1.7-1.1h1.3l-.7-1.6Zm-3 1.1v-3.1h.5v2.7h1.3v.4Zm-3.7 0v-3.1h1.7v.4h-1.2v.9h1.2v.4h-1.2v1.4Zm-9 0-.5-1c-.2-.4-.3-.4-.6-.4h-.3v1.4h-.4v-3.1h.8c.6 0 1.2.1 1.2.8a.7.7 0 0 1-.7.8.5.5 0 0 1 .4.3l.6 1.2Zm-1.4-1.8h.4c.5 0 .7-.1.7-.4 0-.3-.2-.5-.6-.5h-.4Zm-2.4 1.8v-2.7h-1v-.4h2.5v.4h-1v2.7Zm-5.8 0-1.4-2.5v2.5h-.4v-3.1h.6l1.4 2.5v-2.5h.4v3.1Zm-4.5 0v-2.7l-1 2.7h-.5l-1-2.7v2.7h-.5v-3.1h.7l1 2.6 1-2.6h.7v3.1Zm-12.6 0-1.4-2.5v2.5h-.5v-3.1h.6l1.4 2.5v-2.5h.5v3.1Zm-4.5 0v-3.1h1.8v.4h-1.3v.9h1.2v.4h-1.2v1h1.3v.4Zm-4.4 0-.3-.8h-1.6l-.3.8h-.5l1.4-3.1h.5l1.3 3.1Zm-1.7-1.1h1.2l-.6-1.6Zm-4 1.1v-2.7h-1v-.4h2.5v.4h-1v2.7Zm-2 0L91 19.3v2.5h-.4v-3.1h.6l1.4 2.5v-2.5h.4v3.1Zm-4.5 0v-3.1h1.8v.4h-1.4v.9h1.2v.4h-1.2v1H90v.4Zm-1.4 0v-2.7l-1 2.7h-.5l-1-2.7v2.7h-.5v-3.1h.8l1 2.6 1-2.6h.7v3.1Zm-11.6 0v-3.1h.5v2.7h1.3v.4Zm-2.5 0v-3.1h1.7v.4H73v.9h1.2v.4H73v1h1.3v.4Zm-2.4 0L69 18.7h.6l1 2.7 1-2.7h.4l-1.2 3.1Zm-3.4 0v-3.1h1.8v.4h-1.3v.9h1.2v.4h-1.2v1h1.3v.4Zm-7.3 0v-3.1h1.8v.4H60v.9h1.2v.4H60v1h1.3v.4Zm-4 0-.5-1c-.1-.4-.3-.4-.5-.4h-.3v1.4h-.4v-3.1h.7c.7 0 1.3.1 1.3.8a.7.7 0 0 1-.7.8c.2 0 .2 0 .3.3l.6 1.2ZM54.2 20h.4c.4 0 .7-.1.7-.4 0-.3-.2-.5-.6-.5h-.5Zm-6.4 1.8v-3.1h1.7v.4h-1.3v.9h1.2v.4h-1.2v1.4Zm-1.2 0-1.4-1.5v1.5h-.5v-3.1h.5v1.4l1.3-1.4h.6l-1.4 1.5 1.6 1.6Zm-3 0-.5-1c-.2-.4-.3-.4-.5-.4h-.3v1.4h-.5v-3.1h.8c.6 0 1.2.1 1.2.8a.7.7 0 0 1-.6.8c.1 0 .2 0 .3.3l.6 1.2ZM42.3 20h.4c.4 0 .7-.1.7-.4 0-.3-.3-.5-.7-.5h-.4Zm-6.1 1.8-.7-2.7-.7 2.7h-.6l-1-3.1h.5l.8 2.7.7-2.7h.6l.7 2.7.8-2.7h.4l-1 3.1Zm27.4-6.4a22.7 22.7 0 0 0 0-2.4v-2.4h5V13a22.8 22.8 0 0 0 .1 2.4 1.3 1.3 0 0 1-.5 0h-.5a2 2 0 0 0 0-.4v-.3h-3.2v.4a2.6 2.6 0 0 0 0 .3l-.4.1a1.2 1.2 0 0 1-.5 0Zm1-1.6h3.1v-2.3h-3.2Zm32.7 1 .6-.4-5.3.6-.2-.9 2.8-.2v-1.1h-2.4a1 1 0 0 1 0-.4 1 1 0 0 1 0-.4h2.4v-.8h-2.4a5 5 0 0 0 0-.7V9.3a18.4 18.4 0 0 0 0-1.9h2.4v-.8h-2.7a1.2 1.2 0 0 1 0-.4 1.2 1.2 0 0 1 0-.4 12.4 12.4 0 0 0 1.3 0h1.4V5l-2.4.1a2.4 2.4 0 0 0-.2-.7 35 35 0 0 0 5.5-.6l.4.7A24.6 24.6 0 0 1 96 5v1h1.4l1.4-.1a1.2 1.2 0 0 1 0 .4 2.1 2.1 0 0 1 0 .4h1.4V3.9h1l-.1 2.9h2.7V7q-.1 4.2-.3 5.7a4.5 4.5 0 0 1-.4 2 1 1 0 0 1-.9.5 9 9 0 0 1-1.5 0 2.4 2.4 0 0 0-.3-.9l1.4.1a.6.6 0 0 0 .5-.2 4.6 4.6 0 0 0 .3-1.8q.2-1.5.3-5H101a17.4 17.4 0 0 1-.7 4.7 6.6 6.6 0 0 1-2.3 3.3 2.3 2.3 0 0 0-.6-.7Zm-1.3-1 2.6-.3a7.2 7.2 0 0 0 1.2-2.6 20.1 20.1 0 0 0 .4-3.3h-.8a7.2 7.2 0 0 0-.7 0 1.4 1.4 0 0 1 0-.5 2.8 2.8 0 0 1 0-.4l-1.3-.1h-1.3v.8h2.4a9 9 0 0 0 0 1v1.9a9 9 0 0 0 0 1h-2.4v.7h2.5a1 1 0 0 1 0 .4 1 1 0 0 1 0 .4H96Zm0-3.2h1.7v-1h-1.6Zm-2.4 0h1.6v-1h-1.6ZM96 9h1.7V8h-1.6Zm-2.4 0h1.6V8h-1.6Zm-40.7 5.8.6-.4-5.4.6-.1-.9 2.8-.2v-1.1h-2.5a1 1 0 0 1 0-.4 1 1 0 0 1 0-.4h2.5v-.8h-2.4a5 5 0 0 0 0-.7V9.3a18.5 18.5 0 0 0-.1-1.9h2.5v-.8H48a1.2 1.2 0 0 1 0-.4 1.2 1.2 0 0 1 0-.4 12.4 12.4 0 0 0 1.4 0h1.4V5l-2.4.1a2.3 2.3 0 0 0-.3-.7 35 35 0 0 0 5.5-.6l.5.7a24.7 24.7 0 0 1-2.5.4v1h1.3l1.4-.1a1.2 1.2 0 0 1 0 .4 2.1 2.1 0 0 1 0 .4h1.4V3.8h1v2.8h2.6v.5q0 4.2-.2 5.7a4.5 4.5 0 0 1-.5 2 1 1 0 0 1-.8.6 9 9 0 0 1-1.6 0 2.4 2.4 0 0 0-.2-1l1.4.1a.6.6 0 0 0 .4-.2 4.6 4.6 0 0 0 .4-1.8l.2-5h-1.8a17.4 17.4 0 0 1-.7 4.7 6.6 6.6 0 0 1-2.3 3.3 2.3 2.3 0 0 0-.7-.7Zm-1.3-1 2.5-.3a7.2 7.2 0 0 0 1.2-2.6 20.3 20.3 0 0 0 .4-3.3h-.8a7.2 7.2 0 0 0-.7 0 1.3 1.3 0 0 1 0-.5 2.8 2.8 0 0 1 0-.4l-1.3-.1h-1.3v.8h2.5a9.1 9.1 0 0 0 0 1v1.9a9.1 9.1 0 0 0 0 1h-2.5v.7h2.5a1 1 0 0 1 0 .4 1 1 0 0 1 0 .4h-2.5Zm0-3.2h1.7v-1h-1.7Zm-2.5 0h1.7v-1H49ZM51.6 9h1.7V8h-1.7Zm-2.5 0h1.7V8H49Zm58.3 5.7a9 9 0 0 0 3.5-3.5 9.9 9.9 0 0 0 1-3.8h-2l-2.1.1a2 2 0 0 1 0-.6 2 2 0 0 1 0-.5h4.1V3.7a4.8 4.8 0 0 1 .8 0l.5.2a1.5 1.5 0 0 0-.3.8v1.9h5.3V7q-.2 4-.5 5.6a4.7 4.7 0 0 1-.6 2.2 1.3 1.3 0 0 1-.5.4 2.1 2.1 0 0 1-.6.1 15.8 15.8 0 0 1-2 0 1.9 1.9 0 0 0-.4-1l2 .1a.8.8 0 0 0 .6-.2 3.8 3.8 0 0 0 .6-1.8l.4-5h-4.4a11 11 0 0 1-1 4.2 9.6 9.6 0 0 1-3.7 3.9 2.7 2.7 0 0 0-.7-.8Zm-37.6.7v-11a17.9 17.9 0 0 0 2 0h2l.6.4q-1 2.6-1.7 3.9a4.4 4.4 0 0 1 1.6 3.1 1.9 1.9 0 0 1-.6 1.7 1.8 1.8 0 0 1-.9.3 7 7 0 0 1-1 0 2 2 0 0 0-.3-1 6.4 6.4 0 0 0 1 0 1.3 1.3 0 0 0 .5 0q.4-.3.4-1a4 4 0 0 0-1.7-3l1.5-3.5h-2.4v10.1a1.3 1.3 0 0 1-.5.1 1.3 1.3 0 0 1-.5 0Zm84.5 0a13.9 13.9 0 0 0 .1-1.6V12l-2.3.8a7.5 7.5 0 0 0-.5-.8 27.2 27.2 0 0 0 5.5-2h-5.2a1.5 1.5 0 0 1 0-.4 1.3 1.3 0 0 1 0-.4h4.5v-1h-1.7l-1.6.1a1 1 0 0 1 0-.4 1 1 0 0 1 0-.4h3.3V7h-3.7V5.5a12.2 12.2 0 0 0 0-1.4 23.2 23.2 0 0 0 2.4 0h7.2v1.4a12.1 12.1 0 0 0 0 1.4V7h-5v.7h3V8l1.2-1a2.4 2.4 0 0 1 .5.5q.2.2.1.3a.2.2 0 0 1-.1 0 .5.5 0 0 0-.4.2 17.6 17.6 0 0 1-1.7 1.4h1.6l1.6-.1a1.2 1.2 0 0 1 0 .4 1.3 1.3 0 0 1 0 .5l-2.2-.1h-2.1a25 25 0 0 1-2.4 1.2h3.7a7.2 7.2 0 0 0-1.8-.7l.5-.5a6.3 6.3 0 0 1 2 .7l-.5.5h.8a5.4 5.4 0 0 0 .7 0 10.3 10.3 0 0 0 0 1v3.1a1.2 1.2 0 0 1-.5 0h-.5a.6.6 0 0 0 0-.2v-.1h-5.5v.1a.6.6 0 0 0 0 .2h-.4a1 1 0 0 1-.6 0Zm1-1h5.5v-1h-5.5Zm0-1.5h5.5v-1h-5.5Zm2-3.5h1l1.6-1h-2.6Zm2-3.2h2.1V5h-2Zm-2.9 0h2V5h-2Zm-2.8 0h2V5h-2Zm-10.4 5.4h-1.6V14l1.2-.2 1.5-.2v.8l-1.6.3-3.3.6-.1-1 1.4-.1v-2.6h-1.6a1.2 1.2 0 0 1 0-.5 1.3 1.3 0 0 1 0-.4h2.3V9.4h-1.9a1.2 1.2 0 0 1 0-.4 1.2 1.2 0 0 1 0-.4 9 9 0 0 0 1 0h1V7.4H139V8q0 5-1.5 7.4a2.9 2.9 0 0 0-.8-.4 9 9 0 0 0 1.1-3.5A24.2 24.2 0 0 0 138 8V6.1a17.5 17.5 0 0 0 0-1.8v-.1a22 22 0 0 0 2.4 0h4.8a22.1 22.1 0 0 0 2.3 0 6 6 0 0 0 0 .9v.7l.1 1.6a9 9 0 0 0-1 0h-1v1.2h2.1a1.3 1.3 0 0 1 .1.4 1.3 1.3 0 0 1 0 .5h-2.2v1.2h2.7a1.5 1.5 0 0 1 0 .5 1.6 1.6 0 0 1 0 .5l-2.2-.1H144a5.3 5.3 0 0 0 1 1.3 13.8 13.8 0 0 0 1.9-1.3 2.4 2.4 0 0 1 .5.5q.2.3.1.4a.2.2 0 0 1-.2 0 .5.5 0 0 0-.4.1 12.3 12.3 0 0 1-1.3.8 7 7 0 0 0 2.8 1.3 2.5 2.5 0 0 0-.5.8 6.7 6.7 0 0 1-4.8-4Zm-.9-.9h2.6V9.4h-2.6Zm0-2.1h2.6V7.4h-2.6Zm-3.2-2h7.6V5h-7.6Zm-12.3 8.1a9 9 0 0 0 2.6-.8A5.2 5.2 0 0 1 128 12l.5-.2h-1v-.3a1 1 0 0 1 0-.4 10.5 10.5 0 0 0 1.1 0h3.3l.5.2a5.6 5.6 0 0 1-1.6 2.4 8.2 8.2 0 0 0 2.6.8 3.4 3.4 0 0 0-.6.8 7.7 7.7 0 0 1-2.8-1 9.3 9.3 0 0 1-2.8 1 2.7 2.7 0 0 0-.4-.7Zm3.3-1.3a4.5 4.5 0 0 0 1.2-1.5h-2.5a3.9 3.9 0 0 0 1.3 1.5Zm-52.3 1.2a7.9 7.9 0 0 0 3.1-1.1 3.4 3.4 0 0 0 1.4-2h-1.7q-.9 0-1.7.2a1.7 1.7 0 0 1 0-.5 1.5 1.5 0 0 1 0-.5 16.1 16.1 0 0 0 1.8 0h1.7l.2-1.4h1l-.2 1.4h4.4v.5a27.3 27.3 0 0 1-.4 2.7A2.3 2.3 0 0 1 87 15a1.3 1.3 0 0 1-1 .4h-1.9a1.7 1.7 0 0 0-.3-1l1.9.2a.9.9 0 0 0 .5-.2 6.6 6.6 0 0 0 .6-2.8h-3.5a4.4 4.4 0 0 1-1.5 2.5 8.1 8.1 0 0 1-3.5 1.3 2 2 0 0 0-.5-.8Zm-44.5 0a7.9 7.9 0 0 0 3.2-1.1 3.4 3.4 0 0 0 1.3-2h-1.7l-1.7.2a1.7 1.7 0 0 1 0-.5 1.5 1.5 0 0 1 0-.5 16.1 16.1 0 0 0 1.8 0H38l.1-1.4h1l-.1 1.4h4.3v.4A27.4 27.4 0 0 1 43 14a2.3 2.3 0 0 1-.5 1.1 1.3 1.3 0 0 1-.9.4h-2a1.7 1.7 0 0 0-.3-1l2 .2a.9.9 0 0 0 .5-.2 6.6 6.6 0 0 0 .5-2.8h-3.5a4.4 4.4 0 0 1-1.4 2.4 8.1 8.1 0 0 1-3.6 1.4 2 2 0 0 0-.5-.8Zm90.3.8a1.6 1.6 0 0 0-.3-.8h1.7a.7.7 0 0 0 .4 0 1.3 1.3 0 0 0 .3-.7 14.3 14.3 0 0 0 .2-1.6h-2.3v.4l-.8-.1a28.5 28.5 0 0 0 .6-3h2.5V8.4h-2.2a10.4 10.4 0 0 1-1.3.5 3 3 0 0 0-.5-.7 8.9 8.9 0 0 0 2.5-1.3 7 7 0 0 0-1.4-1l.5-.6a9.5 9.5 0 0 1 1.5 1.1 6.2 6.2 0 0 0 1.3-1.3h-3a1.3 1.3 0 0 1 0-.4 1 1 0 0 1 0-.4 7.3 7.3 0 0 0 .9 0h2.7l.6.3a7.4 7.4 0 0 1-2.7 3h1a9.4 9.4 0 0 0 1 0 6 6 0 0 0 0 .8v2.1a2 2 0 0 0 1.2-2v-.9h2.9a8.3 8.3 0 0 1-3-3.6l.7-.2a6.8 6.8 0 0 0 1 1.5 13.6 13.6 0 0 0 1.6-1.5 2.6 2.6 0 0 1 .4.5q.3.3.2.4a.2.2 0 0 1-.2 0 .6.6 0 0 0-.4.2 12 12 0 0 1-1.2 1 7.3 7.3 0 0 0 1 .7 11.2 11.2 0 0 0 1.7-1.5 2.5 2.5 0 0 1 .4.5l.2.3a.2.2 0 0 1-.2.1.6.6 0 0 0-.4.2 10.3 10.3 0 0 1-1.1.8 8.3 8.3 0 0 0 2.2 1 3 3 0 0 0-.6.7 8.3 8.3 0 0 1-1.8-.8v1.7a.6.6 0 0 0 0 .3.4.4 0 0 0 .2 0h.4a1.7 1.7 0 0 0 .3 0 .3.3 0 0 0 .1-.1 6.2 6.2 0 0 0 0-.7 1.7 1.7 0 0 0 .8.4 2.6 2.6 0 0 1-.2.8.8.8 0 0 1-.3.3 2 2 0 0 1-.6.1h-.6a1.1 1.1 0 0 1-.7-.2 1.5 1.5 0 0 1-.2-1V8.3h-1.8v.2a2.7 2.7 0 0 1-1.4 2.5 3.7 3.7 0 0 0-.6-.6v.2a1.1 1.1 0 0 1-.4 0h-.5v-.2H124v.4l-.2.8h3v.4a20.8 20.8 0 0 1-.3 2.1 1.9 1.9 0 0 1-.4 1 1.3 1.3 0 0 1-.8.3h-1.7Zm-35.9-4.8a5 5 0 0 0 0-.8v-.7h-8.6v.7a5 5 0 0 0 0 .8h-1V8.3h10.1A24 24 0 0 0 86 6.6a3.9 3.9 0 0 1-2.3 1.6 1.7 1.7 0 0 0-.5-.7 3.3 3.3 0 0 0 2-1.3 5.5 5.5 0 0 0 .6-2.5h.9a9 9 0 0 1-.4 2.2L89 7.7l-.6.6h.4v2.3a1.2 1.2 0 0 1-.4 0h-.6Zm-44.4 0a5 5 0 0 0 0-.8v-.7h-8.7v.7a5 5 0 0 0 0 .8h-.9V8.3h10a23.8 23.8 0 0 0-2.2-1.7 3.9 3.9 0 0 1-2.3 1.6 1.7 1.7 0 0 0-.5-.7 3.3 3.3 0 0 0 2-1.3 5.5 5.5 0 0 0 .5-2.5h1a9 9 0 0 1-.4 2.2l2.6 1.8-.6.6h.5v2.3a1.2 1.2 0 0 1-.5 0h-.5Zm24.4-1.1h-4.9a1.8 1.8 0 0 1 0-.4 2 2 0 0 1 0-.6l3.3.1h3.3a1.6 1.6 0 0 1 0 .5 1.8 1.8 0 0 1 0 .5 13.4 13.4 0 0 0-1.7-.1Zm-.9-1.2a16.3 16.3 0 0 0 .8-2.2 3.5 3.5 0 0 1 .6.3c.2 0 .3.1.3.2a.4.4 0 0 0-.3.3v.3l-.2.3-.4 1Zm-2.5-.8a7.8 7.8 0 0 0-.4-1.1l.8-.2a6.7 6.7 0 0 1 .6 2l-.8.3a5 5 0 0 0-.2-1Zm13.4 0A3.5 3.5 0 0 0 80 6.3a3.4 3.4 0 0 0 .4-1 9.4 9.4 0 0 0 .1-1.5h.9a9 9 0 0 1-.4 2.3h.2L83 7.5l-.6.6-1.7-1.3a3.8 3.8 0 0 1-2.4 1.6 1.7 1.7 0 0 0-.5-.7Zm-44.4 0a3.5 3.5 0 0 0 2.1-1.2 3.4 3.4 0 0 0 .4-1.2 9.4 9.4 0 0 0 .2-1.4h.8a9 9 0 0 1-.3 2.3h.2l1.7 1.4-.6.6-1.6-1.3a3.8 3.8 0 0 1-2.5 1.6 1.7 1.7 0 0 0-.4-.7ZM77.9 6a3 3 0 0 0 1-1.7 3.5 3.5 0 0 1 .6.3l.2.2h-.1a.3.3 0 0 0-.2.3 3.3 3.3 0 0 1-.2.4 2.7 2.7 0 0 1-.7.9ZM33.5 6a3 3 0 0 0 1-1.7 3.5 3.5 0 0 1 .5.3c.2 0 .2.1.2.2a.3.3 0 0 0-.2.3 3.3 3.3 0 0 1-.3.4 2.7 2.7 0 0 1-.7.9ZM83 5.9a2.6 2.6 0 0 0 1.1-1.6 5.4 5.4 0 0 1 .5.2l.3.3h-.1a.3.3 0 0 0-.2.2 5 5 0 0 1-.2.5 2.4 2.4 0 0 1-.8.8Zm-44.4 0a2.6 2.6 0 0 0 1-1.6 5.3 5.3 0 0 1 .6.2c.2.1.2.2.2.3a.3.3 0 0 0-.3.2l-.2.5a2.4 2.4 0 0 1-.7.8Zm48.3 0a8 8 0 0 0 1-1.6 3 3 0 0 1 .6.3l.3.3a.2.2 0 0 1-.1 0 .3.3 0 0 0-.3.1 3 3 0 0 0-.2.3l-.1.2-.6.7Zm-44.5 0a8.1 8.1 0 0 0 1-1.6 3 3 0 0 1 .7.3l.2.3a.2.2 0 0 1-.1 0 .3.3 0 0 0-.2.1 3.2 3.2 0 0 0-.2.3l-.2.2-.6.7Zm39-.1a10.2 10.2 0 0 0 1-1.5 3 3 0 0 1 .6.3l.2.2a.2.2 0 0 1 0 .1.2.2 0 0 0-.3.1 7.2 7.2 0 0 0-.3.4l-.2.2a5 5 0 0 1-.4.5ZM37 5.8a10.2 10.2 0 0 0 1-1.5 3 3 0 0 1 .5.3l.3.2a.2.2 0 0 1-.1.1.2.2 0 0 0-.2.1 7.2 7.2 0 0 0-.3.4l-.3.2a5 5 0 0 1-.3.5Zm30.6.1H63a1.5 1.5 0 0 1 0-.4 1.3 1.3 0 0 1 0-.5h2.6v-.6a6.2 6.2 0 0 0 0-.7 3.8 3.8 0 0 1 .6 0l.5.1a1.1 1.1 0 0 0-.2.7V5h2.6a1.3 1.3 0 0 1 0 .4 1.5 1.5 0 0 1 0 .5 15 15 0 0 0-1.5 0Z"/>
    <path fill="rgba(0,0,0,0)" d="M116.5 22.8h-1.4l.1-.5H114v-1.6l-.6-1v.3l-.7-.4a.8.8 0 0 0-.4 0 .7.7 0 0 0 0 1.4 1.2 1.2 0 0 0 .4-.1l.7-.4.1 1.6-.3.1a2.4 2.4 0 0 1-1 .2 2 2 0 0 1-1.8-1v1H109l-.6-1.2v1.1h-4v-.2l-.3.1a3.4 3.4 0 0 1-1.2.2 2.2 2.2 0 0 1-1.5-.6l.3.5H100l-.4-.8h-.8l-.3.8h-1.6l1.8-4.1h.3l.2-.4.2.4h.4l.9 2a2 2 0 0 1 2.2-2 2.9 2.9 0 0 1 1 .1l.3.1v-.2h4l.6 1.1v-1.1h1.5v1a2.1 2.1 0 0 1 1.9-1 2.5 2.5 0 0 1 .5 0h1.3l.6 1 .7-1h1.7l-1.6 2.5v1l.2-1h1.6Zm-10.8-1.9h1.1-1.1Zm-3.2-1.3h.9a1.2 1.2 0 0 0-.5 0 .8.8 0 0 0-.4 0Zm-17 3.1-.2-.4h-.4l-.2-.5v.5h-1.5v-1.7a1.7 1.7 0 0 1-1.2.5v1.2h-1.4v-.9a2 2 0 0 1-1.8 1 2 2 0 0 1-1.4-.6v.5H72V20l-.9 2.3H70L69 20v.9h-1.1H69v1.4h-2.8v-1a2 2 0 0 1-2 1H63v-4.1h1.5a2.1 2.1 0 0 1 2 1.1v-1.1H70l.6 1.8.7-1.8H76v2.7h.8a2.6 2.6 0 0 1 0-.6 2 2 0 0 1 2-2.2 2 2 0 0 1 1.7 1v-1h1.3a1.8 1.8 0 0 1 1.3.5v-.4h1.6l.6 1.7.7-1.7h5.5l.6 1v-1h4.4v1.4h-1v2.7h-1.4v-2.7h-.6v2.7h-1.3l-.7-1.1v1.1h-5.4v-.5l-.2.5h-.4Zm-6.7-3.2c-.5 0-.5.6-.5.8 0 .2 0 .7.5.7s.6-.5.6-.7c0-.2 0-.8-.5-.8Zm-14.4 0V21c.5 0 .7-.2.7-.7a.6.6 0 0 0-.7-.6ZM89 21h1.2H89Zm-15.5 0h1.1-1.1Zm47 1.8-.2-.4h-.4l-.2-.5v.5h-1.4v-4.1h1.5l.7 1.7.6-1.7h4.3l.6 1.1v-1.1h2.8v.5a1.6 1.6 0 0 1 1.2-.6 2.7 2.7 0 0 1 .7.1h4.2a3 3 0 0 1 .8 0h-.1 1.7l.7 1 .7-1h1.7l-1.7 2.5v1.6h-1.4v-1.6l-.7-1a1.2 1.2 0 0 1-.4.7l1 2h-1.7l-.4-1.1v1h-1.5v-2.7h-.5v2.7h-1.5v-2.7h-.6v.3l-.5-.2a1.4 1.4 0 0 1 .8 1.2 1.5 1.5 0 0 1-1.6 1.5 2.6 2.6 0 0 1-.8-.2h-.1v.1H126l-.6-1.1v1.1h-4.1v-.5l-.3.5h-.4Zm8.3-2 .4.2a1.4 1.4 0 0 0 .5 0 .3.3 0 0 0 .1 0 2.6 2.6 0 0 0-.3 0 2.2 2.2 0 0 1-.7-.6Zm29.8 1.7a2 2 0 0 1-1.8-1c0 .4-.5 1-1.6 1H153l-.3-.9h-.9l-.3.8h-3.3v-4.1h1.4V21h1l1.1-2.7h.4l.1-.4.2.4h.4l1 2.4v-2.4h1.4a2 2 0 0 1 1 .2 1.1 1.1 0 0 1 .6.8 2 2 0 0 1 3.5-.1v-1h1.3a2.4 2.4 0 0 1 1 .3 1.2 1.2 0 0 1 .7 1.1 1.2 1.2 0 0 1-.3.9l.9 2h-1.7l-.4-1.1v1h-1.5v-.9a2 2 0 0 1-1.7 1Zm0-2.9c-.5 0-.5.6-.5.8 0 .2 0 .7.5.7s.5-.5.5-.7c0-.2 0-.8-.5-.8Zm-15.9 2.9a2 2 0 0 1-2-2.2 2 2 0 0 1 2-2 2 2 0 0 1 1.7.9v-1h2.7V21h-1.2v1.4h-1.5v-.9a2 2 0 0 1-1.7 1Zm0-2.9c-.5 0-.5.6-.5.8 0 .2 0 .7.5.7s.6-.5.6-.7c0-.2 0-.8-.6-.8Zm-84.6 2.9a2.2 2.2 0 0 1-1.6-.7l.3.6h-1.6l-.5-1v1h-1.4v-.9a2 2 0 0 1-3.7-.5h-.9v1.4h-2.3l-.7-.7v.7h-2.5l-.4-1v1h-1.5v-.9a2 2 0 0 1-1.7 1 2 2 0 0 1-2-1.6l-.5 1.5h-1.3l-.3-1.2-.3 1.2h-1.4l-1.2-4.1H34l.4 1.3.3-1.3h1.4l.3 1.3.4-1.3h1.5l-.1.4a2 2 0 0 1 1.3-.5 2 2 0 0 1 1.7 1v-1h1.3a2.4 2.4 0 0 1 1 .3 1.1 1.1 0 0 1 .6.6v-.8h1.5v.6l.6-.6H50v.6a2 2 0 0 1 1.5-.7 2 2 0 0 1 1.8 1v-1h1.2a2.4 2.4 0 0 1 1.1.3 1.2 1.2 0 0 1 .6.8 2.1 2.1 0 0 1 2-1 2.3 2.3 0 0 1 .8.1v-.1h2.8v1.4h-.1V21h-1.2 1.3v1.4H59a2.4 2.4 0 0 1-.9 0Zm-11.7-2.2.9 1v-2Zm-2.4.2.2.6v-1a1.2 1.2 0 0 1-.2.4Zm14.2-.9a.7.7 0 0 0 0 1.5 1.2 1.2 0 0 0 .4-.1l.4-.3V20l-.4-.3a.8.8 0 0 0-.4 0Zm-6.7 0c-.5 0-.5.6-.5.8 0 .2 0 .7.5.7s.6-.5.6-.7c0-.2 0-.8-.6-.8Zm-11.9 0c-.5 0-.5.6-.5.8 0 .2 0 .7.5.7s.5-.5.5-.7c0-.2 0-.8-.5-.8Zm13.9-3.3-.3-.4a1.8 1.8 0 0 0-.6-.6l-.3-.2-4.1.5h-.5l-.3-1.8h.5l2.4-.3v-.1h-2.1l-.2-.1c-.2-.2-.2-.4-.2-.8s0-.6.2-.8a.6.6 0 0 1-.2-.4 4.3 4.3 0 0 0 0-.7V9.3a18 18 0 0 0 0-1.8.6.6 0 0 1 0-.3l-.2-.2-.1-.8.1-.7.2-.2a1.9 1.9 0 0 0-.1-.6l-.4-.7h.8a34.7 34.7 0 0 0 5.4-.7h.3L55 4.8l-.7.1-2 .3h2.1l.2.2a1 1 0 0 1 .1.6h.4V3.3h2v2.8h2.6v1.1l-.2 5.7a4.4 4.4 0 0 1-.6 2.3 1.6 1.6 0 0 1-1.2.6 5.5 5.5 0 0 1-.7 0h-1.3v-.4a2 2 0 0 0-.3-.7l-.1-.3a6.6 6.6 0 0 1-1.5 1.5Zm2.1-2.3h.4l1.4.1a5 5 0 0 0 .3-1.5l.2-4.4H57a17 17 0 0 1-.8 4.2 8.2 8.2 0 0 1-.7 1.6Zm-1.1-2.3a.5.5 0 0 1 0 .1 8.8 8.8 0 0 0 .3-1 18.3 18.3 0 0 0 .4-2.6h-.6v2.2a8.7 8.7 0 0 0 0 .9.6.6 0 0 1-.1.4Zm43.4 4.6-.3-.4a1.8 1.8 0 0 0-.5-.6l-.4-.2-4 .5h-.5l-.3-1.8h.5l2.3-.3v-.1h-2.1l-.1-.1c-.2-.2-.2-.4-.2-.8l.1-.8a.6.6 0 0 1-.1-.4 4.4 4.4 0 0 0 0-.7V9.3a18 18 0 0 0 0-1.8.6.6 0 0 1 0-.3L92 7a1.2 1.2 0 0 1-.2-.8 1.2 1.2 0 0 1 .2-.7l.1-.2h.1a1.9 1.9 0 0 0-.2-.6l-.3-.7h.8a34.7 34.7 0 0 0 5.4-.7h.3l1 1.6-.6.1-2.1.3H99l.2.2a1 1 0 0 1 .1.6h.4V3.3h2v.5l-.1 2.3h2.7v1.1l-.3 5.7a4.4 4.4 0 0 1-.5 2.3 1.6 1.6 0 0 1-1.2.6 5.5 5.5 0 0 1-.7 0h-1.4v-.4a2 2 0 0 0-.2-.7l-.2-.3a6.6 6.6 0 0 1-1.4 1.5Zm2.2-2.3h.4l1.3.1a5 5 0 0 0 .3-1.5l.2-4.4h-.8a17 17 0 0 1-.7 4.2 8.2 8.2 0 0 1-.7 1.6Zm-1.2-2.3a.5.5 0 0 1 .1.1 8.8 8.8 0 0 0 .3-1 18.2 18.2 0 0 0 .3-2.6H99v2.2a8.6 8.6 0 0 0 0 .9.6.6 0 0 1 0 .4Zm38.8 4.6-.4-.4a2.4 2.4 0 0 0-.7-.4l-.6-.2.3-.5a8.6 8.6 0 0 0 1.1-3.3 23.8 23.8 0 0 0 .2-3.4v-2a17.1 17.1 0 0 0 0-1.8.6.6 0 0 1 .5-.6h.1a21.7 21.7 0 0 0 2.3 0h4.8a21.7 21.7 0 0 0 2.3 0 .6.6 0 0 1 .6.6 5.7 5.7 0 0 0 0 .8v2.3a.5.5 0 0 1-.6.6 8.7 8.7 0 0 0-1 0h-.4 1.9l.1.1c.2.2.2.4.2.8s0 .7-.2.8l-.1.2h-1.9v.2h2.4l.2.2.1.8a1.4 1.4 0 0 1 0 .7l-.2.3h-.7a.7.7 0 0 1 0 .3.6.6 0 0 1-.2.4.7.7 0 0 1-.5.1l-.8.5a7 7 0 0 0 2 .7l1 .2-.7.6a2 2 0 0 0-.5.7l-.1.3h-.5a8 8 0 0 1-3-1.5v.3l-.4.1-1.6.3-3.3.6h-.5l-.3-1.6a7.8 7.8 0 0 1-.7 1.5Zm1.6-4.1a13.2 13.2 0 0 1-.5 1.8h.4l1-.2v-1.6h-.9Zm2.8 0v1.3h.6l.9-.2a7.3 7.3 0 0 1-.7-1.1Zm.7-1.9h1.6V10h-1.6Zm-3.3 0h1.4V10h-1.4v.3Zm3.3-2.1h1.6V8h-1.6Zm-3.2 0h1.3V8h-1.3Zm0-2h6.6v-.5h-6.6ZM108 16l-.3-.3a2.2 2.2 0 0 0-.6-.6l-.6-.5.7-.4a8.6 8.6 0 0 0 3.2-3.3 9 9 0 0 0 1-3h-3.9l-.1-.2-.1-.9V6l.2-.3h.3l2 .2h1.6V3.2h.4a5.3 5.3 0 0 1 .9 0c.3 0 1 0 1 .6V4h-.1a1 1 0 0 0-.2.6V6h5.3v1a78 78 0 0 1-.5 5.7 5 5 0 0 1-.7 2.4 1.8 1.8 0 0 1-.7.6 2.6 2.6 0 0 1-.8.1h-2.5v-.5a1.4 1.4 0 0 0-.3-.7l-.6-.9 1 .1 2 .1a.4.4 0 0 0 .3 0s.2-.3.4-1.6l.4-4.4h-3.4a11.2 11.2 0 0 1-1 4 10.1 10.1 0 0 1-3.9 4Zm.2-1.3a9 9 0 0 0 3.2-3.4 9.2 9.2 0 0 0 .7-2.2 9.4 9.4 0 0 1-.8 2.2 9.3 9.3 0 0 1-3 3.4Zm8.4-.2a1 1 0 0 1-.3.2 1 1 0 0 0 .1 0 .8.8 0 0 0 .3-.3 1.9 1.9 0 0 0 .3-.7 1.8 1.8 0 0 1-.4.8Zm-8.3-7.7h.5-.5Zm18.6 9.1-.1-.4a1.8 1.8 0 0 0-.2-.3 1.2 1.2 0 0 1-.1.1 1.8 1.8 0 0 1-1.2.5 15 15 0 0 1-1.7 0h-.5v-.5a1 1 0 0 0-.2-.6l-.6-.8h1l1.7.1a1.8 1.8 0 0 0 .2-.3l.1-1H124v.5l-2-.2.2-.6a28.2 28.2 0 0 0 .6-2.8v-.4h2.5v-.4h-1.8l-1 .4-.4.2-.2-.4a2.5 2.5 0 0 0-.4-.6l-.6-.6.8-.2a8.4 8.4 0 0 0 1.8-.8 8 8 0 0 0-.9-.6l-.5-.4.6-.6a2 2 0 0 1 0-.6c0-.4 0-.7.2-.9h.4a6.9 6.9 0 0 0 .8 0h3v-.1l1.6-.6.2.4a6.3 6.3 0 0 0 .6 1.1 14.3 14.3 0 0 0 1.2-1.1l.3-.3.4.2a3.1 3.1 0 0 1 .5.6.9.9 0 0 1 .3.8l.3-.3.3.2a3 3 0 0 1 .6.6c.5.5.3.9.1 1a.7.7 0 0 1-.5.2l-.5.5a7.8 7.8 0 0 0 1.3.4l.9.3-.7.6a2.4 2.4 0 0 0-.5.6V9h.1v.4a2.5 2.5 0 0 1-.2 1 1.2 1.2 0 0 1-.6.6l.2.1-.2.5a6.2 6.2 0 0 1-1.3 2 8.1 8.1 0 0 0 1.9.5l1 .2-.8.7a3 3 0 0 0-.4.7l-.2.3h-.4a8.5 8.5 0 0 1-2.7-1 10.1 10.1 0 0 1-2.7 1Zm.4-3.7-.3 1.9a9.1 9.1 0 0 0 1.5-.5 5.5 5.5 0 0 1-.9-1.3h-.3Zm2.4.1a3.6 3.6 0 0 0 .4.4 4 4 0 0 0 .3-.4Zm-5.3-1.3h1.3a.5.5 0 0 1-.2-.2h-1Zm4.1-.4h1.9a2 2 0 0 1-.3-1.3v-.6h-.8a3.1 3.1 0 0 1-.8 2ZM126.8 7a.5.5 0 0 1 .5.6 5.5 5.5 0 0 0 0 .7v1a1.5 1.5 0 0 0 .2-.8V7h2a8.7 8.7 0 0 1-1.7-2 7.5 7.5 0 0 1-1.5 2h.4Zm4-1.2h.2a10.8 10.8 0 0 0 .9-.7.8.8 0 0 1-.3 0l-.8.7ZM64.1 16a1.3 1.3 0 0 1-.9-.2l-.2-.1v-.3a22.4 22.4 0 0 0 .2-2.4v-2.3a.5.5 0 0 1 .5-.6h4.9a.5.5 0 0 1 .6.5V13a22.4 22.4 0 0 0 0 2.3v.1l.2-2.7V10h-.1a13 13 0 0 0-1.6-.1h-4.9l-.3.1-.1-.3a1.5 1.5 0 0 1-.1-.7 1.7 1.7 0 0 1 0-.8l.2-.3h1.4a5.2 5.2 0 0 0-.1-.4 7.4 7.4 0 0 0-.3-1l-.1-.1h-.5l-.2-.2-.1-.8c0-.4 0-.6.2-.8l.1-.2h2.3v-.1a5.8 5.8 0 0 0 0-.7l-.1-.5h.5a4.4 4.4 0 0 1 .8 0c.2 0 .9 0 .9.6v.4a.6.6 0 0 0-.2.4h2.2a.6.6 0 0 1 .6-.7 17.5 17.5 0 0 0 1.8.1h2.1l1.3.7-.2.4c-.6 1.6-1.2 2.7-1.6 3.6a4.7 4.7 0 0 1 1.5 3.2 2.3 2.3 0 0 1-.9 2.1 2.3 2.3 0 0 1-1 .4 7.6 7.6 0 0 1-1.2 0h-.4v1.1l.1.3-.2.1c-.2.2-.4.2-.9.2s-.7 0-.9-.2l-.2-.2-.1.2-1 .1c-.3 0-.7 0-.9-.3v-.4H65v.3c0 .5-.6.5-1 .5Zm6.2-1v-.7.7ZM65 13.3h2.2V12H65Zm6.3-1h.2a5.9 5.9 0 0 0 1 0 1 1 0 0 0 .2 0l.1-.6a3.5 3.5 0 0 0-1.4-2.5h-.1v3Zm0-6.5v2.8l1.2-2.8Zm-5.5 2.3h.6a17.4 17.4 0 0 0 .6-1.7h-1.7a7.2 7.2 0 0 1 .5 1.7Zm3-1-.2.3v.1l-.1.2-.2.4h1V6.4h-.2a.5.5 0 0 1-.1.2.7.7 0 0 1-.3.4ZM78 16l-.2-.4a1.6 1.6 0 0 0-.3-.7l-.7-.6 1-.2a7.5 7.5 0 0 0 2.9-1 2.7 2.7 0 0 0 .8-1h-2.9l-.1-.2a1.5 1.5 0 0 1-.2-.8.7.7 0 0 1-.6-.2l-.1-.2V8.3a1.2 1.2 0 0 0-.2-.4l-.7-.6.9-.2a5.7 5.7 0 0 0 .7-.3L77 6l.6-.5a2.6 2.6 0 0 0 1-1.3v-.5l.6.2a4 4 0 0 1 .5.2 1.5 1.5 0 0 1 .2.2V3.2h1.9v.5l-.1 1a5.9 5.9 0 0 0 .3-.6l.2-.4.5.2a3.6 3.6 0 0 1 .6.3 1.5 1.5 0 0 1 .4.2v-.2l.2-.5.5.2a6 6 0 0 1 .6.2 1.6 1.6 0 0 1 .2.1v-1h1.9v.5a13.3 13.3 0 0 1-.2 1.4 8.8 8.8 0 0 0 .7-1l.2-.4.4.2a3.5 3.5 0 0 1 .7.3.8.8 0 0 1 .5.6.5.5 0 0 1-.1.4.6.6 0 0 1-.4.2 2.4 2.4 0 0 0-.2.2l-.1.2-.6.6 1.2.9.4.3-.4.5v.4l.4.3h-.4v2.1c-.2.2-.5.2-1 .2v.1A27.7 27.7 0 0 1 88 14a2.7 2.7 0 0 1-.5 1.4 1.8 1.8 0 0 1-1.3.5h-2.4v-.5a1.2 1.2 0 0 0-.3-.6l-.7-.9a4.2 4.2 0 0 1-.5.5 8.5 8.5 0 0 1-3.8 1.5Zm4.7-2.1h1.1l1.9.2a1 1 0 0 0 .2 0 7 7 0 0 0 .3-2h-2.5a5 5 0 0 1-1 1.8Zm1.3-3.7h3.3v-.6H84v.6Zm-4.4 0H82v-.6h-2.4v.6Zm6-2.4h1.1l-.7-.5a3.6 3.6 0 0 1-.5.5Zm-5.3 0h1l-.6-.4a3.4 3.4 0 0 1-.4.4Zm2.2-1.4.7.5.3-.1-.8-.6-.2.2Zm-49 9.6-.1-.4a1.6 1.6 0 0 0-.4-.7l-.7-.7 1-.1a7.5 7.5 0 0 0 3-1 2.7 2.7 0 0 0 .8-1h-2.9L34 12a1.5 1.5 0 0 1-.1-.8.7.7 0 0 1-.6-.2l-.2-.2v-.2l.1-1V8.2A1.2 1.2 0 0 0 33 8l-.7-.6 1-.2a5.7 5.7 0 0 0 .7-.3L32.6 6l.6-.5a2.6 2.6 0 0 0 .9-1.3l.1-.5.5.2a4 4 0 0 1 .6.2 1.5 1.5 0 0 1 .1.2v-.7l.1-.4h1.8v1.5a5.8 5.8 0 0 0 .3-.6l.2-.4.4.2a3.6 3.6 0 0 1 .7.3 1.5 1.5 0 0 1 .3.3l.1-.3.2-.5.5.2a5.8 5.8 0 0 1 .5.2 1.5 1.5 0 0 1 .2.1v-1h2v.5a13.3 13.3 0 0 1-.2 1.4 8.9 8.9 0 0 0 .6-1l.2-.4.4.2a3.5 3.5 0 0 1 .7.3.8.8 0 0 1 .5.6.5.5 0 0 1-.1.4.6.6 0 0 1-.4.2l-.2.2v.2H44l-.6.6 1.2.9.5.3-.4.5v.4l.3.3h-.3v2.1c-.3.2-.5.2-1 .2a27.4 27.4 0 0 1-.3 2.9 2.7 2.7 0 0 1-.6 1.4 1.8 1.8 0 0 1-1.3.5h-2.4v-.5a1.2 1.2 0 0 0-.3-.6l-.7-.9a4.2 4.2 0 0 1-.5.5 8.5 8.5 0 0 1-3.8 1.5Zm4.8-2.1h1l2 .2a1 1 0 0 0 .1 0 7 7 0 0 0 .4-2h-2.6a5 5 0 0 1-1 1.8Zm1.2-3.7h3.3v-.6h-3.2v.6Zm-4.4 0h2.4v-.6h-2.4v.6Zm6-2.4h1.2l-.7-.5a3.6 3.6 0 0 1-.5.5Zm-5.3 0h1l-.5-.4a3.4 3.4 0 0 1-.5.4ZM38 6.4l.7.5.4-.1-.9-.6-.2.2ZM155 16c-.5 0-.7 0-1-.2v-.4a13.5 13.5 0 0 0 0-1.6v-1l-1.7.5-.4.2-.2-.4a7 7 0 0 0-.4-.7l-.5-.6.7-.2a28 28 0 0 0 3.2-1H152l-.3.1-.1-.3a1.5 1.5 0 0 1-.1-.7 1.3 1.3 0 0 1 0-.7l.2-.3h.4l.8.1a1.1 1.1 0 0 1-.2-.8 1.6 1.6 0 0 1 0-.6h-.4V5.5a11.8 11.8 0 0 0 0-1.3.6.6 0 0 1 .5-.7 22.8 22.8 0 0 0 2.4.1h7.7v2a11.7 11.7 0 0 0 0 1.3.6.6 0 0 1-.2.6.7.7 0 0 1 0 .3.6.6 0 0 1-.1.4.7.7 0 0 1-.5.2l-.6.5h.1l1.6-.1h.2l.2.2a1.1 1.1 0 0 1 .1.7 1.3 1.3 0 0 1 0 .7l-.2.3h-.4l-1.7-.1.2.1h.2a.5.5 0 0 1 .6.6v4l.1.3-.2.2c-.2.1-.4.2-.9.2-.4 0-.8 0-1-.4h-4.5c0 .4-.6.4-1 .4Zm2.9-7.1h.5-.5Zm-3.5 0h1.6-1.6Zm5.5-3.2h1.1v-.3h-1Zm-2.9 0h1v-.3h-1Zm-2.8 0h1v-.3h-1Z"/>
    <path fill="#fff" d="M25.5 13A12.5 12.5 0 1 1 13 .5 12.5 12.5 0 0 1 25.5 13"/>
    <path fill="#d1d1d0" d="M13 26a13 13 0 1 1 13-13 13 13 0 0 1-13 13M13 .8a12 12 0 1 0 12 12A12 12 0 0 0 13 1"/>
    <path fill="#474746" d="M4.4 6.5h-.1a.4.4 0 0 0 0-.2h.1a.3.3 0 0 1 0 .2m1.5.2a.3.3 0 0 0-.2-.1l.2-.2-.2-.3-.2.3a.5.5 0 0 1 0 .4 1.4 1.4 0 0 1-.2.5.6.6 0 0 0-.2 0 1.4 1.4 0 0 0 .2-.4.4.4 0 0 0 0-.3l-.3.3-.3-.2a.4.4 0 0 0-.2 0 .7.7 0 0 0 .1-.3.3.3 0 0 0 0-.2 1 1 0 0 0-.2-.1l.1-.2a1 1 0 0 1 .2.3L5 6v.1a2.3 2.3 0 0 0-.2.1.5.5 0 0 1 0 .3l.2-.3V6a.6.6 0 0 0 0-.2.3.3 0 0 0 0-.2 1 1 0 0 0-.2-.1l.2-.2a1 1 0 0 1 .2.2h.4l.3.2-.1.1a3 3 0 0 1 .2.3.3.3 0 0 1 .1.2.3.3 0 0 1 0 .1l-.2.3M4.8 6l-.1.1a1.2 1.2 0 0 0-.1-.2 1.4 1.4 0 0 1 .1 0s0-.1 0 0V6M5 6h-.2a.3.3 0 0 0 0-.2s.1 0 .1 0A.3.3 0 0 1 5 6m0 .8.3-.3H5l-.2.2Zm.4-1.3-.1.1a.9.9 0 0 0 0-.2 1 1 0 0 1 0-.1h.1v.2m-.1.6.1-.2.2-.2-.3.1a.6.6 0 0 1 0 .3m.1.3.2-.2.2-.2-.1-.1-.4.4h.1m2-.8a.6.6 0 0 0-.2 0l-.5.4h-.1c0-.2.2-.3.2-.3v-.1h-.1l-.2.2a.2.2 0 0 1 0-.1v-.1l.2-.1-.3.1-.1-.2L6 5l.3-.2H6l-.2.2a.3.3 0 0 1 0-.1v-.2H6v-.1l-.3.2a.5.5 0 0 0 0-.1 6.1 6.1 0 0 0 .5-.6l.2.1-.3.2v.1l.4-.2h.2L6.6 4l.1-.1.2.2.4-.2.4.7a.6.6 0 0 1 .1.2.2.2 0 0 1 0 .1 1.5 1.5 0 0 1-.2.2.4.4 0 0 0-.2 0l.2-.2a.5.5 0 0 0 0-.2l-.4-.5H7a2 2 0 0 1 .2.6.9.9 0 0 1 0 .5m-1-.3v-.1Zm0 .2h.2V5h-.1Zm.6.1.3-.2a.8.8 0 0 0-.1-.3 2 2 0 0 0-.2-.4l-.1.1h-.1l-.3.1.3-.1.1.2.2.2-.3.2H7l.1-.2V5a.2.2 0 0 1 .1 0l-.1.2H7Zm-.4-.5h.2v-.1h-.2Zm.2.2v-.2.1Zm1-1.4a.3.3 0 0 1 0-.1.3.3 0 0 1 0-.1h.1l.2-.1v-.1A1.3 1.3 0 0 1 8 3h.5l-.1.2h-.2l-.2.2h-.2m.1.5a.3.3 0 0 1 0-.2H8a.9.9 0 0 0-.1-.2l.1-.1a.7.7 0 0 1 .2.1l-.2.2.5-.3h-.2a1.2 1.2 0 0 0 0-.2.9.9 0 0 1 .2 0 .1.1 0 0 0 0 .1v.1h.2a.4.4 0 0 1 0 .1 2.1 2.1 0 0 0-.1.1l-.2.1L8 4m.5.6a3 3 0 0 0-.2-.2v-.2a1.3 1.3 0 0 0-.2-.1 1.8 1.8 0 0 0 .2-.1l.2-.1h.2l.2-.2V4a2.6 2.6 0 0 0 .2.3l-.2.1h-.3v.2m-.1-.3h.2l.1-.1V4l-.4.1Zm.9 0a.5.5 0 0 1-.2 0 3 3 0 0 0-.1-.4l-.2-.3-.1-.3a3 3 0 0 0-.2-.4h.3l.2-.2h.2v.5a.5.5 0 0 1 .4.3.3.3 0 0 1 0 .3.3.3 0 0 1-.1 0 1 1 0 0 1-.2.1.4.4 0 0 0 0-.1q.1-.1 0-.2a.5.5 0 0 0-.2-.2V3h-.3l.3.7a4.3 4.3 0 0 0 .3.5.5.5 0 0 1-.1 0m.6-1.5h-.1a.4.4 0 0 0 0-.3.8.8 0 0 1 .2 0v.1a.3.3 0 0 1 0 .2m1 1a.3.3 0 0 0-.1-.2h.2a.6.6 0 0 0 .1-.4l-.4.1a.5.5 0 0 1-.1.4 1.4 1.4 0 0 1-.5.3.4.4 0 0 0 0-.1.6.6 0 0 0-.2 0 1.4 1.4 0 0 0 .4-.3.4.4 0 0 0 .2-.2H10l-.1-.4a.6.6 0 0 0 .1-.2.3.3 0 0 0 0-.2 1 1 0 0 0 0-.2h.3a1 1 0 0 1 0 .2l.3.1-.1.2a2.2 2.2 0 0 0-.3-.1.5.5 0 0 1-.2.2h.4l.3-.2a.4.4 0 0 0-.1 0 .6.6 0 0 0 .2-.2.3.3 0 0 0 0-.2 1 1 0 0 0 0-.2h.3a1 1 0 0 1 0 .3h.4l-.1.2.1.3h-.1a3.1 3.1 0 0 1 0 .4.3.3 0 0 1 0 .2.3.3 0 0 1-.1.1H11m-.8-.4.4-.1V3H10Zm.3-.7h-.2a1.1 1.1 0 0 0 .1-.2 1.3 1.3 0 0 1 .1 0h.1v.1l-.1.1m.2 0h-.1a.3.3 0 0 0 0-.3h.2v.1a.3.3 0 0 1 0 .2m0 .5h.5v-.2l-.5.1V3m0-.3h.5l-.3-.2a.6.6 0 0 1-.2.2m.5-.3H11a1 1 0 0 0 .1-.3 1.3 1.3 0 0 1 .2 0v.1l-.1.1m1.6 1.2a.6.6 0 0 0 0-.2l-.8.1v-.2h.3-.2a.2.2 0 0 1 0-.1.2.2 0 0 1 0-.1h.3-.3v-.6h.3-.3a.2.2 0 0 1 0-.1.2.2 0 0 1 0-.1h.3a6 6 0 0 1-.3 0 .5.5 0 0 0 0-.2 6.2 6.2 0 0 0 .8 0l-.3.1h.4v.2h.2v-.4h.2v.4h.4v.8a.6.6 0 0 1-.1.3.3.3 0 0 1-.2 0 1.5 1.5 0 0 1-.2 0 .4.4 0 0 0 0-.1h.1a.5.5 0 0 0 .1-.2v-.6h-.1a2 2 0 0 1-.1.6.9.9 0 0 1-.3.4m-.7-.9h.1-.1Zm0 .2h.1-.1Zm.3.4h.4a.8.8 0 0 0 .1-.3 2 2 0 0 0 0-.4H13v-.2h-.4v.1h.4v.5h-.4.4a.2.2 0 0 1 0 .2h-.4Zm0-.6h.2-.2Zm0 .2h.2-.2Zm1.6.7a.7.7 0 0 0-.1-.2 1.1 1.1 0 0 0 .5-.3 1 1 0 0 0 .3-.4h-.3a4 4 0 0 0-.3 0 .5.5 0 0 1 0-.2.5.5 0 0 1 0-.1h.3l.3.1v-.1a1.5 1.5 0 0 0 0-.2h.3a.3.3 0 0 0 0 .2v.2h.3l.4.1v.1l-.2.7a.6.6 0 0 1-.2.3.4.4 0 0 1-.2 0 2 2 0 0 1-.3 0 .4.4 0 0 0 0-.1.4.4 0 0 0 0-.1h.3a1.9 1.9 0 0 0 .3-.7l-.5-.1a1.3 1.3 0 0 1-.2.5 1.2 1.2 0 0 1-.7.3m2 .5a.3.3 0 0 0 0-.2l.3.1.2-.1-.3-.1h-.1a3.1 3.1 0 0 0 .2-.4l.3.1-.2-.2h-.1a.8.8 0 0 0-.1-.2 1.3 1.3 0 0 0 .3 0v-.2a1.4 1.4 0 0 1 .2.2.8.8 0 0 0 .2 0l-.2-.2a5 5 0 0 0-.2 0 .3.3 0 0 1 0-.1 1 1 0 0 0 .2 0h.1l.2.1.2.1a1 1 0 0 1-.5.3h.2l-.1.4a.3.3 0 0 0 .1 0 .3.3 0 0 0 .1-.2v-.1l.4.2a1.2 1.2 0 0 1-.2-.6h.2a.8.8 0 0 0 0 .2 1.4 1.4 0 0 0 .2 0 .6.6 0 0 1 .1 0v.1h-.2v.2a1.5 1.5 0 0 0 .3-.1.6.6 0 0 1 0 .1l-.2.1a1.3 1.3 0 0 0 .3.2.8.8 0 0 0-.2 0 1.7 1.7 0 0 1-.2 0 .1.1 0 0 0 0 .1.5.5 0 0 0 .2 0V4a.1.1 0 0 1-.2 0h-.2a.1.1 0 0 1 0-.1.4.4 0 0 1 0-.1v-.1h-.1a.4.4 0 0 1-.4.1.6.6 0 0 0 0-.1.3.3 0 0 1-.2 0l-.2-.1.3.2a2.3 2.3 0 0 1-.2.3.2.2 0 0 1 0 .1.2.2 0 0 1-.2 0h-.3m.6.1a.5.5 0 0 0 0-.1 1.4 1.4 0 0 0 .3 0A.8.8 0 0 1 17 4h.1-.2a.2.2 0 0 1 0-.1h.4l.3.2a.7.7 0 0 1-.2.3 1.4 1.4 0 0 0 .2.2.6.6 0 0 0-.1 0 1.3 1.3 0 0 1-.3-.2 1.5 1.5 0 0 1-.4 0m.4-.2a.5.5 0 0 0 .2 0l-.1-.1h-.1a.6.6 0 0 0 0 .1m.8.8a.7.7 0 0 0 0-.1.7.7 0 0 0-.1-.1 1 1 0 0 0 .4-.3 2.7 2.7 0 0 0 .3-.3l.1-.2a2 2 0 0 0 .2-.3l.3.3.3.2.2.2a3.6 3.6 0 0 0 .3.2 1.6 1.6 0 0 0 0 .2l-.2.2-.2-.2-.1.1h.1l.1.2a.3.3 0 0 1 0 .1 1.8 1.8 0 0 0-.2 0V5l-.2.1.2.1.1.1a.3.3 0 0 1 0 .1.6.6 0 0 0-.2 0v.1a2.2 2.2 0 0 1-.2 0 1.2 1.2 0 0 0 .2.3.6.6 0 0 0-.2 0 1 1 0 0 1-.3-.5v.1l-.5-.2-.2-.1v-.2l.3.1.1-.2-.2-.1.2-.1.2.1v-.1a1.1 1.1 0 0 0-.2 0 .3.3 0 0 1 0-.2h.2l.1.1h.1l-.2-.2a1.7 1.7 0 0 1-.8.7m.6.1h.1v.1h.2a1 1 0 0 1 0-.2h-.1Zm.3-1 .8.6-.3-.4L19 4Zm0 .8.3.1v-.2H19Zm.2.4a2 2 0 0 0 .2 0h-.1l-.1-.1a.7.7 0 0 0 0 .1m0-.7.2.2.1-.1h-.1l-.1-.2Zm.7 1.9a.4.4 0 0 1 0-.1 1.8 1.8 0 0 0 0-.2L20 6a4.1 4.1 0 0 1-.2-.2.7.7 0 0 0 0-.2 4.3 4.3 0 0 0 .7.5l-.2-.3-.3-.3a.6.6 0 0 1 .1 0s.2 0 .2.2l.2.2v-.2l-.2-.2a.3.3 0 0 1 .1 0h.1l.2.3-.3-.5h.1a1.6 1.6 0 0 0 .2-.2l.2.2.3.3.5.6h-.2a1.6 1.6 0 0 0-.1.2 3.8 3.8 0 0 0-.3-.3L21 6l.2.3a1.5 1.5 0 0 0 .2.1.7.7 0 0 1 0 .2.1.1 0 0 0-.1 0H21h.1l.1.2a2.5 2.5 0 0 0-.2 0l-.2-.3a1 1 0 0 1 .1.3l-.2.2a2.5 2.5 0 0 0-.2.2l-.1-.2-.5-.5m.1 0 .5.4-.2-.3-.2-.2Zm.2-.2.2.3.2.2-.4-.5Zm.3 0 .1.2.1.1a1.7 1.7 0 0 0 0-.1 3 3 0 0 1-.2-.2m.2-.8v.1h.2l-.2-.2Zm0 .7.1.1a1.5 1.5 0 0 0 .2 0h-.2V6Zm.2-.4.2.2v-.2H21Zm.3.3.1.2.1-.1V6h-.1ZM4 8.7l-.9-.6.1-.3 1.3.4v.2l-1-.3.8.6-.1.2-1-.3.8.6v.2l-1.2-.8.1-.2ZM3.9 10c-.1.2-.4.4-.8.2s-.6-.4-.5-.6.3-.4.8-.3.6.5.5.7m-1.1-.4c0 .2 0 .3.4.4s.5 0 .5 0 0-.3-.4-.4-.5-.1-.5 0m.9 1-.1.3a.3.3 0 0 1-.4.3.3.3 0 0 1-.3-.3l-.1.1h-.6v-.2h.5a.2.2 0 0 0 .2-.1l-.6-.2.1-.2Zm-.6.2a.2.2 0 0 0 .1.2c.2 0 .2 0 .2-.2l-.3-.1Zm.4.7v.2h-.6l.5.4v.2l-.6-.5-.7.4v-.3l.7-.3H2v-.2Zm-.1 1v.5h-.2v-.3h-.4v.3h-.2v-.4h-.5v-.2Zm0 1.1c0 .3-.2.5-.7.5s-.6-.2-.7-.4.2-.5.7-.5.7.2.7.4m-1.2 0c0 .2.2.3.5.3s.5-.1.5-.3-.1-.2-.5-.2-.5.2-.5.3m1.2.5v.4a.3.3 0 0 1-.2.4.3.3 0 0 1-.3-.2l-.2.2-.5.2V15l.4-.2a.2.2 0 0 0 .1-.2h-.5v-.1Zm-.5.4a.2.2 0 0 0 .2.2c.2 0 .2-.1.2-.2v-.1h-.4Zm-.4 1.6a.6.6 0 0 1 0-.2c-.2-.4 0-.6.4-.7s.7 0 .8.3a.7.7 0 0 1 0 .3h-.2a.4.4 0 0 0 0-.2c0-.2-.2-.3-.5-.2s-.4.3-.4.4a.3.3 0 0 0 .1.2Zm1.3-.1.2.5-.1.1-.2-.4-.3.2.1.3h-.1l-.2-.3-.3.2.1.3-.2.1-.2-.6Zm.5 1.1.1.3c.2.3.1.6-.3.8s-.7.1-.8-.2l-.2-.2Zm-.9.8c.2.2.4.2.6.1s.4-.3.3-.5Zm1.4.1.3.5-.1.2-.2-.4-.3.2.2.3-.2.1-.2-.3-.3.2.2.4-.1.1-.4-.5Zm.4.7.2.1-.7.9 1-.5.1.2-1.2.5-.2-.2Zm.7.8.4.4-.1.1-.3-.3-.3.3.3.3h-.1l-.3-.2-.3.3.3.3-.1.1-.5-.4Zm.5.5.2.2-.7.8.3.3-.2.1-.4-.4Zm1 .8c.2.1.2.4 0 .8s-.6.4-.8.3-.3-.5 0-.9.6-.4.8-.2m-.7.9c.1 0 .3 0 .5-.2s.2-.5 0-.6-.2 0-.4.3-.2.4-.1.5m1.2-.6.3.2a.4.4 0 0 1-.4.7h-.1l-.3.4-.2-.1Zm0 .7H8c.1 0 0-.3 0-.4l-.2.4Zm1.5.3-.7 1-.2-.2.2-1-.4 1-.2-.1.5-1.2H9l-.2 1 .7-.7.2.1-.5 1.2H9Zm.5 0 .6.1-.1.2H10v.2l.3.2v.1h-.4l-.2.3.4.1v.2l-.6-.2Zm.8.2h.2l.2 1.1.2-1h.2l-.3 1.4H11l-.2-1.2-.2 1h-.2Zm1.1.4h-.2v-.2h.7v.3h-.2l-.2 1h-.2Zm1.7.9H13l-.1.3h-.2l.3-1.3h.3l.4 1.3h-.3Zm0-.2-.3-.6-.1.6Zm.9-.3h.3l.1.6a.6.6 0 0 1-.3.1c-.3 0-.6-.2-.6-.6s0-.7.5-.7a.7.7 0 0 1 .2 0v.2a.5.5 0 0 0-.2 0c-.2 0-.3.2-.3.5s.2.4.4.4a.3.3 0 0 0 .1 0v-.4h-.2Zm.5-.7.6-.1v.1l-.4.1.1.4.4-.1v.2h-.4l.1.4h.4v.1l-.5.2Zm.8-.2h.2l.7.8-.3-1h.2l.4 1.2h-.3l-.6-.8.3 1H16Zm2.2.5a.6.6 0 0 1-.2.2c-.3.1-.6 0-.8-.4s-.1-.7.2-.9a.7.7 0 0 1 .3 0v.2a.4.4 0 0 0-.2 0c-.1 0-.2.3 0 .6s.3.3.4.3a.3.3 0 0 0 .2-.2Zm.2-.7-.7-.5.2-.1.5.3-.1-.5.2-.1v.8l.4.5h-.2Zm.8-.1.1.5-.2-.4Zm.8-1.7.5 1-.2.1-.9-.6.7.8-.1.1-.9-1 .3-.2.8.6-.5-.9.3-.2.8 1-.1.1Zm.1-.5.2-.1 1 .9-.2.2Zm.3-.3.2-.2 1 .4-.8-.7.2-.1 1 .8-.2.2-1-.4.8.7-.1.1Zm.7-.8.1-.2 1.1.8-.1.1zm1.2.1a.4.4 0 0 0 .2-.1.2.2 0 0 0-.1-.3h-.2l-.2.1a.4.4 0 0 1-.4 0 .3.3 0 0 1 0-.5.7.7 0 0 1 0-.2l.3.1a.5.5 0 0 0-.2.2.1.1 0 0 0 0 .2.2.2 0 0 0 .3 0h.1a.4.4 0 0 1 .4 0 .4.4 0 0 1 .1.5.5.5 0 0 1-.1.2Zm-.3-1.3v.2h-.2l.3-.7h.2l-.2.3 1 .5v.2Zm.1-.6.2-.4a.3.3 0 0 1 .4-.2.3.3 0 0 1 .2.3h.7v.2h-.5a.2.2 0 0 0-.2 0v.1l.5.2v.2Zm.7-.1a.2.2 0 0 0-.1-.3c-.2 0-.2 0-.3.2l.3.2Zm.4-.7h-.8V16l.6-.1-.4-.4v-.2l.7.6.5.1v.2Zm-.4-1.8c0-.2.3-.4.7-.3s.7.3.6.5-.2.5-.7.4-.6-.3-.6-.6m1.2.2c0-.1-.1-.3-.5-.3s-.5 0-.5.2 0 .2.4.3.5 0 .6-.2m-1.1-.8V13h.2v.4h.3V13h.2v.4h.6v.2Zm0-1.2v-.2l1-.1v-.4h.3v.6Zm.8-1.5v.4h.4v.2l-1.3-.1V11l1.2-.6v.2Zm-.2 0-.5.3h.6Zm-.9-.2v-.4c-.1-.2 0-.3.2-.4a.3.3 0 0 1 .3.1.3.3 0 0 1 .2-.3.3.3 0 0 1 .5.3l.1.3Zm.5-.4v-.1a.2.2 0 0 0-.3-.1.2.2 0 0 0 0 .2v.1Zm.6-.1V10a.2.2 0 0 0-.3 0 .2.2 0 0 0-.2.2Zm-1.5-.8c0-.2 0-.5.5-.7s.7 0 .8.2 0 .5-.5.7-.7 0-.8-.2m1-.4c0-.2-.1-.2-.5 0s-.4.2-.3.3.2.2.5 0l.4-.3m-1.3-.2-.2-.3a.3.3 0 0 1 .1-.5.3.3 0 0 1 .4 0l.1-.1.4-.4v.2l-.2.3a.2.2 0 0 0-.1.2l.5-.2.1.2Zm.3-.5a.2.2 0 0 0-.2-.1.2.2 0 0 0-.1.3l.4-.1Z"/>
    <g clip-path="url(#c)" style="mix-blend-mode:multiply;isolation:isolate" transform="translate(4.5 4.5)">
      <path fill="#ffb900" d="M17 8.5A8.5 8.5 0 1 1 8.5 0 8.5 8.5 0 0 1 17 8.5"/>
    </g>
    <use xlink:href="#a"/>
    <g clip-path="url(#d)" transform="translate(4.5 4.5)">
      <path fill="#86c9cf" d="M7.6 17a8.6 8.6 0 0 0 .9 0 8.5 8.5 0 0 0 7.5-5L12 .7a8.5 8.5 0 0 0-9.6 2Z"/>
      <path fill="#86c9cf" d="M8.5 17a8.5 8.5 0 0 0 4.8-15.5 13.8 13.8 0 0 1-1.6 4.6c-3 5.6-3.6 9-3.6 10.8h.4"/>
      <path fill="#59b5ad" d="M8.5 17a8.5 8.5 0 0 0 7.5-5l-3-8.7a16 16 0 0 1-1.2 2.8c-3 5.6-3.6 9-3.6 10.8h.4"/>
      <path fill="#dddddc" d="M11 .4a8.5 8.5 0 0 0-5.9 15.9Z"/>
      <path fill="#e85620" d="m.8 6-.3-.5A8.4 8.4 0 0 0 4.4 16c-.2-2-1-5.2-3.6-9.8"/>
    </g>
    <g fill="#fff" clip-path="url(#b)">
      <path d="M6.5 17.4h4s4.8-5.5 6.4-11a28.3 28.3 0 0 1-7.2 5 20.2 20.2 0 0 0 3.2-.1 41 41 0 0 1-6.4 6"/>
      <path d="M7 12.4c.6-.8 2.6-.7 4.5.2h.2l.5-.5c-2.5-1-4.7-.8-5.2.3"/>
      <path d="M16.8 16.5c0-1.6-1.8-2.8-3-3.6-2.3-1.4-6.2-2-6.8-.5 1-1.3 4.8 0 6.3 1.3 2.4 2 .7 4-2 2.9l-.4.3a8.2 8.2 0 0 0 1.8.8 6.3 6.3 0 0 0 1.5.2c1 0 2.5-.2 2.6-1.4"/>
    </g>
  </g>
</svg>