<svg xmlns="http://www.w3.org/2000/svg" width="174.434" height="196.14" viewBox="0 0 174.434 196.14"><g transform="translate(-0.15 -0.15)"><path d="M146.116,113.988a58.951,58.951,0,0,1-18.99,33.852A71.96,71.96,0,0,1,116,155.9c-13.944,8.431-31.225,13.541-49.215,17.732l-3.079.693a30.95,30.95,0,0,1-8.157.742C26.94,173.875,7.45,131.463,1.389,86.826-3.9,47.09,4.952,2.082,44.575.051c14.879-.742,32.24,6.674,48.361,18.6,1.161.854,2.321,1.741,3.466,2.644h0l.709.564C127.207,45.848,151.791,84.746,146.116,113.988Z" transform="translate(27.648 13.559)" fill="#fde6d6"/><path d="M17.579,11.28c2.241,4.53,3.063,10.269-1.435,12.106C11.115,25.45,3.087,22.129.766,14.568-.733,9.732-.218,2.994,3.99.4,7.423-1.826,14.9,5.735,17.579,11.28Z" transform="translate(15.746 153.683)" fill="#f5f9fd"/><path d="M2.638,7.36C.623,5.6-.989,2.992.72,1.235s6.319-1.9,9.027,1.306c1.725,2.047,2.918,5.4,1.612,7.448C10.2,11.729,5.153,9.5,2.638,7.36Z" transform="translate(153.748 56.013)" fill="#ffad69"/><path d="M59.549,159.582a27.238,27.238,0,0,1-3.224-.387.2.2,0,0,1,.065-.4,27.046,27.046,0,0,0,3.224.387.2.2,0,0,1,.143.062.192.192,0,0,1,.05.147.209.209,0,0,1-.258.193Zm3.224,0a.193.193,0,0,1-.194-.193.177.177,0,0,1,.177-.21,26.31,26.31,0,0,0,3.224-.419.21.21,0,0,1,.242.161.193.193,0,0,1-.161.226,27.1,27.1,0,0,1-3.224.435Zm-12.59-2.241a.21.21,0,0,1-.113-.258.226.226,0,0,1,.274-.113,29.352,29.352,0,0,0,3,1.1.21.21,0,0,1,.145.258.226.226,0,0,1-.258.113v.016A30.29,30.29,0,0,1,50.183,157.341Zm18.732.87a.21.21,0,0,1,.129-.258c.467-.145.951-.322,1.435-.5l1.612-.6a.194.194,0,0,1,.258.113.177.177,0,0,1-.113.258l-1.612.613c-.483.177-.983.355-1.467.5l-.048.016H69.1A.194.194,0,0,1,68.914,158.212Zm6.045-2.257a.177.177,0,0,1,.113-.258l3-1.193a.2.2,0,1,1,.145.371l-3,1.193-.081.016A.194.194,0,0,1,74.96,155.955ZM47.3,155.923v.016h-.1c-.935-.5-1.87-1.064-2.789-1.612a.21.21,0,0,1,0-.274.193.193,0,0,1,.274,0,28.515,28.515,0,0,0,2.757,1.612.148.148,0,1,1-.145.258Zm33.675-2.37a.209.209,0,0,1,.1-.274c1-.4,2-.822,2.982-1.257a.225.225,0,0,1,.258.113.193.193,0,0,1-.1.258c-1,.435-1.983.855-2.982,1.258l-.081.016h-.012A.177.177,0,0,1,80.973,153.553ZM41.8,152.441c-.838-.645-1.612-1.322-2.515-2.047a.2.2,0,0,1,.258-.306c.822.709,1.612,1.4,2.5,2.031a.174.174,0,0,1-.161.306l.032.016a.179.179,0,0,1-.113,0Zm45.072-1.451a.194.194,0,0,1,.1-.258c.983-.451,1.966-.886,2.934-1.354a.209.209,0,1,1,.161.371L87.13,151.1l-.081.016A.194.194,0,0,1,86.872,150.99Zm5.852-2.724a.193.193,0,0,1,.1-.274l2.869-1.451a.21.21,0,1,1,.194.355c-.967.5-1.918.983-2.9,1.451l-.081.032h0A.193.193,0,0,1,92.724,148.265Zm-55.856-.048q-1.129-1.112-2.273-2.321a.177.177,0,0,1,0-.274.21.21,0,0,1,.29,0c.758.806,1.515,1.612,2.257,2.305a.177.177,0,0,1,0,.274.162.162,0,0,1-.145,0v.016a.179.179,0,0,1-.129,0Zm61.6-2.918a.209.209,0,0,1,.08-.274c.951-.516,1.9-1.048,2.805-1.612a.21.21,0,0,1,.274,0,.193.193,0,0,1,0,.274L98.8,145.3l-.161.113A.225.225,0,0,1,98.463,145.3ZM32.547,143.51a.224.224,0,0,1-.161,0c-.693-.79-1.37-1.612-2.047-2.5a.2.2,0,1,1,.306-.242c.677.854,1.37,1.612,2.047,2.482a.21.21,0,0,1,0,.29Zm71.461-1.435a.194.194,0,0,1,0-.274c.935-.58,1.854-1.161,2.724-1.741a.194.194,0,1,1,.274.274c-.87.58-1.789,1.161-2.724,1.741l-.113.1h0A.177.177,0,0,1,104.008,142.075Zm5.4-3.466a.193.193,0,0,1,0-.274c.886-.645,1.757-1.274,2.6-1.918a.194.194,0,1,1,.274.274c-.838.645-1.709,1.29-2.611,1.918a.16.16,0,0,1-.048-.016l-.048.016a.193.193,0,0,1-.161,0Zm-81.036-.258c-.629-.838-1.257-1.725-1.87-2.628a.225.225,0,0,1,0-.29.21.21,0,0,1,.29,0c.613.887,1.241,1.773,1.854,2.628a.193.193,0,0,1,0,.274.212.212,0,0,1-.065.1l-.048.016A.194.194,0,0,1,28.372,138.352Zm86.163-3.74a.193.193,0,0,1,0-.274c.822-.693,1.612-1.4,2.434-2.112a.193.193,0,0,1,.274,0,.209.209,0,0,1,0,.29l-2.45,2.112a.206.206,0,0,1-.048.048l-.048.016A.225.225,0,0,1,114.535,134.612Zm-89.822-1.628c-.564-.887-1.144-1.822-1.709-2.741a.21.21,0,0,1,0-.274.194.194,0,0,1,.274,0c.548.919,1.128,1.838,1.693,2.74a.21.21,0,0,1,0,.274l-.081.1A.226.226,0,0,1,24.713,132.984Zm94.771-2.644a.144.144,0,0,1-.129,0,.177.177,0,0,1,0-.274c.758-.774,1.515-1.612,2.224-2.321a.194.194,0,0,1,.274,0,.21.21,0,0,1,0,.29c-.709.774-1.467,1.612-2.241,2.338h-.02A.193.193,0,0,1,119.484,130.34Zm-98.091-2.869c-.516-.919-1.048-1.87-1.612-2.837a.209.209,0,0,1,.355-.194c.516.967,1.048,1.918,1.612,2.821a.21.21,0,0,1,0,.274l-.177.032h0A.209.209,0,0,1,21.392,127.471Zm102.476-1.9h-.161a.21.21,0,0,1,0-.29c.677-.838,1.338-1.612,1.966-2.547a.194.194,0,1,1,.274.274c-.629.854-1.29,1.725-1.983,2.563a.177.177,0,0,1-.1,0Zm-105.539-3.8c-.5-.967-.983-1.95-1.435-2.9a.234.234,0,0,1,.355-.258l1.435,2.9a.209.209,0,0,1-.081.274l-.1.1h0A.193.193,0,0,1,18.329,121.764Zm109.327-1.386-.032-.016h-.1a.194.194,0,0,1,0-.274c.58-.9,1.128-1.822,1.612-2.757a.21.21,0,1,1,.355.194c-.532.935-1.1,1.87-1.612,2.773a.226.226,0,0,1-.226.081ZM15.524,115.944c-.451-.983-.886-1.966-1.322-2.966a.2.2,0,1,1,.371-.145c.419.983.87,1.967,1.306,2.934a.21.21,0,0,1-.1.274l-.081.016h0A.194.194,0,0,1,15.524,115.944Zm115.243-1.209a.21.21,0,0,1-.1-.274c.467-.951.9-1.934,1.322-2.934a.194.194,0,0,1,.258-.1.21.21,0,0,1,.113.258c-.419,1-.854,2-1.322,2.95a.21.21,0,0,1-.274.1ZM12.913,110.012q-.628-1.5-1.209-3a.193.193,0,0,1,.113-.274.209.209,0,0,1,.258.129c.387,1,.79,2,1.209,2.982a.226.226,0,0,1-.113.274h-.093A.178.178,0,0,1,12.913,110.012Zm120.305-1.241a.21.21,0,0,1-.129-.258c.355-1.016.661-2.047.951-3.063a.2.2,0,1,1,.387.1c-.29,1.032-.613,2.08-.951,3.1a.209.209,0,0,1-.193.129ZM10.7,104.112a.21.21,0,0,1-.193-.129c-.371-1-.742-2.015-1.1-3.03a.2.2,0,0,1,.371-.145c.371,1.016.725,2.031,1.112,3.047a.21.21,0,0,1-.129.258ZM134.911,102.5a.209.209,0,0,1-.161-.242c.226-1.064.435-2.128.6-3.224a.209.209,0,0,1,.242-.161.194.194,0,0,1,.161.226c-.161,1.048-.371,2.112-.6,3.224a.226.226,0,0,1-.145.322ZM8.448,97.89c-.338-1.016-.677-2.031-1-3.063a.21.21,0,0,1,.387-.129c.322,1.032.661,2.047,1,3.063a.194.194,0,0,1-.129.258l-.064.016A.226.226,0,0,1,8.448,97.89Zm127.4-1.739a.177.177,0,0,1-.039-.147c.113-1.048.21-2.128.274-3.224a.194.194,0,0,1,.21-.194.225.225,0,0,1,.193.21,29.96,29.96,0,0,1-.274,3.224.21.21,0,0,1-.161.177l-.064.016h0A.178.178,0,0,1,135.852,96.151ZM6.642,91.877a.209.209,0,0,1-.193-.129c-.306-1.032-.613-2.079-.9-3.111a.2.2,0,0,1,.387-.113c.29,1.048.6,2.08.9,3.1a.21.21,0,0,1-.129.258ZM136.2,89.556c0-1.064-.081-2.144-.161-3.224a.193.193,0,0,1,.177-.226.21.21,0,0,1,.226.194c0,1.064.145,2.16.161,3.224a.21.21,0,0,1-.194.21l-.016.016A.194.194,0,0,1,136.2,89.556ZM4.74,85.526v-.161c-.274-1.048-.548-2.1-.806-3.224a.207.207,0,0,1,.4-.1c.258,1.048.516,2.1.79,3.127v.161a.21.21,0,0,1-.145.258l-.048.081H4.927A.193.193,0,0,1,4.74,85.526Zm130.9-2.386c-.161-1.032-.355-2.1-.58-3.224a.2.2,0,1,1,.387-.081c.242,1.064.435,2.128.6,3.224a.194.194,0,0,1-.161.226l-.032.016h-.006A.209.209,0,0,1,135.636,83.14ZM3.225,79.078c-.242-1.064-.467-2.128-.661-3.224a.2.2,0,1,1,.387-.081c.209,1.032.435,2.1.661,3.224a.193.193,0,0,1-.145.242H3.415A.193.193,0,0,1,3.225,79.078Zm131.122-2.192c-.29-1-.613-2.047-.951-3.063a.2.2,0,1,1,.387-.129c.339,1.032.661,2.08.951,3.1a.193.193,0,0,1-.145.242l-.048.016h0A.194.194,0,0,1,134.346,76.885ZM2.1,72.9a.193.193,0,0,1-.194-.161c-.194-1.064-.371-2.144-.532-3.224a.2.2,0,1,1,.4-.064c.161,1.064.339,2.128.516,3.224a.21.21,0,0,1-.161.242Zm130.09-2.112c-.387-.983-.79-1.983-1.225-2.982a.193.193,0,0,1,.1-.258.209.209,0,0,1,.274.1c.435,1,.855,2,1.225,3a.194.194,0,0,1-.113.258l-.064.016A.21.21,0,0,1,132.186,70.792ZM.92,66.343C.791,65.279.662,64.2.549,63.119a.193.193,0,0,1,.177-.226.21.21,0,0,1,.226.177c.113,1.064.242,2.144.371,3.224a.193.193,0,0,1-.177.226H1.127A.21.21,0,0,1,.92,66.343Zm128.72-1.451c-.451-.935-.951-1.9-1.467-2.869a.175.175,0,1,1,.274-.194c.516.967,1.016,1.935,1.483,2.886a.209.209,0,0,1-.1.274V65A.242.242,0,0,1,129.639,64.892ZM.468,60.1l-.016-.016a.193.193,0,0,1-.194-.177c0-1.1-.161-2.192-.209-3.224a.21.21,0,0,1,.194-.209.193.193,0,0,1,.209.194c0,1.048.129,2.128.209,3.224a.193.193,0,0,1-.193.21Zm126.141-.887c-.532-.919-1.1-1.838-1.612-2.757a.225.225,0,0,1,0-.29.21.21,0,0,1,.274,0c.58.935,1.144,1.854,1.612,2.773a.193.193,0,0,1,0,.274l-.113.1h0A.177.177,0,0,1,126.609,59.217Zm-3.434-5.384c-.58-.87-1.193-1.757-1.821-2.66a.193.193,0,0,1,0-.274.21.21,0,0,1,.29,0c.645.886,1.257,1.789,1.838,2.66a.21.21,0,0,1,0,.274.161.161,0,0,1-.129,0,.259.259,0,0,1-.177,0ZM.21,53.64H.194A.193.193,0,0,1,0,53.446v-3.24a.194.194,0,0,1,.194-.194.193.193,0,0,1,.209.194V53.43a.193.193,0,0,1-.192.209ZM119.5,48.578c-.661-.87-1.322-1.725-1.983-2.547a.2.2,0,1,1,.29-.274c.645.822,1.322,1.612,1.983,2.547a.21.21,0,0,1,0,.29l-.129-.016a.193.193,0,0,1-.161,0ZM.194,47.176A.193.193,0,0,1,0,46.966c0-1.08.113-2.16.194-3.224A.193.193,0,0,1,.4,43.549a.226.226,0,0,1,.194.226C.6,44.822.452,45.918.4,47a.209.209,0,0,1-.207.177Zm115.211-3.643-2.112-2.45a.2.2,0,1,1,.29-.274c.693.774,1.4,1.612,2.112,2.434a.21.21,0,0,1,0,.29.177.177,0,0,1-.129,0,.209.209,0,0,1-.161,0ZM.71,40.744a.21.21,0,0,1-.177-.226c.129-1.08.274-2.16.451-3.224a.194.194,0,0,1,.226-.161.178.178,0,0,1,.161.226C1.21,38.39,1.065,39.47.936,40.582a.21.21,0,0,1-.2.162ZM111.278,38.7a.178.178,0,0,1-.145,0c-.725-.79-1.483-1.612-2.224-2.337a.21.21,0,0,1,0-.29.225.225,0,0,1,.29,0c.741.774,1.5,1.612,2.224,2.354a.21.21,0,0,1,0,.29.255.255,0,0,1-.045,0A.261.261,0,0,1,111.278,38.7ZM1.806,34.376a.193.193,0,0,1-.161-.242c.209-1.048.467-2.112.725-3.224a.193.193,0,0,1,.258-.145.21.21,0,0,1,.145.242c-.274,1.032-.516,2.1-.742,3.143a.209.209,0,0,1-.209.226Zm105-.29a.161.161,0,0,1-.087-.016c-.79-.758-1.612-1.516-2.337-2.241a.193.193,0,0,1,0-.274.21.21,0,0,1,.29,0c.774.725,1.612,1.483,2.337,2.241a.21.21,0,0,1,0,.29.193.193,0,0,1-.2,0Zm-4.746-4.439a.209.209,0,0,1-.064-.01c-.79-.725-1.612-1.435-2.434-2.128a.226.226,0,0,1,0-.29.21.21,0,0,1,.29,0l2.434,2.128a.225.225,0,0,1,0,.29.21.21,0,0,1-.226.01ZM3.418,28.122a.226.226,0,0,1-.129-.258c.338-1.048.693-2.08,1.08-3.063a.226.226,0,0,1,.258-.113.194.194,0,0,1,.113.258c-.371.967-.725,2-1.064,3.031a.21.21,0,0,1-.258.145ZM97.012,25.43c-.838-.677-1.612-1.37-2.515-2.015a.21.21,0,0,1,.258-.322c.822.661,1.612,1.338,2.515,2.031a.194.194,0,0,1,0,.274.227.227,0,0,1-.129.032.176.176,0,0,1-.129,0ZM5.691,22.044a.193.193,0,0,1-.1-.274c.451-.983.951-1.95,1.467-2.886a.21.21,0,1,1,.355.194c-.516.919-1,1.886-1.467,2.869a.193.193,0,0,1-.258.1Zm86.388-.6h-.113c-.855-.645-1.741-1.29-2.611-1.9a.21.21,0,0,1,.226-.339c.886.629,1.757,1.274,2.627,1.919a.185.185,0,0,1-.128.322ZM86.7,17.692l-2.676-1.805a.2.2,0,0,1,.21-.339q1.37.87,2.708,1.789a.209.209,0,0,1,0,.274.16.16,0,0,1-.129.081.129.129,0,0,1-.113,0ZM8.851,16.483H8.738a.194.194,0,0,1,0-.274c.613-.919,1.258-1.789,1.919-2.627a.2.2,0,1,1,.274.29A27.338,27.338,0,0,0,9.044,16.45a.178.178,0,0,1-.194.032Zm72.525-2.289h.016Zm-.1,0c-.9-.564-1.838-1.112-2.773-1.612a.2.2,0,1,1,.21-.339c.935.532,1.87,1.1,2.773,1.612a.193.193,0,0,1,0,.274.177.177,0,0,1-.113.065ZM12.871,11.456a.157.157,0,0,1-.119-.277c.758-.79,1.612-1.612,2.354-2.241a.205.205,0,0,1,.29.29,29.972,29.972,0,0,0-2.321,2.208.211.211,0,0,1-.119.037A.208.208,0,0,1,12.871,11.456ZM75.75,10.97h-.1q-1.419-.774-2.853-1.5a.21.21,0,0,1-.064-.322.193.193,0,0,1,.274-.081c.935.467,1.9.983,2.853,1.5a.193.193,0,0,1,0,.274.179.179,0,0,1-.1.129ZM69.995,8.052h-.1c-.951-.451-1.95-.9-2.934-1.322a.209.209,0,0,1-.1-.274.193.193,0,0,1,.258-.1c1,.435,1.983.87,2.95,1.338a.183.183,0,0,1-.064.355Zm-52.439-.9a.194.194,0,0,1,0-.274c.887-.628,1.789-1.225,2.724-1.757a.21.21,0,0,1,.209.355C19.571,6,18.652,6.585,17.8,7.2a.2.2,0,0,1-.065.032H17.7A.178.178,0,0,1,17.556,7.149Zm46.507-1.66c-1-.387-2.015-.774-3.015-1.128a.209.209,0,0,1-.129-.258.226.226,0,0,1,.258-.113c1.016.355,2.031.742,3.03,1.128a.193.193,0,1,1,0,.387Zm-40.945-1.6a.21.21,0,0,1,.1-.274c.967-.435,1.967-.854,3-1.225a.194.194,0,0,1,.258.113.21.21,0,0,1-.113.258c-1.016.371-2.015.79-2.966,1.225l-.1.016A.226.226,0,0,1,23.117,3.893Zm34.852-.548c-1.032-.322-2.063-.613-3.1-.887a.226.226,0,0,1-.145-.242A.21.21,0,0,1,55,2.055c1.016.274,2.063.564,3.111.9a.194.194,0,1,1,0,.387ZM29.178,1.668a.21.21,0,0,1,.145-.258c1.016-.274,2.08-.516,3.224-.725a.193.193,0,0,1,.242.145.209.209,0,0,1-.161.242c-1.064.21-2.112.451-3.127.725l-.129.016A.225.225,0,0,1,29.178,1.668Zm22.6.016c-1.064-.226-2.128-.435-3.224-.6a.209.209,0,0,1-.161-.242.194.194,0,0,1,.226-.161c1.032.177,2.112.371,3.224.613A.21.21,0,0,1,52,1.54a.194.194,0,0,1-.226.145ZM35.523.607a.177.177,0,0,1-.057-.131.177.177,0,0,1,.177-.209C36.69.153,37.77.072,38.867.04a.209.209,0,0,1,.193.194.193.193,0,0,1-.193.209,30.625,30.625,0,0,0-3.224.209h0A.177.177,0,0,1,35.523.607Zm6.584-.2a.21.21,0,1,1,0-.4A30.981,30.981,0,0,1,45.331.25a.193.193,0,0,1,.177.226.21.21,0,0,1-.177.177C44.267.54,43.187.459,42.107.411Z" transform="translate(15.947 36.703)" fill="#d8d5db"/><path d="M111.255,95.933v.532c-.4,4.5-4.272,14.089-8.06,22.568.129,3.063.226,5.8.242,8.06v1.193h-.467c.113,2,.258,5.465.371,9.446-13.944,8.431-31.225,13.541-49.215,17.732l-3.079.693a30.951,30.951,0,0,1-8.157.742,6.754,6.754,0,0,1-.177-2.063,218.751,218.751,0,0,1,2.837-27.114l-1-.145c3.659-12.348,5.5-30.161,6.448-45.62h0c.113-1.822.21-3.595.29-5.352-2.337,2.386-3.949,3.869-3.949,3.869L42.39,72.333c-6.11,4.417-11.881,8.318-14.7,10.123-2.337,2.192-6.319,2.515-9.446-1.612C13.18,74.219,6.039,46.411,5.2,41.688a1.241,1.241,0,0,1-.339-.193C3.7,39.883-.361,31.1.026,29.389s2.289-5.4,4.5-5.9c-.258-.79-.548-1.612-.967-2.757-.935-2.547-2.047-5.126-.371-4.836S8.7,25.568,9.359,27.18c.1-.758.193-1.37.193-1.37.516-1.515,3.224-2.321,2.821,0-.467,3.224.661,4.836.613,7.5v.532a2.176,2.176,0,0,1,0,.29.854.854,0,0,1,0,.21v.113a19.618,19.618,0,0,1-2.063,5.658h0c1.757,5.739,9.817,20.747,14.508,29.016,2.869-2.386,6.448-5.223,10.156-8.06l-.322-.532S54.383,42.655,64.281,41.3c.145-.693.242-1.451.339-2.241s.161-2.128.193-3.224c-7.27-.081-7.947-5.433-7.222-12.235l-1.145-.29,1.693-4.385V18.6a1.273,1.273,0,0,1-.306-.774c0-.532.145-.983.435-1a.177.177,0,0,1,.129,0,9.621,9.621,0,0,1,.177-1.161c.129-.854.29-1.612.451-2.4a3.385,3.385,0,0,0-1.306,0l-.129-.79a4.594,4.594,0,0,1,1.612,0,21.7,21.7,0,0,1,2.563-6.126c-2.321-.161-3.417-.919-1.805-2.789,2.5-2.9,14.331-4.352,20.3-3.127,2.1.435,3.466,1.193,3.482,2.321V3.08h0a3.53,3.53,0,0,0,1.515-1.225l.677.451a4.546,4.546,0,0,1-1.483,1.338l-.242.129c6.384,4.159-2.644,26.437-2.676,26.437-.177,3.82-.29,7.593-.274,10.252,5.739.661,9.366,2.337,11.768,4.965,6.448,5.175,16.346,26.4,16.346,26.4L105.323,72.9c2.886,9.253,5.336,18.538,6.045,21.649A5.5,5.5,0,0,1,111.255,95.933Z" transform="translate(40.296 31.76)" fill="#d1cdd3"/><rect width="107.892" height="84.228" rx="33.6" transform="translate(121.664 91.955) rotate(180)" fill="#4d8dff" opacity="0.3"/><path d="M12.9,99.429A12.9,12.9,0,0,1,0,86.533V12.9A12.9,12.9,0,0,1,12.9,0H114.324a12.9,12.9,0,0,1,12.9,12.9V86.485a12.9,12.9,0,0,1-12.9,12.944Z" transform="translate(0.15 0.15)" fill="#4d8dff" opacity="0.3"/><g transform="translate(22.718 18.608)" opacity="0.3"><rect width="18.022" height="14.073" rx="5.6" transform="translate(18.022 14.073) rotate(180)" fill="#4d8dff"/><rect width="18.022" height="14.073" rx="5.6" transform="translate(42.009 14.073) rotate(180)" fill="#4d8dff"/><rect width="18.022" height="14.073" rx="5.6" transform="translate(66.012 14.073) rotate(180)" fill="#4d8dff"/><rect width="18.022" height="14.073" rx="5.6" transform="translate(90.015 14.073) rotate(180)" fill="#4d8dff"/></g><g transform="translate(22.718 42.804)" opacity="0.3"><rect width="18.022" height="14.073" rx="5.6" transform="translate(18.022 14.073) rotate(180)" fill="#4d8dff"/><rect width="18.022" height="14.073" rx="5.6" transform="translate(42.009 14.073) rotate(180)" fill="#4d8dff"/><rect width="18.022" height="14.073" rx="5.6" transform="translate(66.012 14.073) rotate(180)" fill="#4d8dff"/><rect width="18.022" height="14.073" rx="5.6" transform="translate(90.015 14.073) rotate(180)" fill="#4d8dff"/></g><g transform="translate(22.718 66.984)" opacity="0.3"><rect width="18.022" height="14.073" rx="5.6" transform="translate(18.022 14.073) rotate(180)" fill="#4d8dff"/><rect width="18.022" height="14.073" rx="5.6" transform="translate(42.009 14.073) rotate(180)" fill="#4d8dff"/><rect width="18.022" height="14.073" rx="5.6" transform="translate(66.012 14.073) rotate(180)" fill="#4d8dff"/><rect width="18.022" height="14.073" rx="5.6" transform="translate(90.015 14.073) rotate(180)" fill="#4d8dff"/></g><rect width="18.022" height="14.073" rx="5.6" transform="translate(91.02 30.391) rotate(180)" fill="#4d8dff"/><rect width="18.022" height="14.073" rx="5.6" transform="translate(91.02 78.768) rotate(180)" fill="#ff4e4a"/><rect width="18.022" height="14.073" rx="5.6" transform="translate(43.014 54.588) rotate(180)" fill="#ffc84d"/><path d="M19.542,0c-.548,3.514-1.612,22.568-1.177,26.921S-2.591,32.6.262,27.743s.822-20.956.822-20.956Z" transform="translate(114.712 48.059)" fill="#ffad69"/><path d="M16.975,0,0,6.206A88.177,88.177,0,0,1,.451,22.214C7.448,19.328,5.9,13.46,5.9,10.3,5.9,7.431,16.991.548,16.975,0Z" transform="translate(115.796 48.607)" fill="#d88344"/><path d="M2.644,0,0,5.642,3.224,6.948,2.644,0Z" transform="translate(107.752 49.333)" fill="#d88344"/><path d="M1.361,15.319c-1.612,10.849-4.256,21.666,8.9,19.876S25.445,16.576,25.413,13.384C25.2-3.574,4.456-5.992,1.361,15.319Z" transform="translate(108.986 32.144)" fill="#ffad69"/><path d="M25.113,3.8A5.013,5.013,0,0,0,26.838,2.33l-.677-.451A3.659,3.659,0,0,1,24.549,3.1a2.193,2.193,0,0,0,0-.339c0-4.385-20.408-3.127-23.777.79-2,2.321.129,2.934,3.579,2.821A1.612,1.612,0,0,0,3.8,7.15c-2.273,11.139,8.463,22.1,9.672,23.036h8.769S31.433,7.891,25.113,3.8Z" transform="translate(110.881 31.802)" fill="#232323"/><path d="M24.277,38.3C23.116,33.127,17.071,10.736,12.267,0L0,2.611S7.915,29.081,12.122,38.963c-.983,5.32-5.948,30.064-9.011,36.98-1.354,3.224,3.772,4.465,5.013,2.918s15.33-29.855,16.12-38.688V39.64a4.3,4.3,0,0,0,.032-1.338Z" transform="translate(138.8 88.021)" fill="#ffad69"/><path d="M8.987,2.441c6.448,5.046,16.426,26.5,16.426,26.5L4.3,34.423S-7.988-10.842,8.987,2.441Z" transform="translate(135.664 74.667)" fill="#e5aa33"/><path d="M60.35,3.45a71.961,71.961,0,0,1-11.123,8.06C35.283,19.941,18,25.051.012,29.242a4.1,4.1,0,0,1,0-.629C.592,18.635,1.624,7.238,3.236,0l46.12.919,10.9.226C60.253,1.693,60.35,2.466,60.35,3.45Z" transform="translate(94.425 157.967)" fill="#232323"/><path d="M32.917.04C45.572.459,49.86,4.731,52.036,12.13c2.483,8.383,6.851,59.081,6.851,76.007,0,0-37.9,2.692-58.887-.758,6.577-22.23,7.286-62.192,7.431-74.153C7.528,4.344,16.862-.492,32.917.04Z" transform="translate(96.291 71.926)" fill="#ffc84d"/><path d="M3.643,6.512.242,1.935A1.209,1.209,0,0,1,1.209,0H6.48A1.225,1.225,0,0,1,7.609,1.612L5.771,6.19a1.209,1.209,0,0,1-.967.742L4.61,7H4.6A1.192,1.192,0,0,1,3.643,6.512Z" transform="translate(127.129 74.158)" fill="#fff"/><path d="M1.938.921c0,.532-.145.983-.435,1S.955,1.533.923,1s.145-.967.435-1S1.906.389,1.938.921Z" transform="translate(108.683 48.589)" fill="none"/><path d="M3.24,2.156A3,3,0,0,0,.177.85L0,.076A3.8,3.8,0,0,1,3.917,1.688Z" transform="translate(109.316 44.163)" fill="none"/><path d="M.951,1.364C.854,7.216.629,16.55,0,26.979c5.368-6.448,10.639-14.073,10.946-19.8C11.381-.683,6.916-1.166.951,1.364Z" transform="translate(102.723 86.737)" fill="#e5aa33"/><path d="M59.145,43.263,52.7,32.543s-17.732,12.783-27.259,20.7C20.731,44.955,12.687,29.947,10.93,24.225h0a19.344,19.344,0,0,0,2.047-5.642.226.226,0,0,0,0-.113v-.21a2,2,0,0,0,0-.29v-.548c0-2.6-1.08-4.191-.613-7.48.322-2.305-2.305-1.515-2.821,0L9.334,11.3C8.673,9.684,4.691.222,3.176.012s-.564,2.337.371,4.836c.4,1.112.709,1.983.967,2.757-2.225.516-4.191,4.32-4.5,5.916S3.74,24.015,4.853,25.627a1.241,1.241,0,0,0,.306.274c.822,4.739,8.06,32.531,13.025,39.172,3.127,4.111,7.125,3.788,9.463,1.612C33.385,63.026,51.021,50.9,59.145,43.263Z" transform="translate(51.67 47.564)" fill="#ffad69"/><path d="M34.787,7.188c-.645,11.832-22.568,32.128-22.568,32.128L0,19.327S35.98-14.332,34.787,7.188Z" transform="translate(86.909 72.918)" fill="#ffc84d"/><path d="M.463,3.815C-.02,6.652-.73,9.473,1.93,9.263S5.267,4.637,5.316,3.8C5.541-.715,1.414-1.8.463,3.815Z" transform="translate(114.462 47.001)" fill="#ffad69"/></g></svg>