<svg xmlns="http://www.w3.org/2000/svg" width="135.291" height="85.56" viewBox="0 0 135.291 85.56"><g transform="translate(-1018.355 -461.865)" opacity="0.66"><path d="M.631,176.072a4.077,4.077,0,0,0,2.91,4.978l35.5,9.3a4.077,4.077,0,0,0,2.068-7.888L9.552,174.2l8.27-31.551a4.077,4.077,0,1,0-7.888-2.068Zm115.062-7.348a4.077,4.077,0,0,0,3.909-7.156l-3.909,7.156ZM6.632,180.625c13.506-7.9,27.177-17.943,44.569-22.617,17-4.568,37.669-3.933,64.491,10.716l3.909-7.156c-28.518-15.576-51.337-16.589-70.516-11.434C30.3,155.182,15.1,166.226,2.517,173.586l4.116,7.04Z" transform="translate(987.027 360.291) rotate(-14)" fill="#1c7ed6"/><path d="M40.072,190.488a4.078,4.078,0,0,0,1.031-8.022L14.924,175.6c-2.791,1.721-5.544,3.416-8.292,5.022h0l-4.116-7.04c2.728-1.595,5.577-3.362,8.559-5.2l6.746-25.737a4.077,4.077,0,1,0-7.888-2.068l-9.3,35.495a4.077,4.077,0,0,0,2.91,4.978l35.5,9.3a4.084,4.084,0,0,0,1.036.134M14.924,175.6c10.929-6.739,22.423-13.872,36.278-17.6,17-4.568,37.669-3.933,64.491,10.716h0l3.909-7.156c-28.518-15.576-51.337-16.589-70.516-11.434-14.715,3.954-27.227,11.589-38.009,18.248L9.552,174.2l5.372,1.408m102.72-6.38a4.078,4.078,0,0,0,1.958-7.656l-3.909,7.156a4.06,4.06,0,0,0,1.951.5M40.072,192.488h0a6.091,6.091,0,0,1-1.543-.2l-35.5-9.3A6.077,6.077,0,0,1-1.3,175.565L8,140.07a6.077,6.077,0,1,1,11.757,3.082l-5.483,20.918c4.03-2.452,8.6-5.136,13.42-7.606A105.913,105.913,0,0,1,48.566,148.2a81.328,81.328,0,0,1,21.389-2.857,89.56,89.56,0,0,1,23.712,3.325,126.756,126.756,0,0,1,26.89,11.14l0,0a6.078,6.078,0,0,1-2.916,11.411h0a6.089,6.089,0,0,1-2.909-.744l-.008,0a114.755,114.755,0,0,0-24.176-10.058,77.5,77.5,0,0,0-20.6-2.918,69.333,69.333,0,0,0-18.232,2.44c-11.926,3.2-22.073,8.994-31.762,14.916l21.652,5.676a6.078,6.078,0,0,1-1.538,11.957ZM5.247,174.294l2.1,3.588c.852-.508,1.7-1.021,2.54-1.531l-.84-.22a2,2,0,0,1-1.428-2.442l.258-.986Q6.543,173.517,5.247,174.294Z" transform="translate(987.027 360.291) rotate(-14)" fill="#96d7d2"/><path d="M.631,176.072a4.077,4.077,0,0,0,2.91,4.978l35.5,9.3a4.077,4.077,0,0,0,2.068-7.888L9.552,174.2l8.27-31.551a4.077,4.077,0,1,0-7.888-2.068Zm115.062-7.348a4.077,4.077,0,0,0,3.909-7.156l-3.909,7.156ZM6.632,180.625c13.506-7.9,27.177-17.943,44.569-22.617,17-4.568,37.669-3.933,64.491,10.716l3.909-7.156c-28.518-15.576-51.337-16.589-70.516-11.434C30.3,155.182,15.1,166.226,2.517,173.586l4.116,7.04Z" transform="translate(987.027 360.291) rotate(-14)" fill="#1c7ed6"/></g></svg>