<svg width="20" height="20" fill="none" xmlns="http://www.w3.org/2000/svg"><path opacity=".4" d="M14.676 0H5.333C1.93 0 0 1.929 0 5.333v9.334C0 18.07 1.929 20 5.333 20h9.343C18.08 20 20 18.071 20 14.667V5.333C20 1.93 18.08 0 14.676 0z" fill="#00BB98"/><path d="M5.369 7.37a.833.833 0 00-.827.835v6.87a.83.83 0 101.662 0v-6.87a.835.835 0 00-.835-.836zm4.666-3.28a.833.833 0 00-.826.835v10.15a.83.83 0 101.662 0V4.926a.835.835 0 00-.836-.836zm4.605 6.907a.836.836 0 00-.836.835v3.245a.832.832 0 001.663 0V11.83a.833.833 0 00-.827-.835" fill="#00BB98"/></svg>