<svg xmlns="http://www.w3.org/2000/svg" viewBox="0 0 140.4 132"><radialGradient id="a" cx="70.2" cy="23.111" r="51.245" gradientTransform="matrix(.9972 0 0 .1 .2 125.189)" gradientUnits="userSpaceOnUse"><stop offset="0" stop-opacity=".3"/><stop offset=".487" stop-opacity="0"/></radialGradient><ellipse cx="70.2" cy="127.5" rx="70" ry="4.5" fill="url(#a)"/><path d="M112.6 23.4C104.4 9.6 88.8 0 72.7 0c-14.5 0-28.5 7.1-37 18.9C25.5 33 25.4 49.5 32 65.2c9.4 22.5 23.8 43.5 38.6 62.8.2-.2.4-.5.6-.7 15.4-18.6 30.7-38.8 41.1-60.7 3.2-6.8 5.4-13.8 5.8-20.8.4-7.5-1.1-15-5.5-22.4zm-39.9 44c-11.6 0-21-9.4-21-21.1 0-11.6 9.4-21.1 21-21.1s21 9.4 21 21.1c0 11.7-9.4 21.1-21 21.1z" fill="#0abf53"/></svg>