<svg xmlns="http://www.w3.org/2000/svg" width="540" height="305.798"><defs><clipPath id="a"><path fill="none" d="M0 0h282.486v172.347H0z"/></clipPath><clipPath id="b"><path fill="none" d="M0 0h176.882v140.736H0z"/></clipPath><clipPath id="c"><path fill="none" d="M0 0h43.196v43.196H0z"/></clipPath><clipPath id="d"><path fill="none" d="M0 0h95.862v62.845H0z"/></clipPath><clipPath id="e"><path fill="none" d="M0 0h146.488v116.552H0z"/></clipPath><clipPath id="f"><path fill="none" d="M0 0h35.775v35.774H0z"/></clipPath><clipPath id="g"><path fill="none" d="M0 0h127.214v101.217H0z"/></clipPath><clipPath id="h"><path fill="none" d="M0 0h31.066v31.067H0z"/></clipPath><clipPath id="i"><path fill="none" d="M0 0h165.324v131.539H0z"/></clipPath><clipPath id="j"><path fill="none" d="M0 0h40.374v40.374H0z"/></clipPath><clipPath id="k"><path fill="none" d="M0 0h90.95v59.626H0z"/></clipPath><clipPath id="l"><path fill="none" d="M0 0h90.95v59.625H0z"/></clipPath></defs><g clip-path="url(#a)" transform="translate(128.137 97.522)" opacity=".2"><path d="M196.31 172.347H86.172A86.174 86.174 0 0186.172 0H196.31a86.174 86.174 0 110 172.347" fill="#4b4b4b"/></g><path d="M316.644 260.201H206.505a86.174 86.174 0 010-172.347h110.139a86.174 86.174 0 110 172.347" fill="#fff"/><path d="M206.504 230.626a56.6 56.6 0 010-113.2h110.14a56.6 56.6 0 010 113.2z" fill="#dfdfdf"/><path d="M206.504 217.368a43.342 43.342 0 010-86.684h110.14a43.342 43.342 0 010 86.684z" fill="#454545"/><path d="M174.551 173.517a18.187 18.187 0 1118.187 18.187 18.186 18.186 0 01-18.187-18.187M311.2 173.517a18.187 18.187 0 1118.187 18.187 18.186 18.186 0 01-18.187-18.187M285.879 190.088h-49.63a3.825 3.825 0 010-7.649h49.63a3.825 3.825 0 010 7.649M318.938 84.794a5.1 5.1 0 01-5.1-5.1 28.076 28.076 0 00-28.042-28.044h-48.443a28.077 28.077 0 00-28.045 28.045 5.1 5.1 0 11-10.2 0 38.286 38.286 0 0138.243-38.243h48.445a38.286 38.286 0 0138.242 38.243 5.1 5.1 0 01-5.1 5.1" fill="#acacac"/><g clip-path="url(#b)" transform="translate(349.324 6.118)" opacity=".2"><path d="M167.353 37.884a21.594 21.594 0 10-31.771-28.806 21.714 21.714 0 00-5.33 5.966 54.538 54.538 0 00-7.329-.5H53.958A53.959 53.959 0 000 68.502c0 28.721 21.366 52.19 49.669 53.854l18.373 18.38v-18.26l54.876-.012a53.961 53.961 0 0044.43-84.58" fill="#4b4b4b"/></g><path d="M472.247 14.547h-68.966a53.959 53.959 0 00-53.958 53.958c0 28.721 21.367 52.19 49.671 53.854l18.372 18.373v-18.255l54.877-.013a53.959 53.959 0 100-107.917" fill="#fff"/><g clip-path="url(#c)" transform="translate(476.481 4.589)" opacity=".2"><path d="M0 21.599a21.6 21.6 0 1121.6 21.6A21.6 21.6 0 010 21.599" fill="#4b4b4b"/></g><path d="M480.901 21.599a21.6 21.6 0 1121.6 21.6 21.6 21.6 0 01-21.6-21.6" fill="#8b8b8b"/><path d="M491.993 33.379h21.009a10.5 10.5 0 00-6.6-9.749 7.461 7.461 0 10-7.8 0 10.5 10.5 0 00-6.6 9.749" fill="#454545"/><path d="M438.571 64.401h-41.56a3.952 3.952 0 110-7.9h41.56a3.952 3.952 0 110 7.9M479.873 64.401h-25.664a3.952 3.952 0 110-7.9h25.665a3.952 3.952 0 110 7.9M454.633 78.897h-57.622a3.952 3.952 0 010-7.9h57.619a3.952 3.952 0 010 7.9M479.874 78.897h-8.881a3.952 3.952 0 110-7.9h8.881a3.952 3.952 0 110 7.9" fill="#b1b1b1"/><g clip-path="url(#d)" transform="translate(440.313 106.742)" opacity=".2"><path d="M72.152 0H23.711a23.71 23.71 0 000 47.42h32.963v15.425L72.098 47.42h.054a23.71 23.71 0 000-47.42" fill="#4b4b4b"/></g><path d="M516.29 103.172h-48.441a23.711 23.711 0 000 47.421h32.962v15.425l15.424-15.424h.054a23.711 23.711 0 000-47.421" fill="#acacac"/><path d="M498.73 124.753h-31.906a3.034 3.034 0 110-6.068h31.905a3.034 3.034 0 110 6.068M511.061 135.882h-44.238a3.034 3.034 0 010-6.068h44.238a3.034 3.034 0 110 6.068M517.506 124.753h-6.819a3.034 3.034 0 010-6.068h6.819a3.034 3.034 0 110 6.068" fill="#fff"/><g clip-path="url(#e)" transform="translate(5.963 176.717)" opacity=".2"><path d="M138.596 31.374a17.883 17.883 0 10-26.312-23.857 17.976 17.976 0 00-4.413 4.942 45.006 45.006 0 00-6.07-.413H44.686A44.687 44.687 0 000 56.734c0 23.786 17.7 43.221 41.135 44.6l15.219 15.218v-15.121l45.447-.01a44.688 44.688 0 0036.795-70.046" fill="#4b4b4b"/></g><path d="M103.823 183.696H46.709a44.687 44.687 0 00-44.687 44.687c0 23.785 17.7 43.221 41.136 44.6l15.218 15.219V273.08l45.447-.011a44.687 44.687 0 100-89.373" fill="#fff"/><g clip-path="url(#f)" transform="translate(107.33 175.45)" opacity=".2"><path d="M0 17.887a17.887 17.887 0 1117.891 17.887A17.886 17.886 0 01.004 17.887" fill="#4b4b4b"/></g><path d="M110.99 189.536a17.887 17.887 0 1117.887 17.887 17.887 17.887 0 01-17.887-17.887" fill="#8b8b8b"/><path d="M120.175 199.293h17.4a8.7 8.7 0 00-5.471-8.073 6.179 6.179 0 10-6.459 0 8.7 8.7 0 00-5.47 8.073" fill="#454545"/><path d="M75.935 224.984H41.518a3.273 3.273 0 010-6.546h34.417a3.273 3.273 0 010 6.546M110.139 224.984H88.884a3.273 3.273 0 110-6.546h21.255a3.273 3.273 0 010 6.546M89.237 236.99H41.518a3.273 3.273 0 010-6.546h47.719a3.273 3.273 0 010 6.546M110.139 236.99h-7.355a3.273 3.273 0 010-6.546h7.355a3.273 3.273 0 010 6.546" fill="#b1b1b1"/><g clip-path="url(#g)" transform="translate(406.856 180.117)" opacity=".2"><path d="M120.361 27.246A15.53 15.53 0 1097.506 6.53a15.62 15.62 0 00-3.832 4.291 39.147 39.147 0 00-5.271-.358H38.806A38.807 38.807 0 00-.001 49.271c0 20.655 15.367 37.534 35.723 38.731l13.216 13.216V88.085l39.468-.009a38.809 38.809 0 0031.954-60.83" fill="#4b4b4b"/></g><path d="M495.262 186.178h-49.6a38.806 38.806 0 00-38.807 38.807c0 20.656 15.367 37.535 35.723 38.732l13.216 13.216v-13.131l39.468-.009a38.807 38.807 0 000-77.615" fill="#fff"/><g clip-path="url(#h)" transform="translate(498.309 179.016)" opacity=".2"><path d="M0 15.534a15.534 15.534 0 1115.53 15.532A15.533 15.533 0 010 15.534" fill="#4b4b4b"/></g><path d="M501.487 191.249a15.534 15.534 0 1115.534 15.533 15.533 15.533 0 01-15.534-15.533" fill="#8b8b8b"/><path d="M509.466 199.722h15.11a7.551 7.551 0 00-4.75-7.011 5.366 5.366 0 10-5.609 0 7.553 7.553 0 00-4.75 7.011" fill="#454545"/><path d="M471.043 222.033h-29.892a2.842 2.842 0 010-5.684h29.888a2.842 2.842 0 010 5.684M500.749 222.033H482.29a2.842 2.842 0 010-5.684h18.459a2.842 2.842 0 010 5.684M482.596 232.459h-41.445a2.842 2.842 0 110-5.684h41.44a2.842 2.842 0 110 5.684M500.748 232.459h-6.385a2.842 2.842 0 010-5.684h6.387a2.842 2.842 0 010 5.684" fill="#b1b1b1"/><g clip-path="url(#i)" transform="translate(0 24.943)" opacity=".2"><path d="M156.418 35.409a20.183 20.183 0 10-29.7-26.924 20.3 20.3 0 00-4.981 5.576 50.92 50.92 0 00-6.85-.465H50.433A50.434 50.434 0 000 64.029c0 26.844 19.971 48.78 46.425 50.335L63.6 131.539v-17.066l51.292-.012a50.434 50.434 0 0041.526-79.053" fill="#4b4b4b"/></g><path d="M114.891 32.82H50.433A50.432 50.432 0 000 83.253c0 26.844 19.97 48.78 46.424 50.335L63.6 150.767v-17.069l51.291-.012a50.433 50.433 0 100-100.866" fill="#fff"/><g clip-path="url(#j)" transform="translate(118.849 23.513)" opacity=".2"><path d="M0 20.187a20.187 20.187 0 1120.187 20.187A20.187 20.187 0 010 20.187" fill="#4b4b4b"/></g><path d="M122.979 39.415a20.187 20.187 0 1120.186 20.182 20.187 20.187 0 01-20.186-20.182" fill="#8b8b8b"/><path d="M133.349 50.422h19.637a9.818 9.818 0 00-6.173-9.112 6.973 6.973 0 10-7.29 0 9.816 9.816 0 00-6.173 9.112" fill="#454545"/><path d="M83.416 79.417H44.574a3.693 3.693 0 110-7.387h38.842a3.693 3.693 0 110 7.387M122.02 79.417H98.032a3.693 3.693 0 110-7.387h23.988a3.693 3.693 0 110 7.387M98.429 92.966H44.575a3.693 3.693 0 110-7.387h53.854a3.693 3.693 0 110 7.387M122.02 92.966h-8.3a3.693 3.693 0 010-7.387h8.3a3.693 3.693 0 110 7.387" fill="#b1b1b1"/><g clip-path="url(#k)" transform="translate(133.349 246.173)" opacity=".2"><path d="M68.454 0H22.496a22.5 22.5 0 100 44.991h31.273v14.634l14.634-14.634h.051a22.5 22.5 0 100-44.991" fill="#4b4b4b"/></g><path d="M205.431 242.787h-45.958a22.5 22.5 0 100 44.991h31.273v14.634l14.634-14.634h.051a22.5 22.5 0 100-44.991" fill="#acacac"/><path d="M188.772 263.262h-30.271a2.879 2.879 0 010-5.757h30.271a2.879 2.879 0 110 5.757M200.472 273.821h-41.971a2.879 2.879 0 110-5.757h41.971a2.879 2.879 0 110 5.757M206.584 263.262h-6.474a2.879 2.879 0 010-5.757h6.469a2.879 2.879 0 110 5.757" fill="#fff"/><g><g clip-path="url(#l)" transform="translate(16.539 10.945)" opacity=".2"><path d="M68.454.002H22.496a22.5 22.5 0 000 44.991h31.273v14.632l14.634-14.634h.051a22.5 22.5 0 100-44.991" fill="#4b4b4b"/></g><path d="M88.621 7.559H42.66a22.5 22.5 0 000 44.991h31.276v14.634L88.57 52.55h.051a22.5 22.5 0 100-44.991" fill="#acacac"/><path d="M71.961 28.034H41.694a2.879 2.879 0 110-5.757h30.267a2.879 2.879 0 110 5.757M83.661 38.593H41.694a2.879 2.879 0 110-5.757h41.967a2.879 2.879 0 110 5.757M89.774 28.034h-6.469a2.879 2.879 0 010-5.757h6.469a2.879 2.879 0 110 5.757" fill="#fff"/></g><g><g clip-path="url(#l)" transform="translate(324.037 246.174)" opacity=".2"><path d="M68.454 0H22.495a22.5 22.5 0 000 44.991H53.77v14.634l14.634-14.634h.051a22.5 22.5 0 100-44.991" fill="#4b4b4b"/></g><path d="M396.119 242.787h-45.958a22.5 22.5 0 100 44.991h31.273v14.634l14.634-14.634h.051a22.5 22.5 0 100-44.991" fill="#fff"/><path d="M379.459 263.262h-30.271a2.879 2.879 0 110-5.757h30.271a2.879 2.879 0 110 5.757M391.159 273.821h-41.97a2.879 2.879 0 010-5.758h41.971a2.879 2.879 0 110 5.758M397.272 263.262h-6.469a2.879 2.879 0 010-5.757h6.469a2.879 2.879 0 110 5.757" fill="#b1b1b1"/></g></svg>