<?xml version="1.0" encoding="UTF-8"?>
<svg width="1202px" height="321px" viewBox="0 0 1202 321" version="1.1" xmlns="http://www.w3.org/2000/svg" xmlns:xlink="http://www.w3.org/1999/xlink">
    <title>BB5F3332-82C5-45AC-B92D-3835E630D9A0</title>
    <defs>
        <rect id="path-1" x="0" y="0" width="1202" height="320"></rect>
        <polygon id="path-3" points="1.01549235e-14 0 51.1701326 0 51.1701326 40 1.01549235e-14 40"></polygon>
    </defs>
    <g id="ðŸ‘ðŸ»-Home-page" stroke="none" stroke-width="1" fill="none" fill-rule="evenodd">
        <g id="Home-page---1328-v4" transform="translate(-299.000000, -2926.000000)">
            <g id="Subscribe" transform="translate(-1.000678, 2926.500269)">
                <g id="Image" transform="translate(300.000000, 0.000000)">
                    <mask id="mask-2" fill="white">
                        <use xlink:href="#path-1"></use>
                    </mask>
                    <g id="Rectangle"></g>
                    <g id="Group-21" mask="url(#mask-2)">
                        <g transform="translate(50.079478, -27.944215)">
                            <g id="Group-10" transform="translate(839.921200, 206.201157)">
                                <g id="Group-3" transform="translate(74.479087, 25.242789) rotate(13.000000) translate(-74.479087, -25.242789) translate(48.894020, 5.242789)">
                                    <mask id="mask-4" fill="white">
                                        <use xlink:href="#path-3"></use>
                                    </mask>
                                    <g id="Clip-2"></g>
                                    <path d="M0.299526661,15.3325785 L7.09669929,19.4700501 C7.25390892,19.5658051 7.44398965,19.5872427 7.61834942,19.5286464 L26.3348702,13.2902826 C27.0137299,13.0644724 27.4767837,13.9705715 26.8979665,14.3878916 L14.2854668,23.4688914 C14.1082487,23.5960882 14.0110645,23.8047483 14.0267855,24.0219834 L15.1686991,39.421381 C15.2115744,40.0087734 15.9704682,40.2145751 16.3048959,39.7286544 L22.0830643,31.3222268 C22.2774326,31.0392495 22.6661691,30.9663614 22.9491465,31.1607297 L34.1353261,38.8139802 C34.4597496,39.036932 34.9070824,38.9054476 35.0614337,38.5438655 L51.1196826,0.869292797 C51.3254843,0.386230487 50.8795806,-0.1182695 50.3750806,0.024648343 L0.453877932,14.19924 C-0.0706305529,14.3478746 -0.164956329,15.0496012 0.299526661,15.3325785" id="Fill-1" fill="#FC2D60" mask="url(#mask-4)"></path>
                                    <path d="M14.0819518,24.7661566 L15.1295396,39.3009013 C15.1852775,40.0826619 16.1671231,40.355635 16.598735,39.7096463 L22.0824927,31.5104496 C22.2196938,31.3060771 22.4540791,31.0259582 22.950004,31.1617301 L14.3763626,24.6032303 C14.252024,24.5031878 14.0705184,24.6032303 14.0819518,24.7661566" id="Fill-4" fill="#CB2C53" mask="url(#mask-4)"></path>
                                    <path d="M7.39682676,19.6849985 L15.4202345,39.5177077 C15.4673974,39.6349003 15.640328,39.6120334 15.6546197,39.4862657 L17.4596721,24.1254559 C17.4639596,24.094014 17.4782514,24.0668596 17.5025475,24.0468511 L32.1044635,11.6015653 C32.2059352,11.5143854 32.1144678,11.3500299 31.9872709,11.3929053 L7.47114404,19.5235014 C7.40397265,19.5449391 7.36967237,19.6192563 7.39682676,19.6849985" id="Fill-8" fill="#971132" mask="url(#mask-4)"></path>
                                </g>
                                <path d="M13.4945,46.8573354 C7.5715,46.8573354 0.6385,40.0043354 0.2925,39.6593354 C-0.0975,39.2683354 -0.0975,38.6353354 0.2925,38.2453354 C0.6835,37.8543354 1.3165,37.8543354 1.7065,38.2453354 C1.7965,38.3343354 10.7905,47.1173354 15.6675,44.3153354 C17.7795,43.1023354 19.2005,41.0653354 20.5745,39.0943354 C22.6255,36.1523354 24.7465,33.1103354 29.0755,33.0153354 C29.1285,33.0133354 29.1825,33.0133354 29.2355,33.0133354 C34.9455,33.0133354 39.2815,39.7743354 39.4655,40.0633354 C39.7595,40.5303354 39.6205,41.1473354 39.1545,41.4423354 C38.6865,41.7373354 38.0695,41.5983354 37.7745,41.1323354 C37.7355,41.0713354 33.8405,35.0133354 29.2355,35.0133354 C29.1965,35.0133354 29.1585,35.0133354 29.1195,35.0143354 C25.8065,35.0873354 24.1425,37.4743354 22.2155,40.2383354 C20.7145,42.3893354 19.1635,44.6133354 16.6635,46.0503354 C15.6765,46.6173354 14.6025,46.8573354 13.4945,46.8573354" id="Fill-6" fill="#FC2D60" transform="translate(19.809823, 39.935335) scale(-1, 1) translate(-19.809823, -39.935335) "></path>
                            </g>
                            <g id="Group-43" transform="translate(0.000000, 181.443946)">
                                <path d="M97.288,49.6442596 C43.558,49.6442596 0,96.3462596 0,153.95526 C0,159.68426 0.438,165.30226 1.266,170.78026 L193.31,170.78026 C194.139,165.30226 194.576,159.68426 194.576,153.95526 C194.576,96.3462596 151.019,49.6442596 97.288,49.6442596" id="Fill-1" fill="#FBE8ED"></path>
                                <path d="M70.0953,64.6639596 C70.0953,64.6639596 61.9943,78.4949596 61.0063,85.0149596 C61.0063,85.0149596 81.8193,83.9579596 82.3453,81.8539596 C82.5433,81.0639596 85.0133,69.1099596 85.0133,69.1099596 L70.0953,64.6639596 Z" id="Fill-3" fill="#FF867F"></path>
                                <path d="M90.1223,43.9846596 C95.4553,53.6846596 93.4853,67.3906596 87.1663,71.1306596 C82.4523,73.9196596 70.2993,68.9166596 65.7333,58.8336596 C61.1673,48.7496596 63.3613,37.9066596 70.6323,34.6136596 C77.9033,31.3216596 85.5383,35.6486596 90.1223,43.9846596" id="Fill-5" fill="#FFA89E"></path>
                                <path d="M81.7528,45.2018596 C81.7528,45.2018596 68.2178,43.3248596 67.0328,54.6858596 C66.7218,57.6678596 66.7868,59.7648596 67.0488,61.2468596 C67.8328,62.5058596 69.8188,65.1668596 69.7568,65.2558596 C74.2848,69.9998596 80.5518,72.1958596 84.6508,71.8428596 C84.6608,71.8038596 84.6678,71.7768596 84.6678,71.7768596 C75.2328,60.6138596 81.7528,45.2018596 81.7528,45.2018596" id="Fill-7" fill="#FF867F"></path>
                                <path d="M70.8309,59.8462596 C70.8309,59.8462596 78.4929,64.2692596 77.0109,47.9682596 C77.0109,47.9682596 89.7549,47.3752596 91.9779,39.3732596 C94.2009,31.3712596 92.8669,23.8132596 76.5659,24.1092596 C60.2659,24.4062596 52.4119,37.7432596 52.4119,37.7432596 C52.4119,37.7432596 42.1859,34.3342596 44.8539,48.7092596 C47.5209,63.0832596 59.9689,71.1592596 64.1189,71.8262596 C67.6569,72.3952596 71.1569,69.8262596 71.4539,64.9352596 L70.8309,59.8462596 Z" id="Fill-9" fill="#5F77E2"></path>
                                <path d="M84.8503,49.4535596 C84.7703,49.4535596 84.6903,49.4345596 84.6153,49.3945596 C84.3713,49.2645596 84.2803,48.9625596 84.4093,48.7195596 C85.1113,47.4015596 87.1703,45.1785596 89.9533,46.1905596 C90.2123,46.2845596 90.3473,46.5715596 90.2523,46.8305596 C90.1583,47.0905596 89.8713,47.2245596 89.6113,47.1295596 C86.9543,46.1655596 85.3583,49.0655596 85.2913,49.1895596 C85.2013,49.3575596 85.0283,49.4535596 84.8503,49.4535596" id="Fill-11" fill="#1A2241"></path>
                                <path d="M88.7844,62.8490596 C88.4914,62.8490596 88.1874,62.8080596 87.8824,62.7100596 C86.7684,62.3500596 85.9414,61.3290596 85.4254,59.6760596 C85.3424,59.4120596 85.4894,59.1320596 85.7534,59.0500596 C86.0144,58.9670596 86.2964,59.1140596 86.3794,59.3780596 C86.7924,60.7010596 87.4004,61.5010596 88.1854,61.7570596 C89.3554,62.1410596 90.6294,61.2100596 90.6414,61.2010596 C90.8624,61.0350596 91.1764,61.0820596 91.3414,61.3030596 C91.5054,61.5240596 91.4614,61.8360596 91.2404,62.0010596 C91.1844,62.0430596 90.0924,62.8490596 88.7844,62.8490596" id="Fill-13" fill="#CB6161"></path>
                                <path d="M74.853,59.2512596 C75.313,62.1612596 73.999,64.7872596 71.92,65.1152596 C69.84,65.4442596 67.781,63.3512596 67.321,60.4412596 C66.861,57.5312596 68.175,54.9052596 70.254,54.5772596 C72.334,54.2482596 74.393,56.3412596 74.853,59.2512596" id="Fill-15" fill="#FF867F"></path>
                                <path d="M71.0828,62.8422596 C70.9758,62.8422596 70.8678,62.8082596 70.7758,62.7372596 C69.8678,62.0302596 69.3778,61.2062596 69.3208,60.2882596 C69.2258,58.7682596 70.3838,57.5922596 70.4328,57.5432596 C70.6288,57.3472596 70.9428,57.3482596 71.1388,57.5422596 C71.3338,57.7362596 71.3348,58.0522596 71.1418,58.2492596 C71.1328,58.2582596 70.2498,59.1652596 70.3198,60.2322596 C70.3598,60.8492596 70.7208,61.4262596 71.3908,61.9472596 C71.6078,62.1172596 71.6478,62.4312596 71.4778,62.6492596 C71.3788,62.7762596 71.2318,62.8422596 71.0828,62.8422596" id="Fill-17" fill="#CB6161"></path>
                                <path d="M83.1365,72.2767596 C83.1185,72.2767596 83.1005,72.2757596 83.0825,72.2737596 C82.8475,72.2487596 77.3015,71.6167596 74.6335,68.0247596 C74.4695,67.8027596 74.5145,67.4897596 74.7365,67.3247596 C74.9585,67.1597596 75.2715,67.2067596 75.4365,67.4277596 C77.8465,70.6727596 83.1355,71.2737596 83.1895,71.2797596 C83.4635,71.3087596 83.6625,71.5557596 83.6335,71.8297596 C83.6055,72.0867596 83.3885,72.2767596 83.1365,72.2767596" id="Fill-19" fill="#CB6161"></path>
                                <path d="M52.4114,37.7428596 C52.4114,37.7428596 42.1864,34.3348596 44.8534,48.7088596 C47.5214,63.0828596 59.9694,71.1598596 64.1184,71.8258596 C66.4114,72.1948596 68.6824,71.2388596 70.0824,69.1948596 C52.4944,60.3228596 52.4114,37.7428596 52.4114,37.7428596" id="Fill-21" fill="#3E47AD"></path>
                                <path d="M90.6117,49.2769596 C90.7337,49.9679596 90.3037,50.6229596 89.6507,50.7379596 C88.9967,50.8529596 88.3687,50.3859596 88.2467,49.6949596 C88.1247,49.0029596 88.5547,48.3489596 89.2077,48.2339596 C89.8607,48.1179596 90.4897,48.5849596 90.6117,49.2769596" id="Fill-23" fill="#1A2241"></path>
                                <path d="M92.5372,50.6866596 C92.5372,50.6866596 96.4572,55.3486596 95.2922,56.3026596 C94.1262,57.2556596 92.2192,57.4676596 92.3252,57.0436596 C92.4312,56.6196596 92.5372,50.6866596 92.5372,50.6866596" id="Fill-25" fill="#FFA89E"></path>
                                <path d="M188.4529,62.1035596 C186.7969,65.5755596 180.3449,65.9535596 174.0429,62.9475596 C167.7399,59.9415596 163.9729,54.6895596 165.6289,51.2175596 C167.2849,47.7455596 173.7369,47.3685596 180.0399,50.3745596 C186.3419,53.3805596 190.1089,58.6315596 188.4529,62.1035596" id="Fill-27" fill="#2B2A2A"></path>
                                <path d="M168.549,52.0738596 L176.798,34.6638596 C176.798,34.6638596 171.901,14.6778596 174.719,10.7178596 C177.538,6.75685964 182.103,17.8568596 181.84,18.7568596 C181.84,18.7568596 190.108,1.83985964 195.154,1.94885964 C195.154,1.94885964 196.842,-0.309140359 198.594,0.0358596413 C201.839,0.674859641 200.541,4.97585964 200.541,4.97585964 C200.541,4.97585964 205.491,5.70585964 202.732,11.4678596 C202.732,11.4678596 207.357,16.5798596 200.216,27.2918596 C190.87,41.3108596 193.75,33.4308596 190.39,41.2748596 C185.928,51.6938596 186.284,61.2458596 186.284,61.2458596 C187.697,61.8188596 177.261,57.6718596 168.549,52.0738596" id="Fill-29" fill="#FFA89E"></path>
                                <path d="M171.0308,46.8354596 L168.5488,52.0734596 C176.1698,56.9704596 185.1108,60.7574596 186.2838,61.2454596 C186.2838,61.2444596 186.2368,59.9394596 186.3998,57.7784596 C180.8728,54.7464596 174.9688,50.1334596 171.0308,46.8354596" id="Fill-31" fill="#FF867F"></path>
                                <path d="M17.2942,118.55456 C18.1522,116.04656 24.0122,79.8275596 91.9812,79.6305596 C153.8222,79.4505596 164.3322,55.4625596 165.7242,51.1385596 C165.8302,50.8095596 166.2182,50.6685596 166.5142,50.8485596 C168.9072,52.3085596 178.1192,57.7085596 188.6382,61.0175596 C190.7832,62.4835596 161.6312,116.64756 117.0752,121.51856 L115.6912,170.12456 L16.8992,171.50756 C16.8992,171.50756 14.7252,126.06256 17.2942,118.55456" id="Fill-33" fill="#505058"></path>
                                <path d="M30.697,127.15676 C31.06,137.71576 32.714,151.66976 37.383,168.21876 C37.721,169.41676 38.836,170.23176 40.081,170.20176 L58.656,169.75176 C61.104,169.69276 62.247,166.70276 60.461,165.02776 C53.687,158.67276 42.196,145.69276 36.041,126.27076 C35.077,123.22876 30.588,123.96776 30.697,127.15676" id="Fill-35" fill="#2B2A2A"></path>
                                <path d="M116.8952,122.35886 C116.8952,122.35886 112.7542,124.99386 106.2712,119.46386 C104.2272,117.71886 101.1372,119.52086 101.6052,122.16686 C102.9122,129.56386 106.5522,139.18186 116.5992,140.43786 L116.8952,122.35886 Z" id="Fill-37" fill="#2B2A2A"></path>
                                <path d="M156.0981,76.5234596 L159.2861,74.6654596 L161.2161,77.4254596 C161.3201,77.5754596 161.5261,77.6114596 161.6751,77.5064596 C161.8241,77.4024596 161.8611,77.1964596 161.7561,77.0464596 L159.8591,74.3324596 L162.9361,72.5394596 C163.0941,72.4474596 163.1471,72.2444596 163.0551,72.0874596 C162.9631,71.9284596 162.7611,71.8764596 162.6041,71.9684596 L159.4791,73.7894596 L157.7961,71.3814596 C157.6921,71.2304596 157.4851,71.1954596 157.3361,71.3004596 C157.1861,71.4044596 157.1501,71.6104596 157.2551,71.7594596 L158.9071,74.1224596 L155.7651,75.9524596 C155.6081,76.0444596 155.5541,76.2464596 155.6461,76.4044596 C155.6831,76.4674596 155.7371,76.5134596 155.7991,76.5404596 C155.8921,76.5814596 156.0031,76.5784596 156.0981,76.5234596 M165.2331,65.1504596 L167.9771,62.6834596 L170.4271,64.9924596 C170.5601,65.1194596 170.7691,65.1124596 170.8941,64.9794596 C171.0191,64.8464596 171.0121,64.6374596 170.8801,64.5124596 L168.4701,62.2404596 L171.1181,59.8584596 C171.2541,59.7374596 171.2651,59.5284596 171.1431,59.3924596 C171.0201,59.2554596 170.8121,59.2454596 170.6771,59.3674596 L167.9871,61.7854596 L165.8491,59.7704596 C165.7171,59.6444596 165.5071,59.6514596 165.3831,59.7844596 C165.2581,59.9174596 165.2641,60.1264596 165.3971,60.2514596 L167.4951,62.2294596 L164.7911,64.6594596 C164.6561,64.7814596 164.6451,64.9904596 164.7671,65.1264596 C164.8151,65.1804596 164.8781,65.2144596 164.9441,65.2284596 C165.0441,65.2494596 165.1521,65.2244596 165.2331,65.1504596 M127.8671,100.59146 L130.6111,98.1234596 L133.0611,100.43346 C133.1941,100.55946 133.4031,100.55246 133.5271,100.41946 C133.6521,100.28646 133.6461,100.07746 133.5131,99.9524596 L131.1031,97.6804596 L133.7521,95.2994596 C133.8871,95.1774596 133.8991,94.9684596 133.7761,94.8324596 C133.6531,94.6954596 133.4451,94.6854596 133.3101,94.8084596 L130.6211,97.2264596 L128.4831,95.2114596 C128.3511,95.0844596 128.1411,95.0914596 128.0161,95.2254596 C127.8911,95.3574596 127.8981,95.5664596 128.0301,95.6914596 L130.1281,97.6694596 L127.4251,100.10046 C127.2891,100.22146 127.2781,100.43046 127.4001,100.56646 C127.4491,100.62046 127.5111,100.65446 127.5771,100.66846 C127.6771,100.68946 127.7851,100.66446 127.8671,100.59146 M115.7861,112.22946 L118.5301,109.76246 L120.9801,112.07146 C121.1131,112.19746 121.3231,112.19046 121.4471,112.05746 C121.5721,111.92546 121.5661,111.71646 121.4331,111.59146 L119.0231,109.31946 L121.6711,106.93746 C121.8071,106.81546 121.8181,106.60646 121.6961,106.47146 C121.5731,106.33446 121.3651,106.32446 121.2301,106.44646 L118.5411,108.86446 L116.4031,106.84946 C116.2701,106.72346 116.0601,106.73046 115.9361,106.86346 C115.8111,106.99546 115.8171,107.20446 115.9501,107.32946 L118.0481,109.30746 L115.3451,111.73846 C115.2091,111.86046 115.1981,112.06946 115.3201,112.20446 C115.3691,112.25946 115.4311,112.29346 115.4971,112.30746 C115.5971,112.32846 115.7051,112.30246 115.7861,112.22946 M170.8771,76.5054596 L173.6211,74.0374596 L176.0711,76.3474596 C176.2041,76.4734596 176.4131,76.4664596 176.5381,76.3334596 C176.6621,76.2014596 176.6561,75.9914596 176.5241,75.8664596 L174.1141,73.5954596 L176.7621,71.2134596 C176.8981,71.0914596 176.9091,70.8824596 176.7871,70.7464596 C176.6641,70.6094596 176.4561,70.5994596 176.3211,70.7224596 L173.6311,73.1404596 L171.4931,71.1254596 C171.3611,70.9984596 171.1511,71.0064596 171.0271,71.1394596 C170.9011,71.2714596 170.9081,71.4804596 171.0411,71.6054596 L173.1391,73.5834596 L170.4351,76.0144596 C170.3001,76.1364596 170.2891,76.3444596 170.4111,76.4804596 C170.4601,76.5344596 170.5221,76.5684596 170.5881,76.5824596 C170.6881,76.6034596 170.7961,76.5784596 170.8771,76.5054596 M157.6141,93.6604596 L160.3581,91.1934596 L162.8081,93.5024596 C162.9411,93.6294596 163.1501,93.6214596 163.2741,93.4884596 C163.3991,93.3564596 163.3931,93.1474596 163.2611,93.0224596 L160.8511,90.7504596 L163.4991,88.3684596 C163.6351,88.2464596 163.6461,88.0374596 163.5241,87.9024596 C163.4011,87.7654596 163.1931,87.7554596 163.0581,87.8774596 L160.3681,90.2954596 L158.2301,88.2804596 C158.0981,88.1544596 157.8881,88.1614596 157.7641,88.2944596 C157.6391,88.4264596 157.6451,88.6364596 157.7781,88.7614596 L159.8761,90.7384596 L157.1721,93.1694596 C157.0371,93.2914596 157.0261,93.5004596 157.1481,93.6354596 C157.1971,93.6904596 157.2591,93.7244596 157.3251,93.7384596 C157.4251,93.7594596 157.5331,93.7344596 157.6141,93.6604596 M142.8681,101.52546 L145.6121,99.0584596 L148.0621,101.36746 C148.1951,101.49346 148.4041,101.48646 148.5281,101.35346 C148.6531,101.22146 148.6471,101.01246 148.5141,100.88646 L146.1041,98.6154596 L148.7531,96.2334596 C148.8881,96.1114596 148.9001,95.9024596 148.7781,95.7674596 C148.6541,95.6304596 148.4461,95.6204596 148.3111,95.7424596 L145.6221,98.1604596 L143.4841,96.1454596 C143.3511,96.0194596 143.1421,96.0264596 143.0171,96.1594596 C142.8921,96.2914596 142.8991,96.5004596 143.0311,96.6254596 L145.1291,98.6034596 L142.4261,101.03446 C142.2911,101.15646 142.2791,101.36546 142.4011,101.50046 C142.4501,101.55446 142.5121,101.58946 142.5781,101.60246 C142.6781,101.62346 142.7861,101.59846 142.8681,101.52546 M134.9561,82.9374596 L137.7001,80.4704596 L140.1501,82.7794596 C140.2831,82.9054596 140.4921,82.8984596 140.6161,82.7654596 C140.7411,82.6334596 140.7351,82.4244596 140.6031,82.2984596 L138.1921,80.0274596 L140.8411,77.6454596 C140.9771,77.5234596 140.9881,77.3144596 140.8661,77.1794596 C140.7431,77.0424596 140.5351,77.0324596 140.3991,77.1544596 L137.7101,79.5724596 L135.5721,77.5574596 C135.4401,77.4314596 135.2301,77.4384596 135.1061,77.5714596 C134.9801,77.7034596 134.9871,77.9124596 135.1201,78.0374596 L137.2181,80.0154596 L134.5141,82.4464596 C134.3791,82.5684596 134.3671,82.7774596 134.4901,82.9124596 C134.5381,82.9664596 134.6011,83.0014596 134.6671,83.0154596 C134.7661,83.0354596 134.8751,83.0104596 134.9561,82.9374596 M115.7551,90.8724596 L117.9321,87.8934596 L120.8051,89.6484596 C120.9611,89.7444596 121.1641,89.6944596 121.2591,89.5394596 C121.3541,89.3834596 121.3051,89.1804596 121.1491,89.0854596 L118.3231,87.3584596 L120.4241,84.4824596 C120.5321,84.3354596 120.5001,84.1284596 120.3531,84.0204596 C120.2041,83.9124596 119.9981,83.9454596 119.8911,84.0924596 L117.7571,87.0124596 L115.2501,85.4804596 C115.0951,85.3844596 114.8911,85.4344596 114.7971,85.5904596 C114.7011,85.7454596 114.7511,85.9494596 114.9061,86.0444596 L117.3671,87.5474596 L115.2221,90.4824596 C115.1141,90.6304596 115.1461,90.8364596 115.2931,90.9444596 C115.3521,90.9874596 115.4201,91.0074596 115.4881,91.0074596 C115.5901,91.0074596 115.6901,90.9614596 115.7551,90.8724596 M104.5281,129.80746 L107.7161,127.94946 L109.6451,130.70846 C109.7501,130.85946 109.9561,130.89546 110.1051,130.79046 C110.2541,130.68546 110.2911,130.47946 110.1861,130.33046 L108.2891,127.61546 L111.3661,125.82246 C111.5241,125.73146 111.5771,125.52846 111.4851,125.37146 C111.3921,125.21146 111.1911,125.15946 111.0341,125.25246 L107.9091,127.07246 L106.2251,124.66546 C106.1211,124.51446 105.9141,124.47846 105.7661,124.58346 C105.6161,124.68746 105.5801,124.89346 105.6851,125.04346 L107.3371,127.40646 L104.1951,129.23646 C104.0381,129.32846 103.9841,129.53046 104.0761,129.68846 C104.1131,129.75146 104.1671,129.79746 104.2291,129.82446 C104.3221,129.86546 104.4331,129.86246 104.5281,129.80746 M108.8711,151.27746 L112.0591,149.41946 L113.9881,152.17946 C114.0931,152.32946 114.2991,152.36546 114.4481,152.26046 C114.5971,152.15646 114.6341,151.95046 114.5291,151.80046 L112.6321,149.08646 L115.7091,147.29246 C115.8671,147.20146 115.9201,146.99846 115.8281,146.84146 C115.7361,146.68246 115.5341,146.63046 115.3771,146.72246 L112.2521,148.54246 L110.5681,146.13546 C110.4641,145.98446 110.2571,145.94846 110.1091,146.05346 C109.9591,146.15746 109.9231,146.36346 110.0281,146.51346 L111.6801,148.87646 L108.5381,150.70646 C108.3811,150.79846 108.3271,151.00046 108.4191,151.15846 C108.4561,151.22146 108.5101,151.26746 108.5721,151.29446 C108.6651,151.33546 108.7761,151.33246 108.8711,151.27746 M97.8111,149.55646 L100.9991,147.69946 L102.9291,150.45846 C103.0331,150.60946 103.2401,150.64446 103.3881,150.53946 C103.5371,150.43546 103.5741,150.22946 103.4691,150.08046 L101.5721,147.36546 L104.6491,145.57246 C104.8071,145.48046 104.8611,145.27846 104.7681,145.12046 C104.6761,144.96146 104.4741,144.90946 104.3171,145.00146 L101.1921,146.82246 L99.5091,144.41446 C99.4051,144.26446 99.1981,144.22846 99.0491,144.33346 C98.8991,144.43746 98.8631,144.64346 98.9681,144.79346 L100.6201,147.15646 L97.4791,148.98646 C97.3211,149.07846 97.2671,149.28046 97.3591,149.43746 C97.3961,149.50046 97.4501,149.54646 97.5121,149.57446 C97.6051,149.61446 97.7161,149.61246 97.8111,149.55646 M102.7271,164.79446 L105.9151,162.93746 L107.8441,165.69646 C107.9491,165.84746 108.1551,165.88246 108.3041,165.77746 C108.4531,165.67346 108.4901,165.46746 108.3851,165.31846 L106.4871,162.60346 L109.5651,160.81046 C109.7221,160.71846 109.7761,160.51646 109.6841,160.35846 C109.5911,160.19946 109.3901,160.14746 109.2321,160.23946 L106.1081,162.06046 L104.4241,159.65246 C104.3201,159.50246 104.1131,159.46646 103.9641,159.57146 C103.8151,159.67546 103.7791,159.88146 103.8831,160.03146 L105.5351,162.39346 L102.3941,164.22446 C102.2371,164.31646 102.1831,164.51846 102.2751,164.67546 C102.3121,164.73846 102.3661,164.78546 102.4281,164.81246 C102.5211,164.85246 102.6321,164.85046 102.7271,164.79446 M75.7721,164.70746 L78.9611,162.84946 L80.8901,165.60846 C80.9941,165.75946 81.2011,165.79446 81.3491,165.69046 C81.4991,165.58546 81.5351,165.37946 81.4311,165.23046 L79.5331,162.51546 L82.6111,160.72246 C82.7681,160.63046 82.8221,160.42846 82.7301,160.27046 C82.6371,160.11146 82.4351,160.05946 82.2781,160.15246 L79.1531,161.97246 L77.4701,159.56446 C77.3661,159.41446 77.1591,159.37846 77.0101,159.48346 C76.8611,159.58746 76.8241,159.79346 76.9291,159.94346 L78.5811,162.30646 L75.4401,164.13646 C75.2821,164.22846 75.2291,164.43046 75.3211,164.58846 C75.3571,164.65146 75.4111,164.69746 75.4731,164.72446 C75.5671,164.76546 75.6781,164.76246 75.7721,164.70746 M81.0671,143.13046 L84.2561,141.27346 L86.1851,144.03246 C86.2891,144.18346 86.4961,144.21846 86.6451,144.11346 C86.7941,144.00946 86.8301,143.80346 86.7261,143.65446 L84.8281,140.93946 L87.9061,139.14646 C88.0631,139.05446 88.1171,138.85246 88.0251,138.69446 C87.9321,138.53546 87.7301,138.48346 87.5731,138.57546 L84.4491,140.39646 L82.7651,137.98846 C82.6611,137.83746 82.4541,137.80246 82.3051,137.90746 C82.1561,138.01146 82.1201,138.21746 82.2241,138.36646 L83.8761,140.72946 L80.7351,142.56046 C80.5771,142.65146 80.5241,142.85446 80.6161,143.01146 C80.6531,143.07446 80.7071,143.12046 80.7681,143.14746 C80.8621,143.18846 80.9731,143.18646 81.0671,143.13046 M58.5681,149.46946 L61.7561,147.61146 L63.6861,150.37046 C63.7901,150.52146 63.9971,150.55646 64.1451,150.45146 C64.2951,150.34746 64.3311,150.14146 64.2271,149.99246 L62.3291,147.27846 L65.4061,145.48446 C65.5641,145.39246 65.6181,145.19046 65.5261,145.03346 C65.4331,144.87346 65.2311,144.82146 65.0741,144.91446 L61.9491,146.73446 L60.2661,144.32646 C60.1621,144.17646 59.9551,144.14046 59.8061,144.24546 C59.6561,144.34946 59.6201,144.55546 59.7251,144.70546 L61.3771,147.06846 L58.2361,148.89846 C58.0781,148.99046 58.0241,149.19246 58.1171,149.35046 C58.1531,149.41346 58.2071,149.45946 58.2691,149.48646 C58.3631,149.52746 58.4741,149.52446 58.5681,149.46946 M50.7031,164.46146 L53.8921,162.60346 L55.8211,165.36346 C55.9251,165.51346 56.1321,165.54946 56.2811,165.44446 C56.4301,165.34046 56.4661,165.13446 56.3621,164.98446 L54.4641,162.27046 L57.5421,160.47646 C57.6991,160.38546 57.7531,160.18246 57.6611,160.02546 C57.5681,159.86546 57.3661,159.81346 57.2091,159.90646 L54.0841,161.72646 L52.4011,159.31946 C52.2971,159.16846 52.0901,159.13246 51.9411,159.23746 C51.7921,159.34146 51.7551,159.54846 51.8601,159.69746 L53.5121,162.06046 L50.3711,163.89046 C50.2131,163.98246 50.1601,164.18446 50.2521,164.34246 C50.2891,164.40546 50.3431,164.45146 50.4041,164.47846 C50.4981,164.51946 50.6091,164.51646 50.7031,164.46146 M38.4151,152.41846 L41.6031,150.56046 L43.5321,153.32046 C43.6371,153.47046 43.8431,153.50646 43.9921,153.40146 C44.1411,153.29746 44.1781,153.09146 44.0731,152.94146 L42.1751,150.22746 L45.2531,148.43346 C45.4101,148.34246 45.4641,148.13946 45.3721,147.98246 C45.2791,147.82346 45.0781,147.77146 44.9201,147.86346 L41.7961,149.68346 L40.1121,147.27646 C40.0081,147.12546 39.8011,147.08946 39.6531,147.19446 C39.5031,147.29846 39.4671,147.50546 39.5711,147.65446 L41.2231,150.01746 L38.0821,151.84746 C37.9251,151.93946 37.8711,152.14146 37.9631,152.29946 C38.0001,152.36246 38.0541,152.40846 38.1161,152.43546 C38.2091,152.47646 38.3201,152.47346 38.4151,152.41846 M23.5871,162.82846 L26.7761,160.97146 L28.7051,163.73046 C28.8091,163.88146 29.0161,163.91646 29.1641,163.81146 C29.3141,163.70746 29.3501,163.50146 29.2461,163.35246 L27.3481,160.63746 L30.4261,158.84446 C30.5831,158.75246 30.6371,158.55046 30.5451,158.39246 C30.4521,158.23346 30.2501,158.18146 30.0931,158.27346 L26.9681,160.09446 L25.2851,157.68646 C25.1811,157.53546 24.9741,157.50046 24.8251,157.60546 C24.6761,157.70946 24.6391,157.91546 24.7441,158.06446 L26.3961,160.42746 L23.2551,162.25846 C23.0971,162.34946 23.0441,162.55246 23.1361,162.70946 C23.1721,162.77246 23.2261,162.81846 23.2881,162.84546 C23.3821,162.88646 23.4931,162.88446 23.5871,162.82846 M20.2271,137.91746 L23.4161,136.06046 L25.3451,138.81946 C25.4491,138.97046 25.6561,139.00546 25.8051,138.90046 C25.9541,138.79646 25.9901,138.59046 25.8861,138.44046 L23.9881,135.72646 L27.0661,133.93346 C27.2231,133.84146 27.2771,133.63946 27.1851,133.48146 C27.0921,133.32246 26.8901,133.27046 26.7331,133.36246 L23.6081,135.18346 L21.9251,132.77546 C21.8211,132.62446 21.6141,132.58946 21.4651,132.69446 C21.3161,132.79846 21.2801,133.00446 21.3841,133.15346 L23.0361,135.51646 L19.8951,137.34746 C19.7371,137.43846 19.6841,137.64146 19.7761,137.79846 C19.8131,137.86146 19.8671,137.90746 19.9281,137.93446 C20.0221,137.97546 20.1331,137.97346 20.2271,137.91746 M39.8891,130.79046 L43.0781,128.93246 L45.0071,131.69146 C45.1111,131.84246 45.3181,131.87846 45.4661,131.77346 C45.6161,131.66946 45.6521,131.46246 45.5481,131.31346 L43.6501,128.59946 L46.7281,126.80546 C46.8851,126.71446 46.9391,126.51146 46.8471,126.35446 C46.7541,126.19446 46.5521,126.14246 46.3951,126.23546 L43.2701,128.05546 L41.5871,125.64846 C41.4831,125.49746 41.2761,125.46146 41.1271,125.56646 C40.9781,125.67046 40.9411,125.87746 41.0461,126.02646 L42.6981,128.38946 L39.5571,130.21946 C39.3991,130.31146 39.3461,130.51346 39.4381,130.67146 C39.4741,130.73446 39.5281,130.78046 39.5901,130.80746 C39.6841,130.84846 39.7951,130.84546 39.8891,130.79046 M27.1091,112.60246 L30.2971,110.74546 L32.2271,113.50446 C32.3311,113.65546 32.5381,113.69046 32.6861,113.58546 C32.8351,113.48146 32.8721,113.27546 32.7671,113.12646 L30.8701,110.41146 L33.9471,108.61846 C34.1051,108.52646 34.1591,108.32446 34.0661,108.16746 C33.9741,108.00746 33.7721,107.95546 33.6151,108.04746 L30.4901,109.86846 L28.8071,107.46046 C28.7031,107.31046 28.4961,107.27446 28.3471,107.37946 C28.1971,107.48346 28.1611,107.68946 28.2661,107.83946 L29.9181,110.20246 L26.7771,112.03246 C26.6191,112.12446 26.5651,112.32646 26.6571,112.48446 C26.6941,112.54646 26.7481,112.59346 26.8101,112.62046 C26.9031,112.66046 27.0141,112.65846 27.1091,112.60246 M61.7631,133.00246 L64.9511,131.14446 L66.8811,133.90346 C66.9851,134.05446 67.1921,134.09046 67.3401,133.98546 C67.4901,133.88046 67.5261,133.67546 67.4221,133.52546 L65.5241,130.81146 L68.6021,129.01746 C68.7591,128.92646 68.8131,128.72346 68.7211,128.56646 C68.6281,128.40646 68.4261,128.35446 68.2691,128.44746 L65.1441,130.26746 L63.4611,127.86046 C63.3571,127.70946 63.1501,127.67346 63.0011,127.77846 C62.8511,127.88246 62.8151,128.08946 62.9201,128.23846 L64.5721,130.60146 L61.4311,132.43146 C61.2731,132.52346 61.2201,132.72546 61.3121,132.88346 C61.3481,132.94646 61.4021,132.99246 61.4641,133.01946 C61.5581,133.06046 61.6691,133.05746 61.7631,133.00246 M54.6741,115.75946 L57.8631,113.90246 L59.7921,116.66146 C59.8961,116.81146 60.1031,116.84746 60.2511,116.74246 C60.4011,116.63846 60.4371,116.43246 60.3331,116.28246 L58.4351,113.56846 L61.5131,111.77546 C61.6701,111.68346 61.7241,111.48146 61.6321,111.32346 C61.5391,111.16446 61.3371,111.11246 61.1801,111.20446 L58.0551,113.02546 L56.3721,110.61746 C56.2681,110.46646 56.0611,110.43146 55.9121,110.53646 C55.7631,110.64046 55.7261,110.84646 55.8311,110.99546 L57.4831,113.35846 L54.3421,115.18846 C54.1841,115.28046 54.1311,115.48246 54.2231,115.64046 C54.2591,115.70346 54.3131,115.74946 54.3751,115.77646 C54.4691,115.81746 54.5801,115.81446 54.6741,115.75946 M82.1621,125.13746 L85.3511,123.27946 L87.2801,126.03946 C87.3841,126.18946 87.5911,126.22546 87.7401,126.12046 C87.8891,126.01646 87.9251,125.81046 87.8211,125.66046 L85.9231,122.94646 L89.0011,121.15346 C89.1581,121.06146 89.2121,120.85946 89.1201,120.70146 C89.0271,120.54246 88.8251,120.49046 88.6681,120.58246 L85.5441,122.40346 L83.8601,119.99546 C83.7561,119.84446 83.5491,119.80946 83.4001,119.91446 C83.2511,120.01846 83.2151,120.22446 83.3191,120.37346 L84.9711,122.73646 L81.8301,124.56646 C81.6721,124.65846 81.6191,124.86046 81.7111,125.01846 C81.7481,125.08146 81.8021,125.12746 81.8631,125.15446 C81.9571,125.19546 82.0681,125.19246 82.1621,125.13746 M74.1321,104.92546 L77.3201,103.06846 L79.2491,105.82746 C79.3541,105.97846 79.5601,106.01346 79.7091,105.90846 C79.8581,105.80446 79.8951,105.59846 79.7901,105.44946 L77.8931,102.73446 L80.9701,100.94146 C81.1281,100.84946 81.1811,100.64746 81.0891,100.48946 C80.9971,100.33046 80.7951,100.27846 80.6381,100.37046 L77.5131,102.19146 L75.8291,99.7834596 C75.7251,99.6324596 75.5181,99.5974596 75.3701,99.7024596 C75.2201,99.8064596 75.1841,100.01246 75.2891,100.16246 L76.9411,102.52446 L73.7991,104.35546 C73.6421,104.44746 73.5881,104.64946 73.6801,104.80646 C73.7171,104.86946 73.7711,104.91646 73.8331,104.94246 C73.9261,104.98346 74.0371,104.98146 74.1321,104.92546 M94.2941,106.38646 L97.4831,104.52846 L99.4121,107.28746 C99.5171,107.43846 99.7231,107.47346 99.8721,107.36846 C100.0211,107.26446 100.0571,107.05846 99.9531,106.90946 L98.0551,104.19446 L101.1331,102.40146 C101.2901,102.30946 101.3441,102.10746 101.2521,101.94946 C101.1591,101.79046 100.9581,101.73846 100.8001,101.83046 L97.6761,103.65146 L95.9921,101.24346 C95.8881,101.09346 95.6811,101.05746 95.5321,101.16246 C95.3831,101.26646 95.3471,101.47246 95.4511,101.62246 L97.1031,103.98546 L93.9621,105.81546 C93.8051,105.90746 93.7511,106.10946 93.8431,106.26646 C93.8801,106.33046 93.9341,106.37646 93.9961,106.40346 C94.0891,106.44446 94.2001,106.44146 94.2941,106.38646 M89.9091,90.3724596 L93.0971,88.5144596 L95.0271,91.2734596 C95.1311,91.4244596 95.3381,91.4594596 95.4861,91.3544596 C95.6361,91.2504596 95.6721,91.0444596 95.5681,90.8954596 L93.6701,88.1814596 L96.7471,86.3874596 C96.9051,86.2954596 96.9591,86.0934596 96.8671,85.9364596 C96.7741,85.7764596 96.5721,85.7244596 96.4151,85.8174596 L93.2901,87.6374596 L91.6071,85.2294596 C91.5031,85.0794596 91.2961,85.0434596 91.1471,85.1484596 C90.9971,85.2524596 90.9611,85.4584596 91.0661,85.6084596 L92.7181,87.9714596 L89.5771,89.8014596 C89.4191,89.8934596 89.3651,90.0954596 89.4581,90.2534596 C89.4941,90.3164596 89.5481,90.3624596 89.6101,90.3894596 C89.7041,90.4304596 89.8151,90.4274596 89.9091,90.3724596 M65.0031,91.9454596 L67.7471,89.4774596 L70.1971,91.7874596 C70.3301,91.9134596 70.5391,91.9064596 70.6641,91.7734596 C70.7891,91.6414596 70.7821,91.4314596 70.6501,91.3064596 L68.2401,89.0354596 L70.8881,86.6534596 C71.0241,86.5314596 71.0351,86.3224596 70.9131,86.1864596 C70.7901,86.0494596 70.5821,86.0394596 70.4471,86.1624596 L67.7571,88.5804596 L65.6191,86.5654596 C65.4871,86.4384596 65.2771,86.4464596 65.1531,86.5794596 C65.0281,86.7114596 65.0341,86.9204596 65.1671,87.0454596 L67.2651,89.0234596 L64.5611,91.4544596 C64.4261,91.5754596 64.4151,91.7844596 64.5371,91.9204596 C64.5861,91.9744596 64.6481,92.0084596 64.7141,92.0224596 C64.8141,92.0434596 64.9221,92.0184596 65.0031,91.9454596 M45.5351,100.01546 C45.4671,100.01546 45.4001,99.9954596 45.3411,99.9524596 C45.1931,99.8444596 45.1611,99.6374596 45.2691,99.4904596 L47.4141,96.5554596 L44.9541,95.0524596 C44.7981,94.9564596 44.7481,94.7534596 44.8441,94.5984596 C44.9381,94.4424596 45.1421,94.3924596 45.2981,94.4884596 L47.8051,96.0204596 L49.9381,93.1004596 C50.0461,92.9534596 50.2511,92.9194596 50.4001,93.0284596 C50.5471,93.1364596 50.5791,93.3434596 50.4721,93.4904596 L48.3701,96.3664596 L51.1961,98.0934596 C51.3521,98.1884596 51.4011,98.3914596 51.3061,98.5464596 C51.2121,98.7024596 51.0081,98.7524596 50.8521,98.6564596 L47.9791,96.9014596 L45.8021,99.8804596 C45.7381,99.9684596 45.6371,100.01546 45.5351,100.01546" id="Fill-39" fill="#FFFFFF"></path>
                            </g>
                            <g id="Group-60" transform="translate(1025.876299, 139.345450) rotate(27.000000) translate(-1025.876299, -139.345450) translate(963.839447, 43.730948)"></g>
                            <g id="Group-3" transform="translate(1049.270576, 129.416102) rotate(-360.000000) translate(-1049.270576, -129.416102) translate(946.239201, 0.000000)">
                                <path d="M206.062749,103.000577 C206.062749,159.886008 159.947551,206 103.062057,206 C46.1765626,206 0.0625185795,159.886008 0.0625185795,103.000577 C0.0625185795,46.1151469 46.1765626,-1.42108547e-14 103.062057,-1.42108547e-14 C159.947551,-1.42108547e-14 206.062749,46.1151469 206.062749,103.000577" id="Fill-1" fill="#FBE8ED"></path>
                                <g id="Group-18" transform="translate(96.632916, 145.958129) rotate(-335.000000) translate(-96.632916, -145.958129) translate(34.596064, 50.343628)">
                                    <path d="M1.69564466,126.338371 L0.923989509,144.631921 C0.923989509,144.631921 17.514007,153.591364 22.5291972,154.338371 C22.5291972,154.338371 24.3032085,142.750484 20.3301505,130.250877 L1.69564466,126.338371 Z" id="Fill-4" fill="#FFA89E"></path>
                                    <path d="M55.3157777,57.508567 C54.6155308,57.8650414 53.8577925,58.0803149 53.0770575,58.149758 C48.9986085,58.5154915 34.899386,60.3626771 24.9326545,68.9018598 C14.3795095,77.94219 2.4155224,107.661509 0.0618192131,124.418121 C-0.352119794,127.370609 1.34617997,130.206201 4.1529164,131.157571 L18.4476101,136.007012 C20.9680387,136.861162 22.649091,139.259262 22.6042476,141.936293 L22.5122612,147.37137 C22.4628185,150.311127 25.4581271,152.947648 28.3120066,153.569164 C40.9417456,156.316795 59.2298009,162.893053 89.3036196,149.811137 C91.1502475,149.009069 92.6496266,135.173695 92.6496266,135.173695 C92.6496266,130.834661 101.880466,131.027944 105.888776,132.625134 C105.957766,132.651754 106.026756,132.679531 106.094596,132.707309 C109.337118,133.99432 112.980931,132.303382 114.116963,128.987475 C119.020991,114.672944 129.988075,77.0822533 116.558054,60.3337425 C101.173321,41.1512522 76.9452406,47.4057579 73.0381163,48.5735588 C72.694317,48.6754087 72.3620159,48.81198 72.042363,48.9751713 L55.3157777,57.508567 Z" id="Fill-6" fill="#FFFFFF"></path>
                                    <path d="M27.7641015,92.6527451 C24.9486036,106.769584 21.8790327,132.492808 22.2572682,148.471462 C22.2963564,150.135113 21.6525512,153.629471 23.665592,154.313826 C32.176466,157.206782 40.8735838,158.666509 49.869611,158.909605 C61.2339215,159.216067 72.9569234,157.69643 83.3624241,152.902488 C85.2984381,152.010753 87.1896157,151.007262 88.9957191,149.873583 C90.866203,148.707645 91.9802158,146.634994 92.0032088,144.427546 C92.1032286,134.625369 92.3504037,105.999973 92.0319501,88.7263444 C92.0135557,87.7251583 90.5431507,87.671009 90.4477296,88.6687387 C89.0463038,103.415784 86.1491806,126.257574 81.452852,129.28187 C74.4445731,133.797 38.9019305,142.827261 34.3964441,133.54584 C30.6991632,125.930373 28.6884217,109.871072 29.3299276,92.8509085 C29.3667164,91.8704604 27.9560934,91.6907308 27.7641015,92.6527451" id="Fill-8" fill="#BDD5FF"></path>
                                    <path d="M80.0687507,114.659859 L56.5149087,155.720153 C56.5149087,155.720153 52.7836987,161.529605 41.0241376,162.869893 C29.2634191,164.210181 36.5661285,167.94063 40.6075012,167.616794 C40.6075012,167.616794 23.1967308,182.78867 25.3690265,185.73546 C27.5401648,188.68225 30.5110135,185.423149 30.5110135,185.423149 C30.5110135,185.423149 24.9755366,188.29042 27.5216477,190.508868 C30.0677587,192.728468 33.4089508,189.108653 33.4089508,189.108653 C33.4089508,189.108653 34.2827299,193.320822 42.4048241,188.835525 C42.4048241,188.835525 41.4430886,193.029255 47.7342975,188.160195 C54.0255065,183.289982 88.609796,158.061912 106.181434,127.357446 C106.181434,127.357446 96.6578216,107.886967 80.0687507,114.659859" id="Fill-10" fill="#FFA89E"></path>
                                    <path d="M76.1615038,121.052831 C76.1615038,121.052831 79.070279,110.990107 86.8687074,114.59706 C95.031017,118.372616 105.117348,124.430715 109.398638,129.280683 C111.132759,131.244624 113.143202,131.135322 114.096116,128.674873 C119.953466,113.533113 133.965165,70.8601417 112.740659,55.3567565 C112.740659,55.3567565 96.0294159,42.4463773 83.7745803,50.0405128 C71.5197446,57.6358111 68.7337794,112.698235 76.1615038,121.052831" id="Fill-12" fill="#FFFFFF"></path>
                                    <path d="M83.1205701,85.2411108 C85.4258604,92.7067396 88.9066206,106.205048 87.1434159,115.017165 C87.0087504,115.690409 86.4027557,116.107728 85.7979023,115.911749 C84.7981824,115.588961 83.1342649,115.368774 81.1359662,116.335985 C80.4055772,116.691052 79.5838895,116.074296 79.6261151,115.198157 L81.0332552,85.5535236 C81.0948818,84.2577598 82.7405396,84.0099046 83.1205701,85.2411108" id="Fill-14" fill="#BDD5FF"></path>
                                    <path d="M16.3738404,13.3893826 C15.7968309,13.3893826 5.2210705,11.4861881 5.79808004,24.2363092 C6.28912692,35.0890631 16.5657844,42.1261044 30.0265925,36.0365813 C43.486223,29.9458927 16.3738404,13.3893826 16.3738404,13.3893826" id="Fill-16" fill="#E0564F"></path>
                                    <path d="M46.6640838,54.8033 L50.3383709,60.4171073 C50.3383709,60.4171073 47.9315208,68.2757501 54.3932383,67.4025676 C60.853792,66.529385 72.2572337,57.5477516 74.6640838,48.4412141 C74.6640838,48.4412141 66.9360931,48.4412141 57.8138053,34.4702936 L46.6640838,54.8033 Z" id="Fill-18" fill="#FFA89E"></path>
                                    <path d="M57.9241679,34.2432984 L48.0440672,52.4403307 C47.9518698,53.6011363 47.8112688,54.6966251 47.6095871,55.6970036 L50.5218715,60.1901121 C50.5218715,60.1901121 48.1385695,68.0487549 54.537067,67.1755723 C60.9355645,66.3023898 72.226285,57.3207564 74.6095871,48.2142189 C74.6095871,48.2142189 66.9572053,48.2142189 57.9241679,34.2432984" id="Fill-20" fill="#FF867F"></path>
                                    <path d="M35.347033,11.264779 C35.347033,11.264779 24.20465,12.5958388 24.9483853,26.6668763 C25.6909834,40.7390783 30.3330744,57.8530373 42.2180556,57.8530373 C54.1018995,57.8530373 60.2303239,31.9922801 52.4313381,18.6805173 C46.3029137,8.22185743 35.347033,11.264779 35.347033,11.264779" id="Fill-22" fill="#FFA89E"></path>
                                    <path d="M45.7611652,28.0481679 C45.7611652,28.0481679 54.7682651,41.309787 45.8201494,57.0481679 L47.7283962,55.7164764 C54.6197124,51.6557392 55.691258,42.7566766 55.7611652,33.7608476 L45.7611652,28.0481679 Z" id="Fill-24" fill="#FF867F"></path>
                                    <path d="M43.9012038,38.1355714 C43.9012038,38.6876122 43.4532446,39.1355714 42.9012038,39.1355714 C42.349163,39.1355714 41.9012038,38.6876122 41.9012038,38.1355714 C41.9012038,37.5835306 42.349163,37.1355714 42.9012038,37.1355714 C43.4532446,37.1355714 43.9012038,37.5835306 43.9012038,38.1355714" id="Fill-26" fill="#1A2241"></path>
                                    <path d="M50.2177632,34.3284388 C50.2177632,34.3284388 48.9421927,23.7460105 55.037614,24.6893964 C60.0773907,25.4688646 61.2742509,33.112239 55.509876,36.4811468 C55.509876,36.4811468 57.462587,41.9718131 64.6449054,40.8484618 C64.6449054,40.8484618 63.1332039,34.9520134 65.4956716,29.5243923 C67.8581392,24.0967712 70.7877844,10.1511665 56.5180629,12.0230367 C56.5180629,12.0230367 54.4391839,11.9301882 52.360305,5.93974517 C50.2802685,-0.049551612 44.232305,-0.892065131 37.9956681,2.28999953 C37.9956681,2.28999953 33.6480794,-1.82742708 23.5361158,0.979805041 C13.4241522,3.78703716 12.0062086,6.03373988 10.588265,13.614069 C9.2606068,20.7152544 18.940821,31.8008982 29.7102474,31.0535257 C40.4831463,30.3038606 44.0748843,25.4379152 44.0748843,25.4379152 C44.0748843,25.4379152 43.6963801,31.5212067 50.2177632,34.3284388" id="Fill-28" fill="#F76559"></path>
                                    <path d="M49.6097307,54.7301957 C49.4398837,54.7301957 49.2731821,54.6378928 49.1725321,54.4684762 C49.0131696,54.1997463 49.0792211,53.8375451 49.3193134,53.6587813 C49.3843165,53.6108773 55.7766418,48.7760758 54.9661994,40.3765137 C54.9347463,40.0563745 55.1433854,39.767782 55.4317058,39.7338987 C55.7252684,39.6976785 55.9779419,39.9313567 56.0083466,40.2514958 C56.8879859,49.3719551 49.9682964,54.5818101 49.8980511,54.6332193 C49.8099823,54.6986492 49.7093323,54.7301957 49.6097307,54.7301957" id="Fill-30" fill="#E66E6E"></path>
                                    <path d="M38.6927378,49.1680313 C38.218173,49.1680313 37.7985456,49.0319858 37.4373621,48.7598947 C36.0347076,47.7015065 36.2731589,44.990972 36.3047186,44.685446 C36.3374472,44.3695436 36.6203159,44.137805 36.9452641,44.17124 C37.2667058,44.203522 37.4993126,44.4859894 37.4677529,44.8018918 C37.4058023,45.4117908 37.3976202,47.2795347 38.1492092,47.8444696 C38.2579149,47.9274804 38.5957208,48.1811247 39.4758865,47.8456225 C39.7762883,47.7314826 40.1152632,47.8790574 40.2309821,48.1765129 C40.3467011,48.4739685 40.1970847,48.8083177 39.895514,48.9224576 C39.4630288,49.0861734 39.0609346,49.1680313 38.6927378,49.1680313" id="Fill-32" fill="#E66E6E"></path>
                                    <path d="M42.9399064,30.2226866 C39.6004518,30.2226866 36.7897442,33.0726788 36.6118819,36.7111205 C36.4279699,40.4544477 39.0959038,43.6359745 42.558773,43.8059613 C44.2176107,43.884324 45.8341003,43.2634501 47.081556,42.0494306 C48.3411112,40.8233553 49.0840188,39.1451874 49.1735549,37.3235554 C49.3574669,33.5814337 46.6895331,30.3987014 43.2254539,30.2299201 C43.1298681,30.2250978 43.0342823,30.2226866 42.9399064,30.2226866 M42.8503703,45.0175696 C42.7342153,45.0175696 42.6168504,45.0151585 42.4994855,45.0103362 C38.3699354,44.8090042 35.186564,41.0596491 35.4031446,36.6520471 C35.6185152,32.2456506 39.137042,28.8302412 43.2847414,29.0255453 C47.4142915,29.2268772 50.5988728,32.9762323 50.3822923,37.3826288 L49.7773186,37.3536949 L50.3822923,37.3826288 C50.2770269,39.5092727 49.4058648,41.4719576 47.9273092,42.9114206 C46.5237703,44.2785488 44.7330483,45.0175696 42.8503703,45.0175696" id="Fill-34" fill="#FFFFFF"></path>
                                    <path d="M28.6807174,37.4870323 C27.1163699,37.4870323 25.6221943,38.1066798 24.4474214,39.2507371 C23.1879583,40.4755657 22.445105,42.1548827 22.3555755,43.9752479 C22.1728868,47.7184492 24.8406255,50.8998689 28.3032415,51.0698501 C29.9740565,51.1494157 31.5783293,50.5273571 32.8256938,49.3133785 C34.0851568,48.0873444 34.8280101,46.4092329 34.9175397,44.5876622 C35.1014382,40.8456664 32.4336995,37.6630411 28.9698737,37.4942655 C28.873085,37.4894434 28.7775061,37.4870323 28.6807174,37.4870323 M28.5948174,52.2814176 C28.478671,52.2814176 28.3613147,52.2790066 28.2439584,52.2741844 C24.1147102,52.0728592 20.9315716,48.3236302 21.1469265,43.9161765 C21.2521842,41.7908097 22.1232826,39.8269852 23.60173,38.3875706 C25.093486,36.9373061 27.0256305,36.1922825 29.0291568,36.2899312 C33.1584049,36.4912564 36.3427534,40.2404854 36.1261887,44.6467336 C36.0209309,46.773306 35.1498326,48.7371304 33.6713851,50.1753395 C32.2679488,51.5412162 30.4761479,52.2814176 28.5948174,52.2814176" id="Fill-36" fill="#FFFFFF"></path>
                                    <path d="M34.3951674,40.7584871 C34.1932386,40.7584871 33.9971458,40.6639719 33.8885945,40.4959448 C33.7275183,40.2439042 33.8243975,39.9236025 34.1033627,39.7786792 L35.9358961,38.8293261 C36.2148614,38.6833526 36.5720304,38.7705167 36.7319393,39.0215071 C36.8941827,39.2724976 36.7973036,39.5938494 36.5183383,39.7387727 L34.6858049,40.6881258 C34.5935946,40.7364336 34.4932138,40.7584871 34.3951674,40.7584871" id="Fill-38" fill="#FFFFFF"></path>
                                    <path d="M48.4173773,33.3506546 C48.3447831,33.3506546 48.271018,33.3368784 48.1995946,33.309326 C47.8998507,33.1910805 47.7534914,32.8570081 47.8740915,32.5631163 C48.1714936,31.8364228 50.873872,25.4637917 54.2260857,25.3512863 C54.5562723,25.3363621 54.82089,25.5877774 54.8314279,25.9046295 C54.8431366,26.2214816 54.5890568,26.4866731 54.2670663,26.4981532 C52.0658223,26.5716262 49.6901179,31.2096067 48.960663,32.9901779 C48.8693348,33.2140408 48.6492104,33.3506546 48.4173773,33.3506546" id="Fill-40" fill="#FFFFFF"></path>
                                    <path d="M32.3169398,44.0859758 C32.290401,44.6381868 31.8208685,45.0628075 31.2696782,45.0362687 C30.7174672,45.0087092 30.2918258,44.5401974 30.3193853,43.9879864 C30.3459241,43.4367961 30.8154566,43.0111547 31.3666469,43.0387142 C31.9188579,43.065253 32.3434786,43.5347855 32.3169398,44.0859758" id="Fill-42" fill="#1A2241"></path>
                                    <path d="M42.1370319,53.2065957 C40.8221157,53.2065957 39.8035946,52.7193498 39.7410822,52.6891664 C39.4748656,52.5576531 39.3649299,52.2364158 39.494266,51.9701553 C39.623602,51.7028168 39.9458642,51.5907071 40.2131587,51.7200645 C40.2314813,51.7276103 42.0454189,52.5824466 43.7116979,51.7858211 C44.9759575,51.1799976 45.8726872,49.7797046 46.3760199,47.6226713 C46.4439213,47.3326953 46.7284605,47.153751 47.0237778,47.2205856 C47.3126282,47.2874202 47.4936986,47.5773962 47.4257972,47.8673722 C46.8427073,50.3650465 45.7455068,52.0121964 44.1654518,52.7635469 C43.4702707,53.093408 42.7686228,53.2065957 42.1370319,53.2065957" id="Fill-44" fill="#E66E6E"></path>
                                    <path d="M58.7520138,31.4359521 C58.3600024,35.0131339 55.8263829,37.671819 53.0927103,37.3744888 C50.3601941,37.0760062 48.4625813,33.9356001 48.8545927,30.3584182 C49.2466042,26.7812364 51.7802237,24.1225513 54.5127399,24.4198815 C57.2464124,24.7183641 59.1440252,27.8587702 58.7520138,31.4359521" id="Fill-46" fill="#FF867F"></path>
                                    <path d="M53.1617326,33.2246866 C52.9492801,33.2246866 52.7569415,33.0677201 52.7041426,32.8329528 C51.748735,28.5593684 54.8575811,27.269513 54.889009,27.2558637 C55.1316322,27.1589539 55.4031691,27.2954466 55.4924243,27.5616072 C55.5829366,27.825038 55.4572251,28.1198621 55.2133447,28.2167719 C55.1027186,28.2631793 52.871339,29.2363718 53.6205797,32.5927257 C53.6821783,32.8670759 53.526296,33.142791 53.2736159,33.2096724 C53.2359024,33.2205918 53.1981889,33.2246866 53.1617326,33.2246866" id="Fill-48" fill="#E66E6E"></path>
                                    <path d="M40.6037218,36.6090676 C40.5884659,36.6090676 40.57321,36.6077619 40.5569371,36.6051505 C40.2782632,36.5738138 40.0718004,36.259141 40.0962098,35.9013803 C40.1023121,35.812593 40.2589391,33.7287021 41.6146775,32.4882908 C42.6286845,31.5586352 44.0057812,31.3653922 45.7093535,31.9124788 C45.9819251,31.9999605 46.1477056,32.3551098 46.0785456,32.7037307 C46.0104027,33.0536572 45.7327459,33.26518 45.4622084,33.179004 C44.0657876,32.732456 42.9734672,32.8564971 42.2137248,33.5432932 C41.238366,34.4272495 41.1112338,36.0006132 41.1091997,36.0162816 C41.0847903,36.3544569 40.8630716,36.6090676 40.6037218,36.6090676" id="Fill-50" fill="#1A2241"></path>
                                    <path d="M28.2503458,41.9649346 C28.1418492,41.9649346 28.032091,41.9397535 27.9311639,41.8859576 C27.6309059,41.7257144 27.5312404,41.374324 27.7066012,41.1030552 C28.4761701,39.916111 29.4286693,39.2156193 30.5376055,39.0198937 C32.0855745,38.7440465 33.3219311,39.59448 33.3736562,39.6299624 C33.649944,39.8233988 33.7016692,40.1828014 33.4897223,40.4334676 C33.2777755,40.6829891 32.8841599,40.7299174 32.6066105,40.5399148 C32.5788555,40.5216013 31.7373761,39.9676177 30.7672146,40.1461744 C30.0329702,40.2789473 29.3693747,40.7963039 28.795352,41.6822198 C28.6767626,41.8642103 28.4660774,41.9649346 28.2503458,41.9649346" id="Fill-52" fill="#1A2241"></path>
                                    <path d="M105.698792,127.565735 C105.883757,127.253678 106.076864,126.945063 106.258339,126.631859 C106.258339,126.631859 96.6843965,107.247603 80.010847,113.990102 L74.2583387,123.922009 C78.0867522,123.927746 88.3772859,115.429925 105.698792,127.565735" id="Fill-54" fill="#FF867F"></path>
                                    <path d="M87.7897609,49.7731328 C87.3465149,49.7731328 86.9102309,49.894047 86.5215204,50.1288994 C85.9552794,50.4695518 85.5572862,51.0101775 85.3971607,51.6507899 L85.3971607,51.6519526 C85.2381955,52.2937276 85.3368236,52.9587554 85.6768002,53.5249592 C86.0167769,54.0911629 86.5563303,54.4911097 87.1979927,54.6515534 C87.8361741,54.8096719 88.5010431,54.7120105 89.0661238,54.3701955 C89.6323647,54.0295432 90.0303579,53.4889174 90.1904834,52.848305 C90.3494486,52.2053673 90.2508206,51.5415022 89.9108439,50.9741358 C89.5708673,50.4079321 89.0313139,50.0079853 88.3896515,49.8475415 C88.191235,49.7987108 87.9893376,49.7731328 87.7897609,49.7731328 L87.7897609,49.7731328 Z M87.8002039,55.5979391 C87.5286867,55.5979391 87.2560092,55.5653853 86.9868126,55.4967898 C86.1212066,55.2817022 85.3913591,54.7410764 84.9318684,53.9737367 C84.4712175,53.2075595 84.3366192,52.3088419 84.5524406,51.4415155 C84.7682619,50.5730264 85.3078153,49.8417283 86.0724727,49.3813245 C86.8371301,48.919758 87.7352254,48.7848922 88.6008315,49.0023051 C89.4664376,49.2185554 90.1974454,49.7591812 90.6557757,50.5253583 C91.1164267,51.2915354 91.2510249,52.1914157 91.0352036,53.0587421 C90.8193822,53.9260686 90.2798288,54.6573666 89.5151714,55.1177705 C88.9883817,55.4351701 88.3989341,55.5979391 87.8002039,55.5979391 L87.8002039,55.5979391 Z M93.0924684,65.9291226 C92.8986933,65.9291226 92.7223232,65.7989074 92.6712687,65.6024219 C92.6109315,65.3698947 92.7501711,65.1315543 92.9822371,65.0710972 C92.9950007,65.0676093 94.2435157,64.7304449 94.6832807,63.8886964 C94.8758954,63.5213034 94.8851781,63.1108929 94.7122889,62.6318869 L94.6542724,62.4737684 C94.0520612,60.8111989 93.5322335,59.3765061 94.1182,58.4231446 C94.4071222,57.9534397 94.9350723,57.6697565 95.686966,57.5802335 C95.922513,57.5558182 96.1418153,57.7220751 96.1708236,57.9627408 C96.1986715,58.2010811 96.028103,58.4184941 95.7890751,58.4463973 C95.3086985,58.5033665 95.0035317,58.6452081 94.8596508,58.8812232 C94.4941469,59.4741675 94.9907681,60.8484033 95.472305,62.1772962 L95.5303215,62.3342521 C95.7879147,63.0481106 95.7623875,63.7084878 95.4525794,64.2979443 C94.8294823,65.4815077 93.2665179,65.8977314 93.2003791,65.915171 C93.1644089,65.924472 93.1272783,65.9291226 93.0924684,65.9291226 L93.0924684,65.9291226 Z M107.412099,63.1341457 C106.051032,63.1341457 104.941757,64.244463 104.941757,65.6093977 C104.941757,66.9743324 106.051032,68.0846497 107.412099,68.0846497 C108.774327,68.0846497 109.882442,66.9743324 109.882442,65.6093977 C109.882442,64.244463 108.774327,63.1341457 107.412099,63.1341457 L107.412099,63.1341457 Z M107.412099,68.9566267 C105.570656,68.9566267 104.07151,67.4556637 104.07151,65.6093977 C104.07151,63.7642944 105.570656,62.2621687 107.412099,62.2621687 C109.254703,62.2621687 110.752689,63.7642944 110.752689,65.6093977 C110.752689,67.4556637 109.254703,68.9566267 107.412099,68.9566267 L107.412099,68.9566267 Z M77.8550165,63.7677823 C76.4939496,63.7677823 75.3846742,64.876937 75.3846742,66.2418717 C75.3846742,67.6068063 76.4939496,68.7171237 77.8550165,68.7171237 C79.2172438,68.7171237 80.3253588,67.6068063 80.3253588,66.2418717 C80.3253588,64.876937 79.2172438,63.7677823 77.8550165,63.7677823 L77.8550165,63.7677823 Z M77.8550165,69.5891007 C76.013573,69.5891007 74.5144268,68.0881376 74.5144268,66.2418717 C74.5144268,64.3967684 76.013573,62.8958053 77.8550165,62.8958053 C79.6976204,62.8958053 81.1956062,64.3967684 81.1956062,66.2418717 C81.1956062,68.0881376 79.6976204,69.5891007 77.8550165,69.5891007 L77.8550165,69.5891007 Z M31.8166082,71.8190365 C31.3954084,71.8190365 31.0925623,71.7643926 31.0647144,71.7597421 C30.8291674,71.7143993 30.6736832,71.4876853 30.7177758,71.2516702 C30.7618683,71.0144924 30.9846516,70.8563739 31.2248399,70.9017167 C31.2387639,70.9052046 32.5116458,71.130756 33.2658602,70.5564139 C33.5953939,70.3064471 33.778726,69.9378915 33.8239788,69.4309822 L33.8390631,69.2635626 C33.9991887,67.5021691 34.1372679,65.9814412 35.0724938,65.368732 C35.5331447,65.065284 36.131875,65.0338929 36.8501191,65.2733959 C37.0775438,65.3501299 37.2016991,65.5966087 37.1251173,65.8244854 C37.0496959,66.052362 36.8025456,66.1767641 36.575121,66.1011927 C36.11447,65.9477248 35.7791347,65.9465621 35.548229,66.0988674 C34.9657434,66.4802121 34.8334658,67.9358323 34.7058295,69.3426219 L34.6907453,69.5100415 C34.6222858,70.2657549 34.3182794,70.852886 33.7880086,71.2539954 C33.1741941,71.7190498 32.3863301,71.8190365 31.8166082,71.8190365 L31.8166082,71.8190365 Z M59.8768655,74.7930594 C59.4568261,74.7930594 59.15398,74.7384155 59.1249717,74.7326023 C58.8894248,74.6884222 58.7339406,74.4617082 58.7780331,74.2245304 C58.823286,73.9885153 59.0495503,73.8303968 59.2850972,73.8757396 C59.2990212,73.8792275 60.5719031,74.1036163 61.3272778,73.5304367 C61.6556512,73.2793073 61.8389833,72.9119144 61.8853965,72.4038424 L61.9004808,72.2375855 C62.0606063,70.476192 62.1986856,68.9554641 63.1327511,68.3415923 C63.5934021,68.0393069 64.1932926,68.0079157 64.9103765,68.2474188 C65.1389615,68.3229901 65.2619564,68.5706316 65.186535,68.7985082 C65.1099532,69.0263849 64.8628029,69.1484617 64.6365386,69.0752156 C64.1758877,68.9217476 63.839392,68.9194224 63.6096467,69.0717277 C63.0271611,69.4530723 62.8948835,70.9086926 62.7672472,72.3166447 L62.7521629,72.4840643 C62.6825431,73.2397777 62.3785367,73.8269089 61.8482659,74.2280183 C61.2356118,74.6919101 60.4477478,74.7930594 59.8768655,74.7930594 L59.8768655,74.7930594 Z M115.707298,77.8310273 C115.287258,77.8310273 114.984412,77.7763834 114.955404,77.7705702 C114.719857,77.72639 114.564373,77.4985134 114.609626,77.2624983 C114.653718,77.0264832 114.879982,76.8683647 115.11669,76.9137075 C115.129453,76.9171954 116.402335,77.1415841 117.15771,76.5672419 C117.487244,76.3172752 117.669415,75.9487196 117.715829,75.4418103 L117.730913,75.276716 C117.891038,73.5153225 118.029118,71.9922693 118.963183,71.3795601 C119.423834,71.0761121 120.023725,71.044721 120.740809,71.284224 C120.969394,71.360958 121.093549,71.6074368 121.016967,71.8353134 C120.941546,72.0643527 120.694395,72.1899174 120.466971,72.1120208 C120.00748,71.9585529 119.669824,71.9585529 119.440079,72.1096955 C118.857593,72.4910401 118.725316,73.947823 118.597679,75.3557752 L118.582595,75.5220322 C118.514136,76.2777456 118.210129,76.8637141 117.679858,77.2659862 C117.066044,77.7298779 116.27818,77.8310273 115.707298,77.8310273 L115.707298,77.8310273 Z M91.6234908,79.7144976 C91.6130478,79.7144976 91.6014445,79.7144976 91.5898412,79.7133349 C91.3508133,79.6947328 91.1709622,79.4854583 91.1895274,79.2447926 C91.226658,78.7611361 91.1465952,78.4344354 90.9446978,78.2460883 C90.4329924,77.7717328 88.993023,77.9949589 87.5971462,78.2112092 L87.4323793,78.2367872 C86.6839665,78.3530508 86.0423041,78.1984202 85.5259573,77.7798713 C84.4874621,76.9381228 84.3818721,75.3220588 84.3772308,75.2534633 C84.3644671,75.0139603 84.5466389,74.8081737 84.7868272,74.7942221 C85.0212138,74.7791078 85.2312335,74.9616416 85.2463178,75.2023073 C85.2474782,75.2150963 85.3356632,76.5079475 86.0747934,77.1032171 C86.3973651,77.3636476 86.7965185,77.4520079 87.3001017,77.375274 L87.4648685,77.349696 C89.2100047,77.0788018 90.7161129,76.8451119 91.5353057,77.6066385 C91.9402609,77.9810073 92.1154707,78.5553495 92.0574542,79.3122255 C92.0400492,79.5412648 91.8485948,79.7144976 91.6234908,79.7144976 L91.6234908,79.7144976 Z M43.4918473,75.1976567 C43.0486013,75.1976567 42.6134776,75.3174082 42.2236068,75.5522607 C41.6585261,75.8929131 41.2593727,76.4335388 41.0992471,77.0764765 C40.940282,77.7170889 41.0400703,78.3821167 41.380047,78.9483205 C41.7200236,79.5156868 42.259577,79.914471 42.9000791,80.0749147 C43.5417415,80.2353585 44.2042899,80.1353718 44.7693705,79.7947195 C45.3356115,79.4540671 45.7336047,78.9134414 45.8937302,78.2716663 C46.0526954,77.6298912 45.9540673,76.9648635 45.6140907,76.3986597 C45.274114,75.8312934 44.7334003,75.4313466 44.0940585,75.2720654 C43.8933215,75.2220721 43.6914241,75.1976567 43.4918473,75.1976567 L43.4918473,75.1976567 Z M43.5034506,81.0224631 C43.2319335,81.0224631 42.9592559,80.9887466 42.6900594,80.9213137 C41.8244533,80.7050634 41.0934455,80.1644377 40.6339549,79.3982606 C40.1744642,78.6320835 40.039866,77.7322032 40.2556873,76.8648768 C40.4715087,75.9975503 41.0110621,75.2662523 41.7757195,74.8046858 C42.5392165,74.3442819 43.4373118,74.2082535 44.3040783,74.4256664 C45.1696843,74.6419167 45.8995318,75.1825425 46.3590225,75.9487196 C46.8196734,76.7148967 46.9531114,77.614777 46.73729,78.4821034 C46.522629,79.3494299 45.9830756,80.0818906 45.2184182,80.5411318 C44.6916284,80.8585314 44.1021809,81.0224631 43.5034506,81.0224631 L43.5034506,81.0224631 Z M70.7735233,82.9989443 C70.5797482,82.9989443 70.4033781,82.868729 70.3523236,82.6734062 C70.2919864,82.4397164 70.431226,82.2025386 70.663292,82.1409189 C70.6760556,82.137431 71.9245706,81.8014292 72.3654959,80.9585181 C72.5569503,80.5922878 72.566233,80.1807146 72.3933438,79.7017086 L72.3364877,79.5459154 C71.7342765,77.8833459 71.2132883,76.4474904 71.8004153,75.4941289 C72.0893374,75.0232613 72.6172875,74.7407408 73.3691812,74.6512178 C73.6000869,74.6268025 73.8240306,74.7930594 73.8530388,75.0325624 C73.8808867,75.2720654 73.7103182,75.4883157 73.4712903,75.5173816 C72.9897534,75.5743508 72.685747,75.7161924 72.5407057,75.9522075 C72.1752018,76.5451519 72.6729833,77.9193876 73.1545202,79.2482805 L73.2113764,79.4040738 C73.4701299,80.1190949 73.4434424,80.7794722 73.1336343,81.367766 C72.5105371,82.552492 70.9487331,82.9675531 70.8825943,82.9861553 C70.8454638,82.9942937 70.8094935,82.9989443 70.7735233,82.9989443 L70.7735233,82.9989443 Z M22.0640356,79.6459021 C20.7018083,79.6459021 19.5936933,80.7562194 19.5936933,82.1211541 C19.5936933,83.4860887 20.7018083,84.5964061 22.0640356,84.5964061 C23.4262628,84.5964061 24.5343779,83.4860887 24.5343779,82.1211541 C24.5343779,80.7562194 23.4262628,79.6459021 22.0640356,79.6459021 L22.0640356,79.6459021 Z M22.0640356,85.4683831 C20.2214317,85.4683831 18.7234459,83.9662574 18.7234459,82.1211541 C18.7234459,80.2748881 20.2214317,78.7739251 22.0640356,78.7739251 C23.9054791,78.7739251 25.4046253,80.2748881 25.4046253,82.1211541 C25.4046253,83.9662574 23.9054791,85.4683831 22.0640356,85.4683831 L22.0640356,85.4683831 Z M119.033963,85.915998 C117.671736,85.915998 116.563621,87.0263154 116.563621,88.39125 C116.563621,89.7561847 117.671736,90.866502 119.033963,90.866502 C120.39503,90.866502 121.504306,89.7561847 121.504306,88.39125 C121.504306,87.0263154 120.39503,85.915998 119.033963,85.915998 L119.033963,85.915998 Z M119.033963,91.738479 C117.19136,91.738479 115.693374,90.2363533 115.693374,88.39125 C115.693374,86.5461467 117.19136,85.044021 119.033963,85.044021 C120.875407,85.044021 122.374553,86.5461467 122.374553,88.39125 C122.374553,90.2363533 120.875407,91.738479 119.033963,91.738479 L119.033963,91.738479 Z M110.065774,91.8652064 C110.054171,91.8652064 110.042567,91.8640437 110.032124,91.8640437 C109.791936,91.8454415 109.613245,91.6350044 109.63181,91.3955014 C109.668941,90.9106822 109.588878,90.5839815 109.386981,90.3956345 C108.875275,89.921279 107.432985,90.1445051 106.040589,90.3607554 L105.874662,90.3863334 C105.129731,90.5037596 104.484587,90.349129 103.96708,89.9305801 C102.928585,89.0888316 102.822995,87.4716049 102.819514,87.4030094 C102.80559,87.1635064 102.988922,86.9588825 103.22795,86.9437682 C103.464657,86.925166 103.673517,87.1111878 103.688601,87.3518534 C103.688601,87.3658051 103.777946,88.6574937 104.517076,89.2539259 C104.838488,89.5131937 105.239962,89.6027167 105.742385,89.5248201 L105.908312,89.4992421 C107.652288,89.2306732 109.158396,88.9958207 109.977589,89.7561847 C110.381384,90.1317161 110.557754,90.7060583 110.499737,91.4629343 C110.481172,91.690811 110.290878,91.8652064 110.065774,91.8652064 L110.065774,91.8652064 Z M30.8245261,92.25934 C30.4044867,92.25934 30.1004803,92.2046961 30.0726324,92.1988829 C29.8370854,92.1547027 29.6816012,91.9268261 29.7256937,91.690811 C29.7697863,91.4547959 29.9983712,91.2943521 30.2327579,91.3420202 C30.2455215,91.3455081 31.5195637,91.5698968 32.2749385,90.9967173 C32.6044721,90.7455879 32.7866439,90.3770323 32.8330571,89.870123 L32.8481414,89.703866 C33.0071066,87.9424725 33.1463462,86.4217446 34.0804117,85.8078728 C34.542223,85.5055875 35.1397929,85.4730337 35.8591974,85.7125367 C36.0866221,85.7892707 36.2107774,86.0357495 36.1341956,86.2636261 C36.0587742,86.4915028 35.8116239,86.6159048 35.5841993,86.5403335 C35.1247086,86.3868656 34.788213,86.3857029 34.5573073,86.5380082 C33.9736614,86.9193528 33.8425441,88.3749731 33.7149078,89.7829253 L33.6998235,89.9491822 C33.6313641,90.7060583 33.3273577,91.2931895 32.7970869,91.6931362 C32.1832724,92.1581906 31.3954084,92.25934 30.8245261,92.25934 L30.8245261,92.25934 Z M46.1988969,92.5604627 C45.9911979,92.5604627 45.8078658,92.4104826 45.7707352,92.1988829 C45.7301237,91.9617051 45.8879285,91.7361538 46.1246358,91.6942989 C46.1373995,91.6919736 47.409121,91.4594464 47.9173455,90.6572276 C48.1389685,90.3061115 48.1819007,89.8980263 48.0484628,89.4062312 L48.0043702,89.2446248 C47.5402383,87.5390378 47.1399245,86.0648154 47.8013125,85.1637725 C48.1285255,84.7184829 48.6785219,84.4801425 49.435057,84.4522393 C49.6787262,84.4534019 49.8771426,84.6324478 49.8852649,84.8731135 C49.8945476,85.1137791 49.7065741,85.3160778 49.4663859,85.3242163 C48.981368,85.3416558 48.6657582,85.4579194 48.5021517,85.6799829 C48.0902346,86.2426987 48.4731435,87.6529762 48.844449,89.0167482 L48.8885416,89.1771919 C49.086958,89.9108153 49.0068952,90.566542 48.6495136,91.1280951 C47.9312694,92.2570147 46.3404572,92.5418605 46.273158,92.5534869 C46.2476308,92.5581374 46.2232639,92.5604627 46.1988969,92.5604627 L46.1988969,92.5604627 Z M62.3240012,88.9911702 C60.9617739,88.9911702 59.8536589,90.1014876 59.8536589,91.4664222 C59.8536589,92.8313569 60.9617739,93.9416742 62.3240012,93.9416742 C63.6850681,93.9416742 64.7931832,92.8313569 64.7931832,91.4664222 C64.7931832,90.1014876 63.6850681,88.9911702 62.3240012,88.9911702 L62.3240012,88.9911702 Z M62.3240012,94.8136512 C60.4813973,94.8136512 58.9834115,93.3115255 58.9834115,91.4664222 C58.9834115,89.6213189 60.4813973,88.1191932 62.3240012,88.1191932 C64.1654447,88.1191932 65.6634306,89.6213189 65.6634306,91.4664222 C65.6634306,93.3115255 64.1654447,94.8136512 62.3240012,94.8136512 L62.3240012,94.8136512 Z M93.2653576,91.3582971 C91.9031303,91.3582971 90.7950153,92.4686144 90.7950153,93.8335491 C90.7950153,95.1984838 91.9031303,96.3088011 93.2653576,96.3088011 C94.6275849,96.3088011 95.7356999,95.1984838 95.7356999,93.8335491 C95.7356999,92.4686144 94.6275849,91.3582971 93.2653576,91.3582971 L93.2653576,91.3582971 Z M93.2653576,97.1807781 C91.4239141,97.1807781 89.9247679,95.6798151 89.9247679,93.8335491 C89.9247679,91.9884458 91.4239141,90.4863201 93.2653576,90.4863201 C95.1068011,90.4863201 96.6059473,91.9884458 96.6059473,93.8335491 C96.6059473,95.6798151 95.1068011,97.1807781 93.2653576,97.1807781 L93.2653576,97.1807781 Z M11.1198042,101.87899 C10.6986045,101.87899 10.3969187,101.823184 10.3679105,101.818533 C10.1323635,101.77319 9.97687929,101.546476 10.0209718,101.310461 C10.0650644,101.073283 10.2913287,100.915165 10.528036,100.960508 C10.5407996,100.962833 11.8125211,101.189547 12.5690562,100.615205 C12.8985899,100.364075 13.081922,99.9966825 13.1283352,99.4886106 L13.1434195,99.3223536 C13.303545,97.5609601 13.4416243,96.0402322 14.3756898,95.4263604 C14.8375011,95.1252377 15.435071,95.0926839 16.1533152,95.3321869 C16.3819002,95.4077582 16.5048952,95.6553997 16.4294737,95.8832764 C16.3528919,96.111153 16.106902,96.2320672 15.8794774,96.1599837 C15.4188264,96.0065158 15.0834911,96.0041905 14.8525854,96.1564958 C14.2700998,96.5378404 14.1378222,97.9934607 14.0101859,99.4014129 L13.9951016,99.5688325 C13.9254818,100.324546 13.6214754,100.911677 13.0912047,101.312786 C12.4785505,101.777841 11.6906865,101.87899 11.1198042,101.87899 L11.1198042,101.87899 Z M116.970897,104.663503 C116.549697,104.663503 116.246851,104.607697 116.219003,104.603046 C115.983456,104.557704 115.827972,104.330989 115.872065,104.094974 C115.916157,103.857797 116.144742,103.700841 116.379129,103.746184 C116.391892,103.748509 117.665934,103.97406 118.420149,103.399718 C118.749683,103.148589 118.933015,102.780033 118.979428,102.273124 L118.994512,102.108029 C119.153477,100.346636 119.291557,98.8247454 120.226783,98.2120363 C120.686273,97.9085883 121.286164,97.8771971 122.004408,98.1167001 C122.232993,98.1922714 122.355988,98.4399129 122.280566,98.6677896 C122.203985,98.8956662 121.959155,99.0223935 121.73057,98.9444969 C121.269919,98.791029 120.933423,98.7887037 120.703678,98.941009 C120.120032,99.3235163 119.988915,100.779137 119.861279,102.187089 L119.846194,102.353346 C119.776575,103.109059 119.473728,103.69619 118.943458,104.0973 C118.329643,104.562354 117.540619,104.663503 116.970897,104.663503 L116.970897,104.663503 Z M69.7292264,106.181906 C69.309187,106.181906 69.0063409,106.126099 68.9773327,106.121449 C68.7417857,106.076106 68.5874618,105.849392 68.6315544,105.613377 C68.6756469,105.376199 68.9019112,105.220406 69.1386185,105.264586 C69.1513822,105.266911 70.4231037,105.492463 71.1784784,104.918121 C71.5091725,104.666991 71.6913443,104.299598 71.7377574,103.792689 L71.7528417,103.627595 C71.9118069,101.865039 72.0498862,100.343148 72.9851121,99.7292762 C73.445763,99.4293161 74.0456536,99.3955997 74.7627374,99.6351027 C74.9913224,99.7106741 75.1154777,99.9583155 75.0388959,100.186192 C74.9634745,100.414069 74.7163242,100.539634 74.4888996,100.4629 C74.0282486,100.309432 73.691753,100.307106 73.4620076,100.459412 C72.8783617,100.841919 72.7472444,102.298702 72.6196081,103.706654 L72.6045239,103.871748 C72.5349041,104.627462 72.232058,105.214593 71.7017872,105.615702 C71.0879727,106.080757 70.3001087,106.181906 69.7292264,106.181906 L69.7292264,106.181906 Z M52.4658386,100.471038 C51.1047716,100.471038 49.9966566,101.581355 49.9966566,102.94629 C49.9966566,104.311225 51.1047716,105.420379 52.4658386,105.420379 C53.8280659,105.420379 54.9361809,104.311225 54.9361809,102.94629 C54.9361809,101.581355 53.8280659,100.471038 52.4658386,100.471038 L52.4658386,100.471038 Z M52.4658386,106.292356 C50.6243951,106.292356 49.1264092,104.791393 49.1264092,102.94629 C49.1264092,101.101187 50.6243951,99.599061 52.4658386,99.599061 C54.3084424,99.599061 55.8064283,101.101187 55.8064283,102.94629 C55.8064283,104.791393 54.3084424,106.292356 52.4658386,106.292356 L52.4658386,106.292356 Z M100.971108,108.571123 C100.959505,108.571123 100.949062,108.571123 100.937459,108.56996 C100.69727,108.551358 100.51858,108.342084 100.537145,108.102581 C100.574275,107.617761 100.494213,107.291061 100.291155,107.102714 C99.7817701,106.629521 98.3406404,106.851584 96.9459239,107.067835 L96.7799968,107.093413 C96.0327443,107.208514 95.3899216,107.056208 94.8724145,106.636497 C93.8339192,105.795911 93.7294895,104.178684 93.7248482,104.110089 C93.7109243,103.870586 93.8942564,103.664799 94.1332843,103.649685 C94.3757933,103.640384 94.578851,103.818267 94.5939353,104.058933 C94.5950956,104.071722 94.6832807,105.364573 95.4224108,105.961005 C95.7438222,106.220273 96.1429757,106.308633 96.6477192,106.231899 L96.8136463,106.206321 C98.5576221,105.93659 100.06373,105.7029 100.882923,106.463264 C101.287878,106.838795 101.463088,107.411975 101.405072,108.168851 C101.387667,108.39789 101.196212,108.571123 100.971108,108.571123 L100.971108,108.571123 Z M109.812822,103.509006 C108.450595,103.509006 107.34248,104.618161 107.34248,105.983095 C107.34248,107.34803 108.450595,108.458347 109.812822,108.458347 C111.175049,108.458347 112.283164,107.34803 112.283164,105.983095 C112.283164,104.618161 111.175049,103.509006 109.812822,103.509006 L109.812822,103.509006 Z M109.812822,109.330324 C107.970218,109.330324 106.472232,107.829361 106.472232,105.983095 C106.472232,104.137992 107.970218,102.637029 109.812822,102.637029 C111.654265,102.637029 113.153412,104.137992 113.153412,105.983095 C113.153412,107.829361 111.654265,109.330324 109.812822,109.330324 L109.812822,109.330324 Z M34.9796674,104.607697 C33.8715524,104.607697 32.8620654,105.359922 32.5824259,106.484191 C32.4234607,107.125966 32.5220887,107.790994 32.8620654,108.358361 C33.202042,108.924564 33.7415954,109.324511 34.3820975,109.484955 C35.0237599,109.644236 35.6874686,109.545412 36.2513889,109.203597 C36.8176299,108.862945 37.2156231,108.322319 37.3757486,107.680544 C37.5347138,107.038769 37.4360857,106.373741 37.0961091,105.806375 C36.7549721,105.240171 36.216579,104.840224 35.5749166,104.680943 C35.3753399,104.63095 35.1757631,104.607697 34.9796674,104.607697 L34.9796674,104.607697 Z M34.9785071,110.430178 C34.7127915,110.430178 34.4424347,110.397624 34.1720778,110.330191 C33.3064717,110.115104 32.5754639,109.573315 32.1159733,108.807138 C31.6564826,108.040961 31.5218844,107.141081 31.7377057,106.273754 C32.1832724,104.483295 33.996868,103.389254 35.7860967,103.834544 C36.6517027,104.050794 37.3815502,104.59142 37.8410409,105.357597 C38.3016918,106.123774 38.4362901,107.023654 38.2204687,107.890981 C37.8422012,109.411709 36.4764929,110.429015 34.9785071,110.430178 L34.9785071,110.430178 Z M18.9613135,115.898055 C18.7675384,115.898055 18.5911683,115.766677 18.5401138,115.569029 C18.4809369,115.336502 18.6224972,115.099324 18.8545631,115.04003 C18.8673268,115.036542 20.1181624,114.707516 20.563729,113.868093 C20.7575041,113.501862 20.7702678,113.090289 20.5996993,112.611283 L20.5440034,112.454327 C19.9510749,110.78827 19.4393694,109.347764 20.0311376,108.399053 C20.3235408,107.930511 20.8526512,107.650315 21.6057053,107.565443 C21.8447332,107.546841 22.0593943,107.710772 22.0860818,107.950275 C22.1127694,108.189778 21.9410406,108.404866 21.703173,108.431607 C21.2204758,108.486251 20.915309,108.626929 20.7691074,108.860619 C20.4001225,109.452401 20.8897817,110.830125 21.3631963,112.161343 L21.4200525,112.318299 C21.6730044,113.034483 21.6428358,113.69486 21.3295468,114.281991 C20.6983273,115.462067 19.1342026,115.867826 19.0680638,115.885266 C19.0320936,115.894567 18.9972837,115.898055 18.9613135,115.898055 L18.9613135,115.898055 Z M57.3508273,117.825705 C56.9296276,117.825705 56.6267815,117.769899 56.5989336,117.765248 C56.3633866,117.721068 56.2079024,117.493192 56.251995,117.257176 C56.2960875,117.019999 56.5200312,116.860718 56.7590591,116.908386 C56.7718227,116.910711 58.0447046,117.136262 58.8000794,116.56192 C59.1307734,116.311953 59.3129452,115.943398 59.3593584,115.436489 L59.3744426,115.270232 C59.5345682,113.508838 59.6714871,111.986948 60.606713,111.374238 C61.0673639,111.073116 61.6660941,111.040562 62.3843383,111.278902 C62.6129233,111.354474 62.7359183,111.602115 62.6604968,111.829992 C62.5850754,112.057868 62.3367648,112.181108 62.1105005,112.106699 C61.6498495,111.953231 61.3133539,111.952068 61.0836085,112.103211 C60.4999626,112.485718 60.3688453,113.941339 60.2412091,115.349291 L60.2261248,115.515548 C60.156505,116.271261 59.8524986,116.858392 59.3222278,117.259502 C58.7084133,117.724556 57.9217096,117.825705 57.3508273,117.825705 L57.3508273,117.825705 Z M7.31856355,114.07853 C6.99019019,115.402772 7.79777979,116.747942 9.11939551,117.078131 C9.7598976,117.238574 10.4236063,117.138588 10.9886869,116.797935 C11.5549279,116.457283 11.9529211,115.915495 12.1130466,115.274882 C12.4414199,113.949477 11.6349907,112.604307 10.3122146,112.274119 C8.99175922,111.947418 7.64809723,112.754287 7.31856355,114.07853 L7.31856355,114.07853 Z M9.72276704,118.024516 C9.45124985,118.024516 9.17857233,117.9908 8.90821547,117.923367 C8.04260939,117.708279 7.3127619,117.166491 6.85327127,116.401476 C6.39378064,115.635299 6.25918237,114.735419 6.47500373,113.868093 L6.47500373,113.868093 C6.91941007,112.077633 8.73416599,110.981267 10.5233947,111.428882 C11.3890007,111.64397 12.1188482,112.185758 12.5783389,112.951935 C13.0378295,113.718113 13.1735881,114.617993 12.9577667,115.485319 C12.7419454,116.352646 12.202392,117.083944 11.4377346,117.54551 C10.9109448,117.861747 10.3214973,118.024516 9.72276704,118.024516 L9.72276704,118.024516 Z M38.0974738,123.48658 C37.8758508,123.48658 37.6855567,123.316835 37.665831,123.091284 C37.6426245,122.851781 37.8189946,122.639019 38.0580225,122.616928 C38.0719465,122.615766 39.357592,122.486713 39.9296346,121.728675 C40.1791056,121.397323 40.254527,120.992726 40.1617006,120.492792 L40.131532,120.330023 C39.8078,118.59072 39.5281605,117.088594 40.2603286,116.244521 C40.6223516,115.827134 41.1967149,115.632974 41.946288,115.669016 C42.1864762,115.679479 42.372129,115.884103 42.361686,116.123606 C42.3500827,116.365435 42.150506,116.565408 41.9068367,116.53983 C41.4206585,116.518903 41.0992471,116.607263 40.9170754,116.816537 C40.4599054,117.343212 40.7279416,118.78023 40.9866951,120.16958 L41.0168637,120.333511 C41.1561033,121.079924 41.0226654,121.727512 40.6211912,122.257674 C39.8136016,123.323811 38.2042241,123.479604 38.136925,123.485418 C38.1241613,123.48658 38.1102374,123.48658 38.0974738,123.48658 L38.0974738,123.48658 Z M111.773779,120.299795 C111.330533,120.299795 110.894249,120.420709 110.505539,120.655561 C109.939298,120.996214 109.540144,121.53684 109.381179,122.178615 C109.221054,122.82039 109.320842,123.485418 109.660819,124.051621 C110.000795,124.618988 110.540349,125.017772 111.180851,125.178216 C111.821353,125.336334 112.486222,125.23751 113.050142,124.896858 C113.616383,124.556205 114.014376,124.01558 114.174502,123.374967 C114.333467,122.733192 114.234839,122.068164 113.894862,121.500798 C113.554886,120.934594 113.015332,120.534647 112.37367,120.374204 C112.175254,120.325373 111.973356,120.299795 111.773779,120.299795 L111.773779,120.299795 Z M111.783062,126.124601 C111.512705,126.124601 111.240028,126.092047 110.970831,126.024615 C110.105225,125.808364 109.374217,125.267738 108.914727,124.501561 C108.455236,123.735384 108.320638,122.835504 108.536459,121.967015 C108.75228,121.099688 109.291834,120.36839 110.056491,119.907987 C110.821149,119.44642 111.720404,119.312717 112.58369,119.528967 C114.371758,119.974257 115.463628,121.794945 115.019222,123.585404 C114.803401,124.452731 114.263847,125.184029 113.49919,125.644433 C112.9724,125.961832 112.382953,126.124601 111.783062,126.124601 L111.783062,126.124601 Z M68.7812369,123.624934 C67.4190097,123.624934 66.3108946,124.735251 66.3108946,126.100186 C66.3108946,127.463958 67.4190097,128.574275 68.7812369,128.574275 C70.1423039,128.574275 71.2504189,127.463958 71.2504189,126.100186 C71.2504189,124.735251 70.1423039,123.624934 68.7812369,123.624934 L68.7812369,123.624934 Z M68.7812369,129.446252 C66.9386331,129.446252 65.4406472,127.945289 65.4406472,126.100186 C65.4406472,124.25392 66.9386331,122.752957 68.7812369,122.752957 C70.6226804,122.752957 72.1206663,124.25392 72.1206663,126.100186 C72.1206663,127.945289 70.6226804,129.446252 68.7812369,129.446252 L68.7812369,129.446252 Z M48.3687138,127.388387 C47.2605988,127.388387 46.2511118,128.141775 45.9714723,129.266044 C45.6430989,130.590286 46.4495282,131.936619 47.7711439,132.265645 C49.0915993,132.592345 50.4364216,131.786639 50.7659553,130.462396 C51.0943287,129.138154 50.2867391,127.792984 48.9651234,127.461633 C48.7655466,127.412802 48.5659699,127.388387 48.3687138,127.388387 L48.3687138,127.388387 Z M48.3675535,133.210868 C48.1018379,133.210868 47.8314811,133.179476 47.5611242,133.112044 C46.6955181,132.895793 45.9656706,132.355168 45.5050197,131.58899 C45.045529,130.822813 44.9109308,129.922933 45.1267521,129.055607 C45.5723188,127.265147 47.3859144,126.171107 49.1763034,126.616396 C50.9632114,127.062848 52.0550818,128.882374 51.6095151,130.672833 C51.2324079,132.193561 49.8655393,133.210868 48.3675535,133.210868 L48.3675535,133.210868 Z M19.1191184,127.809261 C17.7568911,127.809261 16.6487761,128.919578 16.6487761,130.284513 C16.6487761,131.649447 17.7568911,132.759765 19.1191184,132.759765 C20.4813456,132.759765 21.5894607,131.649447 21.5894607,130.284513 C21.5894607,128.919578 20.4813456,127.809261 19.1191184,127.809261 L19.1191184,127.809261 Z M19.1191184,133.631742 C17.2776748,133.631742 15.7785287,132.129616 15.7785287,130.284513 C15.7785287,128.438247 17.2776748,126.937284 19.1191184,126.937284 C20.9617222,126.937284 22.4597081,128.438247 22.4597081,130.284513 C22.4597081,132.129616 20.9617222,133.631742 19.1191184,133.631742 L19.1191184,133.631742 Z M57.5492438,140.193659 C57.3276208,140.193659 57.1373267,140.023915 57.117601,139.797201 C57.0955548,139.557698 57.2719249,139.346098 57.5109529,139.324008 C57.5237165,139.322845 58.8105223,139.193792 59.3814046,138.434591 C59.6308755,138.104403 59.7074573,137.699805 59.6146309,137.199872 L59.583302,137.03594 C59.25957,135.296637 58.9799305,133.794511 59.713259,132.950437 C60.0752819,132.534213 60.6426832,132.333077 61.3992183,132.374932 C61.6394066,132.385396 61.8250593,132.59002 61.813456,132.830686 C61.8030131,133.071351 61.5941537,133.264349 61.3597671,133.245747 C60.8805508,133.227145 60.5510171,133.315505 60.3700057,133.522454 C59.9128357,134.049128 60.1797116,135.486146 60.4396255,136.876659 L60.469794,137.039428 C60.6090336,137.78584 60.4744354,138.433428 60.0741216,138.963591 C59.266532,140.03089 57.6571544,140.185521 57.588695,140.192497 C57.5759313,140.193659 57.5631677,140.193659 57.5492438,140.193659 L57.5492438,140.193659 Z M28.2474335,146.900906 C28.0258105,146.900906 27.8355164,146.729999 27.8157908,146.504448 C27.7937445,146.264945 27.9701146,146.053345 28.2091426,146.030092 C28.2219062,146.028929 29.5075517,145.901039 30.0807547,145.141838 C30.3290653,144.81165 30.405647,144.407052 30.3128206,143.905956 L30.2814917,143.743187 C29.95892,142.003884 29.6781202,140.501758 30.4114487,139.657684 C30.7734716,139.240298 31.3420332,139.037999 32.097408,139.082179 C32.3375963,139.092643 32.5232491,139.297267 32.5116458,139.537933 C32.5000425,139.778598 32.2993054,139.975084 32.0579568,139.952994 C31.5706182,139.933229 31.2492069,140.021589 31.0681954,140.229701 C30.6110254,140.756375 30.8790616,142.193393 31.1378152,143.583906 L31.1679838,143.746675 C31.3072233,144.493087 31.1726251,145.140676 30.7711509,145.672 C29.9635614,146.738137 28.3553441,146.892768 28.2868847,146.898581 C28.2741211,146.899744 28.2613574,146.900906 28.2474335,146.900906 L28.2474335,146.900906 Z" id="Fill-56" fill="#B7C4EE"></path>
                                    <path d="M105.87661,127.437459 C105.87661,127.437459 111.282034,131.260153 113.949747,129.367651 C113.949747,129.367651 111.899797,135.557972 105.824389,132.669536 C105.824389,132.669536 104.4622,132.136164 103.296673,132.420553 C103.04779,132.481086 102.857795,132.204691 102.99668,131.984261 L105.87661,127.437459 Z" id="Fill-58" fill="#BDD5FF"></path>
                                </g>
                            </g>
                        </g>
                    </g>
                </g>
            </g>
        </g>
    </g>
</svg>