<svg width="414" height="271" viewBox="0 0 414 271" fill="none" xmlns="http://www.w3.org/2000/svg">
<path d="M386 186V223C386 234.046 377.046 243 366 243H190C178.954 243 170 234.046 170 223V135C170 123.954 161.046 115 150 115H48C36.9543 115 28 106.046 28 95V28" stroke="#391145" stroke-width="56" stroke-linecap="round"/>
<path d="M362.551 115.231C365.112 115.231 367.176 117.405 367.176 120.103L367.176 147.811C367.176 150.51 365.112 152.684 362.551 152.684C359.989 152.684 357.926 150.51 357.926 147.811L357.926 120.028C357.926 117.405 359.989 115.231 362.551 115.231Z" fill="#391145"/>
<path d="M386.035 105.572C388.597 105.572 390.661 107.746 390.661 110.445L390.661 153.206C390.661 155.905 388.597 158.079 386.035 158.079C383.474 158.079 381.41 155.905 381.41 153.206L381.41 110.37C381.41 107.746 383.474 105.572 386.035 105.572Z" fill="#391145"/>
<path d="M397.705 117.615C400.267 117.615 402.33 119.789 402.33 122.488L402.33 153.206C402.33 155.905 400.267 158.079 397.705 158.079C395.143 158.079 393.08 155.905 393.08 153.206L393.08 122.413C393.08 119.789 395.143 117.615 397.705 117.615Z" fill="#391145"/>
<path d="M409.303 128.152C411.865 128.152 413.928 130.326 413.928 133.025L413.928 153.206C413.928 155.905 411.865 158.079 409.303 158.079C406.741 158.079 404.678 155.905 404.678 153.206L404.678 132.95C404.678 130.326 406.741 128.152 409.303 128.152Z" fill="#391145"/>
<path d="M374.366 92.333C376.927 92.333 378.991 94.507 378.991 97.2058L378.991 153.206C378.991 155.905 376.927 158.079 374.366 158.079C371.804 158.079 369.741 155.905 369.741 153.206L369.741 97.2058C369.741 94.507 371.804 92.333 374.366 92.333Z" fill="#391145"/>
<path d="M413.981 145.422L357.981 145.422L357.981 185.679L413.981 185.679L413.981 145.422Z" fill="#391145"/>
</svg>
