<svg width="103" height="103" viewBox="0 0 103 103" fill="none" xmlns="http://www.w3.org/2000/svg">
<path d="M10.1991 85.0999C-1.10091 75.6999 -2.40091 61.9999 5.59909 36.8999C17.4991 -0.300098 33.2991 -4.9001 66.0991 5.5999C99.2991 16.1999 109.599 28.9999 97.7991 66.2999C86.2991 102.2 69.9991 108.5 36.7991 97.7999C24.9991 94.0999 15.9991 90.2999 10.1991 85.0999Z" fill="#917DF9"/>
<path d="M39.2996 56.1L23.8996 51.5L18.3996 59.3L11.0996 57.1L36.7996 22.5L44.1996 24.7L46.9996 67.8L39.7996 65.6L39.2996 56.1ZM27.6996 46L38.9996 49.4L38.1996 32.6L38.4996 30.4L37.4996 32.4L27.6996 46Z" fill="#C0B3F9"/>
<path d="M74.4996 69.3002C72.7996 71.0002 70.6996 72.2002 68.1996 72.9002C65.6996 73.6002 62.7996 73.5002 59.5996 72.5002C56.1996 71.5002 53.8996 70.0002 52.5996 67.9002C51.2996 65.9002 51.0996 63.6002 51.7996 61.0002C52.2996 59.3002 53.0996 57.9002 54.1996 56.8002C55.2996 55.7002 56.5996 55.0002 58.0996 54.6002C58.5996 54.4002 59.0996 54.3001 59.6996 54.2001C60.1996 54.1001 60.6996 54.1002 61.1996 54.1002C62.1996 54.0002 63.3996 54.1001 64.6996 54.2001C65.9996 54.3001 67.6996 54.5002 69.7996 54.8002C72.6996 55.3002 74.7996 55.4002 76.1996 55.3002C77.5996 55.1002 78.3996 54.4002 78.7996 53.1002C79.1996 51.8002 78.9996 50.6002 78.2996 49.6002C77.4996 48.5002 75.9996 47.7002 73.4996 46.9002C70.8996 46.1002 68.8996 46.1002 67.2996 46.8002C65.6996 47.5002 64.5996 48.9002 63.8996 50.8002L56.4996 48.6002C57.7996 45.1002 60.0996 42.7002 63.2996 41.3002C66.4996 39.9002 70.2996 39.9002 74.7996 41.2002C76.4996 41.7002 77.9996 42.3002 79.2996 42.9002C80.5996 43.5002 81.6996 44.2002 82.4996 45.0002C84.2996 46.5002 85.3996 48.2002 85.7996 50.1002C86.1996 52.0002 86.0996 54.1002 85.3996 56.3002L79.0996 77.4002L73.2996 75.7001L74.4996 69.3002ZM66.6996 68.2001C67.6996 68.2001 68.5996 68.1002 69.4996 67.9002C71.2996 67.4002 72.7996 66.6002 74.0996 65.3002C75.3996 64.1002 76.1996 62.7001 76.6996 61.2001L77.1996 59.5002C76.3996 59.8002 75.3996 59.9002 74.2996 59.9002C73.0996 59.9002 71.7996 59.8002 70.2996 59.6002C68.2996 59.3002 66.7996 59.2001 65.7996 59.2001C64.7996 59.2001 63.7996 59.3002 62.8996 59.6002C62.1996 59.8002 61.5996 60.1002 61.0996 60.6002C60.5996 61.1002 60.2996 61.6002 60.0996 62.3002C59.6996 63.6002 59.7996 64.7002 60.3996 65.6002C60.9996 66.5002 62.0996 67.2001 63.7996 67.7001C64.6996 68.0001 65.6996 68.2001 66.6996 68.2001Z" fill="#C0B3F9"/>
</svg>
