<svg width="178" height="179" viewBox="0 0 178 179" fill="none" xmlns="http://www.w3.org/2000/svg">
<path d="M22.6147 157.043C0.645953 142.806 -4.34212 118.795 4.67886 72.6848C18.0511 4.4759 45.1141 -6.786 105.183 5.11337C166.101 17.119 186.903 37.6242 173.53 105.939C160.583 171.811 132.989 186.154 72.0709 174.148C50.5267 169.898 33.8644 165.011 22.6147 157.043Z" fill="#58E9B6"/>
<path d="M137.977 104.346C137.977 104.239 137.871 104.239 137.871 104.133C134.475 99.0334 129.168 95.5274 123.119 94.3587C117.069 93.19 110.914 94.3587 105.714 97.8647L28.6638 149.712C25.4799 151.837 24.4186 156.087 26.2228 159.38C29.8312 161.505 33.8641 163.418 38.4277 165.224C41.8238 166.499 45.4322 167.774 49.2529 168.836C56.1513 170.855 63.6864 172.555 72.0706 174.254C111.445 182.01 136.916 178.717 153.472 157.68C155.064 155.662 156.656 153.431 158.141 150.987C159.627 148.65 160.901 146.1 162.174 143.337L137.977 104.346Z" fill="#33CC66"/>
<path d="M64.3226 77.6785C77.3934 77.6785 87.9894 67.071 87.9894 53.986C87.9894 40.901 77.3934 30.2935 64.3226 30.2935C51.2518 30.2935 40.6558 40.901 40.6558 53.986C40.6558 67.071 51.2518 77.6785 64.3226 77.6785Z" fill="#33CC66"/>
</svg>
