<svg xmlns="http://www.w3.org/2000/svg" width="359.22" height="359.218" viewBox="0 0 359.22 359.218"><path d="M3517.06,59.161h29.86V29.3h-29.86Zm0,33.844h29.86V63.143h-29.86Zm0,33.847h29.86V96.99h-29.86Zm0,33.844h29.86V130.834h-29.86Zm0,33.844h29.86V164.678h-29.86Zm0,33.844h29.86V198.522h-29.86Zm0,33.844h29.86V232.366h-29.86Zm0,33.844h29.86V266.21h-29.86Zm0,33.848h29.86V300.057h-29.86Zm-33.85,0h29.86V300.054h-29.86Zm-33.84,0h29.86V300.054h-29.86Zm-33.85,0h29.86V300.054h-29.86Zm-33.84,0h29.86V300.054h-29.86Zm-33.85,0h29.86V300.054h-29.86Zm-33.84,0h29.86V300.054h-29.86Zm-33.85,0h29.87V300.054h-29.87Zm-33.84,0h29.86V300.054H3246.3Zm0-33.844h29.86V266.21H3246.3Zm0-33.844h29.86V232.366H3246.3Zm0-33.844h29.86V198.522H3246.3Zm0-33.844h29.86V164.678H3246.3Zm0-33.847h29.86V130.831H3246.3Zm0-33.844h29.86V96.987H3246.3Zm0-33.844h29.86V63.143H3246.3Zm0-33.844h29.86V29.3H3246.3Zm33.84,0h29.87V29.3h-29.87Zm33.85,0h29.86V29.3h-29.86Zm33.84,0h29.87V29.3h-29.87Zm33.85,0h29.86V29.3h-29.86Zm33.84,0h29.86V29.3h-29.86Zm33.85,0h29.86V29.3h-29.86ZM3483.21,93h29.86V63.143h-29.86Zm0,33.844h29.86V96.987h-29.86Zm0,33.844h29.86V130.831h-29.86Zm0,33.847h29.86V164.678h-29.86Zm0,33.844h29.86V198.522h-29.86Zm0,33.844h29.86V232.366h-29.86Zm0,33.844h29.86V266.21h-29.86Zm-33.84,0h29.86V266.21h-29.86Zm-33.85,0h29.86V266.21h-29.86Zm-33.84,0h29.86V266.21h-29.86Zm-33.85,0h29.86V266.21h-29.86Zm-33.84,0h29.86V266.21h-29.86Zm-33.85,0h29.87V266.21h-29.87Zm0-33.844h29.87V232.366h-29.87Zm0-33.844h29.87V198.522h-29.87Zm0-33.844h29.87V164.678h-29.87Zm0-33.844h29.87V130.834h-29.87Zm0-33.844h29.87V96.99h-29.87Zm0-33.847h29.87V63.143h-29.87Zm33.85,0h29.86V63.143h-29.86Zm33.84,0h29.87V63.143h-29.87Zm33.85,0h29.86V63.143h-29.86Zm33.84,0h29.86V63.143h-29.86Zm33.85,0h29.86V63.143h-29.86Zm0,33.844h29.86V96.987h-29.86Zm0,33.844h29.86V130.831h-29.86Zm0,33.847h29.86V164.678h-29.86Zm0,33.844h29.86V198.522h-29.86Zm0,33.844h29.86V232.366h-29.86Zm-33.85,0h29.86V232.366h-29.86Zm-33.84,0h29.86V232.366h-29.86Zm-33.85,0h29.86V232.366h-29.86Zm-33.84,0h29.86V232.366h-29.86Zm0-33.844h29.86V198.522h-29.86Zm0-33.844h29.86V164.678h-29.86Zm0-33.844h29.86V130.834h-29.86Zm0-33.844h29.86V96.99h-29.86Zm33.84,0h29.87V96.99h-29.87Zm33.85,0h29.86V96.99h-29.86Zm33.84,0h29.86V96.987h-29.86Zm0,33.844h29.86V130.831h-29.86Zm0,33.847h29.86V164.678h-29.86Zm0,33.844h29.86V198.522h-29.86Zm-33.84,0h29.86V198.522h-29.86Zm-33.85,0h29.87V198.522h-29.87Zm0-33.844h29.87V164.678h-29.87Zm0-33.844h29.87V130.834h-29.87Zm33.85,33.844h29.86V164.678h-29.86Zm0-33.847h29.86V130.831h-29.86ZM3483.21,59.161h29.86V29.3h-29.86ZM3576.22,29.3V25.317H3550.9V0h-3.98V25.317h-29.86V0h-3.99V25.317h-29.86V0h-3.98V25.317h-29.86V0h-3.99V25.317h-29.86V0h-3.98V25.317h-29.86V0h-3.98V25.317h-29.87V0h-3.98V25.317h-29.86V0h-3.98V25.317h-29.87V0h-3.98V25.317H3246.3V0h-3.98V25.317H3217V29.3h25.32V59.161H3217v3.982h25.32V93H3217v3.982h25.32v29.865H3217v3.979h25.32V160.7H3217v3.982h25.32V194.54H3217v3.982h25.32v29.862H3217v3.982h25.32v29.862H3217v3.982h25.32v29.862H3217v3.982h25.32v29.865H3217V333.9h25.32v25.32h3.98V333.9h29.86v25.32h3.98V333.9h29.87v25.32h3.98V333.9h29.86v25.32h3.98V333.9h29.87v25.32h3.98V333.9h29.86v25.32h3.98V333.9h29.86v25.32h3.99V333.9h29.86v25.32h3.98V333.9h29.86v25.32h3.99V333.9h29.86v25.32h3.98V333.9h25.32v-3.979H3550.9V300.054h25.32v-3.982H3550.9V266.21h25.32v-3.982H3550.9V232.366h25.32v-3.982H3550.9V198.522h25.32V194.54H3550.9V164.678h25.32V160.7H3550.9V130.831h25.32v-3.979H3550.9V96.987h25.32V93H3550.9V63.143h25.32V59.161H3550.9V29.3Z" transform="translate(-3217)" fill="#00a5b9" fill-rule="evenodd"/></svg>