<svg xmlns="http://www.w3.org/2000/svg" width="638.837" height="489.584" viewBox="0 0 638.837 489.584"><g transform="translate(6137.661 151.724)"><path d="M931,696.054c.046,0,.088-.023.13-.023-.1-.005-.209-.009-.306-.019C930.886,696.017,930.937,696.054,931,696.054Z" transform="translate(-6670.738 -711)" fill="#00a5b9" fill-rule="evenodd"/><path d="M1046.62,728.2a5.163,5.163,0,0,0,7.23,1.081l9.12-6.747c-3.6-1.7-7.26-3.262-10.95-4.751l-4.32,3.187A5.181,5.181,0,0,0,1046.62,728.2Z" transform="translate(-6670.738 -711)" fill="#00a5b9" fill-rule="evenodd"/><path d="M1011.63,709.114a5.168,5.168,0,0,0-7.09,1.754l-14.274,23.637a5.168,5.168,0,0,0,8.849,5.341l14.265-23.632A5.181,5.181,0,0,0,1011.63,709.114Z" transform="translate(-6670.738 -711)" fill="#00a5b9" fill-rule="evenodd"/><path d="M957.61,702.9a5.165,5.165,0,1,0,8.413,6l6.9-9.675q-5.9-.668-11.842-1.188Z" transform="translate(-6670.738 -711)" fill="#00a5b9" fill-rule="evenodd"/><path d="M1080.2,733.43l-23.49,14.519a5.167,5.167,0,0,0,2.72,9.563,5.062,5.062,0,0,0,2.71-.774l23.5-14.515a5.1,5.1,0,0,0,2.23-5.6c-1.97-1.327-3.98-2.575-5.99-3.814A5.167,5.167,0,0,0,1080.2,733.43Z" transform="translate(-6670.738 -711)" fill="#00a5b9" fill-rule="evenodd"/><path d="M927.833,735.274a5.065,5.065,0,0,0,2.028.418,5.166,5.166,0,0,0,4.751-3.137l10.863-25.382a5.167,5.167,0,1,0-9.5-4.069L925.114,728.49A5.169,5.169,0,0,0,927.833,735.274Z" transform="translate(-6670.738 -711)" fill="#00a5b9" fill-rule="evenodd"/><path d="M929.411,761.271a5.143,5.143,0,0,0,3.3-1.2l21.243-17.637a5.165,5.165,0,1,0-6.6-7.944l-21.243,17.633a5.169,5.169,0,0,0,3.3,9.145Z" transform="translate(-6670.738 -711)" fill="#00a5b9" fill-rule="evenodd"/><path d="M973.126,751.387c.13,0,.265-.009.4-.018a5.164,5.164,0,0,0,4.761-5.541L976.2,718.293a5.111,5.111,0,0,0-5.541-4.76,5.165,5.165,0,0,0-4.765,5.54l2.083,27.535A5.173,5.173,0,0,0,973.126,751.387Z" transform="translate(-6670.738 -711)" fill="#00a5b9" fill-rule="evenodd"/><path d="M1024.07,715.277a5.16,5.16,0,0,0-2.48,6.876l12.92,27.447a5.167,5.167,0,1,0,9.35-4.4l-12.92-27.447A5.167,5.167,0,0,0,1024.07,715.277Z" transform="translate(-6670.738 -711)" fill="#00a5b9" fill-rule="evenodd"/><path d="M1032.98,756.739a5.172,5.172,0,0,0-1.25,7.207l19.38,27.446a5.171,5.171,0,0,0,8.45-5.962l-19.38-27.452A5.168,5.168,0,0,0,1032.98,756.739Z" transform="translate(-6670.738 -711)" fill="#00a5b9" fill-rule="evenodd"/><path d="M957.248,758.063a5.168,5.168,0,1,0-10.088-2.246l-6,26.936a5.167,5.167,0,0,0,3.921,6.167,4.946,4.946,0,0,0,1.127.125,5.166,5.166,0,0,0,5.04-4.041Z" transform="translate(-6670.738 -711)" fill="#00a5b9" fill-rule="evenodd"/><path d="M906.445,749.112a5.172,5.172,0,0,0-4.1,6.051l5.2,27.108a5.182,5.182,0,0,0,5.072,4.2,5.078,5.078,0,0,0,.979-.1,5.171,5.171,0,0,0,4.1-6.046l-5.2-27.113A5.156,5.156,0,0,0,906.445,749.112Z" transform="translate(-6670.738 -711)" fill="#00a5b9" fill-rule="evenodd"/><path d="M1005.44,740.92a5.159,5.159,0,0,0-4.22,5.958l4.61,27.22a5.179,5.179,0,0,0,5.09,4.311,5.436,5.436,0,0,0,.87-.075,5.165,5.165,0,0,0,4.23-5.962l-4.62-27.22A5.16,5.16,0,0,0,1005.44,740.92Z" transform="translate(-6670.738 -711)" fill="#00a5b9" fill-rule="evenodd"/><path d="M1046.78,1001.83a5.174,5.174,0,0,0,7.09-1.75l14.3-23.631a5.164,5.164,0,0,0-8.84-5.341l-14.3,23.628A5.167,5.167,0,0,0,1046.78,1001.83Z" transform="translate(-6670.738 -711)" fill="#00a5b9" fill-rule="evenodd"/><path d="M1058.53,955.238a5.085,5.085,0,0,0,2.46-.635,5.153,5.153,0,0,0,2.07-7l-11.34-20.812a5.17,5.17,0,0,0-9.08,4.947l11.35,20.806A5.153,5.153,0,0,0,1058.53,955.238Z" transform="translate(-6670.738 -711)" fill="#00a5b9" fill-rule="evenodd"/><path d="M1039.24,981.313a5.171,5.171,0,0,0,4.93-5.4l-1.44-31.1a5.276,5.276,0,0,0-5.4-4.923,5.158,5.158,0,0,0-4.92,5.4l1.44,31.108a5.161,5.161,0,0,0,5.15,4.933C1039.09,981.323,1039.16,981.318,1039.24,981.313Z" transform="translate(-6670.738 -711)" fill="#00a5b9" fill-rule="evenodd"/><path d="M1094.92,1048.25a4.775,4.775,0,0,0-1.49.61h4.92A5.051,5.051,0,0,0,1094.92,1048.25Z" transform="translate(-6670.738 -711)" fill="#00a5b9" fill-rule="evenodd"/><path d="M1010.11,1046.39l5.11-27.14a5.164,5.164,0,1,0-10.15-1.91l-5.112,27.14a5.052,5.052,0,0,0,1.332,4.38h7.52A5.006,5.006,0,0,0,1010.11,1046.39Z" transform="translate(-6670.738 -711)" fill="#00a5b9" fill-rule="evenodd"/><path d="M978.9,1042.8a5.168,5.168,0,0,0,6.557-7.99L964.11,1017.3a5.169,5.169,0,0,0-6.561,7.99Z" transform="translate(-6670.738 -711)" fill="#00a5b9" fill-rule="evenodd"/><path d="M1028.17,1005.87a5.17,5.17,0,0,0,6.56-7.992l-21.33-17.512a5.169,5.169,0,0,0-6.56,7.991Z" transform="translate(-6670.738 -711)" fill="#00a5b9" fill-rule="evenodd"/><path d="M1032.44,1020.93a5.166,5.166,0,1,0-9.7,3.56l8.95,24.37h10.57a5.176,5.176,0,0,0-.3-2.01Z" transform="translate(-6670.738 -711)" fill="#00a5b9" fill-rule="evenodd"/><path d="M961.507,1043.63a5.166,5.166,0,0,0-6.719-7.85l-15.294,13.08h15.9Z" transform="translate(-6670.738 -711)" fill="#00a5b9" fill-rule="evenodd"/><path d="M996.208,975.5l26.542-7.619a5.164,5.164,0,1,0-2.86-9.925l-26.536,7.614a5.166,5.166,0,1,0,2.854,9.93Z" transform="translate(-6670.738 -711)" fill="#00a5b9" fill-rule="evenodd"/><path d="M1121.2,1016.36a5.161,5.161,0,0,0,4.75,3.14,5.236,5.236,0,0,0,2.03-.42,5.181,5.181,0,0,0,2.72-6.79L1119.84,986.9a5.167,5.167,0,1,0-9.5,4.069Z" transform="translate(-6670.738 -711)" fill="#00a5b9" fill-rule="evenodd"/><path d="M1167.23,923.754a5.207,5.207,0,0,0-5.63,4.654l-3.54,37.131a5.179,5.179,0,0,0,4.66,5.633,4.549,4.549,0,0,0,.5.028,5.085,5.085,0,0,0,3.1-1.118c.73-2.274,1.5-4.552,2.12-6.8.13-.5.24-1.007.37-1.513l3.08-32.379A5.166,5.166,0,0,0,1167.23,923.754Z" transform="translate(-6670.738 -711)" fill="#00a5b9" fill-rule="evenodd"/><path d="M1078.26,1048.05a5.078,5.078,0,0,0,2.56.69,5.169,5.169,0,0,0,4.49-2.6l13.73-23.95a5.167,5.167,0,1,0-8.96-5.15L1076.34,1041A5.161,5.161,0,0,0,1078.26,1048.05Z" transform="translate(-6670.738 -711)" fill="#00a5b9" fill-rule="evenodd"/><path d="M1128.7,1032.07a5.161,5.161,0,0,0-.72,7.27,5.447,5.447,0,0,0,.48.36c4.39-5.78,8.47-11.64,12.32-17.55Z" transform="translate(-6670.738 -711)" fill="#00a5b9" fill-rule="evenodd"/><path d="M1131.54,974.8a5.165,5.165,0,0,0,.67,7.276l21.25,17.637a1.979,1.979,0,0,0,.32.181c1.63-3.174,3.18-6.343,4.62-9.512l-19.59-16.259A5.168,5.168,0,0,0,1131.54,974.8Z" transform="translate(-6670.738 -711)" fill="#00a5b9" fill-rule="evenodd"/><path d="M1096.21,964.1l-9.65,25.869a5.156,5.156,0,0,0,3.03,6.649,5.015,5.015,0,0,0,1.81.329,5.17,5.17,0,0,0,4.84-3.364l9.65-25.869a5.166,5.166,0,1,0-9.68-3.614Z" transform="translate(-6670.738 -711)" fill="#00a5b9" fill-rule="evenodd"/><path d="M1118.54,970.333a5.15,5.15,0,0,0,2.71-.775l23.49-14.514a5.168,5.168,0,1,0-5.44-8.789l-23.48,14.51a5.17,5.17,0,0,0,2.72,9.568Z" transform="translate(-6670.738 -711)" fill="#00a5b9" fill-rule="evenodd"/><path d="M1150.77,925.821l15.44-22.881a5.17,5.17,0,0,0-8.57-5.786l-15.44,22.885a5.169,5.169,0,0,0,8.57,5.782Z" transform="translate(-6670.738 -711)" fill="#00a5b9" fill-rule="evenodd"/><path d="M982.606,1014.48a5.181,5.181,0,0,0,4.909,3.56,5.066,5.066,0,0,0,1.615-.27,5.159,5.159,0,0,0,3.29-6.52l-11.1-33.694a5.167,5.167,0,0,0-9.814,3.235Z" transform="translate(-6670.738 -711)" fill="#00a5b9" fill-rule="evenodd"/><path d="M1003.34,854.138a5.179,5.179,0,0,0-7.29.6l-17.864,21.052a5.165,5.165,0,1,0,7.879,6.682l17.865-21.052A5.176,5.176,0,0,0,1003.34,854.138Z" transform="translate(-6670.738 -711)" fill="#00a5b9" fill-rule="evenodd"/><path d="M1117.89,950.2c.14.01.28.019.42.019a5.156,5.156,0,0,0,5.14-4.756l2.86-35.442a5.162,5.162,0,1,0-10.29-.831l-2.87,35.447A5.182,5.182,0,0,0,1117.89,950.2Z" transform="translate(-6670.738 -711)" fill="#00a5b9" fill-rule="evenodd"/><path d="M1033.97,923.976a5.1,5.1,0,0,0,1.99.4,5.185,5.185,0,0,0,4.77-3.192l12.38-29.772a5.165,5.165,0,1,0-9.54-3.962l-12.38,29.771A5.159,5.159,0,0,0,1033.97,923.976Z" transform="translate(-6670.738 -711)" fill="#00a5b9" fill-rule="evenodd"/><path d="M1064.95,1035.15a5.149,5.149,0,0,0-6.59,3.16l-3.72,10.55h10.96l2.5-7.12A5.164,5.164,0,0,0,1064.95,1035.15Z" transform="translate(-6670.738 -711)" fill="#00a5b9" fill-rule="evenodd"/><path d="M1122.35,1047.5l-17.26-14.17a5.169,5.169,0,0,0-6.56,7.99l9.18,7.54h13.58C1121.66,1048.41,1121.98,1047.95,1122.35,1047.5Z" transform="translate(-6670.738 -711)" fill="#00a5b9" fill-rule="evenodd"/><path d="M1015.31,942.755a5.163,5.163,0,0,0,4.5,2.612,5.088,5.088,0,0,0,2.55-.677,5.164,5.164,0,0,0,1.94-7.044l-17.15-30.156a5.164,5.164,0,0,0-8.978,5.1Z" transform="translate(-6670.738 -711)" fill="#00a5b9" fill-rule="evenodd"/><path d="M965.853,953.018l26.671,7.132a5.347,5.347,0,0,0,1.337.176,5.164,5.164,0,0,0,1.331-10.153l-26.667-7.132a5.164,5.164,0,1,0-2.672,9.977Z" transform="translate(-6670.738 -711)" fill="#00a5b9" fill-rule="evenodd"/><path d="M977,923.758a5.094,5.094,0,0,0,2.436.622,5.176,5.176,0,0,0,4.562-2.728L994.5,902.079a5.164,5.164,0,0,0-9.1-4.886l-10.51,19.573A5.162,5.162,0,0,0,977,923.758Z" transform="translate(-6670.738 -711)" fill="#00a5b9" fill-rule="evenodd"/><path d="M1115.21,812.753a5.172,5.172,0,0,0,3.28-9.165l-21.33-17.521a5.167,5.167,0,0,0-6.56,7.986l21.33,17.516A5.138,5.138,0,0,0,1115.21,812.753Z" transform="translate(-6670.738 -711)" fill="#00a5b9" fill-rule="evenodd"/><path d="M1035.44,826.483l27.69-19.289a5.169,5.169,0,1,0-5.91-8.482L1029.54,818a5.166,5.166,0,1,0,5.9,8.482Z" transform="translate(-6670.738 -711)" fill="#00a5b9" fill-rule="evenodd"/><path d="M1007.19,803.974a5.142,5.142,0,0,0,2.93.914,5.166,5.166,0,0,0,2.93-9.424L988.9,778.824a5.168,5.168,0,0,0-5.865,8.51Z" transform="translate(-6670.738 -711)" fill="#00a5b9" fill-rule="evenodd"/><path d="M1086.41,901.45a5.165,5.165,0,1,0,8.93-5.192l-13.88-23.87a5.166,5.166,0,1,0-8.93,5.2Z" transform="translate(-6670.738 -711)" fill="#00a5b9" fill-rule="evenodd"/><path d="M1085.75,826.347l-3.52,21.836a5.172,5.172,0,0,0,4.28,5.921,5.071,5.071,0,0,0,.84.074,5.175,5.175,0,0,0,5.09-4.343l3.51-21.841a5.166,5.166,0,1,0-10.2-1.647Z" transform="translate(-6670.738 -711)" fill="#00a5b9" fill-rule="evenodd"/><path d="M1110.21,828.975l25.3,11.062a5.163,5.163,0,0,0,6.81-2.664,5.171,5.171,0,0,0-2.67-6.807l-25.3-11.062a5.168,5.168,0,1,0-4.14,9.471Z" transform="translate(-6670.738 -711)" fill="#00a5b9" fill-rule="evenodd"/><path d="M1059.18,835.907a5.163,5.163,0,0,0,7.09-1.754l14.28-23.642a5.169,5.169,0,0,0-8.85-5.345l-14.27,23.642A5.18,5.18,0,0,0,1059.18,835.907Z" transform="translate(-6670.738 -711)" fill="#00a5b9" fill-rule="evenodd"/><path d="M1025.94,858.524a5.168,5.168,0,0,0-6.69,2.942l-12.33,31.651a5.168,5.168,0,0,0,2.94,6.686,5.232,5.232,0,0,0,1.87.357,5.163,5.163,0,0,0,4.82-3.3l12.33-31.655A5.172,5.172,0,0,0,1025.94,858.524Z" transform="translate(-6670.738 -711)" fill="#00a5b9" fill-rule="evenodd"/><path d="M1028.02,839.556l-19.61-19.429a5.171,5.171,0,0,0-7.28,7.346l19.62,19.428a5.167,5.167,0,1,0,7.27-7.345Z" transform="translate(-6670.738 -711)" fill="#00a5b9" fill-rule="evenodd"/><path d="M1159.3,827.326c-1.57-3.949-3.28-7.833-5.07-11.68l-3.27,5.736a5.142,5.142,0,0,0,8.34,5.944Z" transform="translate(-6670.738 -711)" fill="#00a5b9" fill-rule="evenodd"/><path d="M1165.03,843.511l-5.33-.265a5.079,5.079,0,0,0-5.41,4.905,5.152,5.152,0,0,0,4.9,5.415l8.84.441Q1166.65,848.718,1165.03,843.511Z" transform="translate(-6670.738 -711)" fill="#00a5b9" fill-rule="evenodd"/><path d="M1068.09,848.769a5.156,5.156,0,0,0-7.27-.692l-21.29,17.591a5.166,5.166,0,1,0,6.58,7.967l21.29-17.591A5.165,5.165,0,0,0,1068.09,848.769Z" transform="translate(-6670.738 -711)" fill="#00a5b9" fill-rule="evenodd"/><path d="M950.975,806.418a5.166,5.166,0,0,0-7.661-6.932l-17.521,19.373a5.167,5.167,0,0,0,7.665,6.932Z" transform="translate(-6670.738 -711)" fill="#00a5b9" fill-rule="evenodd"/><path d="M969.536,855.851l21.331-17.526a5.165,5.165,0,1,0-6.557-7.981l-21.336,17.522a5.168,5.168,0,1,0,6.562,7.985Z" transform="translate(-6670.738 -711)" fill="#00a5b9" fill-rule="evenodd"/><path d="M972.345,812.766a5.17,5.17,0,0,0,9.9-2.988l-7.972-26.449a5.17,5.17,0,0,0-9.9,2.992Z" transform="translate(-6670.738 -711)" fill="#00a5b9" fill-rule="evenodd"/><path d="M954.655,983.157a5.169,5.169,0,0,0,6.6-7.954l-21.243-17.646a5.166,5.166,0,1,0-6.6,7.948Z" transform="translate(-6670.738 -711)" fill="#00a5b9" fill-rule="evenodd"/><path d="M910.628,959.506a5.165,5.165,0,0,0,7.1-1.735l14.334-23.6a5.168,5.168,0,0,0-8.835-5.364l-14.334,23.6A5.176,5.176,0,0,0,910.628,959.506Z" transform="translate(-6670.738 -711)" fill="#00a5b9" fill-rule="evenodd"/><path d="M911.815,909.6a5.143,5.143,0,0,0,3.3-1.2l21.229-17.651a5.165,5.165,0,1,0-6.608-7.94l-21.229,17.647a5.169,5.169,0,0,0,3.308,9.141Z" transform="translate(-6670.738 -711)" fill="#00a5b9" fill-rule="evenodd"/><path d="M961.068,892.985a5.165,5.165,0,0,0,1.838-7.071l-13.916-23.7a5.167,5.167,0,0,0-8.91,5.235L954,891.148a5.159,5.159,0,0,0,7.072,1.837Z" transform="translate(-6670.738 -711)" fill="#00a5b9" fill-rule="evenodd"/><path d="M947.55,936.592a5.168,5.168,0,0,0,8.835-5.364l-17.739-29.233a5.168,5.168,0,0,0-8.835,5.364Z" transform="translate(-6670.738 -711)" fill="#00a5b9" fill-rule="evenodd"/><path d="M917.9,1009.86a5.168,5.168,0,0,0,5.071-4.21l5.109-27.129a5.165,5.165,0,1,0-10.153-1.907l-5.108,27.126a5.163,5.163,0,0,0,4.12,6.03A5.242,5.242,0,0,0,917.9,1009.86Z" transform="translate(-6670.738 -711)" fill="#00a5b9" fill-rule="evenodd"/><path d="M932.582,1023.37a5.084,5.084,0,0,0,3.141-1.07l25.874-19.88a5.164,5.164,0,1,0-6.3-8.187l-25.873,19.877a5.164,5.164,0,0,0,3.155,9.26Z" transform="translate(-6670.738 -711)" fill="#00a5b9" fill-rule="evenodd"/><path d="M1099.42,874.974l25.43-21.229a5.17,5.17,0,0,0-6.63-7.935l-25.43,21.233a5.169,5.169,0,1,0,6.63,7.931Z" transform="translate(-6670.738 -711)" fill="#00a5b9" fill-rule="evenodd"/><path d="M1147.97,880.584a5.165,5.165,0,0,0,8.93-5.193l-13.89-23.873a5.17,5.17,0,0,0-8.94,5.2Z" transform="translate(-6670.738 -711)" fill="#00a5b9" fill-rule="evenodd"/><path d="M1109.94,886.4l24.66,12.413a5.168,5.168,0,0,0,4.65-9.23l-24.67-12.412a5.165,5.165,0,0,0-4.64,9.229Z" transform="translate(-6670.738 -711)" fill="#00a5b9" fill-rule="evenodd"/><path d="M1059.61,1029.06a5.138,5.138,0,0,0,3.27-1.18l21.35-17.51a5.166,5.166,0,1,0-6.55-7.99l-21.35,17.51a5.178,5.178,0,0,0,3.28,9.17Z" transform="translate(-6670.738 -711)" fill="#00a5b9" fill-rule="evenodd"/><path d="M1132.95,821.816c.16.013.32.027.48.027a5.17,5.17,0,0,0,5.14-4.691l2.4-25.683c-1.75-2.743-3.58-5.429-5.46-8.079a5.1,5.1,0,0,0-4.59,4.552l-2.63,28.25A5.161,5.161,0,0,0,1132.95,821.816Z" transform="translate(-6670.738 -711)" fill="#00a5b9" fill-rule="evenodd"/><path d="M1110.52,917.038a5.158,5.158,0,0,0-7.3.274l-24.76,26.649a5.165,5.165,0,1,0,7.57,7.029l24.76-26.648A5.172,5.172,0,0,0,1110.52,917.038Z" transform="translate(-6670.738 -711)" fill="#00a5b9" fill-rule="evenodd"/><path d="M936.339,845.99a5.155,5.155,0,0,0,2.914-.9l22.783-15.6a5.168,5.168,0,1,0-5.837-8.529l-22.784,15.6a5.169,5.169,0,0,0,2.924,9.434Z" transform="translate(-6670.738 -711)" fill="#00a5b9" fill-rule="evenodd"/><path d="M1069.67,930.03a5.165,5.165,0,0,0,5.03,4.037,5.275,5.275,0,0,0,1.14-.13,5.159,5.159,0,0,0,3.91-6.171l-7.33-32.574a5.166,5.166,0,1,0-10.08,2.269Z" transform="translate(-6670.738 -711)" fill="#00a5b9" fill-rule="evenodd"/><path d="M1027.04,812.929a4.249,4.249,0,0,0,.54.032,5.169,5.169,0,0,0,5.14-4.63l2.89-27.456a5.168,5.168,0,0,0-10.28-1.082l-2.89,27.456A5.165,5.165,0,0,0,1027.04,812.929Z" transform="translate(-6670.738 -711)" fill="#00a5b9" fill-rule="evenodd"/><path d="M909.041,799.488a5.168,5.168,0,0,0-4.111,6.046l6.464,33.906a5.157,5.157,0,0,0,5.067,4.2,5.056,5.056,0,0,0,.974-.1,5.159,5.159,0,0,0,4.1-6.046l-6.454-33.906A5.142,5.142,0,0,0,909.041,799.488Z" transform="translate(-6670.738 -711)" fill="#00a5b9" fill-rule="evenodd"/><path d="M913.446,1025.1a5.173,5.173,0,0,0-.714-7.28l-15.619-12.81-5.726-4.7a5.168,5.168,0,0,0-6.557,7.99l12.283,10.08,9.062,7.43a5.154,5.154,0,0,0,7.271-.71Z" transform="translate(-6670.738 -711)" fill="#00a5b9" fill-rule="evenodd"/><path d="M903.219,973.536a5.165,5.165,0,1,0-2.849-9.93l-3.253.937-23.289,6.673a5.167,5.167,0,1,0,2.845,9.935l20.444-5.866Z" transform="translate(-6670.738 -711)" fill="#00a5b9" fill-rule="evenodd"/><path d="M907.951,927.923l-13.888-23.869a5.167,5.167,0,1,0-8.932,5.2l13.888,23.865a5.166,5.166,0,1,0,8.932-5.193Z" transform="translate(-6670.738 -711)" fill="#00a5b9" fill-rule="evenodd"/><path d="M919.772,1044.39a5.192,5.192,0,0,0-6.148-3.94l-26.988,5.89a5.05,5.05,0,0,0-3.345,2.52h35.237A5.072,5.072,0,0,0,919.772,1044.39Z" transform="translate(-6670.738 -711)" fill="#00a5b9" fill-rule="evenodd"/><path d="M906.175,889.319c.13.01.264.014.394.014a5.17,5.17,0,0,0,.39-10.324l-27.54-2.1a5.171,5.171,0,0,0-.788,10.311Z" transform="translate(-6670.738 -711)" fill="#00a5b9" fill-rule="evenodd"/><path d="M1074.47,793.272a5.335,5.335,0,0,0,1.6.255,5.171,5.171,0,0,0,4.91-3.573l11.56-35.465a5.168,5.168,0,1,0-9.83-3.2l-11.55,35.47A5.168,5.168,0,0,0,1074.47,793.272Z" transform="translate(-6670.738 -711)" fill="#00a5b9" fill-rule="evenodd"/><path d="M972.984,775.821a5.112,5.112,0,0,0,3.021-.984L997,759.664a5.166,5.166,0,1,0-6.055-8.371l-20.988,15.169a5.171,5.171,0,0,0,3.03,9.359Z" transform="translate(-6670.738 -711)" fill="#00a5b9" fill-rule="evenodd"/><path d="M1116.69,793.581c.01,0,.03-.005.04-.005a5.166,5.166,0,0,0,5.13-5.211l-.18-21.141a5.015,5.015,0,0,0-.33-1.545c-.96-1.072-1.93-2.148-2.92-3.192a5.061,5.061,0,0,0-1.92-.385c-.01,0-.02,0-.04,0a5.151,5.151,0,0,0-5.12,5.211l.18,21.141A5.163,5.163,0,0,0,1116.69,793.581Z" transform="translate(-6670.738 -711)" fill="#00a5b9" fill-rule="evenodd"/><path d="M729.054,713.581a5.068,5.068,0,0,0,.979-.1,5.166,5.166,0,0,0,4.1-6.046l-5.2-27.127a5.167,5.167,0,1,0-10.148,1.949l5.192,27.127A5.182,5.182,0,0,0,729.054,713.581Z" transform="translate(-6670.738 -711)" fill="#00a5b9" fill-rule="evenodd"/><path d="M632.052,678.481a4.879,4.879,0,0,0,.961.093,5.177,5.177,0,0,0,5.076-4.218l5.1-27.136a5.165,5.165,0,1,0-10.152-1.907l-5.109,27.136A5.166,5.166,0,0,0,632.052,678.481Z" transform="translate(-6670.738 -711)" fill="#00a5b9" fill-rule="evenodd"/><path d="M584.813,645.981a5.169,5.169,0,0,0,.715,7.272l21.345,17.516a5.169,5.169,0,0,0,6.561-7.99l-21.35-17.517A5.161,5.161,0,0,0,584.813,645.981Z" transform="translate(-6670.738 -711)" fill="#00a5b9" fill-rule="evenodd"/><path d="M650.713,652.448l9.513,25.925a5.167,5.167,0,1,0,9.7-3.56l-9.512-25.92a5.423,5.423,0,0,0-.455-.737c-1.707-.817-3.392-1.662-5.09-2.5a5.078,5.078,0,0,0-1.086.167A5.166,5.166,0,0,0,650.713,652.448Z" transform="translate(-6670.738 -711)" fill="#00a5b9" fill-rule="evenodd"/><path d="M555.047,694.242a5.162,5.162,0,0,0,3.93,1.814,5.108,5.108,0,0,0,3.355-1.248l27.15-23.21a5.165,5.165,0,1,0-6.719-7.847l-27.145,23.21A5.161,5.161,0,0,0,555.047,694.242Z" transform="translate(-6670.738 -711)" fill="#00a5b9" fill-rule="evenodd"/><path d="M674.594,728.2a5.176,5.176,0,0,0,4.162,2.1,5.118,5.118,0,0,0,3.067-1.016l22.217-16.417a5.168,5.168,0,0,0-6.148-8.31L675.68,720.966A5.171,5.171,0,0,0,674.594,728.2Z" transform="translate(-6670.738 -711)" fill="#00a5b9" fill-rule="evenodd"/><path d="M632.511,710.868l-14.268,23.637A5.165,5.165,0,0,0,620,741.6a5.171,5.171,0,0,0,7.094-1.754l14.264-23.633a5.167,5.167,0,1,0-8.844-5.345Z" transform="translate(-6670.738 -711)" fill="#00a5b9" fill-rule="evenodd"/><path d="M706.229,676.02a5.169,5.169,0,0,0,7.057-1.907l2.116-3.693c-3.336-1.091-6.649-2.242-9.958-3.416l-1.127,1.963A5.168,5.168,0,0,0,706.229,676.02Z" transform="translate(-6670.738 -711)" fill="#00a5b9" fill-rule="evenodd"/><path d="M795.775,755.09a5.167,5.167,0,0,0,3.257-9.183L777.59,728.52a5.17,5.17,0,0,0-6.511,8.032l21.447,17.387A5.144,5.144,0,0,0,795.775,755.09Z" transform="translate(-6670.738 -711)" fill="#00a5b9" fill-rule="evenodd"/><path d="M586.794,710.1A5.169,5.169,0,0,0,594,708.89L610.022,686.4a5.167,5.167,0,1,0-8.421-5.99L585.583,702.9A5.174,5.174,0,0,0,586.794,710.1Z" transform="translate(-6670.738 -711)" fill="#00a5b9" fill-rule="evenodd"/><path d="M615.487,646a5.169,5.169,0,0,0,4.909-6.789l-5.141-15.586q-6.981-4.323-13.8-8.886l9.127,27.711A5.176,5.176,0,0,0,615.487,646Z" transform="translate(-6670.738 -711)" fill="#00a5b9" fill-rule="evenodd"/><path d="M682.031,699.194a5.173,5.173,0,0,0,4.877-3.448l9.169-26.036a5.17,5.17,0,0,0-9.749-3.443l-9.174,26.041a5.179,5.179,0,0,0,3.165,6.594A5.292,5.292,0,0,0,682.031,699.194Z" transform="translate(-6670.738 -711)" fill="#00a5b9" fill-rule="evenodd"/><path d="M751.121,687.983a5.181,5.181,0,0,0,4-1.893,5.065,5.065,0,0,0,.961-4.4q-10.511-2.394-20.909-5.276l12.677,10.4A5.141,5.141,0,0,0,751.121,687.983Z" transform="translate(-6670.738 -711)" fill="#00a5b9" fill-rule="evenodd"/><path d="M687.41,757.514a5.141,5.141,0,0,0,2.714-.775l23.484-14.519a5.165,5.165,0,1,0-5.429-8.788l-23.488,14.514a5.17,5.17,0,0,0,2.719,9.568Z" transform="translate(-6670.738 -711)" fill="#00a5b9" fill-rule="evenodd"/><path d="M856.8,694.559a5.172,5.172,0,0,0-1.276-1.03c-1.657-.061-3.309-.126-4.965-.2a4.864,4.864,0,0,0-1.035.557l-21.243,17.642a5.166,5.166,0,1,0,6.6,7.949l21.243-17.642A5.162,5.162,0,0,0,856.8,694.559Z" transform="translate(-6670.738 -711)" fill="#00a5b9" fill-rule="evenodd"/><path d="M883.393,694.432c-2.8-.078-5.586-.157-8.384-.241-.1.139-.242.218-.33.362L860.411,718.2a5.165,5.165,0,0,0,1.754,7.095,5.076,5.076,0,0,0,2.663.751,5.181,5.181,0,0,0,4.427-2.5L883.523,699.9A5.137,5.137,0,0,0,883.393,694.432Z" transform="translate(-6670.738 -711)" fill="#00a5b9" fill-rule="evenodd"/><path d="M807.41,722.571a5.169,5.169,0,0,0,5.067,4.163,5.39,5.39,0,0,0,1.007-.1,5.174,5.174,0,0,0,4.07-6.074l-5.921-29.85c-2.325-.223-4.65-.45-6.96-.71-1.267-.139-2.529-.353-3.8-.5a.944.944,0,0,1,0,.106Z" transform="translate(-6670.738 -711)" fill="#00a5b9" fill-rule="evenodd"/><path d="M555.8,735.274a5.116,5.116,0,0,0,2.028.417,5.169,5.169,0,0,0,4.756-3.136l10.863-25.382a5.167,5.167,0,0,0-9.5-4.07L553.088,728.49A5.172,5.172,0,0,0,555.8,735.274Z" transform="translate(-6670.738 -711)" fill="#00a5b9" fill-rule="evenodd"/><path d="M553.405,759.4a5.168,5.168,0,0,0,7.276.673l21.242-17.638a5.165,5.165,0,1,0-6.6-7.948l-21.243,17.637A5.166,5.166,0,0,0,553.405,759.4Z" transform="translate(-6670.738 -711)" fill="#00a5b9" fill-rule="evenodd"/><path d="M561.385,593.476l21.243,17.646a5.154,5.154,0,0,0,7.276-.672,4.992,4.992,0,0,0,1.076-2.831Q576,597.011,561.859,585.277a5.4,5.4,0,0,0-1.151.923A5.173,5.173,0,0,0,561.385,593.476Z" transform="translate(-6670.738 -711)" fill="#00a5b9" fill-rule="evenodd"/><path d="M538.606,587.472a5.157,5.157,0,0,0,7.1-1.731l5.749-9.471q-3.947-3.48-7.819-7.039l-6.765,11.146A5.166,5.166,0,0,0,538.606,587.472Z" transform="translate(-6670.738 -711)" fill="#00a5b9" fill-rule="evenodd"/><path d="M544.908,637.739a4.84,4.84,0,0,0,.96.093,5.175,5.175,0,0,0,5.072-4.218l5.109-27.122A5.166,5.166,0,1,0,545.9,604.58l-5.109,27.127A5.167,5.167,0,0,0,544.908,637.739Z" transform="translate(-6670.738 -711)" fill="#00a5b9" fill-rule="evenodd"/><path d="M556.45,649.316a5.151,5.151,0,0,0,7.248.951l25.874-19.874a5.167,5.167,0,1,0-6.3-8.194L557.4,642.073A5.167,5.167,0,0,0,556.45,649.316Z" transform="translate(-6670.738 -711)" fill="#00a5b9" fill-rule="evenodd"/><path d="M598.633,713.532a5.169,5.169,0,0,0-4.761,5.541l2.083,27.535a5.17,5.17,0,0,0,5.146,4.779c.13,0,.26-.009.395-.019a5.177,5.177,0,0,0,4.765-5.54l-2.088-27.535A5.116,5.116,0,0,0,598.633,713.532Z" transform="translate(-6670.738 -711)" fill="#00a5b9" fill-rule="evenodd"/><path d="M660.343,683.162a5.17,5.17,0,0,0-6.714-2.891l-25.647,10.2a5.17,5.17,0,0,0,1.912,9.972,5.239,5.239,0,0,0,1.912-.371l25.642-10.2A5.164,5.164,0,0,0,660.343,683.162Z" transform="translate(-6670.738 -711)" fill="#00a5b9" fill-rule="evenodd"/><path d="M662.487,749.6a5.167,5.167,0,0,0,9.35-4.4l-12.923-27.447a5.165,5.165,0,1,0-9.345,4.4Z" transform="translate(-6670.738 -711)" fill="#00a5b9" fill-rule="evenodd"/><path d="M785.134,716.826a5.168,5.168,0,0,0,1.773-10.023l-25.934-9.471a5.17,5.17,0,0,0-3.55,9.712l25.934,9.471A5.208,5.208,0,0,0,785.134,716.826Z" transform="translate(-6670.738 -711)" fill="#00a5b9" fill-rule="evenodd"/><path d="M777.172,690.747a5.166,5.166,0,1,0,10.018,2.529l1.369-5.424c-3.42-.511-6.826-1.1-10.232-1.7Z" transform="translate(-6670.738 -711)" fill="#00a5b9" fill-rule="evenodd"/><path d="M763.637,715.883a5.157,5.157,0,0,0-6.436-3.462l-26.44,7.954a5.168,5.168,0,0,0,2.979,9.9l26.44-7.949A5.172,5.172,0,0,0,763.637,715.883Z" transform="translate(-6670.738 -711)" fill="#00a5b9" fill-rule="evenodd"/><path d="M853.8,755.421a5.166,5.166,0,1,0,9.5-4.065L852.44,725.97a5.169,5.169,0,0,0-9.5,4.069Z" transform="translate(-6670.738 -711)" fill="#00a5b9" fill-rule="evenodd"/><path d="M887.922,694.554a5.09,5.09,0,0,0,1.782,4.389l21.336,17.526a5.171,5.171,0,0,0,6.561-7.995l-16.51-13.554Q894.513,694.732,887.922,694.554Z" transform="translate(-6670.738 -711)" fill="#00a5b9" fill-rule="evenodd"/><path d="M884.921,752.443a5.165,5.165,0,0,0,3.3-1.192l21.243-17.642a5.168,5.168,0,1,0-6.608-7.949L881.617,743.3a5.169,5.169,0,0,0,3.3,9.146Z" transform="translate(-6670.738 -711)" fill="#00a5b9" fill-rule="evenodd"/><path d="M831.707,693.711a5.152,5.152,0,0,0,7.309.051,4.955,4.955,0,0,0,.654-.969q-4.727-.258-9.429-.571Z" transform="translate(-6670.738 -711)" fill="#00a5b9" fill-rule="evenodd"/><path d="M752.7,742.479l-19.559-6.274a5.168,5.168,0,0,0-3.155,9.842l19.554,6.273a5.168,5.168,0,0,0,3.16-9.841Z" transform="translate(-6670.738 -711)" fill="#00a5b9" fill-rule="evenodd"/><path d="M828.764,734.78l-11.3,25.029a5.17,5.17,0,0,0,9.425,4.255l11.3-25.029a5.168,5.168,0,1,0-9.42-4.255Z" transform="translate(-6670.738 -711)" fill="#00a5b9" fill-rule="evenodd"/><path d="M660.95,756.739a5.174,5.174,0,0,0-1.244,7.206l19.378,27.447a5.169,5.169,0,0,0,8.445-5.963l-19.377-27.451A5.168,5.168,0,0,0,660.95,756.739Z" transform="translate(-6670.738 -711)" fill="#00a5b9" fill-rule="evenodd"/><path d="M534.423,749.112a5.176,5.176,0,0,0-1.346.547v19.884l2.441,12.728a5.172,5.172,0,0,0,5.067,4.2,5.087,5.087,0,0,0,.984-.1,5.167,5.167,0,0,0,4.1-6.047l-5.192-27.112A5.156,5.156,0,0,0,534.423,749.112Z" transform="translate(-6670.738 -711)" fill="#00a5b9" fill-rule="evenodd"/><path d="M633.422,740.92a5.175,5.175,0,0,0-4.232,5.958l4.617,27.22a5.17,5.17,0,0,0,5.09,4.31,5.577,5.577,0,0,0,.868-.074A5.172,5.172,0,0,0,644,772.371l-4.617-27.219A5.17,5.17,0,0,0,633.422,740.92Z" transform="translate(-6670.738 -711)" fill="#00a5b9" fill-rule="evenodd"/><path d="M762.5,752.234a5.17,5.17,0,0,0-1.986,7.035L772.449,780.6a5.168,5.168,0,0,0,9.02-5.049l-11.934-21.331A5.167,5.167,0,0,0,762.5,752.234Z" transform="translate(-6670.738 -711)" fill="#00a5b9" fill-rule="evenodd"/><path d="M534.146,653.785a5.17,5.17,0,0,0,6.557-7.995l-7.624-6.255v13.373Z" transform="translate(-6670.738 -711)" fill="#00a5b9" fill-rule="evenodd"/><path d="M542.293,717.641a5.173,5.173,0,0,0,3.281-9.169l-12.5-10.255V711.59l5.939,4.877A5.145,5.145,0,0,0,542.293,717.641Z" transform="translate(-6670.738 -711)" fill="#00a5b9" fill-rule="evenodd"/><path d="M535.56,561.619c-.817-.788-1.671-1.54-2.483-2.343v4.088a4.7,4.7,0,0,0,2.483-1.745Z" transform="translate(-6670.738 -711)" fill="#00a5b9" fill-rule="evenodd"/><path d="M538.112,726.333a5.133,5.133,0,0,0-5.035-1.689v12.584l4.358-3.62A5.166,5.166,0,0,0,538.112,726.333Z" transform="translate(-6670.738 -711)" fill="#00a5b9" fill-rule="evenodd"/><path d="M533.078,670.274v10.58l10.728-2.343a5.168,5.168,0,0,0-2.209-10.1Z" transform="translate(-6670.738 -711)" fill="#00a5b9" fill-rule="evenodd"/><path d="M674.753,1001.83a5.174,5.174,0,0,0,7.09-1.75l14.292-23.631a5.164,5.164,0,1,0-8.839-5.341L673,994.736A5.169,5.169,0,0,0,674.753,1001.83Z" transform="translate(-6670.738 -711)" fill="#00a5b9" fill-rule="evenodd"/><path d="M686.5,955.238a5.084,5.084,0,0,0,2.464-.636,5.161,5.161,0,0,0,2.07-7l-11.345-20.811a5.167,5.167,0,0,0-9.072,4.947l11.341,20.806A5.161,5.161,0,0,0,686.5,955.238Z" transform="translate(-6670.738 -711)" fill="#00a5b9" fill-rule="evenodd"/><path d="M667.221,981.313a5.165,5.165,0,0,0,4.924-5.4l-1.439-31.1a5.167,5.167,0,0,0-10.324.473l1.438,31.108a5.167,5.167,0,0,0,5.155,4.932C667.059,981.322,667.138,981.318,667.221,981.313Z" transform="translate(-6670.738 -711)" fill="#00a5b9" fill-rule="evenodd"/><path d="M722.89,1048.25a4.741,4.741,0,0,0-1.489.61h4.923A5.063,5.063,0,0,0,722.89,1048.25Z" transform="translate(-6670.738 -711)" fill="#00a5b9" fill-rule="evenodd"/><path d="M638.088,1046.39l5.109-27.14a5.168,5.168,0,0,0-10.157-1.91l-5.1,27.14a5.056,5.056,0,0,0,1.323,4.38h7.521A5.055,5.055,0,0,0,638.088,1046.39Z" transform="translate(-6670.738 -711)" fill="#00a5b9" fill-rule="evenodd"/><path d="M606.873,1042.8a5.169,5.169,0,0,0,6.561-7.99l-21.35-17.51a5.168,5.168,0,1,0-6.556,7.99Z" transform="translate(-6670.738 -711)" fill="#00a5b9" fill-rule="evenodd"/><path d="M656.146,1005.87a5.169,5.169,0,0,0,6.557-7.992l-21.336-17.512a5.168,5.168,0,0,0-6.556,7.99Z" transform="translate(-6670.738 -711)" fill="#00a5b9" fill-rule="evenodd"/><path d="M660.415,1020.93a5.167,5.167,0,1,0-9.7,3.56l8.946,24.37h10.575a5.037,5.037,0,0,0-.306-2.01Z" transform="translate(-6670.738 -711)" fill="#00a5b9" fill-rule="evenodd"/><path d="M589.48,1043.63a5.166,5.166,0,0,0-6.719-7.85l-15.294,13.08h15.9Z" transform="translate(-6670.738 -711)" fill="#00a5b9" fill-rule="evenodd"/><path d="M624.178,975.5l26.546-7.62a5.164,5.164,0,1,0-2.858-9.925l-26.537,7.615a5.167,5.167,0,0,0,1.42,10.134A5.1,5.1,0,0,0,624.178,975.5Z" transform="translate(-6670.738 -711)" fill="#00a5b9" fill-rule="evenodd"/><path d="M749.173,1016.36a5.158,5.158,0,0,0,4.752,3.14,5.25,5.25,0,0,0,2.032-.42,5.181,5.181,0,0,0,2.719-6.79L747.813,986.9a5.169,5.169,0,0,0-9.5,4.07Z" transform="translate(-6670.738 -711)" fill="#00a5b9" fill-rule="evenodd"/><path d="M791.193,971.2a5.166,5.166,0,0,0,5.136-4.682l3.536-37.13a5.17,5.17,0,0,0-4.658-5.634,5.225,5.225,0,0,0-5.634,4.655l-3.526,37.13a5.157,5.157,0,0,0,4.654,5.634A4.561,4.561,0,0,0,791.193,971.2Z" transform="translate(-6670.738 -711)" fill="#00a5b9" fill-rule="evenodd"/><path d="M706.228,1048.05a5.1,5.1,0,0,0,2.571.69,5.191,5.191,0,0,0,4.487-2.6l13.735-23.95a5.169,5.169,0,0,0-8.965-5.15L704.316,1041A5.166,5.166,0,0,0,706.228,1048.05Z" transform="translate(-6670.738 -711)" fill="#00a5b9" fill-rule="evenodd"/><path d="M785.288,1015.27a5.166,5.166,0,0,0-7.266-.72l-21.345,17.51a5.172,5.172,0,0,0,3.28,9.17,5.078,5.078,0,0,0,3.272-1.18l21.345-17.51A5.163,5.163,0,0,0,785.288,1015.27Z" transform="translate(-6670.738 -711)" fill="#00a5b9" fill-rule="evenodd"/><path d="M788.03,991.762l-21.243-17.638a5.169,5.169,0,0,0-6.6,7.954l21.243,17.637a5.168,5.168,0,1,0,6.6-7.953Z" transform="translate(-6670.738 -711)" fill="#00a5b9" fill-rule="evenodd"/><path d="M724.177,964.1l-9.647,25.869a5.167,5.167,0,0,0,3.035,6.649,5.035,5.035,0,0,0,1.81.33,5.162,5.162,0,0,0,4.839-3.364l9.652-25.869a5.171,5.171,0,0,0-9.689-3.615Z" transform="translate(-6670.738 -711)" fill="#00a5b9" fill-rule="evenodd"/><path d="M774.389,947.934a5.171,5.171,0,0,0-7.114-1.68l-23.488,14.514a5.166,5.166,0,1,0,5.433,8.789l23.489-14.515A5.164,5.164,0,0,0,774.389,947.934Z" transform="translate(-6670.738 -711)" fill="#00a5b9" fill-rule="evenodd"/><path d="M778.745,925.82l15.438-22.881a5.169,5.169,0,1,0-8.566-5.786L770.18,920.039a5.167,5.167,0,1,0,8.565,5.781Z" transform="translate(-6670.738 -711)" fill="#00a5b9" fill-rule="evenodd"/><path d="M610.578,1014.48a5.183,5.183,0,0,0,4.91,3.56,5.061,5.061,0,0,0,1.614-.27,5.159,5.159,0,0,0,3.29-6.52l-11.1-33.694a5.169,5.169,0,0,0-9.819,3.234Z" transform="translate(-6670.738 -711)" fill="#00a5b9" fill-rule="evenodd"/><path d="M631.3,854.138a5.167,5.167,0,0,0-7.28.6L606.16,875.789a5.165,5.165,0,1,0,7.879,6.682L631.9,861.418A5.167,5.167,0,0,0,631.3,854.138Z" transform="translate(-6670.738 -711)" fill="#00a5b9" fill-rule="evenodd"/><path d="M743.994,909.186l-2.863,35.446a5.166,5.166,0,0,0,4.728,5.564c.149.009.288.018.423.018a5.179,5.179,0,0,0,5.15-4.756l2.863-35.442a5.167,5.167,0,1,0-10.3-.83Z" transform="translate(-6670.738 -711)" fill="#00a5b9" fill-rule="evenodd"/><path d="M661.943,923.976a5.1,5.1,0,0,0,1.986.4,5.171,5.171,0,0,0,4.77-3.193l12.39-29.771a5.166,5.166,0,0,0-9.541-3.963l-12.389,29.772A5.165,5.165,0,0,0,661.943,923.976Z" transform="translate(-6670.738 -711)" fill="#00a5b9" fill-rule="evenodd"/><path d="M692.919,1035.15a5.149,5.149,0,0,0-6.589,3.16l-3.721,10.55h10.96l2.506-7.12A5.165,5.165,0,0,0,692.919,1035.15Z" transform="translate(-6670.738 -711)" fill="#00a5b9" fill-rule="evenodd"/><path d="M725.787,1034.05a5.164,5.164,0,0,0,.71,7.27l9.182,7.54h16.3l-18.922-15.53A5.18,5.18,0,0,0,725.787,1034.05Z" transform="translate(-6670.738 -711)" fill="#00a5b9" fill-rule="evenodd"/><path d="M643.292,942.755a5.169,5.169,0,0,0,8.988-5.109l-17.15-30.157a5.166,5.166,0,1,0-8.983,5.1Z" transform="translate(-6670.738 -711)" fill="#00a5b9" fill-rule="evenodd"/><path d="M593.83,953.017l26.667,7.132a5.285,5.285,0,0,0,1.336.177,5.164,5.164,0,0,0,1.332-10.153L596.5,943.041a5.163,5.163,0,1,0-2.668,9.976Z" transform="translate(-6670.738 -711)" fill="#00a5b9" fill-rule="evenodd"/><path d="M604.97,923.758a5.118,5.118,0,0,0,2.44.622,5.18,5.18,0,0,0,4.562-2.728l10.5-19.573a5.164,5.164,0,1,0-9.1-4.886l-10.51,19.572A5.17,5.17,0,0,0,604.97,923.758Z" transform="translate(-6670.738 -711)" fill="#00a5b9" fill-rule="evenodd"/><path d="M822.192,844.6a2.263,2.263,0,0,0,.26-.014,5.157,5.157,0,0,0,4.9-5.41l-1.638-33.252a5.169,5.169,0,0,0-10.325.506l1.643,33.252A5.167,5.167,0,0,0,822.192,844.6Z" transform="translate(-6670.738 -711)" fill="#00a5b9" fill-rule="evenodd"/><path d="M743.182,812.752a5.171,5.171,0,0,0,3.285-9.164l-21.336-17.522a5.166,5.166,0,0,0-6.556,7.986l21.331,17.517A5.12,5.12,0,0,0,743.182,812.752Z" transform="translate(-6670.738 -711)" fill="#00a5b9" fill-rule="evenodd"/><path d="M663.416,826.483l27.688-19.29a5.17,5.17,0,0,0-5.912-8.482L657.509,818a5.169,5.169,0,1,0,5.907,8.483Z" transform="translate(-6670.738 -711)" fill="#00a5b9" fill-rule="evenodd"/><path d="M635.162,803.974a5.168,5.168,0,0,0,5.865-8.51l-24.157-16.64a5.168,5.168,0,1,0-5.865,8.51Z" transform="translate(-6670.738 -711)" fill="#00a5b9" fill-rule="evenodd"/><path d="M714.388,901.449a5.166,5.166,0,0,0,8.932-5.192l-13.888-23.869a5.167,5.167,0,1,0-8.932,5.2Z" transform="translate(-6670.738 -711)" fill="#00a5b9" fill-rule="evenodd"/><path d="M713.728,826.346l-3.522,21.837a5.168,5.168,0,1,0,10.2,1.652l3.522-21.841a5.168,5.168,0,0,0-10.2-1.648Z" transform="translate(-6670.738 -711)" fill="#00a5b9" fill-rule="evenodd"/><path d="M738.179,828.974l25.3,11.063a5.169,5.169,0,1,0,4.144-9.471l-25.3-11.062a5.168,5.168,0,1,0-4.144,9.47Z" transform="translate(-6670.738 -711)" fill="#00a5b9" fill-rule="evenodd"/><path d="M687.161,835.907a5.166,5.166,0,0,0,7.09-1.754l14.269-23.642a5.169,5.169,0,0,0-8.849-5.345l-14.264,23.641A5.176,5.176,0,0,0,687.161,835.907Z" transform="translate(-6670.738 -711)" fill="#00a5b9" fill-rule="evenodd"/><path d="M811.929,931.72a5.167,5.167,0,0,0,3.416-1.294l24.778-21.869a5.168,5.168,0,0,0-6.835-7.754L808.51,922.677a5.168,5.168,0,0,0,3.419,9.043Z" transform="translate(-6670.738 -711)" fill="#00a5b9" fill-rule="evenodd"/><path d="M653.908,858.524a5.167,5.167,0,0,0-6.686,2.942l-12.329,31.65a5.167,5.167,0,0,0,2.942,6.687,5.151,5.151,0,0,0,6.691-2.942l12.324-31.655A5.166,5.166,0,0,0,653.908,858.524Z" transform="translate(-6670.738 -711)" fill="#00a5b9" fill-rule="evenodd"/><path d="M656,839.555l-19.619-19.428a5.168,5.168,0,1,0-7.271,7.345L648.726,846.9A5.168,5.168,0,0,0,656,839.555Z" transform="translate(-6670.738 -711)" fill="#00a5b9" fill-rule="evenodd"/><path d="M787.9,826.505l14.357-25.168a5.169,5.169,0,0,0-8.979-5.123l-14.352,25.168a5.167,5.167,0,1,0,8.974,5.123Z" transform="translate(-6670.738 -711)" fill="#00a5b9" fill-rule="evenodd"/><path d="M812.4,860.712a5.166,5.166,0,0,0-5.062,5.271l.57,27.609a5.176,5.176,0,0,0,5.165,5.067c.037,0,.07,0,.111,0a5.17,5.17,0,0,0,5.058-5.272l-.566-27.609A5.349,5.349,0,0,0,812.4,860.712Z" transform="translate(-6670.738 -711)" fill="#00a5b9" fill-rule="evenodd"/><path d="M815,854.939a5.168,5.168,0,0,0,.25-10.329l-27.581-1.364a5.1,5.1,0,0,0-5.411,4.905,5.162,5.162,0,0,0,4.9,5.415l27.577,1.364C814.825,854.935,814.908,854.939,815,854.939Z" transform="translate(-6670.738 -711)" fill="#00a5b9" fill-rule="evenodd"/><path d="M696.069,848.767a5.168,5.168,0,0,0-7.271-.691l-21.3,17.591a5.168,5.168,0,0,0,6.584,7.967l21.294-17.591A5.168,5.168,0,0,0,696.069,848.767Z" transform="translate(-6670.738 -711)" fill="#00a5b9" fill-rule="evenodd"/><path d="M811.212,993.978l10.863-25.387a5.167,5.167,0,0,0-9.5-4.069l-10.863,25.391a5.166,5.166,0,1,0,9.5,4.065Z" transform="translate(-6670.738 -711)" fill="#00a5b9" fill-rule="evenodd"/><path d="M858.285,1043.96l-4.617-27.22a5.168,5.168,0,0,0-10.19,1.73l4.617,27.22a5.159,5.159,0,0,0,1.888,3.17h6.33A5.115,5.115,0,0,0,858.285,1043.96Z" transform="translate(-6670.738 -711)" fill="#00a5b9" fill-rule="evenodd"/><path d="M867.531,1009.17,857.35,983.506a5.166,5.166,0,1,0-9.6,3.8l10.185,25.669a5.165,5.165,0,1,0,9.6-3.81Z" transform="translate(-6670.738 -711)" fill="#00a5b9" fill-rule="evenodd"/><path d="M877.821,924.307a5.17,5.17,0,0,0,.385-10.325l-27.539-2.092a5.17,5.17,0,0,0-.784,10.31l27.539,2.093C877.557,924.3,877.691,924.307,877.821,924.307Z" transform="translate(-6670.738 -711)" fill="#00a5b9" fill-rule="evenodd"/><path d="M893.1,1024.79a5.174,5.174,0,0,0-7.276-.67l-21.238,17.66a5.143,5.143,0,0,0-.77,7.08h8.417l20.194-16.8A5.159,5.159,0,0,0,893.1,1024.79Z" transform="translate(-6670.738 -711)" fill="#00a5b9" fill-rule="evenodd"/><path d="M819.046,1033.42a5.278,5.278,0,0,0,2.177.48,5.169,5.169,0,0,0,4.686-2.99l11.629-25.04a5.165,5.165,0,1,0-9.369-4.35l-11.633,25.04A5.165,5.165,0,0,0,819.046,1033.42Z" transform="translate(-6670.738 -711)" fill="#00a5b9" fill-rule="evenodd"/><path d="M890.568,961.4a5.166,5.166,0,0,0,3.489-8.978L873.7,933.778a5.166,5.166,0,0,0-6.979,7.62l20.362,18.648A5.164,5.164,0,0,0,890.568,961.4Z" transform="translate(-6670.738 -711)" fill="#00a5b9" fill-rule="evenodd"/><path d="M557.6,827.489a5.148,5.148,0,0,0,3.832-1.7l17.522-19.372a5.168,5.168,0,0,0-7.666-6.933l-17.517,19.373a5.165,5.165,0,0,0,3.829,8.631Z" transform="translate(-6670.738 -711)" fill="#00a5b9" fill-rule="evenodd"/><path d="M597.51,855.851l21.335-17.526a5.164,5.164,0,1,0-6.556-7.981l-21.336,17.521a5.167,5.167,0,1,0,6.557,7.986Z" transform="translate(-6670.738 -711)" fill="#00a5b9" fill-rule="evenodd"/><path d="M600.324,812.766a5.168,5.168,0,0,0,4.942,3.675,5.277,5.277,0,0,0,1.5-.223,5.168,5.168,0,0,0,3.452-6.441l-7.976-26.449a5.168,5.168,0,0,0-9.893,2.993Z" transform="translate(-6670.738 -711)" fill="#00a5b9" fill-rule="evenodd"/><path d="M832.909,972.114l27.438,3.085c.2.019.39.037.584.037a5.168,5.168,0,0,0,.566-10.3l-27.432-3.091a5.241,5.241,0,0,0-5.712,4.562A5.167,5.167,0,0,0,832.909,972.114Z" transform="translate(-6670.738 -711)" fill="#00a5b9" fill-rule="evenodd"/><path d="M561.385,965.506l21.243,17.651a5.168,5.168,0,0,0,6.6-7.953l-21.243-17.647a5.167,5.167,0,1,0-6.6,7.949Z" transform="translate(-6670.738 -711)" fill="#00a5b9" fill-rule="evenodd"/><path d="M869.015,797.119a5.158,5.158,0,0,0-7.109-1.68l-23.5,14.514a5.165,5.165,0,1,0,5.429,8.789l23.5-14.515A5.169,5.169,0,0,0,869.015,797.119Z" transform="translate(-6670.738 -711)" fill="#00a5b9" fill-rule="evenodd"/><path d="M838.555,861.425a5.166,5.166,0,0,0,6.589-3.16l9.169-26.04a5.166,5.166,0,1,0-9.744-3.434L835.4,854.832A5.172,5.172,0,0,0,838.555,861.425Z" transform="translate(-6670.738 -711)" fill="#00a5b9" fill-rule="evenodd"/><path d="M538.606,959.506a5.163,5.163,0,0,0,7.1-1.735l14.329-23.6A5.168,5.168,0,0,0,551.2,928.8l-14.329,23.6A5.171,5.171,0,0,0,538.606,959.506Z" transform="translate(-6670.738 -711)" fill="#00a5b9" fill-rule="evenodd"/><path d="M535.814,907.735a5.168,5.168,0,0,0,7.276.673l21.233-17.656a5.165,5.165,0,0,0-6.607-7.94l-21.234,17.652A5.16,5.16,0,0,0,535.814,907.735Z" transform="translate(-6670.738 -711)" fill="#00a5b9" fill-rule="evenodd"/><path d="M581.966,891.145a5.166,5.166,0,1,0,8.909-5.234l-13.911-23.692a5.166,5.166,0,1,0-8.909,5.234Z" transform="translate(-6670.738 -711)" fill="#00a5b9" fill-rule="evenodd"/><path d="M575.524,936.592a5.166,5.166,0,0,0,8.83-5.364L566.62,901.994a5.168,5.168,0,0,0-8.835,5.364Z" transform="translate(-6670.738 -711)" fill="#00a5b9" fill-rule="evenodd"/><path d="M544.908,1009.77a4.488,4.488,0,0,0,.96.09,5.169,5.169,0,0,0,5.072-4.22l5.109-27.117a5.165,5.165,0,1,0-10.153-1.907l-5.109,27.124A5.161,5.161,0,0,0,544.908,1009.77Z" transform="translate(-6670.738 -711)" fill="#00a5b9" fill-rule="evenodd"/><path d="M560.557,1023.37a5.146,5.146,0,0,0,3.141-1.07l25.874-19.88a5.165,5.165,0,1,0-6.3-8.188L557.4,1014.11a5.164,5.164,0,0,0,3.156,9.26Z" transform="translate(-6670.738 -711)" fill="#00a5b9" fill-rule="evenodd"/><path d="M727.391,874.973l25.428-21.229a5.167,5.167,0,0,0-6.622-7.934l-25.432,21.233a5.167,5.167,0,1,0,6.626,7.93Z" transform="translate(-6670.738 -711)" fill="#00a5b9" fill-rule="evenodd"/><path d="M780.408,883.156a5.171,5.171,0,0,0,4.459-7.767L770.979,851.52a5.167,5.167,0,1,0-8.932,5.2l13.888,23.864A5.165,5.165,0,0,0,780.408,883.156Z" transform="translate(-6670.738 -711)" fill="#00a5b9" fill-rule="evenodd"/><path d="M764.892,899.365a5.17,5.17,0,0,0,2.33-9.786l-24.663-12.413a5.166,5.166,0,1,0-4.645,9.23l24.663,12.412A5.118,5.118,0,0,0,764.892,899.365Z" transform="translate(-6670.738 -711)" fill="#00a5b9" fill-rule="evenodd"/><path d="M687.586,1029.06a5.146,5.146,0,0,0,3.276-1.18l21.345-17.51a5.172,5.172,0,0,0-6.557-8L684.3,1019.89a5.177,5.177,0,0,0,3.281,9.17Z" transform="translate(-6670.738 -711)" fill="#00a5b9" fill-rule="evenodd"/><path d="M756.259,816.191a5.167,5.167,0,0,0,4.668,5.624c.158.014.32.028.478.028a5.174,5.174,0,0,0,5.146-4.691l2.631-28.255a5.166,5.166,0,1,0-10.288-.955Z" transform="translate(-6670.738 -711)" fill="#00a5b9" fill-rule="evenodd"/><path d="M790.2,1032.27a5.171,5.171,0,0,0-6.278,3.75l-3.234,12.84h10.653l2.6-10.32A5.162,5.162,0,0,0,790.2,1032.27Z" transform="translate(-6670.738 -711)" fill="#00a5b9" fill-rule="evenodd"/><path d="M738.492,917.038a5.168,5.168,0,0,0-7.3.274l-24.76,26.648A5.166,5.166,0,1,0,714,950.99l24.76-26.649A5.168,5.168,0,0,0,738.492,917.038Z" transform="translate(-6670.738 -711)" fill="#00a5b9" fill-rule="evenodd"/><path d="M900.377,867.057a5.175,5.175,0,0,0,1.244-.154l26.806-6.6a5.164,5.164,0,1,0-2.473-10.027l-26.811,6.6a5.166,5.166,0,0,0,1.234,10.181Z" transform="translate(-6670.738 -711)" fill="#00a5b9" fill-rule="evenodd"/><path d="M866.311,892.9a5.051,5.051,0,0,0,2.028-.417,5.161,5.161,0,0,0,2.719-6.784L860.2,860.315a5.166,5.166,0,0,0-9.5,4.065l10.858,25.387A5.167,5.167,0,0,0,866.311,892.9Z" transform="translate(-6670.738 -711)" fill="#00a5b9" fill-rule="evenodd"/><path d="M820.552,950.213a5.478,5.478,0,0,0,1.211-.143l33.456-8.056a5.168,5.168,0,0,0-2.418-10.05l-33.456,8.06a5.166,5.166,0,0,0,1.207,10.189Z" transform="translate(-6670.738 -711)" fill="#00a5b9" fill-rule="evenodd"/><path d="M564.313,845.989a5.154,5.154,0,0,0,2.914-.9l22.784-15.6a5.168,5.168,0,0,0-5.838-8.529l-22.783,15.6a5.168,5.168,0,0,0,2.923,9.433Z" transform="translate(-6670.738 -711)" fill="#00a5b9" fill-rule="evenodd"/><path d="M819.681,1038.83a5.169,5.169,0,0,0-7.359,7.26l2.733,2.77h14.509Z" transform="translate(-6670.738 -711)" fill="#00a5b9" fill-rule="evenodd"/><path d="M880.9,853.888a5.174,5.174,0,0,0,4.566-7.586l-12.9-24.417a5.167,5.167,0,1,0-9.141,4.821l12.9,24.421A5.169,5.169,0,0,0,880.9,853.888Z" transform="translate(-6670.738 -711)" fill="#00a5b9" fill-rule="evenodd"/><path d="M697.641,930.03a5.168,5.168,0,0,0,5.035,4.037,5.319,5.319,0,0,0,1.141-.13,5.164,5.164,0,0,0,3.907-6.171L700.4,895.191a5.17,5.17,0,0,0-10.088,2.269Z" transform="translate(-6670.738 -711)" fill="#00a5b9" fill-rule="evenodd"/><path d="M802.816,1035.79a5.9,5.9,0,0,0,1.016-.1,5.175,5.175,0,0,0,4.056-6.08l-5.425-27.09a5.171,5.171,0,0,0-10.138,2.04l5.424,27.07A5.177,5.177,0,0,0,802.816,1035.79Z" transform="translate(-6670.738 -711)" fill="#00a5b9" fill-rule="evenodd"/><path d="M827.54,888.9l24.171,13.382a5.115,5.115,0,0,0,2.5.65,5.167,5.167,0,0,0,2.505-9.689l-24.166-13.382a5.167,5.167,0,1,0-5.007,9.039Z" transform="translate(-6670.738 -711)" fill="#00a5b9" fill-rule="evenodd"/><path d="M655.008,812.929a4.433,4.433,0,0,0,.548.032,5.174,5.174,0,0,0,5.137-4.631l2.886-27.456a5.167,5.167,0,0,0-10.278-1.081l-2.891,27.456A5.169,5.169,0,0,0,655.008,812.929Z" transform="translate(-6670.738 -711)" fill="#00a5b9" fill-rule="evenodd"/><path d="M544.432,843.643a5.03,5.03,0,0,0,.975-.1,5.165,5.165,0,0,0,4.106-6.041l-6.459-33.911a5.125,5.125,0,0,0-9.976-.464v3.308l6.283,33.006A5.174,5.174,0,0,0,544.432,843.643Z" transform="translate(-6670.738 -711)" fill="#00a5b9" fill-rule="evenodd"/><path d="M888.375,825.88a5.176,5.176,0,0,0,4.844-3.36l9.647-25.874a5.168,5.168,0,0,0-9.684-3.614l-9.652,25.873a5.166,5.166,0,0,0,4.845,6.975Z" transform="translate(-6670.738 -711)" fill="#00a5b9" fill-rule="evenodd"/><path d="M534.146,1025.82a5.172,5.172,0,0,0,6.557-8l-7.624-6.25v13.37Z" transform="translate(-6670.738 -711)" fill="#00a5b9" fill-rule="evenodd"/><path d="M535.928,927.923l-2.849-4.9v12.366a5.028,5.028,0,0,0,2.849-7.47Z" transform="translate(-6670.738 -711)" fill="#00a5b9" fill-rule="evenodd"/><path d="M560.181,854.051a5.152,5.152,0,0,0-6.255-3.777l-20.849,5.132v10.64L556.4,860.3A5.17,5.17,0,0,0,560.181,854.051Z" transform="translate(-6670.738 -711)" fill="#00a5b9" fill-rule="evenodd"/><path d="M547.747,1044.39a5.193,5.193,0,0,0-6.149-3.94l-8.519,1.86v6.55H546.5A5.092,5.092,0,0,0,547.747,1044.39Z" transform="translate(-6670.738 -711)" fill="#00a5b9" fill-rule="evenodd"/><path d="M534.147,889.319c.13.009.265.014.4.014a5.17,5.17,0,0,0,.39-10.324l-1.852-.14v10.367Z" transform="translate(-6670.738 -711)" fill="#00a5b9" fill-rule="evenodd"/><path d="M811.393,787.548a5.169,5.169,0,0,0,2.645-9.61L790.322,763.8a5.167,5.167,0,0,0-5.29,8.877l23.721,14.138A5.153,5.153,0,0,0,811.393,787.548Z" transform="translate(-6670.738 -711)" fill="#00a5b9" fill-rule="evenodd"/><path d="M702.439,793.272a5.372,5.372,0,0,0,1.606.255,5.169,5.169,0,0,0,4.909-3.573l11.559-35.465a5.167,5.167,0,1,0-9.828-3.2l-11.554,35.47A5.166,5.166,0,0,0,702.439,793.272Z" transform="translate(-6670.738 -711)" fill="#00a5b9" fill-rule="evenodd"/><path d="M832.718,789.547a5.151,5.151,0,0,0,3.276-1.174l21.345-17.5a5.168,5.168,0,1,0-6.556-7.99l-21.341,17.5a5.171,5.171,0,0,0,3.276,9.169Z" transform="translate(-6670.738 -711)" fill="#00a5b9" fill-rule="evenodd"/><path d="M573.049,788.921a4.952,4.952,0,0,0,1.128.121A5.166,5.166,0,0,0,579.216,785l6-26.936a5.166,5.166,0,0,0-10.083-2.251l-6.009,26.941A5.169,5.169,0,0,0,573.049,788.921Z" transform="translate(-6670.738 -711)" fill="#00a5b9" fill-rule="evenodd"/><path d="M596.767,773.677a5.159,5.159,0,0,0,7.215,1.16l20.992-15.178a5.164,5.164,0,1,0-6.055-8.367l-20.992,15.169A5.171,5.171,0,0,0,596.767,773.677Z" transform="translate(-6670.738 -711)" fill="#00a5b9" fill-rule="evenodd"/><path d="M873.859,791.631a5.145,5.145,0,0,0,4.427-2.5l14.269-23.628a5.168,5.168,0,1,0-8.845-5.346l-14.268,23.633a5.166,5.166,0,0,0,4.417,7.837Z" transform="translate(-6670.738 -711)" fill="#00a5b9" fill-rule="evenodd"/><path d="M744.663,793.58c.014,0,.028,0,.047,0a5.155,5.155,0,0,0,5.118-5.211l-.176-21.141a5.167,5.167,0,0,0-5.165-5.123c-.014,0-.028.005-.042.005a5.16,5.16,0,0,0-5.123,5.211l.177,21.141A5.168,5.168,0,0,0,744.663,793.58Z" transform="translate(-6670.738 -711)" fill="#00a5b9" fill-rule="evenodd"/></g></svg>