<svg xmlns="http://www.w3.org/2000/svg" width="434.124" height="588.274" viewBox="0 0 434.124 588.274"><g transform="translate(6615 232)"><path d="M137.054,719.915c0-.047-.023-.089-.023-.13-.005.1-.01.208-.019.306C137.017,720.031,137.054,719.98,137.054,719.915Z" transform="translate(-6670.738 -711)" fill="#00a5b9" fill-rule="evenodd"/><path d="M169.2,604.295a5.163,5.163,0,0,0,1.081-7.23l-6.747-9.122c-1.7,3.6-3.262,7.266-4.752,10.955l3.188,4.316A5.176,5.176,0,0,0,169.2,604.295Z" transform="translate(-6670.738 -711)" fill="#00a5b9" fill-rule="evenodd"/><path d="M150.115,639.287a5.169,5.169,0,0,0,1.754,7.09l23.637,14.274a5.168,5.168,0,0,0,5.341-8.849l-23.633-14.269A5.179,5.179,0,0,0,150.115,639.287Z" transform="translate(-6670.738 -711)" fill="#00a5b9" fill-rule="evenodd"/><path d="M143.9,693.307a5.165,5.165,0,1,0,5.995-8.413L140.217,678q-.667,5.895-1.188,11.841Z" transform="translate(-6670.738 -711)" fill="#00a5b9" fill-rule="evenodd"/><path d="M174.43,570.712,188.95,594.2a5.167,5.167,0,0,0,9.563-2.719,5.069,5.069,0,0,0-.775-2.71l-14.514-23.493a5.11,5.11,0,0,0-5.6-2.237c-1.327,1.972-2.575,3.981-3.814,5.995A5.162,5.162,0,0,0,174.43,570.712Z" transform="translate(-6670.738 -711)" fill="#00a5b9" fill-rule="evenodd"/><path d="M176.273,723.083a5.072,5.072,0,0,0,.418-2.028,5.167,5.167,0,0,0-3.137-4.752l-25.382-10.862a5.166,5.166,0,1,0-4.069,9.5L169.489,725.8A5.169,5.169,0,0,0,176.273,723.083Z" transform="translate(-6670.738 -711)" fill="#00a5b9" fill-rule="evenodd"/><path d="M202.272,721.505a5.143,5.143,0,0,0-1.2-3.3l-17.637-21.243a5.165,5.165,0,1,0-7.944,6.6l17.632,21.243a5.169,5.169,0,0,0,9.146-3.3Z" transform="translate(-6670.738 -711)" fill="#00a5b9" fill-rule="evenodd"/><path d="M192.388,677.79c0-.13-.009-.264-.018-.394a5.163,5.163,0,0,0-5.541-4.761l-27.535,2.079a5.11,5.11,0,0,0-4.76,5.54,5.167,5.167,0,0,0,5.54,4.766l27.535-2.084A5.172,5.172,0,0,0,192.388,677.79Z" transform="translate(-6670.738 -711)" fill="#00a5b9" fill-rule="evenodd"/><path d="M156.278,626.848a5.162,5.162,0,0,0,6.876,2.474L190.6,616.408a5.17,5.17,0,0,0-4.4-9.355l-27.447,12.923A5.169,5.169,0,0,0,156.278,626.848Z" transform="translate(-6670.738 -711)" fill="#00a5b9" fill-rule="evenodd"/><path d="M197.739,617.939a5.173,5.173,0,0,0,7.206,1.244l27.447-19.377a5.169,5.169,0,0,0-5.963-8.446l-27.451,19.378A5.166,5.166,0,0,0,197.739,617.939Z" transform="translate(-6670.738 -711)" fill="#00a5b9" fill-rule="evenodd"/><path d="M199.062,693.669a5.167,5.167,0,1,0-2.246,10.087l26.936,6.005a5.167,5.167,0,0,0,6.167-3.921,4.95,4.95,0,0,0,.125-1.128A5.166,5.166,0,0,0,226,699.673Z" transform="translate(-6670.738 -711)" fill="#00a5b9" fill-rule="evenodd"/><path d="M190.113,744.471a5.171,5.171,0,0,0,6.051,4.1l27.108-5.2a5.179,5.179,0,0,0,4.2-5.071,5.068,5.068,0,0,0-.1-.979,5.171,5.171,0,0,0-6.046-4.1l-27.113,5.2A5.155,5.155,0,0,0,190.113,744.471Z" transform="translate(-6670.738 -711)" fill="#00a5b9" fill-rule="evenodd"/><path d="M181.921,645.473a5.168,5.168,0,0,0,5.958,4.227l27.219-4.617a5.171,5.171,0,0,0,4.311-5.09,5.622,5.622,0,0,0-.074-.868,5.167,5.167,0,0,0-5.963-4.227l-27.219,4.617A5.159,5.159,0,0,0,181.921,645.473Z" transform="translate(-6670.738 -711)" fill="#00a5b9" fill-rule="evenodd"/><path d="M442.827,604.137a5.161,5.161,0,0,0-1.75-7.1L417.45,582.75a5.164,5.164,0,1,0-5.341,8.84l23.628,14.291A5.159,5.159,0,0,0,442.827,604.137Z" transform="translate(-6670.738 -711)" fill="#00a5b9" fill-rule="evenodd"/><path d="M396.238,592.386a5.1,5.1,0,0,0-.635-2.464,5.157,5.157,0,0,0-7-2.069L367.789,599.2a5.168,5.168,0,0,0,4.947,9.076l20.806-11.345A5.163,5.163,0,0,0,396.238,592.386Z" transform="translate(-6670.738 -711)" fill="#00a5b9" fill-rule="evenodd"/><path d="M422.313,611.672a5.172,5.172,0,0,0-5.4-4.928l-31.1,1.439a5.279,5.279,0,0,0-4.923,5.4,5.166,5.166,0,0,0,5.4,4.923l31.108-1.438a5.163,5.163,0,0,0,4.932-5.155C422.322,611.83,422.317,611.756,422.313,611.672Z" transform="translate(-6670.738 -711)" fill="#00a5b9" fill-rule="evenodd"/><path d="M489.247,556a4.867,4.867,0,0,0,.612,1.489v-4.923A5.08,5.08,0,0,0,489.247,556Z" transform="translate(-6670.738 -711)" fill="#00a5b9" fill-rule="evenodd"/><path d="M487.388,640.8l-27.136-5.114a5.168,5.168,0,0,0-1.912,10.158l27.141,5.109a5.052,5.052,0,0,0,4.375-1.328v-7.521A5.011,5.011,0,0,0,487.388,640.8Z" transform="translate(-6670.738 -711)" fill="#00a5b9" fill-rule="evenodd"/><path d="M483.8,672.018a5.17,5.17,0,0,0-7.995-6.557L458.3,686.806a5.17,5.17,0,0,0,7.991,6.561Z" transform="translate(-6670.738 -711)" fill="#00a5b9" fill-rule="evenodd"/><path d="M446.873,622.743a5.17,5.17,0,0,0-7.995-6.557l-17.512,21.331a5.169,5.169,0,0,0,7.99,6.561Z" transform="translate(-6670.738 -711)" fill="#00a5b9" fill-rule="evenodd"/><path d="M461.927,618.474a5.167,5.167,0,1,0,3.559,9.7l24.375-8.946V608.655a5.09,5.09,0,0,0-2.014.306Z" transform="translate(-6670.738 -711)" fill="#00a5b9" fill-rule="evenodd"/><path d="M484.633,689.409a5.167,5.167,0,0,0-7.851,6.719l13.076,15.294v-15.9Z" transform="translate(-6670.738 -711)" fill="#00a5b9" fill-rule="evenodd"/><path d="M416.5,654.708l-7.619-26.538a5.164,5.164,0,1,0-9.925,2.854l7.614,26.537a5.166,5.166,0,1,0,9.93-2.853Z" transform="translate(-6670.738 -711)" fill="#00a5b9" fill-rule="evenodd"/><path d="M457.358,529.717a5.168,5.168,0,0,0-4.065-9.5L427.9,531.076a5.169,5.169,0,0,0,4.07,9.5Z" transform="translate(-6670.738 -711)" fill="#00a5b9" fill-rule="evenodd"/><path d="M364.754,483.682a5.21,5.21,0,0,0,4.654,5.633l37.131,3.536a5.171,5.171,0,0,0,5.633-4.659,4.4,4.4,0,0,0,.028-.5,5.1,5.1,0,0,0-1.118-3.1c-2.274-.729-4.552-1.5-6.8-2.112-.5-.134-1.007-.246-1.513-.376l-32.379-3.081A5.17,5.17,0,0,0,364.754,483.682Z" transform="translate(-6670.738 -711)" fill="#00a5b9" fill-rule="evenodd"/><path d="M489.052,572.661a5.106,5.106,0,0,0,.687-2.566,5.181,5.181,0,0,0-2.594-4.487l-23.953-13.735a5.167,5.167,0,0,0-5.15,8.96L482,574.573A5.164,5.164,0,0,0,489.052,572.661Z" transform="translate(-6670.738 -711)" fill="#00a5b9" fill-rule="evenodd"/><path d="M473.066,522.213a5.16,5.16,0,0,0,7.271.719,4.568,4.568,0,0,0,.366-.473c-5.781-4.395-11.642-8.473-17.549-12.325Z" transform="translate(-6670.738 -711)" fill="#00a5b9" fill-rule="evenodd"/><path d="M415.8,519.381a5.168,5.168,0,0,0,7.276-.678l17.637-21.243a3.076,3.076,0,0,0,.181-.32q-4.761-2.457-9.512-4.621L415.124,512.1A5.176,5.176,0,0,0,415.8,519.381Z" transform="translate(-6670.738 -711)" fill="#00a5b9" fill-rule="evenodd"/><path d="M405.1,554.708l25.869,9.651a5.163,5.163,0,0,0,6.65-3.034,5.03,5.03,0,0,0,.329-1.8,5.164,5.164,0,0,0-3.364-4.84l-25.869-9.652a5.166,5.166,0,1,0-3.615,9.68Z" transform="translate(-6670.738 -711)" fill="#00a5b9" fill-rule="evenodd"/><path d="M411.334,532.377a5.146,5.146,0,0,0-.775-2.71l-14.515-23.489a5.166,5.166,0,1,0-8.788,5.434l14.51,23.488a5.171,5.171,0,0,0,9.568-2.723Z" transform="translate(-6670.738 -711)" fill="#00a5b9" fill-rule="evenodd"/><path d="M366.82,500.149l-22.881-15.442a5.168,5.168,0,0,0-5.786,8.565l22.885,15.443a5.167,5.167,0,1,0,5.782-8.566Z" transform="translate(-6670.738 -711)" fill="#00a5b9" fill-rule="evenodd"/><path d="M455.484,668.311a5.167,5.167,0,1,0-3.234-9.814l-33.693,11.1a5.167,5.167,0,1,0,3.234,9.814Z" transform="translate(-6670.738 -711)" fill="#00a5b9" fill-rule="evenodd"/><path d="M295.137,647.58a5.174,5.174,0,0,0,.6,7.285l21.053,17.865a5.165,5.165,0,1,0,6.681-7.879l-21.052-17.865A5.169,5.169,0,0,0,295.137,647.58Z" transform="translate(-6670.738 -711)" fill="#00a5b9" fill-rule="evenodd"/><path d="M391.2,533.029c.009-.144.018-.288.018-.422a5.168,5.168,0,0,0-4.756-5.146L351.017,524.6a5.163,5.163,0,1,0-.831,10.292l35.446,2.868A5.173,5.173,0,0,0,391.2,533.029Z" transform="translate(-6670.738 -711)" fill="#00a5b9" fill-rule="evenodd"/><path d="M364.976,616.947a5.093,5.093,0,0,0,.4-1.986,5.172,5.172,0,0,0-3.193-4.77l-29.771-12.385a5.166,5.166,0,1,0-3.963,9.541l29.772,12.384A5.165,5.165,0,0,0,364.976,616.947Z" transform="translate(-6670.738 -711)" fill="#00a5b9" fill-rule="evenodd"/><path d="M476.151,585.97a5.154,5.154,0,0,0,3.16,6.589l10.548,3.717V585.32l-7.114-2.505A5.167,5.167,0,0,0,476.151,585.97Z" transform="translate(-6670.738 -711)" fill="#00a5b9" fill-rule="evenodd"/><path d="M488.5,528.565l-14.166,17.267a5.168,5.168,0,0,0,7.99,6.556l7.536-9.183V529.628C489.409,529.261,488.954,528.932,488.5,528.565Z" transform="translate(-6670.738 -711)" fill="#00a5b9" fill-rule="evenodd"/><path d="M383.754,635.6a5.168,5.168,0,0,0,2.613-4.5,5.092,5.092,0,0,0-.678-2.548,5.165,5.165,0,0,0-7.044-1.939L348.489,643.76a5.166,5.166,0,0,0,5.1,8.983Z" transform="translate(-6670.738 -711)" fill="#00a5b9" fill-rule="evenodd"/><path d="M394.018,685.064l7.132-26.672a5.346,5.346,0,0,0,.177-1.336,5.164,5.164,0,0,0-10.153-1.332l-7.132,26.667a5.164,5.164,0,1,0,9.976,2.673Z" transform="translate(-6670.738 -711)" fill="#00a5b9" fill-rule="evenodd"/><path d="M364.758,673.92a5.1,5.1,0,0,0,.622-2.436,5.172,5.172,0,0,0-2.729-4.561l-19.572-10.506a5.164,5.164,0,0,0-4.886,9.1l19.572,10.51A5.163,5.163,0,0,0,364.758,673.92Z" transform="translate(-6670.738 -711)" fill="#00a5b9" fill-rule="evenodd"/><path d="M253.753,535.7a5.171,5.171,0,0,0-9.164-3.281l-17.521,21.336a5.166,5.166,0,1,0,7.985,6.556l17.517-21.331A5.123,5.123,0,0,0,253.753,535.7Z" transform="translate(-6670.738 -711)" fill="#00a5b9" fill-rule="evenodd"/><path d="M267.484,615.474,248.2,587.786a5.17,5.17,0,0,0-8.483,5.912L259,621.381a5.168,5.168,0,1,0,8.482-5.907Z" transform="translate(-6670.738 -711)" fill="#00a5b9" fill-rule="evenodd"/><path d="M244.974,643.728a5.168,5.168,0,1,0-8.51-5.865l-16.639,24.156a5.168,5.168,0,0,0,8.51,5.866Z" transform="translate(-6670.738 -711)" fill="#00a5b9" fill-rule="evenodd"/><path d="M342.449,564.5a5.164,5.164,0,1,0-5.192-8.927l-23.869,13.883a5.167,5.167,0,1,0,5.2,8.932Z" transform="translate(-6670.738 -711)" fill="#00a5b9" fill-rule="evenodd"/><path d="M267.347,565.162l21.837,3.522a5.17,5.17,0,0,0,5.921-4.283,5.083,5.083,0,0,0,.074-.831,5.165,5.165,0,0,0-4.343-5.09l-21.841-3.517a5.166,5.166,0,1,0-1.648,10.2Z" transform="translate(-6670.738 -711)" fill="#00a5b9" fill-rule="evenodd"/><path d="M269.974,540.709l11.062-25.3a5.168,5.168,0,1,0-9.47-4.144L260.5,536.57a5.168,5.168,0,0,0,9.471,4.139Z" transform="translate(-6670.738 -711)" fill="#00a5b9" fill-rule="evenodd"/><path d="M276.907,591.733a5.163,5.163,0,0,0-1.754-7.09L251.512,570.37a5.169,5.169,0,0,0-5.346,8.849l23.642,14.268A5.179,5.179,0,0,0,276.907,591.733Z" transform="translate(-6670.738 -711)" fill="#00a5b9" fill-rule="evenodd"/><path d="M299.524,624.981a5.169,5.169,0,0,0,2.942,6.687L334.117,644a5.167,5.167,0,0,0,6.686-2.942,5.233,5.233,0,0,0,.358-1.87,5.18,5.18,0,0,0-3.3-4.821l-31.656-12.325A5.162,5.162,0,0,0,299.524,624.981Z" transform="translate(-6670.738 -711)" fill="#00a5b9" fill-rule="evenodd"/><path d="M280.555,622.893l-19.429,19.618a5.168,5.168,0,1,0,7.346,7.271L287.9,630.164a5.168,5.168,0,1,0-7.345-7.271Z" transform="translate(-6670.738 -711)" fill="#00a5b9" fill-rule="evenodd"/><path d="M268.326,491.612c-3.949,1.573-7.833,3.28-11.68,5.076l5.736,3.272a5.145,5.145,0,0,0,5.944-8.348Z" transform="translate(-6670.738 -711)" fill="#00a5b9" fill-rule="evenodd"/><path d="M284.512,485.889l-.265,5.327a5.089,5.089,0,0,0,4.9,5.415,5.154,5.154,0,0,0,5.415-4.9l.441-8.84Q289.717,484.262,284.512,485.889Z" transform="translate(-6670.738 -711)" fill="#00a5b9" fill-rule="evenodd"/><path d="M289.768,582.82a5.164,5.164,0,0,0-.692,7.276l17.591,21.294a5.168,5.168,0,0,0,7.967-6.584l-17.591-21.294A5.166,5.166,0,0,0,289.768,582.82Z" transform="translate(-6670.738 -711)" fill="#00a5b9" fill-rule="evenodd"/><path d="M247.419,699.94a5.166,5.166,0,0,0-6.933,7.661l19.373,17.521a5.168,5.168,0,0,0,6.933-7.665Z" transform="translate(-6670.738 -711)" fill="#00a5b9" fill-rule="evenodd"/><path d="M296.852,681.38l-17.526-21.331a5.164,5.164,0,1,0-7.981,6.556l17.521,21.336a5.168,5.168,0,1,0,7.986-6.561Z" transform="translate(-6670.738 -711)" fill="#00a5b9" fill-rule="evenodd"/><path d="M253.766,678.57a5.17,5.17,0,0,0-2.988-9.9l-26.449,7.972a5.17,5.17,0,0,0,2.992,9.9Z" transform="translate(-6670.738 -711)" fill="#00a5b9" fill-rule="evenodd"/><path d="M424.156,696.261a5.168,5.168,0,0,0-7.953-6.6L398.556,710.9a5.167,5.167,0,1,0,7.949,6.6Z" transform="translate(-6670.738 -711)" fill="#00a5b9" fill-rule="evenodd"/><path d="M400.507,740.288a5.165,5.165,0,0,0-1.736-7.1l-23.6-14.334a5.168,5.168,0,0,0-5.365,8.835l23.605,14.333A5.177,5.177,0,0,0,400.507,740.288Z" transform="translate(-6670.738 -711)" fill="#00a5b9" fill-rule="evenodd"/><path d="M350.6,739.1a5.146,5.146,0,0,0-1.2-3.3l-17.652-21.229a5.164,5.164,0,1,0-7.939,6.607l17.647,21.229A5.169,5.169,0,0,0,350.6,739.1Z" transform="translate(-6670.738 -711)" fill="#00a5b9" fill-rule="evenodd"/><path d="M333.986,689.848a5.165,5.165,0,0,0-7.072-1.837l-23.7,13.916a5.166,5.166,0,0,0,5.234,8.909l23.7-13.916a5.161,5.161,0,0,0,1.838-7.072Z" transform="translate(-6670.738 -711)" fill="#00a5b9" fill-rule="evenodd"/><path d="M377.592,703.365a5.168,5.168,0,0,0-5.364-8.835l-29.233,17.74a5.168,5.168,0,0,0,5.364,8.835Z" transform="translate(-6670.738 -711)" fill="#00a5b9" fill-rule="evenodd"/><path d="M450.862,733.02a5.17,5.17,0,0,0-4.214-5.072l-27.126-5.109a5.165,5.165,0,1,0-1.907,10.153l27.126,5.109a5.165,5.165,0,0,0,6.121-5.081Z" transform="translate(-6670.738 -711)" fill="#00a5b9" fill-rule="evenodd"/><path d="M464.373,718.333a5.129,5.129,0,0,0-1.071-3.141l-19.879-25.874a5.165,5.165,0,1,0-8.19,6.3l19.874,25.873a5.168,5.168,0,0,0,9.266-3.155Z" transform="translate(-6670.738 -711)" fill="#00a5b9" fill-rule="evenodd"/><path d="M315.974,551.5l-21.229-25.428a5.167,5.167,0,0,0-7.935,6.621l21.234,25.433a5.167,5.167,0,1,0,7.93-6.626Z" transform="translate(-6670.738 -711)" fill="#00a5b9" fill-rule="evenodd"/><path d="M321.583,502.949a5.164,5.164,0,0,0-5.193-8.928l-23.873,13.888a5.167,5.167,0,0,0,5.2,8.933Z" transform="translate(-6670.738 -711)" fill="#00a5b9" fill-rule="evenodd"/><path d="M327.4,540.977l12.413-24.658a5.167,5.167,0,1,0-9.23-4.649l-12.412,24.662a5.166,5.166,0,0,0,9.229,4.645Z" transform="translate(-6670.738 -711)" fill="#00a5b9" fill-rule="evenodd"/><path d="M470.057,591.308a5.141,5.141,0,0,0-1.174-3.276l-17.512-21.35a5.17,5.17,0,0,0-7.995,6.557l17.516,21.349a5.173,5.173,0,0,0,9.165-3.28Z" transform="translate(-6670.738 -711)" fill="#00a5b9" fill-rule="evenodd"/><path d="M262.816,517.967c.014-.163.028-.325.028-.483a5.172,5.172,0,0,0-4.691-5.141l-25.684-2.4c-2.742,1.749-5.429,3.582-8.078,5.461a5.1,5.1,0,0,0,4.552,4.589l28.249,2.636A5.166,5.166,0,0,0,262.816,517.967Z" transform="translate(-6670.738 -711)" fill="#00a5b9" fill-rule="evenodd"/><path d="M358.038,540.4a5.156,5.156,0,0,0,.274,7.3l26.649,24.765a5.167,5.167,0,1,0,7.03-7.573l-26.649-24.765A5.175,5.175,0,0,0,358.038,540.4Z" transform="translate(-6670.738 -711)" fill="#00a5b9" fill-rule="evenodd"/><path d="M286.99,714.577a5.154,5.154,0,0,0-.9-2.914l-15.6-22.784a5.168,5.168,0,0,0-8.529,5.838l15.6,22.783a5.168,5.168,0,0,0,9.433-2.923Z" transform="translate(-6670.738 -711)" fill="#00a5b9" fill-rule="evenodd"/><path d="M371.03,581.248a5.168,5.168,0,0,0,4.037-5.034,5.385,5.385,0,0,0-.13-1.142,5.167,5.167,0,0,0-6.172-3.907l-32.574,7.327a5.17,5.17,0,0,0,2.269,10.088Z" transform="translate(-6670.738 -711)" fill="#00a5b9" fill-rule="evenodd"/><path d="M253.929,623.88a4.436,4.436,0,0,0,.032-.548,5.173,5.173,0,0,0-4.63-5.136L221.875,615.3a5.169,5.169,0,0,0-1.082,10.282l27.456,2.887A5.163,5.163,0,0,0,253.929,623.88Z" transform="translate(-6670.738 -711)" fill="#00a5b9" fill-rule="evenodd"/><path d="M240.488,741.874a5.17,5.17,0,0,0,6.047,4.112l33.9-6.464a5.157,5.157,0,0,0,4.2-5.067,5.059,5.059,0,0,0-.1-.975,5.159,5.159,0,0,0-6.046-4.1L244.6,735.833A5.141,5.141,0,0,0,240.488,741.874Z" transform="translate(-6670.738 -711)" fill="#00a5b9" fill-rule="evenodd"/><path d="M466.1,737.469a5.165,5.165,0,0,0-7.272.715L446.008,753.8l-4.7,5.726a5.168,5.168,0,0,0,7.99,6.556L459.381,753.8l7.434-9.063a5.16,5.16,0,0,0-.719-7.271Z" transform="translate(-6670.738 -711)" fill="#00a5b9" fill-rule="evenodd"/><path d="M414.536,747.7a5.165,5.165,0,1,0-9.93,2.849l.937,3.253,6.672,23.289a5.167,5.167,0,1,0,9.935-2.845L416.285,753.8Z" transform="translate(-6670.738 -711)" fill="#00a5b9" fill-rule="evenodd"/><path d="M368.923,742.966l-23.869,13.888a5.167,5.167,0,1,0,5.2,8.932L374.116,751.9a5.166,5.166,0,1,0-5.193-8.932Z" transform="translate(-6670.738 -711)" fill="#00a5b9" fill-rule="evenodd"/><path d="M485.395,731.144a5.192,5.192,0,0,0-3.949,6.148l5.893,26.987a5.083,5.083,0,0,0,2.52,3.346V732.387A5.064,5.064,0,0,0,485.395,731.144Z" transform="translate(-6670.738 -711)" fill="#00a5b9" fill-rule="evenodd"/><path d="M330.32,744.742c.009-.13.014-.264.014-.394a5.17,5.17,0,0,0-10.324-.39l-2.1,27.539a5.171,5.171,0,0,0,10.311.789Z" transform="translate(-6670.738 -711)" fill="#00a5b9" fill-rule="evenodd"/><path d="M234.271,576.444a5.286,5.286,0,0,0,.256-1.6,5.171,5.171,0,0,0-3.573-4.91l-35.465-11.558a5.167,5.167,0,1,0-3.2,9.827l35.469,11.555A5.165,5.165,0,0,0,234.271,576.444Z" transform="translate(-6670.738 -711)" fill="#00a5b9" fill-rule="evenodd"/><path d="M216.821,677.931a5.12,5.12,0,0,0-.983-3.021l-15.174-20.992a5.166,5.166,0,1,0-8.371,6.055l15.169,20.988a5.171,5.171,0,0,0,9.359-3.03Z" transform="translate(-6670.738 -711)" fill="#00a5b9" fill-rule="evenodd"/><path d="M234.581,534.226c0-.014,0-.028,0-.042a5.159,5.159,0,0,0-5.211-5.123l-21.141.177a5.069,5.069,0,0,0-1.545.324c-1.072.966-2.148,1.931-3.192,2.924a5.066,5.066,0,0,0-.385,1.916c0,.019,0,.028,0,.047a5.161,5.161,0,0,0,5.211,5.122l21.141-.181A5.166,5.166,0,0,0,234.581,534.226Z" transform="translate(-6670.738 -711)" fill="#00a5b9" fill-rule="evenodd"/><path d="M154.582,921.863a5.189,5.189,0,0,0-6.144-5.081l-27.126,5.2a5.167,5.167,0,1,0,1.949,10.148l27.126-5.192A5.182,5.182,0,0,0,154.582,921.863Z" transform="translate(-6670.738 -711)" fill="#00a5b9" fill-rule="evenodd"/><path d="M119.481,1018.86a4.805,4.805,0,0,0,.093-.96,5.17,5.17,0,0,0-4.218-5.07l-27.136-5.11a5.164,5.164,0,1,0-1.907,10.15l27.136,5.11A5.16,5.16,0,0,0,119.481,1018.86Z" transform="translate(-6670.738 -711)" fill="#00a5b9" fill-rule="evenodd"/><path d="M86.981,1066.1a5.171,5.171,0,0,0,7.271-.71l17.516-21.35a5.159,5.159,0,0,0-.719-7.27,5.172,5.172,0,0,0-7.271.71l-17.517,21.35A5.159,5.159,0,0,0,86.981,1066.1Z" transform="translate(-6670.738 -711)" fill="#00a5b9" fill-rule="evenodd"/><path d="M93.448,1000.2l25.924-9.51a5.167,5.167,0,1,0-3.559-9.7L89.893,990.5a5.437,5.437,0,0,0-.738.455c-.817,1.708-1.661,3.392-2.5,5.09a5.077,5.077,0,0,0,.167,1.086A5.16,5.16,0,0,0,93.448,1000.2Z" transform="translate(-6670.738 -711)" fill="#00a5b9" fill-rule="evenodd"/><path d="M169.2,976.322a5.178,5.178,0,0,0,2.1-4.162,5.122,5.122,0,0,0-1.017-3.068l-16.417-22.217a5.169,5.169,0,0,0-8.31,6.148l16.417,22.213A5.172,5.172,0,0,0,169.2,976.322Z" transform="translate(-6670.738 -711)" fill="#00a5b9" fill-rule="evenodd"/><path d="M151.867,1018.41l23.637,14.26a5.164,5.164,0,1,0,5.341-8.84l-23.633-14.27a5.169,5.169,0,0,0-5.345,8.85Z" transform="translate(-6670.738 -711)" fill="#00a5b9" fill-rule="evenodd"/><path d="M117.02,944.688a5.169,5.169,0,0,0-1.907-7.057l-3.694-2.116c-1.09,3.336-2.241,6.649-3.415,9.957l1.963,1.128A5.168,5.168,0,0,0,117.02,944.688Z" transform="translate(-6670.738 -711)" fill="#00a5b9" fill-rule="evenodd"/><path d="M196.09,855.142a5.167,5.167,0,0,0-9.183-3.257l-17.386,21.442a5.169,5.169,0,0,0,8.032,6.51l17.386-21.447A5.141,5.141,0,0,0,196.09,855.142Z" transform="translate(-6670.738 -711)" fill="#00a5b9" fill-rule="evenodd"/><path d="M151.106,1064.12a5.161,5.161,0,0,0-1.216-7.2L127.4,1040.89a5.171,5.171,0,0,0-5.991,8.43l22.482,16.01A5.164,5.164,0,0,0,151.106,1064.12Z" transform="translate(-6670.738 -711)" fill="#00a5b9" fill-rule="evenodd"/><path d="M87,1035.43a5.232,5.232,0,0,0-.26-1.62,5.171,5.171,0,0,0-6.529-3.29l-15.586,5.14q-4.322,6.99-8.886,13.81l27.711-9.13A5.178,5.178,0,0,0,87,1035.43Z" transform="translate(-6670.738 -711)" fill="#00a5b9" fill-rule="evenodd"/><path d="M140.2,968.886a5.174,5.174,0,0,0-3.448-4.877l-26.036-9.169a5.17,5.17,0,0,0-3.443,9.749l26.041,9.174A5.177,5.177,0,0,0,139.9,970.6,5.267,5.267,0,0,0,140.2,968.886Z" transform="translate(-6670.738 -711)" fill="#00a5b9" fill-rule="evenodd"/><path d="M128.983,899.795a5.181,5.181,0,0,0-1.893-3.995,5.063,5.063,0,0,0-4.4-.96q-2.394,10.509-5.276,20.908l10.4-12.677A5.141,5.141,0,0,0,128.983,899.795Z" transform="translate(-6670.738 -711)" fill="#00a5b9" fill-rule="evenodd"/><path d="M198.515,963.507a5.153,5.153,0,0,0-.775-2.715l-14.519-23.484a5.165,5.165,0,1,0-8.789,5.429l14.515,23.489a5.17,5.17,0,0,0,9.568-2.719Z" transform="translate(-6670.738 -711)" fill="#00a5b9" fill-rule="evenodd"/><path d="M135.558,794.117a5.155,5.155,0,0,0-1.03,1.276c-.061,1.656-.126,3.308-.2,4.965a4.856,4.856,0,0,0,.557,1.034l17.642,21.243a5.165,5.165,0,1,0,7.949-6.6l-17.642-21.243A5.162,5.162,0,0,0,135.558,794.117Z" transform="translate(-6670.738 -711)" fill="#00a5b9" fill-rule="evenodd"/><path d="M135.433,767.522c-.079,2.8-.158,5.587-.242,8.385.14.1.218.241.362.329L159.2,790.505a5.166,5.166,0,0,0,7.095-1.754,5.08,5.08,0,0,0,.752-2.664,5.182,5.182,0,0,0-2.5-4.426L140.9,767.392A5.135,5.135,0,0,0,135.433,767.522Z" transform="translate(-6670.738 -711)" fill="#00a5b9" fill-rule="evenodd"/><path d="M163.571,843.506a5.169,5.169,0,0,0,4.162-5.067,5.39,5.39,0,0,0-.1-1.007,5.174,5.174,0,0,0-6.074-4.07l-29.85,5.921c-.223,2.325-.45,4.65-.71,6.96-.139,1.267-.353,2.529-.5,3.8a.961.961,0,0,1,.107,0Z" transform="translate(-6670.738 -711)" fill="#00a5b9" fill-rule="evenodd"/><path d="M154.532,1052.28a5.159,5.159,0,0,0,5.54,4.76l27.535-2.08a5.168,5.168,0,0,0,4.779-5.15c0-.13-.009-.26-.018-.39a5.188,5.188,0,0,0-5.541-4.77l-27.535,2.09A5.121,5.121,0,0,0,154.532,1052.28Z" transform="translate(-6670.738 -711)" fill="#00a5b9" fill-rule="evenodd"/><path d="M124.161,990.573a5.17,5.17,0,0,0-2.891,6.714l10.2,25.643a5.17,5.17,0,0,0,9.972-1.91,5.27,5.27,0,0,0-.371-1.91l-10.2-25.642A5.164,5.164,0,0,0,124.161,990.573Z" transform="translate(-6670.738 -711)" fill="#00a5b9" fill-rule="evenodd"/><path d="M190.6,988.43a5.168,5.168,0,0,0-4.4-9.35L158.752,992a5.166,5.166,0,0,0,4.4,9.347Z" transform="translate(-6670.738 -711)" fill="#00a5b9" fill-rule="evenodd"/><path d="M157.826,865.783A5.168,5.168,0,0,0,147.8,864.01l-9.47,25.934a5.17,5.17,0,1,0,9.712,3.55l9.47-25.934A5.184,5.184,0,0,0,157.826,865.783Z" transform="translate(-6670.738 -711)" fill="#00a5b9" fill-rule="evenodd"/><path d="M131.746,873.744a5.166,5.166,0,1,0,2.529-10.018l-5.424-1.369c-.511,3.42-1.1,6.826-1.7,10.232Z" transform="translate(-6670.738 -711)" fill="#00a5b9" fill-rule="evenodd"/><path d="M156.883,887.279a5.157,5.157,0,0,0-3.462,6.436l7.953,26.44a5.168,5.168,0,0,0,10.116-1.485,5.241,5.241,0,0,0-.218-1.494l-7.949-26.44A5.172,5.172,0,0,0,156.883,887.279Z" transform="translate(-6670.738 -711)" fill="#00a5b9" fill-rule="evenodd"/><path d="M196.422,797.112a5.166,5.166,0,1,0-4.065-9.5l-25.386,10.863a5.169,5.169,0,0,0,4.069,9.5Z" transform="translate(-6670.738 -711)" fill="#00a5b9" fill-rule="evenodd"/><path d="M135.553,762.995a5.09,5.09,0,0,0,4.389-1.782l17.526-21.336a5.171,5.171,0,0,0-7.995-6.561l-13.554,16.51Q135.732,756.4,135.553,762.995Z" transform="translate(-6670.738 -711)" fill="#00a5b9" fill-rule="evenodd"/><path d="M193.443,765.995a5.164,5.164,0,0,0-1.193-3.3l-17.642-21.243a5.168,5.168,0,1,0-7.949,6.608L184.3,769.3a5.17,5.17,0,0,0,9.146-3.3Z" transform="translate(-6670.738 -711)" fill="#00a5b9" fill-rule="evenodd"/><path d="M134.712,819.208a5.154,5.154,0,0,0,.051-7.308,4.89,4.89,0,0,0-.97-.655q-.257,4.727-.57,9.429Z" transform="translate(-6670.738 -711)" fill="#00a5b9" fill-rule="evenodd"/><path d="M183.478,898.213l-6.273,19.559a5.168,5.168,0,0,0,9.842,3.155l6.273-19.554a5.233,5.233,0,0,0,.251-1.577,5.171,5.171,0,0,0-10.093-1.583Z" transform="translate(-6670.738 -711)" fill="#00a5b9" fill-rule="evenodd"/><path d="M175.779,822.152l25.029,11.3a5.17,5.17,0,0,0,4.255-9.424l-25.029-11.3a5.168,5.168,0,1,0-4.255,9.419Z" transform="translate(-6670.738 -711)" fill="#00a5b9" fill-rule="evenodd"/><path d="M197.739,989.966a5.174,5.174,0,0,0,7.206,1.244l27.447-19.378a5.169,5.169,0,0,0-5.963-8.445l-27.451,19.378A5.167,5.167,0,0,0,197.739,989.966Z" transform="translate(-6670.738 -711)" fill="#00a5b9" fill-rule="evenodd"/><path d="M181.921,1017.49a5.18,5.18,0,0,0,5.958,4.24l27.219-4.62a5.17,5.17,0,0,0,4.311-5.09,5.657,5.657,0,0,0-.074-.87,5.166,5.166,0,0,0-5.963-4.23l-27.219,4.62A5.16,5.16,0,0,0,181.921,1017.49Z" transform="translate(-6670.738 -711)" fill="#00a5b9" fill-rule="evenodd"/><path d="M193.233,888.417a5.17,5.17,0,0,0,7.035,1.986L221.6,878.468a5.168,5.168,0,0,0-5.049-9.02l-21.331,11.934A5.167,5.167,0,0,0,193.233,888.417Z" transform="translate(-6670.738 -711)" fill="#00a5b9" fill-rule="evenodd"/><path d="M442.827,976.163a5.155,5.155,0,0,0-1.75-7.09L417.45,954.781a5.164,5.164,0,1,0-5.341,8.84l23.628,14.291A5.164,5.164,0,0,0,442.827,976.163Z" transform="translate(-6670.738 -711)" fill="#00a5b9" fill-rule="evenodd"/><path d="M396.238,964.413a5.1,5.1,0,0,0-.635-2.464,5.161,5.161,0,0,0-7-2.069l-20.812,11.345a5.167,5.167,0,0,0,4.947,9.072l20.806-11.341A5.162,5.162,0,0,0,396.238,964.413Z" transform="translate(-6670.738 -711)" fill="#00a5b9" fill-rule="evenodd"/><path d="M422.313,983.7a5.166,5.166,0,0,0-5.4-4.924l-31.1,1.439a5.167,5.167,0,0,0,.474,10.324L417.39,989.1a5.167,5.167,0,0,0,4.932-5.155C422.322,983.857,422.317,983.778,422.313,983.7Z" transform="translate(-6670.738 -711)" fill="#00a5b9" fill-rule="evenodd"/><path d="M489.245,928.025a4.833,4.833,0,0,0,.612,1.49v-4.923A5.073,5.073,0,0,0,489.245,928.025Z" transform="translate(-6670.738 -711)" fill="#00a5b9" fill-rule="evenodd"/><path d="M487.388,1012.83l-27.136-5.11a5.169,5.169,0,0,0-1.912,10.16l27.141,5.1a5.027,5.027,0,0,0,4.375-1.32v-7.52A4.948,4.948,0,0,0,487.388,1012.83Z" transform="translate(-6670.738 -711)" fill="#00a5b9" fill-rule="evenodd"/><path d="M483.8,1044.04a5.171,5.171,0,0,0-7.995-6.56L458.3,1058.83a5.169,5.169,0,0,0,7.991,6.56Z" transform="translate(-6670.738 -711)" fill="#00a5b9" fill-rule="evenodd"/><path d="M446.873,994.769a5.17,5.17,0,0,0-7.995-6.556l-17.512,21.337a5.166,5.166,0,0,0,7.99,6.55Z" transform="translate(-6670.738 -711)" fill="#00a5b9" fill-rule="evenodd"/><path d="M461.927,990.5a5.166,5.166,0,1,0,3.559,9.7l24.375-8.943V980.682a5.055,5.055,0,0,0-2.014.306Z" transform="translate(-6670.738 -711)" fill="#00a5b9" fill-rule="evenodd"/><path d="M416.5,1026.74l-7.619-26.55a5.164,5.164,0,0,0-9.925,2.86l7.614,26.54a5.168,5.168,0,0,0,10.134-1.42A5.079,5.079,0,0,0,416.5,1026.74Z" transform="translate(-6670.738 -711)" fill="#00a5b9" fill-rule="evenodd"/><path d="M457.358,901.744a5.168,5.168,0,0,0-4.065-9.5L427.9,903.1a5.169,5.169,0,0,0,4.07,9.5Z" transform="translate(-6670.738 -711)" fill="#00a5b9" fill-rule="evenodd"/><path d="M412.2,859.723a5.166,5.166,0,0,0-4.682-5.136l-37.13-3.536a5.169,5.169,0,0,0-5.634,4.658,5.225,5.225,0,0,0,4.655,5.634l37.13,3.526a5.157,5.157,0,0,0,5.634-4.654A4.562,4.562,0,0,0,412.2,859.723Z" transform="translate(-6670.738 -711)" fill="#00a5b9" fill-rule="evenodd"/><path d="M489.05,944.688a5.107,5.107,0,0,0,.687-2.57,5.181,5.181,0,0,0-2.594-4.487L463.19,923.9a5.169,5.169,0,0,0-5.15,8.964L482,946.6A5.169,5.169,0,0,0,489.05,944.688Z" transform="translate(-6670.738 -711)" fill="#00a5b9" fill-rule="evenodd"/><path d="M456.271,865.628a5.164,5.164,0,0,0-.719,7.267l17.512,21.345a5.169,5.169,0,0,0,9.164-3.281,5.1,5.1,0,0,0-1.174-3.271l-17.512-21.345A5.164,5.164,0,0,0,456.271,865.628Z" transform="translate(-6670.738 -711)" fill="#00a5b9" fill-rule="evenodd"/><path d="M432.762,862.886l-17.638,21.243a5.169,5.169,0,0,0,7.954,6.6l17.637-21.243a5.168,5.168,0,1,0-7.953-6.6Z" transform="translate(-6670.738 -711)" fill="#00a5b9" fill-rule="evenodd"/><path d="M405.1,926.739l25.869,9.647a5.168,5.168,0,0,0,6.65-3.035,5.052,5.052,0,0,0,.329-1.81,5.162,5.162,0,0,0-3.364-4.839l-25.869-9.652a5.171,5.171,0,0,0-3.615,9.689Z" transform="translate(-6670.738 -711)" fill="#00a5b9" fill-rule="evenodd"/><path d="M388.933,876.526a5.171,5.171,0,0,0-1.68,7.114l14.514,23.488a5.166,5.166,0,1,0,8.789-5.433l-14.515-23.489A5.164,5.164,0,0,0,388.933,876.526Z" transform="translate(-6670.738 -711)" fill="#00a5b9" fill-rule="evenodd"/><path d="M366.82,872.171l-22.881-15.438a5.169,5.169,0,0,0-5.786,8.566l22.885,15.438a5.167,5.167,0,1,0,5.782-8.566Z" transform="translate(-6670.738 -711)" fill="#00a5b9" fill-rule="evenodd"/><path d="M455.482,1040.34a5.169,5.169,0,0,0-3.234-9.82l-33.693,11.1a5.169,5.169,0,0,0,3.234,9.82Z" transform="translate(-6670.738 -711)" fill="#00a5b9" fill-rule="evenodd"/><path d="M295.137,1019.61a5.167,5.167,0,0,0,.6,7.28l21.053,17.87a5.166,5.166,0,1,0,6.681-7.88l-21.052-17.87A5.167,5.167,0,0,0,295.137,1019.61Z" transform="translate(-6670.738 -711)" fill="#00a5b9" fill-rule="evenodd"/><path d="M350.186,906.923l35.446,2.863a5.166,5.166,0,0,0,5.564-4.729c.009-.148.019-.287.019-.422a5.18,5.18,0,0,0-4.757-5.15l-35.441-2.863a5.167,5.167,0,1,0-.831,10.3Z" transform="translate(-6670.738 -711)" fill="#00a5b9" fill-rule="evenodd"/><path d="M364.976,988.973a5.093,5.093,0,0,0,.4-1.986,5.172,5.172,0,0,0-3.193-4.77l-29.771-12.389a5.165,5.165,0,0,0-3.963,9.54l29.772,12.39A5.165,5.165,0,0,0,364.976,988.973Z" transform="translate(-6670.738 -711)" fill="#00a5b9" fill-rule="evenodd"/><path d="M476.15,958a5.151,5.151,0,0,0,3.159,6.589l10.548,3.721v-10.96l-7.114-2.506A5.166,5.166,0,0,0,476.15,958Z" transform="translate(-6670.738 -711)" fill="#00a5b9" fill-rule="evenodd"/><path d="M475.054,925.13a5.161,5.161,0,0,0,7.266-.71l7.536-9.183v-16.3l-15.521,18.923A5.163,5.163,0,0,0,475.054,925.13Z" transform="translate(-6670.738 -711)" fill="#00a5b9" fill-rule="evenodd"/><path d="M383.754,1007.62a5.148,5.148,0,0,0,2.613-4.49,5.089,5.089,0,0,0-.678-2.55,5.173,5.173,0,0,0-7.044-1.943l-30.156,17.153a5.165,5.165,0,1,0,5.1,8.98Z" transform="translate(-6670.738 -711)" fill="#00a5b9" fill-rule="evenodd"/><path d="M394.016,1057.09l7.132-26.67a5.317,5.317,0,0,0,.177-1.34,5.164,5.164,0,0,0-10.153-1.33l-7.132,26.67a5.164,5.164,0,0,0,9.976,2.67Z" transform="translate(-6670.738 -711)" fill="#00a5b9" fill-rule="evenodd"/><path d="M364.758,1045.95a5.151,5.151,0,0,0-2.107-7l-19.572-10.51a5.164,5.164,0,0,0-4.886,9.1l19.572,10.51A5.165,5.165,0,0,0,364.758,1045.95Z" transform="translate(-6670.738 -711)" fill="#00a5b9" fill-rule="evenodd"/><path d="M285.6,828.724a2.5,2.5,0,0,0-.014-.259,5.157,5.157,0,0,0-5.411-4.905L246.927,825.2a5.168,5.168,0,0,0,.505,10.324l33.252-1.642A5.169,5.169,0,0,0,285.6,828.724Z" transform="translate(-6670.738 -711)" fill="#00a5b9" fill-rule="evenodd"/><path d="M253.751,907.734a5.171,5.171,0,0,0-9.164-3.285l-17.521,21.336a5.166,5.166,0,0,0,7.985,6.556l17.517-21.331A5.12,5.12,0,0,0,253.751,907.734Z" transform="translate(-6670.738 -711)" fill="#00a5b9" fill-rule="evenodd"/><path d="M267.482,987.5l-19.289-27.688a5.17,5.17,0,0,0-8.483,5.912L259,993.408a5.168,5.168,0,1,0,8.482-5.907Z" transform="translate(-6670.738 -711)" fill="#00a5b9" fill-rule="evenodd"/><path d="M244.974,1015.75a5.1,5.1,0,0,0,.915-2.92,5.17,5.17,0,0,0-9.425-2.94l-16.639,24.16a5.166,5.166,0,0,0,8.51,5.86Z" transform="translate(-6670.738 -711)" fill="#00a5b9" fill-rule="evenodd"/><path d="M342.449,936.527a5.166,5.166,0,0,0-5.192-8.932l-23.869,13.888a5.167,5.167,0,1,0,5.2,8.932Z" transform="translate(-6670.738 -711)" fill="#00a5b9" fill-rule="evenodd"/><path d="M267.345,937.188l21.837,3.522a5.168,5.168,0,1,0,1.652-10.2l-21.841-3.522a5.168,5.168,0,0,0-1.648,10.2Z" transform="translate(-6670.738 -711)" fill="#00a5b9" fill-rule="evenodd"/><path d="M269.974,912.737l11.062-25.3a5.169,5.169,0,0,0-9.47-4.144l-11.063,25.3a5.169,5.169,0,0,0,9.471,4.144Z" transform="translate(-6670.738 -711)" fill="#00a5b9" fill-rule="evenodd"/><path d="M276.907,963.756a5.163,5.163,0,0,0-1.754-7.09L251.512,942.4a5.169,5.169,0,0,0-5.346,8.849l23.642,14.264A5.175,5.175,0,0,0,276.907,963.756Z" transform="translate(-6670.738 -711)" fill="#00a5b9" fill-rule="evenodd"/><path d="M372.721,838.987a5.166,5.166,0,0,0-1.294-3.415l-21.869-24.778a5.168,5.168,0,0,0-7.754,6.834l21.874,24.779a5.168,5.168,0,0,0,9.043-3.42Z" transform="translate(-6670.738 -711)" fill="#00a5b9" fill-rule="evenodd"/><path d="M299.524,997.008a5.161,5.161,0,0,0,2.942,6.682l31.651,12.33a5.16,5.16,0,0,0,6.686-2.94,5.147,5.147,0,0,0-2.941-6.69l-31.656-12.324A5.166,5.166,0,0,0,299.524,997.008Z" transform="translate(-6670.738 -711)" fill="#00a5b9" fill-rule="evenodd"/><path d="M280.555,994.919l-19.429,19.621a5.168,5.168,0,1,0,7.346,7.27l19.428-19.62a5.168,5.168,0,0,0-7.345-7.271Z" transform="translate(-6670.738 -711)" fill="#00a5b9" fill-rule="evenodd"/><path d="M267.505,863.013l-25.169-14.357a5.169,5.169,0,0,0-5.122,8.979l25.168,14.352a5.167,5.167,0,1,0,5.123-8.974Z" transform="translate(-6670.738 -711)" fill="#00a5b9" fill-rule="evenodd"/><path d="M301.713,838.516a5.168,5.168,0,0,0,5.271,5.063l27.609-.571a5.175,5.175,0,0,0,5.067-5.164c0-.038,0-.07,0-.112a5.171,5.171,0,0,0-5.272-5.058l-27.609.566A5.35,5.35,0,0,0,301.713,838.516Z" transform="translate(-6670.738 -711)" fill="#00a5b9" fill-rule="evenodd"/><path d="M295.939,835.92a5.168,5.168,0,0,0-10.33-.251l-1.364,27.582a5.1,5.1,0,0,0,4.9,5.41,5.161,5.161,0,0,0,5.415-4.905l1.364-27.576C295.934,836.092,295.939,836.008,295.939,835.92Z" transform="translate(-6670.738 -711)" fill="#00a5b9" fill-rule="evenodd"/><path d="M289.767,954.847a5.168,5.168,0,0,0-.692,7.272l17.591,21.3a5.168,5.168,0,0,0,7.967-6.584l-17.591-21.294A5.166,5.166,0,0,0,289.767,954.847Z" transform="translate(-6670.738 -711)" fill="#00a5b9" fill-rule="evenodd"/><path d="M434.977,839.7,409.59,828.841a5.166,5.166,0,1,0-4.069,9.5L430.912,849.2a5.166,5.166,0,1,0,4.065-9.5Z" transform="translate(-6670.738 -711)" fill="#00a5b9" fill-rule="evenodd"/><path d="M484.963,792.631l-27.224,4.617a5.167,5.167,0,0,0,1.726,10.189l27.229-4.617a5.142,5.142,0,0,0,3.164-1.888V794.6A5.109,5.109,0,0,0,484.963,792.631Z" transform="translate(-6670.738 -711)" fill="#00a5b9" fill-rule="evenodd"/><path d="M450.171,783.386l-25.665,10.181a5.166,5.166,0,1,0,3.8,9.6l25.665-10.185a5.164,5.164,0,1,0-3.805-9.6Z" transform="translate(-6670.738 -711)" fill="#00a5b9" fill-rule="evenodd"/><path d="M365.307,773.1a5.17,5.17,0,0,0-10.324-.385L352.89,800.25a5.17,5.17,0,0,0,10.31.784l2.093-27.539C365.3,773.36,365.307,773.226,365.307,773.1Z" transform="translate(-6670.738 -711)" fill="#00a5b9" fill-rule="evenodd"/><path d="M465.793,757.811a5.171,5.171,0,0,0-.673,7.276l17.661,21.238a5.144,5.144,0,0,0,7.081.77v-8.417l-16.8-20.194A5.16,5.16,0,0,0,465.793,757.811Z" transform="translate(-6670.738 -711)" fill="#00a5b9" fill-rule="evenodd"/><path d="M474.421,831.869a5.163,5.163,0,0,0-2.511-6.863l-25.038-11.629a5.165,5.165,0,1,0-4.353,9.369l25.039,11.633A5.168,5.168,0,0,0,474.421,831.869Z" transform="translate(-6670.738 -711)" fill="#00a5b9" fill-rule="evenodd"/><path d="M402.4,760.348a5.167,5.167,0,0,0-8.979-3.489L374.779,777.22A5.166,5.166,0,0,0,382.4,784.2l18.649-20.361A5.164,5.164,0,0,0,402.4,760.348Z" transform="translate(-6670.738 -711)" fill="#00a5b9" fill-rule="evenodd"/><path d="M296.85,1053.41l-17.526-21.34a5.166,5.166,0,1,0-7.981,6.56l17.521,21.33a5.164,5.164,0,1,0,7.986-6.55Z" transform="translate(-6670.738 -711)" fill="#00a5b9" fill-rule="evenodd"/><path d="M253.766,1050.59a5.161,5.161,0,0,0,3.675-4.94,5.228,5.228,0,0,0-.223-1.5,5.161,5.161,0,0,0-6.44-3.45l-26.449,7.98a5.166,5.166,0,0,0,2.992,9.89Z" transform="translate(-6670.738 -711)" fill="#00a5b9" fill-rule="evenodd"/><path d="M413.113,818.007l3.086-27.438c.019-.195.037-.389.037-.584a5.169,5.169,0,0,0-10.306-.566l-3.09,27.432a5.24,5.24,0,0,0,4.561,5.712A5.166,5.166,0,0,0,413.113,818.007Z" transform="translate(-6670.738 -711)" fill="#00a5b9" fill-rule="evenodd"/><path d="M238.118,781.9a5.158,5.158,0,0,0-1.679,7.109l14.514,23.5a5.165,5.165,0,1,0,8.789-5.429l-14.515-23.5A5.17,5.17,0,0,0,238.118,781.9Z" transform="translate(-6670.738 -711)" fill="#00a5b9" fill-rule="evenodd"/><path d="M302.426,812.361a5.17,5.17,0,0,0-3.16-6.589L273.225,796.6a5.166,5.166,0,1,0-3.433,9.744l26.04,9.174A5.174,5.174,0,0,0,302.426,812.361Z" transform="translate(-6670.738 -711)" fill="#00a5b9" fill-rule="evenodd"/><path d="M315.974,923.526,294.745,898.1a5.168,5.168,0,0,0-7.935,6.622l21.234,25.432a5.167,5.167,0,1,0,7.93-6.626Z" transform="translate(-6670.738 -711)" fill="#00a5b9" fill-rule="evenodd"/><path d="M324.156,870.508a5.171,5.171,0,0,0-7.768-4.459l-23.869,13.888a5.167,5.167,0,1,0,5.2,8.932l23.865-13.888A5.165,5.165,0,0,0,324.156,870.508Z" transform="translate(-6670.738 -711)" fill="#00a5b9" fill-rule="evenodd"/><path d="M340.365,886.024a5.17,5.17,0,0,0-9.786-2.33l-12.412,24.663A5.166,5.166,0,1,0,327.4,913l12.413-24.663A5.118,5.118,0,0,0,340.365,886.024Z" transform="translate(-6670.738 -711)" fill="#00a5b9" fill-rule="evenodd"/><path d="M470.057,963.33a5.141,5.141,0,0,0-1.174-3.276l-17.512-21.345a5.17,5.17,0,0,0-7.995,6.557l17.516,21.345a5.172,5.172,0,0,0,9.165-3.281Z" transform="translate(-6670.738 -711)" fill="#00a5b9" fill-rule="evenodd"/><path d="M257.191,894.656a5.167,5.167,0,0,0,5.624-4.668c.014-.158.028-.32.028-.478a5.174,5.174,0,0,0-4.691-5.146L229.9,881.733a5.166,5.166,0,1,0-.956,10.288Z" transform="translate(-6670.738 -711)" fill="#00a5b9" fill-rule="evenodd"/><path d="M473.268,860.72a5.173,5.173,0,0,0,3.75,6.279l12.839,3.234V859.579l-10.315-2.6A5.164,5.164,0,0,0,473.268,860.72Z" transform="translate(-6670.738 -711)" fill="#00a5b9" fill-rule="evenodd"/><path d="M358.037,912.424a5.17,5.17,0,0,0,.274,7.3l26.648,24.76a5.167,5.167,0,1,0,7.03-7.573l-26.648-24.76A5.17,5.17,0,0,0,358.037,912.424Z" transform="translate(-6670.738 -711)" fill="#00a5b9" fill-rule="evenodd"/><path d="M308.056,750.538a5.215,5.215,0,0,0-.153-1.243l-6.6-26.807a5.164,5.164,0,0,0-10.027,2.473l6.6,26.811a5.165,5.165,0,0,0,10.18-1.234Z" transform="translate(-6670.738 -711)" fill="#00a5b9" fill-rule="evenodd"/><path d="M333.9,784.6a5.065,5.065,0,0,0-.417-2.027,5.162,5.162,0,0,0-6.784-2.72l-25.387,10.858a5.166,5.166,0,0,0,4.065,9.5l25.386-10.858A5.167,5.167,0,0,0,333.9,784.6Z" transform="translate(-6670.738 -711)" fill="#00a5b9" fill-rule="evenodd"/><path d="M391.214,830.364a5.42,5.42,0,0,0-.144-1.211L383.015,795.7a5.169,5.169,0,0,0-10.051,2.418l8.06,33.455a5.167,5.167,0,0,0,10.19-1.206Z" transform="translate(-6670.738 -711)" fill="#00a5b9" fill-rule="evenodd"/><path d="M479.835,831.234a5.166,5.166,0,0,0,7.252,7.36l2.77-2.733v-14.51Z" transform="translate(-6670.738 -711)" fill="#00a5b9" fill-rule="evenodd"/><path d="M294.888,770.019a5.174,5.174,0,0,0-7.587-4.566l-24.416,12.9a5.167,5.167,0,1,0,4.821,9.141l24.421-12.9A5.167,5.167,0,0,0,294.888,770.019Z" transform="translate(-6670.738 -711)" fill="#00a5b9" fill-rule="evenodd"/><path d="M371.03,953.275a5.167,5.167,0,0,0,4.037-5.034,5.386,5.386,0,0,0-.13-1.142,5.166,5.166,0,0,0-6.172-3.907l-32.574,7.327a5.17,5.17,0,0,0,2.269,10.088Z" transform="translate(-6670.738 -711)" fill="#00a5b9" fill-rule="evenodd"/><path d="M476.789,848.1a5.556,5.556,0,0,0-.1-1.016,5.175,5.175,0,0,0-6.079-4.056l-27.085,5.425a5.17,5.17,0,0,0,2.032,10.139l27.076-5.425A5.175,5.175,0,0,0,476.789,848.1Z" transform="translate(-6670.738 -711)" fill="#00a5b9" fill-rule="evenodd"/><path d="M329.9,823.376l13.382-24.171a5.111,5.111,0,0,0,.65-2.5,5.167,5.167,0,0,0-9.689-2.506l-13.382,24.166a5.167,5.167,0,1,0,9.039,5.007Z" transform="translate(-6670.738 -711)" fill="#00a5b9" fill-rule="evenodd"/><path d="M253.929,995.907a4.435,4.435,0,0,0,.032-.548,5.174,5.174,0,0,0-4.63-5.137l-27.456-2.886a5.167,5.167,0,0,0-1.082,10.278l27.456,2.886A5.163,5.163,0,0,0,253.929,995.907Z" transform="translate(-6670.738 -711)" fill="#00a5b9" fill-rule="evenodd"/><path d="M266.88,762.542a5.177,5.177,0,0,0-3.36-4.845l-25.874-9.647a5.169,5.169,0,0,0-3.614,9.685l25.873,9.651a5.166,5.166,0,0,0,6.975-4.844Z" transform="translate(-6670.738 -711)" fill="#00a5b9" fill-rule="evenodd"/><path d="M228.549,839.522a5.169,5.169,0,0,0-9.61-2.645L204.8,860.593a5.167,5.167,0,0,0,8.877,5.29l14.138-23.72A5.155,5.155,0,0,0,228.549,839.522Z" transform="translate(-6670.738 -711)" fill="#00a5b9" fill-rule="evenodd"/><path d="M234.271,948.476a5.338,5.338,0,0,0,.256-1.605,5.171,5.171,0,0,0-3.573-4.91L195.489,930.4a5.167,5.167,0,1,0-3.2,9.828l35.469,11.554A5.167,5.167,0,0,0,234.271,948.476Z" transform="translate(-6670.738 -711)" fill="#00a5b9" fill-rule="evenodd"/><path d="M230.547,818.2a5.157,5.157,0,0,0-1.173-3.276l-17.5-21.345a5.168,5.168,0,0,0-7.991,6.557l17.5,21.34a5.171,5.171,0,0,0,9.169-3.276Z" transform="translate(-6670.738 -711)" fill="#00a5b9" fill-rule="evenodd"/><path d="M214.677,1054.15a5.164,5.164,0,0,0,1.161-7.22l-15.179-20.99a5.165,5.165,0,1,0-8.366,6.06l15.169,20.99A5.172,5.172,0,0,0,214.677,1054.15Z" transform="translate(-6670.738 -711)" fill="#00a5b9" fill-rule="evenodd"/><path d="M232.631,777.056a5.145,5.145,0,0,0-2.5-4.427l-23.628-14.268a5.167,5.167,0,1,0-5.345,8.844l23.632,14.268a5.167,5.167,0,0,0,7.838-4.417Z" transform="translate(-6670.738 -711)" fill="#00a5b9" fill-rule="evenodd"/><path d="M234.581,906.252c0-.013,0-.027,0-.046a5.154,5.154,0,0,0-5.211-5.118l-21.141.176a5.166,5.166,0,0,0-5.122,5.165c0,.014,0,.028,0,.042a5.158,5.158,0,0,0,5.211,5.122l21.141-.176A5.169,5.169,0,0,0,234.581,906.252Z" transform="translate(-6670.738 -711)" fill="#00a5b9" fill-rule="evenodd"/></g></svg>