<svg xmlns="http://www.w3.org/2000/svg" viewBox="0 0 512 512"><path fill="#41479b" d="M0 0h203.03v512H0z"/><path fill="#f5f5f5" d="M203.03 0H512v512H203.03z"/><g fill="#ffe15a"><path d="M278.22 339.37a20.715 20.715 0 00-12.938 4.538l-22.277 17.821a20.712 20.712 0 01-12.939 4.539h-6.184v-3.557c0-5.463 4.429-9.892 9.892-9.892h10.282v-4.794a8.656 8.656 0 00-8.656-8.656h-4.794a6.725 6.725 0 00-6.725-6.725c-18.57 0-33.623 15.054-33.623 33.623h-12.909c-4.703 0-9.265-1.6-12.937-4.538l-22.278-17.822a20.708 20.708 0 00-12.937-4.538H31.1c-3.305 0-4.96 3.996-2.623 6.333l33.954 33.954a23.165 23.165 0 0016.381 6.785h24.027l19.726 14.794a26.899 26.899 0 0016.139 5.38h24.657c4.233 0 8.219-1.993 10.759-5.38l2.69-3.587v15.691l-16.595 33.19c-1.644 3.289.747 7.158 4.424 7.158h54.297a4.945 4.945 0 004.946-4.946v-60.059l9.415 12.553a13.448 13.448 0 0010.759 5.38h24.657c5.82 0 11.483-1.888 16.139-5.38l19.726-14.794h24.028a23.17 23.17 0 0016.381-6.785l33.955-33.955c2.337-2.337.682-6.333-2.623-6.333H278.22v.002zM205.008 230.412l3.215 9.64 10.162.079c1.316.01 1.861 1.689.803 2.471l-8.175 6.037 3.065 9.689c.397 1.254-1.031 2.292-2.102 1.527l-8.267-5.909-8.267 5.909c-1.07.765-2.499-.273-2.102-1.527l3.065-9.689-8.175-6.037c-1.058-.782-.513-2.461.803-2.471l10.162-.079 3.215-9.64c.416-1.248 2.182-1.248 2.598 0zM55.739 291.165l9.09 4.543 7.241-7.13c.938-.923 2.51-.122 2.315 1.179l-1.512 10.049 9.018 4.684c1.168.606.891 2.35-.406 2.566l-10.024 1.667-1.667 10.024c-.216 1.298-1.96 1.574-2.566.406l-4.684-9.018-10.049 1.512c-1.301.196-2.102-1.377-1.179-2.315l7.13-7.241-4.543-9.09c-.589-1.176.66-2.424 1.836-1.836zM353.516 293.002l-4.543 9.09 7.13 7.241c.923.938.122 2.51-1.179 2.315l-10.049-1.512-4.684 9.018c-.606 1.168-2.35.891-2.566-.406l-1.667-10.024-10.024-1.667c-1.298-.216-1.574-1.96-.406-2.566l9.018-4.684-1.512-10.049c-.196-1.301 1.377-2.102 2.315-1.179l7.241 7.13 9.09-4.543c1.176-.589 2.424.659 1.836 1.836zM124.331 245.943l6.659 7.676 9.418-3.816c1.219-.494 2.366.848 1.687 1.975l-5.242 8.706 6.54 7.778c.847 1.007-.076 2.512-1.357 2.215l-9.899-2.296-5.377 8.623c-.696 1.116-2.413.704-2.526-.606l-.876-10.124-9.863-2.449c-1.277-.317-1.415-2.077-.204-2.59l9.358-3.962-.719-10.137c-.092-1.312 1.539-1.987 2.401-.993zM285.487 246.937l-.719 10.137 9.358 3.962c1.212.513 1.073 2.273-.204 2.59l-9.863 2.449-.876 10.124c-.113 1.311-1.83 1.723-2.526.606l-5.377-8.623-9.899 2.296c-1.282.297-2.204-1.208-1.357-2.215l6.54-7.778-5.242-8.706c-.679-1.127.468-2.469 1.687-1.975l9.418 3.816 6.659-7.676c.863-.995 2.494-.32 2.401.993zM163.905 234.204l5.034 8.828 9.982-1.905c1.292-.247 2.155 1.294 1.269 2.267l-6.84 7.516 4.897 8.905c.634 1.153-.564 2.449-1.763 1.908l-9.261-4.183-6.956 7.409c-.901.959-2.504.22-2.359-1.088l1.116-10.101-9.195-4.326c-1.191-.56-.983-2.313.305-2.58l9.951-2.06 1.273-10.082c.164-1.306 1.895-1.651 2.547-.508zM321.77 266.619l-2.682 9.802 8.405 5.711c1.088.739.609 2.439-.705 2.5l-10.151.478-2.834 9.759c-.367 1.263-2.131 1.333-2.596.102l-3.591-9.506-10.157.32c-1.315.041-1.926-1.615-.899-2.437l7.931-6.353-3.443-9.561c-.446-1.238.941-2.331 2.04-1.608l8.493 5.58 8.029-6.229c1.039-.808 2.507.173 2.16 1.442zM87.808 265.176l8.029 6.229 8.493-5.58c1.1-.722 2.486.371 2.04 1.608l-3.443 9.561 7.931 6.353c1.027.823.416 2.479-.899 2.437l-10.157-.32-3.591 9.506c-.465 1.231-2.229 1.161-2.596-.102l-2.834-9.759-10.151-.478c-1.314-.062-1.793-1.761-.705-2.5l8.405-5.711-2.682-9.802c-.347-1.268 1.121-2.249 2.16-1.442zM246.061 234.711l1.273 10.082 9.951 2.06c1.288.267 1.496 2.02.305 2.58l-9.195 4.326 1.116 10.101c.145 1.308-1.459 2.047-2.359 1.088l-6.956-7.409-9.261 4.183c-1.199.542-2.397-.755-1.763-1.908l4.897-8.905-6.84-7.516c-.886-.973-.023-2.513 1.269-2.267l9.982 1.905 5.034-8.828c.651-1.142 2.383-.797 2.547.508z"/></g><path d="M116.341 71.606v35.213c0 14.562-11.847 26.409-26.409 26.409s-26.409-11.847-26.409-26.409V71.606h52.818M125.145 54H54.72a8.803 8.803 0 00-8.803 8.803v44.016c0 24.309 19.707 44.016 44.016 44.016s44.016-19.707 44.016-44.016V62.803A8.805 8.805 0 00125.145 54z" fill="#ff4b55"/><path d="M116.341 71.606v35.213c0 14.562-11.847 26.409-26.409 26.409s-26.409-11.847-26.409-26.409V71.606h52.818" fill="#f5f5f5"/><g fill="#ffe15a"><path d="M58.171 60c2.885 4.458-1.866 9.209-6.324 6.324a2.457 2.457 0 01-.718-.718c-2.885-4.458 1.866-9.209 6.324-6.324.285.185.534.433.718.718zM128.596 60c2.885 4.458-1.866 9.209-6.324 6.324a2.457 2.457 0 01-.718-.718c-2.885-4.458 1.866-9.209 6.324-6.324.285.185.534.433.718.718zM58.171 95.212c2.885 4.458-1.866 9.209-6.324 6.324a2.457 2.457 0 01-.718-.718c-2.885-4.458 1.866-9.209 6.324-6.324.285.185.534.434.718.718zM128.596 95.212c2.885 4.458-1.866 9.209-6.324 6.324a2.457 2.457 0 01-.718-.718c-2.885-4.458 1.866-9.209 6.324-6.324.285.185.534.434.718.718zM93.384 60c2.885 4.458-1.866 9.209-6.324 6.324a2.457 2.457 0 01-.718-.718c-2.885-4.458 1.866-9.209 6.324-6.324.285.185.534.433.718.718zM119.811 127.674c2.885 4.458-1.866 9.209-6.324 6.324a2.465 2.465 0 01-.718-.717c-2.885-4.458 1.866-9.209 6.324-6.324.285.184.534.432.718.717zM67.475 127.674c2.885 4.458-1.866 9.209-6.324 6.324a2.465 2.465 0 01-.718-.717c-2.885-4.458 1.866-9.209 6.324-6.324.285.184.534.432.718.717z"/></g><g fill="#41479b"><path d="M95.617 95.784v7.58a5.691 5.691 0 01-5.685 5.685 5.691 5.691 0 01-5.685-5.685v-7.58h11.37M95.617 77.811v7.58a5.691 5.691 0 01-5.685 5.685 5.691 5.691 0 01-5.685-5.685v-7.58h11.37M95.617 113.941v7.58a5.691 5.691 0 01-5.685 5.685 5.691 5.691 0 01-5.685-5.685v-7.58h11.37M110.931 95.784v7.58a5.691 5.691 0 01-5.685 5.685 5.691 5.691 0 01-5.685-5.685v-7.58h11.37M80.304 95.784v7.58a5.691 5.691 0 01-5.685 5.685 5.691 5.691 0 01-5.685-5.685v-7.58h11.37"/></g></svg>