<svg xmlns="http://www.w3.org/2000/svg" viewBox="0 0 512 512"><path fill="#41479b" d="M.084.035h511.87v255.97H.084z"/><g fill="#f5f5f5"><path d="M.084 256h511.873v247.966a8 8 0 01-7.999 7.999H8.083a8 8 0 01-7.999-7.999V256zM511.93.035h-61.752L286.68 81.794V.035h-61.32v81.759L61.862.035H0l.084 24.158 140.274 70.145H.084v67.359h140.274L.084 231.842V256h61.778l163.498-81.759V256h61.32v-81.759L450.178 256h61.778v-24.158l-140.274-70.145h140.274V94.338H371.682l140.274-70.145z"/></g><g fill="#ff4b55"><path d="M.084 107.81h511.87v40.41H.084z"/><path d="M242.78.035h26.476v255.97H242.78z"/></g><path d="M325.107 104.548l-19.874 10.275-7.849-18.26c-.81-1.884-4.06-2.222-5.481-.569l-16.188 18.829-16.926-26.249c-1.134-1.759-4.372-1.759-5.506 0l-16.926 26.249-16.188-18.829c-1.421-1.653-4.671-1.315-5.481.569l-7.849 18.26-19.874-10.275c-2.627-1.358-5.872.864-4.46 3.054l19.415 30.111h-.84c-2.254 0-4.079 1.417-4.079 3.164v8.933c0 1.748 1.827 3.164 4.079 3.164h109.912c2.254 0 4.079-1.417 4.079-3.164v-8.933c0-1.747-1.827-3.164-4.079-3.164h-.84l19.415-30.111c1.411-2.19-1.835-4.412-4.46-3.054z" fill="#ffe15a"/><g fill="#ff4b55"><path d="M178.988 161.697L.084 250.305V256h20.98l190.344-94.303zM511.956 256v-12.274l-165.57-82.029h-32.421L504.265 256z"/></g><g fill="#41479b"><path d="M511.899 330.095c-25.629 0-25.629-11.787-51.26-11.787-25.612 0-25.612 11.787-51.225 11.787-25.59 0-25.59-11.787-51.18-11.787-25.587 0-25.587 11.787-51.173 11.787-25.594 0-25.594-11.787-51.188-11.787s-25.594 11.787-51.187 11.787-25.594-11.787-51.187-11.787c-25.582 0-25.582 11.787-51.165 11.787-25.57 0-25.57-11.787-51.139-11.787-25.586 0-25.586 11.787-51.17 11.787v-35.363c25.586 0 25.586-11.787 51.17-11.787 25.57 0 25.57 11.787 51.139 11.787 25.582 0 25.582-11.787 51.165-11.787 25.594 0 25.594 11.787 51.187 11.787s25.593-11.787 51.187-11.787 25.594 11.787 51.188 11.787c25.586 0 25.586-11.787 51.173-11.787 25.59 0 25.59 11.787 51.18 11.787 25.613 0 25.613-11.787 51.225-11.787 25.629 0 25.629 11.787 51.26 11.787v35.363zM511.899 400.822c-25.629 0-25.629-11.787-51.26-11.787-25.612 0-25.612 11.787-51.225 11.787-25.59 0-25.59-11.787-51.18-11.787-25.587 0-25.587 11.787-51.173 11.787-25.594 0-25.594-11.787-51.188-11.787s-25.594 11.787-51.187 11.787-25.594-11.787-51.187-11.787c-25.582 0-25.582 11.787-51.165 11.787-25.57 0-25.57-11.787-51.139-11.787-25.586 0-25.586 11.787-51.17 11.787v-35.363c25.586 0 25.586-11.787 51.17-11.787 25.57 0 25.57 11.787 51.139 11.787 25.582 0 25.582-11.787 51.165-11.787 25.594 0 25.594 11.787 51.187 11.787s25.593-11.787 51.187-11.787 25.594 11.787 51.188 11.787c25.586 0 25.586-11.787 51.173-11.787 25.59 0 25.59 11.787 51.18 11.787 25.613 0 25.613-11.787 51.225-11.787 25.629 0 25.629 11.787 51.26 11.787v35.363zM511.899 471.55c-25.629 0-25.629-11.787-51.26-11.787-25.612 0-25.612 11.787-51.225 11.787-25.59 0-25.59-11.787-51.18-11.787-25.587 0-25.587 11.787-51.173 11.787-25.594 0-25.594-11.787-51.188-11.787s-25.594 11.787-51.187 11.787-25.594-11.787-51.187-11.787c-25.582 0-25.582 11.787-51.165 11.787-25.57 0-25.57-11.787-51.139-11.787-25.586 0-25.586 11.787-51.17 11.787v-35.363c25.586 0 25.586-11.787 51.17-11.787 25.57 0 25.57 11.787 51.139 11.787 25.582 0 25.582-11.787 51.165-11.787 25.594 0 25.594 11.787 51.187 11.787s25.593-11.787 51.187-11.787 25.594 11.787 51.188 11.787c25.586 0 25.586-11.787 51.173-11.787 25.59 0 25.59 11.787 51.18 11.787 25.613 0 25.613-11.787 51.225-11.787 25.629 0 25.629 11.787 51.26 11.787v35.363z"/></g><g fill="#ff4b55"><path d="M194.242 94.338L3.874.035H0v14.118l161.822 80.185zM332.567 94.338L511.93 5.654l.026-5.619h-21.469l-190.34 94.303z"/></g><g fill="#ffe15a"><path d="M428.525 497.884c21.959-11.309 29.859-28.272 32.736-34.573 4.357-9.545 24.573-17.245 24.573-17.245s-24.974.117-38.339 17.47c-12.322 15.998-34.508 17.374-55.904 29.614a174.553 174.553 0 00-6.317-7.521l66.67-80.705-80.705 66.67a174.454 174.454 0 00-9.787-8.098c2.126-5.524 6.318-14.062 14.549-23.785 15.959-18.851 16.767-37.546 17.013-44.468.373-10.487 16.103-25.336 16.103-25.336s-23.027 9.665-28.736 30.812c-5.259 19.484-25.211 29.247-40.291 48.723a172.512 172.512 0 00-8.72-4.561l30.692-100.015-49.034 92.451a171.007 171.007 0 00-12.155-3.75c-.146-5.92.466-15.396 4.34-27.499 7.53-23.524 1.122-41.104-1.3-47.594-3.667-9.832 5.181-29.57 5.181-29.57s-17.576 17.742-14.756 39.463c2.598 20.02-12.109 36.678-18.585 60.455-3.24-.368-6.5-.661-9.791-.848l-9.924-104.197-9.924 104.197c-4.261.241-8.472.667-12.645 1.211-2.403-5.409-5.477-14.412-6.532-27.109-2.045-24.616-14.693-38.406-19.413-43.474-7.152-7.679-6.529-29.301-6.529-29.301s-9.448 23.117 1.469 42.105c10.06 17.499 2.853 38.513 5.962 62.95a171.951 171.951 0 00-9.377 2.963l-49.034-92.451 30.692 100.015c-3.826 1.853-7.551 3.877-11.214 5.996-4.29-4.078-10.571-11.218-16.399-22.536-11.309-21.959-28.272-29.859-34.573-32.736-9.546-4.357-17.245-24.572-17.245-24.572s.117 24.973 17.47 38.339c15.998 12.322 17.374 34.508 29.614 55.904a174.553 174.553 0 00-7.521 6.317L60.13 404.924l66.67 80.705a173.644 173.644 0 00-8.097 9.787c-5.524-2.126-14.063-6.318-23.785-14.549-18.851-15.96-37.546-16.767-44.468-17.014-10.487-.373-25.336-16.102-25.336-16.102s9.665 23.027 30.812 28.735c17.479 4.718 27.19 21.236 43.052 35.478h309.396c4.271-4.078 10.68-9.201 20.151-14.08zM479.649 511.965L512 494.806l-55.912 17.159zM.07 494.806l32.352 17.159h23.561z"/></g></svg>