<svg xmlns="http://www.w3.org/2000/svg" viewBox="0 0 512 512"><path fill="#f5f5f5" d="M0 0h170.67v512H0z"/><path fill="#4173cd" d="M170.67 0h170.67v512H170.67z"/><path fill="#ffe15a" d="M341.33 0H512v512H341.33z"/><g fill="#c17400"><path d="M229.356 265.746c-.101 2.636-4.055 3.751-4.055 3.751-.405-4.46 4.156-12.671 5.069-13.381.912-.71 4.562-4.055.912-3.345-3.649.709-7.197 8.921-8.008 10.34-.811 1.419-2.737 1.318-2.737 1.318v-8.008c0-1.419 6.285-4.46 6.285-4.46s1.014-6.082.101-6.69c-.912-.608-2.838 1.115-5.575 1.318-2.737.203-6.082.304-8.921 2.94-2.838 2.636-2.94 4.46-2.94 8.921v10.745c0 10.745-10.036 18.247-13.786 21.997-1.021 1.021-1.413 2.269-1.445 3.58-.753.707-2.416 1.735-3.806 1.437-2.135-.459-2.453-4.212-2.453-6.41a1.215 1.215 0 10-2.432 0c0 7.432 3.163 8.755 5.049 8.883.103.007.208.009.314.009 1.249 0 2.591-.494 3.707-1.18.725 2.624 2.252 5.062 2.69 6.048.811 1.825-3.649 4.764-3.649 4.764l3.649 11.252h4.967c0-2.787-3.396-2.23-3.903-2.94s-1.115-7.147-1.115-7.147l7.048-5.896a2.396 2.396 0 00.859-1.838v-3.138s5.17.836 6.462 1.977c1.292 1.14.152 4.562.152 5.018s6.538 6.234 6.538 6.234h4.486c0-2.053-2.129-1.977-3.193-2.357s-4.258-4.334-4.258-4.334 1.723-5.348 1.723-6.665-7.4-6.69-7.4-6.69 1.014-1.723 8.515-6.386 6.893-9.934 6.893-9.934l6.488-7.299v-5.271c-.001-.001-2.13.202-2.231 2.837zM282.829 265.746c.101 2.636 4.055 3.751 4.055 3.751.405-4.46-4.156-12.671-5.069-13.381-.912-.71-4.562-4.055-.912-3.345 3.649.709 7.197 8.921 8.008 10.34s2.737 1.318 2.737 1.318v-8.008c0-1.419-6.285-4.46-6.285-4.46s-1.014-6.082-.101-6.69c.912-.608 2.838 1.115 5.575 1.318 2.737.203 6.082.304 8.921 2.94 2.838 2.636 2.94 4.46 2.94 8.921v10.745c0 10.745 10.036 18.247 13.786 21.997 1.021 1.021 1.413 2.269 1.445 3.58.753.707 2.416 1.735 3.806 1.437 2.135-.459 2.453-4.212 2.453-6.41a1.215 1.215 0 112.432 0c0 7.432-3.163 8.755-5.049 8.883a4.645 4.645 0 01-.314.009c-1.249 0-2.591-.494-3.707-1.18-.725 2.624-2.252 5.062-2.69 6.048-.811 1.825 3.649 4.764 3.649 4.764l-3.649 11.252h-4.967c0-2.787 3.396-2.23 3.903-2.94.507-.71 1.115-7.147 1.115-7.147l-7.048-5.896a2.396 2.396 0 01-.859-1.838v-3.138s-5.17.836-6.462 1.977-.152 4.562-.152 5.018-6.538 6.234-6.538 6.234h-4.486c0-2.053 2.129-1.977 3.193-2.357s4.258-4.334 4.258-4.334-1.723-5.348-1.723-6.665 7.4-6.69 7.4-6.69-1.014-1.723-8.515-6.386-6.893-9.934-6.893-9.934l-6.488-7.299v-5.271c0-.001 2.129.202 2.231 2.837z"/></g><g fill="#c8c8c8"><path d="M246.335 258.803l-7.299 7.298h14.598zM265.798 258.803l-7.298 7.298h14.597zM246.335 270.967l-7.299 7.299h14.598zM265.798 270.967l-7.298 7.299h14.597zM246.335 283.132l-7.299 7.298h14.598zM265.798 283.132l-7.298 7.298h14.597zM256.067 295.296l-7.299 7.299h14.597z"/></g><g fill="#ffe15a"><path d="M254.85 219.88h2.433v14.597h-2.433z"/><path d="M242.723 234.768c-.04-.157-.937-3.892 1.579-6.614 2.216-2.4 6.246-3.131 11.965-2.179l-.399 2.4c-4.798-.803-8.178-.306-9.779 1.428-1.607 1.742-1.012 4.35-1.006 4.376l-2.36.589z"/><path d="M236.06 242.861c-3.04-1.521-4.534-5.935-3.263-9.641.533-1.554 2.928-6.491 11.345-4.804l-.478 2.385c-4.445-.896-7.561.283-8.565 3.207-.867 2.526.11 5.707 2.049 6.676l-1.088 2.177zM269.411 234.768l-2.359-.589 1.18.295-1.182-.29c.007-.026.611-2.649-1.018-4.395-1.607-1.725-4.985-2.214-9.765-1.414l-.399-2.4c5.726-.955 9.751-.221 11.965 2.179 2.515 2.723 1.618 6.458 1.578 6.614z"/><path d="M276.074 242.861l-1.088-2.176c1.939-.969 2.916-4.151 2.049-6.676-1.004-2.925-4.125-4.101-8.565-3.207l-.478-2.385c8.421-1.684 10.811 3.253 11.345 4.804 1.271 3.705-.223 8.119-3.263 9.64z"/></g><path d="M265.798 234.474s-4.866-2.433-9.732-2.433-9.732 2.433-9.732 2.433c-4.866-2.433-12.164 0-12.164 4.866s7.299 12.164 7.299 12.164h29.194s7.299-7.299 7.299-12.164c.001-4.866-7.298-7.299-12.164-4.866z" fill="#ff4b55"/><path fill="#ffe15a" d="M253.63 221.09h4.866v2.433h-4.866z"/><g fill="#c8c8c8"><path d="M231.74 207.71h48.658v9.732H231.74z"/><path d="M235.442 213.974l2.306 6.924-14.597 4.864-2.307-6.924zM276.688 213.98l14.598 4.865-2.308 6.924-14.598-4.866z"/></g><path d="M256.067 311.11c-14.085 0-25.545-7.094-25.545-15.814v-41.359a3.653 3.653 0 013.649-3.649h43.792a3.653 3.653 0 013.649 3.649v41.359c0 8.72-11.46 15.814-25.545 15.814zm-21.896-58.39c-.671 0-1.216.546-1.216 1.216v41.359c0 7.377 10.368 13.381 23.113 13.381 12.744 0 23.112-6.004 23.112-13.381v-41.359c0-.67-.545-1.216-1.216-1.216h-43.793z" fill="#464655"/></svg>