<svg xmlns="http://www.w3.org/2000/svg" viewBox="0 0 512 512"><path fill="#ff4b55" d="M0 0h512v512H0z"/><path d="M446 66v380H66V66h380" fill="#ffe15a"/><g fill="#73af00"><path d="M66 66l190 190L66 446zM446 66L256 256l190 190z"/></g><path d="M292.417 231.331c23.993 42.01-19.076 85.078-61.086 61.086a31.596 31.596 0 01-11.748-11.748c-23.993-42.01 19.076-85.078 61.086-61.086a31.611 31.611 0 0111.748 11.748z" fill="#ff4b55"/><g fill="#ffe15a"><path d="M258.737 224.266l6.774 20.31 21.409.166c2.772.021 3.921 3.559 1.691 5.205l-17.223 12.718 6.458 20.413c.836 2.643-2.173 4.829-4.428 3.217L256 273.846l-17.418 12.45c-2.255 1.612-5.264-.574-4.428-3.217l6.458-20.413-17.223-12.718c-2.23-1.647-1.08-5.184 1.691-5.205l21.409-.166 6.774-20.31c.877-2.63 4.597-2.63 5.474-.001zM257.318 16.854l3.263 9.784 10.313.08c1.335.01 1.889 1.714.815 2.508l-8.297 6.127 3.111 9.833c.403 1.273-1.047 2.326-2.133 1.55L256 40.738l-8.39 5.997c-1.086.776-2.536-.277-2.133-1.55l3.111-9.833-8.297-6.127c-1.074-.793-.52-2.497.815-2.508l10.313-.08 3.263-9.784c.422-1.265 2.214-1.265 2.636.001zM373.456 16.854l3.263 9.784 10.313.08c1.335.01 1.889 1.714.815 2.508l-8.297 6.127 3.111 9.833c.403 1.273-1.047 2.326-2.133 1.55l-8.39-5.997-8.391 5.997c-1.086.776-2.536-.277-2.133-1.55l3.111-9.833-8.297-6.127c-1.074-.793-.52-2.497.815-2.508l10.313-.08 3.263-9.784c.423-1.266 2.215-1.266 2.637 0zM141.18 16.854l3.263 9.784 10.313.08c1.335.01 1.889 1.714.815 2.508l-8.297 6.127 3.111 9.833c.403 1.273-1.047 2.326-2.133 1.55l-8.39-5.997-8.391 5.997c-1.086.776-2.536-.277-2.133-1.55l3.111-9.833-8.297-6.127c-1.074-.793-.52-2.497.815-2.508l10.313-.08 3.263-9.784c.423-1.266 2.215-1.266 2.637 0zM257.318 461.854l3.263 9.784 10.313.08c1.335.01 1.889 1.714.815 2.508l-8.297 6.127 3.111 9.833c.403 1.273-1.047 2.326-2.133 1.55l-8.39-5.998-8.39 5.997c-1.086.776-2.536-.277-2.133-1.55l3.111-9.833-8.297-6.127c-1.074-.793-.52-2.497.815-2.508l10.313-.08 3.263-9.784c.422-1.265 2.214-1.265 2.636.001zM373.456 461.854l3.263 9.784 10.313.08c1.335.01 1.889 1.714.815 2.508l-8.297 6.127 3.111 9.833c.403 1.273-1.047 2.326-2.133 1.55l-8.39-5.997-8.391 5.997c-1.086.776-2.536-.277-2.133-1.55l3.111-9.833-8.297-6.127c-1.074-.793-.52-2.497.815-2.508l10.313-.08 3.263-9.784c.423-1.266 2.215-1.266 2.637 0zM141.18 461.854l3.263 9.784 10.313.08c1.335.01 1.889 1.714.815 2.508l-8.297 6.127 3.111 9.833c.403 1.273-1.047 2.326-2.133 1.55l-8.39-5.997-8.391 5.997c-1.086.776-2.536-.277-2.133-1.55l3.111-9.833-8.297-6.127c-1.074-.793-.52-2.497.815-2.508l10.313-.08 3.263-9.784c.423-1.266 2.215-1.266 2.637 0zM131.965 233.931h-28.034v28.034c0 15.483 12.552 28.034 28.034 28.034S160 277.448 160 261.966c0-15.484-12.552-28.035-28.035-28.035z"/></g><path fill="#ff4b55" d="M160 290l-15.41-2.988-12.625-25.046 25.047 12.624z"/></svg>