<svg xmlns="http://www.w3.org/2000/svg" viewBox="0 0 512 512"><path fill="#f5f5f5" d="M0 0h512v512H0z"/><g fill="#ff4b55"><path d="M0 54.906h512v53.625H0zM0 403.47h512v53.625H0zM248.503 228.833l12.427 16.256 19.404-6.495c1.085-.363 2.008.864 1.358 1.805l-11.62 16.842 12.173 16.447c.681.92-.201 2.177-1.297 1.85l-19.608-5.847-11.88 16.66c-.664.932-2.132.481-2.16-.662l-.498-20.456-19.515-6.151c-1.091-.344-1.117-1.879-.038-2.259l19.301-6.795-.181-20.461c-.013-1.144 1.439-1.643 2.134-.734zM184.488 319.596c-35.095 0-63.565-28.469-63.565-63.596 0-35.063 28.469-63.595 63.565-63.595 13.057 0 25.099 4.016 35.133 10.813 1.537 1.041 3.291-.979 2.004-2.316-14.997-15.592-36.224-25.105-59.758-24.302-40.433 1.38-73.906 33.798-76.49 74.172-2.959 46.246 33.658 84.677 79.249 84.677 22.458 0 42.641-9.389 57.054-24.4 1.273-1.326-.485-3.315-2.006-2.283-10.044 6.809-22.105 10.83-35.186 10.83z"/></g></svg>