<svg xmlns="http://www.w3.org/2000/svg" viewBox="0 0 512 512"><path fill="#41479b" d="M0 0h512v512H0z"/><g fill="#73af00"><path d="M391.184 257.437a.957.957 0 01-.575-.193c-.138-.106-13.838-10.783-5.769-28.88a.957.957 0 011.259-.482c.48.216.696.777.482 1.259-7.443 16.687 4.662 26.191 5.181 26.587a.951.951 0 01-.578 1.709z"/><path d="M383.293 241.806a.954.954 0 01-.949-1.062c.396-3.422 1.683-5.81 3.827-7.097 3.45-2.074 7.761-.417 7.941-.344a.952.952 0 01-.694 1.772c-.037-.015-3.638-1.382-6.277.208-1.605.969-2.583 2.879-2.905 5.68a.95.95 0 01-.943.843zM385.88 229.532c-.082-.21-2.141-5.098-11.447-3.018-10.539 2.362-10.662 16.263-10.662 16.403a.954.954 0 00.952.952.952.952 0 00.921-.71c3.928-14.962 18.556-12.449 19.178-12.339a.952.952 0 001.058-1.288z"/><path d="M383.687 237.283s-6.348-4.047-8.966 1.111-.635 10.712.397 12.934c0 0 3.784-4.183 7.379-4.761 4.444-.714 5.554-6.269 2.46-9.046-3.698-3.318-1.27-.238-1.27-.238zM390.622 227.803c-.091 5.553 3.004 6.282 3.004 6.282 2.003-5.099-3.004-6.282-3.004-6.282z"/><path d="M389.653 239.469c.042-5.27 3.617-5.862 3.617-5.862 2.166 4.899-3.617 5.862-3.617 5.862z"/></g><path d="M410.269 235.22s-5.053-.747-6.992-1.662c-1.613-.762-3.719-2.599-6.444-2.24-2.083 0-3.772 1.689-3.772 3.772s1.431 4.579 8.917 4.025c3.63-.269 6.721 1.389 6.721 1.389-.476-1.985 1.57-5.284 1.57-5.284z" fill="#ff4b55"/><path d="M405.025 236.873s-7.752.538-9.455-.717c-1.572-1.158-1.161-3.003.448-3.181 2.42-.269 9.007 3.898 9.007 3.898z" fill="#ffe15a"/><path d="M420.108 245.654l-17.139 10.712-1.964-1.904 9.403-9.105 2.202.893 2.142-2.857-5.118-2.678s-13.569 12.795-25.114 13.866c-3.884.36-7.842.107-10.928-1.164l-6.925 9.972 14.521 12.378 21.305-.833 17.615-23.924 3.095 1.428 2.618-3.095-5.713-3.689z" fill="#b49b91"/><path d="M372.343 274.497c-4.768 0-8.648-3.879-8.648-8.646 0-4.768 3.879-8.648 8.648-8.648 4.766 0 8.646 3.879 8.646 8.648 0 4.766-3.88 8.646-8.646 8.646zm0-14.437c-3.193 0-5.791 2.598-5.791 5.791s2.598 5.789 5.791 5.789 5.789-2.596 5.789-5.789-2.596-5.791-5.789-5.791z" fill="#9b8278"/><g fill="#73af00"><path d="M408.365 282.512s1.587-1.032 3.174-5.872l-3.253.476s.635-2.698-.079-4.682l-3.65 2.857s-1.666-3.491-2.38-3.967c0 0-2.539 3.571-3.967 4.047 0 0-1.428-5.158-2.857-6.189l-2.46 3.491-3.65-2.857s0 2.46-.079 3.015c-.079.555-4.761-4.92-4.761-4.92s-2.063.873-4.84 5.316l-3.491-3.571-1.428 4.682-4.84-1.27.793 2.777-4.205-.317s.714 4.126 2.777 5.554l39.196 1.43zM366.31 300.167s-13.092 16.663-37.849 14.759l26.899 3.69 13.807-13.092-2.857-5.357z"/></g><g fill="#ffe15a"><path d="M323.581 312.426c2.618 1.904 18.806 6.546 30.47.952 0 0 .238 2.738-1.071 4.285 0 0 8.57-3.452 13.212-9.879s-9.641 13.807-9.641 13.807l-21.9 4.047-8.927-7.379-2.143-5.833zM321.86 252.422c-2.908.244-6.054 1.995-7.662 4.122-.876-.372-2.823-.538-4.436.538-2.148 1.432-6.117 6.604-9.45 5.236 0 0-.298 4.88 4.88 4.701 0 0-1.309 2.023-1.071 5.237s-2.083 5.356-2.083 5.356 10.474 1.488 10.891-6.665c.051-.997.101-1.874.15-2.657 5.466 2.952 7.617-1.215 7.617-1.215s-3.284-3.102.059-7.52 12.533 5.997 12.533 5.997c.177-4.169-.196-14.074-11.428-13.13z"/></g><g fill="#73af00"><path d="M362.342 279.893s-3.015 2.063-12.378.159c0 0 2.063-4.602 1.111-7.3 0 0-2.539 2.38-8.728 4.761-6.189 2.38-13.807 9.998-16.028 14.918 0 0 13.92-32.088 2.738-35.35-3.835-1.119-7.134.695-8.302 2.474.564.667 1.106 1.615 1.161 2.882.119 2.738-2.618 21.186-6.665 33.921 0 0-1.19-4.404-3.095-6.546-1.904-2.142-3.333-5.594-3.333-5.594s-3.214 2.142-2.738 6.07c0 0-1.785-1.428-5.237-.476s-4.761-1.309-4.761-1.309-2.857 7.617 5.594 11.545c0 0-2.261 1.071-3.333 1.904-1.071.833-2.738.833-2.738.833s2.976 5.475 9.284 6.07c6.308.595 9.208 2.394 11.188 5.634 6.427 10.514 18.726 18.488 38.801 6.189 0 0-28.565 8.887-29.835-9.363-1.111-15.965 16.346-19.202 18.091-15.711 1.746 3.491-.159 6.507-.159 6.507s9.522-2.222 4.92-10.95c.001-.001 9.364 1.428 14.442-11.268zM454.03 312.426c-2.618 1.904-19.163 9.046-30.589-2.38s-15.882-28.582-15.235-26.661H396.78l3.809 34.279 42.372 7.975 8.927-7.379 2.142-5.834zM455.751 252.422c2.908.244 6.054 1.995 7.662 4.122.876-.372 2.823-.538 4.436.538 2.148 1.432 6.117 6.604 9.45 5.236 0 0 .298 4.88-4.88 4.701 0 0 1.309 2.023 1.071 5.237s2.083 5.356 2.083 5.356-10.474 1.488-10.891-6.665c-.051-.997-.101-1.874-.15-2.657-5.466 2.952-7.617-1.215-7.617-1.215s3.284-3.102-.059-7.52-12.533 5.997-12.533 5.997c-.178-4.169.196-14.074 11.428-13.13z"/></g><path d="M415.268 279.893s3.015 2.063 12.378.159c0 0-2.063-4.602-1.111-7.3 0 0 2.539 2.38 8.728 4.761 6.189 2.38 13.807 9.998 16.028 14.918 0 0-13.92-32.088-2.738-35.35 3.835-1.119 7.134.695 8.302 2.474-.564.667-1.106 1.615-1.161 2.882-.119 2.738 2.618 21.186 6.665 33.921 0 0 1.19-4.404 3.095-6.546 1.904-2.142 3.333-5.594 3.333-5.594s3.214 2.142 2.738 6.07c0 0 1.785-1.428 5.237-.476s4.761-1.309 4.761-1.309 2.857 7.617-5.594 11.545c0 0 2.261 1.071 3.333 1.904s2.738.833 2.738.833-2.976 5.475-9.284 6.07c-6.308.595-9.208 2.394-11.188 5.634-6.427 10.514-18.726 18.488-38.801 6.189 0 0 28.565 8.887 29.835-9.363 1.111-15.965-16.346-19.202-18.091-15.711-1.746 3.491.159 6.507.159 6.507s-9.522-2.222-4.92-10.95c-.001-.001-9.364 1.428-14.442-11.268z" fill="#ffe15a"/><g fill="#73af00"><path d="M407.174 306.554c4.682 6.824 11.188 13.013 30.073 18.885s23.932 6.745 33.829 14.749c0 0 1.88 1.985 2.6 5.168.845 3.738-4.92 14.521-4.92 14.521s.555-2.539-2.936-7.459-24.122-13.807-34.913-16.504c-10.791-2.698-29.439-15.215-24.281-24.598l.548-4.762zM471.059 340.158l.018.03-.034-.039.016.009z"/></g><g fill="#ffe15a"><path d="M470.582 363.368s.476 3.452-2.38 6.427c-2.857 2.976-4.88 5.118-4.761 7.617 0 0-4.285-3.095-3.571-9.998 0 0-5.594 4.642-14.045.119 0 0 .833-8.451 11.783-9.522 0 0-4.285-3.333 1.309-8.451 0 0 .65 2.288 5.713 3.452 4.404 1.012 12.24-4.511 6.446-12.825 9.98 11.278 4.862 19.015-.494 23.181zM403.088 300.286s2.413 3.945 8.689 7.776c7.538 4.602 8.213 6.745 8.213 6.745l-5.118-.119s6.546 3.571 8.332 8.094c0 0-2.738.476-5.832-.357 0 0 2.499 2.261 1.309 9.522h-12.735l-2.858-31.661z"/></g><path d="M377.736 332.898v-30.47s-10.342 17.693-19.275 30.47h19.275z" fill="#73af00"/><path d="M368.84 301.793c-2.539 4.602-10.474 19.758-29.359 25.63s-22.337 4.761-32.234 12.765c0 0-1.88 1.985-2.6 5.168-.845 3.738 4.92 14.521 4.92 14.521s-.555-2.539 2.936-7.459 24.006-14.324 34.913-16.504c15.085-3.015 28.733-19.202 26.511-29.676-2.221-10.475-5.087-4.445-5.087-4.445z" fill="#ffe15a"/><g fill="#73af00"><path d="M307.266 340.158l-.018.03.034-.039-.016.009z"/><path d="M307.742 363.368s-.476 3.452 2.38 6.427c2.857 2.976 4.88 5.118 4.761 7.617 0 0 4.285-3.095 3.571-9.998 0 0 5.594 4.642 14.045.119 0 0-.833-8.451-11.783-9.522 0 0 4.285-3.333-1.309-8.451 0 0-.65 2.288-5.713 3.452-4.404 1.012-12.24-4.511-6.446-12.825-9.98 11.278-4.862 19.015.494 23.181z"/></g><path d="M334.095 414.151s2.698 12.14 2.857 24.677c0 0 11.823.397 17.536-8.49 0 0-11.426-5.951-17.536-17.457l-2.857 1.27z" fill="#ffe15a"/><path d="M331.555 387.331c-.476-5.713 2.063-20.155 13.648-30.629l.284-12.826s-3.45.358-6.512 3.038l-6.547 10.146-6.07 22.971 5.197 7.3z" fill="#73af00"/><path d="M331.873 391.457s0 12.22 5.078 21.424l-2.857 1.27s-10.236-8.054-12.378-24.598c0 0-9.165 6.07-12.537-6.348 0 0 9.839 3.967 13.013-5.078 2.864-8.162 5.757-23.02 16.783-31.213-5.241 8.055-13.133 28.673-7.023 35.973 1.618 1.933 6.269 3.571 11.359 1.397-.333 4.061-2.269 10.266-11.438 7.173z" fill="#ffe15a"/><path d="M333.355 416.318l-1.671-3.072a1.109 1.109 0 01.444-1.503l3.051-1.659a1.107 1.107 0 011.502.444l1.671 3.072c.292.537.094 1.21-.444 1.503l-3.051 1.659a1.108 1.108 0 01-1.502-.444z" fill="#ffce5a"/><g fill="#ffe15a"><path d="M436.613 414.151s-2.698 12.14-2.857 24.677c0 0-11.823.397-17.536-8.49 0 0 11.426-5.951 17.536-17.457l2.857 1.27zM439.152 387.331c.476-5.713-2.063-20.155-13.648-30.629l-.284-12.826s3.45.358 6.512 3.038l6.547 10.146 6.07 22.971-5.197 7.3z"/></g><path d="M427.396 384.284c5.09 2.174 9.741.536 11.359-1.397 6.11-7.3-1.782-27.918-7.023-35.973 11.026 8.192 13.919 23.05 16.783 31.213 3.174 9.046 13.013 5.078 13.013 5.078-3.372 12.418-12.537 6.348-12.537 6.348-2.142 16.544-12.378 24.598-12.378 24.598l-2.857-1.27c5.078-9.204 5.078-21.424 5.078-21.424-9.169 3.093-11.105-3.112-11.438-7.173z" fill="#73af00"/><path d="M437.352 416.318l1.671-3.072a1.109 1.109 0 00-.444-1.503l-3.051-1.659a1.107 1.107 0 00-1.502.444l-1.671 3.072a1.109 1.109 0 00.444 1.503l3.051 1.659c.537.292 1.21.093 1.502-.444z" fill="#ffce5a"/><path d="M347.266 329.089a3.81 3.81 0 00-3.809 3.809v41.896c0 11.426 3.809 53.322 41.896 68.557 38.087-15.235 41.896-57.131 41.896-68.557v-41.896a3.809 3.809 0 00-3.809-3.809h-76.174z" fill="#4173cd"/><path d="M383.045 329.089l-36.122 69.231a83.852 83.852 0 003.447 9.864l34.983-67.053 34.983 67.053a83.916 83.916 0 003.447-9.864l-36.122-69.231h-4.616z" fill="#ffe15a"/><path d="M420.337 408.184l-34.983-67.053-34.983 67.053c5.762 13.638 16.188 27.649 34.984 35.167 18.794-7.518 29.221-21.529 34.982-35.167z" fill="#73af00"/><path d="M399.517 412.524l2.304 1.105c-.966 1.427-2.977 3.738-6.823 5.83-2.905 1.581-5.713 3.452-7.74 4.885v-31.432l9.522-.979v-3.809l-9.522-.979v-4.734a1.904 1.904 0 00-1.904-1.904c-.897 0-1.614.633-1.816 1.468-.633-.453-1.367-.776-2.203-.776a3.871 3.871 0 00-3.866 3.866c0 1.003.408 1.9 1.037 2.589l-4.578.471v3.809l9.522.979v31.432c-2.027-1.434-4.835-3.305-7.74-4.885-3.846-2.092-5.857-4.403-6.823-5.83l2.304-1.105-8.689-11.069v15.235l2.929-1.404c1.159 1.867 3.609 4.881 8.46 7.519 4.058 2.209 7.997 5.079 9.559 6.255l1.904 1.477 1.904-1.477c1.561-1.175 5.5-4.046 9.559-6.255 4.852-2.638 7.302-5.652 8.46-7.519l2.929 1.404v-15.235l-8.689 11.068zm-18.182-25.497c-1.082 0-1.962-.88-1.962-1.962s.88-1.962 1.962-1.962 1.962.88 1.962 1.962-.88 1.962-1.962 1.962z" fill="#ffe15a"/><path d="M388.556 378.603h-6.405a2.51 2.51 0 01-2.511-2.511v-10.213a2.51 2.51 0 012.511-2.511h6.405a2.51 2.51 0 012.511 2.511v10.213a2.511 2.511 0 01-2.511 2.511z" fill="#f5f5f5"/><path d="M412.015 329.089c-7.617-11.426-7.617-34.279-7.617-34.279s0-15.235-19.044-15.235c-9.647 0-14.398 3.909-16.746 7.767-9.14 3.673-13.724 11.276-13.724 11.276 3.897 1.948 7.339 2.877 10.462 3.115 6.209 7.389 8.274 14.524 8.824 19.656-3.576 3.653-5.56 12.46-.243 19.125 0 0 11.267-2.618 20.779-11.426l17.309.001z" fill="#b49b91"/><g fill="#9b8278"><path d="M394.706 329.089h14.214c-.714-7.022-7.617-5.891-14.214 0z"/><path d="M408.566 321.899c-4.163-11.817-4.169-27.088-4.169-27.088s-.001-.248-.04-.676c-4.959-.673-10.034-.308-19.956 3.532-10.564 4.089-15.734 4.206-19.055 4.067 6.209 7.389 8.274 14.524 8.824 19.656l.154 8.096s5.951.873 19.044-6.665c6.53-3.76 12.066-4.082 15.198-.922zM388.289 293.144c7.726-1.932 12.655-1.733 15.83-.604-.851-4.243-4.348-12.964-18.765-12.964-9.647 0-14.398 3.909-16.746 7.767l-5.789 8.102s7.241 2.257 25.47-2.301z"/></g><path d="M372.767 277.909c.751.748 2.988 6.144 2.526 6.946-.297.516-6.256 1.997-7.223 1.241-.862-.674-1.871-6.486-1.293-7.156.524-.606 5.363-1.655 5.99-1.031z" fill="#ffe15a"/><path d="M380.431 277.622c.691.793 2.259 6.068 1.638 6.741-.4.433-7.043.957-7.965.126-.822-.741-1.004-6.226-.278-6.761.657-.484 6.028-.768 6.605-.106z" fill="#73af00"/><path d="M387.684 277.421c.717.747 2.353 5.707 1.711 6.337-.412.405-7.284.882-8.24.099-.853-.698-1.054-5.852-.305-6.353.679-.452 6.235-.706 6.834-.083z" fill="#ffe15a"/><g fill="#73af00"><path d="M395.054 277.766c.634.816 1.831 6.02 1.165 6.623-.429.388-7.09.405-7.952-.465-.769-.775-.568-6.08.193-6.542.689-.418 6.065-.297 6.594.384zM410.267 280.92c.491.909.443 5.744-.314 6.228-.487.312-6.485-.759-7.192-1.758-.63-.892.444-6.09 1.271-6.42.749-.299 5.825 1.191 6.235 1.95z"/></g><path d="M403.277 278.859c.602.827 1.059 5.68.334 6.193-.466.33-7.33-.234-8.162-1.132-.742-.801-.199-5.803.614-6.175.736-.336 6.712.423 7.214 1.114z" fill="#ffe15a"/><path d="M374.652 264.63c1.088 2.342-1.188 4.618-3.53 3.53a2.264 2.264 0 01-1.09-1.09c-1.088-2.342 1.188-4.618 3.53-3.53.476.221.869.614 1.09 1.09z" fill="#9b8278"/><g fill="#41479b"><path d="M94.316 0H0v19.977L94.316 81.77zM0 68.299v26.017h39.71zM0 161.684v26.017l39.71-26.017zM256 19.977V0h-94.316v81.77zM256 187.701v-26.017h-39.71zM161.684 174.23V256H256v-19.977zM256 94.316V68.299l-39.71 26.017zM0 236.023V256h94.316v-81.77z"/></g><g fill="#f5f5f5"><path d="M256 236.023v-19.964l-83.768-54.375h24.748L256 199.995v-12.294l-39.71-26.017H256V148.21H148.211V256h13.473v-81.77zM0 148.21v13.474h39.71L0 187.701v18.901l69.197-44.918h24.748L0 222.666v13.357l94.316-61.793V256h13.473V148.21zM107.789 0H94.316v81.77L0 19.977v21.862l80.842 52.477H56.094L0 57.904v10.395l39.71 26.017H0v13.474h107.789zM256 107.79V94.316h-39.71L256 68.299V49.157l-69.568 45.159h-24.748L256 33.093V19.977L161.684 81.77V0h-13.473v107.79z"/></g><g fill="#ff4b55"><path d="M256 148.21v-40.42H148.211V0h-40.422v107.79H0v40.42h107.789V256h40.422V148.21z"/><path d="M69.197 161.684L0 206.602v16.064l93.945-60.982zM172.232 161.684L256 216.059v-16.064l-59.02-38.311zM80.842 94.316L0 41.839v16.065l56.094 36.412zM186.432 94.316L256 49.157V33.093l-94.316 61.223z"/></g></svg>