<svg xmlns="http://www.w3.org/2000/svg" viewBox="0 0 512.001 512.001"><path fill="#41479b" d="M0 256.001h512v256H0z"/><path fill="#ff4b55" d="M0 .001h512v256H0z"/><path fill="#f5f5f5" d="M.002 255.998L255.998.002l255.996 255.996-255.996 255.996z"/><path d="M258.647 158.705l21.19 60.962 64.527 1.315c2.657.054 3.753 3.43 1.636 5.035l-51.43 38.992 18.689 61.775c.769 2.543-2.102 4.63-4.283 3.112L256 293.032l-52.976 36.864c-2.181 1.518-5.053-.569-4.283-3.112l18.689-61.775L166 226.017c-2.117-1.605-1.021-4.981 1.636-5.035l64.527-1.315 21.19-60.962c.872-2.51 4.422-2.51 5.294 0z" fill="#ffe15a"/></svg>