<svg xmlns="http://www.w3.org/2000/svg" viewBox="0 0 512 512"><path fill="#41479b" d="M0 0h512v512H0z"/><path d="M512 0H0v512h512V0zm-17.655 242.526H398L264.828 132V16.474h229.517v226.052zM256 356L124.798 249.98 256 149.98l131.203 100L256 356zm-8.827-339.526V132L114 242.526H17.655V16.474h229.518zm-229.518 242H114L247.173 370v126H17.655V258.474zM264.828 496V370L398 258.474h96.345V496H264.828z" fill="#ff4b55"/><path fill="#f5f5f5" d="M256 142L124.797 250l47.677 38.882L210.631 320 256 357l45.369-37 60.074-48.992L387.203 250z"/><path fill="#73af00" d="M361.443 271.008l-27.492-41.195h-9.652l-7.125 10.676-5.083-7.615h-10.166l-38.993 58.429h-48.951l-11.115-24.664h-14.108L183.2 278.31h-6.246l-4.48 10.572L210.631 320h90.738"/><path d="M258.919 194.021l3.509 10.52 11.09.086c1.436.011 2.031 1.843.876 2.696l-8.921 6.588 3.345 10.573c.433 1.369-1.126 2.501-2.294 1.666l-9.022-6.449-9.022 6.449c-1.168.835-2.727-.297-2.294-1.666l3.345-10.573-8.921-6.588c-1.155-.853-.56-2.685.876-2.696l11.09-.086 3.509-10.52c.453-1.362 2.38-1.362 2.834 0z" fill="#ffe15a"/></svg>