<svg xmlns="http://www.w3.org/2000/svg" viewBox="0 0 512 512"><path fill="#73af00" d="M0 0h512v170.76H0z"/><path fill="#ff4b55" d="M0 341.24h512V512H0z"/><path fill="#f5f5f5" d="M0 170.76h512v170.48H0z"/><path d="M259.666 214.524l9.075 27.211 28.683.222c3.714.029 5.253 4.768 2.266 6.974l-23.074 17.039 8.652 27.348c1.12 3.541-2.911 6.47-5.932 4.31L256 280.949l-23.336 16.68c-3.021 2.159-7.053-.769-5.932-4.31l8.652-27.348-23.074-17.039c-2.987-2.206-1.448-6.945 2.266-6.974l28.683-.222 9.075-27.211c1.174-3.524 6.158-3.524 7.332-.001z" fill="#464655"/><g fill="#f5f5f5"><path d="M136.486 76.921c.693 4.441 3.378 5.835 5.712 5.654 2.752-.214 5.167-2.731 5.167-5.389V61.943a1.387 1.387 0 012.772 0v15.308a5.53 5.53 0 002.434 4.587 5.536 5.536 0 005.167.557l1.385-.554c.128 12.795-.651 24.04-.665 24.246a2.772 2.772 0 005.529.395c.064-.901.919-13.216.662-26.852l.837-.335a2.778 2.778 0 012.265.095 7.918 7.918 0 009.138-1.483l.499-.498a8.272 8.272 0 002.007-8.509l-2.36-7.08a2.783 2.783 0 003.294-1.41 2.771 2.771 0 00-1.24-3.719l-5.543-2.771a2.773 2.773 0 00-3.869 3.356l4.459 13.378a2.759 2.759 0 01-.669 2.836l-.498.498a2.379 2.379 0 01-2.743.444c-1.797-.897-3.841-1.066-5.76-.576-.389-8.895-1.347-17.754-3.388-23.877a2.767 2.767 0 00-3.506-1.751 2.768 2.768 0 00-1.752 3.505c1.997 5.989 2.867 15.115 3.175 24.189l-3.317 1.327V61.943a6.936 6.936 0 00-6.929-6.929 6.936 6.936 0 00-6.929 6.929v13.416l-2.827-13.965a2.76 2.76 0 00-3.265-2.168 2.773 2.773 0 00-2.167 3.267l2.925 14.428zM141.822 53.629a2.77 2.77 0 002.771-2.771v-2.771a2.77 2.77 0 10-5.542 0v2.771a2.77 2.77 0 002.771 2.771zM169.536 50.857h2.771a2.77 2.77 0 100-5.542h-2.771a2.77 2.77 0 100 5.542z"/><path d="M151.481 87.281l-13.857 8.314a2.771 2.771 0 102.853 4.753l13.857-8.314a2.771 2.771 0 10-2.853-4.753z"/><path d="M188.846 92.183l.065-.044c.233.936.632 1.843 1.279 2.604 1.126 1.326 2.815 1.992 4.723 1.835 2.706-.198 4.547-1.434 5.765-3.031.185.127.38.244.585.346 1.498.755 3.23.698 4.88-.157 4.188-2.157 5.091-7.148 4.964-9.757-.074-1.521-1.368-2.596-2.885-2.625a2.78 2.78 0 00-2.652 2.877c.001.035.064 3.324-1.947 4.544-.327-.457-.717-1.486-.863-2.336a2.78 2.78 0 00-2.954-2.306 2.78 2.78 0 00-2.552 2.763c-.001.403-.091 3.96-2.836 4.257-.319-.436-.325-2.271-.011-3.627a2.772 2.772 0 00-4.255-2.934l-1.547 1.052c-.735-16.072-2.427-34.801-2.448-35.04a2.763 2.763 0 00-3.011-2.509 2.772 2.772 0 00-2.51 3.012c.024.256 1.981 21.925 2.585 38.473-.141.135-.288.282-.427.411-1.096-2.763-3.268-4.504-6.067-4.769-3.949-.349-8.228 2.338-9.761 6.176-1.322 3.302-.49 6.547 2.119 8.266 1.876 1.237 4.707 1.627 8.266.379-.869 3.053-2.451 6.149-4.508 8.544-1.842 2.146-4.918 4.623-8.854 4.512-2.291-.089-4.052-.839-5.382-2.295-3.209-3.505-2.932-9.849-2.93-9.917a2.77 2.77 0 00-2.614-2.912c-1.536-.162-2.836 1.085-2.92 2.614-.019.352-.421 8.688 4.352 13.93 2.349 2.585 5.471 3.968 9.278 4.117.185.008.371.011.558.011 4.636 0 9.134-2.273 12.718-6.45 3.371-3.925 5.659-9.256 6.346-14.205-.009 9.481-5.722 20.174-13.298 24.885-3.217 1.997-8.232 3.8-13.881 1.015-6.964-3.437-6.134-11.397-6.098-11.722a2.77 2.77 0 10-5.5-.687c-.062.495-1.394 12.179 9.145 17.378 2.706 1.337 5.537 2 8.39 2 3.665 0 7.363-1.096 10.869-3.278 9.222-5.732 15.917-18.187 15.917-29.614a224.602 224.602 0 00-.093-5.786zm-16.712 2.857c-.495-.327-.108-1.375-.024-1.583.583-1.461 2.409-2.725 3.868-2.725.074 0 .15.003.223.011.355.032 1.295.122 1.7 2.214.043.222.08.449.108.682-3.09 1.813-5.16 1.87-5.875 1.401zM143.221 120.53a2.778 2.778 0 00-3.789.982 5.663 5.663 0 01-.468.658c-.03-.07-.06-.146-.089-.227-1.156-3.083-.333-7.833.083-9.402a2.775 2.775 0 00-1.966-3.389c-1.475-.379-2.992.482-3.389 1.959-.202.75-1.905 7.478.081 12.777 1.272 3.388 3.225 4.244 4.64 4.36.126.011.25.016.373.016 2.984 0 4.969-3.007 5.521-3.96.766-1.319.319-3-.997-3.774z"/><path d="M194.365 70.257c.599 0 1.203-.192 1.71-.593l13.972-10.969c.193-.151.316-.35.457-.536 2.012-1.214 3.374-3.399 3.374-5.916a6.936 6.936 0 00-6.929-6.929 6.936 6.936 0 00-6.929 6.929c0 2.138.994 4.028 2.52 5.3l-9.889 7.764a2.77 2.77 0 001.714 4.95zm12.585-19.4a1.387 1.387 0 010 2.772 1.387 1.387 0 010-2.772zM203.67 67.629a2.766 2.766 0 00-3.506 1.751c-.296.888-1.636 5.459 1.08 8.174 1.054 1.056 2.44 1.583 4.141 1.581 1.137 0 2.414-.233 3.828-.706a2.768 2.768 0 001.752-3.505 2.766 2.766 0 00-3.506-1.751c-1.548.514-2.203.43-2.263.484-.164-.411-.055-1.648.229-2.533a2.77 2.77 0 00-1.755-3.495zM235.389 56.173a2.772 2.772 0 003.437-1.884l1.617-5.543a2.77 2.77 0 10-5.321-1.553l-1.617 5.543a2.771 2.771 0 001.884 3.437zM219.235 55.848a2.767 2.767 0 003.792-.993 2.773 2.773 0 00-.993-3.792c-.558-.325-.482-1.242-.461-1.424.083-.728.517-1.616 1.272-1.851a2.773 2.773 0 00-1.648-5.294c-2.763.861-4.777 3.418-5.131 6.514-.33 2.883.885 5.503 3.169 6.84zM197.25 100.743a2.77 2.77 0 00-.519 5.494c.146.214.52.947.52 2.82a2.77 2.77 0 105.542 0c0-8.219-5.317-8.314-5.543-8.314zM244.269 89.267c.348.057.694.084 1.042.084 2.177 0 4.378-1.099 6.556-3.278 1.083-1.083 1.083-2.836 0-3.919s-2.836-1.083-3.919 0c-1.658 1.659-2.549 1.694-2.778 1.643-.529-.076-1.008-.766-1.115-.955a2.769 2.769 0 00-3.701-1.207 2.773 2.773 0 00-1.24 3.719c.172.344 1.773 3.364 5.155 3.913zM291.377 69.792a1.984 1.984 0 01-.047-.122c-.491-1.44-2.061-2.222-3.498-1.732a2.77 2.77 0 00-1.754 3.505c.217.65 1.451 3.908 4.509 4.32.204.027.407.041.609.041 1.92 0 3.721-1.242 5.36-3.7a2.772 2.772 0 00-4.612-3.074 8.52 8.52 0 01-.567.762z"/><path d="M285.936 120.143c0-11.819-.52-22.906-1.241-32.62 3.936 6.825 7.475 13.721 9.731 19.737a2.773 2.773 0 005.191-1.949c-3.508-9.352-9.813-20.489-16.027-30.376-1.515-14.929-3.211-24.405-3.241-24.574-.273-1.508-1.713-2.525-3.222-2.23a2.77 2.77 0 00-2.231 3.221c.022.12.896 5.002 1.939 13.217a447.782 447.782 0 00-5.767-8.356l.135.043c1.46.487 3.022-.3 3.506-1.751A2.77 2.77 0 00272.957 51l-8.314-2.771a2.757 2.757 0 00-3.125 1.007 2.75 2.75 0 00-.405.849c-1.659-1.227-3.787-2.224-5.785-1.388-1.208.501-2.648 1.762-2.648 4.931 0 2.433.928 5.064 1.912 7.851 1.632 4.623 2.654 8.022.926 9.643-.955.896-1.909 1.234-2.84.999-1.709-.433-3.401-2.709-4.528-6.09-.049-.146-.151-.253-.221-.385.583-4.293.329-9.465-.845-15.334a2.762 2.762 0 00-3.261-2.173 2.77 2.77 0 00-2.173 3.261c1.809 9.05 1.267 16.434-1.452 19.749-1.051 1.283-2.368 1.878-4.145 1.878-.562 0-.945-.179-1.326-.617-2.187-2.52-2.177-10.65-1.472-15.622a2.772 2.772 0 00-2.744-3.161c-4.769 0-6.577 5.424-8.172 10.209-.7 2.103-2.004 6.014-2.914 6.42-1.678 0-2.762-4.926-2.771-8.317a2.772 2.772 0 00-2.771-2.766h-.004a2.768 2.768 0 00-2.767 2.769c0 6.393 2.177 13.857 8.314 13.857 4.57 0 6.421-4.98 7.971-9.608.269 3.681 1.1 7.494 3.144 9.849 1.436 1.656 3.342 2.531 5.514 2.531 3.421 0 6.336-1.351 8.431-3.905.379-.463.707-.993 1.029-1.529 1.609 2.288 3.583 3.796 5.807 4.358a7.982 7.982 0 001.958.249c2.139 0 4.23-.882 6.035-2.579.376-.353.64-.739.926-1.118a7.46 7.46 0 002.047.309c2.245 0 4.406-.904 5.747-1.765a2.765 2.765 0 00.839-3.811 2.78 2.78 0 00-3.816-.863c-.023.011-1.875 1.074-3.137.826.004-3.038-1.096-6.265-2.1-9.107-.571-1.618-1.157-3.278-1.433-4.633.229.192.452.392.651.587a2.769 2.769 0 003.918 0c.179-.179.283-.397.403-.606 2.873 3.958 8.781 12.274 14.859 21.86 1.16 11.783 2.179 26.815 2.179 43.3a2.77 2.77 0 105.538-.001zM288.707 59.172a2.77 2.77 0 105.542 0c0-3.261-2.552-8.531-3.064-9.554a2.779 2.779 0 00-3.719-1.24 2.773 2.773 0 00-1.24 3.719c1.002 2 2.481 5.629 2.481 7.075z"/><path d="M276.097 120.446a2.768 2.768 0 00-3.72 1.221 7.93 7.93 0 01-1.149 1.646c-.123-1.102.171-3.302.729-5.126a2.774 2.774 0 00-1.223-3.188 2.765 2.765 0 00-3.386.414l-5.543 5.543c-1.083 1.083-1.083 2.836 0 3.919s2.836 1.083 3.919 0l.141-.141c.24 1.112.698 2.127 1.483 2.912 1.039 1.039 2.295 1.589 3.601 1.589.253 0 .507-.022.762-.062 3.14-.509 5.094-3.97 5.619-5.018a2.768 2.768 0 00-1.233-3.709z"/><path d="M275.024 98.145h-19.533c.173-.69.352-1.348.533-1.973 7.789-1.618 12.419-4.133 13.78-7.489.471-1.164.962-3.516-1.042-6.219-1.807-2.436-4.357-3.529-7.006-2.988-3.938.798-7.447 5.042-9.965 11.835-7.824 1.34-12.832 4.148-16.002 6.919-1.125-11.357-5.534-18.104-5.747-18.425a2.77 2.77 0 10-4.612 3.074c.05.076 5.077 7.765 5.077 20.634 0 12.65-10.087 22.171-16.629 22.171-3.112 0-4.474-3.699-5.073-6.826 6.405-4.489 12.056-9.683 13.304-14.674 1.689-6.753-.437-11.73-1.843-15.024a54.154 54.154 0 01-.206-.482c.06.054.116.111.173.165 1.08 1.083 2.835 1.083 3.918 0s1.083-2.836 0-3.919c-1.62-1.621-4.766-4.168-7.625-2.972-1.208.501-2.648 1.762-2.648 4.931 0 1.432.598 2.831 1.291 4.455 1.248 2.92 2.8 6.555 1.563 11.502-.732 2.928-4.327 6.479-9.071 10.005-.508-.608-1.243-1.017-2.097-1.017h-.004a2.77 2.77 0 00-2.767 2.769c0 .498.022 1.032.054 1.579-5.931 3.841-12.643 7.396-17.83 9.756a2.772 2.772 0 001.149 5.294c.384 0 .774-.078 1.145-.249 1.558-.708 8.955-4.154 16.552-8.863 1.399 4.751 4.364 9.112 10.016 9.112 6.649 0 14.191-5.436 18.544-13.554.525.928 1.13 1.817 1.85 2.647 6.976 8.044 20.602 8.136 21.178 8.136a2.77 2.77 0 00.199-5.534c-.022-.003-2.23-.246-3.459-1.681-.742-.866-1.038-2.057-.907-3.64.284-3.416 11.301-5.968 21.01-6.119a2.775 2.775 0 002.57-1.843l2.771-7.795a2.771 2.771 0 00-2.611-3.698zM262.858 84.91c.053-.011.123-.027.211-.027.265 0 .683.13 1.241.882.106.141.443.622.357.834-.318.785-2.231 2.081-6.218 3.256 1.754-3.421 3.469-4.756 4.409-4.945zm-16.737 36.432c-2.816-.915-5.685-2.365-7.671-4.663-2.183-2.525-2.989-5.719-2.46-9.76a8.2 8.2 0 01.578-1.175c3.903-.357 14.328 1.181 15.051 4.167-3.216 1.642-5.585 3.95-5.858 7.231-.138 1.645.03 3.039.36 4.2zM305.194 58.295l-2.771-8.314a2.769 2.769 0 00-3.209-1.832 2.77 2.77 0 00-2.179 2.985c1.912 19.124 5.529 56.419 5.529 60.695 0 3.84-6.831 11.402-17.868 16.921a2.773 2.773 0 002.479 4.959c10.082-5.042 20.932-14.038 20.932-21.879 0-4.095-2.832-33.558-4.455-50.108a2.774 2.774 0 001.542-3.427zM328.319 83.302a2.77 2.77 0 004.645-2.644c-.497-1.949-.662-4.384-.399-5.38 1.388.043 2.677-.945 2.881-2.376a2.772 2.772 0 00-2.351-3.137c-1.832-.249-3.441.29-4.566 1.54-.728.812-1.161 1.854-1.397 2.974l-3.21-3.21c-1.083-1.083-2.836-1.083-3.919 0s-1.083 2.836 0 3.919l8.316 8.314zM334.554 86.193l-10.393 7.448a2.772 2.772 0 103.229 4.504l10.393-7.448a2.772 2.772 0 10-3.229-4.504zM333.634 96.616a2.773 2.773 0 00.242 3.675c.119.2.659 1.261.562 3.989a2.771 2.771 0 005.54.201c.202-5.657-1.65-7.724-2.455-8.349a2.766 2.766 0 00-3.889.484z"/><path d="M357.82 117.025a2.77 2.77 0 002.771-2.771c0-4.089-.21-8.654-.554-13.403 2.748 4.503 5.031 8.654 6.495 12.069a2.766 2.766 0 003.639 1.456 2.77 2.77 0 001.455-3.637c-2.537-5.921-7.279-13.765-12.679-21.863-1.087-10.173-2.507-20.139-3.611-27.289a2.684 2.684 0 001.731-.43c.875-.561 1.286-1.534 1.227-2.504.071.272.147.546.307.796.019.027 1.8 2.969 1.009 6.785a2.773 2.773 0 005.429 1.121c1.252-6.054-1.639-10.688-1.762-10.883a2.78 2.78 0 00-3.827-.85c-.879.56-1.295 1.535-1.237 2.506-.072-.274-.151-.549-.312-.801l-4.677-7.275a2.772 2.772 0 00-5.061 1.978c.038.218 2.157 12.38 4.034 27.038a595.152 595.152 0 00-6.309-8.734c-.335-4.193-.671-8.07-.961-11.275a2.773 2.773 0 001.691-3.898l-2.771-5.543a2.776 2.776 0 00-3.249-1.424 2.774 2.774 0 00-1.988 2.939c.331 3.307.675 6.969 1.013 10.815a794.242 794.242 0 00-4.762-6.217 2.771 2.771 0 00-.567-4.582l-5.543-2.771a2.777 2.777 0 00-3.395.736 2.775 2.775 0 00-.008 3.475c.15.186 6.973 8.74 15.136 19.781 1.416 18.311 2.358 37.359 1.027 41.353-.244.731-.669 1.591-1.068 1.621-1.675.233-5.673-3.513-7.681-7.527-1.157-2.311-2.822-2.552-3.712-2.512-2.978.184-4.141 3.462-6.253 9.41-1.514 4.263-3.395 9.562-5.508 11.73-1.144-1.398-2.624-6.09-3.446-10.912.386 1.066 1.384 1.837 2.583 1.837a2.77 2.77 0 002.771-2.771c0-4.133-2.891-35.609-4.505-52.86a2.77 2.77 0 001.591-3.445l-2.771-8.314a2.771 2.771 0 00-5.388 1.139c1.884 19.771 5.415 57.959 5.525 63.229l-.023-.142c-.215-1.516-1.629-2.555-3.135-2.352a2.773 2.773 0 00-2.351 3.137c.809 5.665 2.877 15.405 7.64 16.991.376.127.882.241 1.476.241 1.092 0 2.48-.387 3.9-1.808 3.019-3.018 5.061-8.772 6.864-13.846.407-1.148.889-2.506 1.344-3.67 2.543 3.713 6.979 8.336 11.473 7.973 1.581-.114 4.455-.964 5.933-5.397 1.474-4.421.891-19.84-.102-34.601a451.997 451.997 0 016.902 9.934c.864 8.299 1.483 16.614 1.483 23.444a2.764 2.764 0 002.767 2.773z"/><path d="M378.852 102.448c-1.964-14.626-4.698-31.568-6.431-41.967a2.73 2.73 0 002.322-.493 2.77 2.77 0 00.522-3.884l-5.023-6.582a2.773 2.773 0 00-4.934 2.157c.05.284 4.992 28.735 8.049 51.504 1.168 8.701-.537 16.477-4.563 20.797-2.587 2.774-6.016 4.03-10.165 3.789-1.524-.081-2.844 1.066-2.941 2.593a2.772 2.772 0 002.591 2.939c.468.03.93.043 1.387.043 5.226 0 9.762-1.916 13.182-5.586 5.223-5.602 7.411-14.828 6.004-25.31zM348.363 120.717c-1.019 1.107-.941 2.85.137 3.895.15.146.33.433.332.574.001.078-.111.311-.419.62a2.77 2.77 0 001.959 4.731c.709 0 1.418-.271 1.96-.812 1.758-1.757 2.08-3.54 2.041-4.728-.085-2.558-1.827-4.209-2.175-4.514-1.132-.987-2.817-.868-3.835.234z"/></g></svg>