<svg xmlns="http://www.w3.org/2000/svg" viewBox="0 0 512.003 512.003"><path fill="#ffe15a" d="M0 .001h512v512H0z"/><path fill="#41479b" d="M26.483 28h485.52v458H26.483z"/><g fill="#ff4b55"><path d="M26.483 28l242.758 228.242-121.377-228.24zM269.241 256.242V28l121.381.002zM512 29.518L269.241 257.759 512 143.639zM269.241 257.759H512V371.88zM269.241 257.759L26.485 143.64v114.121z"/><path d="M26.485 371.881l242.756-114.122L26.485 486.002z"/></g><path d="M320.466 278.603c.772-2.186 1.447-4.416 1.936-6.72l59.069 5.239-58.107-11.746c.142-1.6.245-3.212.245-4.849 0-1.576-.104-3.127-.236-4.669l57.633-12.138-58.547 5.672c-.513-2.462-1.242-4.838-2.075-7.166l52.317-27.351-54.885 21.334a54.327 54.327 0 00-4.865-7.915l43.381-39.999-47.574 34.969c-5.044-5.347-11.133-9.691-17.978-12.648l17.278-56.225-23.422 54.018a54.321 54.321 0 00-15.387-2.244c-5.392 0-10.59.812-15.507 2.274l-23.436-54.049 17.295 56.281c-6.822 2.966-12.889 7.308-17.915 12.65l-47.653-35.027 43.459 40.071a54.302 54.302 0 00-4.833 7.886l-54.996-21.377 52.428 27.41c-.825 2.314-1.548 4.673-2.057 7.119l-58.676-5.684 57.763 12.165c-.13 1.533-.234 3.074-.234 4.641 0 1.628.103 3.231.243 4.822l-58.237 11.772 59.198-5.25c.486 2.288 1.154 4.503 1.918 6.675l-52.207 26.678 54.73-20.689c8.872 17.965 27.325 30.353 48.716 30.353 21.375 0 39.815-12.367 48.696-30.31l54.618 20.646-52.096-26.619z" fill="#ffe15a"/><path d="M512 486L274.791 262.621c-3.43-3.23-7.668-3.23-11.098 0L26.483 486H512z" fill="#f5f5f5"/><g fill="#ff4b55"><circle cx="272.41" cy="377.821" r="1.837"/><path d="M269.603 316.281c5.511 6.813-3.407 10.22-2.304 16.733 0 0-1.804-2.705-1.102-6.513.701-3.807-1.703-5.01-1.703-5.01s1.102 4.308-1.603 6.713-1.904 7.915-1.904 7.915-3.407-2.304-2.705-5.811c0 0-4.609 4.008-.501 10.721 0 0-2.705-.2-3.707-1.904 0 0-2.399 7.063 7.267 12.449s11.069-7.439 11.069-7.439l6.913 8.617s8.283-.234 12.224-9.118l-4.743.868c.301-2.505 6.646-3.173 4.141-10.687 0 0-.2 1.603-2.004 2.705 0 0 .067-5.177-3.674-8.583 0 0-.134 2.772-1.336 3.774 0 0 .401-3.574-1.803-6.379-2.106-2.681-2.305-5.143-2.305-5.143s-2.505 4.609-1.603 6.913c0 0-2.089-.507-2.305-3.306-.467-6.079-6.312-7.515-6.312-7.515z"/></g><ellipse cx="272.41" cy="370.951" rx="15.637" ry="6.702" fill="#ffe15a"/><ellipse cx="272.41" cy="369.491" rx="13.522" ry="6.06" fill="#ff4b55"/><g fill="#ff82aa"><path d="M275.239 370.285h-5.669c-.1 1.768.7 4.333 2.83 5.263v.006l.003-.003.006.003v-.006c2.13-.93 2.93-3.495 2.83-5.263z"/><path d="M279.746 369.194l-5.143 1.207c.313 1.742 1.625 4.069 3.77 4.521l.001.006.003-.004c.002 0 .003.002.003.002v-.005c1.721-1.359 1.861-4.027 1.366-5.727z"/><path d="M282.408 367.349l-3.581 2.346c.906 1.52 2.817 3.334 4.672 3.23l.003.005.001-.004.004.001-.003-.005c.836-1.661-.064-4.137-1.096-5.573z"/><path d="M282.303 363.724l-1.409 3.557c1.91 2.43 5.041 2.18 5.041 2.18.125-1.981-2.343-4.526-3.632-5.737zM265.015 369.194l5.143 1.207c-.313 1.742-1.625 4.069-3.77 4.521l-.001.006-.003-.004-.004.002.001-.006c-1.72-1.358-1.861-4.026-1.366-5.726z"/><path d="M262.354 367.349l3.581 2.346c-.906 1.52-2.817 3.334-4.672 3.23l-.003.005-.001-.004-.004.001.003-.005c-.837-1.661.063-4.137 1.096-5.573z"/><path d="M262.459 363.724l1.409 3.557c-1.91 2.43-5.041 2.18-5.041 2.18-.125-1.981 2.343-4.526 3.632-5.737z"/></g><ellipse cx="272.41" cy="365.821" rx="10.975" ry="4.918" fill="#ffe15a"/><ellipse cx="272.41" cy="365.821" rx="8.165" ry="3.196" fill="#ff4b55"/><path d="M273.232 421.082c-5.338.454-10.026-3.514-10.482-8.844-.234-2.664 1.752-5.016 4.421-5.243 2.667-.228 5.012 1.752 5.238 4.421s2.577 4.643 5.24 4.422a4.847 4.847 0 004.419-5.244c.455 5.337-3.501 10.031-8.836 10.488" fill="#41479b"/><path d="M262.751 412.237c-.234-2.664 1.752-5.016 4.421-5.243 2.667-.228 5.012 1.752 5.238 4.421s2.577 4.643 5.24 4.422a4.847 4.847 0 004.419-5.244c-.446-5.343-5.141-9.296-10.478-8.842-5.335.456-9.294 5.148-8.84 10.486" fill="#ff9b55"/><path d="M272.408 395.543c-8.765 0-15.87 7.105-15.87 15.87 0 8.765 7.105 15.87 15.87 15.87s15.87-7.106 15.87-15.87c.001-8.765-7.105-15.87-15.87-15.87zm0 28.435c-6.939 0-12.564-5.625-12.564-12.564s5.625-12.564 12.564-12.564 12.564 5.625 12.564 12.564-5.625 12.564-12.564 12.564z" fill="#ffe15a"/><path d="M272.408 398.849c-6.939 0-12.564 5.625-12.564 12.564s5.625 12.564 12.564 12.564 12.564-5.625 12.564-12.564-5.625-12.564-12.564-12.564zm0 22.188c-5.315 0-9.624-4.309-9.624-9.624s4.309-9.624 9.624-9.624 9.624 4.309 9.624 9.624-4.309 9.624-9.624 9.624z" fill="#ff4b55"/><circle cx="267.52" cy="411.411" r="1.212" fill="#ff9b55"/><circle cx="277.23" cy="411.411" r="1.212" fill="#41479b"/><g fill="#ff4b55"><circle cx="272.41" cy="391.641" r="1.468"/><circle cx="273.88" cy="394.201" r="1.468"/><circle cx="270.94" cy="394.201" r="1.468"/><circle cx="272.41" cy="431.221" r="1.468"/><circle cx="270.94" cy="428.661" r="1.468"/><circle cx="273.88" cy="428.661" r="1.468"/></g><path d="M269.723 350.073c-1.009-5.629-3.703-9.855-6.018-9.44s-3.374 5.314-2.365 10.942c.728 4.061 2.34 7.326 4.047 8.711-.705 1.209-1.134 3.053-1.144 5.337 1.268.108 2.575.102 3.916-.138 1.341-.24 2.569-.688 3.72-1.23-.802-2.139-1.845-3.718-2.926-4.608 1.12-1.892 1.498-5.513.77-9.574z" fill="#ff9b55"/><path d="M275.062 350.073c1.009-5.629 3.703-9.855 6.018-9.44s3.374 5.314 2.365 10.942c-.728 4.061-2.34 7.326-4.047 8.711.705 1.209 1.134 3.053 1.144 5.337-1.268.108-2.575.102-3.916-.138-1.341-.24-2.569-.688-3.72-1.23.802-2.139 1.845-3.718 2.926-4.608-1.12-1.892-1.498-5.513-.77-9.574z" fill="#41479b"/><path d="M276.713 349.941c0-6.2-1.907-11.226-4.258-11.226s-4.258 5.026-4.258 11.226c0 4.474 1.01 8.267 2.447 10.071-.907 1.156-1.655 3.041-2.067 5.478 1.229.358 2.516.601 3.879.601s2.65-.243 3.879-.601c-.412-2.436-1.16-4.322-2.067-5.478 1.435-1.804 2.445-5.597 2.445-10.071z" fill="#f5f5f5"/><g fill="#ffe15a"><path d="M272.408 361.668c-2.774 0-5.319-.258-6.974-.715a1.059 1.059 0 01-.749-1.306c.158-.566.757-.94 1.306-.74 2.928.782 9.905.782 12.833 0 .57-.208 1.152.175 1.306.74a1.058 1.058 0 01-.749 1.306c-1.654.457-4.199.715-6.973.715zM263.291 378.501c1.152-.15 2.605-.501 2.705-2.254 0 0-2.605-.25-2.605-.05s-.1 2.304-.1 2.304z"/></g><g fill="#ff4b55"><path d="M237.14 371.989c1.303.367 2.572.635 2.972 2.238 0 0 1.336-2.672-.534-4.275-.34-.292-2.438 2.037-2.438 2.037zM242.684 367.513c1.303.367 2.572.635 2.972 2.238 0 0 1.336-2.672-.534-4.275-.34-.291-2.438 2.037-2.438 2.037z"/></g><path d="M237.541 376.798c-.802-.2-2.204-2.004-.401-4.809 1.804-2.805-6.112 1.403-6.412 3.707-.301 2.304-.601 6.412 1.202 5.31 1.803-1.101 5.611-4.208 5.611-4.208z" fill="#ffe15a"/><path d="M246.124 377.099c.267-1.47 0-2.471 1.87-3.807s2.137-2.071 2.137-2.939c0 0-1.019 1.085-2.822 1.536-1.104.276-2.054 1.069-2.054 1.069s-.468-1.67 1.202-2.605c0 0-2.939 0-3.407 2.672s1.069 3.073-1.136 3.34c-2.204.267-7.348-.802-9.151 3.273s3.674 1.136 5.143.601c1.47-.534 6.145.601 6.88-.401.737-1.002 1.338-2.739 1.338-2.739z" fill="#ff4b55"/><path d="M226.87 384.414l7.915-13.025s7.865-3.039 7.932-3.44 2.605-3.674 2.605-4.141c0-.468-.267-2.739-1.269-3.139-1.002-.401-4.193.946-5.578 1.299-1.386.354-3.573-2.235-3.573-2.235s-12.758 2.405-13.693 3.941-5.344 12.558-5.544 13.693c-.2 1.136 0 8.951.267 8.817.267-.135 10.938-1.77 10.938-1.77z" fill="#fff5e6"/><path d="M245.79 361.869c-1.202-1.737-3.407-1.737-4.342-.334-.935 1.402-2.939 1.402-3.406 3.139-.37 1.371 1.87 3.874 3.206 3.407 1.336-.468 3.807-2.004 3.807-2.004s1.937-2.471.735-4.208zm-3.658 3.537c-.549.701-1.925-.171-1.934-.949s1.139-.821 1.711-.417c.373.262.671.794.223 1.366zm2.06-1.732c-.802.386-1.652-1.003-1.317-1.705.335-.702 1.385-.234 1.72.381.218.401.249 1.01-.403 1.324z" fill="#ff4b55"/><path d="M248.322 412.401c1.331.133 3.093-.048 3.46-3.061.42-3.451 1.464-4.657 3.194-3.859s1.301 2.178 1.301 2.178 1.904 5.01.902 7.014c-1.002 2.004-3.306 4.409-5.01 4.809-1.703.401-5.21-1.904-5.21-1.904l1.363-5.177z" fill="#fff5e6"/><path d="M238.71 400.746c1.136-.534 15.163-10.287 16.833-13.96 1.67-3.674.735-6.346 2.939-6.479 2.204-.134 5.945-.267 5.611-3.006s-4.008-1.002-5.01-1.536-4.141-2.004-4.743.134 0 4.075-.868 5.143c-.868 1.069-4.743 2.939-5.411 2.805s-2.095-.308-3.185.38c-1.09.688-1.691 1.623-1.691 1.623s-4.108.167-4.692.718-2.789 3.49-2.789 3.49l3.006 10.688z" fill="#ffe6d7"/><path d="M240.179 398.54s2.672-1.002 4.576-4.709 3.807-2.204 6.613-4.208c2.805-2.004 1.002-5.01.2-6.212s-.25-4.308 2.505-4.208c1.813.066 7.615 5.711 5.01 11.322 0 0-.401-1.002-1.403-2.204 0 0 1.503 3.707-2.004 7.815 0 0 .1-2.104-1.002-3.507 0 0-.1 5.21-4.108 8.517 0 0 .501-3.407-.1-4.809 0 0-.601 4.509-6.513 8.617 0 0 .902-1.603.701-4.208l-5.01 2.605.535-4.811z" fill="#5aa587"/><path d="M202.072 415.674s-1.803 5.511 3.106 7.114c4.91 1.603 7.615-.501 9.418 0s1.403 3.707-1.102 6.412-5.01 3.006-7.815 1.002c-2.805-2.004-3.006-3.807-5.911-3.106-2.906.701-6.913-2.104-6.913-2.104s2.605-11.322 2.906-11.222c.299.101 6.311 1.904 6.311 1.904z" fill="#f5dcd2"/><path d="M176.597 401.888s3.46-3.327 16.9-7.452 20.626-5.855 20.626-5.855l10.513-3.327s4.948-.019 8.196-.941l3.248-.922s8.65 12.243 2.129 24.618l2.262 2.129s2.378.726 4.183 1.361c1.805.635.474 4.095.474 4.095l-6.92 3.194-20.227-.931s-.399-.932-7.053 1.198c-6.654 2.129-9.581-2.661-22.356-3.061s-11.975-14.106-11.975-14.106z" fill="#fff5e6"/><g fill="#5aa587"><path d="M234.1 354.121s2.037 2.037.935 4.208c0 0-2.271-2.338-4.141-2.872-2.879-.822-3.473.752-9.836 1.052-4.004.189-5.62 4.025-9.535 3.089-4.191-1.002-7.648.919-7.648.919s2.405-.3 4.359 1.553c1.953 1.853 5.41 1.452 5.41 1.452s-3.156 2.205-5.811 1.152c-2.655-1.052-6.463.902-6.463.902.701-.05 2.254.2 4.008 2.054 1.753 1.854 5.661 1.403 5.661 1.403-.701.851-2.655 1.803-4.501 1.45-4.184-.802-8.65 1.065-8.65 1.065s2.661-.931 6.254 1.73 7.718 1.065 7.718 1.065c0 1.73-3.601 8.394-9.99 8.167-7.955-.282-9.971 4.341-9.971 4.341s3.194-1.065 7.319-.399c7.991 1.289 13.44-3.327 13.44-3.327s-1.331 6.254-6.787 5.988-12.376 5.323-12.376 5.323 6.148-1.108 14.085-1.205c2.611-.032 4.734-1.061 6.549-2.287 4.773-3.224 9.182-3.224 9.182-3.224-5.21 1.202-7.915 6.913-7.915 6.913s4.008-3.507 9.819-3.507 7.615-6.813 7.615-6.813c-5.411.1-6.212-4.309-6.212-4.309s-1.603.501-3.106 2.305c-.951 1.14-2.558 1.528-3.658 1.682-.401-3.514 2.252-6.722 2.252-6.722s-3.593-5.456 1.065-11.311 15.303-3.992 15.303-3.992c1.104-4.905-3.038-7.979-4.374-7.845z"/><path d="M223.28 373.492c1.737-.267 9.819-2.939 9.686-6.546-.134-3.607-4.943-2.338-4.676-.401s2.004 1.536 2.004 1.536-.168.872-3.741 1.603c-2.939.601-3.273 3.808-3.273 3.808zM244.654 411.5s5.01-.802 4.809 2.805c-.2 3.607-3.073 7.414-9.018 9.084 0 0 2.204-1.904 1.703-3.006-.501-1.102-3.006-1.403-4.308.501-1.303 1.904-3.507 2.705-5.411 2.405 0 0 3.407-2.505 1.002-3.407-2.166-.812-1.336 2.705-6.513 3.306 0 0 3.807-3.006 1.603-3.807-2.204-.802-3.407 4.409-7.314 4.008 0 0 3.273-3.273 1.503-3.807-2.788-.842-3.507 4.008-8.517 1.904 0 0 2.505-1.102.501-3.807s.802-6.112 2.204-7.515c1.403-1.403 2.405-2.304 2.004-3.707 0 0 3.574 2.238 1.77 6.179-1.693 3.701 5.162 1.657 10.487 1.202 5.477-.468 8.727 2.674 12.224 1.603 3.275-1.002 1.271-3.941 1.271-3.941zM147.721 413.199s6.573 3.031 10.299-.03 4.738.562 9.13-2.099c4.391-2.661 4.125-1.198 7.585-1.198s5.988-5.589 3.859-9.448c0 0 7.226-2.802 5.744-8.596-1.102-4.308-6.542-2.981-6.542-2.981s-5.741-3.609-9.714 1.065c-3.248 3.82-1.464 6.387-6.92 7.053s-6.254 6.254-12.109 5.589c0 0 3.992 5.19 10.113 1.863-.001-.001-.145 5.011-11.445 8.782zM205.879 422.988s5.611 5.01-5.411 8.016c0 0 .701-.902 1.503-2.505 0 0-3.407 2.505-7.815 2.304 0 0 1.303-1.002 1.603-2.204 0 0-4.008 1.102-6.913-.802 0 0 3.507-.2 5.711-3.507 0 0 1.002 2.004 3.106 1.002s3.31.44 5.21.501c1.553.05 2.906-.75 3.006-2.805zM203.107 392.061s-4.008 1.87-2.137 5.41c1.247 2.36 5.153 2.927 6.68.735 1.303-1.87.269-3.686-1.102-3.941-1.436-.267-2.304.334-2.972 1.536-.001.001-2.473-.934-.469-3.74z"/><path d="M221.109 398.29s8.703.331 8.266 6.362c-.192 2.653-3.781 4.506-6.046 3.115-1.932-1.187-1.619-3.165-.611-4.042 1.11-.966 2.209-.617 3.298.214 0 .001.553-3.295-4.907-5.649zM238.492 386.567s4.698-3.152 6.526.6c.804 1.651-.696 4-2.53 3.954-1.565-.039-2.063-1.328-1.765-2.201.328-.961 1.105-1.134 2.043-1.015 0 .001.285-2.439-4.274-1.338zM244.876 384.226s4.333-2.907 6.02.554c.742 1.523-.642 3.69-2.334 3.647-1.443-.036-1.903-1.225-1.628-2.03.302-.887 1.019-1.046 1.884-.936.001 0 .263-2.252-3.942-1.235z"/><path d="M228.645 403.445s7.489.285 7.113 5.475c-.165 2.283-3.254 3.878-5.203 2.68-1.663-1.022-1.752-2.896-1.031-3.791 1.252-1.553 2.755-.852 2.755-.852s1.065-1.486-3.634-3.512z"/><path d="M234.134 407.558s8.266-.802 7.652 4.778c-.16 1.456-2.081 2.481-3.328 1.714-1.063-.654-1.121-1.853-.659-2.425.801-.993 1.763-.545 1.763-.545s-.518-2.47-5.428-3.522z"/></g><path d="M181.122 434.091s1.131 2.296 1.863 4.524c.626 1.907 3.859 3.194 5.589 1.996s4.651-4.776 3.454-5.575c-1.198-.798-6.381-.147-7.18-2.942-.798-2.794-.532-4.658-.532-4.658s6.935 2.063 10.242-3.147c3.306-5.21 2.834-10.298 4.13-12.822 1.013-1.974 2.794-2.928 2.794-2.928-2.037-8.066-26.88-13.839-23.997 7.097l-3.903 8.871 7.54 9.584z" fill="#ffe6d7"/><g fill="#5aa587"><path d="M172.314 433.742c1.703 1.102 7.949 4.275 11.823 1.87 3.168-1.966 3.206-4.208 1.202-4.709s-3.106.902-4.208 0-7.314-6.012-5.01-7.615 3.552-2.9 3.507-5.711c-.033-2.071-1.837-4.075-3.974-4.275-2.665-.25-4.743.868-7.548.868l3.273 1.67c-2.104 1.002-2.271 3.841-4.776 4.342 0 0 1.703 1.937 3.841 1.336 0 0-.735 2.004-2.739 2.271 0 0 1.87 2.137 3.607 2.739 0 0-1.136.802-2.906.468 0 0 2.772 4.075 6.913 5.11l-3.005 1.636z"/><path d="M184.384 426.112s1.113-.193 1.209-1.548c.055-.781-.725-1.794-2.052-1.718-1.555.089-2.61 2.154-1.864 3.523 1.907 3.501 9.007 2.096 9.875.827-.001 0-5.679.267-7.168-1.084z"/></g><g fill="#ffe15a"><path d="M187.71 442.76c.309-.434.559-1.611-.042-2.338 0 0 .326-1.678 1.603-1.077 0 0 .543 1.344.109 2.279s-1.67 1.136-1.67 1.136z"/><path d="M190.317 441.819c-.022-1.21-.293-1.872-1.27-1.973 0 0-.25-1.753 1.202-1.753 0 0 1.077.952 1.087 1.983.01 1.03-1.019 1.743-1.019 1.743z"/><path d="M191.927 440.646c-.238-1.187-.463-2.013-1.551-2.094 0 0-.579-1.436 1.024-1.636 0 0 1.022.82 1.217 1.832s-.69 1.898-.69 1.898z"/><path d="M193.539 438.804c-.493-1.106-.984-1.549-2.063-1.388 0 0-.927-1.303.351-2.004 0 0 1.555.444 1.968 1.389s-.256 2.003-.256 2.003zM212.559 432.028c.227-.482.264-1.685-.456-2.293 0 0 .023-1.709 1.386-1.345 0 0 .773 1.227.511 2.224-.261.998-1.441 1.414-1.441 1.414z"/><path d="M214.956 430.639c-.236-1.187-.621-1.791-1.6-1.716 0 0-.558-1.681.872-1.939 0 0 1.229.745 1.422 1.758s-.694 1.897-.694 1.897z"/><path d="M216.333 429.199c-.445-1.126-.813-1.899-1.898-1.785 0 0-.824-1.31.718-1.792 0 0 1.151.625 1.523 1.587.371.961-.343 1.99-.343 1.99z"/><path d="M217.592 427.1c-.682-1-1.243-1.349-2.276-1 0 0-1.143-1.117-.011-2.034 0 0 1.609.161 2.183 1.017.574.857.104 2.017.104 2.017z"/></g><path d="M245.857 365.41c.217 1.084-.334 2.271-2.939 3.407-2.605 1.136-2.538.668-4.275 2.872s-1.937 2.271-4.075 2.672c-2.137.401-3.139 7.014-.601 6.012s2.872-3.073 5.678-2.405 4.275 1.603 6.479-.868c0 0 2.137 2.872-1.87 4.075s-6.194 1.295-8.174 2.217c-1.979.922-9 3.176-9.461-3.387-.134-1.903 1.269-2.638 2.071-4.041.802-1.403 1.603-2.338 3.54-3.874s.735-2.805 3.874-3.273c3.139-.468 5.744-.401 6.68-2.672s2.806-2.071 3.073-.735z" fill="#ffe6d7"/><g fill="#5aa587"><path d="M193.254 397.255s-.602-2.394 2.189-3.408c-.656.199-1.257.377-1.947.589-.587.18-1.053.349-1.603.526-.214.29-.502.442-.647.848-.849 2.378 1.252 5.463 3.756 5.127 2.136-.287 2.742-2.168 2.043-3.287-.729-1.172-2.338-1.447-3.791-.395zM194.119 422.664c-3.028.677-4.392-.492-4.392-.492s1.113-.193 1.209-1.549c.055-.781-.725-1.794-2.052-1.718-1.555.089-2.61 2.154-1.864 3.523 1.641 3.011 6.302 2.3 8.356.165.108-.22.22-.438.317-.656-.45.283-1.025.604-1.574.727zM197.18 417.6c.077-.343.187-.688.251-1.017-3.56 1.44-4.598-.373-4.598-.373s1.113-.193 1.209-1.549c.055-.781-.725-1.794-2.052-1.717-1.555.089-2.61 2.154-1.864 3.523 1.739 3.193 4.84 2.305 7.054 1.133zM205.188 419.294c-2.069 1.854-3.651 1.752-3.651 1.752s.827-.769.167-1.957c-.381-.685-1.587-1.107-2.657-.319-1.254.924-1.011 3.23.361 3.97 3.378 1.82 5.57-.995 6.742-3.262-.318-.042-.641-.118-.962-.184z"/></g><g fill="#ffe15a"><path d="M258.512 417.501c-.149-.739-.923-2.143-1.874-2.239 0 0-1.122-1.97.154-2.686 0 0 1.403.759 1.87 2.114.467 1.357-.15 2.811-.15 2.811z"/><path d="M259.402 413.925c-.97-1.159-1.664-1.529-2.355-.63 0 0-1.543-1.456-.632-2.937 0 0 1.427-.169 2.248.827.822.996.739 2.74.739 2.74z"/><path d="M259.485 411.138c-1.087-.916-1.881-1.493-2.627-.463 0 0-1.498-.812-.651-2.642 0 0 1.289-.242 2.211.548.922.791 1.067 2.557 1.067 2.557z"/><path d="M259.04 407.699c-1.183-.576-1.841-.509-2.39.748 0 0-1.61-.327-1.364-2.313 0 0 1.326-1.152 2.331-.651 1.006.501 1.423 2.216 1.423 2.216z"/></g><path d="M234.822 368.114c.994 1.795-.83 3.618-2.625 2.625a1.432 1.432 0 01-.554-.554c-.994-1.795.83-3.618 2.625-2.625.231.129.426.324.554.554z" fill="#f5f5f5"/><path d="M233.831 368.819a.687.687 0 01-.93.93.59.59 0 01-.268-.268.687.687 0 01.93-.93.58.58 0 01.268.268z" fill="#41479b"/><path d="M238.393 361.5c.777 1.444-.679 2.9-2.123 2.123a1.201 1.201 0 01-.483-.483c-.777-1.444.679-2.9 2.123-2.123.202.109.374.281.483.483z" fill="#f5f5f5"/><path d="M237.589 362.078a.556.556 0 01-.741.741.507.507 0 01-.257-.257.556.556 0 01.741-.741.507.507 0 01.257.257z" fill="#41479b"/><path d="M183.135 399.041c-1.73 1.331-7.715-1.603-11.923-.2-5.439 1.813-5.393 5.309-5.393 5.309s3.389-4.207 9.034-2.136c3.123 1.146 4.939 1.204 4.939 1.204l3.343-4.177z" fill="#fff5e6"/><path d="M281.43 378.501c-1.152-.15-2.605-.501-2.705-2.254 0 0 2.605-.25 2.605-.05s.1 2.304.1 2.304z" fill="#ffe15a"/><g fill="#ff4b55"><path d="M307.581 371.989c-1.303.367-2.572.635-2.972 2.238 0 0-1.336-2.672.534-4.275.34-.292 2.438 2.037 2.438 2.037zM302.037 367.513c-1.303.367-2.572.635-2.972 2.238 0 0-1.336-2.672.534-4.275.34-.291 2.438 2.037 2.438 2.037z"/></g><path d="M307.18 376.798c.802-.2 2.204-2.004.401-4.809s6.112 1.403 6.412 3.707c.301 2.304.601 6.412-1.202 5.31s-5.611-4.208-5.611-4.208z" fill="#ffe15a"/><path d="M298.597 377.099c-.267-1.47 0-2.471-1.87-3.807s-2.137-2.071-2.137-2.939c0 0 1.019 1.085 2.822 1.536 1.104.276 2.054 1.069 2.054 1.069s.468-1.67-1.202-2.605c0 0 2.939 0 3.407 2.672.468 2.672-1.069 3.073 1.136 3.34 2.204.267 7.348-.802 9.151 3.273s-3.674 1.136-5.143.601c-1.47-.534-6.145.601-6.88-.401-.737-1.002-1.338-2.739-1.338-2.739z" fill="#ff4b55"/><path d="M317.851 384.414l-7.915-13.025s-7.865-3.039-7.932-3.44c-.067-.401-2.605-3.674-2.605-4.141 0-.468.267-2.739 1.269-3.139 1.002-.401 4.193.946 5.578 1.299s3.573-2.235 3.573-2.235 12.758 2.405 13.693 3.941 5.344 12.558 5.544 13.693c.2 1.136 0 8.951-.267 8.817-.267-.135-10.938-1.77-10.938-1.77z" fill="#fff5e6"/><path d="M299.666 366.078s2.471 1.536 3.807 2.004c1.336.467 3.576-2.036 3.206-3.407-.467-1.737-2.471-1.737-3.406-3.139-.935-1.403-3.14-1.403-4.342.334-1.203 1.736.735 4.208.735 4.208zm3.145-2.039c.572-.404 1.721-.36 1.711.417-.009.778-1.385 1.649-1.934.949-.447-.571-.15-1.103.223-1.366zm-2.685-1.689c.335-.615 1.384-1.083 1.72-.381.335.702-.515 2.091-1.317 1.705-.653-.314-.621-.923-.403-1.324z" fill="#ff4b55"/><path d="M296.398 412.401c-1.331.133-3.093-.048-3.46-3.061-.42-3.451-1.464-4.657-3.194-3.859s-1.301 2.178-1.301 2.178-1.904 5.01-.902 7.014 3.306 4.409 5.01 4.809 5.21-1.904 5.21-1.904l-1.363-5.177z" fill="#fff5e6"/><path d="M306.011 400.746c-1.136-.534-15.163-10.287-16.833-13.96-1.67-3.674-.735-6.346-2.939-6.479-2.204-.134-5.945-.267-5.611-3.006s4.008-1.002 5.01-1.536 4.141-2.004 4.743.134 0 4.075.868 5.143c.868 1.069 4.743 2.939 5.411 2.805s2.095-.308 3.185.38c1.09.688 1.691 1.623 1.691 1.623s4.108.167 4.692.718c.584.551 2.789 3.49 2.789 3.49l-3.006 10.688z" fill="#ffe6d7"/><path d="M304.542 398.54s-2.672-1.002-4.576-4.709-3.807-2.204-6.613-4.208c-2.805-2.004-1.002-5.01-.2-6.212s.25-4.308-2.505-4.208c-1.813.066-7.615 5.711-5.01 11.322 0 0 .401-1.002 1.403-2.204 0 0-1.503 3.707 2.004 7.815 0 0-.1-2.104 1.002-3.507 0 0 .1 5.21 4.108 8.517 0 0-.501-3.407.1-4.809 0 0 .601 4.509 6.513 8.617 0 0-.902-1.603-.701-4.208l5.01 2.605-.535-4.811z" fill="#5aa587"/><path d="M342.649 415.674s1.803 5.511-3.106 7.114-7.615-.501-9.418 0-1.403 3.707 1.102 6.412 5.01 3.006 7.815 1.002 3.006-3.807 5.911-3.106c2.906.701 6.913-2.104 6.913-2.104s-2.605-11.322-2.906-11.222c-.299.101-6.311 1.904-6.311 1.904z" fill="#f5dcd2"/><path d="M368.124 401.888s-3.46-3.327-16.9-7.452-20.626-5.855-20.626-5.855l-10.513-3.327s-4.948-.019-8.196-.941l-3.248-.922s-8.65 12.243-2.129 24.618l-2.262 2.129s-2.378.726-4.183 1.361c-1.805.635-.474 4.095-.474 4.095l6.92 3.194 20.227-.931s.399-.932 7.053 1.198 9.581-2.661 22.356-3.061 11.975-14.106 11.975-14.106z" fill="#fff5e6"/><g fill="#5aa587"><path d="M310.62 354.121s-2.037 2.037-.935 4.208c0 0 2.271-2.338 4.141-2.872 2.879-.822 3.473.752 9.836 1.052 4.004.189 5.62 4.025 9.535 3.089 4.191-1.002 7.648.919 7.648.919s-2.405-.3-4.359 1.553c-1.953 1.853-5.41 1.452-5.41 1.452s3.156 2.205 5.811 1.152c2.655-1.052 6.463.902 6.463.902-.701-.05-2.254.2-4.008 2.054-1.753 1.854-5.661 1.403-5.661 1.403.701.851 2.655 1.803 4.501 1.45 4.184-.802 8.65 1.065 8.65 1.065s-2.661-.931-6.254 1.73-7.718 1.065-7.718 1.065c0 1.73 3.601 8.394 9.99 8.167 7.955-.282 9.971 4.341 9.971 4.341s-3.194-1.065-7.319-.399c-7.991 1.289-13.44-3.327-13.44-3.327s1.331 6.254 6.787 5.988 12.376 5.323 12.376 5.323-6.148-1.108-14.085-1.205c-2.611-.032-4.734-1.061-6.549-2.287-4.773-3.224-9.182-3.224-9.182-3.224 5.21 1.202 7.915 6.913 7.915 6.913s-4.008-3.507-9.819-3.507-7.615-6.813-7.615-6.813c5.411.1 6.212-4.309 6.212-4.309s1.603.501 3.106 2.305c.951 1.14 2.558 1.528 3.658 1.682.401-3.514-2.252-6.722-2.252-6.722s3.593-5.456-1.065-11.311c-4.657-5.855-15.303-3.992-15.303-3.992-1.103-4.905 3.038-7.979 4.374-7.845z"/><path d="M321.441 373.492c-1.737-.267-9.819-2.939-9.685-6.546s4.943-2.338 4.676-.401-2.004 1.536-2.004 1.536.168.872 3.741 1.603c2.938.601 3.272 3.808 3.272 3.808zM300.066 411.5s-5.01-.802-4.809 2.805c.2 3.607 3.073 7.414 9.018 9.084 0 0-2.204-1.904-1.703-3.006s3.006-1.403 4.308.501c1.303 1.904 3.507 2.705 5.411 2.405 0 0-3.407-2.505-1.002-3.407 2.166-.812 1.336 2.705 6.513 3.306 0 0-3.807-3.006-1.603-3.807 2.204-.802 3.407 4.409 7.314 4.008 0 0-3.273-3.273-1.503-3.807 2.788-.842 3.507 4.008 8.517 1.904 0 0-2.505-1.102-.501-3.807s-.802-6.112-2.204-7.515c-1.403-1.403-2.405-2.304-2.004-3.707 0 0-3.574 2.238-1.77 6.179 1.693 3.701-5.162 1.657-10.487 1.202-5.477-.468-8.727 2.674-12.224 1.603-3.275-1.002-1.271-3.941-1.271-3.941zM397 413.199s-6.573 3.031-10.299-.03-4.738.562-9.13-2.099c-4.391-2.661-4.125-1.198-7.585-1.198s-5.988-5.589-3.859-9.448c0 0-7.226-2.802-5.744-8.596 1.102-4.308 6.542-2.981 6.542-2.981s5.741-3.609 9.714 1.065c3.248 3.82 1.464 6.387 6.92 7.053s6.254 6.254 12.109 5.589c0 0-3.992 5.19-10.113 1.863.001-.001.144 5.011 11.445 8.782zM338.842 422.988s-5.611 5.01 5.411 8.016c0 0-.701-.902-1.503-2.505 0 0 3.407 2.505 7.815 2.304 0 0-1.303-1.002-1.603-2.204 0 0 4.008 1.102 6.913-.802 0 0-3.507-.2-5.711-3.507 0 0-1.002 2.004-3.106 1.002s-3.31.44-5.21.501c-1.554.05-2.906-.75-3.006-2.805zM341.614 392.061s4.008 1.87 2.137 5.41c-1.247 2.36-5.153 2.927-6.68.735-1.303-1.87-.269-3.686 1.102-3.941 1.436-.267 2.304.334 2.972 1.536.001.001 2.473-.934.469-3.74z"/><path d="M323.612 398.29s-8.703.331-8.266 6.362c.192 2.653 3.781 4.506 6.046 3.115 1.932-1.187 1.619-3.165.611-4.042-1.11-.966-2.209-.617-3.298.214 0 .001-.554-3.295 4.907-5.649zM306.228 386.567s-4.698-3.152-6.526.6c-.804 1.651.696 4 2.53 3.954 1.565-.039 2.063-1.328 1.765-2.201-.328-.961-1.105-1.134-2.043-1.015 0 .001-.285-2.439 4.274-1.338zM299.844 384.226s-4.333-2.907-6.02.554c-.742 1.523.642 3.69 2.334 3.647 1.443-.036 1.903-1.225 1.628-2.03-.302-.887-1.019-1.046-1.884-.936 0 0-.263-2.252 3.942-1.235z"/><path d="M316.075 403.445s-7.489.285-7.113 5.475c.165 2.283 3.254 3.878 5.203 2.68 1.663-1.022 1.752-2.896 1.031-3.791-1.252-1.553-2.755-.852-2.755-.852s-1.064-1.486 3.634-3.512z"/><path d="M310.587 407.558s-8.266-.802-7.652 4.778c.16 1.456 2.081 2.481 3.328 1.714 1.064-.654 1.121-1.853.659-2.425-.801-.993-1.763-.545-1.763-.545s.518-2.47 5.428-3.522z"/></g><path d="M363.599 434.091s-1.131 2.296-1.863 4.524c-.626 1.907-3.859 3.194-5.589 1.996s-4.651-4.776-3.454-5.575 6.381-.147 7.18-2.942c.798-2.794.532-4.658.532-4.658s-6.935 2.063-10.242-3.147c-3.306-5.21-2.834-10.298-4.13-12.822-1.013-1.974-2.794-2.928-2.794-2.928 2.037-8.066 26.88-13.839 23.997 7.097l3.903 8.871-7.54 9.584z" fill="#ffe6d7"/><g fill="#5aa587"><path d="M372.407 433.742c-1.703 1.102-7.949 4.275-11.823 1.87-3.168-1.966-3.206-4.208-1.202-4.709s3.106.902 4.208 0c1.102-.902 7.314-6.012 5.01-7.615s-3.552-2.9-3.507-5.711c.033-2.071 1.837-4.075 3.974-4.275 2.665-.25 4.743.868 7.548.868l-3.273 1.67c2.104 1.002 2.271 3.841 4.776 4.342 0 0-1.703 1.937-3.841 1.336 0 0 .735 2.004 2.739 2.271 0 0-1.87 2.137-3.607 2.739 0 0 1.136.802 2.906.468 0 0-2.772 4.075-6.913 5.11l3.005 1.636z"/><path d="M360.337 426.112s-1.113-.193-1.209-1.548c-.055-.781.725-1.794 2.052-1.718 1.555.089 2.61 2.154 1.864 3.523-1.907 3.501-9.007 2.096-9.875.827 0 0 5.678.267 7.168-1.084z"/></g><g fill="#ffe15a"><path d="M357.01 442.76c-.309-.434-.559-1.611.042-2.338 0 0-.326-1.678-1.603-1.077 0 0-.543 1.344-.109 2.279s1.67 1.136 1.67 1.136z"/><path d="M354.404 441.819c.022-1.21.293-1.872 1.27-1.973 0 0 .25-1.753-1.202-1.753 0 0-1.077.952-1.087 1.983s1.019 1.743 1.019 1.743z"/><path d="M352.794 440.646c.238-1.187.463-2.013 1.551-2.094 0 0 .579-1.436-1.024-1.636 0 0-1.022.82-1.217 1.832-.196 1.012.69 1.898.69 1.898z"/><path d="M351.182 438.804c.493-1.106.984-1.549 2.063-1.388 0 0 .927-1.303-.351-2.004 0 0-1.555.444-1.968 1.389s.256 2.003.256 2.003zM332.162 432.028c-.227-.482-.264-1.685.456-2.293 0 0-.023-1.709-1.386-1.345 0 0-.773 1.227-.511 2.224.261.998 1.441 1.414 1.441 1.414z"/><path d="M329.764 430.639c.236-1.187.621-1.791 1.6-1.716 0 0 .558-1.681-.872-1.939 0 0-1.229.745-1.422 1.758s.694 1.897.694 1.897z"/><path d="M328.388 429.199c.445-1.126.813-1.899 1.898-1.785 0 0 .824-1.31-.718-1.792 0 0-1.151.625-1.522 1.587-.372.961.342 1.99.342 1.99z"/><path d="M327.129 427.1c.682-1 1.243-1.349 2.276-1 0 0 1.143-1.117.011-2.034 0 0-1.609.161-2.183 1.017-.575.857-.104 2.017-.104 2.017z"/></g><path d="M298.864 365.41c-.217 1.084.334 2.271 2.939 3.407 2.605 1.136 2.538.668 4.275 2.872s1.937 2.271 4.075 2.672 3.139 7.014.601 6.012-2.872-3.073-5.678-2.405-4.275 1.603-6.479-.868c0 0-2.138 2.872 1.87 4.075 4.008 1.202 6.194 1.295 8.174 2.217 1.979.922 9 3.176 9.461-3.387.134-1.903-1.269-2.638-2.071-4.041-.802-1.403-1.603-2.338-3.54-3.874s-.735-2.805-3.874-3.273c-3.139-.468-5.745-.401-6.68-2.672s-2.806-2.071-3.073-.735z" fill="#ffe6d7"/><g fill="#5aa587"><path d="M351.466 397.255s.602-2.394-2.189-3.408c.656.199 1.257.377 1.947.589.587.18 1.053.349 1.603.526.214.29.502.442.647.848.849 2.378-1.252 5.463-3.756 5.127-2.136-.287-2.742-2.168-2.043-3.287.73-1.172 2.338-1.447 3.791-.395zM350.601 422.664c3.028.677 4.392-.492 4.392-.492s-1.113-.193-1.209-1.549c-.055-.781.725-1.794 2.052-1.718 1.555.089 2.61 2.154 1.864 3.523-1.641 3.011-6.302 2.3-8.356.165-.108-.22-.22-.438-.317-.656.45.283 1.025.604 1.574.727zM347.541 417.6c-.077-.343-.187-.688-.251-1.017 3.56 1.44 4.598-.373 4.598-.373s-1.113-.193-1.209-1.549c-.055-.781.725-1.794 2.052-1.717 1.555.089 2.61 2.154 1.864 3.523-1.74 3.193-4.84 2.305-7.054 1.133zM339.533 419.294c2.069 1.854 3.651 1.752 3.651 1.752s-.827-.769-.167-1.957c.38-.685 1.587-1.107 2.657-.319 1.254.924 1.011 3.23-.361 3.97-3.378 1.82-5.57-.995-6.742-3.262.317-.042.641-.118.962-.184z"/></g><g fill="#ffe15a"><path d="M286.208 417.501c.149-.739.923-2.143 1.874-2.239 0 0 1.122-1.97-.154-2.686 0 0-1.403.759-1.87 2.114-.466 1.357.15 2.811.15 2.811z"/><path d="M285.318 413.925c.97-1.159 1.664-1.529 2.355-.63 0 0 1.543-1.456.632-2.937 0 0-1.427-.169-2.248.827-.821.996-.739 2.74-.739 2.74z"/><path d="M285.236 411.138c1.087-.916 1.881-1.493 2.627-.463 0 0 1.498-.812.651-2.642 0 0-1.288-.242-2.211.548-.922.791-1.067 2.557-1.067 2.557z"/><path d="M285.681 407.699c1.183-.576 1.841-.509 2.39.748 0 0 1.61-.327 1.364-2.313 0 0-1.326-1.152-2.331-.651-1.006.501-1.423 2.216-1.423 2.216z"/></g><path d="M309.899 368.114c-.994 1.795.83 3.618 2.625 2.625.231-.128.426-.323.554-.554.994-1.795-.83-3.618-2.625-2.625a1.445 1.445 0 00-.554.554z" fill="#f5f5f5"/><path d="M310.89 368.819a.687.687 0 00.93.93.59.59 0 00.268-.268.687.687 0 00-.93-.93.58.58 0 00-.268.268z" fill="#41479b"/><path d="M306.328 361.5c-.777 1.444.679 2.9 2.123 2.123.202-.109.375-.281.483-.483.777-1.444-.679-2.9-2.123-2.123a1.207 1.207 0 00-.483.483z" fill="#f5f5f5"/><path d="M307.132 362.078a.556.556 0 00.741.741.507.507 0 00.257-.257.556.556 0 00-.741-.741.503.503 0 00-.257.257z" fill="#41479b"/><path d="M361.586 399.041c1.73 1.331 7.715-1.603 11.923-.2 5.439 1.813 5.393 5.309 5.393 5.309s-3.389-4.207-9.034-2.136c-3.123 1.146-4.939 1.204-4.939 1.204l-3.343-4.177z" fill="#fff5e6"/></svg>