<svg xmlns="http://www.w3.org/2000/svg" viewBox="0 0 512 512"><path fill="#ffe15a" d="M0 .001h512V56.89H0z"/><path fill="#ff4b55" d="M0 56.891h512v56.889H0z"/><path fill="#ffe15a" d="M0 113.781h512v56.889H0z"/><path fill="#ff4b55" d="M0 170.671h512v56.889H0z"/><g fill="#ffe15a"><path d="M0 227.561h512v56.889H0zM0 455.11h512v56.889H0z"/></g><path fill="#ff4b55" d="M0 284.44h512v56.889H0z"/><path fill="#ffe15a" d="M0 341.331h512v56.889H0z"/><path fill="#ff4b55" d="M0 398.221h512v56.889H0z"/><path d="M343.366 256H0V0h353.737v245.63c0 5.727-4.643 10.37-10.371 10.37z" fill="#64466e"/><path d="M316.989 115.78h-26.972V84.955h3.853v-7.706H255.338v7.706h3.853v30.825h-15.413V84.955h3.853v-7.706H209.1v7.706h3.853v30.825h-23.119V77.249h3.853v-7.707h-38.532v7.706h3.853v38.532h-23.119V84.955h3.853v-7.706h-38.531v7.706h3.853v30.825H89.651V84.955h3.853v-7.706H54.972v7.706h3.853v30.825H28v7.706h3.853v69.357h53.944v-23.119a7.706 7.706 0 1115.412 0v23.119h38.531v-23.119a7.706 7.706 0 1115.412 0v23.119h7.706V165.87c0-6.384 5.175-11.56 11.56-11.56s11.56 5.176 11.56 11.56v26.972h7.706v-23.119a7.706 7.706 0 1115.412 0v23.119h38.531v-23.119a7.706 7.706 0 1115.412 0v23.119h53.944v-69.357h3.853v-7.706l-3.847.001zM81.945 146.605H66.532v-23.119a7.706 7.706 0 1115.412 0l.001 23.119zm46.238 0H112.77v-23.119a7.706 7.706 0 1115.412 0v23.119h.001zm53.944-23.118h-15.413v-15.413a7.706 7.706 0 1115.412 0v15.413h.001zm53.945 23.118h-15.413v-23.119a7.706 7.706 0 1115.412 0v23.119h.001zm46.238 0h-15.413v-23.119a7.706 7.706 0 1115.412 0v23.119h.001z" fill="#f5f5f5"/></svg>