<svg xmlns="http://www.w3.org/2000/svg" viewBox="0 0 512.002 512.002"><path fill="#f5f5f5" d="M.052.026h511.95v511.95H.052z"/><g fill="#464655"><path d="M256.026 256V.026H8.879c-2.147 0-4.041 1.313-5.57 3.257L256.026 256zM511.948.026L256.026 256H512zM0 511.974L256.026 256H.052zM256.026 256v255.974h255.922z"/></g><path d="M288.36 237.139v43.112c0 17.829-14.505 32.334-32.334 32.334s-32.334-14.505-32.334-32.334v-43.112h64.668m10.778-21.556h-86.223c-5.952 0-10.778 4.826-10.778 10.778v53.89c0 29.762 24.128 53.89 53.89 53.89s53.889-24.128 53.889-53.89v-53.89c-.001-5.952-4.826-10.778-10.778-10.778z" fill="#ff4b55"/><path d="M288.36 237.139v43.112c0 17.829-14.505 32.334-32.334 32.334s-32.334-14.505-32.334-32.334v-43.112h64.668" fill="#f5f5f5"/><g fill="#ffe15a"><path d="M217.132 222.915c3.554 5.466-2.281 11.301-7.747 7.747a2.934 2.934 0 01-.856-.856c-3.554-5.466 2.281-11.301 7.747-7.747.34.221.635.516.856.856zM303.355 222.915c3.554 5.466-2.281 11.301-7.747 7.747a2.934 2.934 0 01-.856-.856c-3.554-5.466 2.281-11.301 7.747-7.747.34.221.635.516.856.856zM217.132 266.027c3.554 5.466-2.281 11.301-7.747 7.747a2.934 2.934 0 01-.856-.856c-3.554-5.466 2.281-11.301 7.747-7.747.34.221.635.516.856.856zM303.355 266.027c3.554 5.466-2.281 11.301-7.747 7.747a2.934 2.934 0 01-.856-.856c-3.554-5.466 2.281-11.301 7.747-7.747.34.221.635.516.856.856zM260.244 222.915c3.554 5.466-2.281 11.301-7.747 7.747a2.934 2.934 0 01-.856-.856c-3.554-5.466 2.281-11.301 7.747-7.747.34.221.635.516.856.856zM260.244 320.338c3.554 5.466-2.281 11.301-7.747 7.747a2.934 2.934 0 01-.856-.856c-3.554-5.466 2.281-11.301 7.747-7.747.34.222.635.517.856.856zM292.599 305.77c3.554 5.466-2.281 11.301-7.747 7.747a2.934 2.934 0 01-.856-.856c-3.554-5.466 2.281-11.301 7.747-7.747.34.221.635.516.856.856zM228.523 305.77c3.554 5.466-2.281 11.301-7.747 7.747a2.934 2.934 0 01-.856-.856c-3.554-5.466 2.281-11.301 7.747-7.747.34.221.635.516.856.856z"/></g><g fill="#41479b"><path d="M262.987 266.741v9.281a6.968 6.968 0 01-6.96 6.96 6.968 6.968 0 01-6.96-6.96v-9.281h13.92M262.987 244.736v9.281a6.968 6.968 0 01-6.96 6.96 6.968 6.968 0 01-6.96-6.96v-9.281h13.92M262.987 288.97v9.281a6.968 6.968 0 01-6.96 6.96 6.968 6.968 0 01-6.96-6.96v-9.281h13.92M281.736 266.741v9.281a6.968 6.968 0 01-6.96 6.96 6.968 6.968 0 01-6.96-6.96v-9.281h13.92M244.238 266.741v9.281a6.968 6.968 0 01-6.96 6.96 6.968 6.968 0 01-6.96-6.96v-9.281h13.92"/></g><path d="M310.776 215.583H201.81a3.765 3.765 0 01-3.765-3.765v-9.114a3.765 3.765 0 013.765-3.765h108.967a3.765 3.765 0 013.765 3.765v9.114a3.766 3.766 0 01-3.766 3.765z" fill="#ffe15a"/><path fill="#ff4b55" d="M256.293 203.101l-8.321 4.161 8.321 4.161 8.321-4.161z"/><g fill="#4173cd"><ellipse cx="283.34" cy="207.26" rx="6.24" ry="4.161"/><ellipse cx="229.25" cy="207.26" rx="6.24" ry="4.161"/></g><g fill="#f5f5f5"><path d="M272.545 205.979c1.299 2.081-.893 4.273-2.974 2.974a1.296 1.296 0 01-.407-.407c-1.299-2.081.893-4.273 2.974-2.974.162.101.306.245.407.407zM297.509 205.979c1.299 2.081-.893 4.273-2.974 2.974a1.296 1.296 0 01-.407-.407c-1.299-2.081.893-4.273 2.974-2.974.162.101.306.245.407.407zM243.421 205.979c1.299 2.081-.893 4.273-2.974 2.974a1.296 1.296 0 01-.407-.407c-1.299-2.081.893-4.273 2.974-2.974.162.101.306.245.407.407zM218.458 205.979c1.299 2.081-.893 4.273-2.974 2.974a1.296 1.296 0 01-.407-.407c-1.299-2.081.893-4.273 2.974-2.974.162.101.306.245.407.407z"/></g><g fill="#ff4b55"><path d="M198.045 205.182v4.161l4.16 2.08 8.322-4.161-8.322-4.161zM314.541 209.343v-4.161l-4.161-2.081-8.321 4.161 8.321 4.161z"/></g><g fill="#f5f5f5"><path d="M228.605 171.877c-1.327-.654-2.906-.251-4.234.776.682-1.009 1.073-2.354.999-3.819-.152-2.976-2.135-5.294-4.43-5.177s-4.033 2.624-3.881 5.599c.081 1.582.697 2.942 1.585 3.886-1.792-.875-3.752-.789-4.949.409-1.625 1.624-1.234 4.651.873 6.757 2.107 2.108 5.132 2.499 6.757.874.454-.454.713-1.028.859-1.65.331.87.842 1.625 1.652 2.025 2.061 1.016 4.8-.328 6.117-3.001 1.317-2.673.714-5.664-1.348-6.679zm-6.117 3.001a6.75 6.75 0 00-.589 1.88c-.31-.821-.746-1.629-1.449-2.332-.121-.122-.268-.179-.395-.29.456.189.932.324 1.434.299.674-.035 1.272-.321 1.815-.718-.29.366-.596.714-.816 1.161zM282.1 178.556c1.317 2.673 4.056 4.017 6.117 3.001.81-.399 1.32-1.155 1.652-2.025.146.622.406 1.196.859 1.65 1.625 1.625 4.651 1.234 6.757-.874 2.107-2.107 2.499-5.132.873-6.757-1.198-1.199-3.158-1.284-4.95-.409.887-.943 1.504-2.304 1.585-3.886.151-2.976-1.586-5.483-3.881-5.599-2.295-.117-4.278 2.201-4.43 5.177-.075 1.465.316 2.81.999 3.819-1.329-1.028-2.907-1.43-4.234-.776-2.061 1.015-2.664 4.006-1.347 6.679zm6.649-4.84c.544.397 1.142.684 1.815.718.502.025.978-.11 1.434-.299-.127.11-.274.168-.395.29-.703.703-1.139 1.512-1.449 2.332a6.716 6.716 0 00-.589-1.88c-.22-.446-.527-.794-.816-1.161z"/></g><path d="M331.958 159.655c-5.993-2.133-18.601-3.275-23.4 7.618a4.16 4.16 0 002.129 5.485c2.033.897 4.37.009 5.362-1.956l1.569 1.858c-1.312 3.688-1.839 6.986-1.987 8.122-2.141 8.874-10.379 9.837-13.841 9.837-5.584 0-8.742-5.984-8.772-6.045a4.192 4.192 0 00-2.822-2.166 4.173 4.173 0 00-3.462.78c-2.28 1.792-9.371 6.631-14.723 7.484-2.58.414-4.685-.016-6.106-1.235-1.152-.983-1.56-2.219-1.56-2.979 0-1.865 2.294-4.161 4.161-4.161 1.414 0 1.957.906 1.957.906a4.164 4.164 0 005.544 1.991 4.163 4.163 0 001.981-5.542c-.807-1.707-3.032-4.339-6.684-5.291 2.22-3.523 4.259-7.803 5.524-12.866l-12.482-4.161s4.161-12.482-8.321-12.482-8.321 12.482-8.321 12.482l-12.482 4.161c1.266 5.062 3.305 9.344 5.524 12.866-3.653.953-5.877 3.585-6.684 5.291a4.162 4.162 0 001.981 5.542 4.162 4.162 0 005.54-1.983s.547-.914 1.961-.914c1.867 0 4.161 2.296 4.161 4.161 0 .76-.408 1.995-1.56 2.979-1.422 1.219-3.527 1.65-6.106 1.235-5.351-.853-12.443-5.692-14.723-7.484a4.173 4.173 0 00-3.462-.78 4.192 4.192 0 00-2.822 2.166c-.03.061-3.188 6.045-8.772 6.045-3.462 0-11.7-.963-13.841-9.837-.147-1.136-.674-4.435-1.987-8.122l1.569-1.858c.994 1.965 3.33 2.853 5.362 1.956a4.16 4.16 0 002.129-5.485c-4.799-10.893-17.406-9.751-23.4-7.618a4.161 4.161 0 00.309 7.94c5.097 1.369 7.384 11.113 7.783 14.416.018.142.045.293.075.435 2.326 10.174 10.757 16.496 22 16.496 6.444 0 10.899-3.649 13.486-6.671 3.645 2.402 9.51 5.749 14.984 6.618 1.05.167 2.078.252 3.082.252 3.759 0 7.141-1.158 9.735-3.373 2.806-2.393 4.48-5.875 4.48-9.308 0 3.434 1.674 6.915 4.48 9.308 2.595 2.215 5.976 3.373 9.735 3.373 1.004 0 2.032-.085 3.082-.252 5.475-.87 11.34-4.218 14.984-6.618 2.586 3.023 7.041 6.671 13.486 6.671 11.243 0 19.673-6.322 22-16.496.03-.142.057-.293.075-.435.398-3.304 2.686-13.047 7.783-14.416a4.16 4.16 0 00.307-7.94z" fill="#ffe15a"/><g fill="#4173cd"><ellipse transform="rotate(157.473 186.168 173.983)" cx="186.167" cy="173.982" rx="4.161" ry="6.24"/><ellipse transform="rotate(22.527 325.9 173.968)" cx="325.896" cy="173.973" rx="4.161" ry="6.24"/><ellipse cx="256.02" cy="169.81" rx="6.24" ry="8.321"/></g></svg>