<svg xmlns="http://www.w3.org/2000/svg" viewBox="0 0 512 512"><path fill="#f5f5f5" d="M0 0h512v512H0z"/><path d="M142.247 273.341s.245 4.682-3.698 8.871c-3.943 4.191-1.972 9.612 3.204 12.077 0 0-3.572 8.502 1.726 12.075 3.345 2.258 7.886 1.972 7.886 1.972s2.465 10.106.494 16.511c-1.972 6.408.739 24.891 45.839 14.294 0 0 .409 11.829 18.483 21.03 18.071 9.201 14.532 30.995 14.532 30.995s24.876 14.402 52.37-19.639c27.494-34.04 29.458-38.623 49.097-46.478 0 0-30.767-31.422-19.639-58.916 1.465-3.623 3.122-7.426 4.848-11.336 3.186 10.349 9.479 25.459 20.723 34.247 3.498 2.721 7.815 3.58 11.988 4.419 4.48.9 8.346 1.677 10.167 4.439 1.601 2.46 1.747 6.799.509 12.803-13.369 14.583-26.287 18.47-26.469 18.516l-3.109.839 6.536 21.556-19.506 17.946.348 1.739c2.414 12.029 9.84 13.624 12.908 13.767.184 0 .368.02.552.02 7.099 0 14.32-5.973 16.611-13.849 3.969-13.604 16.918-15.159 17.061-15.159l1.964-.225.655-1.862c.286-.818 7.017-20.211 10.331-39.973 1.332-7.994 1.585-14.356 1.314-19.922.102-.192.22-.299.322-.494l-.338-.176c-1.25-21.071-12.678-26.678-23.965-31.88-9.622-4.467-13.399-8.804-15.269-12.243.389.01.719.113 1.112.113 3.069 0 6.301-.348 9.574-1.268 9.124-2.537 16.509-8.776 21.95-18.534 3.314-5.973 27.965-73.604 30.767-81.296l1.943-5.339-31.821 6.792 2.424-19.352-41.241 14.545.982 2.946c.143.389 13.277 39.83 12.008 63.907-.348 6.321-2.332 10.904-5.953 13.604-4.552 3.363-10.722 3.184-13.944 2.836 7.178-19.071 11.806-39.108 4.963-57.047-11.336-29.721-61.534-56.952-99.502-53.024-37.968 3.928-69.436 13.103-79.91 51.071-10.474 37.968-7.554 48-6.244 54.546 1.309 6.546-23.352 35.442-18.892 44.361 2.958 5.914 13.309 5.175 13.309 5.175zm181.997-34.337c.66-1.557 1.319-3.107 1.961-4.685 1.163.207 2.887.453 5.421.453 4.296 0 9.922-.818 14.606-4.316 5.176-3.866 8.019-10.024 8.449-18.309 1.166-21.602-8.244-53.454-11.354-63.294l25.858-9.103-6.28 50.16 6.219.777 4.298-34.322 22.868-4.874c-10.904 29.867-26.226 71.129-28.415 75.056-4.603 8.244-10.719 13.481-18.166 15.547-11.181 3.173-21.834-1.307-25.465-3.09zm15.511 119.292l3.191 10.53c-.082.256-.238.391-.315.655-1.493 5.114-6.301 9.308-10.576 9.308h-.286c-3.887-.164-5.748-3.948-6.628-7.037l14.614-13.456zm33.788-54.334c-.253 2.823-.527 5.682-1.084 9.037-2.659 15.895-7.774 32.015-9.492 37.191-3.519.823-10.781 3.311-15.964 10.346l-7.991-26.302c6.369-2.532 21.292-10.894 34.531-30.272zm-52.081-58.399c.12-.274.238-.524.355-.798 2.363 1.12 6.349 2.767 11.668 3.805 1.478 4.398 4.94 11.758 19.866 18.667 10.351 4.779 19.058 8.832 20.444 24.83-1.954 3.593-4.094 6.088-6.181 9.039-.304-2.542-.895-4.823-2.092-6.641-3.273-4.971-9.062-6.137-14.197-7.16-3.621-.736-7.037-1.412-9.349-3.212-13.208-10.315-18.87-31.28-20.514-38.53zm-163.443-46.404s.984-22.178 10.845-40.909l150.824 69.991-12.816 27.601-148.853-56.683z" fill="#464655"/></svg>