<svg xmlns="http://www.w3.org/2000/svg" viewBox="0 0 512 512"><g fill="#41479b"><path d="M0 0h512v512H0z"/><path d="M94.316 0H0v19.977L94.316 81.77zM0 68.299v26.017h39.71zM0 161.684v26.017l39.71-26.017zM256 19.977V0h-94.316v81.77zM256 187.701v-26.017h-39.71zM161.684 174.23V256H256v-19.977zM256 94.316V68.299l-39.71 26.017zM0 236.023V256h94.316v-81.77z"/></g><g fill="#f5f5f5"><path d="M256 236.023v-19.964l-83.768-54.375h24.748L256 199.995v-12.294l-39.71-26.017H256V148.21H148.211V256h13.473v-81.77zM0 148.21v13.474h39.71L0 187.701v18.901l69.197-44.918h24.748L0 222.666v13.357l94.316-61.793V256h13.473V148.21zM107.789 0H94.316v81.77L0 19.977v21.862l80.842 52.477H56.094L0 57.904v10.395l39.71 26.017H0v13.474h107.789zM256 107.79V94.316h-39.71L256 68.299V49.157l-69.568 45.159h-24.748L256 33.093V19.977L161.684 81.77V0h-13.473v107.79z"/></g><g fill="#ff4b55"><path d="M256 148.21v-40.42H148.211V0h-40.422v107.79H0v40.42h107.789V256h40.422V148.21z"/><path d="M69.197 161.684L0 206.602v16.064l93.945-60.982zM172.232 161.684L256 216.059v-16.064l-59.02-38.311zM80.842 94.316L0 41.839v16.065l56.094 36.412zM186.432 94.316L256 49.157V33.093l-94.316 61.223z"/></g><path d="M330.247 453.306l-4.484-10.465 2.242 5.232-2.268-5.219c.945-.417 23.138-10.542 23.138-40.315h11.384c-.001 37.473-28.786 50.241-30.012 50.767z" fill="#e67346"/><path d="M334.697 427.849l-8.048-8.048c15.387-15.387 23.384-19.608 24.246-20.04l5.091 10.183-2.546-5.091 2.59 5.069c-.072.036-7.28 3.873-21.333 17.927z" fill="#eb7d4b"/><path d="M447.22 453.306l4.484-10.465-2.242 5.232 2.268-5.219c-.945-.417-23.138-10.542-23.138-40.315h-11.384c.001 37.473 28.786 50.241 30.012 50.767z" fill="#e67346"/><path d="M442.77 427.849l8.049-8.048c-15.387-15.387-23.384-19.608-24.246-20.04l-5.091 10.183 2.546-5.091-2.59 5.069c.071.036 7.278 3.873 21.332 17.927z" fill="#eb7d4b"/><path d="M388.717 254.554h-60.712v91.068c0 18.972 3.794 68.301 60.712 87.274 56.918-18.973 60.712-68.301 60.712-87.274v-91.068h-60.712z" fill="#4173cd"/><path d="M415.278 277.321h-32.621a15.18 15.18 0 01-9.482-3.326l-12.736-10.189a7.594 7.594 0 00-4.741-1.663h-1.133a7.59 7.59 0 00-7.589 7.589h-5.692a5.692 5.692 0 000 11.384h5.692a3.794 3.794 0 013.794 3.795v18.973c0 7.064 4.849 12.949 11.384 14.641v11.92h7.589l2.846-11.384h35.099l3.795 3.795v7.589h3.794v-11.384h3.795v11.384h3.794v-12.436c2.259-1.315 3.794-3.735 3.794-6.536v-22.767c.002-6.288-5.095-11.385-11.382-11.385z" fill="#c8c8c8"/><path fill="#73af00" d="M346.977 326.65l7.589 22.767h68.301l7.589-22.767z"/><path d="M429.144 341.828c-10.116 0-10.116 7.589-20.232 7.589-10.114 0-10.114-7.589-20.227-7.589-10.112 0-10.112 7.589-20.225 7.589-10.115 0-10.115-7.589-20.231-7.589-10.094 0-10.119 7.554-20.17 7.586.122 4.227.484 9.397 1.417 15.11 8.649-.707 9.161-7.518 18.752-7.518 10.115 0 10.115 7.589 20.231 7.589 10.112 0 10.112-7.589 20.225-7.589 10.114 0 10.114 7.589 20.227 7.589 10.116 0 10.116-7.589 20.232-7.589 9.618 0 10.123 6.825 18.814 7.52.933-5.713 1.296-10.883 1.418-15.11-10.097-.019-10.111-7.588-20.231-7.588z" fill="#f5f5f5"/><path d="M429.144 357.006c-10.116 0-10.116 7.589-20.232 7.589-10.114 0-10.114-7.589-20.227-7.589-10.112 0-10.112 7.589-20.225 7.589-10.115 0-10.115-7.589-20.231-7.589-9.591 0-10.103 6.812-18.752 7.518a98.234 98.234 0 003.49 14.466c5.534-1.933 7.151-6.806 15.262-6.806 10.115 0 10.115 7.589 20.231 7.589 10.112 0 10.112-7.589 20.225-7.589 10.114 0 10.114 7.589 20.227 7.589 10.116 0 10.116-7.589 20.232-7.589 8.141 0 9.75 4.893 15.32 6.818a98.268 98.268 0 003.494-14.477c-8.691-.694-9.196-7.519-18.814-7.519z" fill="#4173cd"/><path d="M429.144 372.184c-10.116 0-10.116 7.589-20.232 7.589-10.114 0-10.114-7.589-20.227-7.589-10.112 0-10.112 7.589-20.225 7.589-10.115 0-10.115-7.589-20.231-7.589-8.111 0-9.727 4.873-15.262 6.806a86.225 86.225 0 005.037 12.247c2.566-1.924 5.094-3.876 10.224-3.876 10.115 0 10.115 7.589 20.231 7.589 10.112 0 10.112-7.589 20.225-7.589 10.114 0 10.114 7.589 20.227 7.589 10.116 0 10.116-7.589 20.232-7.589 5.16 0 7.693 1.968 10.274 3.9a86.24 86.24 0 005.046-12.259c-5.569-1.925-7.178-6.818-15.319-6.818z" fill="#f5f5f5"/><path d="M429.144 387.362c-10.116 0-10.116 7.589-20.232 7.589-10.114 0-10.114-7.589-20.227-7.589-10.112 0-10.112 7.589-20.225 7.589-10.115 0-10.115-7.589-20.231-7.589-5.13 0-7.659 1.952-10.224 3.876a79.02 79.02 0 007.157 11.584 16.35 16.35 0 013.068-.282c10.115 0 10.115 7.589 20.231 7.589 10.112 0 10.112-7.589 20.225-7.589 10.114 0 10.114 7.589 20.227 7.589 10.116 0 10.116-7.589 20.232-7.589 1.17 0 2.193.11 3.123.289a79.038 79.038 0 007.151-11.568c-2.582-1.931-5.115-3.899-10.275-3.899z" fill="#4173cd"/><path d="M432.267 402.829a16.373 16.373 0 00-3.123-.289c-10.116 0-10.116 7.589-20.232 7.589-10.114 0-10.114-7.589-20.227-7.589-10.112 0-10.112 7.589-20.225 7.589-10.115 0-10.115-7.589-20.231-7.589-1.148 0-2.151.108-3.068.282 6.15 8.256 14.492 15.996 25.782 22.293 7.687-1.135 8.542-7.397 17.741-7.397 9.22 0 10.058 6.29 17.793 7.404 11.293-6.297 19.638-14.037 25.79-22.293z" fill="#f5f5f5"/><g fill="#ff965a"><path d="M386.82 341.83h3.795v64.51h-3.795z"/><path d="M377.33 351.31h22.767v3.795H377.33zM377.33 374.08h22.767v3.795H377.33z"/></g><path fill="#ffe15a" d="M377.33 355.1h22.767v15.01H377.33z"/><path fill="#ff4b55" d="M386.82 341.828v7.589l-11.384-3.795z"/><g fill="#ff965a"><path d="M412.12 341.83h3.795v44.585h-3.795z"/><path d="M402.63 351.31h22.767v3.795H402.63zM402.63 374.08h22.767v3.795H402.63z"/></g><path fill="#ffe15a" d="M402.63 355.1h22.767v15.01H402.63z"/><path fill="#ff4b55" d="M412.116 341.828v7.589l-11.383-3.795z"/><g fill="#ff965a"><path d="M361.37 341.83h3.795v44.27h-3.795z"/><path d="M351.88 351.31h22.767v3.795H351.88zM351.88 374.08h22.767v3.795H351.88z"/></g><path fill="#ffe15a" d="M351.88 355.1h22.767v15.01H351.88z"/><path fill="#ff4b55" d="M361.365 341.828v7.589l-11.384-3.795z"/><path d="M407.689 383.567c0 10.461-8.512 18.973-18.973 18.973s-18.973-8.512-18.973-18.973h-7.558l-25.699-5.803-.837 3.702 11.328 2.558v3.338l8.351 3.341c3.292 15.415 17.006 27.016 33.388 27.016 16.219 0 29.807-11.377 33.271-26.562h12.263v-11.384l-26.561 3.794z" fill="#ff965a"/><path d="M449.429 254.554v91.068c0 18.972-3.795 68.301-60.712 87.274-56.918-18.973-60.712-68.301-60.712-87.274v-91.068h121.424m3.795-3.795H324.212v94.863c0 44.993 22.483 77.265 63.307 90.873l1.2.4 1.2-.4c40.824-13.608 63.307-45.881 63.307-90.873v-94.863h-.002z" fill="#f5f5f5"/><path d="M388.717 451.868c-27.929 0-53.829-9.357-69.283-25.027l10.805-10.657c12.664 12.84 34.525 20.507 58.478 20.507s45.814-7.667 58.478-20.507L458 426.841c-15.454 15.671-41.354 25.027-69.283 25.027z" fill="#ff965a"/></svg>