<svg xmlns="http://www.w3.org/2000/svg" viewBox="0 0 512 512"><path fill="#4173cd" d="M0 0h512v512H0z"/><path d="M195.738 390.735c-1.132 20.129 12.192 22.609 19.411 22.718s18.157 3.281 28.329 5.359 13.453-6.344 13.453-6.344c6.016 7.875 11.885 5.47 11.885 5.47 4.813-4.813 17.646-7.22 22.678-7.548s3.828-7.219 3.828-7.219c5.271-2.932 8.839-6.293 11.388-9.688.109.05.205.125.315.172 8.641 3.719 15.313-4.156 16.735-7.109.88-1.827 2.49-2.635 3.64-3.028l.407 4.559c3.719-5.359 11.813-3.391 11.813-3.391-8.313-12.797-16.735-6.891-16.735-6.891l3.263 3.1c-4.952 2.496-7.891 12.376-15.185 9.478-.624-.248-1.151-.603-1.706-.929 2.945-5.838 3.04-11.344 2.253-14.493-1.422-5.688-10.172-7-14.438-1.203-2.982 4.052-1.095 10.312 3.226 15.006-2.282 1.592-5.195 3.072-9.023 4.135-11.813 3.281-29.532-12.25-41.782-12.906-12.25-.656-22.969 9.625-29.094 16.188s-14.344.75-14.219-3.5m96.799-16.625c2.297-.984 3.281.766 3.609 3.609.138 1.192-.517 3.142-2.123 5.238-2.531-3.892-2.946-8.221-1.486-8.847z" fill="#73af00"/><g fill="#f5f5f5"><path d="M230.431 415.013l-6.532 3.362 1.825-4.515zM224.337 413.456l-6.038 3.107 1.687-4.173zM218.706 412.32l-4.463 2.517 1.152-3.195zM268.817 417.939l-7.11 1.849 2.77-4.005zM263.879 415.308l-6.622 1.501 2.676-3.619zM259.26 412.883l-4.545 2.364 1.26-3.153z"/><ellipse transform="rotate(144.875 167.403 173.593)" cx="167.405" cy="173.594" rx="3.082" ry="4.03"/><ellipse transform="rotate(35.125 344.594 173.614)" cx="344.604" cy="173.604" rx="3.082" ry="4.03"/><path d="M298.27 240.271v78.503c0 23.308-18.963 42.271-42.271 42.271s-42.271-18.963-42.271-42.271v-78.503h84.542m24.154-30.193h-132.85a6.04 6.04 0 00-6.039 6.039v102.657c0 40.021 32.443 72.464 72.464 72.464s72.464-32.443 72.464-72.464V216.117a6.04 6.04 0 00-6.039-6.039z"/></g><g fill="#ff4b55"><path d="M213.728 240.271h-30.193v-22.193a8 8 0 018-8h22.193v30.193zM240.9 210.08h30.19v30.19H240.9zM183.53 270.46h30.19v30.19h-30.19zM298.27 270.46h30.19v30.19h-30.19zM328.463 240.271H298.27v-30.193h22.193a8 8 0 018 8v22.193zM281.688 386.465l-11.617-27.88c-4.41 1.564-9.133 2.459-14.072 2.459s-9.662-.896-14.072-2.459l-11.616 27.88c7.994 3.036 16.629 4.773 25.688 4.773s17.694-1.737 25.689-4.773zM202.544 367.576l23.616-18.893a42.199 42.199 0 01-11.717-22.35l-29.109 8.317c2.802 12.52 8.855 23.78 17.21 32.926zM326.663 334.65l-29.109-8.317a42.199 42.199 0 01-11.717 22.35l23.616 18.893c8.356-9.146 14.409-20.406 17.21-32.926z"/></g><g fill="#ffe15a"><path d="M192.59 216.12h12.08v18.12h-12.08zM192.59 276.5h12.08v18.12h-12.08zM198.63 336.89h12.08v18.12h-12.08zM301.29 336.89h12.08v18.12h-12.08zM307.33 216.12h12.08v18.12h-12.08z"/></g><g fill="#ff4b55"><path d="M192.59 246.12h12.08v18.12h-12.08zM307.33 246.12h12.08v18.12h-12.08zM192.59 306h12.08v18.12h-12.08zM218.63 359.41h12.08v18.12h-12.08zM281.29 359.41h12.08v18.12h-12.08zM307.33 306h12.08v18.12h-12.08z"/></g><path fill="#ffe15a" d="M249.96 216.12h12.08v18.12h-12.08z"/><g fill="#ff4b55"><path d="M221.28 216.12h12.08v18.12h-12.08zM278.14 216.12h12.08v18.12h-12.08z"/></g><g fill="#ffe15a"><path d="M307.33 276.5h12.08v18.12h-12.08zM249.96 367.08h12.08v18.12h-12.08zM255.999 251.783c11.654 0 21.135 9.481 21.135 21.135s-9.481 21.135-21.135 21.135-21.135-9.481-21.135-21.135c0-11.654 9.481-21.135 21.135-21.135m0-3.02c-13.34 0-24.155 10.814-24.155 24.155 0 13.34 10.814 24.155 24.155 24.155s24.155-10.814 24.155-24.155-10.815-24.155-24.155-24.155z"/></g><g fill="#73af00"><path d="M252.352 271.219c-5.99 0-9.727 1.685-12.068 3.782.962-4.742 2.963-9.82 7.162-9.82a1.511 1.511 0 000-3.02c-4.163 0-6.754 2.901-8.376 6.538-.996-19.802-4.071-19.877-5.211-19.877-.834 0-1.51.678-1.51 1.51 0 .725.507 1.327 1.188 1.474.631.754 1.17 3.295 1.608 6.814-1.954-4.148-4.793-7.156-8.961-7.156a1.511 1.511 0 000 3.02c4.124 0 6.654 5.029 8.164 11.072-2.897-4.131-7.269-7.168-13.699-7.168a1.511 1.511 0 000 3.02c6.679 0 10.512 3.852 12.722 8.304-2.591-2.193-6.283-3.775-11.59-3.775a1.511 1.511 0 000 3.02c14.365 0 14.59 13.516 14.592 14.094.001.22.149.374.234.562.075.165.079.368.206.495l.003.005c.273.273.65.443 1.067.443h.003c.155-.001.256-.122.397-.166.462-.144.778-.456.931-.913.05-.147.176-.255.178-.419.006-.36.259-8.816 12.959-8.816a1.511 1.511 0 00.001-3.023zM259.774 271.219c5.99 0 9.727 1.685 12.068 3.782-.962-4.742-2.963-9.82-7.162-9.82a1.511 1.511 0 010-3.02c4.163 0 6.754 2.901 8.376 6.538.996-19.802 4.071-19.877 5.211-19.877.834 0 1.51.678 1.51 1.51 0 .725-.507 1.327-1.188 1.474-.631.754-1.17 3.295-1.608 6.814 1.954-4.148 4.793-7.156 8.961-7.156a1.511 1.511 0 010 3.02c-4.124 0-6.654 5.029-8.164 11.072 2.897-4.131 7.269-7.168 13.699-7.168a1.511 1.511 0 010 3.02c-6.679 0-10.512 3.852-12.722 8.304 2.591-2.193 6.283-3.775 11.59-3.775a1.511 1.511 0 010 3.02c-14.365 0-14.589 13.516-14.592 14.094-.001.22-.149.374-.234.562-.075.165-.079.368-.206.495l-.003.005c-.273.273-.65.443-1.067.443h-.003c-.155-.001-.256-.122-.397-.166a1.371 1.371 0 01-.931-.913c-.05-.147-.176-.255-.178-.419-.006-.36-.259-8.816-12.959-8.816a1.511 1.511 0 01-.001-3.023z"/></g><path d="M232.698 278.956c2.694 10.4 12.059 18.116 23.301 18.116 11.242 0 20.607-7.716 23.301-18.116h-46.602z" fill="#ff4b55"/><g fill="#ffe15a"><path d="M255.999 297.072c11.242 0 20.607-7.716 23.301-18.116h-23.301v18.116zM255.999 306.508c11.654 0 21.135 9.481 21.135 21.135 0 11.654-9.481 21.135-21.135 21.135s-21.135-9.481-21.135-21.135c0-11.654 9.481-21.135 21.135-21.135m0-3.019c-13.34 0-24.155 10.814-24.155 24.155 0 13.34 10.814 24.155 24.155 24.155s24.155-10.814 24.155-24.155-10.815-24.155-24.155-24.155z"/></g><g fill="#73af00"><path d="M252.352 325.945c-5.99 0-9.727 1.685-12.068 3.782.962-4.742 2.963-9.82 7.162-9.82a1.511 1.511 0 000-3.02c-4.163 0-6.754 2.901-8.376 6.538-.996-19.802-4.071-19.877-5.211-19.877-.834 0-1.51.678-1.51 1.51 0 .725.507 1.327 1.188 1.474.631.754 1.17 3.295 1.608 6.814-1.954-4.148-4.793-7.156-8.961-7.156a1.511 1.511 0 000 3.02c4.124 0 6.654 5.029 8.164 11.072-2.897-4.131-7.269-7.168-13.699-7.168a1.511 1.511 0 000 3.02c6.679 0 10.512 3.852 12.722 8.304-2.591-2.193-6.283-3.775-11.59-3.775a1.511 1.511 0 000 3.02c14.365 0 14.59 13.516 14.592 14.094.001.22.149.374.234.562.075.165.079.368.206.495l.003.005c.273.273.65.443 1.067.443h.003c.155-.001.256-.122.397-.166.462-.144.778-.456.931-.913.05-.147.176-.255.178-.419.006-.36.259-8.816 12.959-8.816a1.511 1.511 0 00.001-3.023zM259.774 325.945c5.99 0 9.727 1.685 12.068 3.782-.962-4.742-2.963-9.82-7.162-9.82a1.511 1.511 0 010-3.02c4.163 0 6.754 2.901 8.376 6.538.996-19.802 4.071-19.877 5.211-19.877.834 0 1.51.678 1.51 1.51 0 .725-.507 1.327-1.188 1.474-.631.754-1.17 3.295-1.608 6.814 1.954-4.148 4.793-7.156 8.961-7.156a1.511 1.511 0 010 3.02c-4.124 0-6.654 5.029-8.164 11.072 2.897-4.131 7.269-7.168 13.699-7.168a1.511 1.511 0 010 3.02c-6.679 0-10.512 3.852-12.722 8.304 2.591-2.193 6.283-3.775 11.59-3.775a1.511 1.511 0 010 3.02c-14.365 0-14.589 13.516-14.592 14.094-.001.22-.149.374-.234.562-.075.165-.079.368-.206.495l-.003.005c-.273.273-.65.443-1.067.443h-.003c-.155-.001-.256-.122-.397-.166a1.371 1.371 0 01-.931-.913c-.05-.147-.176-.255-.178-.419-.006-.36-.259-8.816-12.959-8.816a1.511 1.511 0 01-.001-3.023z"/></g><path d="M232.698 333.682c2.694 10.4 12.059 18.116 23.301 18.116 11.242 0 20.607-7.716 23.301-18.116h-46.602z" fill="#ff4b55"/><path d="M255.999 351.798c11.242 0 20.607-7.716 23.301-18.116h-23.301v18.116z" fill="#ffe15a"/><g fill="#f5f5f5"><path d="M171.458 228.194v-12.077h-30.194v12.077h6.039v132.85h-6.039v12.078H171.458v-12.078h-6.039v-132.85zM370.733 228.194v-12.077H340.54v12.077h6.039v132.85h-6.039v12.078h30.193v-12.078h-6.038v-132.85z"/></g><path d="M327.331 210.078H184.667a7.172 7.172 0 01-7.171-7.171v-9.813a7.172 7.172 0 017.171-7.171H327.33a7.172 7.172 0 017.171 7.171v9.813a7.17 7.17 0 01-7.17 7.171z" fill="#ffe15a"/><path d="M262.368 202.53H249.63a2.69 2.69 0 01-2.689-2.689v-3.68a2.69 2.69 0 012.689-2.689h12.738a2.69 2.69 0 012.689 2.689v3.68a2.69 2.69 0 01-2.689 2.689z" fill="#ff4b55"/><g fill="#73af00"><path d="M307.658 202.53H294.92a2.69 2.69 0 01-2.689-2.689v-3.68a2.69 2.69 0 012.689-2.689h12.738a2.69 2.69 0 012.689 2.689v3.68a2.69 2.69 0 01-2.689 2.689zM217.078 202.53H204.34a2.69 2.69 0 01-2.689-2.689v-3.68a2.69 2.69 0 012.689-2.689h12.738a2.69 2.69 0 012.689 2.689v3.68a2.69 2.69 0 01-2.689 2.689z"/></g><path d="M340.793 160.888l-8.806 3.019.85 8.401c-9.726 11.051-14.608 11.764-16.616 11.064-2.487-.859-3.634-4.404-4.097-7.123l3.634 3.634c18.116-18.116 7.737-44.724 7.737-44.724-5.095.944-7.36 5.661-7.36 5.661-4.718-.377-9.624 0-9.624 0-.377 4.152 1.132 10.002 1.132 10.002-10.357 2.135-14.619 7.748-14.619 7.748 1.776 4.973 7.448 9.236 7.448 9.236-1.698 4.152.377 9.058.377 9.058 2.592 0 4.834-.781 6.419-1.548-6.763 8.431-9.946 8.633-11.026 8.227-3.267-1.212-4.096-10.863-3.639-17.329a1.513 1.513 0 00-.964-1.516 1.532 1.532 0 00-1.731.478l-5.207 6.639c-21.732-28.954-4.55-46.28-4.55-46.28V113.46h-6.039v6.039h-5.176v-6.039h-5.176v6.039h-5.176v-6.039h-5.176v6.039h-5.176v-6.039h-5.176v6.039h-5.176v-6.039h-6.039v12.077s17.182 17.326-4.55 46.28l-5.207-6.639a1.506 1.506 0 00-1.731-.478 1.512 1.512 0 00-.964 1.516c.46 6.466-.366 16.114-3.639 17.329-1.083.393-4.273.198-11.049-8.256 1.589.777 3.85 1.578 6.475 1.578 0 0 2.076-4.906.377-9.058 0 0 5.672-4.263 7.448-9.236 0 0-4.263-5.613-14.619-7.748 0 0 1.51-5.85 1.132-10.002 0 0-4.906-.377-9.624 0 0 0-2.264-4.718-7.36-5.661 0 0-10.379 26.608 7.737 44.724l3.593-3.593c-.467 2.713-1.614 6.226-4.089 7.081-2.021.701-6.885-.012-16.586-11.03l.853-8.436-8.806-3.019c-4.529-13.713-15.348-12.077-15.348-12.077 7.171 6.165 8.681 21.89 8.681 21.89l18.619 18.116 1.007-2.893c-.416-2.419-1.065-4.311-1.761-5.844 5.841 5.397 10.583 7.461 14.337 6.145 3.686-1.277 5.248-5.44 5.909-8.583 4.954 6.121 8.931 9.067 12.254 9.067a5.28 5.28 0 001.869-.336c4.747-1.757 5.664-10.134 5.732-15.731l3.27 4.17v11.112h24.155a6.039 6.039 0 1112.078 0h24.155v-11.112l3.27-4.17c.068 5.596.985 13.973 5.732 15.731a5.289 5.289 0 001.869.336c3.323 0 7.301-2.949 12.254-9.067.66 3.143 2.223 7.307 5.909 8.583 3.772 1.315 8.529-.761 14.392-6.193-.705 1.541-1.363 3.447-1.783 5.892l1.007 2.893 18.619-18.116s1.51-15.725 8.681-21.89c.003-.001-10.817-1.637-15.346 12.076z" fill="#ffe15a"/><g fill="#f5f5f5"><path d="M235.194 202.53h-3.68a2.69 2.69 0 01-2.689-2.689v-3.68a2.69 2.69 0 012.689-2.689h3.68a2.69 2.69 0 012.689 2.689v3.68a2.69 2.69 0 01-2.689 2.689zM280.484 202.53h-3.68a2.69 2.69 0 01-2.689-2.689v-3.68a2.69 2.69 0 012.689-2.689h3.68a2.69 2.69 0 012.689 2.689v3.68a2.69 2.69 0 01-2.689 2.689z"/></g><g fill="#ff4b55"><path d="M325.774 202.53h-3.68a2.69 2.69 0 01-2.689-2.689v-3.68a2.69 2.69 0 012.689-2.689h3.68a2.69 2.69 0 012.689 2.689v3.68a2.69 2.69 0 01-2.689 2.689zM189.904 202.53h-3.68a2.69 2.69 0 01-2.689-2.689v-3.68a2.69 2.69 0 012.689-2.689h3.68a2.69 2.69 0 012.689 2.689v3.68a2.69 2.69 0 01-2.689 2.689z"/></g><g fill="#f5f5f5"><path d="M260.819 145.829c3.984 6.126-2.556 12.665-8.682 8.682a3.288 3.288 0 01-.958-.958c-3.984-6.126 2.556-12.665 8.682-8.682.38.248.71.578.958.958z"/><ellipse transform="rotate(165.836 195.386 159.62)" cx="195.386" cy="159.621" rx="3.9" ry="4.529"/><ellipse transform="rotate(14.164 316.647 159.626)" cx="316.648" cy="159.625" rx="3.9" ry="4.529"/><path d="M183.535 268.496c-5.705-1.079-13.304-1.867-21.645-.986-8.17.86-17.713 3.4-26.664 9.482v38.252c12.499-30.21 40.372-24.37 48.309-21.974v-24.774zM328.463 268.496c5.705-1.079 13.304-1.867 21.645-.986 8.17.86 17.713 3.4 26.664 9.482v38.252c-12.499-30.21-40.372-24.37-48.309-21.974v-24.774z"/></g><path d="M223.05 370.698s-6.506 10.212-9.8 11.2c0 0-4.466 3.253-5.372 2.923l15.666-18.159-.494 4.036z" fill="#ff4b55"/><path d="M222.477 376.593c-3.062-.328-5.469 1.422-7 3.5s-5.656 2.762-6.083.062c-.383-2.428 8.17-10.017 8.17-10.017s-1.421-2.558-5.328-1.563c-3.716.946-7.369 6.924-7.369 6.924s-3.714-1.454-6.698 1.033l-12.771 14.608s15.686 13.402 35.657-6.344l-3.39-1.094c1.094-4.156 4.812-7.109 4.812-7.109z" fill="#73af00"/><g fill="#f5f5f5"><path d="M204.857 379.474c.894 1.47-.641 3.006-2.111 2.111a.987.987 0 01-.323-.323c-.894-1.47.641-3.006 2.111-2.111a.987.987 0 01.323.323zM141.264 121.967a155.182 155.182 0 0154.348 9.608v-18.922a155.088 155.088 0 00-54.348-8.424v17.738zM292.231 101.382a155.2 155.2 0 00-72.464 0V83.266a155.2 155.2 0 0172.464 0v18.116z"/><path d="M225.806 87.58c-14.773 1.373-29.326 4.833-43.196 10.371l2.605 17.928c13.053-5.212 26.715-8.545 40.592-10.071l-.001-18.228zM135.226 142.648c8.227-2.297 16.603-3.989 25.08-4.922v-18.228c-8.468.787-16.844 2.341-25.08 4.497v18.653zM370.733 121.967a155.182 155.182 0 00-54.348 9.608v-18.922a155.088 155.088 0 0154.348-8.424v17.738z"/><path d="M286.192 87.58c14.773 1.373 29.326 4.833 43.196 10.371l-2.605 17.928c-13.053-5.212-26.715-8.545-40.592-10.071V87.58h.001zM376.772 142.648c-8.227-2.297-16.603-3.989-25.081-4.922v-18.228c8.468.787 16.844 2.341 25.081 4.497v18.653z"/></g></svg>