<svg xmlns="http://www.w3.org/2000/svg" viewBox="0 0 512 512"><path fill="#41479b" d="M0 0h512v512H0z"/><g fill="#f5f5f5"><path d="M396.582 252.895l-36.473-8.105c-5.239-48.86-44.034-87.638-92.895-92.88l-8.109-36.491c-.646-2.906-5.564-2.906-6.21 0l-8.09 36.405c-48.881 5.228-87.671 44.09-92.912 92.966l-36.475 8.105c-1.453.323-2.49 1.615-2.49 3.105s1.037 2.782 2.49 3.105l36.476 8.106c5.24 48.868 44.031 87.686 92.901 92.921l8.1 36.45a3.183 3.183 0 003.105 2.49 3.183 3.183 0 003.105-2.49l8.112-36.506c48.856-5.243 87.652-44.007 92.891-92.866l36.474-8.105c1.453-.323 2.49-1.615 2.49-3.105s-1.037-2.782-2.49-3.105zm-42.91-9.536l-69.571-15.46-15.451-69.533c44.231 5.707 79.324 40.76 85.022 84.993zm-110.318-85.004L227.9 227.9l-69.549 15.455c5.703-44.229 40.773-79.296 85.003-85zm-13.801 75.694L251.504 256H130.762l98.791-21.951zm-71.202 34.596l69.548 15.455 15.458 69.563c-44.233-5.699-79.303-40.786-85.006-85.018zM256 381.238l-21.951-98.79L256 260.496v120.742zm0-129.734V130.762l21.951 98.79L256 251.504zm12.661 102.076l15.44-69.48 69.57-15.46c-5.7 44.224-40.789 79.227-85.01 84.94zm13.786-75.629L260.496 256h120.742l-98.791 21.951zM92.707 259.179H28.593c-.633 0-1.145-1.422-1.145-3.179s.512-3.179 1.145-3.179h64.114c.633 0 1.145 1.422 1.145 3.179s-.512 3.179-1.145 3.179zM480.049 259.179h-60.815c-.6 0-1.086-1.422-1.086-3.179s.486-3.179 1.086-3.179h60.815c.6 0 1.086 1.422 1.086 3.179s-.485 3.179-1.086 3.179zM256 93.852a3.177 3.177 0 01-3.179-3.179v-50.87A3.177 3.177 0 01256 36.624a3.177 3.177 0 013.179 3.179v50.87A3.177 3.177 0 01256 93.852zM256 475.377a3.177 3.177 0 01-3.179-3.179v-50.87a3.177 3.177 0 013.179-3.179 3.177 3.177 0 013.179 3.179v50.87a3.177 3.177 0 01-3.179 3.179z"/></g></svg>