<svg xmlns="http://www.w3.org/2000/svg" viewBox="0 0 512 512"><path fill="#f5f5f5" d="M0 0h512v512H0z"/><path d="M482.574 141.43c-1.711-.603-3.616.284-4.224 2.017-2.185 6.169-4.552 11.696-7.003 16.92-6.239 6.173-14.009 10.777-21.507 12.14-12.138 2.207-18.023 8.092-18.023 8.092-21.333-6.253-25.379 5.517-30.161 10.667-2.678 2.884-6.149 3.884-9.279 3.916-11.426-6.232-19.121-13.828-19.264-13.968a3.31 3.31 0 10-4.707 4.655c.969.981 19.577 19.424 43.448 23.259-6.929 2.04-12.037 3.471-12.037 3.471s-7.724 0-30.897 18.759-39.357 20.598-49.655 20.23c-10.299-.368-18.023-4.046-29.058 4.414-11.034 8.46-25.379 6.989-34.207 6.989s-23.172 1.471-34.207-6.989c-11.034-8.46-18.759-4.782-29.058-4.414-10.298.368-26.483-1.471-49.655-20.23s-30.897-18.759-30.897-18.759-5.107-1.431-12.037-3.471c23.871-3.835 42.478-22.277 43.448-23.259a3.31 3.31 0 10-4.707-4.655c-.143.141-7.838 7.737-19.264 13.968-3.13-.032-6.601-1.033-9.279-3.916-4.782-5.15-8.828-16.92-30.161-10.667 0 0-5.885-5.885-18.023-8.092-7.498-1.363-15.268-5.967-21.507-12.14-2.451-5.224-4.818-10.752-7.003-16.92-.608-1.733-2.513-2.621-4.224-2.017a3.308 3.308 0 00-2.017 4.224c.066.187.142.345.209.532.323 1.692 7.038 35.57 31.6 59.057 17.298 16.54 34.075 41.781 41.196 55.908 23.172 45.977 67.31 107.77 155.586 107.77s132.414-61.793 155.586-107.77c7.12-14.127 23.897-39.367 41.196-55.908 24.562-23.487 31.277-57.365 31.6-59.057.066-.186.142-.345.209-.532a3.308 3.308 0 00-2.017-4.224z" fill="#ff4b55"/></svg>