<svg xmlns="http://www.w3.org/2000/svg" viewBox="0 0 512 512"><path fill="#464655" d="M0 0h512v170.67H0z"/><path fill="#73af00" d="M0 341.33h512V512H0z"/><path fill="#f5f5f5" d="M0 170.67h512v170.67H0z"/><g fill="#ff4b55"><path d="M0 512l244.325-249.017c3.493-3.57 3.493-10.397 0-13.966L0 0v512zM317.408 255.08c0-30.733 20.073-56.769 47.821-65.735 1.594-.515 1.386-2.849-.282-3.013a69.317 69.317 0 00-16.452.347c-32.593 4.574-57.738 32.137-59.309 65.011-1.897 39.693 29.723 72.469 68.999 72.469 2.272 0 4.518-.112 6.732-.329 1.674-.164 1.893-2.505.292-3.022-27.737-8.972-47.801-35.003-47.801-65.728z"/><path d="M376.06 209.694l-9.076 27.214-28.687.222c-3.714.029-5.254 4.769-2.266 6.975l23.077 17.042-8.653 27.351c-1.12 3.541 2.912 6.47 5.933 4.311l23.339-16.682 23.339 16.682c3.022 2.16 7.053-.77 5.933-4.311l-8.653-27.351 23.077-17.042c2.988-2.206 1.448-6.946-2.266-6.975l-28.687-.222-9.076-27.214c-1.175-3.523-6.158-3.523-7.334 0z"/></g></svg>