<svg xmlns="http://www.w3.org/2000/svg" viewBox="0 0 512 512"><path fill="#f5f5f5" d="M0 0h512v512H0z"/><path fill="#ff4b55" d="M512 229.053H282.948V0h-53.895v229.053H0v53.895h229.053V512h53.895V282.948H512z"/><g fill="#464655"><path d="M165.138 112.113c1.482-2.965-6.714-12.569-6.279-14.744.435-2.176 1.406-5.51-2.076-18.13s-13.94-15.669-26.56-16.975c-12.62-1.305-29.304 7.745-33.072 17.624-2.274 5.962-.736 12.622 1.65 18.961-1.071.116-3.122.175-4.635-.943-1.203-.898-1.863-2.421-1.979-4.522-.422-8.003 3.944-21.112 3.991-21.241l.326-.979-13.706-4.834.806 6.432-10.576-2.257.646 1.775c.931 2.556 9.124 25.035 10.226 27.02 1.809 3.243 4.263 5.317 7.296 6.16 1.088.306 2.162.422 3.182.422.131 0 .241-.034.37-.037-.621 1.143-1.877 2.585-5.075 4.069-3.752 1.729-7.55 3.593-7.965 10.596l-.112.059c.034.065.073.1.107.164-.09 1.85-.006 3.965.437 6.622 1.101 6.568 3.338 13.014 3.434 13.286l.218.619.653.075c.048 0 4.352.517 5.671 5.038.762 2.618 3.162 4.603 5.521 4.603.061 0 .122-.007.184-.007 1.02-.048 3.488-.578 4.29-4.576l.116-.578-6.483-5.965 2.172-7.165-1.034-.279c-.06-.015-4.354-1.307-8.798-6.154-.411-1.996-.363-3.438.169-4.256.605-.918 1.89-1.176 3.379-1.475 1.387-.279 2.822-.564 3.984-1.469 3.737-2.921 5.829-7.943 6.888-11.383.574 1.3 1.124 2.563 1.611 3.768 3.699 9.138-6.527 19.582-6.527 19.582 6.527 2.611 7.18 4.134 16.318 15.448s17.406 6.527 17.406 6.527-1.176-7.244 4.83-10.302c6.007-3.058 6.143-6.99 6.143-6.99 14.99 3.522 15.891-2.621 15.236-4.751-.655-2.129.164-5.488.164-5.488s1.509.095 2.621-.655c1.761-1.187.574-4.013.574-4.013 1.72-.819 2.376-2.621 1.065-4.014-1.311-1.392-1.229-2.948-1.229-2.948s3.44.245 4.422-1.72zm-73.378-8.665c-2.475-.687-4.508-2.427-6.038-5.167-.728-1.305-5.82-15.02-9.444-24.947l7.601 1.62 1.429 11.408 2.067-.258-2.087-16.672 8.594 3.026c-1.034 3.27-4.161 13.857-3.774 21.037.143 2.754 1.088 4.8 2.808 6.085 1.557 1.163 3.427 1.435 4.855 1.435.842 0 1.415-.082 1.802-.15.213.524.433 1.039.652 1.557-1.208.591-4.749 2.08-8.465 1.026zm8.166 43.094c-.292 1.027-.911 2.285-2.203 2.339h-.095c-1.421 0-3.019-1.394-3.515-3.094-.025-.088-.077-.133-.105-.218l1.061-3.5 4.857 4.473zm-4.61-12.47l-2.656 8.742c-1.723-2.338-4.137-3.165-5.306-3.439-.571-1.72-2.271-7.078-3.155-12.361a38.39 38.39 0 01-.36-3.004c4.4 6.441 9.36 9.221 11.477 10.062zm-.986-16.665c-.768.598-1.904.823-3.107 1.067-1.707.34-3.631.728-4.719 2.38-.398.604-.594 1.362-.695 2.207-.694-.981-1.405-1.81-2.054-3.004.461-5.317 3.355-6.664 6.795-8.253 4.961-2.296 6.112-4.743 6.603-6.204a16.314 16.314 0 003.878-1.265c.039.091.078.174.118.265-.547 2.41-2.428 9.378-6.819 12.807zm11.668-9.39l-4.26-9.174 50.13-23.263c3.277 6.226 3.605 13.597 3.605 13.597l-49.475 18.84zM438.793 112.113c1.482-2.965-6.714-12.569-6.279-14.744s1.406-5.51-2.076-18.13-13.94-15.669-26.56-16.975c-12.62-1.305-29.304 7.745-33.072 17.624-2.274 5.962-.736 12.622 1.65 18.961-1.071.116-3.122.175-4.635-.943-1.203-.898-1.863-2.421-1.979-4.522-.422-8.003 3.944-21.112 3.991-21.241l.326-.979-13.707-4.834.806 6.432-10.576-2.257.646 1.775c.931 2.557 9.125 25.035 10.226 27.021 1.809 3.243 4.263 5.317 7.296 6.16 1.088.306 2.162.422 3.182.422.131 0 .241-.034.37-.037-.621 1.143-1.877 2.585-5.075 4.069-3.752 1.729-7.55 3.593-7.965 10.596l-.112.059c.034.065.073.1.107.164-.09 1.85-.006 3.965.437 6.622 1.101 6.568 3.338 13.014 3.434 13.286l.218.619.653.075c.048 0 4.352.517 5.671 5.038.762 2.618 3.162 4.603 5.521 4.603.061 0 .122-.007.184-.007 1.02-.048 3.488-.578 4.29-4.576l.116-.578-6.483-5.965 2.172-7.165-1.034-.279c-.06-.015-4.354-1.307-8.797-6.154-.411-1.996-.363-3.438.169-4.256.605-.918 1.89-1.176 3.379-1.475 1.387-.279 2.822-.564 3.984-1.469 3.737-2.921 5.829-7.943 6.888-11.383.574 1.3 1.124 2.563 1.611 3.768 3.699 9.138-6.527 19.582-6.527 19.582 6.527 2.611 7.18 4.134 16.318 15.448s17.406 6.527 17.406 6.527-1.176-7.244 4.83-10.302c6.007-3.058 6.143-6.99 6.143-6.99 14.99 3.522 15.891-2.621 15.236-4.751-.655-2.129.164-5.488.164-5.488s1.509.095 2.621-.655c1.761-1.187.574-4.013.574-4.013 1.72-.819 2.376-2.621 1.065-4.014-1.311-1.392-1.229-2.948-1.229-2.948s3.44.244 4.422-1.721zm-73.378-8.665c-2.475-.687-4.508-2.427-6.038-5.168-.728-1.305-5.82-15.02-9.444-24.947l7.601 1.62 1.429 11.408 2.067-.258-2.087-16.672 8.594 3.026c-1.034 3.27-4.161 13.857-3.774 21.037.143 2.754 1.088 4.8 2.808 6.085 1.557 1.163 3.427 1.435 4.855 1.435.842 0 1.415-.082 1.802-.15.213.524.433 1.039.652 1.557-1.208.592-4.748 2.081-8.465 1.027zm8.166 43.094c-.292 1.027-.911 2.285-2.203 2.339h-.095c-1.421 0-3.019-1.394-3.515-3.094-.025-.088-.077-.133-.105-.218l1.061-3.5 4.857 4.473zm-4.61-12.47l-2.656 8.742c-1.723-2.338-4.137-3.165-5.306-3.439-.571-1.72-2.271-7.078-3.155-12.361a38.39 38.39 0 01-.36-3.004c4.4 6.441 9.36 9.221 11.477 10.062zm-.986-16.665c-.768.598-1.904.823-3.107 1.067-1.707.34-3.631.728-4.719 2.38-.398.604-.594 1.362-.695 2.207-.694-.981-1.405-1.81-2.054-3.004.461-5.317 3.355-6.664 6.795-8.253 4.961-2.296 6.112-4.743 6.603-6.204a16.314 16.314 0 003.878-1.265c.039.091.078.174.118.265-.547 2.41-2.428 9.378-6.819 12.807zm11.669-9.39l-4.26-9.174 50.13-23.263c3.277 6.226 3.604 13.597 3.604 13.597l-49.474 18.84zM165.138 407.113c1.482-2.965-6.714-12.569-6.279-14.744.435-2.176 1.406-5.51-2.076-18.13-3.481-12.62-13.94-15.669-26.56-16.975s-29.304 7.745-33.072 17.624c-2.274 5.962-.736 12.622 1.65 18.961-1.071.116-3.122.175-4.635-.943-1.203-.897-1.863-2.421-1.979-4.522-.422-8.003 3.944-21.112 3.991-21.241l.326-.979-13.707-4.834.806 6.432-10.576-2.257.646 1.775c.932 2.557 9.125 25.035 10.226 27.021 1.809 3.243 4.263 5.317 7.296 6.16 1.088.306 2.162.422 3.182.422.131 0 .241-.034.37-.037-.621 1.143-1.877 2.585-5.075 4.069-3.752 1.729-7.55 3.593-7.965 10.596l-.112.059c.034.065.073.1.107.164-.09 1.85-.006 3.965.437 6.622 1.101 6.568 3.338 13.014 3.434 13.286l.218.619.653.075c.048 0 4.352.517 5.671 5.038.762 2.618 3.162 4.603 5.521 4.603.061 0 .122-.007.184-.007 1.02-.048 3.488-.578 4.29-4.576l.116-.578-6.483-5.965 2.172-7.165-1.034-.279c-.06-.015-4.354-1.307-8.798-6.154-.411-1.996-.363-3.438.169-4.256.605-.918 1.89-1.176 3.379-1.475 1.387-.279 2.822-.564 3.984-1.469 3.737-2.921 5.829-7.943 6.888-11.383a129.998 129.998 0 011.611 3.768c3.699 9.138-6.527 19.582-6.527 19.582 6.527 2.611 7.18 4.134 16.318 15.448s17.406 6.527 17.406 6.527-1.176-7.244 4.83-10.302c6.007-3.058 6.143-6.99 6.143-6.99 14.99 3.522 15.891-2.621 15.236-4.751-.655-2.129.164-5.488.164-5.488s1.509.095 2.621-.655c1.761-1.187.574-4.013.574-4.013 1.72-.819 2.376-2.621 1.065-4.014-1.311-1.392-1.229-2.948-1.229-2.948s3.441.244 4.423-1.721zm-73.378-8.665c-2.475-.687-4.508-2.427-6.038-5.168-.728-1.305-5.82-15.02-9.444-24.947l7.601 1.62 1.429 11.408 2.067-.258-2.087-16.672 8.594 3.026c-1.034 3.271-4.161 13.857-3.774 21.037.143 2.754 1.088 4.8 2.808 6.085 1.557 1.163 3.427 1.435 4.855 1.435.842 0 1.415-.082 1.802-.15.213.524.433 1.039.652 1.557-1.208.592-4.749 2.081-8.465 1.027zm8.166 43.094c-.292 1.027-.911 2.285-2.203 2.339h-.095c-1.421 0-3.019-1.394-3.515-3.094-.025-.088-.077-.133-.105-.218l1.061-3.5 4.857 4.473zm-4.61-12.47l-2.656 8.742c-1.723-2.338-4.137-3.165-5.306-3.439-.571-1.72-2.271-7.078-3.155-12.361a38.39 38.39 0 01-.36-3.004c4.4 6.441 9.36 9.221 11.477 10.062zm-.986-16.665c-.768.598-1.904.823-3.107 1.068-1.707.34-3.631.728-4.719 2.38-.398.604-.594 1.362-.695 2.207-.694-.981-1.405-1.81-2.054-3.004.461-5.317 3.355-6.664 6.795-8.253 4.961-2.296 6.112-4.743 6.603-6.204a16.314 16.314 0 003.878-1.265c.039.091.078.174.118.265-.547 2.409-2.428 9.377-6.819 12.806zm11.668-9.39l-4.26-9.174 50.13-23.263c3.277 6.226 3.605 13.597 3.605 13.597l-49.475 18.84zM438.793 407.113c1.482-2.965-6.714-12.569-6.279-14.744s1.406-5.51-2.076-18.13c-3.481-12.62-13.94-15.669-26.56-16.975-12.62-1.305-29.304 7.745-33.072 17.624-2.274 5.962-.736 12.622 1.65 18.961-1.071.116-3.122.175-4.635-.943-1.203-.897-1.863-2.421-1.979-4.522-.422-8.003 3.944-21.112 3.991-21.241l.326-.979-13.707-4.834.806 6.432-10.576-2.257.646 1.775c.931 2.557 9.125 25.035 10.226 27.021 1.809 3.243 4.263 5.317 7.296 6.16 1.088.306 2.162.422 3.182.422.131 0 .241-.034.37-.037-.621 1.143-1.877 2.585-5.075 4.069-3.752 1.729-7.55 3.593-7.965 10.596l-.112.059c.034.065.073.1.107.164-.09 1.85-.006 3.965.437 6.622 1.101 6.568 3.338 13.014 3.434 13.286l.218.619.653.075c.048 0 4.352.517 5.671 5.038.762 2.618 3.162 4.603 5.521 4.603.061 0 .122-.007.184-.007 1.02-.048 3.488-.578 4.29-4.576l.116-.578-6.483-5.965 2.172-7.165-1.034-.279c-.06-.015-4.354-1.307-8.797-6.154-.411-1.996-.363-3.438.169-4.256.605-.918 1.89-1.176 3.379-1.475 1.387-.279 2.822-.564 3.984-1.469 3.737-2.921 5.829-7.943 6.888-11.383a129.998 129.998 0 011.611 3.768c3.699 9.138-6.527 19.582-6.527 19.582 6.527 2.611 7.18 4.134 16.318 15.448s17.406 6.527 17.406 6.527-1.176-7.244 4.83-10.302c6.007-3.058 6.143-6.99 6.143-6.99 14.99 3.522 15.891-2.621 15.236-4.751-.655-2.129.164-5.488.164-5.488s1.509.095 2.621-.655c1.761-1.187.574-4.013.574-4.013 1.72-.819 2.376-2.621 1.065-4.014-1.311-1.392-1.229-2.948-1.229-2.948s3.44.244 4.422-1.721zm-73.378-8.665c-2.475-.687-4.508-2.427-6.038-5.168-.728-1.305-5.82-15.02-9.444-24.947l7.601 1.62 1.429 11.408 2.067-.258-2.087-16.672 8.594 3.026c-1.034 3.271-4.161 13.857-3.774 21.037.143 2.754 1.088 4.8 2.808 6.085 1.557 1.163 3.427 1.435 4.855 1.435.842 0 1.415-.082 1.802-.15.213.524.433 1.039.652 1.557-1.208.592-4.748 2.081-8.465 1.027zm8.166 43.094c-.292 1.027-.911 2.285-2.203 2.339h-.095c-1.421 0-3.019-1.394-3.515-3.094-.025-.088-.077-.133-.105-.218l1.061-3.5 4.857 4.473zm-4.61-12.47l-2.656 8.742c-1.723-2.338-4.137-3.165-5.306-3.439-.571-1.72-2.271-7.078-3.155-12.361a38.39 38.39 0 01-.36-3.004c4.4 6.441 9.36 9.221 11.477 10.062zm-.986-16.665c-.768.598-1.904.823-3.107 1.068-1.707.34-3.631.728-4.719 2.38-.398.604-.594 1.362-.695 2.207-.694-.981-1.405-1.81-2.054-3.004.461-5.317 3.355-6.664 6.795-8.253 4.961-2.296 6.112-4.743 6.603-6.204a16.314 16.314 0 003.878-1.265c.039.091.078.174.118.265-.547 2.409-2.428 9.377-6.819 12.806zm11.669-9.39l-4.26-9.174 50.13-23.263c3.277 6.226 3.604 13.597 3.604 13.597l-49.474 18.84z"/></g></svg>