<svg xmlns="http://www.w3.org/2000/svg" viewBox="0 0 512 512"><path fill="#464655" d="M0 0h512v170.67H0z"/><path fill="#73af00" d="M0 341.33h512V512H0z"/><path fill="#ff4b55" d="M0 170.67h512v170.67H0z"/><g fill="#f5f5f5"><path d="M95.399 233.164l5.247 11.381 12.169-2.994a.917.917 0 011.038 1.302l-5.627 11.198 9.928 7.648a.917.917 0 01-.37 1.623l-12.263 2.583.211 12.53a.917.917 0 01-1.5.722l-9.665-7.977-9.665 7.977a.917.917 0 01-1.5-.722l.211-12.53-12.263-2.583a.916.916 0 01-.37-1.623l9.928-7.648-5.627-11.198a.917.917 0 011.038-1.302l12.169 2.994 5.247-11.381a.916.916 0 011.664 0zM0 161.68h512v22.905H0zM0 327.41h512v22.905H0z"/></g><path d="M.001 512l244.325-249.017c3.493-3.57 3.493-10.397 0-13.966L.001 0v512z" fill="#41479b"/><path d="M81.118 214.847l19.831 20.297 25.624-12.192c3.317-1.579 6.735 1.974 5.029 5.228l-13.176 25.132 19.514 20.602c2.526 2.667.204 7.015-3.418 6.399l-27.974-4.764-13.564 24.925c-1.756 3.227-6.609 2.362-7.142-1.273l-4.113-28.077-27.897-5.198c-3.612-.673-4.288-5.556-.996-7.186l25.432-12.588-3.677-28.137c-.476-3.644 3.959-5.796 6.527-3.168z" fill="#ffe15a"/></svg>