<svg xmlns="http://www.w3.org/2000/svg" viewBox="0 0 512 512"><path fill="#3cc8ff" d="M0 0h512v512H0z"/><g fill="#ffe15a"><path d="M288.558 410.977l4.297 12.884 13.581.105c1.758.014 2.487 2.258 1.073 3.302l-10.925 8.068 4.097 12.949c.53 1.676-1.378 3.063-2.809 2.041l-11.049-7.897-11.049 7.897c-1.431 1.022-3.339-.364-2.809-2.041l4.097-12.949-10.925-8.068c-1.414-1.044-.685-3.288 1.073-3.302l13.581-.105 4.297-12.884c.555-1.668 2.914-1.668 3.47 0zM413.557 313.767l4.297 12.884 13.581.105c1.758.014 2.487 2.258 1.073 3.302l-10.925 8.068 4.097 12.949c.53 1.676-1.378 3.063-2.809 2.041l-11.049-7.897-11.049 7.897c-1.43 1.022-3.339-.364-2.809-2.041l4.097-12.949-10.925-8.068c-1.414-1.045-.685-3.288 1.073-3.302l13.581-.105 4.297-12.884c.555-1.668 2.914-1.668 3.47 0zM472.497 277.641l4.297 12.884 13.581.105c1.758.014 2.487 2.258 1.073 3.302L480.523 302l4.097 12.949c.53 1.676-1.378 3.063-2.809 2.041l-11.049-7.897-11.049 7.897c-1.43 1.022-3.339-.364-2.809-2.041L461 302l-10.925-8.068c-1.414-1.045-.685-3.288 1.073-3.302l13.581-.105 4.297-12.884c.556-1.668 2.915-1.668 3.471 0zM458.436 153.693l4.297 12.884 13.581.105c1.758.014 2.487 2.258 1.073 3.302l-10.925 8.068 4.097 12.949c.53 1.676-1.378 3.063-2.809 2.041l-11.049-7.897-11.049 7.897c-1.43 1.022-3.339-.364-2.809-2.041l4.097-12.949-10.925-8.068c-1.414-1.045-.685-3.288 1.073-3.302l13.581-.105 4.297-12.884c.554-1.668 2.914-1.668 3.47 0zM340.811 443.174l-4.297-12.884-13.581-.105c-1.758-.014-2.487-2.258-1.073-3.302l10.925-8.068-4.097-12.949c-.53-1.676 1.378-3.063 2.809-2.041l11.049 7.897 11.049-7.897c1.43-1.022 3.339.364 2.809 2.041l-4.097 12.949 10.925 8.068c1.414 1.045.685 3.288-1.073 3.302l-13.581.105-4.297 12.884c-.555 1.668-2.914 1.668-3.47 0zM381.432 406.719l-4.297-12.884-13.581-.105c-1.758-.014-2.487-2.258-1.073-3.302l10.925-8.068-4.097-12.949c-.53-1.676 1.378-3.063 2.809-2.041l11.049 7.897 11.049-7.897c1.43-1.022 3.339.364 2.809 2.041l-4.097 12.949 10.925 8.068c1.414 1.044.685 3.288-1.073 3.302l-13.581.105-4.297 12.884c-.554 1.668-2.913 1.668-3.47 0zM417.988 247.719l-4.297-12.884-13.581-.105c-1.758-.014-2.487-2.258-1.073-3.302l10.925-8.068-4.097-12.949c-.53-1.676 1.378-3.063 2.809-2.041l11.049 7.897 11.049-7.897c1.43-1.022 3.339.364 2.809 2.041l-4.097 12.949 10.925 8.068c1.414 1.045.685 3.288-1.073 3.302l-13.581.105-4.297 12.884c-.554 1.668-2.914 1.668-3.47 0zM375.804 261.26l-4.297-12.884-13.581-.105c-1.758-.014-2.487-2.258-1.073-3.302l10.925-8.068-4.097-12.949c-.53-1.676 1.378-3.063 2.809-2.041l11.049 7.897 11.049-7.897c1.431-1.022 3.339.364 2.809 2.041l-4.097 12.949 10.925 8.068c1.414 1.045.685 3.288-1.073 3.302l-13.581.105-4.297 12.884c-.555 1.668-2.914 1.668-3.47 0zM348.796 366.444l-4.297-12.884-13.581-.105c-1.758-.014-2.487-2.258-1.073-3.302l10.925-8.068-4.097-12.949c-.53-1.676 1.378-3.063 2.809-2.041l11.049 7.897 11.049-7.897c1.431-1.022 3.339.364 2.809 2.041l-4.097 12.949 10.925 8.068c1.414 1.045.685 3.288-1.073 3.302l-13.581.105-4.297 12.884c-.554 1.668-2.913 1.668-3.47 0z"/></g><g fill="#41479b"><path d="M94.316 0H0v19.977L94.316 81.77zM0 68.299v26.017h39.71zM0 161.684v26.017l39.71-26.017zM256 19.977V0h-94.316v81.77zM256 187.701v-26.017h-39.71zM161.684 174.23V256H256v-19.977zM256 94.316V68.299l-39.71 26.017zM0 236.023V256h94.316v-81.77z"/></g><g fill="#f5f5f5"><path d="M256 236.023v-19.964l-83.768-54.375h24.748L256 199.995v-12.294l-39.71-26.017H256V148.21H148.211V256h13.473v-81.77zM0 148.21v13.474h39.71L0 187.701v18.901l69.197-44.918h24.748L0 222.666v13.357l94.316-61.793V256h13.473V148.21zM107.789 0H94.316v81.77L0 19.977v21.862l80.842 52.477H56.094L0 57.904v10.395l39.71 26.017H0v13.474h107.789zM256 107.79V94.316h-39.71L256 68.299V49.157l-69.568 45.159h-24.748L256 33.093V19.977L161.684 81.77V0h-13.473v107.79z"/></g><g fill="#ff4b55"><path d="M256 148.21v-40.42H148.211V0h-40.422v107.79H0v40.42h107.789V256h40.422V148.21z"/><path d="M69.197 161.684L0 206.602v16.064l93.945-60.982zM172.232 161.684L256 216.059v-16.064l-59.02-38.311zM80.842 94.316L0 41.839v16.065l56.094 36.412zM186.432 94.316L256 49.157V33.093l-94.316 61.223z"/></g></svg>