<svg xmlns="http://www.w3.org/2000/svg" viewBox="0 0 512 512"><path fill="#41479b" d="M0 0h512v512H0z"/><path fill="#f5f5f5" d="M0 512L512 0H0z"/><path fill="#ffe15a" d="M224.779 0H0v224.78z"/><path d="M196.481 223.236c-4.006-26.737-25.089-47.82-51.825-51.825l-9.207-18.416-9.207 18.416c-26.737 4.005-47.82 25.088-51.825 51.825L56 232.443l18.415 9.207c4.006 26.737 25.089 47.82 51.825 51.825l9.207 18.416 9.207-18.416c26.737-4.005 47.82-25.088 51.825-51.825l18.415-9.207-18.413-9.207zm-61.033 62.173c-29.252 0-52.966-23.713-52.966-52.965s23.713-52.966 52.966-52.966 52.966 23.713 52.966 52.966-23.714 52.965-52.966 52.965z" fill="#464655"/><path fill="#ff4b55" d="M135.448 198.498l9.505 17.483 19.892-.51-10.388 16.972 10.388 16.973-19.892-.511-9.505 17.483-9.504-17.483-19.893.511 10.388-16.973-10.388-16.972 19.893.51z"/></svg>