<svg xmlns="http://www.w3.org/2000/svg" viewBox="0 0 512 512"><path fill="#41479b" d="M0 0h512v512H0z"/><path fill="#ffe15a" d="M0 350.32h512v67.37H0z"/><g fill="#f5f5f5"><path d="M181.548 126.06l-13.252 39.736-41.886.325c-4.017.031-5.682 5.157-2.451 7.543l33.696 24.883-12.635 39.937c-1.212 3.83 3.149 6.998 6.417 4.662l34.078-24.357 34.078 24.357c3.268 2.336 7.628-.832 6.417-4.662l-12.635-39.937 33.696-24.883c3.231-2.386 1.566-7.512-2.451-7.543l-41.886-.325-13.252-39.736c-1.274-3.811-6.663-3.811-7.934 0zM86.074 52.733l-7.671 23-24.244.187c-2.325.018-3.289 2.985-1.419 4.366l19.504 14.402-7.313 23.116c-.701 2.217 1.823 4.05 3.714 2.698l19.725-14.098 19.725 14.098c1.891 1.352 4.415-.482 3.714-2.698l-7.313-23.116L124 80.286c1.87-1.381.906-4.348-1.419-4.366l-24.244-.188-7.671-23c-.737-2.205-3.857-2.205-4.592.001z"/></g></svg>