<svg xmlns="http://www.w3.org/2000/svg" viewBox="0 0 512 512"><path fill="#41479b" d="M0 0h512v512H0z"/><path d="M267.31 202.483c-5.103-.966-11.31-7.448-9.103-11.034s-1.931-11.586-6.897-8.828c-4.966 2.759-8.276 6.069-12.966 7.172s-8.552 4.69-4.966 8 9.103 9.931 3.862 16.828-3.586 2.207-9.931 5.241-10.759 9.103-8.828 12.69c1.931 3.586 3.586 4.966-1.931 7.448s-8 .828-12.414 1.931-15.172 6.621-18.483 11.31c-3.31 4.69-10.483.276-13.517-.276s-9.103 1.655-10.483 5.241c-1.379 3.586 1.103 6.897 6.345 8.552 5.241 1.655 7.448 1.931 4.966 6.345-2.483 4.414-.828 12.966 3.31 15.448 4.138 2.483 12.138 10.207 12.138 15.448s-1.103 12.966 6.621 14.069 19.586 4.414 23.724 11.586 5.241 11.31 6.069 15.724 1.655 8 4.138 12.966 4.138 13.517 1.655 15.448-4.414 3.31-2.483 7.034 2.345 5.103 5.931 3.034 3.586.138 5.517-.276 10.759-3.586 9.103-7.862c-1.655-4.276-5.241-14.069-.138-19.172s12-5.931 16.414-9.379 11.724-4 17.379-9.517 11.724-2.207 12.69 1.655 2.483 11.31 6.897 11.172 5.379-.138 6.207-5.517 7.724-17.379 10.483-15.862 5.241.276 5.379-2.069 5.379-4.414 7.586-1.103c2.207 3.31 7.035 5.931 6.897 1.793s-5.793-3.586-5.931-8.138 4.552-7.448 8.69-9.379 1.655-6.897 2.897-9.655c1.241-2.759 8-6.207 8.276-8.966s-1.655-3.862 1.241-4.552c2.897-.69 6.483-1.931 4.414-5.103s-1.379-5.517.828-7.034 3.242-8.719.023-9.654-9.035 1.766-10.489 3.531c-1.454 1.766-7.374-5.816-10.178-7.685-2.804-1.869-20.875-.727-20.459-3.843.415-3.116 8-14.488 4.69-16.281s-8.552-4.414-12.828-5.793-3.31 3.31-5.655-.414-3.172-16.966-5.793-16.966-4.552 5.517-5.655 3.448.414-16.414-5.655-16.69-6.207 3.31-9.655.69c-3.449-2.618-2.955-1.436-9.932-2.756z" fill="#ff9b55"/><g fill="#f5f5f5"><path d="M229.837 124.013l-4.582 13.74-14.483.112c-.794.006-1.123 1.019-.485 1.491l11.651 8.604-4.369 13.809c-.24.757.622 1.383 1.268.922l11.783-8.422 11.783 8.422c.646.462 1.508-.165 1.268-.922l-4.369-13.809 11.651-8.604c.639-.472.31-1.485-.485-1.491l-14.483-.112-4.582-13.74c-.25-.753-1.315-.753-1.566 0zM280.871 124.013l-4.582 13.74-14.483.112c-.794.006-1.123 1.019-.484 1.491l11.651 8.604-4.369 13.809c-.24.757.622 1.383 1.268.922l11.783-8.422 11.783 8.422c.646.462 1.508-.165 1.268-.922l-4.369-13.809 11.651-8.604c.639-.472.31-1.485-.484-1.491l-14.483-.112-4.582-13.74c-.251-.753-1.317-.753-1.568 0zM179.492 132.427l-4.582 13.74-14.483.112c-.794.006-1.123 1.019-.484 1.491l11.651 8.604-4.369 13.809c-.24.757.622 1.383 1.268.922l11.783-8.422 11.783 8.422c.646.462 1.508-.165 1.268-.922l-4.369-13.809 11.651-8.604c.639-.472.31-1.485-.485-1.491l-14.483-.112-4.582-13.74c-.25-.753-1.316-.753-1.567 0zM131.859 149.741l-4.582 13.74-14.483.112c-.794.006-1.123 1.019-.485 1.491l11.651 8.604-4.369 13.809c-.24.757.622 1.383 1.268.922l11.783-8.422 11.783 8.422c.646.462 1.508-.165 1.268-.922l-4.369-13.809 11.651-8.604c.639-.472.31-1.485-.485-1.491l-14.483-.112-4.582-13.74c-.249-.754-1.315-.754-1.566 0zM332.647 132.427l4.582 13.74 14.483.112c.794.006 1.123 1.019.484 1.491l-11.651 8.604 4.369 13.809c.24.757-.622 1.383-1.268.922l-11.783-8.422-11.783 8.422c-.646.462-1.508-.165-1.268-.922l4.369-13.809-11.651-8.604c-.639-.472-.31-1.485.484-1.491l14.483-.112 4.582-13.74c.251-.753 1.317-.753 1.568 0zM380.28 149.741l4.582 13.74 14.483.112c.794.006 1.123 1.019.484 1.491l-11.651 8.604 4.369 13.809c.24.757-.622 1.383-1.268.922l-11.783-8.422-11.783 8.422c-.646.462-1.508-.165-1.268-.922l4.369-13.809-11.651-8.604c-.639-.472-.31-1.485.484-1.491l14.483-.112 4.582-13.74c.251-.754 1.317-.754 1.568 0z"/></g></svg>