<svg xmlns="http://www.w3.org/2000/svg" viewBox="0 0 512 512"><path fill="#ffe15a" d="M0 0h512v512H0z"/><g fill="#41479b"><path d="M94.316 0H0v19.977L94.316 81.77zM0 68.299v26.017h39.71zM0 161.684v26.017l39.71-26.017zM256 19.977V0h-94.316v81.77zM256 187.701v-26.017h-39.71zM161.684 174.23V256H256v-19.977zM256 94.316V68.299l-39.71 26.017zM0 236.023V256h94.316v-81.77z"/></g><g fill="#f5f5f5"><path d="M256 236.023v-19.964l-83.768-54.375h24.748L256 199.995v-12.294l-39.71-26.017H256V148.21H148.211V256h13.473v-81.77zM0 148.21v13.474h39.71L0 187.701v18.901l69.197-44.918h24.748L0 222.666v13.357l94.316-61.793V256h13.473V148.21zM107.789 0H94.316v81.77L0 19.977v21.862l80.842 52.477H56.094L0 57.904v10.395l39.71 26.017H0v13.474h107.789zM256 107.79V94.316h-39.71L256 68.299V49.157l-69.568 45.159h-24.748L256 33.093V19.977L161.684 81.77V0h-13.473v107.79z"/></g><g fill="#ff4b55"><path d="M256 148.21v-40.42H148.211V0h-40.422v107.79H0v40.42h107.789V256h40.422V148.21z"/><path d="M69.197 161.684L0 206.602v16.064l93.945-60.982zM172.232 161.684L256 216.059v-16.064l-59.02-38.311zM80.842 94.316L0 41.839v16.065l56.094 36.412zM186.432 94.316L256 49.157V33.093l-94.316 61.223z"/></g><path d="M160.662 102.774c25.689 40.615-17.273 83.578-57.888 57.888a23.982 23.982 0 01-7.435-7.435c-25.689-40.615 17.273-83.578 57.888-57.888a23.982 23.982 0 017.435 7.435z" fill="#41479b"/><g fill="#ffe15a"><path d="M130.221 94.611l6.753 20.248 21.344.165c2.763.021 3.909 3.548 1.686 5.19l-17.17 12.679 6.438 20.35c.834 2.635-2.166 4.814-4.414 3.207l-17.365-12.412-17.365 12.412c-2.248 1.607-5.248-.573-4.414-3.207l6.438-20.35-17.17-12.679c-2.223-1.642-1.077-5.168 1.686-5.19l21.344-.165 6.753-20.248c.873-2.621 4.581-2.621 5.456 0zM49.577 110.837l3.631 10.886 11.476.089c1.486.012 2.102 1.908.907 2.79l-9.232 6.817 3.462 10.941c.448 1.417-1.165 2.588-2.373 1.724l-9.336-6.673-9.336 6.673c-1.209.864-2.822-.308-2.373-1.724l3.462-10.941-9.232-6.817c-1.195-.883-.579-2.779.907-2.79l11.476-.089 3.631-10.886c.467-1.409 2.46-1.409 2.93 0zM209.356 110.837l3.631 10.886 11.476.089c1.486.012 2.102 1.908.907 2.79l-9.232 6.817 3.462 10.941c.448 1.417-1.165 2.588-2.373 1.724l-9.336-6.673-9.336 6.673c-1.209.864-2.822-.308-2.373-1.724l3.462-10.941-9.232-6.817c-1.195-.883-.579-2.779.907-2.79l11.476-.089 3.631-10.886c.467-1.409 2.46-1.409 2.93 0zM129.132 29.057l3.631 10.886 11.476.089c1.486.012 2.102 1.908.907 2.79l-9.232 6.817 3.462 10.941c.448 1.417-1.165 2.588-2.373 1.724l-9.336-6.673-9.336 6.673c-1.209.864-2.822-.308-2.373-1.724l3.462-10.941-9.232-6.817c-1.195-.883-.579-2.779.907-2.79l11.476-.089 3.631-10.886c.467-1.409 2.46-1.409 2.93 0zM129.132 194.543l3.631 10.886 11.476.089c1.486.012 2.102 1.908.907 2.79l-9.232 6.817 3.462 10.941c.448 1.417-1.165 2.588-2.373 1.724l-9.336-6.673-9.336 6.673c-1.209.864-2.822-.308-2.373-1.724l3.462-10.941-9.232-6.817c-1.195-.883-.579-2.779.907-2.79l11.476-.089 3.631-10.886c.467-1.41 2.46-1.41 2.93 0z"/></g></svg>