<svg xmlns="http://www.w3.org/2000/svg" viewBox="0 0 512 512"><path fill="#ff4b55" d="M0 0h512v512H0z"/><path fill="#ffe15a" d="M0 0v512h512z"/><g fill="#ffbe55"><path d="M281.674 219.905c1.508-1.213 2.756-2.712 2.283-3.975-.394-1.048-2.34-2.019-4.401-3.048-3.825-1.911-8.933-4.534-10.629-10.813-.202-.021-.39-.002-.598-.04-1.68-.311-2.727.267-3.94 4.21-.221.72-.696 1.875-1.324 3.196 1.257.834 4.4 2.77 7.459 3.465 6.063 1.379 9.794 3.722 11.15 7.005zM258.148 217.234c1.81 1.652 3.472 3.525 5.106 5.618.094.121.196.24.291.361 4.062-3.114 9.223-3.133 12.817-2.544-1.043-1.082-3.072-2.141-6.919-3.017-3.568-.809-7.024-2.827-8.731-3.926-.791 1.267-1.653 2.468-2.564 3.508zM278.729 235.107c1.902 1.099 5.725 3.576 9.036 7.148.489-2.747.343-6.394-2.238-9.604-2.206 1.219-4.566 1.992-6.798 2.456zM247.074 203.007l-.638.775c-3.177 3.884-6.78 8.118-10.224 11.57 2.095-.989 4.565-1.713 7.125-2.099.916-1.467 3.705-5.357 7.134-10.045-.826-.523-2.466-1.329-3.397-.201zM234.621 222.693c.016.025.232.292.838.521 1.054.406 3.01.546 5.048-.394 5.938-2.762 11.932-1.251 17.825 4.452.017.017.01.043.026.06.017.017.043.012.06.029.035.035 2.018 2.024 5.593 3.847a73.055 73.055 0 01-4.596-5.352c-2.137-2.731-3.985-5.087-6.185-6.49-5.582-3.543-15.304-.438-18.054 2.464-.447.476-.555.787-.555.863zM280.784 226.217l-.019.004c-.306.143-.64.214-.983.22-.015 0-.03.01-.046.01-.036 0-.066-.032-.102-.034-.25-.01-.502-.027-.749-.119-.082-.03-7.623-2.687-12.226.647a29.494 29.494 0 004.375 4.005c2.263.053 10.095-.083 14.557-4.251 2.254-2.104 2.444-4.402 2.065-6.21-1.664 2.612-4.611 4.653-6.872 5.728zM212.026 223.739c-.38-.551-.797-1.029-1.124-1.681-.537-1.073-.82-2.212-1.105-3.346-1.733 2.771-3.557 7.086-2.446 11.86 1.306-3.09 3.277-5.437 4.675-6.833z"/><path d="M254.135 214.444c2.194-2.292 4.896-7.382 5.591-9.639.667-2.178 2.699-8.801 9.471-7.576 1.508.279 2.626-.679 3.309-1.524-1.648-1.88-3.801-3.099-5.671-3.143-1.397-.133-3 .756-4.242 2.426-6.094 8.211-10.73 14.552-13.241 18.091 1.688.194 3.28.688 4.783 1.365zM238.403 199.667c-3.778 5.042-7.747 7.887-10.643 9.964-3.817 2.737-4.76 3.664-4.531 5.785.048.432.232.749.616 1.054.506.402 1.237.69 2.067.903.05-.025.083-.069.136-.09 4.556-1.854 13.631-12.942 16.616-16.587l.645-.787c3.162-3.825 7.612-2.294 10.047-.633.84-1.141 1.687-2.289 2.534-3.434-4.397-5.31-11.672-3.925-17.487 3.825zM276.822 198.037c-.72 1.037-1.751 2.118-3.066 2.926 1.213 4.024 4.596 5.869 7.979 7.556 2.008 1.001 3.897 1.999 5.26 3.412 1.142-4.088.993-7.339-.586-9.598-2.32-3.313-7.249-4.12-9.587-4.296zM259.013 344.193l.53.603c6.706 7.633 13.04 15.006 17.26 21.216-.127-3.353-.356-6.827-.759-9.24a1.874 1.874 0 01-.025-.235c-2.153-2.781-4.471-5.372-6.915-7.563-7.147-6.388-11.177-12.796-13.431-17.736-.385 4.249.098 9.272 3.34 12.955zM255.582 319.553a19.945 19.945 0 01-1.513-3.289c-.004-.01-.001-.021-.004-.031l-.106-.039c-1.46 2.532-4.137 4.275-6.996 4.28h-.013c-.22 0-.417-.085-.633-.105-.373 1.645-.493 3.505.547 4.499 1.172 1.13 3.554 1.115 4.798.797.605-2.577 1.274-4.402 1.359-4.614.412-1.024 1.45-1.624 2.561-1.498zM250.813 330.69c-.258.017-.495.059-.764.059-.728 0-1.486-.097-2.244-.247-.448 1.683-.604 3.58.514 4.724.699.714 1.722.99 2.56 1.043-.185-1.924-.229-3.819-.066-5.579zM160.153 222.122l-.011.006c-4.896 1.638-10.71 1.238-15.796.241 2.966 4.572 4.099 10.084 4.232 15.209 6.388-8.332 13.458-12.148 18.521-13.958-2.604-.232-4.952-.713-6.946-1.498zM275.584 343.328c-1.104-.085-3.597-.4-6.556-1.3 1.042 1.101 2.085 2.204 3.326 3.314 8.154 7.29 14.783 18.39 19.114 26.951 1.543-5.525 5.172-10.262 9.075-13.856-10.897-.721-19.419-8.308-24.959-15.109zM220.447 254.114a18.829 18.829 0 01-5.746-2.334c-1.306 4.154-2.218 8.001-2.72 11.511 2.702-.249 4.744-.225 6.134-.112.665-3.726 1.587-6.917 2.332-9.065zM143.503 242.233c.584-5.762.272-14.961-6.121-20.488-.021-.003-.039.006-.06.002-.197-.025-18.473-2.661-30.672 9.798-4.588 4.687-7.573 8.357-9.967 11.304-3.248 4.001-5.582 6.871-9.367 9.094 11.45 4.078 39.199 10.952 56.187-9.71zM313.299 168.382c5.105 2.743 13.726 5.968 21.267 2.182.011-.018.01-.039.021-.058.095-.159 9.516-16.047 2.673-32.088-2.575-6.033-4.826-10.192-6.636-13.532-2.451-4.528-4.213-7.785-4.823-12.135-8.138 9.03-25.106 32.035-12.502 55.631zM306.326 359.982c-4.595 3.525-11.081 10.048-10.728 18.486.016.022.041.032.056.055.105.152 10.719 15.266 28.154 15.615 6.576.133 11.281-.21 15.072-.489 5.141-.381 8.827-.641 13.034.578-4.889-11.124-18.906-36.014-45.588-34.245zM268.354 332.407c-.046-.095-.006-.2-.039-.299l-3.331 2.843c2.182 1.358 4.485 2.188 6.454 2.706-1.964-3.009-3.045-5.167-3.084-5.25zM254.609 299.892a25.861 25.861 0 01-2.747-.322c-.7 1.13-2.232 4.346.031 8.401.841 1.511 2.261 3.404 4.236 3.867 1.179.268 2.531-.128 3.964-.895-2.92-4.725-4.68-8.892-5.484-11.051zM304.459 214.116a256.185 256.185 0 0012.633-10.142c1.643-10.427 7.725-20.136 13.17-27.047-5.537.768-11.215-.591-16-2.635 6.403 17.14-7.46 36.132-10.062 39.479.084.119.179.222.259.345zM261.379 331.615l4.414-3.768c-2.87-.989-5.62-2.606-7.868-5.063.335 1.552 1.264 4.747 3.454 8.831zM206.926 264c.557-4.708 1.795-9.954 3.72-15.677-1.234-1.405-2.317-3.116-3.179-5.158-2.279 5.271-5.572 13.898-6.84 22.255a81.73 81.73 0 016.299-1.42zM292.313 204.588c.556 3.167.194 6.809-1.33 11.025.916 1.629 1.689 3.896 1.692 6.358 1.931-.412 2.074-1.58 2.671-7.958l.254-2.635c.241-2.419-.194-4.267-1.295-5.48-.571-.631-1.278-1.015-1.992-1.31zM291.784 246.261c1.585-.329 3.592-1.018 5.197-2.498 2.429-2.242 5.118-6.992 4.677-9.125-.054-.267-.121-.438-.584-.603-1.762-.629-2.292-.4-2.289-.394-.108.083-.308.527-.425.787-.305.673-.718 1.588-1.638 2.191-1.406.917-2.734 1.16-3.957 1.165.351 3.405-.321 6.497-.981 8.477zM202.422 224.886a22.312 22.312 0 011.871-6.196c-4.437-1.658-14.46-4.896-22.65-3.769-11.567 1.556-20.362.26-25.944-1.238 2.673 2.756 7.265 5.62 14.45 5.322 17.827-.357 28.047 3.674 32.273 5.881zM180.044 224.188c-4.219 3.304-7.33 7.275-9.456 10.666 6.553-3.397 14.967-6.788 20.532-8.917-2.997-.759-6.684-1.386-11.076-1.749zM300.081 228.829c.755.089 1.573.253 2.521.581-.038-.188-.07-.356-.119-.583-.298-1.375-.682-3.272-.585-6.033-.001-.018-.011-.033-.012-.051 0-.017.009-.033.008-.05.002-.057-.008-.089-.005-.147.119-2.561-.747-4.635-1.878-6.171-.333 3.296-.765 5.786-1.936 7.536.699 1.101 1.517 2.808 2.006 4.918zM306.377 218.773c.081.357.155.717.21 1.088 14.285-1.939 24.43-16.306 30.281-27.815-12.434 13.162-26.403 23.726-30.491 26.727zM246.95 315.598h.003c1.219-.006 2.465-.923 2.995-2.137-.84-.891-1.634-1.892-2.315-3.114-.456-.817-.755-1.601-1.027-2.376-.963.585-2.029 1.418-2.507 2.49-.359.794-.343 1.626.044 2.616.451 1.149 1.302 2.521 2.807 2.521zM195.547 266.906c.972-8.778 4.172-17.864 6.7-23.936-1.581 1.205-3.556 2.439-5.995 3.607-.273.606-5.197 11.638-7.069 22.563a127.077 127.077 0 016.364-2.234zM281.924 343.253c2.845.298 5.48.165 7.773-.159-4.34-1.48-8.668-3.442-12.212-5.207a55.596 55.596 0 004.439 5.366zM247.066 298.236c-11.731-4.456-20.986-17.08-24.302-33.135-.976 6.232-1.038 13.949 2.281 20.873 3.595 7.507 10.718 12.784 20.935 15.888a13.05 13.05 0 011.086-3.626zM309.484 224.462c-.259.055-.541.052-.802.101 3.259 3.565 16.356 19.42 19.903 47.09 2.437.933 4.709 1.89 6.634 2.859-1.272-11.259-6.368-39.735-25.735-50.05zM183.967 271.235c1.017-8.421 3.978-17.078 5.992-22.209-2.04.636-4.308 1.199-6.804 1.674-4.396 7.367-7.06 18.413-8.287 24.649a184.86 184.86 0 019.099-4.114zM262.89 315.048c-1.22.712-2.36 1.176-3.407 1.432 2.719 5.383 7.773 7.22 12.062 7.696-3.467-2.745-6.294-5.937-8.655-9.128z"/><path d="M227.804 223.83c.604-.277 1.353-.494 2.038-.739-.012-.126-.044-.243-.045-.373-2.856-.057-6.589-.52-8.988-2.431-1.4-1.118-2.238-2.616-2.426-4.337-.568-5.188 2.883-7.665 6.534-10.281 1.489-1.07 3.178-2.308 4.933-3.878-5.344-.365-10.136 1.424-13.112 5.294-2.943 3.823-3.509 8.725-1.473 12.789 2.772 5.562 8.757 5.004 12.539 3.956zM221.216 229.253c-1.424-.164-2.802-.606-4.132-1.202-.208 2.788-.036 6.57 1.777 8.792.045-1.246.199-2.514.564-3.761a13.794 13.794 0 011.791-3.829zM239.482 230.929c5.803.457 10.257-1.02 12.91-2.269-4.453-3.177-7.691-2.419-9.833-1.42-3.443 1.602-7.295 1.501-9.897 0-.962.435-2.003.87-3.219 1.219-2.721 1.365-4.49 3.309-5.274 5.798-.248.783-.287 1.555-.347 2.325.05-.042.052-.121.106-.16 5.584-4 10.814-5.797 15.554-5.493zM265.987 298.124c-1.993.785-4.049 1.364-6.169 1.65 1.405 3.35 4.178 9.052 8.572 14.401 2.287-3.855-.408-12.15-2.403-16.051zM219.67 242.99c-5.178-1.526-7.179-6.276-7.548-11.184-1.114 2.331-1.711 5.245-.594 8.484 2.247 6.496 7.155 8.39 10.038 8.993.032-.756.065-1.51.122-2.261-.016-.017-.038-.021-.054-.039-.67-.745-1.409-2.185-1.964-3.993zM202.334 230.34c-.177-.076-.374-.058-.534-.179-.027-.018-1.147-.763-3.23-1.71-7.331 3.957-11.448 12.027-13.329 16.836 13.283-3.218 17.495-9.262 18.318-10.674a17.871 17.871 0 01-1.225-4.273zM288.164 283.942c2.464-5.337 2.995-11.45 1.691-18.221-2.947 13.568-10.153 24.624-19.489 30.249.427.855.898 1.915 1.389 3.172 3.666-1.604 12.226-6.148 16.409-15.2zM294.047 232.542c.296-.795.737-1.619 1.382-2.306a10.874 10.874 0 00-1.399-3.614c-.725.191-1.54.334-2.469.427a4.143 4.143 0 01-.191.01 12.087 12.087 0 01-1.973 2.671c.743.938 1.385 1.88 1.855 2.848.128.07.285.027.402.122.196.141 1.107.681 2.393-.158zM300.98 246.636c2.52 6.616 4.09 12.638 4.714 17.952 1.983.517 4.099 1.087 6.296 1.704-1.259-9.366-5.197-19.215-7.526-24.431-1.034 1.857-2.287 3.528-3.484 4.775zM300.58 263.292c-.648-4.107-1.884-8.672-3.699-13.637-2.065 1.009-4.094 1.44-5.589 1.632.003.258.028.51.028.769 0 .62-.051 1.223-.068 1.837.058.099.144.174.189.284a58.873 58.873 0 012.509 7.549c.769.173 3.197.722 6.63 1.566zM317.079 267.772c2.082.629 4.168 1.288 6.201 1.972-3.081-19.738-11.161-32.857-15.672-38.77-.042.951-.243 1.978-.816 3.169-.067.141-.206.208-.295.329.022.268.065.53.06.806.18.177.356.361.477.598.351.685 8.648 16.979 10.045 31.896z"/></g><g fill="#ffd7aa"><path d="M256.368 295.137c16.584 0 30.075-19.324 30.075-43.08 0-1.302-.041-2.585-.121-3.861-3.223-4.845-8.859-8.224-10.529-9.151-9.941-.178-16.577-4.604-19.406-6.947-2.813 1.632-8.916 4.299-17.27 3.696-3.385-.216-7.265 1.111-11.589 4.058a60.252 60.252 0 00-1.235 12.205c0 23.756 13.491 43.08 30.075 43.08zM138.665 325.574c.445-.121 4.918-1.334 11.469-1.873 30.333-6.836 65.949-28.595 72.369-32.62-.63-1.003-1.352-1.943-1.868-3.024-3.192-6.676-3.703-13.803-3.168-20.019-4.569-.291-18.506.36-44.723 13.828a2.466 2.466 0 01-1.114.267 2.435 2.435 0 01-2.413-2.782c.076-.541 1.317-9.022 4.15-18.039-15.064 3.158-46.864 35.254-64.372 52.94-3.309 3.347-6.287 6.357-8.808 8.84-.349.343-.718.667-1.089.997-2.213 1.956-4.499 3.975-2.88 15.622 1.492 10.751 15.476 11.85 25.881 11.919h.762c3.274 0 11.157 2.724 24.814 7.544 13.259 4.68 28.287 9.983 38.019 11.805 4.655.864 9.024 1.645 13.053 2.362 12.301 2.197 21.188 3.778 25.839 5.703 5.645 2.337 11.872 13.875 17.266 24.506l1.035 2.026c3.178 6.134 3.775 13.812 1.553 20.029-1.08 3.029-.308 4.617.076 5.163.378.533.819.724 1.083.724 1.254 0 2.159 0 3.162-3.175 1.267-4.007 1.584-4.394 6.912-10.84l1.457-1.759c5.493-6.661-.01-20.327-2.654-26.9l-.371-.921c-1.88-4.699-.216-9.633 1.394-14.402 1.095-3.245 2.226-6.598 2.226-9.805 0-.699-.187-1.168-.629-1.588-2.559-2.426-11.237-1.962-17.578-1.638-2.337.127-4.553.241-6.452.241-9.818 0-25.569-9.811-48.478-24.785-11.357-7.411-24.823-8.052-33.961-7.322-3.785.826-7.5 1.429-11.084 1.753a2.453 2.453 0 01-2.619-1.988 2.433 2.433 0 011.741-2.789zM418.871 165.426c-4.121.87-4.617.775-12.907-.737l-2.185-.394c-8.519-1.569-17.717 9.964-22.15 15.482l-.626.775c-3.178 3.937-8.29 4.896-13.231 5.83-3.369.635-6.852 1.289-9.649 2.864-.606.337-.927.737-1.076 1.327-.864 3.41 3.785 10.757 7.179 16.123 1.251 1.975 2.435 3.855 3.366 5.506 4.804 8.554 3.956 27.097 2.115 54.409-.959 14.256 5.788 26.868 11.046 34.387a103.176 103.176 0 016.103 7.57 2.434 2.434 0 01-.384 3.289 2.43 2.43 0 01-3.312-.133c-.302-.305-3.093-3.15-6.414-7.874-13.332-14.849-29.703-24.667-36.51-28.391.177 1.938.246 3.257.256 3.536a2.437 2.437 0 01-1.334 2.267 2.51 2.51 0 01-1.102.26c-.54 0-1.076-.178-1.518-.527-6.464-5.148-30.217-11.404-41.492-14.017.993 6.959.173 13.339-2.48 19.059-2.726 5.87-6.917 10.001-10.861 12.906 20.682 25.553 69.658 36.471 99.146 43.014 7.592 1.683 14.152 3.137 18.975 4.534.473.14.937.298 1.403.464 2.791.972 5.664 1.981 15.037-5.137 8.646-6.566 2.842-19.356-2.28-28.405l-.371-.66c-1.6-2.851-3.083-11.062-5.563-25.325-2.41-13.856-5.141-29.561-8.319-38.94a1540.628 1540.628 0 00-4.344-12.593c-4.096-11.773-7.058-20.283-7.655-25.268-.724-6.065 6.28-17.133 12.904-27.033l1.273-1.918c3.801-5.779 10.202-10.053 16.708-11.157 3.166-.54 4.175-1.994 4.461-2.591.279-.591.232-1.067.105-1.295-.611-1.092-1.053-1.899-4.314-1.207zM101.271 163.775c2.842 3.105 3.016 3.575 5.944 11.424l.794 2.121c3.029 8.097 17.628 10.154 24.642 11.138l.972.14c5.007.718 8.446 4.617 11.773 8.395 2.267 2.572 4.61 5.226 7.389 6.827.61.349 1.114.425 1.692.248 3.378-.997 7.316-8.744 10.189-14.402 1.064-2.089 2.07-4.071 3.02-5.715 4.893-8.49 21.264-17.241 45.681-29.618 13.456-6.827 20.95-20.099 24.518-28.43.822-2.731 1.743-5.328 2.781-7.754.505-1.175 1.816-1.727 3.026-1.353a2.444 2.444 0 011.578 2.921c-.095.375-.946 3.575-2.867 8.103-6.534 22.227-6.24 53.71-5.803 66.388 4.925-5.391 9.605-6.613 12.83-6.613 3.56 0 6.819 1.56 9.424 4.295 2.728-3.539 5.839-4.225 8.106-4.206 4.114.101 7.526 2.742 9.696 5.485 2.38.121 7.751.755 11.665 4.105 5.392-26.469-7.003-64.078-15.372-89.407-2.619-7.932-4.883-14.783-6.306-20.245a26.951 26.951 0 01-.324-1.448c-.591-2.889-1.2-5.88-12.094-10.294-10.072-4.109-18.089 7.443-23.255 16.46l-.381.667c-1.635 2.839-7.941 8.313-18.946 17.743-10.668 9.144-22.763 19.514-29.195 27.033a1477.144 1477.144 0 00-8.567 10.116c-8.043 9.564-13.856 16.473-17.847 19.54-4.852 3.734-17.965 3.366-29.888 2.724l-2.242-.114c-3.758-.166-7.485-1.288-10.831-3.03l-.278-.069-.164-.199c-2.614-1.428-5.01-3.192-6.851-5.358-1.208-1.422-2.281-2.018-3.122-2.292l-2.679.595c-.54.972-.784 1.815 1.292 4.079z"/></g><path d="M427.438 164.245c-1.94-3.461-4.896-4.566-9.564-3.594-3.191.673-3.191.667-11.037-.756l-2.191-.4c-11.38-2.07-21.804 10.973-26.82 17.228l-.619.768c-2.048 2.54-5.89 3.258-10.338 4.096-3.753.711-7.636 1.442-11.132 3.404-1.759.991-2.943 2.502-3.42 4.382-1.375 5.449 3.283 12.809 7.789 19.927 1.2 1.899 2.34 3.702 3.232 5.29 4.452 7.932 2.953 30.177 1.505 51.691-.568 8.44 1.238 16.263 3.912 22.956-13.829-11.901-27.089-18.617-29.238-19.67-1.908-12.919-7.569-35.712-24.049-47.104 21.43-9.497 31.614-41.803 32.099-43.392a2.43 2.43 0 00-1.235-2.889 2.43 2.43 0 00-3.058.73c-5.599 7.599-12.797 14.976-19.593 21.223 4.159-11.753 13.398-22.014 17.405-26.055a23.797 23.797 0 002.064-2.007 2.442 2.442 0 00-.07-3.366c-.327-.33-.766-.411-1.189-.514 2.491-6.881 4.803-18.086-.148-29.695-2.661-6.236-4.972-10.51-6.83-13.939-3.331-6.153-4.852-8.96-4.394-15.457a2.427 2.427 0 00-1.356-2.356 2.422 2.422 0 00-2.696.362c-.339.3-31.774 28.778-19.837 60.307-.361.126-.746.201-1.024.497a2.44 2.44 0 00-.048 3.264c13.395 15.283-1.449 36.65-4.848 41.131-.077-.05-.148-.117-.225-.164-.001-3.051-.825-5.597-2.569-7.526-1.532-1.693-3.438-2.587-5.121-3.065 6.361-27.767-6.034-65.426-15.215-93.218-2.594-7.855-4.836-14.631-6.22-19.946-.102-.394-.181-.787-.264-1.188-.943-4.623-2.724-8.852-15.041-13.844-15.158-6.134-25.82 12.453-29.319 18.562l-.372.648c-1.299 2.254-9.738 9.487-17.898 16.479-10.802 9.259-23.048 19.756-29.729 27.56-3.083 3.607-5.947 7.017-8.589 10.154-7.554 8.979-13.517 16.066-17.089 18.816-3.826 2.947-20.416 2.051-26.652 1.715l-2.286-.121c-5.595-.248-11.199-2.902-14.628-6.941-2.505-2.953-5.661-4.458-8.662-4.21-2.131.197-3.985 1.314-4.956 2.997-1.981 3.436-1.426 6.541 1.8 10.053 2.2 2.407 2.2 2.407 4.969 9.83l.797 2.134c4.045 10.808 20.581 13.132 28.529 14.256l.959.133c3.229.464 5.814 3.397 8.808 6.795 2.118 2.4 4.408 4.752 7.102 6.667-.166.083-.358.089-.504.21a2.445 2.445 0 00-.778 2.61c.027.082 1.712 4.64 6.229 8.573-7.125.348-15.268-2.379-18.533-3.632a26.905 26.905 0 00-1.607-.648c-1.238-.457-2.604.171-3.096 1.384-.168.418-.172.848-.108 1.265-7.312.343-18.487 2.514-27.278 11.48-4.747 4.852-7.811 8.617-10.268 11.646-4.413 5.429-6.43 7.906-12.605 9.97a2.43 2.43 0 00-1.661 2.153 2.426 2.426 0 001.365 2.35c.251.121 14.755 7.011 31.602 7.011 10.644 0 22.22-2.767 31.732-11.713.252.273.46.595.83.733a2.446 2.446 0 003.036-1.207c7.039-14.248 16.744-19.372 22.393-21.207-5.035 6.411-7.251 12.466-7.374 12.825a2.439 2.439 0 00.924 2.813 2.433 2.433 0 002.959-.159c3.677-3.131 12.631-7.163 20.222-10.262-4.592 6.289-6.583 12.959-7.003 14.498-1.598 2.566-2.977 5.524-4.161 8.59-14.832.536-42.506 27.249-69.628 54.651-3.293 3.328-6.258 6.319-8.767 8.789-.289.286-.591.552-.899.826-3.531 3.124-6.309 6.776-4.48 19.946 2.254 16.206 23.693 16.168 30.729 16.123h.746c2.597 0 13.066 3.696 23.188 7.265 13.428 4.744 28.646 10.11 38.749 11.996 4.667.876 9.052 1.657 13.094 2.375 11.545 2.057 20.664 3.69 24.826 5.41 4.455 1.842 11.958 16.631 14.783 22.201l1.054 2.07c2.578 4.966 3.074 11.157 1.292 16.142-1.302 3.645-1.054 7.144.679 9.608 1.235 1.746 3.131 2.794 5.071 2.794 3.966 0 6.376-2.032 7.811-6.579.981-3.105.981-3.105 6.02-9.202l1.461-1.772c7.341-8.897 1.108-24.379-1.889-31.821l-.368-.914c-1.21-3.029.038-6.738 1.486-11.024 1.222-3.62 2.483-7.36 2.483-11.367 0-2.019-.743-3.791-2.15-5.131-4.077-3.867-12.783-3.397-21.191-2.966-2.245.121-4.372.235-6.195.235-9.1 0-27.763-12.193-45.811-23.985-6.773-4.426-14.114-6.681-20.991-7.697 27.332-9.356 54.006-25.867 59.135-29.124 4.001 4.557 9.344 8.176 16.211 10.657-.765.762-1.461 1.676-1.95 2.756-.902 1.994-.921 4.21-.057 6.42.535 1.369 1.325 2.446 2.223 3.346-1.563 5.469-.03 8.489 1.578 10.084-1.755 5.445-.237 8.647 1.425 10.352 1.743 1.784 4.163 2.546 6.296 2.546.281 0 .51-.087.779-.112.727 2.226 1.739 4.408 3.444 6.348l.53.597c7.363 8.376 19.683 22.391 21.137 28.932.273 1.219 1.419 2.007 2.635 1.899a2.438 2.438 0 002.185-2.4c.003-.362.054-5.995-.203-11.735 5.41 8.776 9.144 17.482 10.395 20.543.152.413.321.832.502 1.251a2.437 2.437 0 003.156 1.295c.408-.167.715-.452.969-.776 5.263 5.089 14.504 11.739 27.058 11.991 6.779.108 11.631-.222 15.523-.502 6.976-.514 10.157-.743 15.888 2.337a2.438 2.438 0 003.484-2.871c-.138-.432-13.202-40.741-46.835-42.85.033-.384.122-.768-.037-1.145a2.414 2.414 0 00-2.956-1.384c-8.322 2.546-15.558-.114-21.308-4.375 7.439-.464 12.602-3.023 12.872-3.156a2.44 2.44 0 00-.844-4.604c-10.9-1.149-27.525-11.107-27.69-11.208-.066-.039-.146-.015-.214-.048.033-.038.062-.077.091-.116.933.088 1.85.132 2.733.132 2.067 0 3.956-.216 5.483-.54a2.437 2.437 0 001.915-2.083 2.446 2.446 0 00-1.343-2.496c-3.325-1.635-6.203-3.844-8.711-6.282 3.003-3.645 2.721-9.147 1.474-14.01 1.093-.452 2.577-1.159 4.365-2.174 21.562 27.137 69.99 37.927 102.194 45.079 7.512 1.664 13.999 3.105 18.679 4.458.387.114.765.248 1.153.381 1.534.533 3.077.959 4.874.959 3.423 0 7.77-1.543 14.717-6.814 13.037-9.906 2.486-28.564-.984-34.692l-.362-.648c-1.27-2.261-3.172-13.196-5.01-23.769-2.442-14.034-5.207-29.935-8.509-39.67-1.53-4.521-3.001-8.744-4.353-12.631-3.848-11.056-6.887-19.781-7.417-24.252-.575-4.775 8.643-18.556 12.113-23.737l1.295-1.95c3.08-4.687 8.23-8.141 13.447-9.024 3.817-.654 6.75-2.585 8.046-5.309.924-1.922.908-4.081-.041-5.77zm-4.356 3.683c-.286.597-1.295 2.051-4.461 2.591-6.506 1.105-12.907 5.379-16.708 11.157l-1.273 1.918c-6.623 9.9-13.628 20.969-12.904 27.033.597 4.985 3.559 13.494 7.655 25.268 1.353 3.88 2.816 8.09 4.344 12.593 3.178 9.379 5.909 25.084 8.319 38.94 2.48 14.263 3.963 22.474 5.563 25.325l.371.66c5.121 9.049 10.926 21.839 2.28 28.405-9.373 7.119-12.247 6.109-15.037 5.137-.467-.165-.93-.324-1.403-.464-4.823-1.397-11.383-2.851-18.975-4.534-29.488-6.543-78.463-17.462-99.146-43.014 3.944-2.905 8.135-7.037 10.861-12.906 2.654-5.72 3.473-12.1 2.48-19.059 11.275 2.614 35.028 8.869 41.492 14.017.441.349.978.527 1.518.527a2.51 2.51 0 001.102-.26 2.438 2.438 0 001.334-2.267 78.671 78.671 0 00-.256-3.536c6.807 3.724 23.178 13.541 36.51 28.391 3.321 4.725 6.112 7.57 6.414 7.874a2.429 2.429 0 003.312.133 2.434 2.434 0 00.384-3.289 103.601 103.601 0 00-6.103-7.57c-5.258-7.519-12.005-20.13-11.046-34.387 1.842-27.313 2.689-45.855-2.115-54.409-.93-1.651-2.115-3.531-3.366-5.506-3.394-5.366-8.043-12.713-7.179-16.123.149-.591.47-.991 1.076-1.327 2.797-1.575 6.28-2.229 9.649-2.864 4.941-.934 10.052-1.892 13.231-5.83l.626-.775c4.432-5.518 13.631-17.051 22.15-15.482l2.185.394c8.29 1.511 8.786 1.607 12.907.737 3.261-.692 3.702.114 4.315 1.207.125.228.173.705-.106 1.295zM338.88 393.649c-3.791.279-8.497.622-15.072.489-17.435-.349-28.049-15.463-28.154-15.615-.015-.023-.04-.033-.056-.055-.353-8.438 6.134-14.961 10.728-18.486 26.683-1.769 40.7 23.121 45.588 34.245-4.207-1.219-7.893-.959-13.034-.578zm-47.411-21.356c-4.331-8.56-10.961-19.66-19.114-26.951-1.241-1.11-2.285-2.213-3.326-3.314 2.959.899 5.452 1.215 6.556 1.3 5.539 6.801 14.061 14.388 24.959 15.109-3.903 3.594-7.532 8.331-9.075 13.856zm-43.664-41.791c.758.15 1.517.247 2.244.247.269 0 .506-.042.764-.059-.164 1.759-.119 3.655.065 5.579-.838-.053-1.861-.329-2.56-1.043-1.117-1.144-.961-3.04-.513-4.724zm3.857-4.835c-1.244.318-3.626.333-4.798-.797-1.04-.994-.92-2.854-.547-4.499.216.019.412.105.633.105h.006c2.865-.006 5.543-1.748 7.002-4.28.035.013.07.027.106.039.004.01.001.021.004.031a19.983 19.983 0 001.513 3.289c-1.111-.126-2.148.474-2.561 1.499-.084.21-.752 2.036-1.358 4.613zm-112.121 4.682c3.585-.324 7.3-.927 11.084-1.753 9.138-.73 22.604-.089 33.961 7.322 22.909 14.974 38.661 24.785 48.478 24.785 1.899 0 4.115-.114 6.452-.241 6.341-.324 15.018-.787 17.578 1.638.441.419.629.889.629 1.588 0 3.207-1.13 6.56-2.226 9.805-1.61 4.769-3.274 9.703-1.394 14.402l.371.921c2.645 6.573 8.147 20.238 2.654 26.9l-1.457 1.759c-5.328 6.446-5.645 6.833-6.912 10.84-1.003 3.175-1.908 3.175-3.162 3.175-.264 0-.705-.191-1.083-.724-.384-.546-1.156-2.134-.076-5.163 2.223-6.217 1.626-13.894-1.553-20.029l-1.035-2.026c-5.395-10.63-11.621-22.169-17.266-24.506-4.652-1.924-13.539-3.505-25.839-5.703-4.029-.718-8.398-1.499-13.053-2.362-9.732-1.823-24.76-7.125-38.019-11.805-13.656-4.82-21.54-7.544-24.814-7.544h-.762c-10.405-.07-24.388-1.168-25.881-11.919-1.619-11.646.667-13.666 2.88-15.622.371-.33.74-.654 1.089-.997 2.521-2.483 5.499-5.493 8.808-8.84 17.508-17.686 49.309-49.781 64.372-52.94-2.832 9.017-4.074 17.497-4.15 18.039a2.436 2.436 0 002.413 2.782c.381 0 .762-.089 1.114-.267 26.216-13.467 40.154-14.119 44.723-13.828-.535 6.216-.024 13.343 3.168 20.019.516 1.081 1.238 2.021 1.868 3.024-6.421 4.025-42.036 25.784-72.369 32.62-6.55.54-11.024 1.753-11.469 1.873a2.435 2.435 0 00-1.743 2.788 2.456 2.456 0 002.621 1.989zm9.037-92.771c-.133-5.125-1.267-10.637-4.232-15.209 5.087.997 10.9 1.397 15.796-.241l.011-.006c1.994.785 4.342 1.266 6.946 1.499-5.063 1.809-12.134 5.626-18.521 13.957zm-51.895 5.271c2.394-2.947 5.379-6.617 9.967-11.304 12.199-12.459 30.475-9.824 30.672-9.798.021.003.039-.005.06-.002 6.393 5.527 6.705 14.726 6.121 20.488-16.987 20.663-44.737 13.789-56.186 9.71 3.784-2.223 6.118-5.093 9.366-9.094zm240.578-104.431c6.842 16.041-2.578 31.929-2.673 32.088-.011.018-.01.039-.021.058-7.542 3.786-16.163.56-21.267-2.182-12.605-23.596 4.364-46.601 12.503-55.631.61 4.35 2.372 7.608 4.823 12.135 1.809 3.34 4.06 7.5 6.635 13.532zm-22.998 35.873c4.785 2.045 10.462 3.404 16 2.635-5.445 6.911-11.527 16.621-13.17 27.047a256.669 256.669 0 01-12.633 10.142c-.08-.123-.175-.226-.258-.345 2.601-3.347 16.464-22.339 10.061-39.479zm-52.884 157.324c-2.19-4.084-3.119-7.279-3.454-8.831 2.249 2.457 4.998 4.073 7.868 5.063l-4.414 3.768zm6.935.493c.033.098-.007.204.039.299.04.083 1.12 2.241 3.084 5.25-1.969-.518-4.272-1.348-6.454-2.706l3.331-2.843zm.789 16.867c2.445 2.191 4.763 4.782 6.915 7.563.003.076.013.159.025.235.403 2.413.632 5.887.759 9.24-4.22-6.211-10.554-13.583-17.26-21.216l-.53-.603c-3.242-3.683-3.724-8.706-3.34-12.955 2.255 4.94 6.284 11.347 13.431 17.736zm-12.974-37.137c-1.975-.464-3.394-2.356-4.236-3.867-2.263-4.056-.731-7.271-.031-8.401.905.161 1.822.259 2.747.322.803 2.16 2.564 6.326 5.484 11.051-1.432.768-2.784 1.164-3.964.895zm10.707-119.277c1.87.044 4.023 1.264 5.671 3.143-.683.845-1.8 1.803-3.309 1.524-6.773-1.226-8.805 5.398-9.471 7.576-.695 2.258-3.397 7.347-5.591 9.639-1.503-.677-3.095-1.171-4.783-1.366 2.511-3.538 7.147-9.879 13.241-18.091 1.242-1.669 2.845-2.558 4.242-2.425zm-13.605 26.805c2.2 1.403 4.048 3.759 6.185 6.49a73.055 73.055 0 004.596 5.352c-3.575-1.823-5.558-3.813-5.593-3.847-.016-.017-.043-.012-.06-.029s-.009-.044-.026-.06c-5.893-5.703-11.888-7.214-17.825-4.452-2.038.94-3.994.8-5.048.394-.606-.229-.822-.495-.838-.521 0-.076.108-.387.556-.864 2.748-2.902 12.471-6.007 18.053-2.463zm-17.019-4.014c3.444-3.451 7.047-7.686 10.224-11.57l.638-.775c.931-1.128 2.571-.322 3.397.2-3.428 4.688-6.218 8.578-7.134 10.045-2.56.387-5.03 1.11-7.125 2.1zm33.231 2.299c3.847.876 5.876 1.936 6.919 3.017-3.594-.588-8.755-.57-12.817 2.544-.094-.121-.196-.24-.291-.361-1.634-2.093-3.297-3.966-5.106-5.618.911-1.04 1.773-2.24 2.564-3.509 1.707 1.1 5.163 3.118 8.731 3.927zm-6.379-8.215c.628-1.321 1.103-2.476 1.324-3.196 1.213-3.944 2.261-4.521 3.94-4.21.208.038.396.019.598.04 1.696 6.279 6.804 8.902 10.629 10.813 2.061 1.029 4.007 2 4.401 3.048.473 1.264-.775 2.762-2.283 3.975-1.356-3.283-5.087-5.626-11.151-7.004-3.058-.696-6.201-2.632-7.458-3.466zm-35.536 30.416c4.325-2.947 8.205-4.274 11.589-4.058 8.354.603 14.456-2.064 17.27-3.696 2.829 2.343 9.465 6.769 19.406 6.947 1.67.927 7.306 4.305 10.529 9.151.079 1.276.121 2.559.121 3.861 0 23.756-13.491 43.08-30.075 43.08s-30.075-19.324-30.075-43.08c0-4.153.416-8.249 1.235-12.205zm60.237 2.404c-3.311-3.572-7.134-6.049-9.036-7.148 2.232-.464 4.592-1.238 6.798-2.456 2.581 3.21 2.727 6.857 2.238 9.604zm-2.173-15.556c-4.461 4.169-12.294 4.304-14.557 4.251a29.44 29.44 0 01-4.375-4.005c4.604-3.333 12.145-.677 12.226-.647.247.092.499.108.749.119.036.002.066.034.102.034.016 0 .03-.01.046-.01.343-.006.677-.077.983-.22.006-.003.013-.002.013-.002 2.266-1.078 5.214-3.119 6.879-5.73.377 1.808.188 4.107-2.066 6.21zm1.402-14.768c-1.363-1.413-3.253-2.412-5.26-3.412-3.383-1.687-6.766-3.532-7.979-7.556 1.316-.808 2.347-1.889 3.066-2.926 2.339.175 7.267.983 9.586 4.297 1.58 2.257 1.729 5.509.587 9.597zm-33.638-12.657c-2.435-1.66-6.886-3.191-10.047.633l-.645.787c-2.985 3.645-12.059 14.733-16.616 16.587-.053.021-.086.066-.136.09-.83-.213-1.561-.501-2.067-.903-.384-.305-.568-.622-.616-1.054-.229-2.121.714-3.048 4.531-5.785 2.896-2.077 6.865-4.921 10.643-9.964 5.816-7.75 13.09-9.135 17.487-3.826-.847 1.146-1.695 2.294-2.534 3.435zm-21.538-2.274c-7.62-1.043-14.627 1.501-18.943 7.104-1.791 2.329-2.822 4.973-3.31 7.674-.294.121-.626.126-.862.366-.612.624-1.258 1.409-1.901 2.281-4.278-1.679-15.856-5.695-25.812-4.344-11.509 1.558-20.01.037-24.965-1.404 5.302-1.706 9.213-9.371 12.991-16.802 1.019-2.007 1.984-3.905 2.893-5.487 4.537-7.868 24.426-17.952 43.661-27.706 8.093-4.102 14.18-10.192 18.667-16.339-3.498 22.046-2.816 46.118-2.419 54.657zm-22.021 21.711c.286 1.134.569 2.273 1.105 3.346.327.652.744 1.13 1.124 1.681-1.399 1.396-3.369 3.743-4.675 6.832-1.111-4.773.713-9.088 2.446-11.859zm-2.33 24.453c.861 2.042 1.944 3.753 3.179 5.158-1.925 5.723-3.163 10.969-3.72 15.677a81.264 81.264 0 00-6.299 1.42c1.269-8.357 4.562-16.984 6.84-22.255zm4.515 20.127c.501-3.511 1.414-7.357 2.72-11.511a18.829 18.829 0 005.746 2.334c-.745 2.148-1.667 5.338-2.332 9.065-1.39-.114-3.432-.138-6.134.112zm-9.735-20.322c-2.528 6.072-5.728 15.158-6.7 23.936a128.45 128.45 0 00-6.364 2.234c1.872-10.924 6.796-21.956 7.069-22.563 2.439-1.168 4.414-2.402 5.995-3.607zm-17.006 2.317c1.88-4.809 5.998-12.88 13.329-16.836 2.083.947 3.203 1.692 3.23 1.71.16.121.358.103.534.179a17.892 17.892 0 001.225 4.274c-.823 1.411-5.035 7.455-18.318 10.673zm36.325 3.996c-2.883-.602-7.791-2.496-10.038-8.993-1.118-3.239-.521-6.153.594-8.484.368 4.908 2.369 9.658 7.548 11.184.555 1.808 1.294 3.249 1.965 3.993.015.017.038.022.054.039a65.154 65.154 0 00-.123 2.261zm-4.482-21.232c1.33.596 2.708 1.038 4.132 1.202a13.807 13.807 0 00-1.791 3.829c-.364 1.248-.519 2.516-.564 3.761-1.813-2.222-1.985-6.004-1.777-8.792zm-1.819-8.177c-2.035-4.064-1.47-8.967 1.473-12.789 2.976-3.87 7.768-5.659 13.112-5.294-1.755 1.57-3.444 2.808-4.933 3.878-3.651 2.616-7.103 5.093-6.534 10.281.187 1.721 1.026 3.22 2.426 4.337 2.399 1.911 6.132 2.375 8.988 2.431.002.13.034.247.045.373-.686.245-1.435.462-2.038.739-3.782 1.048-9.767 1.606-12.539-3.956zm8.904 14.383c.784-2.489 2.553-4.432 5.274-5.798 1.216-.349 2.258-.783 3.219-1.219 2.602 1.501 6.455 1.601 9.897 0 2.142-.999 5.38-1.756 9.833 1.42-2.653 1.249-7.107 2.726-12.91 2.269-4.74-.305-9.97 1.492-15.555 5.493-.054.038-.056.117-.106.16.06-.77.1-1.542.348-2.325zm35.649 65.517c2.12-.287 4.176-.865 6.169-1.65 1.994 3.901 4.69 12.196 2.403 16.051-4.394-5.349-7.167-11.05-8.572-14.401zm30.037-34.053c1.303 6.77.773 12.883-1.691 18.221-4.182 9.052-12.743 13.596-16.409 15.2a38.683 38.683 0 00-1.389-3.172c9.336-5.625 16.542-16.681 19.489-30.249zm1.397-11.827c.017-.614.068-1.217.068-1.837 0-.259-.025-.511-.028-.769 1.495-.192 3.523-.623 5.589-1.632 1.815 4.965 3.051 9.53 3.699 13.637a334.52 334.52 0 00-6.63-1.565 58.873 58.873 0 00-2.509-7.549c-.046-.111-.131-.186-.189-.285zm-.001-21.315c-.47-.968-1.112-1.911-1.855-2.848a12.078 12.078 0 001.973-2.671c.064-.002.126-.005.191-.01a15.677 15.677 0 002.469-.427c.508.82 1.112 2.095 1.399 3.614-.645.687-1.086 1.511-1.382 2.306-1.286.838-2.197.298-2.394.159-.116-.096-.273-.052-.401-.123zm20.739 33.714a335.1 335.1 0 00-6.296-1.704c-.623-5.314-2.193-11.336-4.714-17.952 1.197-1.247 2.45-2.918 3.484-4.775 2.328 5.215 6.266 15.065 7.526 24.431zm-5.493-31.821c.089-.121.228-.188.295-.329.573-1.191.774-2.218.816-3.169 4.511 5.914 12.591 19.032 15.672 38.77a208.897 208.897 0 00-6.201-1.972c-1.397-14.916-9.694-31.21-10.046-31.896-.121-.237-.297-.421-.477-.598.006-.276-.037-.538-.059-.806zm22.088 37.18c-3.547-27.67-16.645-43.525-19.903-47.09.262-.048.543-.046.802-.101 19.367 10.315 24.463 38.792 25.735 50.05-1.925-.969-4.197-1.926-6.634-2.859zm-21.999-51.791a14.528 14.528 0 00-.21-1.088c4.089-3.001 18.057-13.565 30.49-26.726-5.85 11.508-15.994 25.875-30.28 27.814zm-4.696 2.686c-.003.058.008.09.005.147 0 .017-.009.033-.008.05.001.018.011.033.012.051-.097 2.76.287 4.658.585 6.033.049.227.081.395.119.583a11.761 11.761 0 00-2.521-.581c-.489-2.11-1.307-3.817-2.005-4.918 1.172-1.75 1.603-4.24 1.936-7.536 1.13 1.536 1.995 3.61 1.877 6.171zm-3.531 11.881c.117-.26.318-.705.425-.787-.003-.006.527-.235 2.289.394.464.165.53.337.584.603.441 2.134-2.248 6.884-4.677 9.125-1.605 1.48-3.613 2.169-5.197 2.498.66-1.98 1.332-5.072.98-8.477 1.224-.005 2.552-.248 3.957-1.165.921-.603 1.334-1.517 1.639-2.191zm-3.013-20.416c-.597 6.378-.74 7.547-2.671 7.958-.003-2.463-.776-4.729-1.692-6.358 1.524-4.215 1.885-7.858 1.33-11.025.714.296 1.422.679 1.992 1.309 1.102 1.213 1.537 3.061 1.295 5.48l-.254 2.636zm-113.702.908c8.19-1.127 18.213 2.111 22.65 3.769a22.312 22.312 0 00-1.871 6.196c-4.226-2.207-14.446-6.237-32.273-5.882-7.185.298-11.777-2.566-14.45-5.322 5.582 1.5 14.377 2.795 25.944 1.239zm-1.6 9.268c4.392.363 8.079.99 11.076 1.749-5.566 2.129-13.979 5.52-20.532 8.917 2.126-3.391 5.237-7.362 9.456-10.666zm9.915 24.838c-2.014 5.131-4.975 13.788-5.992 22.209a184.409 184.409 0 00-9.099 4.115c1.227-6.236 3.891-17.283 8.287-24.649 2.496-.476 4.764-1.039 6.804-1.675zm35.086 36.948c-3.319-6.924-3.257-14.641-2.281-20.873 3.316 16.055 12.572 28.68 24.302 33.135a13.085 13.085 0 00-1.087 3.625c-10.216-3.104-17.339-8.381-20.934-15.887zm19.054 24.486c.478-1.072 1.544-1.905 2.507-2.49.271.775.571 1.559 1.027 2.376.682 1.222 1.475 2.223 2.315 3.114-.53 1.214-1.776 2.131-2.995 2.137h-.003c-1.505 0-2.356-1.372-2.807-2.521-.387-.99-.403-1.822-.044-2.616zm37.825 32.793a55.449 55.449 0 01-4.439-5.366c3.543 1.765 7.871 3.728 12.212 5.207a31.804 31.804 0 01-7.773.159zm-22.441-26.772c1.047-.257 2.186-.72 3.407-1.432 2.361 3.191 5.188 6.382 8.655 9.129-4.289-.477-9.342-2.314-12.062-7.697zM101.275 158.879c.271-.024.774.025 1.384.223.841.274 1.914.87 3.122 2.292 1.841 2.165 4.237 3.93 6.851 5.358.152.083.288.187.442.268 3.345 1.743 7.073 2.864 10.831 3.03l2.242.114c11.923.641 25.036 1.01 29.888-2.724 3.991-3.067 9.805-9.976 17.847-19.54 2.632-3.131 5.49-6.522 8.567-10.116 6.433-7.519 18.527-17.889 29.195-27.033 11.005-9.43 17.311-14.904 18.946-17.743l.381-.667c5.166-9.017 13.183-20.569 23.255-16.46 10.894 4.413 11.504 7.404 12.094 10.294.098.489.2.972.324 1.448 1.422 5.461 3.686 12.313 6.306 20.245 8.37 25.33 20.765 62.938 15.372 89.407-3.915-3.351-9.285-3.984-11.665-4.105-2.17-2.743-5.582-5.384-9.696-5.485-2.267-.019-5.378.667-8.106 4.206-2.605-2.735-5.864-4.295-9.424-4.295-3.225 0-7.905 1.222-12.83 6.613-.437-12.678-.73-44.161 5.803-66.388 1.921-4.528 2.772-7.728 2.867-8.103a2.444 2.444 0 00-1.578-2.921c-1.21-.375-2.521.178-3.026 1.353-1.038 2.426-1.959 5.023-2.781 7.754-3.569 8.332-11.062 21.604-24.518 28.43-24.417 12.377-40.788 21.127-45.681 29.618-.949 1.645-1.956 3.626-3.02 5.715-2.874 5.658-6.811 13.405-10.189 14.402-.578.178-1.083.102-1.692-.248-2.778-1.6-5.122-4.255-7.389-6.827-3.328-3.778-6.766-7.678-11.773-8.395l-.972-.14c-7.014-.984-21.613-3.042-24.642-11.138l-.794-2.121c-2.927-7.849-3.102-8.319-5.944-11.424-2.077-2.264-1.832-3.107-1.293-4.078.044-.08.073-.158.121-.24.133-.23.521-.515 1.175-.579z" fill="#464655"/></svg>